<?xml version="1.0" encoding="UTF-8"?>
<svg id="Layer_1" data-name="Layer 1" xmlns="http://www.w3.org/2000/svg" viewBox="0 0 1080 1080">
  <defs>
    <style>
      .cls-1 {
        fill: #362869;
      }

      .cls-1, .cls-2 {
        stroke-width: 0px;
      }

      .cls-2 {
        fill: #f9ca24;
      }
    </style>
  </defs>
  <rect class="cls-2" x="73.5" y="409.64" width="260.44" height="277.2"/>
  <g>
    <polygon class="cls-1" points="328.89 459.83 245.62 600.19 245.62 686.84 218.52 686.84 218.52 592.76 273.81 499.55 12 556.58 201.96 318.88 221.27 338.14 80.86 513.87 328.89 459.83"/>
    <polygon class="cls-1" points="333.94 437.44 139.49 479.79 238.73 355.6 257.99 374.91 208.29 437.08 333.94 409.64 333.94 437.44"/>
  </g>
  <g>
    <path class="cls-1" d="M401.74,681.96c-8.81-4.82-15.66-11.59-20.54-20.3-4.88-8.71-7.32-18.67-7.32-29.9s2.44-21.19,7.32-29.9c4.88-8.71,11.72-15.47,20.54-20.3,8.81-4.82,18.88-7.24,30.21-7.24,10.49,0,19.91,1.94,28.25,5.82,8.34,3.88,15.16,9.47,20.46,16.76,5.3,7.29,8.79,15.87,10.47,25.73h-37.3c-1.47-4.19-4.01-7.53-7.63-9.99-3.62-2.46-7.79-3.7-12.51-3.7-6.4,0-11.57,2.1-15.5,6.3-3.93,4.2-5.9,9.71-5.9,16.52s1.97,12.2,5.9,16.44c3.93,4.25,9,6.37,15.19,6.37,4.93,0,9.23-1.26,12.91-3.78,3.67-2.52,6.3-5.98,7.87-10.39h37.45c-1.26,9.76-4.59,18.31-9.99,25.65-5.4,7.34-12.35,13.04-20.85,17.08-8.5,4.04-17.99,6.06-28.49,6.06-11.54,0-21.72-2.41-30.53-7.24Z"/>
    <path class="cls-1" d="M505.44,576.68h79.31v28.17h-42.33v12.75h38.24v27.38h-38.24v13.22h43.91v28.64h-80.89v-110.16Z"/>
    <path class="cls-1" d="M608.6,679.05c-8.34-6.77-12.51-16.23-12.51-28.41h36.35c0,3.57.95,6.3,2.83,8.18,1.89,1.89,4.61,2.83,8.18,2.83,3.04,0,5.4-.6,7.08-1.81,1.68-1.2,2.52-2.91,2.52-5.11,0-2.73-1.44-4.96-4.33-6.69-2.89-1.73-7.47-3.12-13.77-4.17-13.01-2.2-22.61-6.14-28.8-11.8-6.19-5.67-9.28-13.32-9.28-22.98,0-10.8,3.96-19.3,11.88-25.49,7.92-6.19,18.81-9.28,32.65-9.28,9.44,0,17.65,1.52,24.63,4.56,6.98,3.04,12.38,7.42,16.21,13.14,3.83,5.72,5.8,12.41,5.9,20.07h-35.57c0-3.46-.92-6.11-2.75-7.95-1.84-1.83-4.43-2.75-7.79-2.75-2.94,0-5.25.63-6.92,1.89-1.68,1.26-2.52,2.94-2.52,5.04,0,2.52,1.34,4.56,4.01,6.14,2.67,1.57,7.32,2.99,13.93,4.25,13.74,2.62,23.79,6.71,30.14,12.27,6.35,5.56,9.52,13.06,9.52,22.5,0,11.23-4.09,19.99-12.28,26.28-8.18,6.29-19.62,9.44-34.31,9.44s-26.67-3.38-35.02-10.15Z"/>
    <path class="cls-1" d="M704.68,576.68h38.08v110.16h-38.08v-110.16Z"/>
    <path class="cls-1" d="M785.17,683.45c-7.61-3.83-13.43-9.36-17.47-16.6-4.04-7.24-6.06-15.84-6.06-25.81v-64.37h37.93v62.32c0,10.18,4.19,15.26,12.59,15.26s12.59-5.09,12.59-15.26v-62.32h38.08v64.37c0,9.97-2.02,18.57-6.06,25.81-4.04,7.24-9.89,12.77-17.55,16.6-7.66,3.83-16.68,5.74-27.07,5.74s-19.38-1.91-26.99-5.74Z"/>
    <path class="cls-1" d="M881.87,576.68h30.84l34.31,46.27,34.46-46.27h30.69v110.16h-37.14v-25.34l.31-22.66h-.47l-17.31,23.76h-21.09l-17.31-23.92-.47.16.32,22.66v25.34h-37.14v-110.16Z"/>
  </g>
  <g>
    <path class="cls-1" d="M824.67,542.08c0-10.98,7.61-18.8,18.23-18.8,8.39,0,14.96,4.82,17.3,11.86h-3.42c-2.28-5.39-7.25-8.7-13.72-8.7-9.01,0-15.17,6.37-15.17,15.64s6.21,15.64,15.17,15.64c8.44,0,14.19-5.64,14.86-13.57h-16.06v-3h19.42c.1,11.5-7.25,19.73-18.28,19.73s-18.33-7.82-18.33-18.8Z"/>
    <path class="cls-1" d="M870.27,523.96h13.41c7.3,0,12.07,4.4,12.07,11.29,0,6.01-3.57,10.1-9.27,11.08l9.84,13.88h-3.78l-9.74-13.62h-9.37v13.62h-3.16v-36.25ZM883.38,543.58c5.75,0,9.17-3.16,9.17-8.34s-3.42-8.29-9.17-8.29h-9.94v16.62h9.94Z"/>
    <path class="cls-1" d="M902.68,542.08c0-11.08,7.66-18.8,18.69-18.8s18.7,7.72,18.7,18.8-7.61,18.8-18.7,18.8-18.69-7.72-18.69-18.8ZM921.38,557.72c9.22,0,15.54-6.37,15.54-15.64s-6.32-15.64-15.54-15.64-15.48,6.32-15.48,15.64,6.32,15.64,15.48,15.64Z"/>
    <path class="cls-1" d="M948.76,545.91v-21.96h3.11v21.8c0,7.71,3.83,12.01,10.57,12.01s10.57-4.3,10.57-12.01v-21.8h3.11v21.96c0,9.32-5.18,14.91-13.67,14.91s-13.67-5.59-13.67-14.91Z"/>
    <path class="cls-1" d="M987.32,523.96h11.5c8.39,0,13.36,4.4,13.36,11.91s-4.97,11.91-13.36,11.91h-8.34v12.43h-3.16v-36.25ZM998.77,544.88c6.78,0,10.25-3.05,10.25-8.96s-3.47-8.96-10.25-8.96h-8.29v17.92h8.29Z"/>
  </g>
  <circle class="cls-1" cx="1054.39" cy="672.23" r="14.61"/>
</svg>