<?xml version="1.0" encoding="UTF-8"?>
<svg id="Layer_1" data-name="Layer 1" xmlns="http://www.w3.org/2000/svg" viewBox="0 0 1080 1080">
  <defs>
    <style>
      .cls-1 {
        fill: #362869;
      }

      .cls-1, .cls-2 {
        stroke-width: 0px;
      }

      .cls-2 {
        fill: #f9ca24;
      }
    </style>
  </defs>
  <rect class="cls-2" x="101.31" y="369.1" width="408.64" height="434.94"/>
  <g>
    <polygon class="cls-1" points="502.03 447.86 371.37 668.09 371.37 804.04 328.85 804.04 328.85 656.42 415.6 510.18 4.81 599.66 302.86 226.68 333.16 256.9 112.85 532.65 502.03 447.86"/>
    <polygon class="cls-1" points="509.95 412.73 204.84 479.17 360.56 284.3 390.78 314.6 312.8 412.15 509.95 369.1 509.95 412.73"/>
  </g>
  <g>
    <path class="cls-1" d="M621.37,602.74c-12.61-6.9-22.41-16.59-29.39-29.05-6.98-12.46-10.47-26.72-10.47-42.79s3.49-30.33,10.47-42.79c6.98-12.46,16.78-22.14,29.39-29.05,12.61-6.9,27.02-10.36,43.24-10.36,15.01,0,28.49,2.78,40.42,8.33,11.94,5.56,21.69,13.55,29.28,23.98,7.58,10.44,12.57,22.71,14.97,36.82h-53.37c-2.11-6-5.74-10.77-10.92-14.3-5.18-3.53-11.15-5.29-17.9-5.29-9.16,0-16.55,3-22.18,9.01-5.63,6.01-8.45,13.89-8.45,23.65s2.81,17.45,8.45,23.53c5.63,6.08,12.87,9.12,21.73,9.12,7.06,0,13.21-1.8,18.47-5.41,5.25-3.6,9.01-8.56,11.26-14.86h53.6c-1.8,13.96-6.57,26.2-14.3,36.71-7.73,10.51-17.68,18.65-29.84,24.43-12.16,5.78-25.75,8.67-40.76,8.67-16.52,0-31.08-3.45-43.69-10.36Z"/>
    <path class="cls-1" d="M769.78,452.09h113.5v40.31h-60.58v18.24h54.72v39.19h-54.72v18.91h62.83v40.99h-115.75v-157.64Z"/>
    <path class="cls-1" d="M917.4,598.58c-11.94-9.68-17.9-23.23-17.9-40.65h52.02c0,5.1,1.35,9.01,4.06,11.71,2.7,2.7,6.6,4.06,11.71,4.06,4.36,0,7.73-.86,10.14-2.59,2.4-1.73,3.6-4.17,3.6-7.32,0-3.9-2.07-7.1-6.2-9.57-4.13-2.48-10.7-4.46-19.7-5.97-18.62-3.15-32.35-8.78-41.21-16.89-8.86-8.11-13.28-19.06-13.28-32.88,0-15.46,5.66-27.62,17-36.48,11.33-8.86,26.91-13.29,46.73-13.29,13.51,0,25.26,2.18,35.24,6.53,9.98,4.36,17.71,10.62,23.2,18.8,5.48,8.18,8.3,17.75,8.44,28.71h-50.89c0-4.96-1.31-8.74-3.94-11.37-2.63-2.62-6.34-3.94-11.15-3.94-4.2,0-7.51.9-9.91,2.7-2.4,1.8-3.6,4.2-3.6,7.21,0,3.6,1.91,6.53,5.74,8.78,3.83,2.25,10.47,4.28,19.93,6.08,19.67,3.76,34.04,9.61,43.12,17.57,9.08,7.96,13.63,18.69,13.63,32.2,0,16.07-5.86,28.6-17.57,37.61-11.71,9.01-28.08,13.51-49.09,13.51s-38.17-4.84-50.11-14.53Z"/>
  </g>
  <g>
    <path class="cls-1" d="M600.88,646.54h13.74v157.66h-13.74v-157.66Z"/>
    <path class="cls-1" d="M663.49,742.04v-95.5h13.51v94.82c0,33.56,16.67,52.25,45.94,52.25s45.94-18.7,45.94-52.25v-94.82h13.51v95.5c0,40.54-22.52,64.86-59.46,64.86s-59.46-24.32-59.46-64.86Z"/>
    <path class="cls-1" d="M831.26,646.54h12.84l65.54,98.65,65.54-98.65h12.61v157.66h-13.51v-132.43l-59.01,88.51h-11.26l-59.01-88.51v132.43h-13.74v-157.66Z"/>
  </g>
  <g>
    <path class="cls-1" d="M693.23,399.21c0-17.25,11.96-29.53,28.63-29.53,13.18,0,23.51,7.57,27.17,18.63h-5.37c-3.58-8.46-11.39-13.67-21.56-13.67-14.15,0-23.84,10.01-23.84,24.57s9.76,24.57,23.84,24.57c13.26,0,22.29-8.87,23.35-21.31h-25.22v-4.72h30.51c.16,18.06-11.39,30.99-28.71,30.99s-28.8-12.29-28.8-29.53Z"/>
    <path class="cls-1" d="M764.87,370.73h21.07c11.47,0,18.96,6.92,18.96,17.73,0,9.44-5.61,15.86-14.56,17.41l15.46,21.8h-5.94l-15.3-21.39h-14.72v21.39h-4.96v-56.94ZM785.45,401.56c9.03,0,14.4-4.96,14.4-13.1s-5.37-13.02-14.4-13.02h-15.62v26.11h15.62Z"/>
    <path class="cls-1" d="M815.78,399.21c0-17.41,12.04-29.53,29.37-29.53s29.37,12.12,29.37,29.53-11.96,29.53-29.37,29.53-29.37-12.12-29.37-29.53ZM845.14,423.77c14.48,0,24.41-10.01,24.41-24.57s-9.93-24.57-24.41-24.57-24.32,9.92-24.32,24.57,9.93,24.57,24.32,24.57Z"/>
    <path class="cls-1" d="M888.16,405.22v-34.49h4.88v34.25c0,12.12,6.02,18.87,16.6,18.87s16.6-6.75,16.6-18.87v-34.25h4.88v34.49c0,14.64-8.14,23.43-21.48,23.43s-21.48-8.79-21.48-23.43Z"/>
    <path class="cls-1" d="M948.74,370.73h18.06c13.17,0,20.98,6.92,20.98,18.71s-7.81,18.71-20.98,18.71h-13.1v19.52h-4.96v-56.94ZM966.72,403.6c10.66,0,16.11-4.8,16.11-14.07s-5.45-14.07-16.11-14.07h-13.02v28.15h13.02Z"/>
  </g>
  <circle class="cls-1" cx="1045.05" cy="783.95" r="22.95"/>
</svg>