<svg width="398" height="252" viewBox="0 0 398 252" fill="none" xmlns="http://www.w3.org/2000/svg">
<rect x="0.504395" y="0.778931" width="397" height="251" rx="1" fill="#F2F2F2"/>
<mask id="mask0_199_577" style="mask-type:alpha" maskUnits="userSpaceOnUse" x="0" y="0" width="398" height="252">
<rect x="0.504395" y="0.778931" width="397" height="251" rx="0.558439" fill="#D9D9D9"/>
</mask>
<g mask="url(#mask0_199_577)">
<path d="M431.502 -16.7478V23.8681L151.423 85.7031L232.188 -16.7478L294.383 -95.6592L322.123 -67.4341L282.152 -16.7478L250.515 23.3401L431.502 -16.7478Z" fill="#362869" fill-opacity="0.1"/>
<path d="M424.614 55.979L304.331 260.302V386.443H265.231V249.476L345.055 113.792L55.7971 177.308L-33 196.816L55.7971 84.8005L136.563 -17.1089L241.298 -149.226L269.166 -121.191L186.68 -17.1089L66.4325 134.643L424.614 55.979Z" fill="#362869" fill-opacity="0.1"/>
</g>
</svg>
