<svg width="398" height="252" viewBox="0 0 398 252" fill="none" xmlns="http://www.w3.org/2000/svg">
<rect x="0.504395" y="0.778931" width="397" height="251" rx="1" fill="#F2F2F2"/>
<mask id="mask0_199_591" style="mask-type:alpha" maskUnits="userSpaceOnUse" x="-1" y="0" width="397" height="251">
<path d="M-1 0.558441C-1 0.250023 -0.749978 0 -0.441561 0H395.442C395.75 0 396 0.250022 396 0.558439V250.442C396 250.75 395.75 251 395.442 251H-0.441552C-0.74997 251 -1 250.75 -1 250.442V0.558441Z" fill="#D9D9D9"/>
</mask>
<g mask="url(#mask0_199_591)">
<path d="M578.997 72.2522V112.868L298.919 174.703L379.683 72.2522L441.878 -6.65918L469.619 21.5659L429.648 72.2522L398.011 112.34L578.997 72.2522Z" fill="#362869" fill-opacity="0.1"/>
<path d="M572.11 144.979L451.826 349.302V475.443H412.727V338.476L492.551 202.792L203.293 266.308L114.496 285.816L203.293 173.8L284.058 71.8911L388.794 -60.2262L416.662 -32.1907L334.175 71.8911L213.928 223.643L572.11 144.979Z" fill="#362869" fill-opacity="0.1"/>
</g>
</svg>
