<svg width="393" height="400" viewBox="0 0 393 400" fill="none" xmlns="http://www.w3.org/2000/svg">
<path d="M249.343 232.301C263.291 253.516 257.337 281.993 236.13 295.945C214.923 309.817 186.457 303.942 172.509 282.727C158.562 261.512 164.516 233.036 185.723 219.083C206.93 205.13 235.396 211.086 249.343 232.301Z" fill="#A492CD"/>
<path opacity="0.5" d="M232.215 216.798C235.314 219.491 238.169 222.673 240.534 226.263C254.482 247.478 248.528 275.955 227.321 289.826C212.884 299.291 195.103 299.617 180.829 292.11C196 305.247 218.512 307.369 236.13 295.782C257.337 281.829 263.209 253.353 249.343 232.22C244.857 225.447 238.903 220.225 232.215 216.717V216.798Z" fill="#2F2662"/>
<path opacity="0.5" d="M199.181 229.037C177.974 242.99 172.102 271.467 185.968 292.6C186.539 293.416 187.109 294.313 187.762 295.129C200.568 299.372 215.168 297.904 227.321 289.907C248.528 275.955 254.4 247.478 240.534 226.345C239.963 225.447 239.392 224.631 238.74 223.815C225.934 219.572 211.334 221.041 199.181 229.037Z" fill="#35297D"/>
<path opacity="0.5" d="M190.372 223.081C204.401 213.861 221.53 213.371 235.64 220.144C234.58 219.001 233.438 217.859 232.215 216.798C217.941 209.373 200.16 209.618 185.723 219.083C164.516 233.036 158.643 261.512 172.509 282.727C174.875 286.317 177.73 289.499 180.829 292.192C181.237 292.437 181.645 292.6 182.052 292.763C180.258 290.886 178.627 288.765 177.159 286.562C163.211 265.347 169.165 236.871 190.372 222.999V223.081Z" fill="#856BC0"/>
<g style="mix-blend-mode:screen" opacity="0.5">
<path d="M233.601 236.707C245.265 245.356 251.709 258.575 252.117 272.038C253.014 270.651 253.829 269.264 254.482 267.877C256.032 252.292 249.67 236.299 236.211 226.345C215.82 211.25 187.109 215.493 171.938 235.891C170.307 238.013 168.921 240.297 167.779 242.582C167.534 244.622 167.534 246.662 167.615 248.783C168.186 247.886 168.757 247.07 169.328 246.254C184.418 225.855 213.21 221.612 233.52 236.707H233.601Z" fill="#AA99D5"/>
</g>
<g style="mix-blend-mode:overlay" opacity="0.5">
<path d="M236.211 226.345C249.67 236.299 256.113 252.292 254.482 267.877C255.216 266.408 255.869 264.939 256.439 263.47C258.479 247.478 252.117 230.914 238.251 220.633C217.859 205.538 189.149 209.781 174.059 230.18C171.449 233.688 169.491 237.36 168.023 241.277C168.023 241.766 167.942 242.174 167.86 242.582C169.002 240.297 170.389 238.013 172.02 235.891C187.109 215.493 215.902 211.25 236.293 226.345H236.211Z" fill="#856BC0"/>
</g>
<g style="mix-blend-mode:multiply" opacity="0.5">
<path d="M234.662 233.607C234.662 233.607 198.365 232.138 192.085 257.351C185.641 283.38 209.458 294.069 209.458 294.069C209.458 294.069 172.509 295.211 169.899 259.88C168.513 240.95 184.418 217.94 208.969 221.123C222.835 222.918 234.662 233.607 234.662 233.607Z" fill="#220062"/>
</g>
<path opacity="0.5" d="M199.181 229.037C211.334 221.041 225.934 219.572 238.74 223.815C237.761 222.51 236.701 221.286 235.64 220.144C221.53 213.29 204.401 213.861 190.372 223.081C169.165 237.034 163.293 265.51 177.159 286.644C178.627 288.847 180.258 290.968 182.052 292.845C183.928 293.742 185.804 294.558 187.762 295.129C187.191 294.313 186.538 293.498 185.968 292.6C172.02 271.385 177.974 242.909 199.181 229.037Z" fill="#AA99D5"/>
<path opacity="0.5" d="M165.169 260.86C166.392 264.776 168.186 268.611 170.552 272.283C184.499 293.498 212.965 299.372 234.091 285.501C248.528 276.036 255.869 259.799 254.727 243.806C260.762 262.899 253.748 284.522 236.13 296.027C214.923 309.98 186.457 304.023 172.509 282.809C168.105 276.036 165.658 268.448 165.087 260.941L165.169 260.86Z" fill="#2F2662"/>
<path opacity="0.5" d="M189.475 235.402C210.682 221.449 239.148 227.405 253.095 248.539C253.666 249.436 254.156 250.252 254.645 251.15C253.422 264.613 246.325 277.423 234.172 285.42C212.965 299.372 184.499 293.416 170.633 272.201C170.062 271.304 169.573 270.488 169.002 269.59C170.226 256.127 177.403 243.316 189.556 235.32L189.475 235.402Z" fill="#35297D"/>
<g style="mix-blend-mode:overlay" opacity="0.5">
<path d="M187.436 224.958C173.407 234.178 166.147 249.763 166.8 265.347C166.147 263.878 165.576 262.41 165.087 260.859C163.945 244.785 171.286 228.629 185.641 219.164C206.848 205.212 235.314 211.168 249.262 232.383C251.627 235.973 253.422 239.808 254.645 243.724C254.645 244.132 254.645 244.622 254.645 245.03C253.585 242.664 252.361 240.297 250.893 238.094C236.945 216.88 208.479 211.005 187.354 224.958H187.436Z" fill="#856BC0"/>
</g>
<g style="mix-blend-mode:overlay" opacity="0.5">
<path d="M189.475 235.402C177.322 243.398 170.144 256.209 168.921 269.672C168.105 268.285 167.452 266.816 166.8 265.347C166.147 249.763 173.488 234.178 187.436 224.958C208.643 211.005 237.109 216.961 250.975 238.094C252.443 240.298 253.666 242.664 254.727 245.03C254.808 247.07 254.727 249.11 254.563 251.15C254.074 250.252 253.585 249.436 253.014 248.539C239.066 227.324 210.6 221.449 189.393 235.402H189.475Z" fill="#AA99D5"/>
</g>
<g style="mix-blend-mode:overlay" opacity="0.5">
<path d="M256.439 263.471C254.971 267.306 252.932 271.059 250.404 274.486C235.314 294.885 206.522 299.128 186.131 284.033C172.265 273.752 165.903 257.188 167.942 241.195C160.846 259.962 166.637 281.829 183.521 294.395C203.912 309.49 232.623 305.247 247.794 284.848C252.687 278.321 255.461 270.977 256.439 263.471Z" fill="#2F2662"/>
</g>
<g style="mix-blend-mode:overlay" opacity="0.4">
<path d="M233.601 236.707C213.21 221.612 184.499 225.855 169.41 246.254C168.757 247.07 168.186 247.886 167.697 248.783C168.105 262.247 174.548 275.465 186.212 284.114C206.603 299.209 235.314 294.966 250.485 274.567C251.138 273.751 251.709 272.935 252.198 272.038C251.79 258.575 245.347 245.356 233.683 236.707H233.601Z" fill="#2A0B65"/>
</g>
<g style="mix-blend-mode:multiply" opacity="0.3">
<path d="M165.821 253.679C165.821 253.679 197.876 277.994 219.572 258.983C241.839 239.4 226.913 214.677 226.913 214.677C226.913 214.677 261.252 237.034 241.35 270.732C230.665 288.847 201.628 299.699 181.318 281.258C169.899 270.896 165.821 253.679 165.821 253.679Z" fill="#301168"/>
</g>
<g style="mix-blend-mode:multiply" opacity="0.2">
<path d="M190.046 283.298C190.046 283.298 226.342 284.767 232.623 259.554C239.066 233.525 215.249 222.836 215.249 222.836C215.249 222.836 252.198 221.694 254.808 257.024C256.195 275.955 240.29 298.964 215.739 295.782C201.873 293.987 190.046 283.298 190.046 283.298Z" fill="#220062"/>
</g>
<g style="mix-blend-mode:multiply" opacity="0.2">
<path d="M187.354 231.73C187.354 231.73 181.971 265.755 209.377 276.118C237.68 286.807 252.769 261.594 252.769 261.594C252.769 261.594 249.099 303.126 209.213 301.412C187.844 300.433 164.19 279.545 171.041 252.455C174.875 237.197 187.354 231.812 187.354 231.812V231.73Z" fill="#220062"/>
</g>
<g style="mix-blend-mode:screen" opacity="0.5">
<path d="M254.89 253.516C254.89 253.516 222.835 229.201 201.139 248.212C178.871 267.795 193.798 292.518 193.798 292.518C193.798 292.518 159.459 270.243 179.361 236.463C190.046 218.348 219.083 207.496 239.392 225.937C250.812 236.299 254.89 253.516 254.89 253.516Z" fill="#301168"/>
</g>
<g style="mix-blend-mode:multiply" opacity="0.2">
<path d="M193.227 229.119C193.227 229.119 190.535 260.696 212.231 267.142C234.662 273.752 244.857 253.434 244.857 253.434C244.857 253.434 244.449 285.746 213.536 286.644C196.979 287.133 177.566 272.364 181.318 251.068C183.439 239.074 193.227 229.201 193.227 229.201V229.119Z" fill="#301168"/>
</g>
<g style="mix-blend-mode:overlay" opacity="0.5">
<path d="M225.363 293.334C225.363 293.334 228.055 261.757 206.359 255.311C183.928 248.702 173.733 269.019 173.733 269.019C173.733 269.019 174.141 236.707 205.054 235.81C221.611 235.32 241.024 250.089 237.272 271.385C235.151 283.38 225.363 293.253 225.363 293.253V293.334Z" fill="#A492CD"/>
</g>
<g style="mix-blend-mode:screen" opacity="0.5">
<path d="M229.686 222.999C229.686 226.508 220.551 222.999 209.295 222.999C198.039 222.999 188.904 226.508 188.904 222.999C188.904 219.491 198.039 213.942 209.295 213.942C220.551 213.942 229.686 219.572 229.686 223.081V222.999Z" fill="white"/>
</g>
<g style="mix-blend-mode:overlay" opacity="0.4">
<path d="M235.722 287.46C235.314 284.033 226.668 288.602 215.576 289.989C204.401 291.376 194.94 289.091 195.348 292.518C195.755 295.945 205.543 300.433 216.636 298.964C227.81 297.577 236.13 290.887 235.64 287.378L235.722 287.46Z" fill="#F4CB3A"/>
</g>
<path style="mix-blend-mode:overlay" opacity="0.3" d="M249.343 232.301C263.291 253.516 257.337 281.993 236.13 295.945C214.923 309.817 186.457 303.942 172.509 282.727C158.562 261.512 164.516 233.036 185.723 219.083C206.93 205.13 235.396 211.086 249.343 232.301Z" fill="url(#paint0_radial_109_577)"/>
<g style="mix-blend-mode:multiply" opacity="0.5">
<path d="M206.848 231.322C209.05 234.178 205.38 240.706 198.61 245.928C191.84 251.15 184.581 253.108 182.379 250.252C180.176 247.396 183.847 240.869 190.617 235.647C197.305 230.425 204.564 228.466 206.767 231.322H206.848Z" fill="#6654A6"/>
</g>
<g style="mix-blend-mode:overlay" opacity="0.5">
<path d="M203.504 230.669C206.767 233.199 205.461 241.032 199.997 247.723C189.883 259.88 181.889 279.218 178.627 276.607C175.283 274.078 176.751 255.229 188.007 238.502C192.819 231.322 200.241 228.14 203.504 230.669Z" fill="#A492CD"/>
</g>
<g style="mix-blend-mode:multiply" opacity="0.4">
<path d="M191.351 235.402C191.351 235.402 195.021 242.093 200.323 238.91C205.788 235.647 201.873 230.098 201.873 230.098C201.873 230.098 210.274 235.483 204.727 241.848C201.791 245.275 196.489 246.091 192.901 241.44C190.861 238.747 191.269 235.483 191.269 235.483L191.351 235.402Z" fill="#190062"/>
</g>
<g style="mix-blend-mode:multiply" opacity="0.3">
<path d="M207.827 232.464C209.213 235.402 206.196 239.726 201.057 242.256C195.918 244.785 190.535 244.459 189.149 241.521C187.762 238.666 190.78 234.259 195.918 231.73C201.057 229.282 206.44 229.527 207.827 232.464Z" fill="#4F3E85"/>
</g>
<path d="M171.367 182.039C168.35 183.507 167.126 187.179 168.594 190.198L191.595 236.707C193.064 239.726 196.734 240.95 199.752 239.482C202.77 238.013 203.993 234.341 202.525 231.322L179.524 184.813C178.056 181.794 174.385 180.57 171.367 182.039Z" fill="url(#paint1_linear_109_577)"/>
<path d="M211.987 140.67C230.828 167.433 224.385 204.477 197.55 223.244C170.796 242.093 133.848 235.647 115.006 208.802C96.1648 182.039 102.608 144.994 129.443 126.228C156.196 107.379 193.227 113.825 211.987 140.588V140.67Z" fill="#A492CD"/>
<path opacity="0.5" d="M189.23 121.413C193.308 124.759 197.06 128.757 200.323 133.326C219.164 160.09 212.721 197.052 185.886 215.901C167.697 228.711 144.777 229.772 126.017 220.796C146.082 237.115 175.283 238.91 197.468 223.326C224.221 204.477 230.665 167.515 211.905 140.751C205.869 132.184 198.039 125.738 189.23 121.495V121.413Z" fill="#2F2662"/>
<path opacity="0.5" d="M147.143 138.548C120.39 157.315 113.946 194.359 132.706 221.123C133.521 222.183 134.256 223.244 135.071 224.223C151.792 229.119 170.47 226.671 185.886 215.901C212.639 197.052 219.083 160.09 200.323 133.326C199.589 132.266 198.773 131.205 197.958 130.226C181.237 125.33 162.558 127.778 147.224 138.63L147.143 138.548Z" fill="#35297D"/>
<path opacity="0.5" d="M135.561 131.123C153.26 118.639 175.364 117.334 193.798 125.493C192.33 124.025 190.861 122.637 189.23 121.413C170.47 112.438 147.632 113.499 129.362 126.309C102.608 145.158 96.1648 182.12 114.925 208.883C118.106 213.453 121.858 217.451 126.017 220.796C126.507 221.041 127.078 221.286 127.567 221.531C125.202 219.164 123 216.553 121.042 213.779C102.201 187.016 108.726 150.053 135.479 131.205L135.561 131.123Z" fill="#856BC0"/>
<g style="mix-blend-mode:screen" opacity="0.5">
<path d="M191.922 147.034C207.337 157.723 216.065 174.532 217.207 191.83C218.267 190.035 219.246 188.158 220.143 186.363C221.53 166.209 212.639 145.892 194.858 133.571C167.942 114.886 131.074 121.577 112.396 148.421C110.439 151.277 108.726 154.215 107.339 157.234C107.176 159.845 107.176 162.537 107.339 165.148C107.992 164.006 108.726 162.945 109.46 161.803C128.138 134.958 165.005 128.267 191.922 146.953V147.034Z" fill="#AA99D5"/>
</g>
<g style="mix-blend-mode:overlay" opacity="0.5">
<path d="M194.858 133.571C212.639 145.892 221.53 166.209 220.143 186.363C221.04 184.486 221.774 182.61 222.427 180.651C224.466 159.926 215.576 138.793 197.223 126.146C170.389 107.461 133.44 114.151 114.762 140.996C111.581 145.566 109.134 150.461 107.421 155.52C107.421 156.091 107.339 156.663 107.258 157.234C108.644 154.215 110.357 151.277 112.315 148.421C130.993 121.577 167.86 114.886 194.777 133.571H194.858Z" fill="#856BC0"/>
</g>
<g style="mix-blend-mode:multiply" opacity="0.5">
<path d="M193.064 142.955C193.064 142.955 146.164 142.465 139.149 175.348C131.89 209.128 163.048 221.939 163.048 221.939C163.048 221.939 115.414 224.958 110.602 179.428C107.992 155.112 127.649 124.759 159.459 127.859C177.403 129.655 193.064 142.955 193.064 142.955Z" fill="#220062"/>
</g>
<path opacity="0.5" d="M147.143 138.548C162.477 127.778 181.237 125.248 197.876 130.144C196.571 128.512 195.184 126.962 193.716 125.493C175.283 117.252 153.179 118.639 135.479 131.123C108.726 149.972 102.282 186.934 121.042 213.698C123 216.553 125.202 219.164 127.567 221.449C130.014 222.591 132.461 223.489 134.99 224.223C134.174 223.244 133.358 222.183 132.624 221.123C113.864 194.359 120.226 157.397 147.061 138.548H147.143Z" fill="#AA99D5"/>
<path opacity="0.5" d="M104.566 180.978C106.36 186.037 108.807 190.851 111.988 195.42C130.83 222.183 167.779 228.629 194.532 209.863C212.721 197.052 221.53 175.837 219.409 155.194C227.973 179.591 219.735 207.66 197.55 223.326C170.796 242.174 133.848 235.728 115.006 208.883C108.97 200.316 105.545 190.688 104.566 180.978Z" fill="#2F2662"/>
<path opacity="0.5" d="M134.908 147.198C161.661 128.349 198.61 134.795 217.451 161.64C218.186 162.701 218.92 163.843 219.572 164.904C218.512 182.283 209.866 199.092 194.532 209.863C167.779 228.629 130.83 222.265 111.988 195.42C111.254 194.359 110.52 193.217 109.868 192.156C110.928 174.777 119.574 157.968 134.908 147.198Z" fill="#35297D"/>
<g style="mix-blend-mode:overlay" opacity="0.5">
<path d="M131.89 133.734C114.191 146.218 105.382 166.536 106.931 186.69C106.034 184.813 105.3 182.936 104.566 180.978C102.445 160.334 111.254 139.12 129.443 126.309C156.196 107.461 193.145 113.907 211.987 140.751C215.168 145.321 217.696 150.217 219.409 155.194C219.409 155.765 219.491 156.336 219.572 156.907C218.186 153.888 216.473 150.951 214.434 148.095C195.592 121.332 158.643 114.886 131.89 133.653V133.734Z" fill="#856BC0"/>
</g>
<g style="mix-blend-mode:overlay" opacity="0.5">
<path d="M134.908 147.198C119.574 157.968 110.846 174.777 109.868 192.156C108.807 190.361 107.829 188.566 106.931 186.69C105.463 166.536 114.272 146.218 131.89 133.734C158.643 114.886 195.592 121.332 214.434 148.177C216.391 151.032 218.104 153.97 219.572 156.989C219.735 159.682 219.817 162.293 219.572 164.985C218.92 163.843 218.186 162.782 217.452 161.721C198.61 134.958 161.661 128.512 134.908 147.279V147.198Z" fill="#AA99D5"/>
</g>
<g style="mix-blend-mode:overlay" opacity="0.5">
<path d="M222.427 180.651C220.714 185.71 218.267 190.525 215.086 195.175C196.408 222.02 159.541 228.711 132.624 210.026C114.354 197.297 105.463 176.164 107.502 155.52C99.1011 179.999 107.502 207.986 129.688 223.489C156.604 242.174 193.471 235.483 212.15 208.639C218.104 200.071 221.53 190.443 222.427 180.651Z" fill="#2F2662"/>
</g>
<g style="mix-blend-mode:overlay" opacity="0.4">
<path d="M191.922 147.034C165.087 128.349 128.138 135.04 109.46 161.885C108.726 162.945 107.992 164.088 107.339 165.23C108.481 182.61 117.208 199.337 132.624 210.026C159.459 228.711 196.408 222.02 215.086 195.175C215.82 194.115 216.554 192.972 217.207 191.83C216.065 174.45 207.338 157.723 191.922 147.034Z" fill="#2A0B65"/>
</g>
<g style="mix-blend-mode:multiply" opacity="0.3">
<path d="M105.137 171.594C105.137 171.594 147.469 201.621 174.63 176.245C202.607 150.135 182.379 118.802 182.379 118.802C182.379 118.802 227.566 146.218 203.259 190.525C190.209 214.269 153.26 229.527 126.262 206.517C111.091 193.544 105.218 171.513 105.218 171.513L105.137 171.594Z" fill="#301168"/>
</g>
<g style="mix-blend-mode:multiply" opacity="0.2">
<path d="M137.6 208.883C137.6 208.883 184.499 209.373 191.596 176.49C198.855 142.71 167.697 129.899 167.697 129.899C167.697 129.899 215.331 126.962 220.143 172.41C222.672 196.726 203.096 227.079 171.286 223.978C153.342 222.183 137.681 208.883 137.681 208.883H137.6Z" fill="#220062"/>
</g>
<g style="mix-blend-mode:multiply" opacity="0.2">
<path d="M131.972 142.465C131.972 142.465 126.425 186.526 162.232 198.847C199.099 211.494 217.615 178.285 217.615 178.285C217.615 178.285 214.597 232.056 163.048 231.404C135.397 231.077 104.077 205.048 111.825 169.799C116.23 149.972 131.972 142.547 131.972 142.547V142.465Z" fill="#220062"/>
</g>
<g style="mix-blend-mode:screen" opacity="0.5">
<path d="M219.98 167.759C219.98 167.759 177.648 137.732 150.487 163.109C122.51 189.301 142.738 220.552 142.738 220.552C142.738 220.552 97.5514 193.217 121.858 148.829C134.908 125.085 171.857 109.827 198.855 132.837C214.026 145.81 219.98 167.841 219.98 167.841V167.759Z" fill="#301168"/>
</g>
<g style="mix-blend-mode:multiply" opacity="0.2">
<path d="M139.476 138.875C139.476 138.875 137.273 179.754 165.576 187.179C194.777 194.849 207.093 168.167 207.093 168.167C207.093 168.167 207.827 209.781 168.023 212.229C146.735 213.534 121.042 195.257 125.039 167.596C127.241 152.093 139.476 138.875 139.476 138.875Z" fill="#301168"/>
</g>
<g style="mix-blend-mode:overlay" opacity="0.5">
<path d="M183.602 220.307C183.602 220.307 185.804 179.428 157.501 172.002C128.301 164.332 115.985 191.014 115.985 191.014C115.985 191.014 115.251 149.401 155.055 146.953C176.343 145.647 202.036 163.925 198.039 191.585C195.837 207.17 183.602 220.307 183.602 220.307Z" fill="#A492CD"/>
</g>
<g style="mix-blend-mode:screen" opacity="0.5">
<path d="M186.212 129.41C186.375 133.897 174.467 129.818 159.948 130.226C145.43 130.634 133.848 135.529 133.685 131.042C133.521 126.554 145.104 118.966 159.622 118.476C174.141 118.068 186.131 124.922 186.212 129.41Z" fill="white"/>
</g>
<g style="mix-blend-mode:overlay" opacity="0.4">
<path d="M196.653 212.392C195.918 207.904 185.07 214.269 170.715 216.472C156.36 218.756 144.043 216.145 144.777 220.633C145.511 225.039 158.236 230.343 172.591 228.14C186.946 225.937 197.387 216.88 196.653 212.474V212.392Z" fill="#F4CB3A"/>
</g>
<path style="mix-blend-mode:overlay" opacity="0.3" d="M211.987 140.67C230.828 167.433 224.385 204.477 197.55 223.244C170.796 242.093 133.848 235.647 115.006 208.802C96.1648 182.039 102.608 144.994 129.443 126.228C156.196 107.379 193.227 113.825 211.987 140.588V140.67Z" fill="url(#paint2_radial_109_577)"/>
<g style="mix-blend-mode:multiply" opacity="0.5">
<path d="M139.557 126.962C142.167 129.491 138.252 137.733 130.83 145.402C123.407 153.072 115.251 157.315 112.722 154.786C110.112 152.256 114.027 144.015 121.45 136.345C128.872 128.675 136.947 124.433 139.557 126.962Z" fill="#392A7C"/>
</g>
<g style="mix-blend-mode:overlay" opacity="0.5">
<path d="M136.947 128.023C140.128 130.715 138.578 138.467 132.787 144.913C122.265 156.744 113.538 175.674 110.357 173.063C107.176 170.371 109.215 151.604 121.124 135.285C126.181 128.267 133.685 125.33 136.947 128.023Z" fill="#A492CD"/>
</g>
<g style="mix-blend-mode:multiply" opacity="0.2">
<path d="M118.514 136.835C118.514 136.835 126.344 140.507 130.096 135.611C133.929 130.471 129.688 125.901 129.688 125.901C129.688 125.901 137.926 129.083 135.234 137.08C133.766 141.404 128.138 144.913 123.081 141.975C120.226 140.262 118.595 136.835 118.595 136.835H118.514Z" fill="#220062"/>
</g>
<g style="mix-blend-mode:multiply" opacity="0.3">
<path d="M135.397 128.594C137.437 130.389 135.479 135.774 131.156 140.588C126.833 145.402 121.695 147.85 119.655 146.055C117.698 144.26 119.574 138.875 123.897 134.061C128.22 129.247 133.358 126.799 135.397 128.594Z" fill="#301168"/>
</g>
<g style="mix-blend-mode:multiply" opacity="0.5">
<path d="M212.15 156.907C208.561 157.315 208.235 164.169 209.295 174.777C210.355 185.384 207.501 199.663 209.295 199.582C212.884 199.337 218.43 184.323 217.37 173.634C216.31 163.027 215.739 156.499 212.15 156.907Z" fill="#513876"/>
</g>
<g style="mix-blend-mode:multiply" opacity="0.2">
<path d="M219.409 171.513C219.409 171.513 211.008 169.555 211.089 163.353C211.253 156.989 217.37 156.01 217.37 156.01C217.37 156.01 208.969 153.48 206.114 161.395C204.646 165.638 206.848 171.921 212.721 172.737C215.983 173.145 219.409 171.431 219.409 171.431V171.513Z" fill="#1C016F"/>
</g>
<g style="mix-blend-mode:multiply" opacity="0.3">
<path d="M209.132 157.315C206.767 158.539 208.235 164.496 208.643 171.023C209.05 177.469 208.969 182.447 209.784 182.447C210.926 182.447 216.391 175.266 215.983 168.739C215.576 162.293 212.965 155.439 209.132 157.315Z" fill="#392A7C"/>
</g>
<g style="mix-blend-mode:multiply" opacity="0.5">
<path d="M162.151 225.366C163.129 221.939 155.707 216.635 145.43 213.534C135.234 210.434 126.017 210.76 125.039 214.187C123.978 217.614 131.482 222.918 141.759 226.018C152.037 229.119 161.172 228.793 162.151 225.366Z" fill="#8F83C8"/>
</g>
<g style="mix-blend-mode:multiply" opacity="0.5">
<path d="M159.377 225.692C160.846 221.775 155.707 215.819 147.469 213.045C132.461 207.904 115.659 195.583 114.109 199.5C112.641 203.417 123.652 218.756 142.004 227.161C149.834 230.751 157.828 229.69 159.296 225.774L159.377 225.692Z" fill="#FFCD1D"/>
</g>
<g style="mix-blend-mode:multiply" opacity="0.2">
<path d="M138.986 227.079C138.986 227.079 144.043 220.062 149.671 222.51C155.462 225.121 154.076 231.159 154.076 231.159C154.076 231.159 159.704 224.305 153.423 218.675C150.079 215.656 143.391 215.329 140.454 220.388C138.742 223.244 139.068 227.079 139.068 227.079H138.986Z" fill="#220062"/>
</g>
<g style="mix-blend-mode:multiply" opacity="0.3">
<path d="M161.906 226.916C162.803 224.387 158.48 220.633 152.363 218.512C146.246 216.39 140.536 216.798 139.639 219.328C138.742 221.857 143.065 225.61 149.182 227.732C155.299 229.853 161.009 229.445 161.906 226.916Z" fill="#230B70"/>
</g>
<path d="M74.1423 75.8018C77.4049 72.8644 82.4619 73.1092 85.3982 76.373L130.748 126.636C133.685 129.899 133.44 134.958 130.177 137.896C126.915 140.833 121.858 140.588 118.921 137.325L73.5714 87.062C70.635 83.7982 70.8797 78.8209 74.1423 75.8834V75.8018Z" fill="url(#paint3_linear_109_577)"/>
<path d="M210.029 165.475C209.132 161.15 211.824 156.989 216.146 156.01L282.295 141.894C286.618 140.996 290.86 143.689 291.757 148.014C292.654 152.338 289.963 156.499 285.64 157.479L219.491 171.676C215.168 172.574 211.008 169.881 210.029 165.556V165.475Z" fill="url(#paint4_linear_109_577)"/>
<path d="M123.652 299.699C127.812 301.004 132.298 298.72 133.685 294.558L154.484 230.18C155.87 226.018 153.586 221.531 149.345 220.144C145.185 218.838 140.699 221.123 139.394 225.284L118.514 289.744C117.127 293.906 119.492 298.393 123.652 299.78V299.699Z" fill="url(#paint5_linear_109_577)"/>
<path d="M109.215 27.416C126.833 54.9951 118.677 91.6313 91.108 109.256C63.5391 126.88 26.9165 118.721 9.29856 91.1418C-8.31942 63.5626 -0.162952 26.9264 27.4059 9.3019C54.9748 -8.32264 91.5974 -0.163133 109.215 27.416Z" fill="#A492CD"/>
<path opacity="0.5" d="M87.3558 7.09882C91.3525 10.6074 94.8597 14.7688 97.8776 19.5013C115.496 47.0804 107.339 83.7166 79.7703 101.341C61.0104 113.336 38.0907 113.336 19.8202 103.544C39.1511 120.761 68.1881 123.861 91.1078 109.256C118.677 91.6313 126.833 54.9951 109.215 27.416C103.587 18.6037 96.0016 11.7497 87.3558 7.09882Z" fill="#2F2662"/>
<path opacity="0.5" d="M44.5343 22.3571C16.9655 39.9816 8.89055 76.6178 26.427 104.197C27.161 105.339 27.8951 106.4 28.6292 107.461C45.1053 113.172 63.9467 111.459 79.7703 101.423C107.339 83.7982 115.414 47.162 97.8776 19.5829C97.1436 18.4405 96.4095 17.3798 95.6754 16.3191C79.1993 10.689 60.3579 12.3209 44.5343 22.4387V22.3571Z" fill="#35297D"/>
<path opacity="0.5" d="M33.2784 14.4424C51.5489 2.85585 73.7345 2.44787 91.7603 11.4233C90.3737 9.87303 88.9055 8.48591 87.3558 7.09879C69.0853 -2.69262 46.1656 -2.61102 27.4057 9.30186C-0.163135 26.9264 -8.3196 63.5626 9.29837 91.1417C12.3163 95.8743 15.9051 99.954 19.8202 103.544C20.3096 103.789 20.8806 104.115 21.3699 104.36C19.1677 101.912 17.047 99.2197 15.171 96.2822C-2.36538 68.6215 5.70952 32.0669 33.2784 14.4424Z" fill="#856BC0"/>
<g style="mix-blend-mode:screen" opacity="0.5">
<path d="M88.9055 32.8013C103.832 44.2246 111.825 61.2779 112.151 78.7393C113.293 76.9442 114.354 75.2307 115.332 73.354C117.616 53.2816 109.623 32.5565 92.4128 19.5013C66.3937 -0.407937 29.2817 4.65096 9.37994 30.6798C7.25925 33.454 5.46483 36.3099 3.9151 39.2473C3.58884 41.8583 3.50728 44.551 3.50728 47.162C4.24136 46.1013 4.97544 45.0405 5.79109 43.9798C25.6113 17.951 62.8048 12.9737 88.824 32.8013H88.9055Z" fill="#AA99D5"/>
</g>
<g style="mix-blend-mode:overlay" opacity="0.5">
<path d="M92.4128 19.5013C109.623 32.6381 117.616 53.2816 115.332 73.354C116.311 71.4773 117.127 69.6822 117.861 67.724C120.797 47.162 112.886 25.6209 95.186 12.1577C69.1669 -7.66991 32.0549 -2.69261 12.1531 23.3362C8.80899 27.7424 6.11735 32.5565 4.1598 37.5338C4.07824 38.1049 3.99667 38.6761 3.91511 39.2473C5.46484 36.3098 7.25926 33.454 9.37994 30.6798C29.2817 4.65095 66.3937 -0.407948 92.4128 19.5013Z" fill="#856BC0"/>
</g>
<g style="mix-blend-mode:multiply" opacity="0.5">
<path d="M90.2921 28.8031C90.2921 28.8031 43.474 26.2737 34.9097 58.7485C26.1007 92.2025 56.6875 106.4 56.6875 106.4C56.6875 106.4 8.97212 107.216 6.19892 61.6043C4.73075 37.1258 25.6929 7.66998 57.34 12.2393C75.2027 14.8503 90.2921 28.8031 90.2921 28.8031Z" fill="#220062"/>
</g>
<path opacity="0.5" d="M44.5343 22.3571C60.3579 12.2393 79.1993 10.6074 95.6754 16.2375C94.4519 14.524 93.1469 12.9736 91.7603 11.4233C73.7345 2.36629 51.5489 2.77426 33.2784 14.4424C5.70953 32.0669 -2.36538 68.6215 15.171 96.2822C17.047 99.2197 19.0861 101.912 21.37 104.36C23.7353 105.584 26.1823 106.563 28.7108 107.461C27.9767 106.4 27.2426 105.339 26.5085 104.197C8.89055 76.6178 17.047 39.9816 44.6159 22.3571H44.5343Z" fill="#AA99D5"/>
<path opacity="0.5" d="M0.0815659 62.8283C1.6313 67.9687 3.83354 72.9461 6.85144 77.597C24.4694 105.176 61.092 113.254 88.6608 95.7111C107.421 83.7166 117.127 62.9914 115.903 42.2663C123.407 67.0712 113.946 94.7319 91.0262 109.337C63.4573 126.962 26.8348 118.802 9.21681 91.2234C3.67041 82.3295 0.734084 72.6197 0.0815659 62.8283Z" fill="#2F2662"/>
<path opacity="0.5" d="M31.9734 30.435C59.5422 12.8105 96.1648 20.8884 113.783 48.5491C114.517 49.6914 115.169 50.7522 115.822 51.8945C114.027 69.2743 104.648 85.5933 88.7424 95.7111C61.1735 113.336 24.551 105.258 6.933 77.597C6.19892 76.4546 5.5464 75.3939 4.89388 74.17C6.68831 56.8718 16.1498 40.4712 31.9734 30.3534V30.435Z" fill="#35297D"/>
<g style="mix-blend-mode:overlay" opacity="0.5">
<path d="M29.5264 16.8085C11.3375 28.4766 1.63129 48.4674 2.20225 68.6214C1.3866 66.7447 0.734081 64.7864 0.0815637 62.8281C-1.06034 42.103 8.64586 21.2962 27.4057 9.30173C54.9746 -8.24122 91.5972 -0.163307 109.215 27.4158C112.233 32.1483 114.435 37.1257 115.985 42.1845C115.985 42.7557 115.985 43.3269 115.985 43.898C114.68 40.7974 113.13 37.7784 111.254 34.9226C93.7179 7.34345 57.0953 -0.734472 29.5264 16.8085Z" fill="#856BC0"/>
</g>
<g style="mix-blend-mode:overlay" opacity="0.5">
<path d="M31.9734 30.435C16.1498 40.5528 6.76987 56.8718 4.89388 74.2516C3.91511 72.4565 3.0179 70.5798 2.20225 68.6215C1.6313 48.4675 11.3375 28.4767 29.5264 16.8902C57.0953 -0.734308 93.7179 7.34361 111.336 34.9227C113.212 37.8602 114.762 40.8792 116.067 43.8982C116.067 46.5908 116.067 49.2019 115.74 51.8129C115.088 50.6706 114.435 49.5283 113.701 48.4675C96.1648 20.8884 59.5422 12.8105 31.9734 30.435Z" fill="#AA99D5"/>
</g>
<g style="mix-blend-mode:overlay" opacity="0.5">
<path d="M117.861 67.7239C115.903 72.7012 113.293 77.4338 109.868 81.9215C90.0474 107.95 52.8539 112.928 26.8348 93.1C9.21681 79.5552 1.22347 58.0957 4.1598 37.5338C-5.38327 61.6043 1.71285 89.9178 23.3275 106.4C49.3466 126.228 86.5402 121.25 106.36 95.2215C112.722 86.8988 116.556 77.4338 117.861 67.7239Z" fill="#2F2662"/>
</g>
<g style="mix-blend-mode:overlay" opacity="0.4">
<path d="M88.9055 32.8013C62.8864 12.8921 25.6929 17.9509 5.87266 43.9798C5.05701 45.0405 4.32293 46.1013 3.58884 47.162C3.9151 64.5417 11.99 81.6767 26.8348 93.1C52.8539 113.009 90.0474 107.95 109.868 81.9215C110.683 80.8608 111.417 79.8 112.151 78.7393C111.744 61.2779 103.832 44.2246 88.9055 32.8013Z" fill="#2A0B65"/>
</g>
<g style="mix-blend-mode:multiply" opacity="0.3">
<path d="M1.14191 53.5264C1.14191 53.5264 42.0874 85.4301 70.3903 61.278C99.5089 36.3915 80.6675 4.24298 80.6675 4.24298C80.6675 4.24298 124.549 33.6172 98.2855 76.8626C84.1748 100.036 46.5735 113.58 20.6359 89.4283C6.03579 75.7203 1.14191 53.5264 1.14191 53.5264Z" fill="#301168"/>
</g>
<g style="mix-blend-mode:multiply" opacity="0.2">
<path d="M31.8918 92.1209C31.8918 92.1209 78.7099 94.6503 87.2742 62.1755C96.0832 28.7215 65.4965 14.5239 65.4965 14.5239C65.4965 14.5239 113.212 13.708 115.985 59.3196C117.453 83.7166 96.4911 113.172 64.8439 108.603C47.0628 106.074 31.8918 92.0393 31.8918 92.0393V92.1209Z" fill="#220062"/>
</g>
<g style="mix-blend-mode:multiply" opacity="0.2">
<path d="M29.2817 25.6209C29.2817 25.6209 21.7778 69.3559 57.0137 83.3086C93.31 97.5878 113.212 65.2761 113.212 65.2761C113.212 65.2761 107.829 118.884 56.3612 115.865C28.7923 114.233 -1.3866 86.8988 7.91177 51.9761C13.1319 32.3117 29.2817 25.6209 29.2817 25.6209Z" fill="#220062"/>
</g>
<g style="mix-blend-mode:screen" opacity="0.5">
<path d="M116.067 54.8319C116.067 54.8319 75.1211 22.9282 46.8181 47.0804C17.6995 71.9669 36.541 104.115 36.541 104.115C36.541 104.115 -7.34083 74.7411 18.923 31.4957C33.0337 8.3227 70.635 -5.22209 96.5726 18.9301C111.173 32.5564 116.067 54.7503 116.067 54.7503V54.8319Z" fill="#301168"/>
</g>
<g style="mix-blend-mode:multiply" opacity="0.2">
<path d="M36.9488 22.3571C36.9488 22.3571 32.8706 63.0731 60.8473 71.7221C89.6396 80.6976 103.179 54.5872 103.179 54.5872C103.179 54.5872 102.037 96.2007 62.2339 96.8534C40.8639 97.1798 16.0682 77.8418 21.2884 50.3442C24.2247 34.9228 36.9488 22.2755 36.9488 22.2755V22.3571Z" fill="#301168"/>
</g>
<g style="mix-blend-mode:overlay" opacity="0.5">
<path d="M77.3233 105.666C77.3233 105.666 81.4016 64.9497 53.4249 56.219C24.6325 47.3252 11.0928 73.354 11.0928 73.354C11.0928 73.354 12.2347 31.7405 52.0383 31.0877C73.4082 30.7614 98.2039 50.0994 92.9838 77.5154C90.0474 92.9368 77.3233 105.584 77.3233 105.584V105.666Z" fill="#A492CD"/>
</g>
<g style="mix-blend-mode:screen" opacity="0.5">
<path d="M84.0116 15.0135C84.0116 19.5012 72.2663 14.8503 57.7478 14.6055C43.2293 14.4423 31.4024 18.7669 31.484 14.2792C31.484 9.79143 43.3924 2.69266 57.9109 2.93744C72.4295 3.18223 84.0932 10.5258 84.0116 15.0135Z" fill="white"/>
</g>
<g style="mix-blend-mode:overlay" opacity="0.4">
<path d="M90.7815 98.3221C90.2921 93.8344 79.1178 99.6277 64.6808 101.26C50.2439 102.891 38.0907 99.7093 38.5801 104.197C39.0695 108.685 51.5489 114.56 65.9859 112.928C80.4228 111.296 91.2709 102.81 90.7815 98.3221Z" fill="#F4CB3A"/>
</g>
<path style="mix-blend-mode:overlay" opacity="0.3" d="M109.215 27.416C126.833 54.9951 118.677 91.6313 91.108 109.256C63.5391 126.88 26.9165 118.721 9.29856 91.1418C-8.31942 63.5626 -0.162952 26.9264 27.4059 9.3019C54.9748 -8.32264 91.5974 -0.163133 109.215 27.416Z" fill="url(#paint6_radial_109_577)"/>
<path d="M383.762 108.521C401.298 140.017 389.961 179.672 358.477 197.215C326.993 214.758 287.352 203.417 269.816 171.921C252.361 140.425 263.617 100.77 295.101 83.227C326.585 65.684 366.226 77.0258 383.762 108.521Z" fill="#A492CD"/>
<path opacity="0.5" d="M361.087 84.8589C365.247 89.0202 368.836 93.7528 371.854 99.138C389.39 130.552 378.052 170.289 346.65 187.832C325.28 199.745 300.077 198.276 280.664 186.282C300.729 206.436 332.458 211.821 358.558 197.297C390.042 179.754 401.298 140.099 383.844 108.603C378.216 98.5669 370.385 90.5705 361.169 84.8589H361.087Z" fill="#2F2662"/>
<path opacity="0.5" d="M313.127 98.7301C281.643 116.273 270.387 155.928 287.842 187.424C288.576 188.729 289.31 189.953 290.044 191.096C307.744 198.439 328.543 197.868 346.568 187.832C377.971 170.289 389.308 130.634 371.772 99.1381C371.038 97.8325 370.304 96.6086 369.57 95.4663C351.87 88.2043 331.071 88.6939 313.045 98.7301H313.127Z" fill="#35297D"/>
<path opacity="0.5" d="M301.3 89.265C322.099 77.6785 346.487 78.7393 365.655 89.8362C364.268 88.0411 362.718 86.4092 361.169 84.7773C341.756 72.7828 316.553 71.3141 295.183 83.227C263.78 100.77 252.443 140.425 269.979 171.921C272.997 177.306 276.586 182.039 280.746 186.2C281.317 186.526 281.806 186.853 282.377 187.179C280.093 184.323 277.973 181.223 276.097 177.877C258.56 146.382 269.898 106.726 301.3 89.1834V89.265Z" fill="#856BC0"/>
<g style="mix-blend-mode:screen" opacity="0.5">
<path d="M361.087 113.091C376.747 126.636 384.414 145.892 383.599 165.067C384.985 163.272 386.29 161.313 387.432 159.355C391.266 137.488 383.843 114.233 365.818 98.73C338.575 75.2307 297.385 78.2497 273.894 105.502C271.366 108.44 269.245 111.459 267.369 114.559C266.88 117.415 266.553 120.353 266.472 123.29C267.288 122.148 268.185 121.006 269.164 119.945C292.654 92.692 333.844 89.673 361.087 113.172V113.091Z" fill="#AA99D5"/>
</g>
<g style="mix-blend-mode:overlay" opacity="0.5">
<path d="M365.899 98.73C383.925 114.315 391.347 137.569 387.514 159.355C388.656 157.397 389.716 155.439 390.695 153.399C395.263 131.042 387.922 106.89 369.407 90.8969C342.164 67.3975 300.974 70.4166 277.483 97.6693C273.486 102.32 270.224 107.379 267.777 112.683C267.614 113.336 267.532 113.988 267.451 114.559C269.327 111.459 271.529 108.358 273.976 105.502C297.466 78.2497 338.575 75.2307 365.899 98.73Z" fill="#856BC0"/>
</g>
<g style="mix-blend-mode:multiply" opacity="0.5">
<path d="M362.881 108.766C362.881 108.766 311.659 102.891 300.158 137.977C288.331 174.124 320.957 191.667 320.957 191.667C320.957 191.667 268.511 189.464 268.511 139.201C268.511 112.275 293.388 81.3503 327.89 88.4491C347.303 92.4472 362.963 108.766 362.963 108.766H362.881Z" fill="#220062"/>
</g>
<path opacity="0.5" d="M313.127 98.7301C331.153 88.6939 351.952 88.1227 369.651 95.4663C368.428 93.508 367.041 91.7129 365.655 89.9178C346.487 78.8209 322.099 77.7601 301.3 89.3466C269.816 106.89 258.56 146.545 276.096 178.04C277.972 181.386 280.012 184.486 282.377 187.342C284.905 188.811 287.516 190.117 290.207 191.177C289.473 189.953 288.657 188.729 288.005 187.506C270.469 156.091 281.806 116.355 313.29 98.8117L313.127 98.7301Z" fill="#AA99D5"/>
<path opacity="0.5" d="M261.66 140.262C262.965 145.974 265.167 151.522 268.103 156.907C285.64 188.321 325.28 199.663 356.764 182.12C378.134 170.207 390.206 148.013 390.206 125.167C396.812 152.828 384.578 182.61 358.477 197.134C326.993 214.677 287.352 203.335 269.816 171.839C264.188 161.803 261.578 150.869 261.578 140.099L261.66 140.262Z" fill="#2F2662"/>
<path opacity="0.5" d="M298.772 106.726C330.256 89.1834 369.896 100.525 387.432 131.939C388.166 133.245 388.819 134.469 389.39 135.774C386.29 154.704 374.871 172.084 356.846 182.12C325.362 199.582 285.721 188.321 268.185 156.907C267.451 155.602 266.798 154.378 266.227 153.072C269.327 134.142 280.746 116.844 298.772 106.808V106.726Z" fill="#35297D"/>
<g style="mix-blend-mode:overlay" opacity="0.5">
<path d="M296.977 91.6313C276.178 103.218 264.188 124.514 263.536 146.708C262.801 144.586 262.149 142.383 261.66 140.262C261.66 117.415 273.731 95.2215 295.101 83.3086C326.585 65.7656 366.226 77.1074 383.762 108.603C386.78 113.988 388.819 119.537 390.206 125.248C390.206 125.901 390.206 126.554 390.206 127.125C388.982 123.698 387.514 120.271 385.638 116.926C368.101 85.4301 328.461 74.1699 296.977 91.6313Z" fill="#856BC0"/>
</g>
<g style="mix-blend-mode:overlay" opacity="0.5">
<path d="M298.772 106.726C280.746 116.763 269.327 134.142 266.227 152.991C265.248 150.951 264.351 148.829 263.617 146.708C264.27 124.514 276.26 103.218 297.059 91.6313C328.543 74.0883 368.183 85.4301 385.72 116.926C387.595 120.271 389.064 123.698 390.287 127.125C390.287 130.063 389.879 132.918 389.39 135.856C388.819 134.55 388.166 133.245 387.432 132.021C369.896 100.607 330.256 89.265 298.772 106.808V106.726Z" fill="#AA99D5"/>
</g>
<g style="mix-blend-mode:overlay" opacity="0.5">
<path d="M390.613 153.399C388.166 158.702 384.904 163.761 380.907 168.412C357.417 195.665 316.226 198.684 288.984 175.185C270.469 159.192 263.128 135.04 267.695 112.683C255.705 138.467 261.578 170.126 284.171 189.627C311.414 213.126 352.604 210.107 376.095 182.855C383.599 174.124 388.411 164.006 390.532 153.48L390.613 153.399Z" fill="#2F2662"/>
</g>
<g style="mix-blend-mode:overlay" opacity="0.4">
<path d="M361.087 113.091C333.844 89.5914 292.654 92.692 269.164 119.863C268.266 121.006 267.288 122.066 266.472 123.209C265.738 142.383 273.405 161.64 288.984 175.185C316.226 198.684 357.417 195.665 380.907 168.412C381.886 167.27 382.783 166.209 383.599 164.985C384.333 145.81 376.666 126.554 361.087 113.009V113.091Z" fill="#2A0B65"/>
</g>
<g style="mix-blend-mode:multiply" opacity="0.3">
<path d="M263.454 130.063C263.454 130.063 306.357 167.76 338.901 143.118C372.506 117.742 353.991 81.1055 353.991 81.1055C353.991 81.1055 400.238 116.273 368.591 161.966C351.625 186.445 309.375 198.847 282.54 170.615C267.451 154.704 263.454 129.981 263.454 129.981V130.063Z" fill="#301168"/>
</g>
<g style="mix-blend-mode:multiply" opacity="0.2">
<path d="M294.612 174.532C294.612 174.532 345.834 180.407 357.335 145.321C369.162 109.174 336.536 91.6313 336.536 91.6313C336.536 91.6313 388.982 93.8344 388.982 144.097C388.982 171.023 364.105 201.948 329.603 194.849C310.191 190.851 294.53 174.532 294.53 174.532H294.612Z" fill="#220062"/>
</g>
<g style="mix-blend-mode:multiply" opacity="0.2">
<path d="M296.08 101.26C296.08 101.26 284.906 148.829 322.67 166.372C361.576 184.405 385.556 150.217 385.556 150.217C385.556 150.217 376.095 208.72 319.815 202.029C289.636 198.439 258.315 166.454 270.876 128.757C277.972 107.542 296.08 101.26 296.08 101.26Z" fill="#220062"/>
</g>
<g style="mix-blend-mode:screen" opacity="0.5">
<path d="M389.471 139.038C389.471 139.038 346.568 101.341 314.024 125.983C280.419 151.359 299.016 187.995 299.016 187.995C299.016 187.995 252.687 152.828 284.416 107.134C301.382 82.6558 343.632 70.2533 370.467 98.4852C385.556 114.396 389.471 139.12 389.471 139.12V139.038Z" fill="#301168"/>
</g>
<g style="mix-blend-mode:multiply" opacity="0.2">
<path d="M304.726 98.2405C304.726 98.2405 297.63 142.628 327.727 154.052C358.722 165.72 375.361 138.059 375.361 138.059C375.361 138.059 371.364 183.671 327.564 181.794C304.073 180.733 278.136 157.805 285.64 128.023C289.881 111.296 304.726 98.2405 304.726 98.2405Z" fill="#301168"/>
</g>
<g style="mix-blend-mode:overlay" opacity="0.5">
<path d="M343.551 192.401C343.551 192.401 350.647 148.014 320.549 136.59C289.555 124.841 272.915 152.583 272.915 152.583C272.915 152.583 276.912 106.971 320.712 108.848C344.203 109.909 370.141 132.837 362.637 162.619C358.395 179.346 343.551 192.401 343.551 192.401Z" fill="#A492CD"/>
</g>
<g style="mix-blend-mode:screen" opacity="0.5">
<path d="M356.927 93.2632C356.519 98.2405 344.04 92.284 328.135 91.1417C312.23 89.9994 298.935 93.9975 299.342 89.0202C299.669 84.1245 313.208 77.1073 329.114 78.3313C345.019 79.5552 357.335 88.3675 357.009 93.3448L356.927 93.2632Z" fill="white"/>
</g>
<g style="mix-blend-mode:overlay" opacity="0.4">
<path d="M358.803 185.221C358.558 180.244 345.916 185.874 329.929 186.771C313.943 187.587 300.811 183.344 301.055 188.321C301.3 193.299 314.677 200.561 330.582 199.663C346.487 198.847 359.048 190.198 358.803 185.221Z" fill="#F4CB3A"/>
</g>
<path style="mix-blend-mode:overlay" opacity="0.3" d="M383.762 108.521C401.298 140.017 389.961 179.672 358.477 197.215C326.993 214.758 287.352 203.417 269.816 171.921C252.361 140.425 263.617 100.77 295.101 83.227C326.585 65.684 366.226 77.0258 383.762 108.521Z" fill="url(#paint7_radial_109_577)"/>
<path d="M170.47 304.187C186.865 336.253 174.141 375.501 142.086 391.901C110.031 408.302 70.7982 395.573 54.4037 363.506C38.0092 331.439 50.7333 292.11 82.7882 275.791C114.843 259.391 154.076 272.12 170.47 304.187Z" fill="#A492CD"/>
<path opacity="0.5" d="M148.611 279.626C152.608 283.951 156.033 288.847 158.888 294.314C175.283 326.38 162.558 365.628 130.504 382.028C108.726 393.125 83.6038 390.841 64.5993 378.112C83.9301 399 115.496 405.446 142.004 391.901C174.059 375.501 186.783 336.253 170.389 304.187C165.169 293.906 157.583 285.664 148.611 279.708V279.626Z" fill="#2F2662"/>
<path opacity="0.5" d="M100.243 291.866C68.1881 308.266 55.464 347.514 71.8585 379.58C72.511 380.886 73.2451 382.191 73.9792 383.334C91.434 391.249 112.151 391.412 130.585 382.028C162.64 365.628 175.364 326.38 158.97 294.314C158.317 293.008 157.583 291.784 156.849 290.479C139.394 282.564 118.677 282.401 100.243 291.784V291.866Z" fill="#35297D"/>
<path opacity="0.5" d="M88.6608 281.993C109.868 271.141 134.174 273.099 152.934 284.849C151.547 283.053 150.161 281.34 148.611 279.626C129.606 266.979 104.484 264.613 82.7066 275.71C50.6517 292.11 37.9276 331.358 54.3221 363.425C57.0953 368.891 60.6026 373.787 64.5177 378.03C65.0071 378.438 65.578 378.764 66.149 379.091C63.9467 376.153 61.9892 372.971 60.2763 369.626C43.8818 337.559 56.6059 298.312 88.6608 281.911V281.993Z" fill="#856BC0"/>
<g style="mix-blend-mode:screen" opacity="0.5">
<path d="M147.632 307.94C162.803 321.974 169.736 341.557 168.35 360.65C169.818 358.855 171.123 357.06 172.346 355.102C176.995 333.398 170.389 309.898 152.934 293.661C126.507 269.182 85.3167 270.732 60.8473 297.169C58.2372 299.944 55.9534 302.881 53.9958 305.982C53.4249 308.837 53.0171 311.693 52.7724 314.631C53.6696 313.488 54.5668 312.428 55.5456 311.367C80.015 284.93 121.287 283.38 147.632 307.858V307.94Z" fill="#AA99D5"/>
</g>
<g style="mix-blend-mode:overlay" opacity="0.5">
<path d="M152.934 293.742C170.389 309.898 176.995 333.479 172.346 355.183C173.57 353.225 174.712 351.267 175.69 349.309C181.074 327.115 174.63 302.718 156.686 286.072C130.259 261.594 89.0687 263.226 64.5992 289.581C60.4394 294.069 57.0137 299.046 54.4037 304.268C54.2405 304.839 54.0774 305.492 53.9958 306.145C56.035 303.044 58.3188 300.107 60.8473 297.332C85.3167 270.896 126.507 269.345 152.934 293.824V293.742Z" fill="#856BC0"/>
</g>
<g style="mix-blend-mode:multiply" opacity="0.5">
<path d="M149.59 303.697C149.59 303.697 98.6117 296.027 85.8876 330.623C72.7557 366.362 104.729 385.047 104.729 385.047C104.729 385.047 52.4461 380.968 54.159 330.705C55.0562 303.779 81.0753 273.752 115.333 282.074C134.582 286.725 149.671 303.615 149.671 303.615L149.59 303.697Z" fill="#220062"/>
</g>
<path opacity="0.5" d="M100.243 291.866C118.595 282.482 139.394 282.645 156.849 290.56C155.707 288.602 154.402 286.725 153.015 284.849C134.256 273.017 109.868 271.141 88.7424 281.993C56.6875 298.393 43.9634 337.641 60.3579 369.707C62.0708 373.053 64.0283 376.235 66.2305 379.172C68.6775 380.723 71.2876 382.11 73.8976 383.334C73.1636 382.11 72.4295 380.804 71.777 379.58C55.3824 347.514 68.1065 308.266 100.161 291.866H100.243Z" fill="#AA99D5"/>
<path opacity="0.5" d="M47.3075 331.521C48.4495 337.233 50.407 342.944 53.1802 348.411C69.5747 380.478 108.807 393.207 140.862 376.806C162.64 365.709 175.527 343.923 176.343 321.077C181.889 348.982 168.676 378.275 142.086 391.901C110.031 408.302 70.7982 395.573 54.4037 363.506C49.1835 353.225 46.8997 342.21 47.3075 331.521Z" fill="#2F2662"/>
<path opacity="0.5" d="M85.5614 299.372C117.616 282.972 156.849 295.701 173.243 327.767C173.896 329.073 174.548 330.379 175.038 331.684C171.204 350.451 159.214 367.423 140.862 376.806C108.807 393.207 69.5747 380.478 53.1802 348.411C52.5277 347.106 51.8752 345.8 51.3858 344.494C55.2193 325.728 67.2093 308.756 85.5614 299.372Z" fill="#35297D"/>
<g style="mix-blend-mode:overlay" opacity="0.5">
<path d="M84.3379 284.196C63.1311 295.048 50.407 315.855 49.0204 338.049C48.3679 335.845 47.7969 333.724 47.3075 331.521C48.1232 308.674 61.0104 286.97 82.7882 275.791C114.843 259.391 154.076 272.12 170.47 304.187C173.243 309.653 175.201 315.365 176.343 321.077C176.343 321.729 176.343 322.382 176.261 322.953C175.201 319.445 173.814 316.018 172.02 312.591C155.625 280.524 116.393 267.795 84.3379 284.196Z" fill="#856BC0"/>
</g>
<g style="mix-blend-mode:overlay" opacity="0.5">
<path d="M85.5614 299.372C67.2093 308.756 55.1378 325.728 51.3858 344.495C50.4886 342.373 49.6729 340.252 49.0204 338.048C50.4886 315.936 63.2127 295.048 84.3379 284.196C116.393 267.795 155.625 280.524 172.02 312.591C173.733 316.018 175.119 319.445 176.261 322.953C176.098 325.891 175.69 328.747 175.119 331.602C174.548 330.297 173.978 328.991 173.325 327.686C156.931 295.619 117.698 282.89 85.643 299.291L85.5614 299.372Z" fill="#AA99D5"/>
</g>
<g style="mix-blend-mode:overlay" opacity="0.5">
<path d="M175.69 349.227C173.08 354.449 169.655 359.426 165.495 363.914C141.025 390.351 99.8352 391.901 73.4082 367.423C55.464 350.777 49.0204 326.38 54.4037 304.187C41.4349 329.563 46.2472 361.385 68.1881 381.62C94.6151 406.099 135.805 404.548 160.275 378.112C168.105 369.707 173.243 359.671 175.772 349.227H175.69Z" fill="#2F2662"/>
</g>
<g style="mix-blend-mode:overlay" opacity="0.4">
<path d="M147.632 307.94C121.205 283.461 80.015 285.012 55.5456 311.448C54.5668 312.509 53.6696 313.652 52.7724 314.712C51.3042 333.806 58.3188 353.388 73.4898 367.423C99.9168 391.901 141.107 390.269 165.576 363.914C166.555 362.853 167.452 361.711 168.431 360.65C169.818 341.557 162.885 321.974 147.714 307.94H147.632Z" fill="#2A0B65"/>
</g>
<g style="mix-blend-mode:multiply" opacity="0.3">
<path d="M49.4282 321.403C49.4282 321.403 90.9447 360.65 124.386 337.151C158.888 312.999 141.596 275.792 141.596 275.792C141.596 275.792 186.62 312.591 153.26 357.142C135.397 381.049 92.8206 391.901 66.9646 362.772C52.3645 346.371 49.3466 321.485 49.3466 321.485L49.4282 321.403Z" fill="#301168"/>
</g>
<g style="mix-blend-mode:multiply" opacity="0.2">
<path d="M78.9547 366.933C78.9547 366.933 129.933 374.603 142.738 340.007C155.87 304.35 123.897 285.583 123.897 285.583C123.897 285.583 176.18 289.663 174.467 339.925C173.57 366.852 147.551 396.879 113.293 388.556C94.0441 383.905 78.9547 367.015 78.9547 367.015V366.933Z" fill="#220062"/>
</g>
<g style="mix-blend-mode:multiply" opacity="0.2">
<path d="M83.0329 293.742C83.0329 293.742 70.2272 340.904 107.339 359.753C145.593 379.254 170.797 345.882 170.797 345.882C170.797 345.882 159.296 403.977 103.261 395.328C73.2451 390.677 43.0662 357.55 56.9322 320.342C64.7624 299.372 83.1144 293.742 83.1144 293.742H83.0329Z" fill="#220062"/>
</g>
<g style="mix-blend-mode:screen" opacity="0.5">
<path d="M175.038 334.866C175.038 334.866 133.521 295.619 100.08 319.118C65.578 343.271 82.8697 380.56 82.8697 380.56C82.8697 380.56 37.846 343.76 71.206 299.209C89.0687 275.302 131.645 264.45 157.501 293.579C172.02 309.98 175.119 334.866 175.119 334.866H175.038Z" fill="#301168"/>
</g>
<g style="mix-blend-mode:multiply" opacity="0.2">
<path d="M91.8419 291.05C91.8419 291.05 83.1144 335.193 112.804 347.677C143.391 360.487 160.927 333.398 160.927 333.398C160.927 333.398 155.299 378.846 111.662 375.337C88.253 373.461 63.1311 349.635 71.6954 320.179C76.5077 303.615 91.8419 291.131 91.8419 291.131V291.05Z" fill="#301168"/>
</g>
<g style="mix-blend-mode:overlay" opacity="0.5">
<path d="M127.323 386.516C127.323 386.516 136.05 342.373 106.36 329.889C75.7736 317.079 58.2372 344.168 58.2372 344.168C58.2372 344.168 63.8652 298.72 107.502 302.228C130.911 304.105 156.033 327.931 147.469 357.387C142.657 373.95 127.323 386.434 127.323 386.434V386.516Z" fill="#A492CD"/>
</g>
<g style="mix-blend-mode:screen" opacity="0.5">
<path d="M144.125 287.949C143.554 292.926 131.238 286.562 115.414 284.848C99.509 283.053 86.1323 286.644 86.7033 281.666C87.2743 276.771 100.977 270.243 116.801 271.956C132.706 273.67 144.614 283.053 144.125 287.949Z" fill="white"/>
</g>
<g style="mix-blend-mode:overlay" opacity="0.4">
<path d="M142.82 379.907C142.82 374.929 129.933 380.152 113.946 380.396C97.9592 380.641 84.9904 375.909 85.072 380.886C85.1536 385.863 98.2039 393.615 114.191 393.288C130.177 393.044 142.983 384.803 142.901 379.907H142.82Z" fill="#F4CB3A"/>
</g>
<path style="mix-blend-mode:overlay" opacity="0.3" d="M170.47 304.187C186.865 336.253 174.141 375.501 142.086 391.901C110.031 408.302 70.7982 395.573 54.4037 363.506C38.0092 331.439 50.7333 292.11 82.7882 275.791C114.843 259.391 154.076 272.12 170.47 304.187Z" fill="url(#paint8_radial_109_577)"/>
<defs>
<radialGradient id="paint0_radial_109_577" cx="0" cy="0" r="1" gradientUnits="userSpaceOnUse" gradientTransform="translate(212.695 231.22) rotate(-33.2998) scale(72.1113 72.122)">
<stop offset="0.05" stop-color="white"/>
<stop offset="0.53" stop-color="#FFD029"/>
<stop offset="0.72" stop-color="#0D0D0D"/>
<stop offset="0.8" stop-color="#0D0D0D"/>
<stop offset="0.89" stop-color="#1E1E1E"/>
<stop offset="1" stop-color="#FFD233"/>
</radialGradient>
<linearGradient id="paint1_linear_109_577" x1="180.074" y1="213.157" x2="191.123" y2="207.886" gradientUnits="userSpaceOnUse">
<stop offset="0.02" stop-color="#8F8F8F"/>
<stop offset="0.26" stop-color="#1C1C1C"/>
<stop offset="0.62" stop-color="white"/>
<stop offset="1" stop-color="#616161"/>
</linearGradient>
<radialGradient id="paint2_radial_109_577" cx="0" cy="0" r="1" gradientUnits="userSpaceOnUse" gradientTransform="translate(163.904 139.9) rotate(-35.11) scale(92.9691 92.9808)">
<stop offset="0.05" stop-color="white"/>
<stop offset="0.53" stop-color="#FFD029"/>
<stop offset="0.72" stop-color="#0D0D0D"/>
<stop offset="0.8" stop-color="#0D0D0D"/>
<stop offset="0.89" stop-color="#1E1E1E"/>
<stop offset="1" stop-color="#FFD233"/>
</radialGradient>
<linearGradient id="paint3_linear_109_577" x1="96.0399" y1="112.278" x2="107.851" y2="101.621" gradientUnits="userSpaceOnUse">
<stop offset="0.02" stop-color="#8F8F8F"/>
<stop offset="0.26" stop-color="#1C1C1C"/>
<stop offset="0.62" stop-color="white"/>
<stop offset="1" stop-color="#616161"/>
</linearGradient>
<linearGradient id="paint4_linear_109_577" x1="252.591" y1="164.32" x2="249.262" y2="148.748" gradientUnits="userSpaceOnUse">
<stop offset="0.02" stop-color="#8F8F8F"/>
<stop offset="0.26" stop-color="#1C1C1C"/>
<stop offset="0.62" stop-color="white"/>
<stop offset="1" stop-color="#616161"/>
</linearGradient>
<linearGradient id="paint5_linear_109_577" x1="128.855" y1="257.27" x2="143.928" y2="262.207" gradientUnits="userSpaceOnUse">
<stop offset="0.02" stop-color="#8F8F8F"/>
<stop offset="0.26" stop-color="#1C1C1C"/>
<stop offset="0.62" stop-color="white"/>
<stop offset="1" stop-color="#616161"/>
</linearGradient>
<radialGradient id="paint6_radial_109_577" cx="0" cy="0" r="1" gradientUnits="userSpaceOnUse" gradientTransform="translate(61.4258 24.2791) rotate(-32.5497) scale(92.9677 92.9823)">
<stop offset="0.05" stop-color="white"/>
<stop offset="0.53" stop-color="#FFD029"/>
<stop offset="0.72" stop-color="#0D0D0D"/>
<stop offset="0.8" stop-color="#0D0D0D"/>
<stop offset="0.89" stop-color="#1E1E1E"/>
<stop offset="1" stop-color="#FFD233"/>
</radialGradient>
<radialGradient id="paint7_radial_109_577" cx="0" cy="0" r="1" gradientUnits="userSpaceOnUse" gradientTransform="translate(331.958 103.354) rotate(-29.1091) scale(102.285 102.305)">
<stop offset="0.05" stop-color="white"/>
<stop offset="0.53" stop-color="#FFD029"/>
<stop offset="0.72" stop-color="#0D0D0D"/>
<stop offset="0.8" stop-color="#0D0D0D"/>
<stop offset="0.89" stop-color="#1E1E1E"/>
<stop offset="1" stop-color="#FFD233"/>
</radialGradient>
<radialGradient id="paint8_radial_109_577" cx="0" cy="0" r="1" gradientUnits="userSpaceOnUse" gradientTransform="translate(119.018 296.929) rotate(-27.0686) scale(102.284 102.306)">
<stop offset="0.05" stop-color="white"/>
<stop offset="0.53" stop-color="#FFD029"/>
<stop offset="0.72" stop-color="#0D0D0D"/>
<stop offset="0.8" stop-color="#0D0D0D"/>
<stop offset="0.89" stop-color="#1E1E1E"/>
<stop offset="1" stop-color="#FFD233"/>
</radialGradient>
</defs>
</svg>
