<svg width="667" height="670" viewBox="0 0 667 670" fill="none" xmlns="http://www.w3.org/2000/svg">
<g filter="url(#filter0_f_112_884)">
<path d="M245.556 462.217C222.517 481.001 187.702 476.42 167.676 452.272C147.651 428.125 150.036 393.303 172.963 374.626C195.89 355.949 230.818 360.423 250.956 384.464C271.095 408.731 268.709 443.552 245.782 462.229L245.556 462.217Z" fill="#B582EE"/>
<path opacity="0.5" d="M261.235 440.211C258.548 444.138 255.182 447.804 251.249 451.099C228.21 469.883 193.395 465.301 173.369 441.154C159.716 424.813 156.423 403.372 162.978 385.514C149.768 404.938 150.951 432.26 167.564 452.379C187.59 476.527 222.517 481.001 245.444 462.324C252.749 456.269 258.011 448.747 261.122 440.318L261.235 440.211Z" fill="#543D6F"/>
<path opacity="0.5" d="M241.347 401.593C221.321 377.446 186.394 372.971 163.467 391.648C162.568 392.505 161.782 393.254 160.884 394.111C157.931 409.9 162.103 427.316 173.595 441.166C193.62 465.313 228.548 469.788 251.475 451.111C252.373 450.254 253.159 449.505 254.058 448.648C257.011 432.859 252.839 415.443 241.347 401.593Z" fill="#633AB4"/>
<path opacity="0.5" d="M247.039 390.475C260.351 406.458 263.753 427.112 257.987 444.674C259.22 443.27 260.341 441.746 261.461 440.223C268.016 422.364 264.723 400.924 251.069 384.583C231.044 360.436 196.116 355.961 173.189 374.638C169.369 377.826 166.003 381.491 163.204 385.526C162.98 385.966 162.871 386.526 162.761 387.086C164.668 384.813 166.913 382.671 169.387 380.768C192.314 362.091 227.241 366.566 247.267 390.713L247.039 390.475Z" fill="#7B47E8"/>
<g style="mix-blend-mode:screen" opacity="0.5">
<path d="M237.877 443.822C229.496 458.641 214.868 467.584 198.841 469.439C200.541 470.322 202.466 471.217 204.164 471.873C223.029 472.32 240.932 463.213 250.653 445.977C265.292 420.182 255.482 385.838 228.841 369.592C226.12 367.863 223.061 366.454 220.231 365.285C217.745 365.151 215.374 365.364 212.892 365.683C214.024 366.196 215.044 366.816 216.178 367.556C242.933 383.92 252.742 418.039 237.991 443.941L237.877 443.822Z" fill="#FBF9FD"/>
</g>
<g style="mix-blend-mode:overlay" opacity="0.5">
<path d="M250.653 445.977C241.044 463.106 223.029 472.32 204.164 471.874C205.976 472.649 207.787 473.199 209.711 473.868C229.144 474.91 247.723 465.614 257.781 448.056C272.532 422.154 262.61 387.917 235.969 371.671C231.434 368.94 226.678 366.875 221.812 365.37C221.36 365.345 220.683 365.309 220.231 365.285C223.175 366.574 226.119 367.863 228.841 369.592C255.596 385.957 265.404 420.075 250.653 445.977Z" fill="#7B47E8"/>
</g>
<g style="mix-blend-mode:multiply" opacity="0.5">
<path d="M241.723 444.707C241.723 444.707 237.503 400.935 206.411 395.761C174.302 390.419 165.561 420.15 165.561 420.15C165.561 420.15 158.174 375.756 199.812 369.28C222.041 365.834 252.188 382.834 252.37 412.703C252.472 429.448 241.723 444.707 241.723 444.707Z" fill="#493000"/>
</g>
<path opacity="0.5" d="M241.347 401.593C252.839 415.443 257.011 432.859 254.058 448.648C255.405 447.363 256.753 446.078 257.873 444.555C263.639 426.993 260.238 406.339 246.926 390.356C226.9 366.208 191.973 361.733 169.046 380.41C166.686 382.433 164.44 384.574 162.42 386.728C161.644 389.062 161.093 391.408 160.543 393.753C161.441 392.897 162.227 392.147 163.126 391.29C186.053 372.613 220.98 377.088 241.006 401.236L241.347 401.593Z" fill="#FBF9FD"/>
<path opacity="0.5" d="M197.857 363.632C193.35 365.427 189.074 367.912 185.141 371.207C162.213 389.884 159.828 424.706 179.854 448.853C193.508 465.42 214.108 472.633 232.952 469.685C211.095 478.692 184.401 472.284 167.676 452.272C147.651 428.125 150.036 393.303 172.963 374.626C180.268 368.571 188.943 365.077 197.857 363.632Z" fill="#543D6F"/>
<path opacity="0.5" d="M232.131 390.58C252.157 414.728 249.885 449.669 226.844 468.226C225.946 469.083 225.046 469.713 224.034 470.451C207.769 470.257 191.459 462.822 179.967 448.973C159.942 424.825 162.327 390.003 185.254 371.326C186.153 370.47 187.052 369.839 188.064 369.102C204.33 369.295 220.639 376.73 232.131 390.58Z" fill="#633AB4"/>
<g style="mix-blend-mode:overlay" opacity="0.5">
<path d="M244.308 387.161C230.996 371.178 211.299 363.788 192.677 366.069C194.365 365.142 195.942 364.321 197.745 363.739C216.703 360.911 237.19 368.23 250.844 384.571C270.983 408.838 268.597 443.659 245.557 462.217C241.736 465.406 237.459 467.891 232.84 469.792C232.276 469.875 231.711 469.958 231.259 469.933C233.961 468.495 236.436 466.818 238.796 464.795C261.835 446.011 264.108 411.297 244.082 387.149L244.308 387.161Z" fill="#7B47E8"/>
</g>
<g style="mix-blend-mode:overlay" opacity="0.5">
<path d="M232.131 390.58C220.639 376.73 204.218 369.403 188.064 369.102C189.639 368.055 191.214 367.009 192.79 366.188C211.3 364.014 231.11 371.297 244.422 387.28C264.448 411.428 262.062 446.25 239.135 464.927C236.662 466.83 234.075 468.614 231.599 470.065C229.116 470.384 226.632 470.477 224.26 470.463C225.272 469.725 226.172 469.095 227.07 468.238C249.997 449.561 252.383 414.74 232.357 390.592L232.131 390.58Z" fill="#FBF9FD"/>
</g>
<g style="mix-blend-mode:overlay" opacity="0.5">
<path d="M209.709 473.641C204.957 472.255 200.201 470.191 195.553 467.34C168.798 450.975 158.99 416.857 173.741 390.955C183.799 373.397 202.378 364.101 221.811 365.143C198.39 358.345 173.145 367.397 160.965 388.799C146.214 414.701 156.136 448.939 182.777 465.184C191.393 470.397 200.671 473.157 209.709 473.641Z" fill="#543D6F"/>
</g>
<g style="mix-blend-mode:overlay" opacity="0.4">
<path d="M237.877 443.822C252.628 417.92 242.706 383.682 216.065 367.436C215.044 366.816 213.91 366.077 212.778 365.564C196.751 367.419 182.123 376.361 173.742 391.181C158.991 417.083 168.913 451.32 195.554 467.566C196.688 468.306 197.708 468.926 198.841 469.439C214.868 467.584 229.496 458.641 237.877 443.822Z" fill="#372574"/>
</g>
<g style="mix-blend-mode:multiply" opacity="0.3">
<path d="M206.555 363.76C206.555 363.76 182.859 404.564 208.984 428.813C236.018 453.788 263.001 433.519 263.001 433.519C263.001 433.519 242.032 476.958 198.534 456.076C175.199 444.871 157.486 411.008 176.075 384.859C186.602 370.041 206.441 363.64 206.441 363.64L206.555 363.76Z" fill="#453378"/>
</g>
<g style="mix-blend-mode:multiply" opacity="0.2">
<path d="M175.238 395.672C175.238 395.672 179.458 439.444 210.549 444.618C242.658 449.96 251.4 420.229 251.4 420.229C251.4 420.229 258.786 464.623 217.148 471.099C194.919 474.545 164.772 457.545 164.59 427.676C164.488 410.931 175.238 395.672 175.238 395.672Z" fill="#493000"/>
</g>
<g style="mix-blend-mode:multiply" opacity="0.2">
<path d="M236.179 387.63C236.179 387.63 194.821 384.281 186.896 418.24C178.864 453.211 211.376 469.093 211.376 469.093C211.376 469.093 161.226 468.666 156.866 420.475C154.563 394.677 175.498 364.243 208.964 369.883C227.733 373.152 236.179 387.63 236.179 387.63Z" fill="#493000"/>
</g>
<g style="mix-blend-mode:screen" opacity="0.5">
<path d="M221.439 470.877C221.439 470.877 245.135 430.073 218.896 405.705C191.863 380.729 164.879 400.998 164.879 400.998C164.879 400.998 185.848 357.559 229.346 378.442C252.682 389.646 270.395 423.51 251.805 449.659C241.278 464.476 221.439 470.877 221.439 470.877Z" fill="#453378"/>
</g>
<g style="mix-blend-mode:multiply" opacity="0.2">
<path d="M240.287 394.411C240.287 394.411 202.222 394.066 198.093 420.763C193.969 448.366 219.784 458.799 219.784 458.799C219.784 458.799 181.285 461.372 175.073 424.279C171.79 404.423 186.209 379.747 212.202 382.272C226.894 383.739 240.174 394.518 240.174 394.518L240.287 394.411Z" fill="#453378"/>
</g>
<g style="mix-blend-mode:overlay" opacity="0.5">
<path d="M169.065 439.113C169.065 439.113 207.129 439.458 211.259 412.76C215.496 385.277 189.567 374.724 189.567 374.724C189.567 374.724 228.066 372.152 234.166 409.351C237.449 429.208 223.03 453.883 197.037 451.358C182.345 449.892 169.065 439.113 169.065 439.113Z" fill="#B582EE"/>
</g>
<g style="mix-blend-mode:screen" opacity="0.5">
<path d="M253.54 437.762C249.363 438.104 252.004 426.709 250.115 413.261C248.226 399.813 242.625 388.994 246.804 388.879C250.981 388.537 259.064 399.037 260.953 412.485C262.73 426.04 257.604 437.528 253.427 437.869L253.54 437.762Z" fill="white"/>
</g>
<g style="mix-blend-mode:overlay" opacity="0.4">
<path d="M177.608 450.995C181.668 450.082 174.831 440.214 171.25 427.015C167.78 413.709 168.952 402.122 164.892 403.035C160.831 403.948 157.178 416.081 160.647 429.387C164.117 442.693 173.549 452.135 177.609 451.221L177.608 450.995Z" fill="#D6B7F0"/>
</g>
<path style="mix-blend-mode:overlay" opacity="0.3" d="M245.556 462.217C222.517 481.001 187.702 476.42 167.676 452.272C147.651 428.125 150.036 393.303 172.963 374.626C195.89 355.949 230.818 360.423 250.956 384.464C271.095 408.731 268.709 443.552 245.782 462.229L245.556 462.217Z" fill="url(#paint0_radial_112_884)"/>
<g style="mix-blend-mode:multiply" opacity="0.5">
<path d="M240.516 413.538C237.257 416.191 229.097 411.681 222.384 403.517C215.67 395.353 212.906 386.608 216.166 383.955C219.425 381.303 227.584 385.812 234.298 393.976C241.011 402.141 243.775 410.885 240.516 413.538Z" fill="#9477C7"/>
</g>
<g style="mix-blend-mode:overlay" opacity="0.5">
<path d="M240.943 409.489C238.144 413.524 228.647 411.883 220.247 405.099C204.925 392.853 181.148 383.208 183.947 379.174C186.746 375.139 209.459 376.922 230.437 390.602C239.395 396.399 243.629 405.335 240.942 409.263L240.943 409.489Z" fill="#B582EE"/>
</g>
<g style="mix-blend-mode:multiply" opacity="0.4">
<path d="M234.416 394.774C234.416 394.774 226.65 399.221 230.868 405.668C235.2 412.235 241.609 407.489 241.609 407.489C241.609 407.489 235.685 417.69 227.625 411.037C223.311 407.412 221.917 401.003 227.312 396.768C230.347 394.33 234.416 394.774 234.416 394.774Z" fill="#332273"/>
</g>
<g style="mix-blend-mode:multiply" opacity="0.3">
<path d="M239.281 414.716C235.903 416.344 230.346 412.766 227.146 406.487C223.833 400.314 223.793 393.752 227.171 392.124C230.549 390.495 236.106 394.073 239.419 400.245C242.732 406.418 242.772 412.98 239.393 414.609L239.281 414.716Z" fill="#6C51C6"/>
</g>
<path d="M297.181 370.882C295.239 367.272 290.711 365.672 287.108 367.514L232.837 395.142C229.346 396.878 228.018 401.331 230.073 405.06C232.016 408.671 236.543 410.271 240.032 408.309L294.192 380.788C297.682 379.053 299.01 374.6 296.955 370.87L297.181 370.882Z" fill="url(#paint1_linear_112_884)"/>
<path d="M356.178 414.538C328.554 440.88 283.361 438.457 255.398 409.133C227.435 379.809 227.159 334.552 254.783 308.21C282.407 281.867 327.6 284.291 355.563 313.615C383.527 342.938 383.803 388.195 356.178 414.538Z" fill="#B582EE"/>
<path opacity="0.5" d="M374.067 384.506C370.938 389.994 367.128 394.992 362.412 399.49C334.788 425.832 289.595 423.409 261.631 394.085C242.534 374.059 236.383 346.923 243.014 323.074C228.04 349.416 232.095 384.697 255.284 409.014C283.248 438.338 328.441 440.761 356.065 414.419C364.936 405.959 370.972 395.651 374.067 384.506Z" fill="#543D6F"/>
<path opacity="0.5" d="M344.748 336.674C316.785 307.35 271.592 304.926 243.968 331.269C242.845 332.34 241.722 333.41 240.713 334.6C238.468 355.405 245.491 377.384 261.519 394.192C289.482 423.516 334.675 425.939 362.299 399.597C363.422 398.526 364.545 397.455 365.668 396.384C367.913 375.58 360.89 353.6 344.862 336.793L344.748 336.674Z" fill="#633AB4"/>
<path opacity="0.5" d="M350.981 321.625C369.51 341.055 375.882 367.298 370.038 390.624C371.381 388.66 372.725 386.696 373.954 384.613C380.587 360.991 374.434 333.628 355.337 313.602C327.374 284.279 282.181 281.855 254.557 308.197C249.841 312.695 245.919 317.801 242.902 323.181C242.68 323.848 242.458 324.514 242.462 325.193C244.815 322.039 247.281 319.005 250.201 316.22C277.825 289.878 323.018 292.302 350.981 321.625Z" fill="#7B47E8"/>
<g style="mix-blend-mode:screen" opacity="0.5">
<path d="M344.404 391.398C335.039 411.481 317.046 424.315 296.739 428.203C299.005 429.229 301.494 430.041 303.872 430.961C328.035 429.768 350.202 416.14 361.017 393.081C377.295 358.213 361.558 314.954 325.754 296.52C322.016 294.623 318.052 292.94 314.318 291.722C311.156 291.779 307.996 292.288 304.951 292.916C306.423 293.561 307.895 294.205 309.255 294.957C345.058 313.391 360.909 356.768 344.518 391.518L344.404 391.398Z" fill="#FBF9FD"/>
</g>
<g style="mix-blend-mode:overlay" opacity="0.5">
<path d="M360.904 392.962C350.088 416.021 327.921 429.649 303.758 430.842C306.248 431.654 308.51 432.227 310.999 432.813C335.956 432.229 359.027 418.649 370.176 394.817C386.454 359.948 370.717 316.69 334.914 298.256C328.796 295.213 322.457 292.837 316.124 291.593C315.446 291.557 314.656 291.627 314.092 291.71C318.052 292.94 321.902 294.504 325.529 296.508C361.332 314.942 377.183 358.32 360.791 393.069L360.904 392.962Z" fill="#7B47E8"/>
</g>
<g style="mix-blend-mode:multiply" opacity="0.5">
<path d="M349.492 392.237C349.492 392.237 340 335.967 299.656 332.333C258.069 328.519 249.61 367.539 249.61 367.539C249.61 367.539 235.938 310.931 288.721 298.606C317.031 292.094 357.016 311.091 360.188 349.717C362.015 371.418 349.604 392.13 349.604 392.13L349.492 392.237Z" fill="#493000"/>
</g>
<path opacity="0.5" d="M344.748 336.674C360.776 353.481 367.687 375.568 365.554 396.265C367.237 394.433 368.695 392.588 370.038 390.624C375.77 367.406 369.51 341.056 350.981 321.626C323.018 292.302 277.825 289.878 250.201 316.221C247.281 319.005 244.701 321.92 242.462 325.193C241.69 328.206 241.145 331.457 240.825 334.493C241.948 333.422 242.957 332.232 244.08 331.162C271.704 304.819 316.897 307.243 344.86 336.567L344.748 336.674Z" fill="#FBF9FD"/>
<path opacity="0.5" d="M285.516 291.648C279.886 294.513 274.713 298.081 269.996 302.579C242.372 328.921 242.648 374.178 270.611 403.502C289.708 423.528 316.635 431.08 340.659 425.469C313.635 439.176 278.587 433.45 255.398 409.133C227.435 379.809 227.159 334.552 254.783 308.21C263.654 299.75 274.351 294.329 285.516 291.648Z" fill="#543D6F"/>
<path opacity="0.5" d="M331.903 323.204C359.867 352.528 360.142 397.785 332.518 424.127C331.395 425.198 330.272 426.269 329.15 427.34C308.262 428.595 286.641 420.536 270.613 403.728C242.649 374.404 242.374 329.147 269.998 302.805C271.121 301.734 272.243 300.663 273.366 299.592C294.254 298.337 315.875 306.396 331.903 323.204Z" fill="#633AB4"/>
<g style="mix-blend-mode:overlay" opacity="0.5">
<path d="M347.23 317.692C328.702 298.262 302.791 290.651 279.214 295.382C281.239 294.133 283.265 292.884 285.404 291.755C309.315 286.251 336.354 293.696 355.451 313.722C383.414 343.045 383.69 388.302 356.066 414.645C351.35 419.142 346.064 422.818 340.546 425.576C339.87 425.765 339.193 425.955 338.515 425.919C341.777 423.719 344.926 421.399 347.845 418.615C375.469 392.273 375.194 347.016 347.23 317.692Z" fill="#7B47E8"/>
</g>
<g style="mix-blend-mode:overlay" opacity="0.5">
<path d="M331.903 323.204C315.875 306.396 294.141 298.444 273.366 299.592C275.277 297.998 277.189 296.63 279.214 295.382C302.678 290.759 328.702 298.262 347.23 317.692C375.194 347.016 375.469 392.273 347.845 418.615C344.926 421.399 341.891 423.838 338.515 425.919C335.47 426.548 332.197 426.937 329.148 427.113C330.271 426.042 331.394 424.972 332.517 423.901C360.141 397.558 359.865 352.301 331.902 322.978L331.903 323.204Z" fill="#FBF9FD"/>
</g>
<g style="mix-blend-mode:overlay" opacity="0.5">
<path d="M310.998 432.813C304.778 431.461 298.326 429.193 292.321 426.043C256.518 407.609 240.667 364.231 257.058 329.482C268.095 305.756 291.279 292.07 316.236 291.486C285.474 284.859 254.048 298.895 240.559 327.919C224.281 362.787 240.018 406.046 275.822 424.479C287.265 430.409 299.48 433.1 311.224 432.825L310.998 432.813Z" fill="#543D6F"/>
</g>
<g style="mix-blend-mode:overlay" opacity="0.4">
<path d="M344.404 391.398C360.682 356.53 344.944 313.271 309.141 294.838C307.781 294.086 306.195 293.322 304.837 292.797C284.53 296.685 266.537 309.519 257.172 329.602C240.895 364.47 256.632 407.729 292.435 426.162C293.795 426.914 295.381 427.678 296.853 428.322C317.16 424.435 335.153 411.601 344.518 391.518L344.404 391.398Z" fill="#372574"/>
</g>
<g style="mix-blend-mode:multiply" opacity="0.3">
<path d="M296.694 291.003C296.694 291.003 270.261 346.025 306.015 374.975C342.904 404.664 375.596 375.992 375.596 375.992C375.596 375.992 352.909 434.043 295.168 411.266C264.26 399.089 238.364 356.869 259.719 321.255C271.682 301.199 296.468 290.991 296.468 290.991L296.694 291.003Z" fill="#453378"/>
</g>
<g style="mix-blend-mode:multiply" opacity="0.2">
<path d="M259.579 335.273C259.579 335.273 269.07 391.543 309.414 395.177C351.001 398.991 359.46 359.971 359.46 359.971C359.46 359.971 373.133 416.578 320.349 428.903C292.04 435.416 251.94 416.299 248.882 377.792C247.056 356.091 259.466 335.38 259.466 335.38L259.579 335.273Z" fill="#493000"/>
</g>
<g style="mix-blend-mode:multiply" opacity="0.2">
<path d="M336.847 318.945C336.847 318.945 283.534 318.574 276.578 363.217C269.517 409.325 312.768 426.574 312.768 426.574C312.768 426.574 248.527 430.707 238.211 368.85C232.7 335.641 256.845 294.408 300.129 298.652C324.54 301.093 336.733 318.825 336.733 318.825L336.847 318.945Z" fill="#493000"/>
</g>
<g style="mix-blend-mode:screen" opacity="0.5">
<path d="M325.766 428.063C325.766 428.063 352.198 373.041 316.444 344.091C279.556 314.402 246.751 343.181 246.751 343.181C246.751 343.181 269.438 285.13 327.179 307.907C358.088 320.084 383.983 362.304 362.628 397.918C350.665 417.975 325.767 428.289 325.767 428.289L325.766 428.063Z" fill="#453378"/>
</g>
<g style="mix-blend-mode:multiply" opacity="0.2">
<path d="M342.772 327.406C342.772 327.406 293.999 330.672 291.275 365.589C288.558 401.637 322.622 412.625 322.622 412.625C322.622 412.625 273.532 419.38 262.175 372.172C256.035 346.846 272.208 313.442 305.758 314.224C324.623 314.67 342.884 327.299 342.884 327.299L342.772 327.406Z" fill="#453378"/>
</g>
<g style="mix-blend-mode:overlay" opacity="0.5">
<path d="M255.745 391.959C255.745 391.959 304.631 388.813 307.242 353.777C309.958 317.729 275.895 306.74 275.895 306.74C275.895 306.74 325.097 299.878 336.341 347.194C342.482 372.52 326.308 405.923 292.759 405.142C273.894 404.696 255.745 391.959 255.745 391.959Z" fill="#B582EE"/>
</g>
<g style="mix-blend-mode:screen" opacity="0.5">
<path d="M363.999 382.044C358.696 382.777 361.09 367.976 357.484 350.703C353.877 333.431 345.551 320.203 350.968 319.363C356.272 318.629 367.757 331.348 371.363 348.62C374.97 365.892 369.416 381.203 364.225 382.056L363.999 382.044Z" fill="white"/>
</g>
<g style="mix-blend-mode:overlay" opacity="0.4">
<path d="M267.919 406.524C272.993 405.1 263.205 392.812 257.455 375.99C251.705 359.168 252.177 343.924 246.991 345.456C241.805 346.988 238.401 362.979 244.151 379.801C249.9 396.623 262.845 407.949 267.919 406.524Z" fill="#D6B7F0"/>
</g>
<path style="mix-blend-mode:overlay" opacity="0.3" d="M356.178 414.538C328.554 440.88 283.361 438.457 255.398 409.133C227.435 379.809 227.159 334.552 254.783 308.21C282.407 281.867 327.6 284.291 355.563 313.615C383.527 342.938 383.803 388.195 356.178 414.538Z" fill="url(#paint2_radial_112_884)"/>
<g style="mix-blend-mode:multiply" opacity="0.5">
<path d="M361.101 332.687C358.296 335.817 348.102 330.972 338.334 322.078C328.567 313.185 322.972 303.271 325.777 300.141C328.581 297.011 338.888 301.749 348.543 310.75C358.311 319.643 363.906 329.558 361.101 332.687Z" fill="#7642EA"/>
</g>
<g style="mix-blend-mode:overlay" opacity="0.5">
<path d="M359.726 329.446C356.813 333.362 347.201 331.376 339.252 324.39C324.265 311.597 300.934 301.071 303.961 297.274C306.873 293.359 329.704 295.941 350.01 310.489C358.745 316.726 362.752 325.65 359.84 329.566L359.726 329.446Z" fill="#B582EE"/>
</g>
<g style="mix-blend-mode:multiply" opacity="0.2">
<path d="M347.845 307.319C347.845 307.319 343.949 316.724 350.188 321.244C356.542 325.883 361.819 320.85 361.819 320.85C361.819 320.85 358.604 330.744 348.758 327.388C343.438 325.632 338.879 318.828 342.004 312.661C343.79 309.138 347.731 307.2 347.731 307.2L347.845 307.319Z" fill="#493000"/>
</g>
<g style="mix-blend-mode:multiply" opacity="0.3">
<path d="M358.811 327.588C356.793 329.968 350.228 327.806 344.097 322.501C337.966 317.195 334.653 311.023 336.671 308.643C338.69 306.263 345.367 308.544 351.385 313.73C357.516 319.036 360.83 325.208 358.811 327.588Z" fill="#453378"/>
</g>
<g style="mix-blend-mode:multiply" opacity="0.5">
<path d="M330.235 420.159C329.531 415.823 321.284 415.494 308.529 416.733C295.774 417.972 278.585 414.562 278.823 416.61C279.302 420.934 297.753 427.692 310.508 426.453C323.263 425.214 330.939 424.495 330.235 420.159Z" fill="#523795"/>
</g>
<g style="mix-blend-mode:multiply" opacity="0.2">
<path d="M313.234 428.861C313.234 428.861 314.866 418.656 322.321 418.83C330.002 419.016 331.516 426.449 331.516 426.449C331.516 426.449 334.052 416.292 324.317 412.829C319.111 410.966 311.673 413.734 311.038 420.713C310.723 424.655 313.008 428.849 313.008 428.849L313.234 428.861Z" fill="#493473"/>
</g>
<g style="mix-blend-mode:multiply" opacity="0.3">
<path d="M329.535 416.502C327.937 413.702 320.832 415.47 313.041 415.844C305.364 416.337 299.377 416.129 299.496 417.153C299.504 418.511 308.58 425.105 316.371 424.732C324.048 424.238 332.161 421.054 329.649 416.621L329.535 416.502Z" fill="#3B2757"/>
</g>
<g style="mix-blend-mode:multiply" opacity="0.5">
<path d="M244.48 359.686C248.666 360.928 254.485 351.966 257.459 339.571C260.433 327.175 259.463 316.265 255.163 314.904C250.976 313.661 245.158 322.624 242.184 335.019C239.21 347.414 240.18 358.324 244.48 359.686Z" fill="#8066A9"/>
</g>
<g style="mix-blend-mode:multiply" opacity="0.5">
<path d="M244.007 356.267C248.761 358.105 255.613 351.799 258.49 342C263.575 323.95 277.231 303.645 272.476 301.806C267.721 299.968 249.956 313.266 241.168 335.303C237.386 344.827 239.252 354.428 244.119 356.16L244.007 356.267Z" fill="#BC79C8"/>
</g>
<g style="mix-blend-mode:multiply" opacity="0.2">
<path d="M240.921 331.671C240.921 331.671 249.768 337.801 247.211 344.563C244.544 351.659 237.191 349.794 237.191 349.794C237.191 349.794 245.816 356.591 252.095 349.01C255.458 344.892 255.41 336.972 249.176 333.358C245.55 331.354 241.147 331.683 241.147 331.683L240.921 331.671Z" fill="#493000"/>
</g>
<g style="mix-blend-mode:multiply" opacity="0.3">
<path d="M242.671 359.363C245.84 360.438 249.988 355.344 252.088 347.879C254.189 340.413 253.357 333.695 250.3 332.513C247.131 331.439 242.871 336.639 240.883 343.998C238.782 351.463 239.614 358.181 242.783 359.256L242.671 359.363Z" fill="#62412C"/>
</g>
<path d="M417.997 253.85C421.748 257.784 421.785 263.893 418.08 267.427L360.81 322.04C357.104 325.573 351.003 325.246 347.252 321.313C343.501 317.379 343.464 311.269 347.17 307.735L404.439 253.123C408.145 249.589 414.246 249.916 417.997 253.85Z" fill="url(#paint3_linear_112_884)"/>
<path d="M319.828 417.565C324.904 416.367 330.12 419.814 331.62 424.984L353.115 504.858C354.502 510.136 351.483 515.063 346.407 516.262C341.332 517.46 336.116 514.013 334.616 508.843L313.121 428.969C311.621 423.798 314.753 418.763 319.828 417.565Z" fill="url(#paint4_linear_112_884)"/>
<path d="M152.597 313.022C151.273 318.154 154.242 323.516 159.447 325.153L238.211 350.414C243.305 352.158 248.482 349.269 249.92 344.256C251.244 339.124 248.163 333.869 243.069 332.126L164.305 306.864C159.1 305.227 154.034 308.009 152.597 313.022Z" fill="url(#paint5_linear_112_884)"/>
<path d="M487.673 289.143C460.049 315.486 414.856 313.062 386.893 283.739C358.93 254.415 358.654 209.158 386.278 182.815C413.902 156.473 458.981 158.777 486.945 188.101C514.908 217.425 515.184 262.682 487.56 289.024L487.673 289.143Z" fill="#B582EE"/>
<path opacity="0.5" d="M505.562 259.112C502.433 264.599 498.623 269.598 493.907 274.095C466.283 300.438 421.09 298.014 393.126 268.69C374.029 248.664 367.878 221.529 374.509 197.68C359.535 224.022 363.59 259.302 386.779 283.619C414.743 312.943 459.936 315.367 487.56 289.024C496.431 280.565 502.467 270.257 505.562 259.112Z" fill="#543D6F"/>
<path opacity="0.5" d="M476.355 211.172C448.392 181.848 403.199 179.425 375.575 205.767C374.452 206.838 373.329 207.909 372.32 209.099C370.075 229.903 377.099 251.883 393.126 268.69C421.09 298.014 466.283 300.438 493.907 274.095C495.03 273.024 496.152 271.954 497.275 270.883C499.52 250.079 492.497 228.099 476.469 211.291L476.355 211.172Z" fill="#633AB4"/>
<path opacity="0.5" d="M482.476 196.231C501.005 215.661 507.377 241.904 501.533 265.23C502.876 263.266 504.22 261.302 505.449 259.219C512.194 235.489 506.041 208.127 486.945 188.101C458.981 158.777 413.788 156.353 386.164 182.696C381.448 187.193 377.526 192.299 374.509 197.679C374.287 198.346 374.066 199.013 374.07 199.692C376.422 196.538 378.889 193.503 381.808 190.719C409.432 164.377 454.625 166.8 482.589 196.124L482.476 196.231Z" fill="#7B47E8"/>
<g style="mix-blend-mode:screen" opacity="0.5">
<path d="M475.899 266.004C466.534 286.087 448.541 298.921 428.234 302.808C430.5 303.835 432.877 304.754 435.367 305.566C459.53 304.374 481.697 290.746 492.512 267.687C508.79 232.818 493.053 189.56 457.249 171.126C453.511 169.229 449.547 167.546 445.813 166.328C442.538 166.491 439.491 166.893 436.445 167.522C437.918 168.166 439.39 168.811 440.75 169.562C476.553 187.996 492.404 231.374 476.013 266.123L475.899 266.004Z" fill="#FBF9FD"/>
</g>
<g style="mix-blend-mode:overlay" opacity="0.5">
<path d="M492.399 267.567C481.583 290.627 459.416 304.255 435.253 305.447C437.743 306.259 440.005 306.833 442.494 307.419C467.451 306.834 490.522 293.255 501.671 269.422C517.949 234.554 502.212 191.295 466.409 172.861C460.403 169.712 453.952 167.443 447.619 166.198C446.941 166.162 446.151 166.233 445.587 166.316C449.435 167.653 453.285 169.217 457.023 171.114C492.827 189.547 508.677 232.925 492.286 267.675L492.399 267.567Z" fill="#7B47E8"/>
</g>
<g style="mix-blend-mode:multiply" opacity="0.5">
<path d="M480.987 266.842C480.987 266.842 471.495 210.572 431.151 206.938C389.564 203.124 381.105 242.144 381.105 242.144C381.105 242.144 367.433 185.537 420.216 173.212C448.526 166.699 488.511 185.697 491.683 224.323C493.51 246.024 481.099 266.735 481.099 266.735L480.987 266.842Z" fill="#493000"/>
</g>
<path opacity="0.5" d="M476.355 211.172C492.383 227.98 499.294 250.067 497.162 270.764C498.845 268.931 500.302 267.086 501.645 265.123C507.377 241.904 501.117 215.554 482.589 196.124C454.625 166.8 409.432 164.377 381.808 190.719C378.889 193.503 376.309 196.419 374.07 199.692C373.297 202.704 372.753 205.955 372.432 208.992C373.555 207.921 374.564 206.731 375.687 205.66C403.311 179.318 448.504 181.741 476.468 211.065L476.355 211.172Z" fill="#FBF9FD"/>
<path opacity="0.5" d="M417.011 166.253C411.381 169.118 406.208 172.687 401.491 177.184C373.867 203.527 374.143 248.784 402.106 278.107C421.203 298.133 448.13 305.685 472.154 300.074C445.13 313.781 410.082 308.056 386.893 283.739C358.93 254.415 358.654 209.158 386.278 182.815C395.149 174.356 405.846 168.935 417.011 166.253Z" fill="#543D6F"/>
<path opacity="0.5" d="M463.51 197.702C491.474 227.026 491.75 272.283 464.126 298.626C463.003 299.696 461.88 300.767 460.757 301.838C439.87 303.093 418.248 295.034 402.22 278.227C374.257 248.903 373.981 203.646 401.605 177.303C402.728 176.232 403.851 175.162 404.974 174.091C425.861 172.836 447.483 180.895 463.51 197.702Z" fill="#633AB4"/>
<g style="mix-blend-mode:overlay" opacity="0.5">
<path d="M478.725 192.297C460.197 172.868 434.286 165.257 410.709 169.987C412.734 168.739 414.76 167.49 416.899 166.361C440.922 160.749 467.961 168.194 486.945 188.101C515.022 217.544 515.184 262.682 487.56 289.024C482.843 293.522 477.557 297.197 472.04 299.955C471.363 300.145 470.687 300.335 470.009 300.298C473.271 298.098 476.419 295.779 479.339 292.994C506.963 266.652 506.687 221.395 478.724 192.071L478.725 192.297Z" fill="#7B47E8"/>
</g>
<g style="mix-blend-mode:overlay" opacity="0.5">
<path d="M463.51 197.702C447.483 180.895 425.749 172.943 404.974 174.091C406.884 172.497 408.796 171.129 410.821 169.88C434.286 165.257 460.309 172.76 478.837 192.19C506.801 221.514 507.077 266.771 479.453 293.114C476.533 295.898 473.498 298.336 470.123 300.418C467.077 301.046 463.804 301.436 460.755 301.612C461.878 300.541 463.001 299.47 464.124 298.399C491.748 272.057 491.472 226.8 463.509 197.476L463.51 197.702Z" fill="#FBF9FD"/>
</g>
<g style="mix-blend-mode:overlay" opacity="0.5">
<path d="M442.606 307.311C436.385 305.96 429.934 303.691 423.816 300.648C388.013 282.215 372.162 238.837 388.553 204.088C399.59 180.362 422.774 166.675 447.731 166.091C416.969 159.465 385.543 173.501 372.054 202.524C355.776 237.393 371.513 280.651 407.316 299.085C418.76 305.015 430.975 307.706 442.719 307.431L442.606 307.311Z" fill="#543D6F"/>
</g>
<g style="mix-blend-mode:overlay" opacity="0.4">
<path d="M475.899 266.004C492.176 231.135 476.439 187.877 440.636 169.443C439.164 168.799 437.69 167.928 436.332 167.403C416.025 171.29 398.032 184.124 388.667 204.207C372.39 239.076 388.127 282.334 423.93 300.768C425.29 301.519 426.876 302.283 428.348 302.928C448.655 299.04 466.648 286.206 476.013 266.123L475.899 266.004Z" fill="#372574"/>
</g>
<g style="mix-blend-mode:multiply" opacity="0.3">
<path d="M428.189 165.609C428.189 165.609 401.756 220.631 437.51 249.581C474.399 279.27 507.203 250.491 507.203 250.491C507.203 250.491 484.516 308.541 426.775 285.764C395.867 273.588 369.859 231.475 391.326 195.754C403.289 175.697 428.075 165.49 428.075 165.49L428.189 165.609Z" fill="#453378"/>
</g>
<g style="mix-blend-mode:multiply" opacity="0.2">
<path d="M391.074 209.879C391.074 209.879 400.565 266.149 440.909 269.783C482.496 273.597 490.955 234.576 490.955 234.576C490.955 234.576 504.628 291.184 451.844 303.509C423.535 310.021 383.435 290.905 380.377 252.398C378.551 230.697 390.961 209.986 390.961 209.986L391.074 209.879Z" fill="#493000"/>
</g>
<g style="mix-blend-mode:multiply" opacity="0.2">
<path d="M468.342 193.55C468.342 193.55 415.029 193.179 408.073 237.822C401.012 283.93 444.263 301.18 444.263 301.18C444.263 301.18 380.022 305.312 369.706 243.456C364.195 210.247 388.34 169.014 431.624 173.258C456.035 175.698 468.228 193.431 468.228 193.431L468.342 193.55Z" fill="#493000"/>
</g>
<g style="mix-blend-mode:screen" opacity="0.5">
<path d="M457.261 302.669C457.261 302.669 483.693 247.646 447.939 218.697C411.051 189.007 378.246 217.787 378.246 217.787C378.246 217.787 400.933 159.736 458.674 182.513C489.582 194.689 515.591 236.802 494.123 272.524C482.16 292.58 457.374 302.788 457.374 302.788L457.261 302.669Z" fill="#453378"/>
</g>
<g style="mix-blend-mode:multiply" opacity="0.2">
<path d="M474.267 202.012C474.267 202.012 425.494 205.277 422.77 240.194C420.053 276.242 454.117 287.231 454.117 287.231C454.117 287.231 405.027 293.986 393.67 246.777C387.53 221.451 403.703 188.048 437.253 188.829C456.118 189.275 474.379 201.905 474.379 201.905L474.267 202.012Z" fill="#453378"/>
</g>
<g style="mix-blend-mode:overlay" opacity="0.5">
<path d="M387.24 266.565C387.24 266.565 436.126 263.418 438.736 228.383C441.453 192.334 407.39 181.346 407.39 181.346C407.39 181.346 456.48 174.591 467.836 221.8C473.977 247.125 457.803 280.529 424.254 279.748C405.389 279.301 387.24 266.565 387.24 266.565Z" fill="#B582EE"/>
</g>
<g style="mix-blend-mode:screen" opacity="0.5">
<path d="M495.494 256.649C490.19 257.383 492.585 242.581 488.978 225.309C485.372 208.036 477.046 194.809 482.463 193.968C487.766 193.235 499.251 205.953 502.858 223.225C506.465 240.498 500.911 255.809 495.72 256.661L495.494 256.649Z" fill="white"/>
</g>
<g style="mix-blend-mode:overlay" opacity="0.4">
<path d="M399.414 281.13C404.6 279.598 394.7 267.417 388.95 250.596C383.2 233.774 383.56 218.637 378.486 220.061C373.412 221.486 369.896 237.585 375.646 254.406C381.395 271.228 394.34 282.554 399.414 281.13Z" fill="#D6B7F0"/>
</g>
<path style="mix-blend-mode:overlay" opacity="0.3" d="M487.673 289.143C460.049 315.486 414.856 313.062 386.893 283.739C358.93 254.415 358.654 209.158 386.278 182.815C413.902 156.473 458.981 158.777 486.945 188.101C514.908 217.425 515.184 262.682 487.56 289.024L487.673 289.143Z" fill="url(#paint6_radial_112_884)"/>
<path d="M426.327 601.418C404.863 637.818 357.037 648.147 319.395 624.412C281.752 600.677 268.58 552.014 290.043 515.614C311.507 479.214 359.333 468.885 396.976 492.62C434.618 516.355 447.791 565.018 426.327 601.418Z" fill="#B582EE"/>
<path opacity="0.5" d="M436.49 563.96C434.837 570.771 432.166 577.188 428.477 583.437C407.013 619.837 359.187 630.166 321.544 606.431C295.921 590.353 281.747 562.673 281.918 535.198C273.646 567.894 288.103 604.863 319.283 624.519C356.925 648.255 404.751 637.926 426.215 601.526C433.147 589.908 436.456 576.965 436.49 563.96Z" fill="#543D6F"/>
<path opacity="0.5" d="M392.289 520.532C354.647 496.797 306.821 507.126 285.357 543.526C284.463 545.061 283.681 546.49 283.013 548.038C286.542 571.074 300.115 592.953 321.658 606.55C359.301 630.285 407.126 619.956 428.59 583.556C429.484 582.02 430.266 580.592 430.935 579.044C427.406 556.008 413.832 534.129 392.289 520.532Z" fill="#633AB4"/>
<path opacity="0.5" d="M394.664 502.562C419.495 518.258 433.662 544.806 434.277 571.532C435.166 569.091 436.053 566.425 436.602 563.853C436.773 536.377 422.599 508.698 396.976 492.62C359.333 468.885 311.507 479.214 290.043 515.614C286.354 521.863 283.796 528.399 282.03 535.091C282.034 535.769 282.04 536.675 282.044 537.353C283.487 533.246 285.496 529.282 287.619 525.437C309.082 489.037 356.908 478.708 394.551 502.443L394.664 502.562Z" fill="#7B47E8"/>
<g style="mix-blend-mode:screen" opacity="0.5">
<path d="M407.447 579.821C403.416 604.148 388.284 623.13 368.015 633.128C370.728 633.499 373.441 633.871 376.152 634.017C401.063 625.739 420.362 604.831 425.161 576.812C432.357 534.444 403.525 492.293 360.772 482.535C356.249 481.614 351.726 480.919 347.433 480.688C344.164 481.757 340.897 483.052 337.856 484.586C339.552 484.79 341.249 485.22 343.058 485.544C385.811 495.301 414.643 537.453 407.447 579.821Z" fill="#FBF9FD"/>
</g>
<g style="mix-blend-mode:overlay" opacity="0.5">
<path d="M425.161 576.812C420.362 604.831 401.176 625.858 376.152 634.016C378.864 634.162 381.688 634.2 384.284 634C410.215 626.342 430.414 604.805 435.321 576C442.517 533.632 413.685 491.48 370.932 481.722C363.581 480.084 356.348 479.47 349.461 479.892C348.785 480.082 347.996 480.379 347.319 480.569C351.839 480.812 356.247 481.387 360.658 482.416C403.411 492.173 432.243 534.325 425.047 576.693L425.161 576.812Z" fill="#7B47E8"/>
</g>
<g style="mix-blend-mode:multiply" opacity="0.5">
<path d="M412.978 579.326C412.978 579.326 387.099 521.385 343.773 528.788C299.206 536.464 301.512 581.152 301.512 581.152C301.512 581.152 271.007 523.981 322.676 495.648C350.368 480.393 397.748 489.608 412.002 530.411C419.935 553.345 412.978 579.326 412.978 579.326Z" fill="#493000"/>
</g>
<path opacity="0.5" d="M392.289 520.532C413.832 534.129 427.406 556.008 430.935 579.044C432.049 576.616 433.164 574.187 434.165 571.64C433.55 544.914 419.495 518.259 394.552 502.67C356.91 478.935 309.084 489.264 287.62 525.664C285.272 529.496 283.489 533.473 282.046 537.58C282.18 541.094 282.428 544.726 282.901 548.145C283.569 546.597 284.463 545.062 285.245 543.633C306.709 507.233 354.535 496.904 392.177 520.639L392.289 520.532Z" fill="#FBF9FD"/>
<path opacity="0.5" d="M317.44 489.033C312.5 493.745 308.015 499.16 304.438 505.302C282.974 541.702 296.147 590.365 333.789 614.1C359.413 630.178 389.798 630.563 413.212 617.794C388.841 640.352 350.575 644.068 319.395 624.412C281.752 600.677 268.58 552.014 290.044 515.614C296.862 503.877 306.408 495.002 317.553 488.926L317.44 489.033Z" fill="#543D6F"/>
<path opacity="0.5" d="M375.055 509.654C412.698 533.389 425.87 582.053 404.407 618.453C403.512 619.988 402.617 621.297 401.609 622.714C380.193 629.935 355.218 627.578 333.676 613.981C296.033 590.246 282.861 541.582 304.324 505.182C305.218 503.647 306.114 502.338 307.122 500.921C328.538 493.7 353.513 496.057 375.055 509.654Z" fill="#633AB4"/>
<g style="mix-blend-mode:overlay" opacity="0.5">
<path d="M389.45 499.342C364.619 483.646 335.249 482.976 311.941 494.733C313.622 492.674 315.531 490.854 317.44 489.033C340.968 476.157 371.352 476.542 396.864 492.727C434.506 516.462 447.679 565.126 426.215 601.526C422.526 607.775 418.041 613.19 413.212 617.794C412.537 618.21 411.974 618.52 411.186 618.817C413.99 615.687 416.566 612.093 418.801 608.141C440.265 571.741 427.092 523.077 389.45 499.342Z" fill="#7B47E8"/>
</g>
<g style="mix-blend-mode:overlay" opacity="0.5">
<path d="M375.055 509.655C353.513 496.058 328.538 493.7 307.122 500.921C308.69 498.743 310.258 496.565 312.053 494.626C335.361 482.869 364.619 483.646 389.562 499.235C427.204 522.97 440.377 571.633 418.913 608.033C416.565 611.866 414.101 615.353 411.298 618.709C408.258 620.243 405.104 621.657 401.835 622.726C402.843 621.31 403.625 619.881 404.633 618.465C426.096 582.065 412.924 533.402 375.281 509.667L375.055 509.655Z" fill="#FBF9FD"/>
</g>
<g style="mix-blend-mode:overlay" opacity="0.5">
<path d="M384.398 634.119C377.397 634.422 370.165 633.808 362.927 632.289C320.174 622.531 291.342 580.38 298.538 538.012C303.445 509.207 323.645 487.895 349.462 480.118C315.476 481.802 286.596 505.928 280.598 541.008C273.402 583.376 302.234 625.528 344.987 635.286C358.672 638.395 372.11 637.871 384.285 634.226L384.398 634.119Z" fill="#543D6F"/>
</g>
<g style="mix-blend-mode:overlay" opacity="0.4">
<path d="M407.447 579.82C414.643 537.452 385.811 495.301 343.058 485.543C341.361 485.113 339.552 484.79 337.856 484.586C317.699 494.476 302.681 513.577 298.425 537.893C291.228 580.261 320.06 622.412 362.813 632.17C364.51 632.6 366.319 632.923 368.015 633.128C388.172 623.237 403.19 604.136 407.447 579.82Z" fill="#372574"/>
</g>
<g style="mix-blend-mode:multiply" opacity="0.3">
<path d="M328.937 485.125C328.937 485.125 316.921 552.118 362.566 573.002C409.682 594.531 435.753 554.193 435.753 554.193C435.753 554.193 428.607 623.37 361.694 615.257C325.864 610.96 286.779 572.897 299.157 528.318C306.12 503.243 329.049 485.018 329.049 485.018L328.937 485.125Z" fill="#453378"/>
</g>
<g style="mix-blend-mode:multiply" opacity="0.2">
<path d="M302.751 543.554C302.751 543.554 328.744 601.614 371.956 594.091C416.522 586.415 414.217 541.728 414.217 541.728C414.217 541.728 444.722 598.899 393.053 627.232C365.361 642.486 317.981 633.272 303.727 592.468C295.794 569.534 302.751 543.554 302.751 543.554Z" fill="#493000"/>
</g>
<g style="mix-blend-mode:multiply" opacity="0.2">
<path d="M379.086 503.763C379.086 503.763 323.155 518.634 328.769 568.815C334.506 620.472 384.58 626.89 384.58 626.89C384.58 626.89 318.646 649.708 290.247 585.977C275.017 551.794 288.482 500.261 335.081 492.467C361.257 487.99 378.973 503.87 378.973 503.87L379.086 503.763Z" fill="#493000"/>
</g>
<g style="mix-blend-mode:screen" opacity="0.5">
<path d="M398.346 624.688C398.346 624.688 410.361 557.695 364.717 536.811C317.6 515.282 291.644 555.739 291.644 555.739C291.644 555.739 298.902 486.455 365.703 494.675C401.532 498.972 440.618 537.036 428.24 581.614C421.277 606.69 398.233 624.795 398.233 624.795L398.346 624.688Z" fill="#453378"/>
</g>
<g style="mix-blend-mode:multiply" opacity="0.2">
<path d="M387.603 511.345C387.603 511.345 337.448 528.675 344.573 567.4C351.93 607.043 390.796 609.127 390.796 609.127C390.796 609.127 341.344 630.566 316.091 582.725C302.608 557.119 309.927 516.454 345.113 507.709C365.074 502.785 387.603 511.345 387.603 511.345Z" fill="#453378"/>
</g>
<g style="mix-blend-mode:overlay" opacity="0.5">
<path d="M314.99 605.853C314.99 605.853 365.145 588.523 358.133 549.917C350.776 510.275 311.91 508.191 311.91 508.191C311.91 508.191 361.362 486.751 386.615 534.592C400.099 560.198 392.779 600.863 357.593 609.608C337.632 614.532 315.104 605.972 315.104 605.972L314.99 605.853Z" fill="#B582EE"/>
</g>
<g style="mix-blend-mode:screen" opacity="0.5">
<path d="M425.309 564.152C419.903 566.577 418.333 549.866 409.529 532.315C400.837 514.657 388.454 502.795 393.747 500.251C399.041 497.934 414.691 508.274 423.382 525.932C432.074 543.59 430.716 561.728 425.309 564.152Z" fill="white"/>
</g>
<g style="mix-blend-mode:overlay" opacity="0.4">
<path d="M331.893 617.957C336.843 614.829 323.114 604.479 312.397 588.069C301.566 571.541 297.851 555.054 292.787 558.063C287.837 561.19 288.739 579.449 299.569 595.977C310.4 612.506 327.054 620.978 332.005 617.85L331.893 617.957Z" fill="#D6B7F0"/>
</g>
<path style="mix-blend-mode:overlay" opacity="0.3" d="M426.327 601.418C404.863 637.818 357.037 648.147 319.395 624.412C281.752 600.677 268.58 552.014 290.043 515.614C311.507 479.214 359.333 468.885 396.976 492.62C434.618 516.355 447.791 565.018 426.327 601.418Z" fill="url(#paint7_radial_112_884)"/>
<path d="M150.568 369.353C113.19 389.064 65.207 373.597 43.2854 334.87C21.3639 296.143 33.9515 248.862 71.3292 229.15C108.707 209.438 156.69 224.906 178.612 263.632C200.533 302.359 187.946 349.641 150.568 369.353Z" fill="#B582EE"/>
<path opacity="0.5" d="M178.42 343.249C173.479 347.961 167.857 352.183 161.552 355.464C124.174 375.176 76.1912 359.709 54.2696 320.982C39.426 294.624 40.4833 264.255 54.3497 241.473C30.6601 264.746 25.0181 302.673 43.2856 334.87C65.2072 373.597 113.19 389.065 150.568 369.353C162.502 362.98 171.934 353.985 178.532 343.142L178.42 343.249Z" fill="#543D6F"/>
<path opacity="0.5" d="M160.556 284.72C138.635 245.993 90.6515 230.526 53.2737 250.237C51.6975 251.058 50.3472 251.89 48.8846 252.83C40.655 273.878 41.8242 298.937 54.3833 321.101C76.3049 359.828 124.288 375.295 161.666 355.584C163.242 354.763 164.592 353.931 166.055 352.991C174.285 331.943 173.115 306.884 160.556 284.72Z" fill="#633AB4"/>
<path opacity="0.5" d="M171.54 270.832C186.04 296.379 185.315 325.748 172.465 348.472C174.602 346.89 176.51 345.069 178.419 343.249C192.398 320.36 193.455 289.991 178.5 263.74C156.578 225.013 108.595 209.546 71.2171 229.257C64.7998 232.646 59.1783 236.868 54.2374 241.58C53.7896 242.235 53.4541 242.782 53.12 243.556C56.3792 240.903 60.0918 238.501 64.1454 236.456C101.523 216.744 149.506 232.212 171.428 270.939L171.54 270.832Z" fill="#7B47E8"/>
<g style="mix-blend-mode:screen" opacity="0.5">
<path d="M144.414 341.764C128.6 360.031 105.609 368.299 82.5582 366.61C84.8275 368.316 87.0967 370.021 89.477 371.393C115.827 376.991 143.677 369.097 161.846 348.128C189.437 316.355 184.616 266.556 151.229 236.942C147.596 233.806 144.078 231.016 140.11 228.654C136.604 227.901 133.1 227.373 129.597 227.072C131.072 228.169 132.321 229.254 133.683 230.458C167.07 260.073 171.777 309.753 144.3 341.645L144.414 341.764Z" fill="#FBF9FD"/>
</g>
<g style="mix-blend-mode:overlay" opacity="0.5">
<path d="M161.848 348.355C143.566 369.43 115.829 377.217 89.4783 371.619C91.8599 373.217 94.3525 374.482 96.7313 375.627C123.765 382.167 152.632 374.44 171.249 352.818C198.84 321.044 194.019 271.245 160.632 241.631C154.954 236.576 148.718 232.509 142.373 229.228C141.581 229.072 140.789 228.917 140.11 228.654C143.965 231.123 147.596 233.806 151.229 236.941C184.616 266.556 189.323 316.236 161.846 348.128L161.848 348.355Z" fill="#7B47E8"/>
</g>
<g style="mix-blend-mode:multiply" opacity="0.5">
<path d="M149.737 344.199C149.737 344.199 155.462 282.75 113.013 267.24C69.3186 251.324 48.9971 289.821 48.9971 289.821C48.9971 289.821 50.3063 226.665 110.746 228.889C143.168 230.062 180.971 261.61 173.316 302.823C169.053 326.007 149.737 344.199 149.737 344.199Z" fill="#493000"/>
</g>
<path opacity="0.5" d="M160.556 284.72C173.115 306.884 174.285 331.943 166.055 352.991C168.305 351.529 170.555 350.066 172.577 348.365C185.428 325.641 186.04 296.379 171.652 270.724C149.731 231.998 101.748 216.53 64.37 236.242C60.43 238.406 56.8298 240.701 53.3446 243.342C51.6684 246.306 50.106 249.389 48.8832 252.603C50.3458 251.664 51.8097 250.951 53.2723 250.011C90.65 230.299 138.633 245.767 160.555 284.494L160.556 284.72Z" fill="#FBF9FD"/>
<path opacity="0.5" d="M109.228 220.777C102.46 222.224 95.8098 224.468 89.3926 227.857C52.0148 247.568 39.4272 294.85 61.3488 333.577C76.1923 359.935 103.168 375.407 130.62 376.54C97.4545 383.131 61.3269 367.055 43.1731 334.977C21.2515 296.251 33.8391 248.969 71.2169 229.257C83.1503 222.885 96.2355 220.193 109.228 220.777Z" fill="#543D6F"/>
<path opacity="0.5" d="M150.509 266.989C172.43 305.716 159.843 352.997 122.465 372.709C120.889 373.529 119.425 374.243 117.847 374.837C95.0042 370.218 73.7944 355.621 61.2353 333.458C39.3137 294.731 51.9014 247.449 89.2791 227.737C90.8554 226.917 92.3193 226.204 93.7832 225.491C116.626 230.109 137.836 244.706 150.395 266.87L150.509 266.989Z" fill="#633AB4"/>
<g style="mix-blend-mode:overlay" opacity="0.5">
<path d="M168.571 265.469C154.071 239.922 128.226 224.51 101.559 222.628C104.039 221.856 106.745 221.096 109.34 220.67C136.793 221.803 163.768 237.275 178.612 263.633C200.533 302.359 187.946 349.641 150.568 369.353C144.151 372.741 137.501 374.986 130.733 376.433C130.055 376.396 129.151 376.348 128.473 376.312C132.645 375.065 136.7 373.246 140.641 371.309C178.019 351.597 190.606 304.315 168.685 265.589L168.571 265.469Z" fill="#7B47E8"/>
</g>
<g style="mix-blend-mode:overlay" opacity="0.5">
<path d="M150.509 266.989C137.95 244.825 116.74 230.228 93.8969 225.61C96.3756 224.612 98.8544 223.614 101.447 222.735C128.113 224.617 154.071 239.922 168.459 265.576C190.38 304.303 177.793 351.585 140.415 371.297C136.475 373.461 132.419 375.053 128.247 376.299C124.744 375.998 121.127 375.578 117.735 374.944C119.313 374.35 120.889 373.53 122.353 372.816C159.731 353.105 172.318 305.823 150.397 267.096L150.509 266.989Z" fill="#FBF9FD"/>
</g>
<g style="mix-blend-mode:overlay" opacity="0.5">
<path d="M96.7311 375.627C90.2739 372.453 84.1494 368.279 78.359 363.331C44.9725 333.717 40.2649 284.037 67.7421 252.144C86.5853 230.534 115.34 222.914 142.374 229.454C111.217 213.645 73.3022 219.303 50.422 245.673C22.8311 277.447 27.6524 327.245 61.0389 356.86C71.713 366.255 84.0633 372.686 96.7311 375.627Z" fill="#543D6F"/>
</g>
<g style="mix-blend-mode:overlay" opacity="0.4">
<path d="M144.414 341.764C172.005 309.991 167.183 260.192 133.797 230.578C132.547 229.266 131.072 228.169 129.71 227.191C106.659 225.503 83.6686 233.771 67.8546 252.037C40.2637 283.811 45.085 333.61 78.4715 363.224C79.8342 364.428 81.3091 365.525 82.5581 366.61C105.609 368.299 128.6 360.031 144.414 341.764Z" fill="#372574"/>
</g>
<g style="mix-blend-mode:multiply" opacity="0.3">
<path d="M121.441 223.242C121.441 223.242 77.1324 273.233 107.761 313.671C139.189 355.396 182.659 334.654 182.659 334.654C182.659 334.654 141.539 388.888 85.7237 348.57C55.8872 326.95 39.8744 275.533 73.0036 244.396C91.6455 226.846 121.441 223.242 121.441 223.242Z" fill="#453378"/>
</g>
<g style="mix-blend-mode:multiply" opacity="0.2">
<path d="M68.7998 258.874C68.7998 258.874 63.0753 320.323 105.524 335.833C149.218 351.749 169.54 313.252 169.54 313.252C169.54 313.252 168.231 376.408 107.791 374.184C75.3687 373.011 37.5655 341.463 45.2205 300.251C49.4841 277.066 68.7998 258.874 68.7998 258.874Z" fill="#493000"/>
</g>
<g style="mix-blend-mode:multiply" opacity="0.2">
<path d="M156.929 264.053C156.929 264.053 99.4579 248.529 79.3997 293.148C58.6732 339.315 100.423 369.831 100.423 369.831C100.423 369.831 29.9723 355.76 36.4498 288.13C39.9569 252.012 77.6845 215.579 123.304 232.39C149 241.799 157.041 263.946 157.041 263.946L156.929 264.053Z" fill="#493000"/>
</g>
<g style="mix-blend-mode:screen" opacity="0.5">
<path d="M114.007 374.857C114.007 374.857 158.316 324.866 127.687 284.428C96.26 242.703 52.7894 263.445 52.7894 263.445C52.7894 263.445 93.9099 209.21 149.725 249.529C179.561 271.149 195.574 322.566 162.445 353.703C143.689 371.133 114.007 374.857 114.007 374.857Z" fill="#453378"/>
</g>
<g style="mix-blend-mode:multiply" opacity="0.2">
<path d="M160.946 274.561C160.946 274.561 107.345 263.995 94.4616 299.725C81.1326 336.561 114.92 357.827 114.92 357.827C114.92 357.827 59.9871 351.035 61.1338 298.276C61.753 270.146 88.6743 239.694 124.655 250.22C144.909 256.17 160.946 274.561 160.946 274.561Z" fill="#453378"/>
</g>
<g style="mix-blend-mode:overlay" opacity="0.5">
<path d="M48.5984 317.058C48.5984 317.058 102.199 327.624 115.083 291.895C128.412 255.059 94.6245 233.793 94.6245 233.793C94.6245 233.793 149.557 240.584 148.411 293.343C147.679 321.58 120.87 351.925 84.8894 341.4C64.6358 335.45 48.5984 317.058 48.5984 317.058Z" fill="#B582EE"/>
</g>
<g style="mix-blend-mode:screen" opacity="0.5">
<path d="M168.221 337.725C162.231 337.065 169.029 322.16 170.042 302.986C171.055 283.813 165.873 267.587 171.751 268.355C177.741 269.015 186.426 285.542 185.413 304.716C184.401 323.889 174.097 338.267 168.107 337.606L168.221 337.725Z" fill="white"/>
</g>
<g style="mix-blend-mode:overlay" opacity="0.4">
<path d="M57.6351 335.753C63.6211 335.735 56.5237 320.198 55.0507 300.891C53.5777 281.584 58.4524 266.011 52.4664 266.029C46.4804 266.047 38.1053 281.772 39.5783 301.079C41.0514 320.386 51.6491 335.771 57.6351 335.753Z" fill="#D6B7F0"/>
</g>
<path style="mix-blend-mode:overlay" opacity="0.3" d="M150.568 369.353C113.19 389.064 65.207 373.597 43.2854 334.87C21.3639 296.143 33.9515 248.862 71.3292 229.15C108.707 209.438 156.69 224.906 178.612 263.632C200.533 302.359 187.946 349.641 150.568 369.353Z" fill="url(#paint8_radial_112_884)"/>
</g>
<defs>
<filter id="filter0_f_112_884" x="-8.00006" y="-8" width="682.433" height="685.622" filterUnits="userSpaceOnUse" color-interpolation-filters="sRGB">
<feFlood flood-opacity="0" result="BackgroundImageFix"/>
<feBlend mode="normal" in="SourceGraphic" in2="BackgroundImageFix" result="shape"/>
<feGaussianBlur stdDeviation="4" result="effect1_foregroundBlur_112_884"/>
</filter>
<radialGradient id="paint0_radial_112_884" cx="0" cy="0" r="1" gradientUnits="userSpaceOnUse" gradientTransform="translate(241.561 417.453) rotate(50.3271) scale(89.129 84.0138)">
<stop offset="0.05" stop-color="white"/>
<stop offset="0.53" stop-color="#353571"/>
<stop offset="0.72" stop-color="#0D0D0D"/>
<stop offset="0.8" stop-color="#0D0D0D"/>
<stop offset="0.89" stop-color="#1E1E1E"/>
<stop offset="1" stop-color="#3B3D7B"/>
</radialGradient>
<linearGradient id="paint1_linear_112_884" x1="260.153" y1="381.367" x2="267.003" y2="394.903" gradientUnits="userSpaceOnUse">
<stop offset="0.02" stop-color="#5630CF"/>
<stop offset="0.26" stop-color="#1C1C1C"/>
<stop offset="0.62" stop-color="white"/>
<stop offset="1" stop-color="#532FAD"/>
</linearGradient>
<radialGradient id="paint2_radial_112_884" cx="0" cy="0" r="1" gradientUnits="userSpaceOnUse" gradientTransform="translate(346.245 357.642) rotate(46.3603) scale(115.141 108.467)">
<stop offset="0.05" stop-color="white"/>
<stop offset="0.53" stop-color="#353571"/>
<stop offset="0.72" stop-color="#0D0D0D"/>
<stop offset="0.8" stop-color="#0D0D0D"/>
<stop offset="0.89" stop-color="#1E1E1E"/>
<stop offset="1" stop-color="#3B3D7B"/>
</radialGradient>
<linearGradient id="paint3_linear_112_884" x1="376.03" y1="280.441" x2="389.557" y2="294.626" gradientUnits="userSpaceOnUse">
<stop offset="0.02" stop-color="#5630CF"/>
<stop offset="0.26" stop-color="#1C1C1C"/>
<stop offset="0.62" stop-color="white"/>
<stop offset="1" stop-color="#532FAD"/>
</linearGradient>
<linearGradient id="paint4_linear_112_884" x1="323.978" y1="468.834" x2="342.172" y2="464.037" gradientUnits="userSpaceOnUse">
<stop offset="0.02" stop-color="#5630CF"/>
<stop offset="0.26" stop-color="#1C1C1C"/>
<stop offset="0.62" stop-color="white"/>
<stop offset="1" stop-color="#532FAD"/>
</linearGradient>
<linearGradient id="paint5_linear_112_884" x1="203.715" y1="319.561" x2="198.06" y2="337.506" gradientUnits="userSpaceOnUse">
<stop offset="0.02" stop-color="#5630CF"/>
<stop offset="0.26" stop-color="#1C1C1C"/>
<stop offset="0.62" stop-color="white"/>
<stop offset="1" stop-color="#532FAD"/>
</linearGradient>
<radialGradient id="paint6_radial_112_884" cx="0" cy="0" r="1" gradientUnits="userSpaceOnUse" gradientTransform="translate(477.888 232.107) rotate(46.3603) scale(115.141 108.467)">
<stop offset="0.05" stop-color="white"/>
<stop offset="0.53" stop-color="#353571"/>
<stop offset="0.72" stop-color="#0D0D0D"/>
<stop offset="0.8" stop-color="#0D0D0D"/>
<stop offset="0.89" stop-color="#1E1E1E"/>
<stop offset="1" stop-color="#3B3D7B"/>
</radialGradient>
<radialGradient id="paint7_radial_112_884" cx="0" cy="0" r="1" gradientUnits="userSpaceOnUse" gradientTransform="translate(400.102 542.578) rotate(32.1938) scale(126.311 119.894)">
<stop offset="0.05" stop-color="white"/>
<stop offset="0.53" stop-color="#353571"/>
<stop offset="0.72" stop-color="#0D0D0D"/>
<stop offset="0.8" stop-color="#0D0D0D"/>
<stop offset="0.89" stop-color="#1E1E1E"/>
<stop offset="1" stop-color="#3B3D7B"/>
</radialGradient>
<radialGradient id="paint8_radial_112_884" cx="0" cy="0" r="1" gradientUnits="userSpaceOnUse" gradientTransform="translate(156.17 306.937) rotate(60.5269) scale(126.311 119.894)">
<stop offset="0.05" stop-color="white"/>
<stop offset="0.53" stop-color="#353571"/>
<stop offset="0.72" stop-color="#0D0D0D"/>
<stop offset="0.8" stop-color="#0D0D0D"/>
<stop offset="0.89" stop-color="#1E1E1E"/>
<stop offset="1" stop-color="#3B3D7B"/>
</radialGradient>
</defs>
</svg>
