<svg width="489" height="737" viewBox="0 0 489 737" fill="none" xmlns="http://www.w3.org/2000/svg">
<g filter="url(#filter0_f_112_731)">
<path d="M241.894 492.196C259.869 521.913 250.231 560.326 220.675 578.186C191.118 596.046 152.558 586.496 134.689 556.927C116.819 527.359 126.352 488.797 155.804 470.79C185.508 452.825 224.068 462.375 241.937 491.944L241.894 492.196Z" fill="#F8E861"/>
<path opacity="0.5" d="M219.366 470.158C223.401 473.966 227.055 478.489 230.223 483.579C248.197 513.295 238.559 551.709 209.003 569.568C188.988 581.769 164.628 581.266 145.545 570.348C165.511 589.089 196.163 593.133 220.779 578.334C250.336 560.474 259.868 521.913 241.999 492.344C236.189 482.903 228.476 475.479 219.471 470.306L219.366 470.158Z" fill="#766D1A"/>
<path opacity="0.5" d="M173.675 485.013C144.119 502.873 134.586 541.435 152.455 571.003C153.295 572.186 154.029 573.221 154.869 574.405C172.11 580.849 192.093 579.566 209.046 569.316C238.602 551.456 248.135 512.894 230.266 483.326C229.426 482.143 228.691 481.108 227.852 479.924C210.611 473.48 190.628 474.763 173.675 485.013Z" fill="#DEC82C"/>
<path opacity="0.5" d="M162.004 476.396C181.575 464.51 205.072 464.736 223.926 474.705C222.519 473.035 220.964 471.47 219.409 469.906C200.326 458.987 175.965 458.484 155.951 470.685C126.394 488.545 116.862 527.106 134.731 556.674C137.794 561.617 141.447 566.14 145.588 570.095C146.05 570.434 146.661 570.668 147.271 570.902C144.982 568.301 142.883 565.343 141.08 562.176C123.21 532.608 132.743 494.046 162.299 476.186L162.004 476.396Z" fill="#F2E14F"/>
<g style="mix-blend-mode:screen" opacity="0.5">
<path d="M220.362 497.246C235.816 509.628 243.897 527.909 243.886 546.373C245.092 544.627 246.341 542.629 247.295 540.841C250.244 519.625 242.405 497.615 224.428 483.243C197.537 461.633 157.925 465.949 136.329 492.835C134.045 495.568 132.076 498.744 130.402 501.71C129.931 504.491 129.859 507.21 129.893 510.077C130.613 508.899 131.438 507.869 132.411 506.734C154.154 479.742 193.513 475.384 220.51 497.142L220.362 497.246Z" fill="#FCEC65"/>
</g>
<g style="mix-blend-mode:overlay" opacity="0.5">
<path d="M224.428 483.243C242.3 497.467 250.244 519.625 247.295 540.841C248.396 538.947 249.245 537.011 250.241 534.97C253.93 513.23 245.967 490.418 227.675 475.603C200.678 453.845 161.171 458.308 139.576 485.195C135.938 489.778 133.015 494.742 130.703 499.941C130.617 500.446 130.488 501.205 130.402 501.71C132.224 498.639 134.045 495.568 136.329 492.835C158.073 465.844 197.432 461.486 224.428 483.243Z" fill="#F2E14F"/>
</g>
<g style="mix-blend-mode:multiply" opacity="0.5">
<path d="M221.849 493.078C221.849 493.078 172.441 489.225 162.626 523.317C152.492 558.525 184.542 574.251 184.542 574.251C184.542 574.251 134.028 573.85 132.208 525.555C131.251 499.774 154.143 469.077 187.509 474.753C206.214 477.934 221.849 493.078 221.849 493.078Z" fill="#A79700"/>
</g>
<path opacity="0.5" d="M173.675 485.014C190.628 474.763 210.611 473.481 227.852 479.925C226.593 478.15 225.333 476.375 223.778 474.81C204.924 464.841 181.427 464.615 161.856 476.501C132.299 494.361 122.767 532.922 140.636 562.491C142.587 565.553 144.686 568.511 146.828 571.216C149.332 572.552 151.879 573.636 154.425 574.719C153.586 573.536 152.851 572.501 152.012 571.318C134.142 541.749 143.675 503.188 173.232 485.328L173.675 485.014Z" fill="#FCEC65"/>
<path opacity="0.5" d="M125.651 526.651C127.068 532.093 129.287 537.412 132.454 542.503C150.324 572.071 188.883 581.621 218.44 563.761C238.707 551.604 249.435 529.761 248.592 507.9C255.807 534.356 245.185 563.239 220.674 578.186C191.117 596.046 152.558 586.496 134.688 556.927C128.878 547.486 126.106 537.001 125.651 526.651Z" fill="#766D1A"/>
<path opacity="0.5" d="M160.184 493.252C189.741 475.392 228.449 484.838 246.17 514.511C247.01 515.694 247.597 516.834 248.288 518.122C245.959 536.452 235.541 553.406 218.588 563.656C189.031 581.516 150.471 571.966 132.602 542.398C131.762 541.215 131.176 540.074 130.484 538.786C132.813 520.456 143.232 503.503 160.184 493.252Z" fill="#DEC82C"/>
<g style="mix-blend-mode:overlay" opacity="0.5">
<path d="M157.95 478.827C138.38 490.713 127.571 511.502 127.698 532.981C126.882 530.891 126.171 528.95 125.756 526.799C125.061 504.833 135.894 483.138 155.908 470.938C185.613 452.973 224.172 462.523 241.894 492.196C244.957 497.139 247.175 502.458 248.697 508.048C248.716 508.702 248.735 509.355 248.65 509.861C247.395 506.526 245.845 503.402 243.893 500.339C225.919 470.623 187.464 461.221 157.908 479.08L157.95 478.827Z" fill="#F2E14F"/>
</g>
<g style="mix-blend-mode:overlay" opacity="0.5">
<path d="M160.184 493.252C143.232 503.503 132.918 520.604 130.484 538.786C129.52 536.802 128.557 534.817 127.846 532.876C127.824 511.545 138.527 490.608 158.098 478.723C187.655 460.863 226.215 470.413 244.084 499.981C245.887 503.149 247.543 506.422 248.84 509.503C248.874 512.37 248.655 515.194 248.331 517.869C247.64 516.581 247.053 515.441 246.213 514.258C228.344 484.69 189.784 475.139 160.227 492.999L160.184 493.252Z" fill="#FCEC65"/>
</g>
<g style="mix-blend-mode:overlay" opacity="0.5">
<path d="M249.989 534.927C247.824 540.02 244.901 544.985 241.115 549.673C219.372 576.664 180.013 581.022 153.016 559.265C134.725 544.449 126.762 521.638 130.45 499.898C119.818 525.008 126.642 555.298 148.95 573.268C175.947 595.026 215.454 590.562 237.049 563.676C243.987 554.973 248.273 545.038 249.989 534.927Z" fill="#766D1A"/>
</g>
<g style="mix-blend-mode:overlay" opacity="0.4">
<path d="M220.362 497.247C193.366 475.489 153.859 479.952 132.263 506.839C131.438 507.869 130.465 509.004 129.745 510.182C129.734 528.646 137.815 546.926 153.269 559.308C180.266 581.066 219.773 576.602 241.368 549.716C242.341 548.581 243.166 547.551 243.886 546.373C243.897 527.909 235.816 509.628 220.362 497.247Z" fill="#AC9D0A"/>
</g>
<g style="mix-blend-mode:multiply" opacity="0.3">
<path d="M126.923 516.854C126.923 516.854 169.392 551.647 199.854 526.919C231.246 501.309 212.126 466.846 212.126 466.846C212.126 466.846 257.891 499.079 228.929 544.089C213.39 568.234 173.288 581.569 146.515 555.428C131.343 540.623 126.775 516.959 126.775 516.959L126.923 516.854Z" fill="#B0A10F"/>
</g>
<g style="mix-blend-mode:multiply" opacity="0.2">
<path d="M158.477 558.503C158.477 558.503 207.886 562.356 217.7 528.264C227.835 493.056 195.784 477.33 195.784 477.33C195.784 477.33 246.299 477.731 248.118 526.026C249.075 551.807 226.183 582.504 192.817 576.828C174.112 573.647 158.477 558.503 158.477 558.503Z" fill="#A79700"/>
</g>
<g style="mix-blend-mode:multiply" opacity="0.2">
<path d="M157.418 488.1C157.418 488.1 148.306 534.145 185.183 549.781C223.176 565.737 245.128 532.149 245.128 532.149C245.128 532.149 238.135 588.699 183.776 584.133C154.679 581.655 123.427 552.021 134.072 515.339C140.159 494.787 157.418 488.1 157.418 488.1Z" fill="#A79700"/>
</g>
<g style="mix-blend-mode:screen" opacity="0.5">
<path d="M248.427 521.137C248.427 521.137 205.958 486.344 175.348 511.177C143.956 536.787 163.076 571.249 163.076 571.249C163.076 571.249 117.312 539.017 146.273 494.007C161.812 469.861 201.914 456.526 228.687 482.667C243.86 497.472 248.427 521.137 248.427 521.137Z" fill="#B0A10F"/>
</g>
<g style="mix-blend-mode:multiply" opacity="0.2">
<path d="M165.52 484.797C165.52 484.797 160.189 527.714 189.454 537.634C219.73 547.725 234.73 520.627 234.73 520.627C234.73 520.627 232.6 564.609 190.388 564.321C167.797 564.12 142.126 542.977 148.322 514.122C151.868 497.819 165.625 484.944 165.625 484.944L165.52 484.797Z" fill="#B0A10F"/>
</g>
<g style="mix-blend-mode:overlay" opacity="0.5">
<path d="M206.166 574.028C206.166 574.028 211.496 531.11 182.231 521.19C152.103 510.994 136.956 538.197 136.956 538.197C136.956 538.197 139.086 494.215 181.403 494.651C203.994 494.852 229.665 515.995 223.469 544.85C219.923 561.153 206.166 574.028 206.166 574.028Z" fill="#F8E861"/>
</g>
<g style="mix-blend-mode:screen" opacity="0.5">
<path d="M215.633 478.366C215.472 483.15 203.095 477.924 187.838 477.409C172.582 476.895 159.777 481.089 160.192 476.348C160.353 471.564 173.124 464.503 188.38 465.018C203.742 465.68 215.9 473.73 215.738 478.514L215.633 478.366Z" fill="white"/>
</g>
<g style="mix-blend-mode:overlay" opacity="0.4">
<path d="M220.539 566.719C220.047 561.954 208.144 567.732 192.945 569.178C177.641 570.476 164.859 566.871 165.351 571.636C165.843 576.401 178.911 582.916 194.215 581.618C209.519 580.32 221.284 571.527 220.792 566.762L220.539 566.719Z" fill="#FEE078"/>
</g>
<path style="mix-blend-mode:overlay" opacity="0.3" d="M241.894 492.196C259.869 521.913 250.231 560.326 220.675 578.186C191.118 596.046 152.558 586.496 134.689 556.927C116.819 527.359 126.352 488.797 155.804 470.79C185.508 452.825 224.068 462.375 241.937 491.944L241.894 492.196Z" fill="url(#paint0_radial_112_731)"/>
<g style="mix-blend-mode:multiply" opacity="0.5">
<path d="M186.9 488.304C189.438 492.506 183.344 500.833 173.359 506.807C163.373 512.781 153.253 514.18 150.715 509.977C148.177 505.774 154.271 497.448 164.257 491.474C174.243 485.5 184.363 484.101 186.9 488.304Z" fill="#EEDE42"/>
</g>
<g style="mix-blend-mode:overlay" opacity="0.5">
<path d="M182.436 487.024C186.576 490.979 183.511 501.381 174.847 509.531C159.187 524.423 145.332 549.375 141.192 545.419C137.051 541.464 141.993 516.166 159.989 495.169C167.623 486.195 178.148 483.174 182.183 486.981L182.436 487.024Z" fill="#F8E861"/>
</g>
<g style="mix-blend-mode:multiply" opacity="0.4">
<path d="M165.163 491.498C165.163 491.498 169.118 501.144 176.863 497.65C184.755 494.051 180.29 485.879 180.29 485.879C180.29 485.879 190.907 494.577 182.434 502.369C177.827 506.527 170.492 506.839 166.466 499.913C164.138 496.005 165.163 491.498 165.163 491.498Z" fill="#766B00"/>
</g>
<g style="mix-blend-mode:multiply" opacity="0.3">
<path d="M188.055 489.93C189.434 494.066 184.718 499.636 177.293 502.014C169.972 504.54 162.642 503.293 161.263 499.157C159.884 495.022 164.6 489.452 171.92 486.926C179.241 484.4 186.571 485.647 187.95 489.782L188.055 489.93Z" fill="#E1D136"/>
</g>
<path d="M146.648 415.915C142.366 417.397 139.991 422.195 141.58 426.627L165.368 493.354C166.852 497.637 171.65 500.014 176.081 498.427C180.363 496.945 182.737 492.147 181.001 487.82L157.317 421.241C155.834 416.957 151.035 414.581 146.605 416.168L146.648 415.915Z" fill="url(#paint1_linear_112_731)"/>
<path d="M203.044 357.886C228.86 394.268 220.283 444.826 183.917 470.63C147.551 496.435 96.9972 487.835 71.1814 451.454C45.3656 415.072 53.9428 364.514 90.3086 338.709C126.674 312.905 177.229 321.504 203.044 357.886Z" fill="#F8E861"/>
<path opacity="0.5" d="M171.846 331.772C177.565 336.386 182.649 341.673 187.057 347.884C212.873 384.266 204.295 434.824 167.93 460.628C143.094 478.251 112.005 479.855 86.2447 467.67C113.704 489.767 153.612 492.134 183.769 470.735C220.135 444.931 228.712 394.373 202.897 357.991C194.606 346.308 183.884 337.461 171.846 331.772Z" fill="#766D1A"/>
<path opacity="0.5" d="M114.643 355.463C78.2774 381.267 69.7002 431.825 95.516 468.207C96.5654 469.686 97.6148 471.165 98.8121 472.539C121.743 479.171 147.191 475.567 168.035 460.776C204.4 434.972 212.978 384.414 187.162 348.032C186.112 346.553 185.063 345.074 184.014 343.595C161.083 336.964 135.635 340.568 114.791 355.358L114.643 355.463Z" fill="#DEC82C"/>
<path opacity="0.5" d="M98.6556 345.461C122.752 328.363 152.873 326.334 178.151 337.527C176.134 335.623 174.116 333.719 171.951 331.92C146.444 319.779 115.101 321.34 90.2658 338.962C53.9 364.767 45.3228 415.325 71.1386 451.706C75.5461 457.918 80.7357 463.352 86.3497 467.818C87.0651 468.2 87.7805 468.582 88.5388 468.711C85.324 465.433 82.2569 462.05 79.5284 458.205C53.7126 421.823 62.2898 371.265 98.6556 345.461Z" fill="#F2E14F"/>
<g style="mix-blend-mode:screen" opacity="0.5">
<path d="M175.685 366.627C196.886 381.157 208.874 404.003 210.575 427.7C212.015 425.344 213.245 422.692 214.58 420.188C216.389 392.667 204.056 364.951 179.722 348.197C142.915 322.95 92.5826 332.204 67.3543 369.006C64.7509 372.854 62.3574 376.999 60.5123 380.976C60.1647 384.558 60.3226 388.226 60.6283 391.79C61.539 390.254 62.4497 388.718 63.4653 387.331C88.6936 350.529 139.174 341.17 175.833 366.522L175.685 366.627Z" fill="#FCEC65"/>
</g>
<g style="mix-blend-mode:overlay" opacity="0.5">
<path d="M179.574 348.302C203.909 365.055 216.241 392.772 214.433 420.293C215.663 417.641 216.597 415.199 217.574 412.505C220.165 384.206 208.004 355.479 182.849 338.196C146.042 312.948 95.7097 322.202 70.4815 359.004C66.2903 365.314 62.8145 372.005 60.6026 378.911C60.474 379.669 60.4503 380.576 60.4694 381.229C62.3574 376.999 64.6031 372.959 67.3114 369.259C92.5397 332.457 143.02 323.098 179.679 348.45L179.574 348.302Z" fill="#F2E14F"/>
</g>
<g style="mix-blend-mode:multiply" opacity="0.5">
<path d="M177.282 361.046C177.282 361.046 113.237 360.686 103.939 405.529C94.2784 451.741 136.736 468.977 136.736 468.977C136.736 468.977 71.7711 473.271 64.8709 411.237C61.2797 377.986 87.6805 336.572 131.209 340.595C155.67 342.805 177.177 360.898 177.177 360.898L177.282 361.046Z" fill="#A79700"/>
</g>
<path opacity="0.5" d="M114.643 355.463C135.487 340.673 161.04 337.217 183.866 343.7C182.039 341.439 180.169 339.43 178.151 337.527C152.978 326.482 122.752 328.363 98.6556 345.461C62.2898 371.265 53.7126 421.823 79.5284 458.205C82.2569 462.05 85.1761 465.538 88.5388 468.711C91.8011 470.176 95.3591 471.431 98.7072 472.391C97.6577 470.912 96.4605 469.538 95.4111 468.059C69.5953 431.677 78.1725 381.119 114.538 355.315L114.643 355.463Z" fill="#FCEC65"/>
<path opacity="0.5" d="M56.6873 413.487C59.154 420.408 62.4647 426.953 66.8723 433.165C92.6881 469.547 143.242 478.146 179.608 452.342C204.443 434.719 216.371 405.798 213.229 377.565C225.019 410.78 214.074 449.232 183.917 470.63C147.551 496.435 96.9972 487.835 71.1814 451.454C62.891 439.77 58.2296 426.623 56.6873 413.487Z" fill="#766D1A"/>
<path opacity="0.5" d="M97.9386 367.316C134.304 341.512 184.859 350.111 210.674 386.493C211.724 387.972 212.773 389.451 213.823 390.93C212.51 414.764 200.705 437.594 179.861 452.385C143.495 478.189 92.9408 469.59 67.125 433.208C66.0756 431.729 65.0262 430.25 63.9767 428.771C65.2896 404.937 77.0948 382.107 97.9386 367.316Z" fill="#DEC82C"/>
<g style="mix-blend-mode:overlay" opacity="0.5">
<path d="M93.7773 348.923C69.6813 366.021 57.8196 393.783 60.0364 421.339C58.9058 418.806 57.7751 416.272 56.7923 413.634C53.7551 385.549 65.5784 356.48 90.4136 338.857C126.779 313.053 177.334 321.652 203.149 358.034C207.557 364.246 210.973 370.939 213.334 377.712C213.458 378.514 213.583 379.315 213.454 380.074C211.422 375.957 209.242 371.945 206.513 368.099C180.697 331.718 130.143 323.118 93.7773 348.923Z" fill="#F2E14F"/>
</g>
<g style="mix-blend-mode:overlay" opacity="0.5">
<path d="M97.9386 367.316C77.0948 382.107 65.3946 405.084 63.9768 428.771C62.4455 426.3 61.167 423.872 60.0364 421.339C57.9245 393.931 69.6812 366.021 93.7773 348.923C130.143 323.118 180.697 331.718 206.513 368.099C209.242 371.945 211.569 375.852 213.454 380.074C213.76 383.637 213.77 387.41 213.57 390.887C212.52 389.408 211.471 387.929 210.422 386.45C184.606 350.068 134.052 341.469 97.6858 367.273L97.9386 367.316Z" fill="#FCEC65"/>
</g>
<g style="mix-blend-mode:overlay" opacity="0.5">
<path d="M217.574 412.505C215.257 419.263 211.887 426.102 207.591 432.264C182.362 469.066 131.882 478.425 95.2229 453.072C70.1729 435.937 57.9074 407.062 60.4977 378.763C49.1042 412.197 60.6892 450.449 91.3339 471.397C128.141 496.644 178.473 487.39 203.702 450.588C211.807 438.833 216.398 425.569 217.617 412.252L217.574 412.505Z" fill="#766D1A"/>
</g>
<g style="mix-blend-mode:overlay" opacity="0.4">
<path d="M175.685 366.627C138.878 341.379 88.5458 350.634 63.3175 387.435C62.3019 388.823 61.2433 390.464 60.4805 391.895C62.1817 415.592 74.1698 438.438 95.3707 452.967C132.178 478.215 182.51 468.961 207.738 432.159C208.754 430.771 209.812 429.13 210.723 427.595C209.022 403.898 197.034 381.052 175.833 366.522L175.685 366.627Z" fill="#AC9D0A"/>
</g>
<g style="mix-blend-mode:multiply" opacity="0.3">
<path d="M57.42 400.737C57.42 400.737 115.404 441.42 152.365 406.744C190.298 370.933 162.541 328.369 162.541 328.369C162.541 328.369 224.392 365.419 191.465 426.139C173.857 458.646 123.365 479.576 86.385 448.448C65.5509 430.989 57.3771 400.99 57.3771 400.99L57.42 400.737Z" fill="#B0A10F"/>
</g>
<g style="mix-blend-mode:multiply" opacity="0.2">
<path d="M102.014 451.367C102.014 451.367 166.059 451.727 175.357 406.884C185.017 360.672 142.56 343.436 142.56 343.436C142.56 343.436 207.525 339.142 214.425 401.176C218.016 434.427 191.468 475.946 148.087 471.818C123.626 469.608 102.119 451.514 102.119 451.514L102.014 451.367Z" fill="#A79700"/>
</g>
<g style="mix-blend-mode:multiply" opacity="0.2">
<path d="M93.8267 360.895C93.8267 360.895 86.486 421.026 135.415 437.672C185.966 454.724 210.84 409.279 210.84 409.279C210.84 409.279 207.107 482.638 136.719 482.108C98.9326 481.793 56.0434 446.408 66.4047 398.364C72.3003 371.278 93.6788 361 93.6788 361L93.8267 360.895Z" fill="#A79700"/>
</g>
<g style="mix-blend-mode:screen" opacity="0.5">
<path d="M214.19 394.894C214.19 394.894 156.206 354.21 119.245 388.886C81.3121 424.698 109.175 467.41 109.175 467.41C109.175 467.41 47.3232 430.36 80.2502 369.639C97.858 337.133 148.351 316.202 185.33 347.331C206.164 364.789 214.443 394.937 214.443 394.937L214.19 394.894Z" fill="#B0A10F"/>
</g>
<g style="mix-blend-mode:multiply" opacity="0.2">
<path d="M104.041 355.87C104.041 355.87 101.35 411.591 139.972 421.542C179.858 431.707 196.549 395.404 196.549 395.404C196.549 395.404 197.712 452.17 143.54 455.699C114.472 457.647 79.2863 432.806 84.5175 395.073C87.4665 373.858 103.937 355.722 103.937 355.722L104.041 355.87Z" fill="#B0A10F"/>
</g>
<g style="mix-blend-mode:overlay" opacity="0.5">
<path d="M164.792 466.857C164.792 466.857 167.632 411.032 128.862 401.186C88.976 391.02 72.2844 427.323 72.2844 427.323C72.2844 427.323 71.0172 370.409 125.294 367.028C154.362 365.08 189.548 389.922 184.316 427.654C181.367 448.87 164.792 466.857 164.792 466.857Z" fill="#F8E861"/>
</g>
<g style="mix-blend-mode:screen" opacity="0.5">
<path d="M167.789 342.656C167.918 348.79 151.707 343.172 131.958 343.844C112.209 344.515 96.3625 351.313 96.1279 345.031C95.9983 338.897 111.687 328.431 131.436 327.76C151.185 327.088 167.554 336.374 167.832 342.403L167.789 342.656Z" fill="white"/>
</g>
<g style="mix-blend-mode:overlay" opacity="0.4">
<path d="M182.632 455.977C181.701 449.967 166.713 458.601 147.189 461.782C127.664 464.963 110.71 461.429 111.745 467.587C112.781 473.745 130.189 480.737 149.714 477.556C169.238 474.376 183.563 461.987 182.632 455.977Z" fill="#FEE078"/>
</g>
<path style="mix-blend-mode:overlay" opacity="0.3" d="M203.044 357.886C228.86 394.268 220.283 444.826 183.917 470.63C147.551 496.435 96.9972 487.835 71.1814 451.454C45.3656 415.072 53.9428 364.514 90.3086 338.709C126.674 312.905 177.229 321.504 203.044 357.886Z" fill="url(#paint2_radial_112_731)"/>
<g style="mix-blend-mode:multiply" opacity="0.5">
<path d="M112.318 336.211C115.447 339.995 108.714 350.553 97.5178 359.832C86.3212 369.111 74.5278 373.477 71.3987 369.694C68.2696 365.911 74.8971 355.204 86.1987 346.073C97.3953 336.794 109.189 332.428 112.318 336.211Z" fill="#FEDF29"/>
</g>
<g style="mix-blend-mode:overlay" opacity="0.5">
<path d="M108.522 337.126C112.514 341.186 109.048 351.65 100.217 359.251C83.9898 373.656 69.2089 397.931 65.3644 393.766C61.372 389.705 67.2201 364.432 86.0983 344.365C94.1951 335.729 104.677 332.961 108.67 337.021L108.522 337.126Z" fill="#F8E861"/>
</g>
<g style="mix-blend-mode:multiply" opacity="0.2">
<path d="M82.2785 346.186C82.2785 346.186 92.2707 352.438 98.1263 346.281C104.13 340.02 99.1975 333.069 99.1975 333.069C99.1975 333.069 109.824 338.648 104.799 349.107C102.148 354.768 93.9599 358.577 87.4827 353.834C83.7815 351.124 82.1306 346.291 82.1306 346.291L82.2785 346.186Z" fill="#A79700"/>
</g>
<g style="mix-blend-mode:multiply" opacity="0.3">
<path d="M106.328 337.793C108.723 340.541 105.457 347.528 98.7379 353.408C92.019 359.287 84.6987 361.813 82.3042 359.065C79.9097 356.317 83.3234 349.225 89.8944 343.451C96.6133 337.571 103.934 335.045 106.328 337.793Z" fill="#B0A10F"/>
</g>
<g style="mix-blend-mode:multiply" opacity="0.5">
<path d="M205.948 388.29C201.017 388.231 199.578 397.48 199.304 412.128C199.029 426.776 192.989 445.515 195.307 445.649C200.196 445.961 210.136 426.455 210.411 411.807C210.685 397.158 210.88 388.349 205.948 388.29Z" fill="#CABA34"/>
</g>
<g style="mix-blend-mode:multiply" opacity="0.2">
<path d="M213.453 409.203C213.453 409.203 202.274 405.351 203.436 396.966C204.642 388.328 213.135 388.082 213.135 388.082C213.135 388.082 202.128 383.219 196.997 393.53C194.242 399.043 196.365 407.987 204.072 410.078C208.432 411.21 213.41 409.456 213.41 409.456L213.453 409.203Z" fill="#857900"/>
</g>
<g style="mix-blend-mode:multiply" opacity="0.3">
<path d="M201.775 388.36C198.442 389.614 199.492 397.985 198.898 406.857C198.45 415.624 197.44 422.344 198.599 422.411C200.116 422.669 208.656 413.719 209.251 404.847C209.698 396.08 207.198 386.292 201.923 388.256L201.775 388.36Z" fill="#5C560F"/>
</g>
<g style="mix-blend-mode:multiply" opacity="0.5">
<path d="M127.303 473.224C129.234 468.741 119.985 460.406 106.536 454.607C93.0857 448.808 80.7812 447.755 78.7025 452.343C76.7716 456.826 86.0202 465.161 99.47 470.96C112.92 476.759 125.224 477.812 127.303 473.224Z" fill="#D7C950"/>
</g>
<g style="mix-blend-mode:multiply" opacity="0.5">
<path d="M123.426 473.085C126.096 468.077 119.947 459.099 109.383 453.92C89.8945 444.624 69.0029 425.205 66.3329 430.212C63.6629 435.22 76.1994 457.899 99.6561 472.162C109.796 478.309 120.756 478.092 123.321 472.937L123.426 473.085Z" fill="#F8E545"/>
</g>
<g style="mix-blend-mode:multiply" opacity="0.2">
<path d="M95.5689 471.727C95.5689 471.727 103.561 462.943 110.777 467.162C118.351 471.571 115.314 479.508 115.314 479.508C115.314 479.508 124.022 471.105 116.375 462.522C112.216 457.914 103.369 456.409 98.5245 462.737C95.8162 466.438 95.6118 471.475 95.6118 471.475L95.5689 471.727Z" fill="#A79700"/>
</g>
<g style="mix-blend-mode:multiply" opacity="0.3">
<path d="M126.707 475.203C128.319 471.836 123.172 466.149 115.112 462.307C107.051 458.465 99.4443 458.082 97.7279 461.301C96.1164 464.668 101.368 470.503 109.323 474.197C117.384 478.039 124.991 478.423 126.602 475.056L126.707 475.203Z" fill="#C7B50C"/>
</g>
<path d="M31.7079 256.438C36.5862 252.976 43.411 254.137 46.8741 259.018L100.395 334.443C103.858 339.324 102.7 346.149 97.8216 349.611C92.9432 353.072 86.1184 351.911 82.6553 347.031L29.1347 271.605C25.6716 266.725 26.8296 259.899 31.7079 256.438Z" fill="url(#paint3_linear_112_731)"/>
<path d="M201.701 399.531C201.023 393.564 205.548 388.352 211.514 387.676L303.467 379.13C309.538 378.602 314.646 382.982 315.324 388.949C316.002 394.917 311.477 400.129 305.511 400.805L213.558 409.351C207.592 410.027 202.379 405.499 201.701 399.531Z" fill="url(#paint4_linear_112_731)"/>
<path d="M63.2765 567.797C68.8329 570.303 75.2042 568.006 77.7072 562.45L116.139 478.477C118.747 473.069 116.195 466.653 110.786 464.042C105.23 461.537 98.9635 463.982 96.3556 469.39L57.9235 553.362C55.4205 558.919 57.8679 565.187 63.2765 567.797Z" fill="url(#paint5_linear_112_731)"/>
<path d="M80.157 184.703C105.973 221.085 97.3955 271.643 61.0297 297.447C24.6639 323.252 -25.8902 314.652 -51.706 278.27C-77.5218 241.889 -69.0925 191.435 -32.7267 165.631C3.63915 139.827 54.1933 148.426 80.0091 184.808L80.157 184.703Z" fill="#F8E861"/>
<path opacity="0.5" d="M48.9582 158.589C54.6771 163.203 59.7618 168.49 64.1693 174.701C89.9852 211.083 81.4079 261.641 45.0421 287.445C20.207 305.068 -10.8829 306.672 -36.6428 294.487C-9.18364 316.584 30.7249 318.951 60.8819 297.552C97.2477 271.748 105.825 221.19 80.0091 184.808C71.7187 173.124 60.9964 164.278 48.9582 158.589Z" fill="#766D1A"/>
<path opacity="0.5" d="M-8.34919 182.132C-44.715 207.936 -53.2922 258.494 -27.4764 294.876C-26.427 296.355 -25.3776 297.834 -24.1803 299.208C-1.24934 305.839 24.1983 302.236 45.0421 287.445C81.4079 261.641 89.9852 211.083 64.1694 174.701C63.1199 173.222 62.0705 171.743 61.0211 170.264C38.0901 163.633 12.6425 167.237 -8.20136 182.027L-8.34919 182.132Z" fill="#DEC82C"/>
<path opacity="0.5" d="M-24.2318 172.278C-0.135799 155.18 29.9858 153.151 55.2639 164.343C53.2463 162.44 51.2287 160.536 49.0632 158.737C23.4511 146.448 -7.89145 148.008 -32.7266 165.631C-69.0924 191.435 -77.6697 241.993 -51.8539 278.375C-47.4463 284.587 -42.2567 290.021 -36.6428 294.487C-35.9273 294.869 -35.2119 295.251 -34.4536 295.38C-37.6684 292.102 -40.7355 288.719 -43.464 284.874C-69.2798 248.492 -60.7026 197.934 -24.3368 172.13L-24.2318 172.278Z" fill="#F2E14F"/>
<g style="mix-blend-mode:screen" opacity="0.5">
<path d="M52.7976 193.443C73.9985 207.973 85.9867 230.819 87.6879 254.516C89.1278 252.16 90.4628 249.657 91.6929 247.005C93.5012 219.483 81.169 191.767 56.8345 175.014C20.0274 149.767 -30.3049 159.021 -55.5332 195.823C-58.1366 199.671 -60.5301 203.816 -62.3752 207.793C-62.6178 211.523 -62.5649 215.043 -62.2592 218.606C-61.3485 217.071 -60.4378 215.535 -59.4222 214.147C-34.1939 177.345 16.2862 167.986 52.9455 193.338L52.7976 193.443Z" fill="#FCEC65"/>
</g>
<g style="mix-blend-mode:overlay" opacity="0.5">
<path d="M56.6866 175.119C81.0212 191.872 93.3534 219.588 91.5451 247.11C92.7751 244.458 93.7095 242.016 94.6868 239.322C97.2772 211.023 85.1165 182.296 59.9616 165.012C23.1545 139.765 -27.1777 149.019 -52.406 185.821C-56.7021 191.983 -60.0729 198.822 -62.2848 205.728C-62.4135 206.486 -62.4372 207.392 -62.418 208.046C-60.4251 203.963 -58.1794 199.924 -55.576 196.075C-30.3477 159.274 20.1323 149.915 56.7916 175.267L56.6866 175.119Z" fill="#F2E14F"/>
</g>
<g style="mix-blend-mode:multiply" opacity="0.5">
<path d="M54.3945 187.863C54.3945 187.863 -9.65038 187.502 -18.9486 232.346C-28.609 278.558 13.8484 295.793 13.8484 295.793C13.8484 295.793 -51.1163 300.088 -58.0166 238.054C-61.6077 204.803 -35.2069 163.389 8.32163 167.412C32.7829 169.622 54.2896 187.715 54.2896 187.715L54.3945 187.863Z" fill="#A79700"/>
</g>
<path opacity="0.5" d="M-8.3492 182.132C12.4946 167.341 38.0472 163.885 60.8733 170.369C59.0463 168.108 57.1766 166.099 55.1589 164.195C29.9858 153.151 -0.240766 155.032 -24.3368 172.13C-60.7026 197.934 -69.2798 248.492 -43.464 284.874C-40.7355 288.719 -37.8163 292.207 -34.4536 295.38C-31.1913 296.845 -27.6334 298.1 -24.2853 299.06C-25.3347 297.581 -26.5319 296.207 -27.5814 294.728C-53.3972 258.346 -44.8199 207.788 -8.45414 181.984L-8.3492 182.132Z" fill="#FCEC65"/>
<path opacity="0.5" d="M-66.2001 240.303C-63.7335 247.225 -60.4228 253.77 -56.0152 259.982C-30.1994 296.363 20.3548 304.963 56.7206 279.158C81.5558 261.536 93.484 232.615 90.3419 204.381C102.131 237.597 91.1868 276.048 61.0298 297.447C24.6639 323.252 -25.8902 314.652 -51.706 278.27C-59.9965 266.587 -64.6578 253.44 -66.2001 240.303Z" fill="#766D1A"/>
<path opacity="0.5" d="M-25.0538 193.985C11.312 168.181 61.8662 176.78 87.682 213.162C88.7314 214.641 89.7808 216.12 90.8302 217.599C89.5174 241.433 77.7122 264.263 56.8684 279.054C20.5026 304.858 -30.0515 296.259 -55.8674 259.877C-56.9168 258.398 -57.9662 256.919 -59.0156 255.44C-57.7027 231.605 -45.8976 208.775 -25.0538 193.985Z" fill="#DEC82C"/>
<g style="mix-blend-mode:overlay" opacity="0.5">
<path d="M-29.1102 175.739C-53.2062 192.837 -65.0679 220.599 -62.8511 248.155C-63.9817 245.622 -65.1124 243.089 -66.0952 240.451C-69.2373 212.218 -57.414 183.149 -32.7266 165.631C3.78699 139.722 54.1933 148.426 80.0091 184.808C84.4167 191.019 87.8324 197.712 90.1941 204.486C90.3182 205.288 90.4423 206.089 90.3136 206.847C88.2814 202.73 86.1013 198.718 83.3728 194.873C57.557 158.491 7.00285 149.892 -29.363 175.696L-29.1102 175.739Z" fill="#F2E14F"/>
</g>
<g style="mix-blend-mode:overlay" opacity="0.5">
<path d="M-25.0538 193.985C-45.8976 208.775 -57.5978 231.753 -59.0156 255.44C-60.5469 252.969 -61.8253 250.541 -62.956 248.007C-65.0679 220.599 -53.3112 192.69 -29.2151 175.591C7.15069 149.787 57.7049 158.386 83.5207 194.768C86.2492 198.613 88.5771 202.521 90.4615 206.742C90.7672 210.306 90.7773 214.079 90.5775 217.556C89.5281 216.077 88.4786 214.598 87.4292 213.119C61.6134 176.737 11.0592 168.138 -25.3066 193.942L-25.0538 193.985Z" fill="#FCEC65"/>
</g>
<g style="mix-blend-mode:overlay" opacity="0.5">
<path d="M94.5818 239.174C92.265 245.932 88.8942 252.771 84.703 259.08C59.4747 295.882 8.9947 305.241 -27.6646 279.889C-52.7146 262.754 -64.9802 233.879 -62.3898 205.58C-73.7833 239.013 -62.1983 277.266 -31.5536 298.214C5.25353 323.461 55.5857 314.207 80.814 277.405C88.9199 265.649 93.5107 252.386 94.7297 239.069L94.5818 239.174Z" fill="#766D1A"/>
</g>
<g style="mix-blend-mode:overlay" opacity="0.4">
<path d="M52.7976 193.443C15.9905 168.196 -34.3417 177.45 -59.57 214.252C-60.4807 215.788 -61.6441 217.28 -62.407 218.711C-60.7058 242.408 -48.7176 265.254 -27.5167 279.784C9.29038 305.031 59.6226 295.777 84.8509 258.975C85.8665 257.588 86.9251 255.947 87.8357 254.411C86.1345 230.714 74.1464 207.868 52.9455 193.338L52.7976 193.443Z" fill="#AC9D0A"/>
</g>
<g style="mix-blend-mode:multiply" opacity="0.3">
<path d="M-65.4675 227.554C-65.4675 227.554 -7.48317 268.237 29.4775 233.561C67.4109 197.75 39.5483 155.038 39.5483 155.038C39.5483 155.038 101.4 192.088 68.4728 252.808C50.865 285.315 0.477211 306.393 -36.6074 275.117C-57.4415 257.658 -65.6153 227.659 -65.6153 227.659L-65.4675 227.554Z" fill="#B0A10F"/>
</g>
<g style="mix-blend-mode:multiply" opacity="0.2">
<path d="M-20.8735 278.183C-20.8735 278.183 43.1714 278.544 52.4696 233.701C62.13 187.488 19.6726 170.253 19.6726 170.253C19.6726 170.253 84.6373 165.959 91.5376 227.992C95.1287 261.244 68.5801 302.763 25.1994 298.635C0.738105 296.424 -20.7686 278.331 -20.7686 278.331L-20.8735 278.183Z" fill="#A79700"/>
</g>
<g style="mix-blend-mode:multiply" opacity="0.2">
<path d="M-29.0608 187.712C-29.0608 187.712 -36.4014 247.843 12.5276 264.489C63.0782 281.54 87.9523 236.095 87.9523 236.095C87.9523 236.095 84.2191 309.454 13.8312 308.925C-23.9548 308.609 -66.844 273.225 -56.4828 225.181C-50.5872 198.094 -29.2086 187.817 -29.2086 187.817L-29.0608 187.712Z" fill="#A79700"/>
</g>
<g style="mix-blend-mode:screen" opacity="0.5">
<path d="M91.303 221.71C91.303 221.71 33.3187 181.027 -3.64203 215.703C-41.5755 251.514 -13.7128 294.226 -13.7128 294.226C-13.7128 294.226 -75.5643 257.176 -42.6373 196.456C-25.0295 163.949 25.3583 142.871 62.4429 174.147C83.277 191.606 91.4508 221.605 91.4508 221.605L91.303 221.71Z" fill="#B0A10F"/>
</g>
<g style="mix-blend-mode:multiply" opacity="0.2">
<path d="M-18.846 182.687C-18.846 182.687 -21.5374 238.407 17.0846 248.358C56.9704 258.524 73.662 222.221 73.662 222.221C73.662 222.221 74.8242 278.987 20.652 282.516C-8.41566 284.464 -43.6012 259.622 -38.3701 221.89C-35.421 200.674 -18.951 182.539 -18.951 182.539L-18.846 182.687Z" fill="#B0A10F"/>
</g>
<g style="mix-blend-mode:overlay" opacity="0.5">
<path d="M41.9049 293.674C41.9049 293.674 44.7441 237.848 5.97431 228.002C-33.9115 217.837 -50.6031 254.14 -50.6031 254.14C-50.6031 254.14 -51.7653 197.374 2.40686 193.845C31.4745 191.897 66.6601 216.738 61.4289 254.471C58.4799 275.686 41.9049 293.674 41.9049 293.674Z" fill="#F8E861"/>
</g>
<g style="mix-blend-mode:screen" opacity="0.5">
<path d="M44.9012 169.473C45.0309 175.607 28.8197 169.988 9.07082 170.66C-10.6781 171.332 -26.525 178.13 -26.7596 171.848C-26.8892 165.714 -11.2003 155.248 8.54868 154.576C28.2976 153.904 44.6666 163.191 44.9441 169.22L44.9012 169.473Z" fill="white"/>
</g>
<g style="mix-blend-mode:overlay" opacity="0.4">
<path d="M59.7448 282.794C58.709 276.636 43.8257 285.418 24.3013 288.599C4.77687 291.78 -12.073 288.393 -11.1422 294.403C-10.2113 300.414 7.302 307.554 26.8264 304.373C46.3508 301.192 60.6756 288.804 59.7448 282.794Z" fill="#FEE078"/>
</g>
<path style="mix-blend-mode:overlay" opacity="0.3" d="M80.157 184.703C105.973 221.085 97.3955 271.643 61.0297 297.447C24.6639 323.252 -25.8902 314.652 -51.706 278.27C-77.5218 241.889 -69.0925 191.435 -32.7267 165.631C3.63915 139.827 54.1933 148.426 80.0091 184.808L80.157 184.703Z" fill="url(#paint6_radial_112_731)"/>
<path d="M420.764 315.465C458.607 346.871 463.923 402.913 432.538 440.748C401.153 478.584 345.121 483.877 307.278 452.472C269.435 421.066 264.119 365.024 295.504 327.189C326.889 289.354 382.921 284.06 420.764 315.465Z" fill="#F8E861"/>
<path opacity="0.5" d="M380.271 296.613C387.659 299.821 394.475 304.101 400.971 309.498C438.814 340.903 444.13 396.945 412.745 434.781C391.469 460.551 358.73 471.107 328.083 465.504C363.506 481.283 406.651 472.237 432.643 440.896C464.028 403.061 458.712 347.019 420.869 315.613C408.802 305.498 394.784 299.212 380.271 296.613Z" fill="#766D1A"/>
<path opacity="0.5" d="M326.052 337.977C294.667 375.812 299.983 431.855 337.826 463.26C339.424 464.572 340.917 465.736 342.557 466.796C368.731 467.347 394.916 456.326 412.893 434.676C444.278 396.84 438.962 340.798 401.119 309.393C399.521 308.081 398.028 306.916 396.388 305.857C370.215 305.306 344.029 316.327 326.052 337.977Z" fill="#DEC82C"/>
<path opacity="0.5" d="M306.302 331.757C327.049 306.806 358.524 296.035 388.437 300.603C385.828 299.119 382.966 297.592 380.166 296.466C349.519 290.862 316.78 301.418 295.504 327.189C264.119 365.024 269.435 421.066 307.278 452.472C313.774 457.868 320.738 462.044 327.978 465.356C328.736 465.485 329.747 465.657 330.506 465.786C326.108 463.347 321.944 460.298 317.928 457.144C280.085 425.739 274.769 369.697 306.154 331.861L306.302 331.757Z" fill="#F2E14F"/>
<g style="mix-blend-mode:screen" opacity="0.5">
<path d="M394.202 332.534C420.835 341.876 440.057 362.701 448.583 387.559C449.351 384.569 450.118 381.578 450.633 378.545C444.629 348.784 423.798 322.874 393.145 311.938C346.787 295.469 295.99 319.729 279.543 366.087C277.927 371.014 276.563 375.984 275.749 380.787C276.517 384.689 277.538 388.634 278.855 392.369C279.303 390.495 280.004 388.663 280.6 386.684C297.046 340.325 347.844 316.066 394.202 332.534Z" fill="#FCEC65"/>
</g>
<g style="mix-blend-mode:overlay" opacity="0.5">
<path d="M393.145 311.938C423.798 322.874 444.777 348.679 450.633 378.545C451.147 375.512 451.557 372.33 451.671 369.359C446.492 338.568 425.075 311.517 393.559 300.304C347.2 283.836 296.403 308.095 279.956 354.454C277.172 362.433 275.547 370.479 275.123 378.34C275.248 379.141 275.477 380.09 275.601 380.892C276.458 375.836 277.674 370.971 279.395 366.192C295.842 319.834 346.639 295.574 392.998 312.043L393.145 311.938Z" fill="#F2E14F"/>
</g>
<g style="mix-blend-mode:multiply" opacity="0.5">
<path d="M394.368 326.19C394.368 326.19 326.33 344.006 328.965 394.391C331.743 446.23 381.925 452.425 381.925 452.425C381.925 452.425 314.144 475.617 289.231 411.69C275.8 377.415 292.242 325.724 339.641 317.661C366.272 313.218 394.368 326.19 394.368 326.19Z" fill="#A79700"/>
</g>
<path opacity="0.5" d="M326.052 337.977C344.029 316.327 370.214 305.306 396.388 305.857C393.822 304.12 391.256 302.383 388.542 300.751C358.629 296.183 327.049 306.806 306.407 331.904C275.022 369.74 280.338 425.782 318.181 457.187C322.154 460.594 326.361 463.39 330.758 465.829C334.698 466.369 338.785 466.804 342.662 466.944C341.022 465.884 339.424 464.572 337.931 463.408C300.088 432.003 294.772 375.96 326.157 338.125L326.052 337.977Z" fill="#FCEC65"/>
<path opacity="0.5" d="M281.167 416.3C285.784 422.807 291.246 428.938 297.637 434.186C335.48 465.592 391.512 460.298 422.897 422.463C444.173 396.693 448.551 362.456 437.339 333.5C459.354 365.464 458.53 409.408 432.538 440.748C401.153 478.584 345.121 483.877 307.278 452.472C295.063 442.461 286.396 429.933 281.062 416.152L281.167 416.3Z" fill="#766D1A"/>
<path opacity="0.5" d="M311.671 355.297C343.056 317.462 399.088 312.168 436.931 343.574C438.529 344.886 439.874 346.155 441.324 347.572C446.602 373.178 440.726 400.918 422.749 422.568C391.364 460.403 335.332 465.697 297.489 434.291C295.891 432.979 294.546 431.71 293.096 430.293C287.818 404.687 293.694 376.947 311.671 355.297Z" fill="#DEC82C"/>
<g style="mix-blend-mode:overlay" opacity="0.5">
<path d="M302.03 337.012C281.283 361.962 276.719 394.997 286.814 423.633C284.735 421.328 282.951 418.814 281.167 416.3C269.85 387.196 274.228 352.959 295.609 327.337C326.994 289.501 383.026 284.208 420.869 315.613C427.365 321.01 432.827 327.14 437.339 333.5C437.716 334.344 437.988 335.041 438.217 335.99C435.088 332.207 431.411 328.59 427.29 325.288C389.447 293.883 333.415 299.176 302.03 337.012Z" fill="#F2E14F"/>
</g>
<g style="mix-blend-mode:overlay" opacity="0.5">
<path d="M311.671 355.297C293.694 376.947 287.818 404.687 293.096 430.293C290.869 428.094 288.641 425.894 286.709 423.485C276.614 394.849 281.283 361.962 301.925 336.864C333.31 299.029 389.342 293.735 427.185 325.14C431.158 328.547 434.731 332.016 438.112 335.842C439.429 339.577 440.598 343.417 441.367 347.319C439.917 345.902 438.424 344.738 436.974 343.321C399.131 311.915 343.099 317.209 311.714 355.044L311.671 355.297Z" fill="#FCEC65"/>
</g>
<g style="mix-blend-mode:overlay" opacity="0.5">
<path d="M451.819 369.254C451.248 377.219 449.623 385.265 446.986 393.14C430.539 439.498 379.742 463.758 333.384 447.289C301.867 436.076 280.703 409.069 275.376 378.383C272.84 417.094 296.018 454.458 334.398 468.139C380.756 484.607 431.553 460.347 448 413.989C453.249 399.147 454.411 383.869 451.924 369.402L451.819 369.254Z" fill="#766D1A"/>
</g>
<g style="mix-blend-mode:overlay" opacity="0.4">
<path d="M394.202 332.534C347.844 316.066 297.046 340.325 280.6 386.684C279.899 388.515 279.303 390.495 278.855 392.369C287.276 417.079 306.646 437.8 333.236 447.394C379.594 463.863 430.392 439.603 446.839 393.245C447.539 391.413 448.135 389.434 448.583 387.559C440.162 362.849 420.792 342.129 394.202 332.534Z" fill="#AC9D0A"/>
</g>
<g style="mix-blend-mode:multiply" opacity="0.3">
<path d="M278.298 402.548C278.298 402.548 351.518 429.307 380.76 381.874C410.914 332.906 369.274 295.523 369.274 295.523C369.274 295.523 445.564 317.213 427.814 391.179C418.363 430.795 370.796 467.438 322.643 444.682C295.557 431.882 278.193 402.4 278.193 402.4L278.298 402.548Z" fill="#B0A10F"/>
</g>
<g style="mix-blend-mode:multiply" opacity="0.2">
<path d="M340.117 443.623C340.117 443.623 408.304 425.702 405.521 375.423C402.743 323.583 352.561 317.388 352.561 317.388C352.561 317.388 420.341 294.197 445.255 358.124C458.685 392.399 442.244 444.09 394.844 452.152C368.214 456.595 340.117 443.623 340.117 443.623Z" fill="#A79700"/>
</g>
<g style="mix-blend-mode:multiply" opacity="0.2">
<path d="M305.618 349.586C305.618 349.586 314.951 415.675 371.695 419.215C430.103 422.908 443.773 367.625 443.773 367.625C443.773 367.625 460.677 446.575 385.847 466.097C345.711 476.565 289.937 451.213 287.292 397.055C285.695 366.614 305.723 349.734 305.723 349.734L305.618 349.586Z" fill="#A79700"/>
</g>
<g style="mix-blend-mode:screen" opacity="0.5">
<path d="M443.103 351.646C443.103 351.646 369.883 324.886 340.641 372.319C310.488 421.288 352.276 458.566 352.276 458.566C352.276 458.566 275.881 436.728 293.735 362.91C303.187 323.294 350.754 286.651 398.906 309.406C425.992 322.207 443.208 351.794 443.208 351.794L443.103 351.646Z" fill="#B0A10F"/>
</g>
<g style="mix-blend-mode:multiply" opacity="0.2">
<path d="M315.189 341.461C315.189 341.461 328.017 401.512 372.169 401.09C417.376 400.587 424.752 357.107 424.752 357.107C424.752 357.107 442.259 417.174 385.576 436.271C355.24 446.456 310.799 430.183 305.609 388.727C302.706 365.216 315.189 341.461 315.189 341.461Z" fill="#B0A10F"/>
</g>
<g style="mix-blend-mode:overlay" opacity="0.5">
<path d="M411.249 442.069C411.249 442.069 398.421 382.018 354.416 382.335C309.209 382.838 301.833 426.317 301.833 426.317C301.833 426.317 284.326 366.251 341.009 347.154C371.344 336.969 415.786 353.241 420.976 394.697C423.879 418.209 411.397 441.964 411.397 441.964L411.249 442.069Z" fill="#F8E861"/>
</g>
<g style="mix-blend-mode:screen" opacity="0.5">
<path d="M379.033 309.277C381.037 315.86 362.18 314.343 341.444 320.829C320.604 327.167 305.755 338.816 303.603 332.338C301.704 325.903 315.279 310.266 336.12 303.928C356.96 297.59 377.029 302.694 379.033 309.277Z" fill="white"/>
</g>
<g style="mix-blend-mode:overlay" opacity="0.4">
<path d="M426.956 425.364C424.108 419.158 410.77 432.624 391.061 441.495C371.203 450.472 352.318 451.42 355.018 457.732C357.866 463.938 378.364 466.515 398.222 457.538C418.079 448.562 429.699 431.423 426.851 425.216L426.956 425.364Z" fill="#FEE078"/>
</g>
<path style="mix-blend-mode:overlay" opacity="0.3" d="M420.764 315.465C458.607 346.871 463.923 402.913 432.538 440.748C401.153 478.584 345.121 483.877 307.278 452.472C269.435 421.066 264.119 365.024 295.504 327.189C326.889 289.354 382.921 284.06 420.764 315.465Z" fill="url(#paint7_radial_112_731)"/>
<path d="M125.893 581.179C143.039 627.27 119.54 678.411 73.4626 695.541C27.3856 712.671 -23.7573 689.147 -40.9042 643.056C-58.0511 596.965 -34.5513 545.825 11.5257 528.694C57.6027 511.564 108.746 535.089 125.893 581.179Z" fill="#F8E861"/>
<path opacity="0.5" d="M100.372 544.588C104.99 551.095 108.973 558.275 111.817 566.041C128.964 612.132 105.464 663.272 59.3867 680.403C28.036 691.975 -5.7258 684.802 -29.355 664.657C-6.45387 695.992 35.1494 709.831 73.4626 695.541C119.54 678.411 143.039 627.27 125.893 581.18C120.33 566.449 111.514 554.026 100.267 544.44L100.372 544.588Z" fill="#766D1A"/>
<path opacity="0.5" d="M32.7185 553.236C-13.3585 570.367 -36.8583 621.507 -19.7114 667.598C-19.0006 669.539 -18.2468 671.228 -17.3881 673.065C5.03836 686.503 33.1625 690.116 59.5345 680.298C105.612 663.167 129.111 612.027 111.964 565.936C111.254 563.995 110.5 562.306 109.641 560.469C87.2146 547.031 59.0905 543.418 32.7185 553.236Z" fill="#DEC82C"/>
<path opacity="0.5" d="M18.6426 538.098C49.0443 526.754 81.7329 533.355 105.429 552.34C103.94 549.616 102.156 547.102 100.372 544.588C76.6382 524.295 42.8764 517.122 11.6306 528.842C-34.4464 545.973 -57.9462 597.113 -40.7993 643.204C-37.8508 651.118 -33.8676 658.298 -29.2501 664.805C-28.5776 665.44 -28.01 665.926 -27.1896 666.456C-29.7274 662.253 -31.9266 657.587 -33.6824 652.607C-50.8293 606.516 -27.3295 555.376 18.7475 538.246L18.6426 538.098Z" fill="#F2E14F"/>
<g style="mix-blend-mode:screen" opacity="0.5">
<path d="M94.2972 582.697C112.633 604.152 118.875 631.743 113.995 657.441C116.193 655.214 118.391 652.987 120.232 650.57C129.904 621.915 124.711 588.911 103.666 564.264C71.7836 526.851 15.5691 522.49 -21.826 554.361C-25.7982 557.847 -29.3698 561.271 -32.5216 565.286C-33.8183 569.097 -34.8622 572.951 -35.6533 576.847C-34.2371 575.398 -32.8637 574.201 -31.3426 572.899C6.05251 541.028 62.1192 545.493 94.1493 582.802L94.2972 582.697Z" fill="#FCEC65"/>
</g>
<g style="mix-blend-mode:overlay" opacity="0.5">
<path d="M103.919 564.307C125.069 589.102 130.157 621.958 120.485 650.613C122.578 648.238 124.314 645.672 125.901 643.211C136.714 613.97 131.839 579.85 110.122 554.569C78.2396 517.155 22.0251 512.795 -15.3699 544.666C-21.7503 550.083 -27.1004 556.325 -31.5872 562.844C-31.8637 563.708 -32.1402 564.571 -32.5216 565.286C-29.2648 561.419 -25.7982 557.847 -21.826 554.361C15.5691 522.49 71.6358 526.956 103.666 564.264L103.919 564.307Z" fill="#F2E14F"/>
</g>
<g style="mix-blend-mode:multiply" opacity="0.5">
<path d="M97.7063 577.165C97.7063 577.165 29.8578 558.602 7.02952 603.484C-16.4137 649.693 23.9185 680.221 23.9185 680.221C23.9185 680.221 -46.4093 666.308 -36.0747 598.493C-30.5525 562.11 9.57465 525.632 54.5835 542.391C79.909 551.77 97.7063 577.165 97.7063 577.165Z" fill="#A79700"/>
</g>
<path opacity="0.5" d="M32.7185 553.236C59.0905 543.418 87.2146 547.031 109.641 560.469C108.301 557.64 106.96 554.811 105.324 552.192C81.628 533.207 49.0443 526.754 18.5377 537.95C-27.5394 555.08 -51.0391 606.221 -33.8922 652.311C-31.9887 657.187 -29.8944 661.704 -27.3995 666.16C-24.3087 668.636 -21.0701 671.008 -17.6408 673.022C-18.4995 671.185 -19.1055 669.392 -19.9642 667.555C-37.1111 621.464 -13.6113 570.324 32.4658 553.193L32.7185 553.236Z" fill="#FCEC65"/>
<path opacity="0.5" d="M-45.3268 598.61C-44.5912 606.537 -42.9495 614.489 -40.001 622.403C-22.8541 668.494 28.2888 692.018 74.3658 674.888C105.716 663.315 126.492 635.899 131.323 605.121C134.372 643.872 111.733 681.504 73.5676 695.689C27.4905 712.819 -23.6524 689.295 -40.7993 643.204C-46.3622 628.473 -47.6664 613.166 -45.3268 598.61Z" fill="#766D1A"/>
<path opacity="0.5" d="M11.621 561.091C57.698 543.961 108.841 567.485 125.988 613.576C126.699 615.518 127.305 617.311 127.763 619.21C119.64 644.097 100.59 665.174 74.218 674.993C28.1409 692.123 -23.002 668.599 -40.1489 622.508C-40.8597 620.566 -41.4657 618.773 -42.0716 616.979C-33.9485 592.092 -14.8988 571.015 11.4731 561.196L11.621 561.091Z" fill="#DEC82C"/>
<g style="mix-blend-mode:overlay" opacity="0.5">
<path d="M12.2714 540.395C-18.1303 551.739 -38.6911 577.891 -44.2572 607.634C-44.7965 604.682 -45.293 601.476 -45.4317 598.462C-40.6002 567.683 -19.825 540.267 11.5257 528.695C57.6027 511.564 108.746 535.089 125.893 581.18C128.841 589.093 130.483 597.045 131.218 604.973C131.09 605.731 130.918 606.742 130.789 607.501C129.94 602.545 128.437 597.608 126.786 592.775C109.639 546.684 58.4962 523.16 12.4192 540.29L12.2714 540.395Z" fill="#F2E14F"/>
</g>
<g style="mix-blend-mode:overlay" opacity="0.5">
<path d="M11.6209 561.091C-14.751 570.91 -33.8007 591.987 -41.9238 616.874C-42.7159 613.878 -43.508 610.883 -44.1523 607.782C-38.5862 578.039 -18.1303 551.739 12.3763 540.543C58.4533 523.413 109.596 546.937 126.743 593.028C128.647 597.903 129.897 602.797 130.747 607.754C129.955 611.65 129.016 615.652 127.868 619.358C127.41 617.459 126.699 615.518 126.093 613.724C108.946 567.633 57.8029 544.109 11.7259 561.239L11.6209 561.091Z" fill="#FCEC65"/>
</g>
<g style="mix-blend-mode:overlay" opacity="0.5">
<path d="M125.901 643.211C121.52 649.878 116.064 655.973 109.789 661.537C72.394 693.409 16.3273 688.943 -15.7028 651.634C-37.3775 626.1 -42.1467 592.128 -31.3345 562.887C-53.0295 594.959 -51.6402 638.889 -25.1765 669.919C6.70581 707.333 62.9203 711.694 100.315 679.822C112.189 669.618 120.972 656.937 125.901 643.211Z" fill="#766D1A"/>
</g>
<g style="mix-blend-mode:overlay" opacity="0.4">
<path d="M94.2972 582.697C62.4148 545.283 6.20032 540.923 -31.1947 572.794C-32.8209 573.948 -34.2371 575.398 -35.5055 576.743C-40.3854 602.441 -34.1434 630.031 -15.8078 651.486C16.0745 688.9 72.2891 693.261 109.684 661.389C111.205 660.088 112.622 658.638 113.995 657.441C118.875 631.743 112.633 604.152 94.2972 582.697Z" fill="#AC9D0A"/>
</g>
<g style="mix-blend-mode:multiply" opacity="0.3">
<path d="M-40.9888 585.303C-40.9888 585.303 9.05765 645.183 58.176 618.557C108.835 591.282 91.3291 538.108 91.3291 538.108C91.3291 538.108 146.526 595.223 94.2687 650.314C66.2589 679.751 6.78408 687.71 -23.6684 644.167C-40.836 619.66 -40.9888 585.303 -40.9888 585.303Z" fill="#B0A10F"/>
</g>
<g style="mix-blend-mode:multiply" opacity="0.2">
<path d="M-8.05312 651.765C-8.05312 651.765 59.7954 670.329 82.6236 625.446C106.067 579.237 65.7347 548.709 65.7347 548.709C65.7347 548.709 136.062 562.623 125.728 630.437C120.206 666.82 80.0785 703.299 35.0697 686.539C9.74419 677.16 -8.05312 651.765 -8.05312 651.765Z" fill="#A79700"/>
</g>
<g style="mix-blend-mode:multiply" opacity="0.2">
<path d="M9.17804 553.263C9.17804 553.263 -15.6174 615.107 31.5825 646.544C80.4232 679.039 119.911 637.901 119.911 637.901C119.911 637.901 95.0505 714.688 20.4009 694.058C-19.4612 682.986 -55.2274 633.207 -30.5348 585.001C-16.6939 557.835 9.0731 553.115 9.0731 553.115L9.17804 553.263Z" fill="#A79700"/>
</g>
<g style="mix-blend-mode:screen" opacity="0.5">
<path d="M127.286 623.55C127.286 623.55 77.24 563.671 28.1216 590.297C-22.5371 617.571 -5.03152 670.745 -5.03152 670.745C-5.03152 670.745 -60.2282 613.63 -7.97106 558.539C20.0387 529.102 79.5135 521.143 109.966 564.686C126.986 589.298 127.286 623.55 127.286 623.55Z" fill="#B0A10F"/>
</g>
<g style="mix-blend-mode:multiply" opacity="0.2">
<path d="M21.4296 550.796C21.4296 550.796 2.67142 609.245 40.8801 630.829C80.2669 653.134 108.395 619.167 108.395 619.167C108.395 619.167 93.6768 679.863 34.9336 668.18C3.61371 661.943 -26.8806 625.545 -10.4565 586.985C-1.18357 565.285 21.4296 550.796 21.4296 550.796Z" fill="#B0A10F"/>
</g>
<g style="mix-blend-mode:overlay" opacity="0.5">
<path d="M54.2702 686.034C54.2702 686.034 73.0284 627.585 34.8197 606.001C-4.56708 583.696 -32.6954 617.664 -32.6954 617.664C-32.6954 617.664 -17.977 556.967 40.7663 568.65C72.1911 575.036 102.58 611.285 86.1563 649.845C76.8834 671.545 54.2702 686.034 54.2702 686.034Z" fill="#F8E861"/>
</g>
<g style="mix-blend-mode:screen" opacity="0.5">
<path d="M92.8816 555.018C91.3659 561.652 75.6119 551.04 54.3408 546.121C33.0697 541.202 14.2845 543.859 15.905 537.372C17.4207 530.738 36.9971 524.184 58.2682 529.103C79.5393 534.022 94.2494 548.488 92.7337 555.122L92.8816 555.018Z" fill="white"/>
</g>
<g style="mix-blend-mode:overlay" opacity="0.4">
<path d="M76.3123 679.511C77.0696 672.747 58.8045 677.703 37.0616 675.565C15.3188 673.427 -1.43165 664.856 -2.18898 671.619C-2.94631 678.382 13.5186 690.936 35.2614 693.074C57.0042 695.212 75.5549 686.274 76.3123 679.511Z" fill="#FEE078"/>
</g>
<path style="mix-blend-mode:overlay" opacity="0.3" d="M125.893 581.179C143.039 627.27 119.54 678.411 73.4626 695.541C27.3856 712.671 -23.7573 689.147 -40.9042 643.056C-58.0511 596.965 -34.5513 545.825 11.5257 528.694C57.6027 511.564 108.746 535.089 125.893 581.179Z" fill="url(#paint8_radial_112_731)"/>
</g>
<defs>
<filter id="filter0_f_112_731" x="-274" y="-8" width="770.131" height="752.238" filterUnits="userSpaceOnUse" color-interpolation-filters="sRGB">
<feFlood flood-opacity="0" result="BackgroundImageFix"/>
<feBlend mode="normal" in="SourceGraphic" in2="BackgroundImageFix" result="shape"/>
<feGaussianBlur stdDeviation="4" result="effect1_foregroundBlur_112_731"/>
</filter>
<radialGradient id="paint0_radial_112_731" cx="0" cy="0" r="1" gradientUnits="userSpaceOnUse" gradientTransform="translate(191.332 487.727) rotate(-31.1469) scale(98.1145 98.1572)">
<stop offset="0.05" stop-color="white"/>
<stop offset="0.53" stop-color="#354058"/>
<stop offset="0.72" stop-color="#0D0D0D"/>
<stop offset="0.8" stop-color="#0D0D0D"/>
<stop offset="0.89" stop-color="#1E1E1E"/>
<stop offset="1" stop-color="#3A4661"/>
</radialGradient>
<linearGradient id="paint1_linear_112_731" x1="153.521" y1="459.858" x2="169.335" y2="454.261" gradientUnits="userSpaceOnUse">
<stop offset="0.02" stop-color="#657BA9"/>
<stop offset="0.26" stop-color="#1C1C1C"/>
<stop offset="0.62" stop-color="white"/>
<stop offset="1" stop-color="#4A597B"/>
</linearGradient>
<radialGradient id="paint2_radial_112_731" cx="0" cy="0" r="1" gradientUnits="userSpaceOnUse" gradientTransform="translate(137.823 357.559) rotate(-35.3588) scale(126.71 126.766)">
<stop offset="0.05" stop-color="white"/>
<stop offset="0.53" stop-color="#354058"/>
<stop offset="0.72" stop-color="#0D0D0D"/>
<stop offset="0.8" stop-color="#0D0D0D"/>
<stop offset="0.89" stop-color="#1E1E1E"/>
<stop offset="1" stop-color="#3A4661"/>
</radialGradient>
<linearGradient id="paint3_linear_112_731" x1="55.9379" y1="309.065" x2="73.5295" y2="296.582" gradientUnits="userSpaceOnUse">
<stop offset="0.02" stop-color="#657BA9"/>
<stop offset="0.26" stop-color="#1C1C1C"/>
<stop offset="0.62" stop-color="white"/>
<stop offset="1" stop-color="#4A597B"/>
</linearGradient>
<linearGradient id="paint4_linear_112_731" x1="259.496" y1="405.055" x2="257.464" y2="383.353" gradientUnits="userSpaceOnUse">
<stop offset="0.02" stop-color="#657BA9"/>
<stop offset="0.26" stop-color="#1C1C1C"/>
<stop offset="0.62" stop-color="white"/>
<stop offset="1" stop-color="#4A597B"/>
</linearGradient>
<linearGradient id="paint5_linear_112_731" x1="77.2132" y1="511.477" x2="96.9634" y2="520.391" gradientUnits="userSpaceOnUse">
<stop offset="0.02" stop-color="#657BA9"/>
<stop offset="0.26" stop-color="#1C1C1C"/>
<stop offset="0.62" stop-color="white"/>
<stop offset="1" stop-color="#4A597B"/>
</linearGradient>
<radialGradient id="paint6_radial_112_731" cx="0" cy="0" r="1" gradientUnits="userSpaceOnUse" gradientTransform="translate(15.0829 184.583) rotate(-35.3588) scale(126.71 126.766)">
<stop offset="0.05" stop-color="white"/>
<stop offset="0.53" stop-color="#354058"/>
<stop offset="0.72" stop-color="#0D0D0D"/>
<stop offset="0.8" stop-color="#0D0D0D"/>
<stop offset="0.89" stop-color="#1E1E1E"/>
<stop offset="1" stop-color="#3A4661"/>
</radialGradient>
<radialGradient id="paint7_radial_112_731" cx="0" cy="0" r="1" gradientUnits="userSpaceOnUse" gradientTransform="translate(351.375 333.557) rotate(-50.3651) scale(139.534 139.587)">
<stop offset="0.05" stop-color="white"/>
<stop offset="0.53" stop-color="#354058"/>
<stop offset="0.72" stop-color="#0D0D0D"/>
<stop offset="0.8" stop-color="#0D0D0D"/>
<stop offset="0.89" stop-color="#1E1E1E"/>
<stop offset="1" stop-color="#3A4661"/>
</radialGradient>
<radialGradient id="paint8_radial_112_731" cx="0" cy="0" r="1" gradientUnits="userSpaceOnUse" gradientTransform="translate(57.2515 562.466) rotate(-20.3525) scale(139.534 139.587)">
<stop offset="0.05" stop-color="white"/>
<stop offset="0.53" stop-color="#354058"/>
<stop offset="0.72" stop-color="#0D0D0D"/>
<stop offset="0.8" stop-color="#0D0D0D"/>
<stop offset="0.89" stop-color="#1E1E1E"/>
<stop offset="1" stop-color="#3A4661"/>
</radialGradient>
</defs>
</svg>
