<svg width="448" height="555" viewBox="0 0 448 555" fill="none" xmlns="http://www.w3.org/2000/svg">
<g filter="url(#filter0_d_112_1037)">
<path d="M337.093 178.361C355.284 161.694 383.386 163.047 399.95 181.143C416.515 199.239 415.243 227.43 397.141 244.003C379.038 260.576 350.848 259.317 334.195 241.315C317.537 223.131 318.808 194.939 336.911 178.366L337.093 178.361Z" fill="#F8E861"/>
<path opacity="0.5" d="M324.886 197.129C326.975 193.787 329.615 190.61 332.719 187.694C350.91 171.027 379.012 172.38 395.576 190.476C406.867 202.714 409.917 219.753 404.974 234.569C415.242 218.046 413.782 196.131 400.039 181.05C383.474 162.954 355.284 161.695 337.181 178.268C331.416 183.632 327.321 190.041 324.974 197.035L324.886 197.129Z" fill="#766D1A"/>
<path opacity="0.5" d="M341.609 226.882C358.173 244.978 386.364 246.237 404.466 229.664C405.173 228.914 405.792 228.258 406.499 227.508C408.581 214.599 404.9 200.859 395.394 190.481C378.83 172.386 350.639 171.126 332.537 187.699C331.83 188.449 331.211 189.105 330.504 189.855C328.421 202.764 332.103 216.504 341.609 226.882Z" fill="#DEC82C"/>
<path opacity="0.5" d="M337.235 236.214C326.225 224.241 323.103 207.842 327.416 193.318C326.45 194.531 325.577 195.833 324.703 197.134C319.761 211.95 322.81 228.989 334.101 241.228C350.666 259.323 378.856 260.582 396.959 244.01C399.974 241.187 402.614 238.01 404.792 234.575C404.963 234.205 405.041 233.747 405.119 233.289C403.627 235.247 401.86 237.122 399.905 238.82C381.802 255.393 353.612 254.133 337.047 236.038L337.235 236.214Z" fill="#F2E14F"/>
<g style="mix-blend-mode:screen" opacity="0.5">
<path d="M343.615 192.655C350.083 180.163 361.689 171.983 374.552 169.415C373.167 168.818 371.601 168.227 370.222 167.812C355.033 168.718 340.796 177.25 333.294 191.777C321.994 213.524 330.527 240.514 352.268 251.804C354.49 253.014 356.977 253.942 359.277 254.694C361.28 254.635 363.184 254.305 365.176 253.881C364.255 253.544 363.422 253.113 362.496 252.594C340.661 241.215 332.133 214.408 343.521 192.567L343.615 192.655Z" fill="#FCEC65"/>
</g>
<g style="mix-blend-mode:overlay" opacity="0.5">
<path d="M333.294 191.777C340.707 177.343 355.033 168.718 370.222 167.812C368.75 167.309 367.283 166.988 365.722 166.579C350.064 167.043 335.286 175.773 327.519 190.582C316.13 212.422 324.752 239.318 346.493 250.609C350.193 252.504 354.059 253.847 358.003 254.732C358.367 254.721 358.913 254.705 359.277 254.694C356.884 253.854 354.49 253.014 352.268 251.804C330.433 240.425 321.905 213.618 333.294 191.777Z" fill="#F2E14F"/>
</g>
<g style="mix-blend-mode:multiply" opacity="0.5">
<path d="M340.504 192.201C340.504 192.201 344.714 227.154 369.831 229.234C395.77 231.38 402.251 206.86 402.251 206.86C402.251 206.86 409.021 242.103 375.635 250.109C357.81 254.373 333.233 242.711 332.531 218.678C332.137 205.205 340.504 192.201 340.504 192.201Z" fill="#A79700"/>
</g>
<path opacity="0.5" d="M341.609 226.882C332.103 216.504 328.421 202.764 330.504 189.855C329.444 190.98 328.383 192.105 327.51 193.406C323.197 207.93 326.318 224.329 337.328 236.303C353.893 254.398 382.083 255.658 400.186 239.085C402.047 237.298 403.814 235.424 405.4 233.554C405.981 231.624 406.38 229.698 406.78 227.773C406.073 228.523 405.454 229.179 404.747 229.929C386.645 246.502 358.454 245.243 341.89 227.147L341.609 226.882Z" fill="#FCEC65"/>
<path opacity="0.5" d="M377.312 254.524C380.906 252.777 384.301 250.49 387.405 247.573C405.507 231 406.779 202.808 390.214 184.713C378.918 172.292 362.206 167.868 347.097 171.505C364.518 162.788 386.119 166.156 399.95 181.144C416.515 199.239 415.243 227.431 397.141 244.004C391.375 249.369 384.459 252.763 377.312 254.524Z" fill="#766D1A"/>
<path opacity="0.5" d="M349.23 235.13C332.665 217.034 333.843 188.754 352.039 172.269C352.746 171.519 353.458 170.952 354.259 170.29C367.352 169.355 380.615 174.246 390.121 184.624C406.685 202.72 405.414 230.912 387.311 247.485C386.604 248.234 385.892 248.802 385.091 249.464C371.998 250.399 358.735 245.508 349.23 235.13Z" fill="#DEC82C"/>
<g style="mix-blend-mode:overlay" opacity="0.5">
<path d="M339.494 238.698C350.504 250.672 366.493 255.3 381.436 252.214C380.095 253.074 378.841 253.84 377.401 254.43C362.198 257.979 345.574 253.461 334.283 241.222C317.625 223.038 318.897 194.846 337.093 178.362C340.108 175.539 343.503 173.251 347.185 171.411C347.638 171.306 348.09 171.202 348.454 171.191C346.307 172.53 344.347 174.046 342.486 175.833C324.295 192.499 323.111 220.597 339.676 238.693L339.494 238.698Z" fill="#F2E14F"/>
</g>
<g style="mix-blend-mode:overlay" opacity="0.5">
<path d="M349.23 235.13C358.735 245.508 372.087 250.305 385.091 249.464C383.843 250.412 382.596 251.36 381.342 252.126C366.487 255.118 350.41 250.584 339.4 238.61C322.836 220.514 324.107 192.323 342.21 175.75C344.165 174.052 346.213 172.442 348.179 171.108C350.171 170.685 352.168 170.443 354.077 170.295C353.276 170.957 352.564 171.525 351.857 172.275C333.755 188.848 332.483 217.039 349.048 235.135L349.23 235.13Z" fill="#FCEC65"/>
</g>
<g style="mix-blend-mode:overlay" opacity="0.5">
<path d="M365.727 166.761C369.577 167.558 373.443 168.901 377.237 170.884C399.072 182.263 407.6 209.071 396.211 230.911C388.444 245.72 373.666 254.45 358.008 254.914C376.982 258.816 397.129 249.836 406.533 231.79C417.921 209.949 409.299 183.053 387.558 171.762C380.528 168.144 373.01 166.545 365.727 166.761Z" fill="#766D1A"/>
</g>
<g style="mix-blend-mode:overlay" opacity="0.4">
<path d="M343.615 192.655C332.227 214.496 340.848 241.392 362.59 252.683C363.422 253.113 364.348 253.633 365.269 253.97C378.132 251.401 389.738 243.221 396.206 230.729C407.594 208.889 398.973 181.993 377.231 170.702C376.305 170.183 375.473 169.752 374.552 169.415C361.689 171.983 350.083 180.163 343.615 192.655Z" fill="#AC9D0A"/>
</g>
<g style="mix-blend-mode:multiply" opacity="0.3">
<path d="M370.311 255.005C370.311 255.005 388.62 220.567 367.145 202.8C344.926 184.507 323.589 202.634 323.589 202.634C323.589 202.634 339.655 166.259 375.048 180.151C394.035 187.606 408.919 213.678 394.446 235.975C386.251 248.609 370.405 255.093 370.405 255.093L370.311 255.005Z" fill="#B0A10F"/>
</g>
<g style="mix-blend-mode:multiply" opacity="0.2">
<path d="M394.919 227.214C394.919 227.214 390.708 192.26 365.592 190.181C339.653 188.035 333.172 212.554 333.172 212.554C333.172 212.554 326.402 177.312 359.788 169.306C377.613 165.041 402.189 176.704 402.892 200.737C403.286 214.21 394.919 227.214 394.919 227.214Z" fill="#A79700"/>
</g>
<g style="mix-blend-mode:multiply" opacity="0.2">
<path d="M346.027 237.776C346.027 237.776 379.372 237.698 385.117 209.829C390.93 181.138 364.471 170.534 364.471 170.534C364.471 170.534 404.836 167.514 409.242 206.015C411.575 226.629 395.294 252.532 368.258 250.237C353.093 248.864 346.027 237.776 346.027 237.776Z" fill="#A79700"/>
</g>
<g style="mix-blend-mode:screen" opacity="0.5">
<path d="M356.34 169.773C356.34 169.773 338.03 204.21 359.599 222.066C381.819 240.358 403.156 222.232 403.156 222.232C403.156 222.232 387.09 258.607 351.697 244.714C332.71 237.26 317.825 211.187 332.298 188.891C340.493 176.256 356.34 169.773 356.34 169.773Z" fill="#B0A10F"/>
</g>
<g style="mix-blend-mode:multiply" opacity="0.2">
<path d="M342.596 232.593C342.596 232.593 373.234 230.317 376.06 208.549C378.865 186.052 357.896 179.385 357.896 179.385C357.896 179.385 388.829 174.731 394.519 204.174C397.531 219.939 386.386 240.77 365.422 240.481C353.572 240.285 342.684 232.499 342.684 232.499L342.596 232.593Z" fill="#B0A10F"/>
</g>
<g style="mix-blend-mode:overlay" opacity="0.5">
<path d="M399.078 191.83C399.078 191.83 368.44 194.105 365.614 215.874C362.715 238.283 383.777 245.038 383.777 245.038C383.777 245.038 352.844 249.692 347.243 220.155C344.231 204.391 355.376 183.559 376.34 183.849C388.19 184.044 399.078 191.83 399.078 191.83Z" fill="#F8E861"/>
</g>
<g style="mix-blend-mode:screen" opacity="0.5">
<path d="M331.124 198.584C334.479 198.029 332.565 207.379 334.336 218.078C336.106 228.777 340.814 237.111 337.454 237.484C334.099 238.039 327.399 230.128 325.628 219.43C323.946 208.637 327.857 199.045 331.212 198.49L331.124 198.584Z" fill="white"/>
</g>
<g style="mix-blend-mode:overlay" opacity="0.4">
<path d="M391.982 182.838C388.731 183.846 394.417 191.33 397.545 201.716C400.584 212.195 399.857 221.601 403.108 220.593C406.358 219.586 409.072 209.574 406.033 199.095C402.993 188.616 395.227 181.648 391.977 182.656L391.982 182.838Z" fill="#FEE078"/>
</g>
<path style="mix-blend-mode:overlay" opacity="0.3" d="M337.093 178.361C355.284 161.694 383.386 163.047 399.95 181.143C416.515 199.239 415.243 227.43 397.141 244.003C379.038 260.576 350.848 259.317 334.195 241.315C317.537 223.131 318.808 194.939 336.911 178.366L337.093 178.361Z" fill="url(#paint0_radial_112_1037)"/>
<g style="mix-blend-mode:multiply" opacity="0.5">
<path d="M342.055 217.211C344.628 214.857 351.278 217.94 356.833 224.062C362.388 230.184 364.775 237.037 362.201 239.392C359.628 241.746 352.978 238.663 347.423 232.541C341.868 226.419 339.481 219.565 342.055 217.211Z" fill="#EEDE42"/>
</g>
<g style="mix-blend-mode:overlay" opacity="0.5">
<path d="M341.787 220.499C343.964 217.063 351.637 217.747 358.523 222.645C371.081 231.475 390.395 237.644 388.217 241.08C386.04 244.516 367.729 244.603 350.593 234.998C343.276 230.933 339.703 224.023 341.792 220.681L341.787 220.499Z" fill="#F8E861"/>
</g>
<g style="mix-blend-mode:multiply" opacity="0.4">
<path d="M347.313 231.906C347.313 231.906 353.48 227.806 349.966 222.899C346.357 217.903 341.288 222.154 341.288 222.154C341.288 222.154 345.866 213.544 352.475 218.36C356.014 220.988 357.256 226.054 352.993 229.825C350.596 231.991 347.313 231.906 347.313 231.906Z" fill="#766B00"/>
</g>
<g style="mix-blend-mode:multiply" opacity="0.3">
<path d="M343.027 216.18C345.715 214.642 350.253 217.15 352.946 221.99C355.727 226.737 355.881 232.017 353.193 233.554C350.504 235.092 345.966 232.584 343.185 227.838C340.404 223.091 340.25 217.811 342.939 216.274L343.027 216.18Z" fill="#E1D136"/>
</g>
<path d="M297.249 255.35C298.879 258.126 302.552 259.111 305.418 257.385L348.577 231.504C351.354 229.873 352.34 226.199 350.616 223.335C348.986 220.559 345.313 219.574 342.541 221.388L299.47 247.175C296.693 248.806 295.707 252.48 297.431 255.345L297.249 255.35Z" fill="url(#paint1_linear_112_1037)"/>
<path d="M248.959 224.164C270.699 201.105 307.112 200.025 330.161 221.755C353.21 243.485 354.274 279.899 332.534 302.958C310.795 326.016 274.381 327.097 251.333 305.367C228.284 283.637 227.22 247.223 248.959 224.164Z" fill="#F8E861"/>
<path opacity="0.5" d="M235.123 249.54C237.539 244.912 240.512 240.633 244.223 236.696C265.963 213.637 302.376 212.557 325.425 234.287C341.165 249.127 346.621 270.559 341.728 290.202C353.288 267.992 349.368 239.863 330.255 221.843C307.206 200.113 270.793 201.194 249.053 224.252C242.072 231.658 237.406 240.361 235.123 249.54Z" fill="#766D1A"/>
<path opacity="0.5" d="M259.607 286.079C282.656 307.809 319.069 306.728 340.808 283.67C341.692 282.732 342.576 281.795 343.366 280.769C344.785 263.871 338.724 246.648 325.513 234.193C302.465 212.463 266.051 213.544 244.312 236.602C243.428 237.54 242.544 238.477 241.661 239.414C240.241 256.312 246.302 273.535 259.513 285.99L259.607 286.079Z" fill="#DEC82C"/>
<path opacity="0.5" d="M254.871 298.61C239.599 284.212 233.983 263.514 238.251 244.345C237.207 246.016 236.162 247.687 235.212 249.446C230.314 268.907 235.774 290.521 251.515 305.361C274.564 327.091 310.977 326.011 332.716 302.952C336.428 299.015 339.489 294.642 341.817 290.109C341.983 289.557 342.149 289.005 342.133 288.459C340.298 291.156 338.37 293.764 336.072 296.201C314.333 319.26 277.92 320.341 254.871 298.61Z" fill="#F2E14F"/>
<g style="mix-blend-mode:screen" opacity="0.5">
<path d="M258.865 242.002C266.028 225.207 280.269 213.668 296.537 209.177C294.695 208.502 292.677 208.016 290.746 207.435C271.324 210.016 253.739 222.473 245.465 241.762C233.015 270.923 246.484 304.69 275.639 317.128C278.683 318.404 281.904 319.493 284.932 320.224C287.475 319.966 290.008 319.344 292.448 318.634C291.251 318.214 290.054 317.794 288.946 317.28C259.791 304.842 246.228 270.986 258.772 241.913L258.865 242.002Z" fill="#FCEC65"/>
</g>
<g style="mix-blend-mode:overlay" opacity="0.5">
<path d="M245.559 241.85C253.833 222.562 271.418 210.104 290.84 207.523C288.821 207.037 286.99 206.727 284.977 206.422C264.904 208.566 246.59 221.045 238.062 240.979C225.612 270.14 239.081 303.908 268.236 316.345C273.216 318.384 278.361 319.872 283.481 320.449C284.027 320.433 284.661 320.323 285.114 320.218C281.904 319.493 278.777 318.493 275.821 317.123C246.666 304.685 233.103 270.829 245.647 241.756L245.559 241.85Z" fill="#F2E14F"/>
</g>
<g style="mix-blend-mode:multiply" opacity="0.5">
<path d="M254.756 241.668C254.756 241.668 263.441 286.329 295.974 286.549C329.512 286.829 335.593 254.85 335.593 254.85C335.593 254.85 347.649 299.502 305.402 312.965C282.742 320.106 250.211 307.496 246.939 276.614C245.065 259.267 254.667 241.762 254.667 241.762L254.756 241.668Z" fill="#A79700"/>
</g>
<path opacity="0.5" d="M259.607 286.078C246.396 273.623 240.423 256.307 241.754 239.503C240.434 241.091 239.296 242.673 238.251 244.344C234.071 263.42 239.599 284.212 254.871 298.61C277.92 320.34 314.333 319.26 336.072 296.201C338.37 293.764 340.392 291.244 342.133 288.459C342.698 285.982 343.076 283.329 343.277 280.863C342.394 281.8 341.604 282.826 340.72 283.763C318.98 306.822 282.567 307.902 259.519 286.172L259.607 286.078Z" fill="#FCEC65"/>
<path opacity="0.5" d="M308.111 318.351C312.588 315.667 316.685 312.448 320.396 308.511C342.136 285.452 341.072 249.039 318.023 227.309C302.283 212.469 280.473 208.196 261.245 214.324C282.737 201.477 311.047 203.735 330.161 221.755C353.21 243.485 354.274 279.899 332.534 302.958C325.553 310.363 317.046 315.444 308.111 318.351Z" fill="#766D1A"/>
<path opacity="0.5" d="M270.194 296.06C247.146 274.33 246.081 237.917 267.821 214.858C268.705 213.92 269.588 212.983 270.472 212.046C287.257 209.634 304.807 214.672 318.018 227.127C341.066 248.857 342.131 285.27 320.391 308.329C319.507 309.266 318.624 310.204 317.74 311.141C300.955 313.553 283.405 308.515 270.194 296.06Z" fill="#DEC82C"/>
<g style="mix-blend-mode:overlay" opacity="0.5">
<path d="M257.963 301.525C273.235 315.924 294.228 320.312 313.113 314.923C311.506 316.064 309.899 317.205 308.199 318.258C289.06 324.292 267.162 320.113 251.421 305.273C228.372 283.543 227.308 247.129 249.048 224.07C252.759 220.133 256.945 216.82 261.334 214.23C261.874 214.032 262.415 213.833 262.962 213.817C260.377 215.807 257.887 217.886 255.589 220.323C233.85 243.382 234.914 279.795 257.963 301.525Z" fill="#F2E14F"/>
</g>
<g style="mix-blend-mode:overlay" opacity="0.5">
<path d="M270.194 296.06C283.405 308.515 301.043 313.459 317.74 311.141C316.232 312.553 314.719 313.782 313.113 314.923C294.316 320.219 273.235 315.924 257.963 301.525C234.914 279.795 233.85 243.382 255.589 220.323C257.887 217.886 260.284 215.719 262.962 213.817C265.401 213.107 268.027 212.574 270.477 212.228C269.594 213.165 268.71 214.102 267.826 215.04C246.087 238.099 247.151 274.512 270.2 296.242L270.194 296.06Z" fill="#FCEC65"/>
</g>
<g style="mix-blend-mode:overlay" opacity="0.5">
<path d="M284.977 206.422C290.008 207.093 295.242 208.486 300.133 210.619C329.288 223.057 342.851 256.913 330.307 285.986C321.867 305.825 303.465 318.398 283.392 320.543C308.27 323.814 333.299 310.406 343.614 286.137C356.064 256.976 342.595 223.208 313.44 210.771C304.12 206.765 294.241 205.418 284.795 206.427L284.977 206.422Z" fill="#766D1A"/>
</g>
<g style="mix-blend-mode:overlay" opacity="0.4">
<path d="M258.865 242.002C246.415 271.163 259.885 304.931 289.039 317.368C290.148 317.882 291.438 318.39 292.541 318.722C308.81 314.231 323.051 302.692 330.213 285.897C342.663 256.736 329.194 222.968 300.039 210.531C298.931 210.017 297.64 209.508 296.444 209.088C280.175 213.58 265.934 225.118 258.772 241.913L258.865 242.002Z" fill="#AC9D0A"/>
</g>
<g style="mix-blend-mode:multiply" opacity="0.3">
<path d="M299.128 319.62C299.128 319.62 319.375 273.554 290.063 252.648C259.826 231.222 234.051 256.496 234.051 256.496C234.051 256.496 251.227 208.243 298.117 222.706C323.217 230.435 344.842 262.685 328.319 292.787C319.066 309.735 299.31 319.615 299.31 319.615L299.128 319.62Z" fill="#B0A10F"/>
</g>
<g style="mix-blend-mode:multiply" opacity="0.2">
<path d="M328.171 281.493C328.171 281.493 319.486 236.832 286.952 236.613C253.415 236.332 247.334 268.311 247.334 268.311C247.334 268.311 235.278 223.659 277.525 210.196C300.185 203.055 332.81 215.754 335.988 246.547C337.861 263.894 328.26 281.399 328.26 281.399L328.171 281.493Z" fill="#A79700"/>
</g>
<g style="mix-blend-mode:multiply" opacity="0.2">
<path d="M266.295 299.82C266.295 299.82 309.204 296.543 313.971 260.138C318.795 222.548 283.669 211.563 283.669 211.563C283.669 211.563 335.289 203.927 344.742 253.03C349.795 279.394 331.132 314.206 296.221 313.693C276.531 313.366 266.389 299.909 266.389 299.909L266.295 299.82Z" fill="#A79700"/>
</g>
<g style="mix-blend-mode:screen" opacity="0.5">
<path d="M273.182 211.236C273.182 211.236 252.935 257.303 282.246 278.209C312.484 299.635 338.347 274.267 338.347 274.267C338.347 274.267 321.17 322.52 274.281 308.057C249.181 300.328 227.556 268.078 244.079 237.976C253.332 221.028 273.176 211.054 273.176 211.054L273.182 211.236Z" fill="#B0A10F"/>
</g>
<g style="mix-blend-mode:multiply" opacity="0.2">
<path d="M261.37 293.406C261.37 293.406 300.558 287.506 302.1 259.215C303.615 230.014 275.999 223.453 275.999 223.453C275.999 223.453 315.377 214.722 325.395 251.964C330.808 271.939 318.414 299.914 291.401 301.536C276.212 302.442 261.282 293.5 261.282 293.5L261.37 293.406Z" fill="#B0A10F"/>
</g>
<g style="mix-blend-mode:overlay" opacity="0.5">
<path d="M330.201 235.603C330.201 235.603 290.92 241.415 289.471 269.794C287.956 298.995 315.572 305.556 315.572 305.556C315.572 305.556 276.105 314.381 266.176 277.046C260.764 257.07 273.157 229.095 300.17 227.474C315.359 226.567 330.201 235.603 330.201 235.603Z" fill="#F8E861"/>
</g>
<g style="mix-blend-mode:screen" opacity="0.5">
<path d="M243.27 250.847C247.525 249.901 245.873 261.976 249.097 275.639C252.321 289.301 259.267 299.391 254.924 300.431C250.67 301.377 241.19 291.909 237.967 278.247C234.743 264.584 238.927 251.887 243.088 250.852L243.27 250.847Z" fill="white"/>
</g>
<g style="mix-blend-mode:overlay" opacity="0.4">
<path d="M320.133 224.695C316.077 226.182 324.182 235.417 329.122 248.573C334.063 261.729 333.967 274.032 338.112 272.451C342.257 270.871 344.698 257.769 339.758 244.613C334.818 231.457 324.19 223.208 320.133 224.695Z" fill="#FEE078"/>
</g>
<path style="mix-blend-mode:overlay" opacity="0.3" d="M248.959 224.164C270.699 201.105 307.112 200.025 330.161 221.755C353.21 243.485 354.274 279.899 332.534 302.958C310.795 326.016 274.381 327.097 251.333 305.367C228.284 283.637 227.22 247.223 248.959 224.164Z" fill="url(#paint2_radial_112_1037)"/>
<g style="mix-blend-mode:multiply" opacity="0.5">
<path d="M246.521 290.385C248.72 287.677 257.014 290.893 265.04 297.398C273.066 303.902 277.753 311.507 275.554 314.215C273.355 316.922 264.973 313.8 257.035 307.202C249.01 300.698 244.323 293.092 246.521 290.385Z" fill="#FEDF29"/>
</g>
<g style="mix-blend-mode:overlay" opacity="0.5">
<path d="M247.688 292.901C249.959 289.554 257.732 290.508 264.259 295.598C276.557 304.892 295.528 311.8 293.163 315.059C290.892 318.407 272.471 317.86 255.86 307.51C248.715 303.075 245.324 296.16 247.595 292.813L247.688 292.901Z" fill="#F8E861"/>
</g>
<g style="mix-blend-mode:multiply" opacity="0.2">
<path d="M257.661 309.917C257.661 309.917 260.621 302.084 255.516 298.865C250.317 295.557 246.164 299.962 246.164 299.962C246.164 299.962 248.567 291.782 256.553 293.823C260.866 294.879 264.662 300.051 262.262 305.225C260.891 308.181 257.755 310.005 257.755 310.005L257.661 309.917Z" fill="#A79700"/>
</g>
<g style="mix-blend-mode:multiply" opacity="0.3">
<path d="M248.459 294.336C250.039 292.285 255.362 293.584 260.395 297.444C265.428 301.304 268.208 306.05 266.628 308.102C265.048 310.153 259.632 308.765 254.693 304.993C249.66 301.134 246.879 296.387 248.459 294.336Z" fill="#B0A10F"/>
</g>
<g style="mix-blend-mode:multiply" opacity="0.5">
<path d="M269.732 217.899C270.379 221.342 277.022 221.054 287.264 219.201C297.505 217.348 311.401 218.94 311.171 217.307C310.705 213.859 295.731 209.656 285.49 211.509C275.248 213.362 269.085 214.456 269.732 217.899Z" fill="#CABA34"/>
</g>
<g style="mix-blend-mode:multiply" opacity="0.2">
<path d="M283.252 209.753C283.252 209.753 282.129 218.078 276.126 218.438C269.941 218.804 268.584 212.922 268.584 212.922C268.584 212.922 266.733 221.268 274.631 223.402C278.856 224.553 284.789 221.825 285.17 216.165C285.35 212.971 283.434 209.748 283.434 209.748L283.252 209.753Z" fill="#857900"/>
</g>
<g style="mix-blend-mode:multiply" opacity="0.3">
<path d="M270.363 220.796C271.702 222.943 277.386 221.043 283.649 220.219C289.818 219.307 294.64 219.073 294.525 218.257C294.493 217.164 287.067 212.464 280.804 213.288C274.635 214.2 268.166 217.307 270.27 220.707L270.363 220.796Z" fill="#5C560F"/>
</g>
<g style="mix-blend-mode:multiply" opacity="0.5">
<path d="M339.867 260.828C336.475 260.109 331.96 267.714 329.797 277.891C327.635 288.069 328.618 296.787 332.104 297.595C335.496 298.314 340.012 290.709 342.174 280.531C344.337 270.353 343.353 261.636 339.867 260.828Z" fill="#D7C950"/>
</g>
<g style="mix-blend-mode:multiply" opacity="0.5">
<path d="M340.311 263.548C336.451 262.387 331.055 267.923 328.922 276.004C325.166 290.876 314.554 308.138 318.415 309.299C322.276 310.46 336.324 298.563 342.986 280.234C345.852 272.313 344.172 264.709 340.223 263.642L340.311 263.548Z" fill="#F8E545"/>
</g>
<g style="mix-blend-mode:multiply" opacity="0.2">
<path d="M343.253 283.141C343.253 283.141 336.019 278.8 337.951 273.185C339.965 267.294 345.917 268.302 345.917 268.302C345.917 268.302 338.85 263.409 333.938 269.933C331.308 273.473 331.494 279.846 336.578 282.337C339.534 283.707 343.071 283.147 343.071 283.147L343.253 283.141Z" fill="#A79700"/>
</g>
<g style="mix-blend-mode:multiply" opacity="0.3">
<path d="M341.329 260.967C338.759 260.314 335.516 264.693 333.965 270.843C332.413 276.994 333.207 282.346 335.689 283.092C338.259 283.745 341.591 279.273 343.054 273.216C344.605 267.065 343.811 261.713 341.241 261.06L341.329 260.967Z" fill="#C7B50C"/>
</g>
<path d="M202.203 357.665C199.111 354.75 198.968 349.834 201.884 346.741L246.954 298.936C249.87 295.843 254.786 295.697 257.878 298.612C260.97 301.527 261.113 306.443 258.197 309.536L213.127 357.341C210.211 360.434 205.295 360.58 202.203 357.665Z" fill="url(#paint3_linear_112_1037)"/>
<path d="M278.155 219.289C274.093 220.594 269.831 218.169 268.528 214.108L249.744 151.25C248.529 147.095 250.867 142.926 254.929 141.621C258.991 140.316 263.253 142.74 264.556 146.802L283.34 209.659C284.643 213.721 282.217 217.984 278.155 219.289Z" fill="url(#paint4_linear_112_1037)"/>
<path d="M414.677 292.229C415.647 288.009 413.158 283.892 408.938 282.924L345.084 267.871C340.953 266.809 336.84 269.482 335.777 273.614C334.807 277.834 337.384 281.858 341.515 282.919L405.369 297.972C409.589 298.94 413.613 296.361 414.677 292.229Z" fill="url(#paint5_linear_112_1037)"/>
<path d="M145.475 333.928C167.215 310.869 203.628 309.789 226.677 331.519C249.726 353.249 250.79 389.662 229.05 412.721C207.311 435.78 170.991 436.949 147.942 415.219C124.894 393.489 123.829 357.075 145.569 334.016L145.475 333.928Z" fill="#F8E861"/>
<path opacity="0.5" d="M131.639 359.303C134.055 354.676 137.028 350.397 140.739 346.46C162.479 323.401 198.892 322.321 221.941 344.051C237.681 358.891 243.137 380.323 238.244 399.966C249.804 377.756 245.884 349.627 226.771 331.607C203.722 309.877 167.309 310.957 145.569 334.016C138.588 341.421 133.922 350.124 131.639 359.303Z" fill="#766D1A"/>
<path opacity="0.5" d="M156.034 395.936C179.083 417.666 215.496 416.586 237.236 393.527C238.12 392.59 239.003 391.652 239.793 390.627C241.213 373.729 235.152 356.506 221.941 344.051C198.892 322.321 162.479 323.401 140.739 346.46C139.856 347.397 138.972 348.334 138.088 349.272C136.669 366.17 142.73 383.393 155.941 395.848L156.034 395.936Z" fill="#DEC82C"/>
<path opacity="0.5" d="M151.387 408.374C136.115 393.976 130.499 373.278 134.767 354.108C133.723 355.779 132.678 357.45 131.728 359.21C126.741 378.765 132.202 400.379 147.942 415.219C170.991 436.949 207.404 435.868 229.144 412.81C232.856 408.873 235.917 404.5 238.244 399.966C238.41 399.414 238.576 398.863 238.56 398.317C236.726 401.013 234.798 403.622 232.5 406.059C210.76 429.118 174.347 430.198 151.299 408.468L151.387 408.374Z" fill="#F2E14F"/>
<g style="mix-blend-mode:screen" opacity="0.5">
<path d="M155.381 351.765C162.544 334.97 176.785 323.432 193.053 318.94C191.211 318.266 189.281 317.686 187.262 317.199C167.84 319.78 150.255 332.237 141.981 351.525C129.531 380.686 143 414.454 172.155 426.892C175.199 428.168 178.42 429.257 181.448 429.987C184.08 429.636 186.524 429.108 188.964 428.398C187.767 427.977 186.57 427.557 185.462 427.044C156.307 414.606 142.744 380.75 155.288 351.677L155.381 351.765Z" fill="#FCEC65"/>
</g>
<g style="mix-blend-mode:overlay" opacity="0.5">
<path d="M142.074 351.614C150.349 332.325 167.934 319.868 187.356 317.287C185.337 316.8 183.506 316.49 181.493 316.186C161.42 318.33 143.106 330.809 134.578 350.743C122.128 379.904 135.597 413.672 164.752 426.109C169.643 428.242 174.877 429.635 179.997 430.213C180.543 430.196 181.177 430.086 181.63 429.982C178.508 429.163 175.381 428.163 172.337 426.886C143.182 414.449 129.619 380.593 142.163 351.52L142.074 351.614Z" fill="#F2E14F"/>
</g>
<g style="mix-blend-mode:multiply" opacity="0.5">
<path d="M151.272 351.432C151.272 351.432 159.957 396.093 192.49 396.312C226.028 396.593 232.109 364.614 232.109 364.614C232.109 364.614 244.165 409.266 201.918 422.729C179.258 429.87 146.727 417.259 143.455 386.378C141.581 369.031 151.183 351.526 151.183 351.526L151.272 351.432Z" fill="#A79700"/>
</g>
<path opacity="0.5" d="M156.034 395.936C142.824 383.481 136.851 366.165 138.182 349.36C136.862 350.948 135.723 352.531 134.679 354.202C130.499 373.278 136.026 394.07 151.299 408.468C174.347 430.198 210.76 429.118 232.5 406.059C234.798 403.622 236.82 401.102 238.56 398.317C239.126 395.84 239.504 393.186 239.705 390.72C238.821 391.658 238.031 392.683 237.148 393.621C215.408 416.68 178.995 417.76 155.946 396.03L156.034 395.936Z" fill="#FCEC65"/>
<path opacity="0.5" d="M204.627 428.115C209.104 425.431 213.201 422.212 216.912 418.275C238.652 395.216 237.588 358.802 214.539 337.072C198.799 322.232 176.989 317.959 157.761 324.088C179.253 311.241 207.563 313.499 226.677 331.519C249.726 353.249 250.79 389.662 229.05 412.721C222.069 420.126 213.562 425.208 204.627 428.115Z" fill="#766D1A"/>
<path opacity="0.5" d="M166.622 405.918C143.573 384.188 142.509 347.774 164.249 324.715C165.132 323.778 166.016 322.84 166.9 321.903C183.685 319.492 201.235 324.529 214.445 336.984C237.494 358.714 238.558 395.128 216.819 418.187C215.935 419.124 215.051 420.061 214.168 420.999C197.382 423.41 179.833 418.373 166.622 405.918Z" fill="#DEC82C"/>
<g style="mix-blend-mode:overlay" opacity="0.5">
<path d="M154.479 411.289C169.751 425.688 190.744 430.076 209.629 424.687C208.022 425.828 206.415 426.969 204.715 428.021C185.487 434.15 163.589 429.97 147.942 415.219C124.8 393.4 123.83 357.075 145.569 334.016C149.281 330.079 153.466 326.766 157.855 324.176C158.396 323.978 158.937 323.779 159.483 323.763C156.899 325.753 154.408 327.832 152.111 330.269C130.371 353.328 131.435 389.741 154.484 411.471L154.479 411.289Z" fill="#F2E14F"/>
</g>
<g style="mix-blend-mode:overlay" opacity="0.5">
<path d="M166.622 405.918C179.833 418.373 197.471 423.316 214.168 420.999C212.66 422.41 211.147 423.639 209.54 424.78C190.744 430.076 169.663 425.781 154.39 411.383C131.342 389.653 130.277 353.239 152.017 330.18C154.315 327.743 156.711 325.577 159.389 323.675C161.828 322.965 164.455 322.431 166.905 322.085C166.021 323.022 165.138 323.96 164.254 324.897C142.514 347.956 143.579 384.37 166.627 406.1L166.622 405.918Z" fill="#FCEC65"/>
</g>
<g style="mix-blend-mode:overlay" opacity="0.5">
<path d="M181.404 316.279C186.435 316.95 191.669 318.344 196.649 320.383C225.804 332.82 239.367 366.676 226.823 395.749C218.383 415.589 199.981 428.162 179.908 430.306C204.786 433.577 229.815 420.17 240.13 395.901C252.58 366.74 239.111 332.972 209.956 320.535C200.636 316.529 190.757 315.182 181.311 316.191L181.404 316.279Z" fill="#766D1A"/>
</g>
<g style="mix-blend-mode:overlay" opacity="0.4">
<path d="M155.381 351.765C142.931 380.927 156.401 414.694 185.555 427.132C186.752 427.552 187.954 428.154 189.057 428.486C205.326 423.994 219.567 412.456 226.729 395.661C239.179 366.5 225.71 332.732 196.555 320.294C195.447 319.78 194.156 319.272 192.96 318.852C176.691 323.344 162.45 334.882 155.288 351.677L155.381 351.765Z" fill="#AC9D0A"/>
</g>
<g style="mix-blend-mode:multiply" opacity="0.3">
<path d="M195.644 429.384C195.644 429.384 215.891 383.318 186.579 362.411C156.342 340.986 130.479 366.353 130.479 366.353C130.479 366.353 147.655 318.101 194.545 332.563C219.644 340.292 241.358 372.449 224.747 402.644C215.493 419.593 195.737 429.472 195.737 429.472L195.644 429.384Z" fill="#B0A10F"/>
</g>
<g style="mix-blend-mode:multiply" opacity="0.2">
<path d="M224.687 391.257C224.687 391.257 216.002 346.596 183.468 346.377C149.931 346.096 143.85 378.075 143.85 378.075C143.85 378.075 131.794 333.423 174.041 319.96C196.701 312.819 229.326 325.518 232.504 356.311C234.377 373.658 224.776 391.163 224.776 391.163L224.687 391.257Z" fill="#A79700"/>
</g>
<g style="mix-blend-mode:multiply" opacity="0.2">
<path d="M162.811 409.584C162.811 409.584 205.72 406.307 210.487 369.902C215.311 332.311 180.185 321.327 180.185 321.327C180.185 321.327 231.805 313.691 241.258 362.794C246.311 389.158 227.648 423.97 192.737 423.457C173.047 423.13 162.905 409.672 162.905 409.672L162.811 409.584Z" fill="#A79700"/>
</g>
<g style="mix-blend-mode:screen" opacity="0.5">
<path d="M169.698 321C169.698 321 149.451 367.066 178.762 387.973C209 409.398 234.863 384.031 234.863 384.031C234.863 384.031 217.686 432.283 170.797 417.821C145.697 410.092 123.984 377.935 140.595 347.74C149.848 330.791 169.604 320.912 169.604 320.912L169.698 321Z" fill="#B0A10F"/>
</g>
<g style="mix-blend-mode:multiply" opacity="0.2">
<path d="M157.886 403.17C157.886 403.17 197.074 397.27 198.616 368.979C200.131 339.778 172.515 333.217 172.515 333.217C172.515 333.217 211.893 324.486 221.911 361.728C227.324 381.703 214.93 409.678 187.917 411.3C172.728 412.206 157.798 403.264 157.798 403.264L157.886 403.17Z" fill="#B0A10F"/>
</g>
<g style="mix-blend-mode:overlay" opacity="0.5">
<path d="M226.717 345.367C226.717 345.367 187.436 351.179 185.987 379.558C184.472 408.759 212.088 415.32 212.088 415.32C212.088 415.32 172.71 424.051 162.692 386.809C157.28 366.834 169.673 338.859 196.686 337.238C211.875 336.331 226.717 345.367 226.717 345.367Z" fill="#F8E861"/>
</g>
<g style="mix-blend-mode:screen" opacity="0.5">
<path d="M139.786 360.611C144.041 359.664 142.389 371.74 145.613 385.403C148.837 399.065 155.783 409.155 151.44 410.195C147.185 411.141 137.706 401.673 134.483 388.011C131.259 374.348 135.443 361.651 139.604 360.616L139.786 360.611Z" fill="white"/>
</g>
<g style="mix-blend-mode:overlay" opacity="0.4">
<path d="M216.649 334.458C212.504 336.039 220.698 345.181 225.638 358.337C230.579 371.493 230.571 383.702 234.628 382.215C238.684 380.728 241.214 367.533 236.274 354.377C231.334 341.221 220.706 332.971 216.649 334.458Z" fill="#FEE078"/>
</g>
<path style="mix-blend-mode:overlay" opacity="0.3" d="M145.475 333.928C167.215 310.869 203.628 309.789 226.677 331.519C249.726 353.249 250.79 389.662 229.05 412.721C207.311 435.78 170.991 436.949 147.942 415.219C124.894 393.489 123.829 357.075 145.569 334.016L145.475 333.928Z" fill="url(#paint6_radial_112_1037)"/>
<path d="M189.031 78.4296C205.625 47.6877 243.92 36.1647 274.654 52.7466C305.388 69.3285 316.894 107.619 300.299 138.361C283.704 169.103 245.409 180.626 214.675 164.044C183.941 147.462 172.436 109.172 189.031 78.4296Z" fill="#F8E861"/>
<path opacity="0.5" d="M181.549 109.266C182.753 103.672 184.783 98.3272 187.636 93.0491C204.231 62.3072 242.525 50.7842 273.259 67.3661C294.178 78.5902 306.1 99.9215 306.473 122.051C312.521 95.1753 300.2 66.3846 274.742 52.6529C244.009 36.071 205.714 47.594 189.119 78.3359C183.757 88.153 181.335 98.794 181.549 109.266Z" fill="#766D1A"/>
<path opacity="0.5" d="M217.927 141.26C248.661 157.842 286.956 146.319 303.551 115.577C304.242 114.281 304.844 113.079 305.353 111.788C302.085 93.4804 290.754 76.7784 273.165 67.2778C242.432 50.6959 204.137 62.2189 187.542 92.9608C186.851 94.2569 186.248 95.4592 185.739 96.7499C189.008 115.058 200.338 131.76 217.927 141.26Z" fill="#DEC82C"/>
<path opacity="0.5" d="M216.35 155.885C196.076 144.915 184.181 124.495 183.189 103.021C182.519 105.046 181.855 107.252 181.461 109.359C181.835 131.489 193.756 152.82 214.675 164.044C245.409 180.626 283.704 169.103 300.299 138.361C303.151 133.083 305.088 127.65 306.385 122.145C306.369 121.598 306.348 120.87 306.332 120.324C305.247 123.727 303.704 127.053 302.067 130.291C285.472 161.033 247.178 172.556 216.444 155.974L216.35 155.885Z" fill="#F2E14F"/>
<g style="mix-blend-mode:screen" opacity="0.5">
<path d="M204.626 94.5497C207.417 74.6953 219.241 58.3997 235.366 48.9922C233.176 48.875 230.986 48.7577 228.801 48.8225C208.909 57.1573 193.767 75.2825 190.427 98.1599C185.425 132.749 209.411 164.747 243.997 169.734C247.655 170.173 251.307 170.429 254.766 170.326C257.377 169.246 259.982 167.985 262.4 166.546C261.032 166.496 259.658 166.263 258.197 166.124C223.61 161.137 199.624 129.139 204.626 94.5497Z" fill="#FCEC65"/>
</g>
<g style="mix-blend-mode:overlay" opacity="0.5">
<path d="M190.427 98.1599C193.767 75.2825 208.815 57.069 228.801 48.8226C226.616 48.8874 224.343 49.0459 222.257 49.3812C201.533 57.2851 185.679 75.9781 182.266 99.4954C177.264 134.085 201.25 166.083 235.836 171.07C241.783 171.896 247.614 171.905 253.149 171.103C253.69 170.905 254.319 170.613 254.86 170.414C251.218 170.522 247.66 170.355 244.091 169.823C209.505 164.835 185.518 132.837 190.521 98.2482L190.427 98.1599Z" fill="#F2E14F"/>
</g>
<g style="mix-blend-mode:multiply" opacity="0.5">
<path d="M200.184 95.3192C200.184 95.3192 222.088 140.226 256.816 131.36C292.537 122.191 289.85 86.3722 289.85 86.3722C289.85 86.3722 315.463 130.349 274.41 156.623C252.41 170.76 214.11 166.521 201.88 134.63C195.069 116.7 200.184 95.3192 200.184 95.3192Z" fill="#A79700"/>
</g>
<path opacity="0.5" d="M217.927 141.261C200.338 131.76 189.008 115.058 185.739 96.75C184.887 98.7798 184.036 100.81 183.278 102.928C184.27 124.401 196.076 144.916 216.439 155.792C247.172 172.374 285.467 160.851 302.062 130.109C303.881 126.866 305.241 123.545 306.326 120.142C306.153 117.323 305.886 114.415 305.442 111.695C304.933 112.985 304.242 114.281 303.639 115.484C287.044 146.226 248.749 157.749 218.016 141.167L217.927 141.261Z" fill="#FCEC65"/>
<path opacity="0.5" d="M278.747 161.597C282.635 157.472 286.143 152.813 288.907 147.628C305.502 116.886 293.996 78.5957 263.263 62.0137C242.343 50.7896 217.885 52.5175 199.28 64.3675C218.472 44.5732 249.197 39.0149 274.654 52.7467C305.388 69.3286 316.894 107.619 300.299 138.361C295.03 148.267 287.514 156.052 278.658 161.69L278.747 161.597Z" fill="#766D1A"/>
<path opacity="0.5" d="M231.998 148.861C201.265 132.279 189.759 93.9883 206.354 63.2464C207.045 61.9503 207.741 60.8363 208.526 59.6286C225.625 52.3789 245.767 52.6013 263.356 62.1019C294.09 78.6839 305.596 116.975 289.001 147.716C288.31 149.013 287.614 150.127 286.829 151.334C269.73 158.584 249.587 158.362 231.998 148.861Z" fill="#DEC82C"/>
<g style="mix-blend-mode:overlay" opacity="0.5">
<path d="M220.607 158.128C240.881 169.098 264.528 167.667 283.066 156.639C281.751 158.41 280.249 160.003 278.747 161.597C260.053 173.54 235.595 175.268 214.764 163.95C184.03 147.369 172.524 109.078 189.119 78.336C191.971 73.0579 195.48 68.3981 199.28 64.3675C199.815 63.9872 200.262 63.7006 200.892 63.4086C198.693 66.1161 196.687 69.1823 194.962 72.5136C178.367 103.255 189.873 141.546 220.607 158.128Z" fill="#F2E14F"/>
</g>
<g style="mix-blend-mode:overlay" opacity="0.5">
<path d="M231.998 148.861C249.587 158.362 269.73 158.584 286.829 151.334C285.608 153.193 284.386 155.051 282.978 156.733C264.44 167.761 240.881 169.098 220.518 158.222C189.785 141.64 178.279 103.349 194.874 72.6073C196.692 69.3643 198.61 66.3918 200.803 63.5022C203.221 62.0638 205.733 60.7137 208.344 59.634C207.559 60.8418 206.956 62.0441 206.171 63.2519C189.577 93.9938 201.082 132.284 231.816 148.866L231.998 148.861Z" fill="#FCEC65"/>
</g>
<g style="mix-blend-mode:overlay" opacity="0.5">
<path d="M222.164 49.2928C227.792 48.5791 233.623 48.5883 239.476 49.3258C274.062 54.3132 298.049 86.3112 293.046 120.9C289.633 144.418 273.774 162.929 253.143 170.921C280.462 167.286 303.253 145.927 307.427 117.285C312.43 82.6956 288.443 50.6976 253.857 45.7102C242.786 44.1253 231.983 45.4481 222.252 49.1991L222.164 49.2928Z" fill="#766D1A"/>
</g>
<g style="mix-blend-mode:overlay" opacity="0.4">
<path d="M204.626 94.5495C199.624 129.139 223.61 161.137 258.197 166.124C259.57 166.357 261.032 166.496 262.4 166.546C278.437 157.232 290.167 140.848 293.14 120.989C298.142 86.3994 274.156 54.4014 239.57 49.414C238.196 49.1814 236.734 49.0426 235.366 48.9921C219.329 58.3058 207.599 74.6898 204.626 94.5495Z" fill="#AC9D0A"/>
</g>
<g style="mix-blend-mode:multiply" opacity="0.3">
<path d="M269.568 165.514C269.568 165.514 277.99 110.778 240.87 97.0278C202.553 82.8576 182.324 117.078 182.324 117.078C182.324 117.078 186.787 60.9115 240.785 62.954C269.699 64.0096 301.86 92.0294 292.729 128.746C287.592 149.398 269.479 165.607 269.479 165.607L269.568 165.514Z" fill="#B0A10F"/>
</g>
<g style="mix-blend-mode:multiply" opacity="0.2">
<path d="M289.553 116.722C289.553 116.722 267.555 71.7265 232.921 80.6808C197.2 89.8497 199.887 125.669 199.887 125.669C199.887 125.669 174.275 81.6918 215.327 55.4178C237.327 41.2803 275.627 45.5197 287.857 77.4109C294.668 95.3404 289.553 116.722 289.553 116.722Z" fill="#A79700"/>
</g>
<g style="mix-blend-mode:multiply" opacity="0.2">
<path d="M228.865 153.874C228.865 153.874 273.597 138.151 268.145 98.1319C262.567 56.932 222.152 55.1243 222.152 55.1243C222.152 55.1243 274.786 32.3334 298.826 81.7324C311.718 108.228 301.841 150.616 264.487 160.015C243.506 165.376 228.953 153.78 228.953 153.78L228.865 153.874Z" fill="#A79700"/>
</g>
<g style="mix-blend-mode:screen" opacity="0.5">
<path d="M211.115 57.8208C211.115 57.8208 202.693 112.556 239.813 126.307C278.129 140.477 298.264 106.167 298.264 106.167C298.264 106.167 293.713 162.428 239.804 160.292C210.89 159.236 178.729 131.217 187.86 94.5004C192.997 73.8475 211.203 57.727 211.203 57.727L211.115 57.8208Z" fill="#B0A10F"/>
</g>
<g style="mix-blend-mode:multiply" opacity="0.2">
<path d="M221.87 148.341C221.87 148.341 261.909 131.027 255.454 100.331C248.795 68.912 217.48 69.8411 217.48 69.8411C217.48 69.8411 256.877 49.2651 278.088 86.0833C289.416 105.792 284.282 139.019 256.13 148.418C240.158 153.721 221.87 148.341 221.87 148.341Z" fill="#B0A10F"/>
</g>
<g style="mix-blend-mode:overlay" opacity="0.5">
<path d="M278.544 67.3917C278.544 67.3917 238.506 84.7066 244.867 115.314C251.525 146.733 282.841 145.804 282.841 145.804C282.841 145.804 243.444 166.38 222.232 129.561C210.905 109.853 216.038 76.6263 244.19 67.2264C260.162 61.9236 278.451 67.3033 278.451 67.3033L278.544 67.3917Z" fill="#F8E861"/>
</g>
<g style="mix-blend-mode:screen" opacity="0.5">
<path d="M190.543 108.361C194.849 106.047 196.423 119.394 203.835 132.932C211.158 146.564 221.344 155.282 217.132 157.685C212.914 159.905 200.128 152.631 192.805 138.999C185.482 125.367 186.237 110.676 190.543 108.361Z" fill="white"/>
</g>
<g style="mix-blend-mode:overlay" opacity="0.4">
<path d="M264.717 58.7817C260.791 61.6315 272.033 69.0427 280.962 81.5336C289.985 94.1128 293.282 107.135 297.301 104.374C301.227 101.524 300.161 86.8864 291.138 74.3071C282.114 61.7278 268.554 56.0256 264.629 58.8754L264.717 58.7817Z" fill="#FEE078"/>
</g>
<path style="mix-blend-mode:overlay" opacity="0.3" d="M189.031 78.4296C205.625 47.6877 243.92 36.1647 274.654 52.7466C305.388 69.3285 316.894 107.619 300.299 138.361C283.704 169.103 245.409 180.626 214.675 164.044C183.941 147.462 172.436 109.172 189.031 78.4296Z" fill="url(#paint7_radial_112_1037)"/>
<path d="M415.261 246.746C444.973 228.371 483.874 237.603 502.236 267.308C520.598 297.013 511.348 335.92 481.636 354.295C451.924 372.67 413.023 363.437 394.661 333.732C376.299 304.028 385.549 265.121 415.261 246.746Z" fill="#F8E861"/>
<path opacity="0.5" d="M393.334 269.629C397.223 265.504 401.668 261.728 406.68 258.664C436.393 240.288 475.294 249.521 493.656 279.226C506.091 299.449 505.806 323.967 495.071 343.237C513.702 322.912 517.536 292.002 502.236 267.309C483.875 237.604 444.973 228.371 415.261 246.747C405.777 252.677 398.353 260.551 393.246 269.722L393.334 269.629Z" fill="#766D1A"/>
<path opacity="0.5" d="M408.799 315.546C427.16 345.251 466.062 354.484 495.774 336.109C497.027 335.343 498.098 334.582 499.258 333.728C505.488 316.231 504.081 296.137 493.562 279.138C475.2 249.433 436.299 240.2 406.587 258.575C405.334 259.341 404.262 260.102 403.103 260.956C396.872 278.453 398.279 298.547 408.799 315.546Z" fill="#DEC82C"/>
<path opacity="0.5" d="M400.218 327.463C388.074 307.87 388.11 284.179 398.029 265.025C396.339 266.442 394.836 268.035 393.334 269.629C382.511 288.992 382.225 313.51 394.749 333.639C413.111 363.344 452.013 372.577 481.725 354.202C486.826 351.043 491.271 347.267 495.159 343.143C495.507 342.586 495.767 342.122 496.022 341.477C493.448 343.831 490.505 346.014 487.281 347.932C457.569 366.307 418.668 357.075 400.306 327.37L400.218 327.463Z" fill="#F2E14F"/>
<g style="mix-blend-mode:screen" opacity="0.5">
<path d="M420.727 268.543C433.113 252.777 451.46 244.579 470.042 244.392C468.184 243.172 466.326 241.951 464.385 241.007C443.076 238.268 420.811 246.491 406.58 264.589C384.968 292.017 389.775 331.782 417.193 353.383C420.176 355.663 423.059 357.673 426.296 359.308C429.131 359.68 431.961 359.869 434.786 359.877C433.578 359.092 432.553 358.303 431.434 357.425C404.016 335.824 399.303 296.148 420.821 268.631L420.727 268.543Z" fill="#FCEC65"/>
</g>
<g style="mix-blend-mode:overlay" opacity="0.5">
<path d="M406.575 264.407C420.894 246.215 443.07 238.086 464.38 240.825C462.433 239.698 460.404 238.847 458.468 238.084C436.592 234.633 413.505 242.79 398.926 261.445C377.314 288.873 382.121 328.638 409.539 350.239C414.203 353.927 419.297 356.783 424.464 358.998C425.104 359.07 425.744 359.143 426.296 359.308C423.147 357.58 420.176 355.663 417.193 353.383C389.775 331.782 385.062 292.106 406.58 264.589L406.575 264.407Z" fill="#F2E14F"/>
</g>
<g style="mix-blend-mode:multiply" opacity="0.5">
<path d="M416.398 266.94C416.398 266.94 412.935 316.791 447.384 326.429C482.842 336.31 498.478 303.957 498.478 303.957C498.478 303.957 498.6 354.885 449.922 357.15C423.808 358.38 392.8 335.519 398.193 301.83C401.193 282.88 416.398 266.94 416.398 266.94Z" fill="#A79700"/>
</g>
<path opacity="0.5" d="M408.799 315.546C398.279 298.547 396.872 278.453 403.103 260.956C401.32 262.285 399.536 263.613 397.94 265.119C388.022 284.273 388.074 307.87 400.129 327.557C418.491 357.262 457.393 366.495 487.105 348.12C490.235 346.113 493.089 344.024 495.845 341.665C497.139 339.166 498.339 336.579 499.263 333.91C498.103 334.764 496.938 335.437 495.779 336.291C466.067 354.666 427.166 345.433 408.804 315.729L408.799 315.546Z" fill="#FCEC65"/>
<path opacity="0.5" d="M451.294 363.578C456.713 361.959 462.023 359.706 467.124 356.548C496.836 338.173 506.086 299.267 487.724 269.562C475.289 249.339 453.293 238.694 431.18 239.623C457.747 232.092 487.119 242.61 502.325 267.215C520.686 296.92 511.437 335.826 481.725 354.202C472.24 360.132 461.76 363.176 451.294 363.578Z" fill="#766D1A"/>
<path opacity="0.5" d="M417.214 329.146C398.852 299.441 408.102 260.535 437.814 242.16C439.067 241.393 440.232 240.721 441.49 240.137C459.959 242.323 477.299 252.651 487.818 269.65C506.18 299.355 496.93 338.261 467.218 356.636C465.965 357.403 464.8 358.075 463.635 358.747C445.167 356.562 427.827 346.234 417.308 329.234L417.214 329.146Z" fill="#DEC82C"/>
<g style="mix-blend-mode:overlay" opacity="0.5">
<path d="M402.707 331.581C414.851 351.174 435.936 361.847 457.431 361.573C455.45 362.361 453.286 363.154 451.206 363.672C429.092 364.601 407.097 353.955 394.661 333.733C376.299 304.028 385.549 265.122 415.261 246.746C420.362 243.588 425.672 241.335 431.091 239.717C431.638 239.7 432.366 239.679 432.912 239.663C429.578 240.946 426.349 242.682 423.213 244.506C393.501 262.881 384.252 301.788 402.613 331.492L402.707 331.581Z" fill="#F2E14F"/>
</g>
<g style="mix-blend-mode:overlay" opacity="0.5">
<path d="M417.214 329.146C427.733 346.145 445.073 356.473 463.541 358.659C461.565 359.629 459.589 360.598 457.519 361.48C436.025 361.753 414.851 351.174 402.795 331.487C384.434 301.782 393.683 262.876 423.396 244.501C426.526 242.494 429.76 240.941 433.094 239.657C435.919 239.665 438.837 239.76 441.579 240.043C440.32 240.627 439.067 241.393 437.902 242.066C408.19 260.441 398.941 299.347 417.302 329.052L417.214 329.146Z" fill="#FCEC65"/>
</g>
<g style="mix-blend-mode:overlay" opacity="0.5">
<path d="M458.468 238.084C463.724 240.206 468.73 243.156 473.482 246.75C500.9 268.351 505.613 308.027 484.095 335.544C469.333 354.205 446.336 362.267 424.459 358.816C449.826 369.453 480.232 362.355 498.153 339.592C519.765 312.163 514.958 272.398 487.54 250.798C478.776 243.951 468.717 239.603 458.468 238.084Z" fill="#766D1A"/>
</g>
<g style="mix-blend-mode:overlay" opacity="0.4">
<path d="M420.727 268.542C399.115 295.971 403.922 335.736 431.34 357.336C432.371 358.308 433.578 359.092 434.692 359.788C453.273 359.601 471.62 351.403 484.006 335.638C505.618 308.209 500.812 268.444 473.393 246.844C472.274 245.966 471.067 245.182 470.042 244.392C451.46 244.579 433.113 252.777 420.727 268.542Z" fill="#AC9D0A"/>
</g>
<g style="mix-blend-mode:multiply" opacity="0.3">
<path d="M441.42 362.413C441.42 362.413 476.146 319.197 450.745 288.699C424.678 257.218 390.082 276.832 390.082 276.832C390.082 276.832 422.164 230.415 467.83 259.127C492.243 274.53 506.086 314.847 480.005 342.135C465.33 357.512 441.42 362.413 441.42 362.413Z" fill="#B0A10F"/>
</g>
<g style="mix-blend-mode:multiply" opacity="0.2">
<path d="M483.119 330.197C483.119 330.197 486.582 280.347 452.133 270.709C416.675 260.827 401.038 293.181 401.038 293.181C401.038 293.181 400.916 242.252 449.595 239.988C475.708 238.757 506.717 261.618 501.324 295.308C498.324 314.257 483.119 330.197 483.119 330.197Z" fill="#A79700"/>
</g>
<g style="mix-blend-mode:multiply" opacity="0.2">
<path d="M412.102 331.94C412.102 331.94 458.64 340.582 473.951 303.318C489.771 264.763 455.605 242.998 455.605 242.998C455.605 242.998 512.561 249.6 508.607 304.476C506.457 333.787 476.775 365.646 439.75 355.174C418.897 349.323 412.014 332.034 412.014 332.034L412.102 331.94Z" fill="#A79700"/>
</g>
<g style="mix-blend-mode:screen" opacity="0.5">
<path d="M444.58 239.863C444.58 239.863 409.854 283.079 435.255 313.577C461.322 345.058 495.918 325.444 495.918 325.444C495.918 325.444 463.836 371.862 418.17 343.149C393.757 327.746 379.914 287.429 405.995 260.142C420.764 244.852 444.58 239.863 444.58 239.863Z" fill="#B0A10F"/>
</g>
<g style="mix-blend-mode:multiply" opacity="0.2">
<path d="M408.674 323.75C408.674 323.75 452.004 328.661 461.708 299.034C471.748 268.487 444.163 253.634 444.163 253.634C444.163 253.634 488.495 255.416 488.554 297.964C488.58 320.651 467.482 346.971 438.331 340.911C421.922 337.48 408.674 323.75 408.674 323.75Z" fill="#B0A10F"/>
</g>
<g style="mix-blend-mode:overlay" opacity="0.5">
<path d="M498.292 282.004C498.292 282.004 454.962 277.094 445.259 306.72C435.218 337.268 462.804 352.121 462.804 352.121C462.804 352.121 418.471 350.338 418.412 307.79C418.475 285.01 439.484 258.784 468.635 264.843C485.044 268.274 498.292 282.004 498.292 282.004Z" fill="#F8E861"/>
</g>
<g style="mix-blend-mode:screen" opacity="0.5">
<path d="M401.644 273.391C406.477 273.521 401.283 285.975 400.825 301.478C400.367 316.981 404.839 329.695 400.094 329.472C395.262 329.342 387.965 316.62 388.423 301.117C388.881 285.614 396.905 273.349 401.738 273.479L401.644 273.391Z" fill="white"/>
</g>
<path style="mix-blend-mode:overlay" opacity="0.3" d="M415.261 246.746C444.973 228.371 483.874 237.603 502.236 267.308C520.598 297.013 511.348 335.92 481.636 354.295C451.924 372.67 413.023 363.437 394.661 333.732C376.299 304.028 385.549 265.121 415.261 246.746Z" fill="url(#paint8_radial_112_1037)"/>
</g>
<defs>
<filter id="filter0_d_112_1037" x="-46" y="-26.0001" width="607.843" height="605.609" filterUnits="userSpaceOnUse" color-interpolation-filters="sRGB">
<feFlood flood-opacity="0" result="BackgroundImageFix"/>
<feColorMatrix in="SourceAlpha" type="matrix" values="0 0 0 0 0 0 0 0 0 0 0 0 0 0 0 0 0 0 127 0" result="hardAlpha"/>
<feOffset dx="-11" dy="-10"/>
<feGaussianBlur stdDeviation="17.5"/>
<feComposite in2="hardAlpha" operator="out"/>
<feColorMatrix type="matrix" values="0 0 0 0 0 0 0 0 0 0 0 0 0 0 0 0 0 0 0.3 0"/>
<feBlend mode="normal" in2="BackgroundImageFix" result="effect1_dropShadow_112_1037"/>
<feBlend mode="normal" in="SourceGraphic" in2="effect1_dropShadow_112_1037" result="shape"/>
</filter>
<radialGradient id="paint0_radial_112_1037" cx="0" cy="0" r="1" gradientUnits="userSpaceOnUse" gradientTransform="translate(341.035 214.204) rotate(-132.475) scale(69.7 69.7303)">
<stop offset="0.05" stop-color="white"/>
<stop offset="0.53" stop-color="#354058"/>
<stop offset="0.72" stop-color="#0D0D0D"/>
<stop offset="0.8" stop-color="#0D0D0D"/>
<stop offset="0.89" stop-color="#1E1E1E"/>
<stop offset="1" stop-color="#3A4661"/>
</radialGradient>
<linearGradient id="paint1_linear_112_1037" x1="326.899" y1="244.43" x2="320.794" y2="234.196" gradientUnits="userSpaceOnUse">
<stop offset="0.02" stop-color="#657BA9"/>
<stop offset="0.26" stop-color="#1C1C1C"/>
<stop offset="0.62" stop-color="white"/>
<stop offset="1" stop-color="#4A597B"/>
</linearGradient>
<radialGradient id="paint2_radial_112_1037" cx="0" cy="0" r="1" gradientUnits="userSpaceOnUse" gradientTransform="translate(257.833 269.64) rotate(-136.687) scale(90.0144 90.0539)">
<stop offset="0.05" stop-color="white"/>
<stop offset="0.53" stop-color="#354058"/>
<stop offset="0.72" stop-color="#0D0D0D"/>
<stop offset="0.8" stop-color="#0D0D0D"/>
<stop offset="0.89" stop-color="#1E1E1E"/>
<stop offset="1" stop-color="#3A4661"/>
</radialGradient>
<linearGradient id="paint3_linear_112_1037" x1="235.48" y1="333.444" x2="224.33" y2="322.933" gradientUnits="userSpaceOnUse">
<stop offset="0.02" stop-color="#657BA9"/>
<stop offset="0.26" stop-color="#1C1C1C"/>
<stop offset="0.62" stop-color="white"/>
<stop offset="1" stop-color="#4A597B"/>
</linearGradient>
<linearGradient id="paint4_linear_112_1037" x1="273.938" y1="178.261" x2="259.105" y2="182.704" gradientUnits="userSpaceOnUse">
<stop offset="0.02" stop-color="#657BA9"/>
<stop offset="0.26" stop-color="#1C1C1C"/>
<stop offset="0.62" stop-color="white"/>
<stop offset="1" stop-color="#4A597B"/>
</linearGradient>
<linearGradient id="paint5_linear_112_1037" x1="373.502" y1="290.38" x2="376.955" y2="275.38" gradientUnits="userSpaceOnUse">
<stop offset="0.02" stop-color="#657BA9"/>
<stop offset="0.26" stop-color="#1C1C1C"/>
<stop offset="0.62" stop-color="white"/>
<stop offset="1" stop-color="#4A597B"/>
</linearGradient>
<radialGradient id="paint6_radial_112_1037" cx="0" cy="0" r="1" gradientUnits="userSpaceOnUse" gradientTransform="translate(154.472 379.272) rotate(-136.687) scale(90.0144 90.0539)">
<stop offset="0.05" stop-color="white"/>
<stop offset="0.53" stop-color="#354058"/>
<stop offset="0.72" stop-color="#0D0D0D"/>
<stop offset="0.8" stop-color="#0D0D0D"/>
<stop offset="0.89" stop-color="#1E1E1E"/>
<stop offset="1" stop-color="#3A4661"/>
</radialGradient>
<radialGradient id="paint7_radial_112_1037" cx="0" cy="0" r="1" gradientUnits="userSpaceOnUse" gradientTransform="translate(211.315 124.238) rotate(-151.693) scale(99.1238 99.1615)">
<stop offset="0.05" stop-color="white"/>
<stop offset="0.53" stop-color="#354058"/>
<stop offset="0.72" stop-color="#0D0D0D"/>
<stop offset="0.8" stop-color="#0D0D0D"/>
<stop offset="0.89" stop-color="#1E1E1E"/>
<stop offset="1" stop-color="#3A4661"/>
</radialGradient>
<radialGradient id="paint8_radial_112_1037" cx="0" cy="0" r="1" gradientUnits="userSpaceOnUse" gradientTransform="translate(411.804 297.169) rotate(-121.68) scale(99.1238 99.1615)">
<stop offset="0.05" stop-color="white"/>
<stop offset="0.53" stop-color="#354058"/>
<stop offset="0.72" stop-color="#0D0D0D"/>
<stop offset="0.8" stop-color="#0D0D0D"/>
<stop offset="0.89" stop-color="#1E1E1E"/>
<stop offset="1" stop-color="#3A4661"/>
</radialGradient>
</defs>
</svg>
