<svg width="308" height="406" viewBox="0 0 308 406" fill="none" xmlns="http://www.w3.org/2000/svg">
<g filter="url(#filter0_df_115_1190)">
<path d="M136.28 319.943C115.58 362.269 64.1072 379.891 21.8109 358.952C-20.5256 338.253 -38.1957 287.031 -17.2147 244.505C3.48524 202.179 54.9583 184.557 97.2546 205.496C139.591 226.195 157.221 277.658 136.28 319.943Z" fill="#8F7CB9"/>
<path opacity="0.5" d="M145.058 277.85C143.768 285.555 141.315 292.817 137.618 300.119C116.918 342.444 65.4445 360.067 23.1482 339.127C-5.66466 324.9 -22.9881 296.754 -24.6551 266.773C-31.3018 303.531 -13.4227 341.67 21.811 358.952C64.1475 379.651 115.58 362.269 136.28 319.943C142.993 306.464 145.691 291.817 144.817 277.81L145.058 277.85Z" fill="#2C166E"/>
<path opacity="0.5" d="M94.0638 236.397C51.7272 215.698 0.294405 233.079 -20.4055 275.405C-21.2095 277.251 -21.9732 278.855 -22.7773 280.701C-17.4942 305.346 -1.33077 327.11 23.1482 339.127C65.4848 359.826 116.918 342.445 137.617 300.119C138.422 298.273 139.185 296.668 139.949 295.064C134.666 270.418 118.502 248.655 94.0235 236.637L94.0638 236.397Z" fill="#AB9CBB"/>
<path opacity="0.5" d="M95.4011 216.572C123.532 230.438 140.575 257.299 142.885 286.397C143.85 283.588 144.334 280.699 145.058 277.85C143.391 247.87 126.067 219.724 97.2546 205.496C54.918 184.798 3.72604 202.219 -17.2147 244.505C-20.6716 251.847 -23.1651 259.35 -24.6551 266.773C-24.776 267.496 -24.4555 268.539 -24.5764 269.262C-23.2888 264.527 -21.5599 260.114 -19.3091 255.54C1.39084 213.214 52.8639 195.592 95.1602 216.531L95.4011 216.572Z" fill="#7C67B4"/>
<g style="mix-blend-mode:screen" opacity="0.5">
<path d="M114.537 298.979C111.75 325.986 96.5617 348.691 75.4786 362.241C78.4088 362.484 81.4196 362.245 84.4304 362.006C110.972 349.865 130.336 324.394 133.808 293.293C138.695 246.341 104.642 204.257 57.6786 199.368C52.8218 198.803 47.8844 198.719 43.1072 199.157C39.6138 200.8 36.3613 202.483 33.0281 204.648C34.995 204.73 36.7211 204.771 38.6477 205.093C85.6106 209.983 119.664 252.067 114.777 299.019L114.537 298.979Z" fill="#9483BB"/>
</g>
<g style="mix-blend-mode:overlay" opacity="0.5">
<path d="M133.568 293.253C130.336 324.394 110.771 349.584 84.1895 361.966C87.2003 361.727 90.2111 361.489 93.0214 360.969C120.486 349.229 141.175 323.238 144.527 291.375C149.414 244.422 115.361 202.339 68.3977 197.449C60.3698 196.601 52.3813 196.996 44.9945 198.235C44.1914 198.596 43.3883 198.956 42.5853 199.317C47.3624 198.879 52.2998 198.963 57.1566 199.528C104.12 204.418 138.173 246.501 133.286 293.453L133.568 293.253Z" fill="#7C67B4"/>
</g>
<g style="mix-blend-mode:multiply" opacity="0.5">
<path d="M120.438 297.739C120.438 297.739 88.3224 238.158 41.9497 251.931C-5.98873 266.185 -0.439577 314.388 -0.439577 314.388C-0.439577 314.388 -37.253 256.25 16.8421 218.523C45.9578 198.396 97.8187 202.125 115.976 244.519C126.077 268.486 120.238 297.458 120.238 297.458L120.438 297.739Z" fill="#061E83"/>
</g>
<path opacity="0.5" d="M94.0638 236.397C118.543 248.414 134.425 270.378 139.989 294.823C141.195 292.055 142.16 289.246 142.885 286.397C140.575 257.299 123.291 230.397 95.4011 216.572C53.0645 195.873 1.63169 213.254 -19.0682 255.58C-21.3191 260.154 -23.048 264.567 -24.3355 269.302C-23.9766 273.075 -23.3769 276.888 -22.5364 280.741C-21.7324 278.896 -20.9687 277.291 -20.1647 275.445C0.535262 233.12 52.0084 215.498 94.3046 236.437L94.0638 236.397Z" fill="#9483BB"/>
<path opacity="0.5" d="M10.7447 212.057C5.56267 217.873 1.2634 224.331 -2.394 231.392C-23.0939 273.718 -5.70495 325.141 36.6316 345.839C65.4445 360.067 98.4836 356.438 123.142 339.279C98.1959 367.033 57.0446 376.234 21.811 358.952C-20.5256 338.254 -38.1957 287.031 -17.2147 244.505C-10.5024 231.025 -0.740977 220.035 10.785 211.816L10.7447 212.057Z" fill="#2C166E"/>
<path opacity="0.5" d="M74.601 226.951C116.938 247.65 134.567 299.113 113.627 341.399C112.823 343.244 111.818 344.809 111.054 346.413C88.2068 357.193 61.1106 357.856 36.6316 345.839C-5.70494 325.14 -23.375 273.918 -2.39399 231.392C-1.63028 229.787 -0.585443 227.982 0.178271 226.377C23.0259 215.597 50.1221 214.934 74.3602 226.911L74.601 226.951Z" fill="#AB9CBB"/>
<g style="mix-blend-mode:overlay" opacity="0.5">
<path d="M89.4217 213.838C61.291 199.973 29.5769 203.08 5.12038 219.036C6.76775 216.589 8.65595 214.183 10.7447 212.057C35.4027 194.897 68.4015 191.51 97.2547 205.496C139.832 226.235 157.261 277.417 136.28 319.944C132.823 327.285 128.283 333.704 123.142 339.278C122.579 339.679 121.736 340.281 120.933 340.641C123.826 336.67 126.237 332.619 128.488 328.045C149.228 285.478 131.799 234.296 89.462 213.598L89.4217 213.838Z" fill="#7C67B4"/>
</g>
<g style="mix-blend-mode:overlay" opacity="0.5">
<path d="M74.601 226.951C50.3629 214.975 23.0258 215.597 0.419066 226.417C1.8659 223.689 3.51328 221.242 5.40147 218.836C29.858 202.88 61.7726 200.053 89.7028 213.638C132.039 234.336 149.709 285.559 128.728 328.085C126.478 332.659 124.066 336.71 121.174 340.682C117.841 342.846 114.548 344.77 111.095 346.173C112.099 344.608 112.863 343.003 113.667 341.158C134.367 298.832 116.938 247.65 74.6413 226.711L74.601 226.951Z" fill="#9483BB"/>
</g>
<g style="mix-blend-mode:overlay" opacity="0.5">
<path d="M93.0214 360.969C85.3937 362.168 77.6461 362.604 69.6182 361.755C22.6553 356.866 -11.3985 314.782 -6.51156 267.83C-3.15957 235.966 17.2892 209.935 44.9945 198.235C8.34114 204.229 -21.4633 234.388 -25.743 273.274C-30.6299 320.227 3.42385 362.31 50.3868 367.2C65.4792 368.735 79.9718 366.458 93.0617 360.728L93.0214 360.969Z" fill="#2C166E"/>
</g>
<g style="mix-blend-mode:overlay" opacity="0.4">
<path d="M114.537 298.979C119.424 252.026 85.3698 209.943 38.4069 205.053C36.4803 204.731 34.5133 204.649 32.7873 204.608C11.4634 218.118 -3.48386 240.863 -6.27079 267.87C-11.1577 314.822 22.8961 356.906 69.859 361.796C71.7856 362.118 73.7525 362.2 75.4786 362.241C96.8025 348.731 111.75 325.986 114.537 298.979Z" fill="#141D75"/>
</g>
<g style="mix-blend-mode:multiply" opacity="0.3">
<path d="M23.1121 206.206C23.1121 206.206 14.6352 280.527 65.5244 297.459C118.099 314.673 143.62 267.214 143.62 267.214C143.62 267.214 140.28 343.384 67.2212 343.533C28.1231 343.425 -16.8129 307.193 -6.46468 257.194C-0.746612 228.945 23.1121 206.206 23.1121 206.206Z" fill="#1C2079"/>
</g>
<g style="mix-blend-mode:multiply" opacity="0.2">
<path d="M-1.45709 273.131C-1.45709 273.131 30.6588 332.711 77.0314 318.938C124.729 304.645 119.461 256.24 119.461 256.24C119.461 256.24 156.274 314.379 102.179 352.106C73.0637 372.232 21.2027 368.503 3.04534 326.11C-7.05522 302.143 -1.21627 273.171 -1.21627 273.171L-1.45709 273.131Z" fill="#061E83"/>
</g>
<g style="mix-blend-mode:multiply" opacity="0.2">
<path d="M78.4992 219.931C78.4992 219.931 18.8333 243.607 28.1523 297.392C37.6708 352.943 92.5848 353.223 92.5848 353.223C92.5848 353.223 22.5962 386.805 -12.4462 321.042C-31.0899 285.993 -20.1748 228.169 29.8112 213.515C57.9157 205.348 78.2181 220.131 78.2181 220.131L78.4992 219.931Z" fill="#061E83"/>
</g>
<g style="mix-blend-mode:screen" opacity="0.5">
<path d="M107.681 348.819C107.681 348.819 116.198 274.258 65.2687 257.566C12.6937 240.352 -12.8265 287.812 -12.8265 287.812C-12.8265 287.812 -9.48657 211.641 63.5315 211.733C102.63 211.841 147.566 248.073 137.217 298.072C131.499 326.321 107.641 349.06 107.641 349.06L107.681 348.819Z" fill="#1C2079"/>
</g>
<g style="mix-blend-mode:multiply" opacity="0.2">
<path d="M88.2091 227.001C88.2091 227.001 34.9246 252.488 45.1348 293.552C55.6654 335.659 97.9767 332.839 97.9767 332.839C97.9767 332.839 45.9339 362.742 15.216 314.038C-1.22564 288.021 4.10173 242.875 41.6435 228.614C62.7631 220.763 87.9683 226.961 87.9683 226.961L88.2091 227.001Z" fill="#1C2079"/>
</g>
<g style="mix-blend-mode:overlay" opacity="0.5">
<path d="M15.9225 339.403C15.9225 339.403 69.207 313.916 58.9968 272.853C48.4662 230.746 6.15485 233.565 6.15485 233.565C6.15485 233.565 58.4385 203.703 88.9155 252.366C105.357 278.384 100.03 323.53 62.2473 337.75C41.0874 345.842 15.9225 339.403 15.9225 339.403Z" fill="#8F7CB9"/>
</g>
<g style="mix-blend-mode:screen" opacity="0.5">
<path d="M132.653 279.487C127.152 282.774 123.951 264.912 113.365 246.805C102.78 228.697 88.5764 217.41 94.078 214.123C99.5795 210.836 117.316 220.239 127.943 238.106C138.529 256.214 138.195 275.959 132.653 279.487Z" fill="white"/>
</g>
<g style="mix-blend-mode:overlay" opacity="0.4">
<path d="M35.1436 350.293C40.2843 346.203 24.7553 336.921 11.9204 320.417C-0.914579 303.913 -6.1621 286.452 -11.3029 290.542C-16.4436 294.632 -14.2884 314.298 -1.45348 330.802C11.3815 347.306 30.0028 354.383 35.1436 350.293Z" fill="#AB9CBB"/>
</g>
<path style="mix-blend-mode:overlay" opacity="0.3" d="M136.28 319.943C115.58 362.269 64.1072 379.891 21.8109 358.952C-20.5256 338.253 -38.1957 287.031 -17.2147 244.505C3.48524 202.179 54.9583 184.557 97.2546 205.496C139.591 226.195 157.221 277.658 136.28 319.943Z" fill="url(#paint0_radial_115_1190)"/>
<path d="M153.606 154.286C148.551 150.47 141.485 151.268 137.669 156.322L78.5713 232.814C74.7546 237.868 75.553 244.932 80.6084 248.748C85.6639 252.564 92.7294 251.767 96.5461 246.713L155.603 170.461C159.42 165.407 158.381 158.303 153.566 154.527L153.606 154.286Z" fill="url(#paint1_linear_115_1190)"/>
<path d="M261.574 176.316C238.738 232.887 174.493 260.253 117.907 237.417C61.3219 214.581 33.9457 150.349 56.7822 93.7771C79.5784 37.4464 143.823 10.081 200.408 32.9168C256.994 55.7525 284.37 119.985 261.534 176.556L261.574 176.316Z" fill="#8F7CB9"/>
<path opacity="0.5" d="M268.794 121.338C267.624 131.291 265.49 141.082 261.389 150.791C238.553 207.362 174.309 234.728 117.723 211.892C79.2368 196.293 54.3306 161.681 49.3774 123.23C44.0884 171.105 71.0336 218.682 117.907 237.417C174.493 260.253 238.738 232.887 261.574 176.316C268.811 158.221 270.991 139.279 268.553 121.298L268.794 121.338Z" fill="#2C166E"/>
<path opacity="0.5" d="M199.379 73.0892C142.794 50.2534 78.5493 77.6188 55.7128 134.19C54.8282 136.517 53.9436 138.844 53.3402 140.971C62.7538 172.001 85.4973 198.826 117.964 211.932C174.549 234.768 238.794 207.403 261.63 150.831C262.515 148.504 263.399 146.177 264.284 143.85C255.111 112.86 232.127 85.9951 199.66 72.8887L199.379 73.0892Z" fill="#AB9CBB"/>
<path opacity="0.5" d="M198.994 47.2833C236.317 62.4399 260.983 95.5271 266.9 132.654C267.545 128.802 268.15 125.191 268.794 121.338C263.841 82.8872 238.935 48.2748 200.408 32.9166C143.823 10.0808 79.5783 37.4462 56.7418 94.0177C52.882 103.767 50.5075 113.518 49.3371 123.47C49.4167 124.474 49.6969 125.758 49.7765 126.761C51.0247 120.782 52.7949 114.643 55.2875 108.625C78.1643 51.8129 142.649 24.4878 198.994 47.2833Z" fill="#7C67B4"/>
<g style="mix-blend-mode:screen" opacity="0.5">
<path d="M231.564 151.492C230.417 186.447 213.177 216.976 187.153 236.382C191.127 236.305 194.901 235.946 198.714 235.347C231.482 217.07 254.344 182.531 255.614 142.399C257.379 81.5584 209.482 30.4751 148.628 28.7062C142.205 28.6214 135.983 28.8177 129.64 29.7362C125.263 32.2214 121.127 34.7468 117.151 37.7941C119.64 37.7156 122.129 37.6371 124.577 37.7994C185.391 39.8091 233.328 90.6516 231.323 151.452L231.564 151.492Z" fill="#9483BB"/>
</g>
<g style="mix-blend-mode:overlay" opacity="0.5">
<path d="M255.614 142.399C254.304 182.772 231.723 217.11 198.714 235.347C202.528 234.748 206.342 234.148 209.955 233.268C244.368 215.514 268.356 180.173 269.586 138.797C271.391 77.7155 223.694 26.9133 162.64 24.8633C152.283 24.6152 142.207 25.6515 132.652 28.0126C131.568 28.5736 130.765 28.9343 129.921 29.5357C136.023 28.5768 142.486 28.4209 148.909 28.5057C209.723 30.5153 257.66 81.3579 255.895 142.198L255.614 142.399Z" fill="#7C67B4"/>
</g>
<g style="mix-blend-mode:multiply" opacity="0.5">
<path d="M239.112 149.29C239.112 149.29 192.273 75.6127 133.852 97.7649C73.5846 120.598 85.3071 182.211 85.3071 182.211C85.3071 182.211 32.4052 110.736 98.5529 57.2054C134.057 28.4952 201.174 28.3422 228.718 81.217C244.033 111.007 239.393 149.09 239.393 149.09L239.112 149.29Z" fill="#061E83"/>
</g>
<path opacity="0.5" d="M199.379 73.0892C231.846 86.1956 254.63 112.78 264.003 144.05C265.129 140.279 266.215 136.748 267.101 132.936C261.183 95.8082 236.758 62.7613 199.195 47.5644C142.649 24.4878 78.1642 51.8129 55.5686 108.425C53.076 114.443 51.3461 120.341 50.0576 126.561C50.737 131.377 51.898 136.275 53.3401 140.971C54.2247 138.644 54.8685 136.277 55.7128 134.19C78.5493 77.6188 142.794 50.2534 199.379 73.0892Z" fill="#9483BB"/>
<path opacity="0.5" d="M89.9675 49.3332C83.9412 57.2352 78.7573 66.0207 74.9378 75.5295C52.1013 132.101 79.4775 196.333 136.063 219.169C174.549 234.768 216.462 226.932 246.785 202.552C217.377 240.698 165.263 256.233 118.148 237.457C61.5626 214.621 34.1865 150.389 57.0229 93.8175C64.26 75.7226 75.9508 60.6007 90.0078 49.0924L89.9675 49.3332Z" fill="#2C166E"/>
<path opacity="0.5" d="M173.414 62.5561C230 85.3918 257.376 149.624 234.539 206.196C233.655 208.523 232.529 210.81 231.685 212.896C203.495 228.969 168.53 232.276 136.023 219.41C79.4372 196.574 52.061 132.342 74.8975 75.7703C75.7821 73.4432 76.9075 71.1564 77.7519 69.0701C105.942 52.9967 140.907 49.6904 173.414 62.5561Z" fill="#AB9CBB"/>
<g style="mix-blend-mode:overlay" opacity="0.5">
<path d="M191.329 44.2678C154.007 29.1112 113.218 36.1457 83.1775 58.8397C85.1866 55.7108 87.4768 52.3813 89.6864 49.5335C120.009 25.154 161.922 17.3176 200.408 32.9166C256.994 55.7523 284.37 119.985 261.534 176.556C257.714 186.065 252.49 195.091 246.504 202.753C245.661 203.354 244.777 204.196 243.934 204.798C247.309 199.422 249.962 193.926 252.454 187.908C275.291 131.336 247.915 67.1036 191.329 44.2678Z" fill="#7C67B4"/>
</g>
<g style="mix-blend-mode:overlay" opacity="0.5">
<path d="M173.414 62.5559C140.948 49.4495 105.942 52.9965 77.7519 69.0699C79.5604 65.6599 81.369 62.2498 83.4184 58.8801C113.218 36.1457 154.007 29.1112 191.329 44.2679C247.915 67.1037 275.291 131.336 252.454 187.908C249.962 193.926 247.068 199.382 243.934 204.798C239.958 207.845 235.781 210.611 231.685 212.896C232.77 210.85 233.655 208.523 234.54 206.196C257.376 149.624 230 85.3917 173.414 62.5559Z" fill="#9483BB"/>
</g>
<g style="mix-blend-mode:overlay" opacity="0.5">
<path d="M209.955 233.268C200.4 235.629 190.284 236.906 179.727 236.377C118.913 234.367 70.9756 183.525 72.9811 122.725C74.2116 81.3483 98.1987 46.008 132.612 28.2534C85.8388 39.9793 50.4476 81.3314 48.9303 131.818C46.9248 192.618 94.8218 243.701 155.676 245.47C175.144 246.006 193.693 241.685 209.715 233.228L209.955 233.268Z" fill="#2C166E"/>
</g>
<g style="mix-blend-mode:overlay" opacity="0.4">
<path d="M231.564 151.492C233.569 90.6919 185.672 39.6086 124.818 37.8397C122.369 37.6774 119.881 37.7559 117.392 37.8344C91.3675 57.2404 74.1272 87.7695 72.9811 122.725C70.9756 183.525 118.873 234.608 179.727 236.377C182.175 236.539 184.664 236.461 187.153 236.382C213.177 216.976 230.417 186.447 231.564 151.492Z" fill="#141D75"/>
</g>
<g style="mix-blend-mode:multiply" opacity="0.3">
<path d="M104.986 40.956C104.986 40.956 100.951 137.554 168.218 154.257C237.371 171.523 265.792 108.213 265.792 108.213C265.792 108.213 268.901 206.501 174.884 213.538C124.504 217.235 63.2739 174.811 71.7452 109.4C76.425 72.5607 104.986 40.956 104.986 40.956Z" fill="#1C2079"/>
</g>
<g style="mix-blend-mode:multiply" opacity="0.2">
<path d="M79.801 129.311C79.801 129.311 126.64 202.989 185.061 180.837C245.328 158.004 233.606 96.3909 233.606 96.3909C233.606 96.3909 286.507 167.865 220.36 221.396C184.856 250.106 117.739 250.259 90.1948 197.385C74.8795 167.595 79.5199 129.512 79.5199 129.512L79.801 129.311Z" fill="#061E83"/>
</g>
<g style="mix-blend-mode:multiply" opacity="0.2">
<path d="M177.675 53.3685C177.675 53.3685 103.069 89.3953 120.367 157.634C138.024 228.16 208.637 223.394 208.637 223.394C208.637 223.394 121.578 273.178 70.2877 192.073C42.8984 148.629 51.5768 73.1048 114.695 49.5112C150.108 36.1318 177.675 53.3685 177.675 53.3685Z" fill="#061E83"/>
</g>
<g style="mix-blend-mode:screen" opacity="0.5">
<path d="M227.388 216.384C227.388 216.384 231.423 119.787 164.156 103.084C95.0023 85.8177 66.5415 149.368 66.5415 149.368C66.5415 149.368 63.4326 51.0802 157.449 44.0433C207.83 40.3466 269.06 82.7706 260.588 148.182C255.668 184.98 227.348 216.625 227.348 216.625L227.388 216.384Z" fill="#1C2079"/>
</g>
<g style="mix-blend-mode:multiply" opacity="0.2">
<path d="M190.957 61.2841C190.957 61.2841 124.94 99.2433 142.007 151.107C159.555 204.537 213.832 196.79 213.832 196.79C213.832 196.79 149.658 240.008 105.419 180.379C81.796 148.456 84.2017 89.7029 131.382 68.1447C157.964 55.7624 190.917 61.5248 190.917 61.5248L190.957 61.2841Z" fill="#1C2079"/>
</g>
<g style="mix-blend-mode:overlay" opacity="0.5">
<path d="M108.409 212.808C108.409 212.808 174.427 174.849 157.359 122.985C139.811 69.5555 85.5342 77.3028 85.5342 77.3028C85.5342 77.3028 149.749 33.844 193.947 93.7139C217.57 125.636 215.165 184.39 167.944 206.189C141.362 218.571 108.409 212.808 108.409 212.808Z" fill="#8F7CB9"/>
</g>
<g style="mix-blend-mode:screen" opacity="0.5">
<path d="M253.096 124.899C246.109 129.67 240.503 106.951 225.143 84.8263C209.783 62.7021 190.242 49.2837 197.23 44.5129C204.218 39.742 227.734 50.113 243.094 72.2372C258.455 94.3615 259.843 120.088 253.096 124.899Z" fill="white"/>
</g>
<g style="mix-blend-mode:overlay" opacity="0.4">
<path d="M134.052 225.268C140.198 219.614 119.451 208.964 101.279 188.844C83.1078 168.724 74.8927 146.806 68.5065 152.42C62.3612 158.074 67.0418 183.362 84.9725 203.441C103.144 223.561 127.666 230.882 134.052 225.268Z" fill="#AB9CBB"/>
</g>
<path style="mix-blend-mode:overlay" opacity="0.3" d="M261.574 176.316C238.738 232.887 174.493 260.253 117.907 237.417C61.3219 214.581 33.9457 150.349 56.7822 93.7771C79.5784 37.4464 143.823 10.081 200.408 32.9168C256.994 55.7525 284.37 119.985 261.534 176.556L261.574 176.316Z" fill="url(#paint2_radial_115_1190)"/>
</g>
<defs>
<filter id="filter0_df_115_1190" x="-57" y="-18" width="381.345" height="453.064" filterUnits="userSpaceOnUse" color-interpolation-filters="sRGB">
<feFlood flood-opacity="0" result="BackgroundImageFix"/>
<feColorMatrix in="SourceAlpha" type="matrix" values="0 0 0 0 0 0 0 0 0 0 0 0 0 0 0 0 0 0 127 0" result="hardAlpha"/>
<feOffset dx="10" dy="10"/>
<feGaussianBlur stdDeviation="14"/>
<feComposite in2="hardAlpha" operator="out"/>
<feColorMatrix type="matrix" values="0 0 0 0 0 0 0 0 0 0 0 0 0 0 0 0 0 0 0.4 0"/>
<feBlend mode="normal" in2="BackgroundImageFix" result="effect1_dropShadow_115_1190"/>
<feBlend mode="normal" in="SourceGraphic" in2="effect1_dropShadow_115_1190" result="shape"/>
<feGaussianBlur stdDeviation="6" result="effect2_foregroundBlur_115_1190"/>
</filter>
<radialGradient id="paint0_radial_115_1190" cx="0" cy="0" r="1" gradientUnits="userSpaceOnUse" gradientTransform="translate(102.747 259.226) rotate(26.1372) scale(134.157 134.131)">
<stop offset="0.05" stop-color="white"/>
<stop offset="0.53" stop-color="#170D31"/>
<stop offset="0.72" stop-color="#0D0D0D"/>
<stop offset="0.8" stop-color="#0D0D0D"/>
<stop offset="0.89" stop-color="#1E1E1E"/>
<stop offset="1" stop-color="#1C103B"/>
</radialGradient>
<linearGradient id="paint1_linear_115_1190" x1="108.404" y1="194.412" x2="126.338" y2="208.597" gradientUnits="userSpaceOnUse">
<stop offset="0.02" stop-color="#594F73"/>
<stop offset="0.26" stop-color="#1C1C1C"/>
<stop offset="0.62" stop-color="white"/>
<stop offset="1" stop-color="#302451"/>
</linearGradient>
<radialGradient id="paint2_radial_115_1190" cx="0" cy="0" r="1" gradientUnits="userSpaceOnUse" gradientTransform="translate(213.119 101.942) rotate(21.928) scale(173.343 173.307)">
<stop offset="0.05" stop-color="white"/>
<stop offset="0.53" stop-color="#170D31"/>
<stop offset="0.72" stop-color="#0D0D0D"/>
<stop offset="0.8" stop-color="#0D0D0D"/>
<stop offset="0.89" stop-color="#1E1E1E"/>
<stop offset="1" stop-color="#1C103B"/>
</radialGradient>
</defs>
</svg>
