<svg width="311" height="463" viewBox="0 0 311 463" fill="none" xmlns="http://www.w3.org/2000/svg">
<g filter="url(#filter0_d_115_1246)">
<path d="M159.785 370.889C174.554 420.551 227.187 449.006 276.866 433.973C326.545 419.209 355.01 366.863 339.972 316.932C325.203 267.271 272.57 238.816 222.891 253.848C173.212 268.613 144.747 321.228 159.785 370.889Z" fill="#D4C454"/>
<path opacity="0.5" d="M157.905 323.644C157.905 332.234 159.248 340.555 161.933 349.146C176.703 398.807 229.335 427.262 279.015 412.23C312.85 402.029 336.75 374.648 344 342.435C344.537 383.506 318.221 421.625 276.866 433.973C227.187 448.738 174.554 420.551 159.785 370.889C154.951 355.051 154.683 338.676 158.174 323.644H157.905Z" fill="#D3C500"/>
<path opacity="0.5" d="M220.742 287.941C270.421 273.176 323.054 301.363 337.824 351.025C338.361 353.172 338.898 355.051 339.435 357.199C329.231 382.969 307.748 403.64 279.015 412.23C229.335 426.994 176.703 398.808 161.933 349.146C161.396 346.998 160.859 345.119 160.322 343.24C170.526 317.469 192.009 296.799 220.742 288.209V287.941Z" fill="#CEBA79"/>
<path opacity="0.5" d="M222.891 266.197C189.861 276.129 166.498 302.168 158.711 333.307C158.174 330.086 158.174 326.865 157.905 323.644C165.156 291.43 189.055 264.049 222.891 253.848C272.57 239.084 324.934 267.271 339.972 316.932C342.389 325.523 343.731 334.113 344 342.435C344 343.24 343.463 344.314 343.463 345.119C342.926 339.75 341.852 334.65 340.241 329.281C325.471 279.619 272.838 251.164 223.159 266.197H222.891Z" fill="#CFBC4B"/>
<g style="mix-blend-mode:screen" opacity="0.5">
<path d="M187.175 352.098C185.296 381.895 197.648 409.277 218.057 427.799C214.835 427.531 211.612 426.725 208.39 425.92C181.805 407.934 165.424 376.795 167.304 342.434C170.526 290.625 215.103 251.164 266.93 254.385C272.301 254.654 277.672 255.459 282.774 256.801C286.265 259.217 289.487 261.633 292.71 264.586C290.561 264.318 288.682 264.049 286.533 264.049C234.706 260.828 190.129 300.289 186.907 352.098H187.175Z" fill="#D5C657"/>
</g>
<g style="mix-blend-mode:overlay" opacity="0.5">
<path d="M167.572 342.435C165.424 376.795 182.073 407.666 208.658 425.92C205.436 425.115 202.213 424.31 199.26 423.236C171.6 405.519 153.877 373.574 156.025 338.408C159.248 286.599 203.825 247.137 255.652 250.359C264.514 250.896 273.107 252.775 280.894 255.459C281.7 255.996 282.505 256.533 283.311 257.07C278.209 255.728 272.838 254.922 267.467 254.654C215.64 251.433 171.063 290.894 167.841 342.703L167.572 342.435Z" fill="#CFBC4B"/>
</g>
<g style="mix-blend-mode:multiply" opacity="0.5">
<path d="M180.999 349.683C180.999 349.683 226.65 290.894 274.449 314.248C323.86 338.408 309.09 389.681 309.09 389.681C309.09 389.681 359.575 333.308 307.748 282.572C279.82 255.459 222.891 250.09 195.5 292.773C180.193 316.933 181.268 349.414 181.268 349.414L180.999 349.683Z" fill="#013042"/>
</g>
<path opacity="0.5" d="M220.742 287.94C192.009 296.531 170.795 317.469 160.322 342.971C159.516 339.75 158.979 336.529 158.711 333.307C166.498 302.168 190.129 276.129 222.891 266.197C272.57 251.432 325.203 279.619 339.972 329.281C341.583 334.649 342.657 339.75 343.194 345.119C342.12 349.145 340.778 353.172 339.166 357.199C338.629 355.051 338.092 353.172 337.555 351.024C322.786 301.363 270.153 272.908 220.474 287.94H220.742Z" fill="#D5C657"/>
<path opacity="0.5" d="M315.535 276.666C320.1 283.914 323.591 291.699 326.277 300.02C341.046 349.682 312.85 402.297 263.171 417.061C229.335 427.262 194.157 417.33 170.526 394.244C192.546 428.873 235.512 446.322 276.866 433.973C326.545 419.209 355.01 366.863 339.972 316.932C335.138 301.094 326.545 287.404 315.535 276.397V276.666Z" fill="#D3C500"/>
<path opacity="0.5" d="M243.568 281.23C193.889 295.994 165.424 348.609 180.462 398.271C180.999 400.418 181.805 402.297 182.342 404.176C205.167 420.014 234.438 425.652 263.171 417.062C312.85 402.297 341.315 349.951 326.277 300.021C325.74 298.142 324.934 295.994 324.397 294.115C301.571 278.277 272.301 272.639 243.836 281.23H243.568Z" fill="#CEBA79"/>
<g style="mix-blend-mode:overlay" opacity="0.5">
<path d="M229.873 264.318C262.902 254.385 296.738 263.512 320.369 285.256C319.026 282.303 317.415 279.351 315.535 276.666C291.904 253.58 256.726 243.916 222.891 253.849C172.943 268.613 144.747 320.959 159.785 370.889C162.202 379.48 165.961 387.264 170.526 394.244C171.063 394.781 171.869 395.586 172.675 396.123C170.258 391.291 168.378 386.459 166.767 381.09C151.997 331.16 180.193 278.814 229.873 264.049V264.318Z" fill="#CFBC4B"/>
</g>
<g style="mix-blend-mode:overlay" opacity="0.5">
<path d="M243.568 281.23C272.033 272.639 301.571 278.277 324.128 294.115C323.054 290.893 321.712 287.941 320.1 284.988C296.469 263.244 262.365 254.385 229.604 264.049C179.925 278.814 151.46 331.16 166.498 381.09C168.109 386.459 169.989 391.291 172.406 396.123C175.628 399.076 178.851 401.76 182.342 403.908C181.536 402.029 180.999 400.15 180.462 398.002C165.693 348.34 193.889 295.994 243.568 280.961V281.23Z" fill="#D5C657"/>
</g>
<g style="mix-blend-mode:overlay" opacity="0.5">
<path d="M199.26 423.236C207.316 425.92 215.64 427.799 224.502 428.336C276.329 431.557 320.906 392.096 324.128 340.287C326.277 305.121 308.822 273.176 280.894 255.459C319.563 268.613 346.417 306.732 344 349.682C340.778 401.492 296.201 440.953 244.373 437.732C227.724 436.658 212.418 431.557 199.26 422.967V423.236Z" fill="#D3C500"/>
</g>
<g style="mix-blend-mode:overlay" opacity="0.4">
<path d="M187.175 352.098C190.398 300.289 234.975 260.828 286.802 264.049C288.95 264.049 291.099 264.318 292.978 264.586C313.656 283.109 325.74 310.49 323.86 340.287C320.637 392.096 276.061 431.557 224.233 428.336C222.085 428.336 219.937 428.068 218.057 427.799C197.38 409.277 185.296 381.896 187.175 352.098Z" fill="#ACBB00"/>
</g>
<g style="mix-blend-mode:multiply" opacity="0.3">
<path d="M303.183 268.076C303.183 268.076 298.886 350.22 240.614 359.347C180.462 368.474 161.396 312.369 161.396 312.369C161.396 312.369 151.192 395.586 230.41 409.009C272.838 415.988 328.156 384.849 326.008 328.744C324.934 297.068 303.183 268.076 303.183 268.076Z" fill="#D3C400"/>
</g>
<g style="mix-blend-mode:multiply" opacity="0.2">
<path d="M317.684 345.119C317.684 345.119 272.033 403.908 224.233 380.553C175.091 356.394 189.592 304.853 189.592 304.853C189.592 304.853 139.108 361.225 190.935 411.961C218.863 439.074 275.792 444.443 303.183 401.76C318.489 377.6 317.415 345.119 317.415 345.119H317.684Z" fill="#013042"/>
</g>
<g style="mix-blend-mode:multiply" opacity="0.2">
<path d="M240.614 272.908C240.614 272.908 301.034 309.416 281.163 366.058C260.754 424.578 201.139 414.914 201.139 414.914C201.139 414.914 270.958 464.039 320.906 399.076C347.491 364.447 346.148 299.752 294.59 274.787C265.588 260.828 240.882 273.177 240.882 273.177L240.614 272.908Z" fill="#013042"/>
</g>
<g style="mix-blend-mode:screen" opacity="0.5">
<path d="M185.564 407.398C185.564 407.398 189.861 324.986 248.133 316.127C308.285 307 327.351 363.105 327.351 363.105C327.351 363.105 337.555 279.888 258.337 266.734C215.909 259.754 160.59 290.894 162.739 346.998C163.813 378.674 185.564 407.666 185.564 407.666V407.398Z" fill="#D3C400"/>
</g>
<g style="mix-blend-mode:multiply" opacity="0.2">
<path d="M228.798 278.813C228.798 278.813 281.968 316.127 263.439 358.809C244.373 402.565 198.991 391.828 198.991 391.828C198.991 391.828 250.013 433.705 292.173 386.459C314.73 361.225 317.146 311.295 279.014 289.014C257.532 276.666 229.067 278.813 229.067 278.813H228.798Z" fill="#D3C400"/>
</g>
<g style="mix-blend-mode:overlay" opacity="0.5">
<path d="M286.802 413.84C286.802 413.84 233.632 376.527 252.161 333.844C271.227 290.088 316.609 300.826 316.609 300.826C316.609 300.826 265.319 258.949 223.428 306.195C200.871 331.428 198.454 381.359 236.854 403.639C258.337 416.256 286.802 413.84 286.802 413.84Z" fill="#D4C454"/>
</g>
<g style="mix-blend-mode:screen" opacity="0.5">
<path d="M171.063 327.67C176.434 332.234 183.147 313.443 197.917 295.726C212.686 278.008 230.141 268.345 224.77 263.781C219.4 259.217 198.454 266.197 183.684 283.646C168.915 301.363 165.693 322.838 171.063 327.67Z" fill="white"/>
</g>
<g style="mix-blend-mode:overlay" opacity="0.4">
<path d="M263.977 422.162C259.143 416.793 277.672 409.545 294.59 393.975C311.507 378.406 320.369 360.42 325.203 365.789C330.036 371.158 324.128 392.096 307.211 407.666C290.293 423.236 268.81 427.531 263.977 422.162Z" fill="#CEBA79"/>
</g>
<path style="mix-blend-mode:overlay" opacity="0.3" d="M159.785 370.889C174.554 420.551 227.187 449.006 276.866 433.973C326.545 419.209 355.01 366.863 339.972 316.932C325.203 267.271 272.57 238.816 222.891 253.848C173.212 268.613 144.747 321.228 159.785 370.889Z" fill="url(#paint0_radial_115_1246)"/>
<path d="M171.063 188.08C177.24 184.859 184.759 187.006 187.981 193.18L238.197 286.867C241.42 293.041 239.271 300.557 233.095 303.779C226.919 307 219.4 304.852 216.177 298.678L165.961 205.26C162.739 199.086 165.156 191.57 171.063 188.348V188.08Z" fill="url(#paint1_linear_115_1246)"/>
<path d="M49.9539 192.375C64.4548 257.875 129.172 299.215 194.694 284.719C260.217 270.223 301.571 205.529 287.071 140.029C272.57 74.7973 207.853 33.4571 142.33 47.953C76.8074 62.4489 35.453 127.144 49.9539 192.644V192.375Z" fill="#D4C454"/>
<path opacity="0.5" d="M52.1022 131.438C51.5651 142.445 52.1022 153.451 54.7875 164.725C69.2884 230.225 134.005 271.566 199.528 257.07C244.105 247.137 277.403 214.119 289.756 173.316C286.802 226.199 248.939 272.908 194.694 284.719C129.172 299.215 64.4548 257.875 49.9539 192.375C45.3888 171.436 46.4629 150.498 52.3707 131.438H52.1022Z" fill="#D3C500"/>
<path opacity="0.5" d="M136.154 91.7092C201.676 77.2133 266.393 118.553 280.894 184.053C281.431 186.738 281.968 189.422 282.237 191.838C266.393 223.783 236.854 248.748 199.259 257.07C133.737 271.566 69.0199 230.226 54.519 164.726C53.9819 162.041 53.4448 159.357 52.9078 156.672C68.4828 124.728 98.2902 99.7625 135.885 91.4407L136.154 91.7092Z" fill="#CEBA79"/>
<path opacity="0.5" d="M141.256 63.7909C98.0217 73.4549 65.2604 104.863 52.1022 144.055C52.1022 139.76 52.1022 135.734 52.1022 131.438C64.4548 90.6352 97.7532 57.6168 142.33 47.9528C207.853 33.4569 272.57 74.7971 287.071 140.297C289.487 151.572 290.293 162.578 289.756 173.584C289.487 174.658 288.95 176 288.682 177.074C288.413 170.363 287.608 163.383 285.996 156.404C271.495 90.6352 206.51 49.295 141.256 63.7909Z" fill="#CFBC4B"/>
<g style="mix-blend-mode:screen" opacity="0.5">
<path d="M87.0117 170.9C81.9096 209.018 95.0678 245.258 119.773 271.029C115.476 270.223 111.448 269.15 107.42 267.807C75.1962 242.037 56.6673 200.428 62.575 156.672C71.7052 90.3668 132.931 43.6578 199.259 52.7848C206.241 53.8586 212.955 55.2008 219.668 57.3483C223.965 60.8381 227.993 64.3279 231.752 68.3545C229.067 67.8176 226.382 67.2807 223.696 67.0123C157.368 58.1537 96.1419 104.594 87.2803 170.9H87.0117Z" fill="#D5C657"/>
</g>
<g style="mix-blend-mode:overlay" opacity="0.5">
<path d="M62.5751 156.672C56.6673 200.697 74.9277 242.037 107.42 267.807C103.392 266.465 99.3644 265.123 95.6049 263.512C61.5009 238.01 41.8978 195.328 48.0742 150.23C57.2043 83.6558 118.162 37.2152 184.759 46.0738C196.037 47.6845 206.779 50.6374 216.714 54.9325C217.788 55.7378 218.594 56.2747 219.4 57.08C212.955 54.9324 205.973 53.5902 198.991 52.5165C132.663 43.6579 71.4367 90.0984 62.3065 156.404L62.5751 156.672Z" fill="#CFBC4B"/>
</g>
<g style="mix-blend-mode:multiply" opacity="0.5">
<path d="M79.2243 167.142C79.2243 167.142 143.404 95.7358 202.75 130.365C263.977 166.068 240.077 230.762 240.077 230.762C240.077 230.762 310.433 162.846 248.401 92.7829C215.103 55.2009 142.33 42.8526 102.855 95.1989C80.8355 124.728 78.9557 166.873 78.9557 166.873L79.2243 167.142Z" fill="#013042"/>
</g>
<path opacity="0.5" d="M136.154 91.7092C98.5588 100.031 69.0199 124.728 53.1763 156.941C52.6393 152.646 52.1022 148.619 51.8336 144.324C64.9919 105.131 97.4846 73.7235 140.987 64.0596C206.51 49.2952 271.495 90.6354 285.728 156.135C287.339 163.115 288.145 169.826 288.413 176.805C286.802 181.906 284.654 187.006 282.237 191.838C281.7 189.154 281.431 186.469 280.894 184.053C266.393 118.553 201.676 77.2133 136.154 91.7092Z" fill="#D5C657"/>
<path opacity="0.5" d="M259.143 85.8034C264.245 95.4673 268.273 105.937 270.69 116.943C285.191 182.443 243.836 247.137 178.314 261.633C133.737 271.566 89.6971 255.459 61.2324 223.514C86.2061 270.223 139.913 296.531 194.426 284.719C259.948 270.223 301.303 205.529 286.802 140.029C282.237 119.09 272.301 100.568 259.143 85.5349V85.8034Z" fill="#D3C500"/>
<path opacity="0.5" d="M166.23 84.9979C100.707 99.4938 59.3526 164.188 73.8535 229.689C74.3906 232.373 75.1962 235.057 75.7333 237.473C103.392 260.023 140.719 269.955 178.314 261.902C243.836 247.406 285.191 182.711 270.69 117.211C270.153 114.527 269.347 111.842 268.81 109.426C241.151 86.877 203.825 76.9446 166.23 84.9979Z" fill="#CEBA79"/>
<g style="mix-blend-mode:overlay" opacity="0.5">
<path d="M150.118 61.9119C193.352 52.248 236.317 67.2808 264.782 97.3464C263.171 93.5882 261.291 89.5615 259.411 86.0718C230.947 54.1271 186.907 38.0205 142.33 47.9529C76.8074 62.4488 35.453 127.143 49.9539 192.643C52.3707 203.65 56.3987 214.387 61.5009 223.783C62.3065 224.588 63.1121 225.662 63.9177 226.467C61.2324 220.025 59.3526 213.582 57.7414 206.603C43.2405 141.103 84.595 76.4078 150.118 61.9119Z" fill="#CFBC4B"/>
</g>
<g style="mix-blend-mode:overlay" opacity="0.5">
<path d="M166.23 84.9981C203.825 76.6764 241.151 86.8772 268.81 109.426C267.467 105.4 266.125 101.373 264.514 97.3465C236.317 67.2809 193.352 52.2481 150.118 61.9121C84.5949 76.408 43.2405 141.103 57.7414 206.603C59.3526 213.582 61.5009 220.025 63.9177 226.467C67.6772 230.494 71.7053 234.252 75.7333 237.474C74.9277 235.058 74.3906 232.373 73.8535 229.689C59.3526 164.189 100.707 99.494 166.23 84.9981Z" fill="#D5C657"/>
</g>
<g style="mix-blend-mode:overlay" opacity="0.5">
<path d="M95.6049 263.512C105.541 267.807 116.282 271.029 127.829 272.371C194.157 281.23 255.383 234.789 264.245 168.484C270.421 123.385 250.818 80.703 216.714 55.2009C265.319 76.4079 296.201 127.68 288.682 182.711C279.82 249.016 218.594 295.726 152.266 286.598C131.052 283.646 111.717 275.592 95.8734 263.512H95.6049Z" fill="#D3C500"/>
</g>
<g style="mix-blend-mode:overlay" opacity="0.4">
<path d="M87.0118 170.9C95.8735 104.594 157.1 57.8853 223.428 67.0124C226.113 67.2808 228.798 67.8177 231.484 68.3546C256.189 94.1251 269.347 130.365 264.245 168.484C255.383 234.789 194.157 281.498 127.829 272.371C125.144 272.103 122.458 271.566 119.773 271.029C95.0678 245.258 81.9096 209.019 87.0118 170.9Z" fill="#ACBB00"/>
</g>
<g style="mix-blend-mode:multiply" opacity="0.3">
<path d="M244.373 73.9919C244.373 73.9919 231.215 179.49 155.22 185.396C77.0759 191.57 57.7414 117.748 57.7414 117.748C57.7414 117.748 36.5271 223.783 137.228 248.48C191.203 261.633 265.319 226.736 268.005 154.256C269.616 113.453 244.373 73.9919 244.373 73.9919Z" fill="#D3C400"/>
</g>
<g style="mix-blend-mode:multiply" opacity="0.2">
<path d="M255.652 174.389C255.652 174.389 191.472 245.795 132.126 211.166C70.8996 175.463 94.7993 110.769 94.7993 110.769C94.7993 110.769 24.443 178.685 86.4747 248.748C119.773 286.33 192.546 298.678 232.021 246.332C254.041 216.803 255.92 174.658 255.92 174.658L255.652 174.389Z" fill="#013042"/>
</g>
<g style="mix-blend-mode:multiply" opacity="0.2">
<path d="M163.276 74.2602C163.276 74.2602 237.66 126.875 206.51 197.744C174.554 271.029 98.8273 253.043 98.8273 253.043C98.8273 253.043 184.222 322.838 254.578 244.184C292.173 202.039 296.469 118.553 232.289 81.5082C196.306 60.5696 163.276 74.2602 163.276 74.2602Z" fill="#013042"/>
</g>
<g style="mix-blend-mode:screen" opacity="0.5">
<path d="M79.7613 242.037C79.7613 242.037 92.9196 136.539 168.915 130.633C247.059 124.459 266.393 198.549 266.393 198.549C266.393 198.549 287.608 92.5143 186.907 67.8176C132.931 54.6639 58.8156 89.5615 56.1302 162.041C54.7875 202.844 79.7613 242.305 79.7613 242.305V242.037Z" fill="#D3C400"/>
</g>
<g style="mix-blend-mode:multiply" opacity="0.2">
<path d="M147.432 80.4346C147.432 80.4346 212.149 133.586 184.222 186.738C155.488 241.5 98.0217 223.246 98.0217 223.246C98.0217 223.246 159.785 281.767 218.594 225.125C250.013 194.791 258.069 130.633 210.807 98.6887C184.222 80.4346 147.432 80.703 147.432 80.703V80.4346Z" fill="#D3C400"/>
</g>
<g style="mix-blend-mode:overlay" opacity="0.5">
<path d="M209.464 259.754C209.464 259.754 144.747 206.603 172.675 153.451C201.408 98.6887 258.874 116.943 258.874 116.943C258.874 116.943 197.111 58.1538 138.302 115.064C106.883 145.398 98.8273 209.555 146.09 241.769C172.675 260.023 209.464 259.754 209.464 259.754Z" fill="#D4C454"/>
</g>
<g style="mix-blend-mode:screen" opacity="0.5">
<path d="M68.4828 138.15C75.1962 144.592 85.4006 120.969 106.078 99.7624C126.755 78.5554 150.386 67.5493 143.673 61.1067C136.959 54.664 109.569 61.6436 88.8915 82.8505C68.2143 104.057 62.038 131.707 68.4828 138.15Z" fill="white"/>
</g>
<g style="mix-blend-mode:overlay" opacity="0.4">
<path d="M179.388 268.613C173.749 261.365 198.185 253.58 221.548 235.057C244.911 216.535 257.8 194.254 263.708 201.502C269.347 208.75 259.68 235.326 236.586 253.848C213.223 272.371 185.296 275.86 179.388 268.613Z" fill="#CEBA79"/>
</g>
<path style="mix-blend-mode:overlay" opacity="0.3" d="M49.9539 192.375C64.4548 257.875 129.172 299.215 194.694 284.719C260.217 270.223 301.571 205.529 287.071 140.029C272.57 74.7973 207.853 33.4571 142.33 47.953C76.8074 62.4489 35.453 127.144 49.9539 192.644V192.375Z" fill="url(#paint2_radial_115_1246)"/>
</g>
<defs>
<filter id="filter0_d_115_1246" x="0.944153" y="-0.00927734" width="367.207" height="463.009" filterUnits="userSpaceOnUse" color-interpolation-filters="sRGB">
<feFlood flood-opacity="0" result="BackgroundImageFix"/>
<feColorMatrix in="SourceAlpha" type="matrix" values="0 0 0 0 0 0 0 0 0 0 0 0 0 0 0 0 0 0 127 0" result="hardAlpha"/>
<feOffset dx="-11" dy="-10"/>
<feGaussianBlur stdDeviation="17.5"/>
<feComposite in2="hardAlpha" operator="out"/>
<feColorMatrix type="matrix" values="0 0 0 0 0 0 0 0 0 0 0 0 0 0 0 0 0 0 0.3 0"/>
<feBlend mode="normal" in2="BackgroundImageFix" result="effect1_dropShadow_115_1246"/>
<feBlend mode="normal" in="SourceGraphic" in2="effect1_dropShadow_115_1246" result="shape"/>
</filter>
<radialGradient id="paint0_radial_115_1246" cx="0" cy="0" r="1" gradientUnits="userSpaceOnUse" gradientTransform="translate(206.527 311.468) rotate(163.365) scale(147.54 147.497)">
<stop offset="0.05" stop-color="white"/>
<stop offset="0.53" stop-color="#1B0C02"/>
<stop offset="0.72" stop-color="#0D0D0D"/>
<stop offset="0.8" stop-color="#0D0D0D"/>
<stop offset="0.89" stop-color="#1E1E1E"/>
<stop offset="1" stop-color="#603F00"/>
</radialGradient>
<linearGradient id="paint1_linear_115_1246" x1="212.63" y1="239.965" x2="190.852" y2="251.995" gradientUnits="userSpaceOnUse">
<stop offset="0.02" stop-color="#AF9A21"/>
<stop offset="0.26" stop-color="#1C1C1C"/>
<stop offset="0.62" stop-color="white"/>
<stop offset="1" stop-color="#8E7501"/>
</linearGradient>
<radialGradient id="paint2_radial_115_1246" cx="0" cy="0" r="1" gradientUnits="userSpaceOnUse" gradientTransform="translate(115.841 120.358) rotate(167.574) scale(190.636 190.576)">
<stop offset="0.05" stop-color="white"/>
<stop offset="0.53" stop-color="#1B0C02"/>
<stop offset="0.72" stop-color="#0D0D0D"/>
<stop offset="0.8" stop-color="#0D0D0D"/>
<stop offset="0.89" stop-color="#1E1E1E"/>
<stop offset="1" stop-color="#603F00"/>
</radialGradient>
</defs>
</svg>
