<svg width="339" height="27" viewBox="0 0 339 27" fill="none" xmlns="http://www.w3.org/2000/svg">
<path d="M1.84397 3.54783V10.2363H8.63497V11.7227H1.84397V18.5137H9.40376V20H0.050115V2.06149H9.40376V3.54783H1.84397ZM20.2676 20L16.6542 14.3622L13.169 20H11.2727L15.7829 13.004L11.3239 6.00797H13.3484L16.9105 11.5689L20.3701 6.00797H22.2408L17.7818 12.9271L22.2921 20H20.2676ZM26.4938 9.08314C26.938 8.1435 27.6384 7.36617 28.5952 6.75113C29.569 6.11901 30.7222 5.80295 32.0547 5.80295C33.319 5.80295 34.4551 6.10193 35.463 6.69988C36.4881 7.28074 37.2825 8.11788 37.8463 9.21127C38.4272 10.2876 38.7176 11.5433 38.7176 12.9784C38.7176 14.4134 38.4272 15.6777 37.8463 16.7711C37.2825 17.8645 36.4881 18.7101 35.463 19.3081C34.4551 19.906 33.319 20.205 32.0547 20.205C30.7392 20.205 29.5946 19.8975 28.6208 19.2825C27.647 18.6503 26.938 17.8645 26.4938 16.9248V26.6116H24.7256V6.00797H26.4938V9.08314ZM36.8981 12.9784C36.8981 11.8166 36.6675 10.8172 36.2062 9.98006C35.762 9.12585 35.147 8.47665 34.3611 8.03245C33.5752 7.58826 32.6869 7.36617 31.696 7.36617C30.7392 7.36617 29.8594 7.5968 29.0564 8.05808C28.2706 8.51936 27.647 9.1771 27.1857 10.0313C26.7244 10.8855 26.4938 11.8764 26.4938 13.004C26.4938 14.1315 26.7244 15.1224 27.1857 15.9766C27.647 16.8309 28.2706 17.4886 29.0564 17.9499C29.8594 18.4112 30.7392 18.6418 31.696 18.6418C32.6869 18.6418 33.5752 18.4197 34.3611 17.9755C35.147 17.5142 35.762 16.8565 36.2062 16.0023C36.6675 15.131 36.8981 14.123 36.8981 12.9784ZM43.8123 1.03644V20H42.0184V1.03644H43.8123ZM53.9992 20.205C52.6837 20.205 51.4963 19.9146 50.4371 19.3337C49.395 18.7358 48.5664 17.8986 47.9513 16.8223C47.3534 15.7289 47.0544 14.4561 47.0544 13.004C47.0544 11.5518 47.3619 10.2876 47.977 9.21127C48.592 8.11788 49.4291 7.28074 50.4883 6.69988C51.5476 6.10193 52.7349 5.80295 54.0504 5.80295C55.3659 5.80295 56.5533 6.10193 57.6125 6.69988C58.6888 7.28074 59.5259 8.11788 60.1239 9.21127C60.7389 10.2876 61.0464 11.5518 61.0464 13.004C61.0464 14.4391 60.7389 15.7033 60.1239 16.7967C59.5089 17.8901 58.6632 18.7358 57.5869 19.3337C56.5106 19.9146 55.3147 20.205 53.9992 20.205ZM53.9992 18.6418C54.9217 18.6418 55.7759 18.4368 56.5618 18.0268C57.3477 17.5997 57.9798 16.9675 58.4582 16.1304C58.9536 15.2762 59.2013 14.2341 59.2013 13.004C59.2013 11.7739 58.9622 10.7403 58.4838 9.90318C58.0054 9.04897 57.3733 8.41685 56.5874 8.00683C55.8016 7.57972 54.9473 7.36617 54.0248 7.36617C53.1022 7.36617 52.248 7.57972 51.4621 8.00683C50.6763 8.41685 50.0442 9.04897 49.5658 9.90318C49.1045 10.7403 48.8739 11.7739 48.8739 13.004C48.8739 14.2341 49.1045 15.2762 49.5658 16.1304C50.0442 16.9675 50.6677 17.5997 51.4365 18.0268C52.2224 18.4368 53.0766 18.6418 53.9992 18.6418ZM66.1103 8.49373C66.5032 7.62243 67.1012 6.9476 67.9041 6.46924C68.7242 5.99088 69.7236 5.7517 70.9024 5.7517V7.62243H70.4155C69.1171 7.62243 68.075 7.97266 67.2891 8.67311C66.5032 9.37357 66.1103 10.5438 66.1103 12.1839V20H64.3164V6.00797H66.1103V8.49373ZM86.2604 12.2864C86.2604 12.9015 86.2434 13.3713 86.2092 13.6959H74.6004C74.6517 14.7551 74.9079 15.6606 75.3692 16.4123C75.8305 17.164 76.437 17.7363 77.1887 18.1293C77.9404 18.5051 78.7604 18.6931 79.6488 18.6931C80.8106 18.6931 81.7844 18.4112 82.5702 17.8474C83.3732 17.2836 83.9028 16.5233 84.1591 15.5666H86.0554C85.7138 16.9334 84.9791 18.0524 83.8516 18.9237C82.7411 19.7779 81.3402 20.205 79.6488 20.205C78.3333 20.205 77.1545 19.9146 76.1124 19.3337C75.0702 18.7358 74.2502 17.8986 73.6522 16.8223C73.0714 15.7289 72.7809 14.4561 72.7809 13.004C72.7809 11.5518 73.0714 10.279 73.6522 9.18564C74.2331 8.09225 75.0446 7.25512 76.0868 6.67425C77.1289 6.09339 78.3163 5.80295 79.6488 5.80295C80.9814 5.80295 82.1431 6.09339 83.134 6.67425C84.142 7.25512 84.9108 8.041 85.4404 9.03188C85.9871 10.0057 86.2604 11.0905 86.2604 12.2864ZM84.441 12.2352C84.4581 11.193 84.2445 10.3047 83.8003 9.57004C83.3732 8.83542 82.7838 8.28018 82.0321 7.90432C81.2804 7.52847 80.4603 7.34054 79.5719 7.34054C78.2394 7.34054 77.1033 7.76765 76.1636 8.62186C75.224 9.47608 74.7029 10.6805 74.6004 12.2352H84.441ZM95.7546 12.9784C95.7546 11.5433 96.0365 10.2876 96.6003 9.21127C97.1812 8.11788 97.9756 7.28074 98.9836 6.69988C100.009 6.10193 101.162 5.80295 102.443 5.80295C103.776 5.80295 104.92 6.11047 105.877 6.72551C106.851 7.34054 107.551 8.12642 107.978 9.08314V6.00797H109.772V20H107.978V16.8992C107.534 17.8559 106.825 18.6503 105.851 19.2825C104.895 19.8975 103.75 20.205 102.418 20.205C101.153 20.205 100.009 19.906 98.9836 19.3081C97.9756 18.7101 97.1812 17.8645 96.6003 16.7711C96.0365 15.6777 95.7546 14.4134 95.7546 12.9784ZM107.978 13.004C107.978 11.8764 107.748 10.8855 107.287 10.0313C106.825 9.1771 106.193 8.51936 105.39 8.05808C104.604 7.5968 103.733 7.36617 102.776 7.36617C101.785 7.36617 100.897 7.58826 100.111 8.03245C99.3253 8.47665 98.7017 9.12585 98.2404 9.98006C97.7962 10.8172 97.5741 11.8166 97.5741 12.9784C97.5741 14.123 97.7962 15.131 98.2404 16.0023C98.7017 16.8565 99.3253 17.5142 100.111 17.9755C100.897 18.4197 101.785 18.6418 102.776 18.6418C103.733 18.6418 104.604 18.4112 105.39 17.9499C106.193 17.4886 106.825 16.8309 107.287 15.9766C107.748 15.1224 107.978 14.1315 107.978 13.004ZM115.661 1.03644V20H113.868V1.03644H115.661ZM121.517 1.03644V20H119.724V1.03644H121.517ZM137.43 20.205C135.824 20.205 134.508 19.8377 133.483 19.1031C132.475 18.3514 131.911 17.3349 131.792 16.0535H133.637C133.722 16.8394 134.09 17.4801 134.739 17.9755C135.405 18.4539 136.294 18.6931 137.404 18.6931C138.378 18.6931 139.138 18.4624 139.685 18.0011C140.249 17.5399 140.53 16.9675 140.53 16.2842C140.53 15.8058 140.377 15.4129 140.069 15.1054C139.762 14.7978 139.369 14.5587 138.89 14.3878C138.429 14.1999 137.797 14.0034 136.994 13.7984C135.952 13.5251 135.106 13.2517 134.457 12.9784C133.808 12.705 133.253 12.3035 132.791 11.7739C132.347 11.2272 132.125 10.5011 132.125 9.59567C132.125 8.91229 132.33 8.28018 132.74 7.69931C133.15 7.11844 133.731 6.65717 134.483 6.31548C135.234 5.9738 136.089 5.80295 137.045 5.80295C138.549 5.80295 139.762 6.18735 140.684 6.95614C141.607 7.70785 142.102 8.74999 142.171 10.0826H140.377C140.325 9.26252 140.001 8.60478 139.403 8.10933C138.822 7.5968 138.019 7.34054 136.994 7.34054C136.089 7.34054 135.354 7.55409 134.79 7.9812C134.226 8.40831 133.944 8.93792 133.944 9.57004C133.944 10.1167 134.107 10.5695 134.431 10.9282C134.773 11.2699 135.192 11.5433 135.687 11.7483C136.182 11.9362 136.849 12.1498 137.686 12.3889C138.694 12.6623 139.497 12.9271 140.095 13.1834C140.693 13.4396 141.205 13.8155 141.632 14.3109C142.059 14.8064 142.282 15.4641 142.299 16.2842C142.299 17.0359 142.094 17.7107 141.684 18.3087C141.274 18.8895 140.701 19.3508 139.967 19.6925C139.232 20.0342 138.386 20.205 137.43 20.205ZM158.335 12.2864C158.335 12.9015 158.318 13.3713 158.284 13.6959H146.675C146.726 14.7551 146.982 15.6606 147.444 16.4123C147.905 17.164 148.511 17.7363 149.263 18.1293C150.015 18.5051 150.835 18.6931 151.723 18.6931C152.885 18.6931 153.859 18.4112 154.645 17.8474C155.448 17.2836 155.977 16.5233 156.233 15.5666H158.13C157.788 16.9334 157.053 18.0524 155.926 18.9237C154.815 19.7779 153.415 20.205 151.723 20.205C150.408 20.205 149.229 19.9146 148.187 19.3337C147.145 18.7358 146.325 17.8986 145.727 16.8223C145.146 15.7289 144.855 14.4561 144.855 13.004C144.855 11.5518 145.146 10.279 145.727 9.18564C146.307 8.09225 147.119 7.25512 148.161 6.67425C149.203 6.09339 150.391 5.80295 151.723 5.80295C153.056 5.80295 154.217 6.09339 155.208 6.67425C156.216 7.25512 156.985 8.041 157.515 9.03188C158.061 10.0057 158.335 11.0905 158.335 12.2864ZM156.515 12.2352C156.532 11.193 156.319 10.3047 155.875 9.57004C155.448 8.83542 154.858 8.28018 154.106 7.90432C153.355 7.52847 152.535 7.34054 151.646 7.34054C150.314 7.34054 149.178 7.76765 148.238 8.62186C147.298 9.47608 146.777 10.6805 146.675 12.2352H156.515ZM163.411 8.49373C163.804 7.62243 164.402 6.9476 165.204 6.46924C166.025 5.99088 167.024 5.7517 168.203 5.7517V7.62243H167.716C166.417 7.62243 165.375 7.97266 164.589 8.67311C163.804 9.37357 163.411 10.5438 163.411 12.1839V20H161.617V6.00797H163.411V8.49373ZM175.873 18.2574L180.588 6.00797H182.485L176.872 20H174.848L169.236 6.00797H171.158L175.873 18.2574ZM185.813 3.36844C185.454 3.36844 185.146 3.24031 184.89 2.98405C184.634 2.72778 184.506 2.41172 184.506 2.03587C184.506 1.66001 184.634 1.3525 184.89 1.11332C185.146 0.857051 185.454 0.728919 185.813 0.728919C186.172 0.728919 186.479 0.857051 186.735 1.11332C186.992 1.3525 187.12 1.66001 187.12 2.03587C187.12 2.41172 186.992 2.72778 186.735 2.98405C186.479 3.24031 186.172 3.36844 185.813 3.36844ZM186.71 6.00797V20H184.916V6.00797H186.71ZM189.952 13.004C189.952 11.5518 190.242 10.2876 190.823 9.21127C191.404 8.11788 192.207 7.28074 193.232 6.69988C194.257 6.10193 195.427 5.80295 196.743 5.80295C198.468 5.80295 199.886 6.23006 200.997 7.08428C202.124 7.93849 202.85 9.10022 203.175 10.5695H201.253C201.014 9.5615 200.493 8.77562 199.69 8.21184C198.904 7.63097 197.922 7.34054 196.743 7.34054C195.803 7.34054 194.958 7.55409 194.206 7.9812C193.454 8.40831 192.856 9.04897 192.412 9.90318C191.985 10.7403 191.771 11.7739 191.771 13.004C191.771 14.2341 191.985 15.2762 192.412 16.1304C192.856 16.9846 193.454 17.6253 194.206 18.0524C194.958 18.4795 195.803 18.6931 196.743 18.6931C197.922 18.6931 198.904 18.4112 199.69 17.8474C200.493 17.2665 201.014 16.4636 201.253 15.4385H203.175C202.85 16.8736 202.124 18.0268 200.997 18.8981C199.869 19.7694 198.451 20.205 196.743 20.205C195.427 20.205 194.257 19.9146 193.232 19.3337C192.207 18.7358 191.404 17.8986 190.823 16.8223C190.242 15.7289 189.952 14.4561 189.952 13.004ZM219.148 12.2864C219.148 12.9015 219.13 13.3713 219.096 13.6959H207.488C207.539 14.7551 207.795 15.6606 208.256 16.4123C208.718 17.164 209.324 17.7363 210.076 18.1293C210.827 18.5051 211.648 18.6931 212.536 18.6931C213.698 18.6931 214.671 18.4112 215.457 17.8474C216.26 17.2836 216.79 16.5233 217.046 15.5666H218.943C218.601 16.9334 217.866 18.0524 216.739 18.9237C215.628 19.7779 214.227 20.205 212.536 20.205C211.22 20.205 210.042 19.9146 208.999 19.3337C207.957 18.7358 207.137 17.8986 206.539 16.8223C205.958 15.7289 205.668 14.4561 205.668 13.004C205.668 11.5518 205.958 10.279 206.539 9.18564C207.12 8.09225 207.932 7.25512 208.974 6.67425C210.016 6.09339 211.203 5.80295 212.536 5.80295C213.868 5.80295 215.03 6.09339 216.021 6.67425C217.029 7.25512 217.798 8.041 218.327 9.03188C218.874 10.0057 219.148 11.0905 219.148 12.2864ZM217.328 12.2352C217.345 11.193 217.132 10.3047 216.687 9.57004C216.26 8.83542 215.671 8.28018 214.919 7.90432C214.167 7.52847 213.347 7.34054 212.459 7.34054C211.126 7.34054 209.99 7.76765 209.051 8.62186C208.111 9.47608 207.59 10.6805 207.488 12.2352H217.328ZM227.247 20.205C225.641 20.205 224.326 19.8377 223.301 19.1031C222.293 18.3514 221.729 17.3349 221.609 16.0535H223.455C223.54 16.8394 223.907 17.4801 224.557 17.9755C225.223 18.4539 226.111 18.6931 227.222 18.6931C228.195 18.6931 228.956 18.4624 229.502 18.0011C230.066 17.5399 230.348 16.9675 230.348 16.2842C230.348 15.8058 230.194 15.4129 229.887 15.1054C229.579 14.7978 229.186 14.5587 228.708 14.3878C228.247 14.1999 227.615 14.0034 226.812 13.7984C225.77 13.5251 224.924 13.2517 224.275 12.9784C223.625 12.705 223.07 12.3035 222.609 11.7739C222.165 11.2272 221.943 10.5011 221.943 9.59567C221.943 8.91229 222.148 8.28018 222.558 7.69931C222.968 7.11844 223.549 6.65717 224.3 6.31548C225.052 5.9738 225.906 5.80295 226.863 5.80295C228.366 5.80295 229.579 6.18735 230.502 6.95614C231.424 7.70785 231.92 8.74999 231.988 10.0826H230.194C230.143 9.26252 229.818 8.60478 229.221 8.10933C228.64 7.5968 227.837 7.34054 226.812 7.34054C225.906 7.34054 225.172 7.55409 224.608 7.9812C224.044 8.40831 223.762 8.93792 223.762 9.57004C223.762 10.1167 223.924 10.5695 224.249 10.9282C224.591 11.2699 225.009 11.5433 225.505 11.7483C226 11.9362 226.666 12.1498 227.504 12.3889C228.512 12.6623 229.314 12.9271 229.912 13.1834C230.51 13.4396 231.023 13.8155 231.45 14.3109C231.877 14.8064 232.099 15.4641 232.116 16.2842C232.116 17.0359 231.911 17.7107 231.501 18.3087C231.091 18.8895 230.519 19.3508 229.784 19.6925C229.05 20.0342 228.204 20.205 227.247 20.205ZM243.422 3.36844C243.063 3.36844 242.756 3.24031 242.5 2.98405C242.243 2.72778 242.115 2.41172 242.115 2.03587C242.115 1.66001 242.243 1.3525 242.5 1.11332C242.756 0.857051 243.063 0.728919 243.422 0.728919C243.781 0.728919 244.088 0.857051 244.345 1.11332C244.601 1.3525 244.729 1.66001 244.729 2.03587C244.729 2.41172 244.601 2.72778 244.345 2.98405C244.088 3.24031 243.781 3.36844 243.422 3.36844ZM244.319 6.00797V20H242.525V6.00797H244.319ZM254.942 5.7517C256.616 5.7517 257.983 6.27277 259.042 7.31491C260.101 8.33997 260.631 9.83485 260.631 11.7995V20H258.863V12.0046C258.863 10.484 258.478 9.32232 257.709 8.51936C256.958 7.71639 255.924 7.31491 254.609 7.31491C253.259 7.31491 252.183 7.74202 251.38 8.59624C250.577 9.45045 250.175 10.7061 250.175 12.3633V20H248.381V6.00797H250.175V8.39122C250.619 7.53701 251.26 6.88781 252.097 6.44361C252.934 5.98234 253.882 5.7517 254.942 5.7517ZM270.81 12.9784C270.81 11.5433 271.101 10.2876 271.682 9.21127C272.262 8.11788 273.057 7.28074 274.065 6.69988C275.09 6.10193 276.243 5.80295 277.524 5.80295C278.754 5.80295 279.865 6.10193 280.856 6.69988C281.847 7.29783 282.573 8.07516 283.034 9.03188V1.03644H284.828V20H283.034V16.8736C282.607 17.8474 281.906 18.6503 280.933 19.2825C279.959 19.8975 278.814 20.205 277.499 20.205C276.217 20.205 275.064 19.906 274.039 19.3081C273.031 18.7101 272.237 17.8645 271.656 16.7711C271.092 15.6777 270.81 14.4134 270.81 12.9784ZM283.034 13.004C283.034 11.8764 282.803 10.8855 282.342 10.0313C281.881 9.1771 281.249 8.51936 280.446 8.05808C279.66 7.5968 278.789 7.36617 277.832 7.36617C276.841 7.36617 275.953 7.58826 275.167 8.03245C274.381 8.47665 273.757 9.12585 273.296 9.98006C272.852 10.8172 272.63 11.8166 272.63 12.9784C272.63 14.123 272.852 15.131 273.296 16.0023C273.757 16.8565 274.381 17.5142 275.167 17.9755C275.953 18.4197 276.841 18.6418 277.832 18.6418C278.789 18.6418 279.66 18.4112 280.446 17.9499C281.249 17.4886 281.881 16.8309 282.342 15.9766C282.803 15.1224 283.034 14.1315 283.034 13.004ZM301.583 12.2864C301.583 12.9015 301.566 13.3713 301.531 13.6959H289.923C289.974 14.7551 290.23 15.6606 290.691 16.4123C291.153 17.164 291.759 17.7363 292.511 18.1293C293.263 18.5051 294.083 18.6931 294.971 18.6931C296.133 18.6931 297.107 18.4112 297.892 17.8474C298.695 17.2836 299.225 16.5233 299.481 15.5666H301.378C301.036 16.9334 300.301 18.0524 299.174 18.9237C298.063 19.7779 296.662 20.205 294.971 20.205C293.655 20.205 292.477 19.9146 291.435 19.3337C290.392 18.7358 289.572 17.8986 288.974 16.8223C288.394 15.7289 288.103 14.4561 288.103 13.004C288.103 11.5518 288.394 10.279 288.974 9.18564C289.555 8.09225 290.367 7.25512 291.409 6.67425C292.451 6.09339 293.638 5.80295 294.971 5.80295C296.304 5.80295 297.465 6.09339 298.456 6.67425C299.464 7.25512 300.233 8.041 300.763 9.03188C301.309 10.0057 301.583 11.0905 301.583 12.2864ZM299.763 12.2352C299.78 11.193 299.567 10.3047 299.122 9.57004C298.695 8.83542 298.106 8.28018 297.354 7.90432C296.603 7.52847 295.782 7.34054 294.894 7.34054C293.562 7.34054 292.425 7.76765 291.486 8.62186C290.546 9.47608 290.025 10.6805 289.923 12.2352H299.763ZM307.197 7.51993V16.2073C307.197 17.0615 307.359 17.6509 307.683 17.9755C308.008 18.3001 308.58 18.4624 309.4 18.4624H311.041V20H309.119C307.854 20 306.915 19.7096 306.3 19.1287C305.685 18.5308 305.377 17.5569 305.377 16.2073V7.51993H303.429V6.00797H305.377V2.49714H307.197V6.00797H311.041V7.51993H307.197ZM313.179 12.9784C313.179 11.5433 313.461 10.2876 314.025 9.21127C314.605 8.11788 315.4 7.28074 316.408 6.69988C317.433 6.10193 318.586 5.80295 319.867 5.80295C321.2 5.80295 322.345 6.11047 323.301 6.72551C324.275 7.34054 324.976 8.12642 325.403 9.08314V6.00797H327.197V20H325.403V16.8992C324.959 17.8559 324.25 18.6503 323.276 19.2825C322.319 19.8975 321.174 20.205 319.842 20.205C318.578 20.205 317.433 19.906 316.408 19.3081C315.4 18.7101 314.605 17.8645 314.025 16.7711C313.461 15.6777 313.179 14.4134 313.179 12.9784ZM325.403 13.004C325.403 11.8764 325.172 10.8855 324.711 10.0313C324.25 9.1771 323.617 8.51936 322.814 8.05808C322.029 7.5968 321.157 7.36617 320.201 7.36617C319.21 7.36617 318.321 7.58826 317.535 8.03245C316.75 8.47665 316.126 9.12585 315.665 9.98006C315.221 10.8172 314.998 11.8166 314.998 12.9784C314.998 14.123 315.221 15.131 315.665 16.0023C316.126 16.8565 316.75 17.5142 317.535 17.9755C318.321 18.4197 319.21 18.6418 320.201 18.6418C321.157 18.6418 322.029 18.4112 322.814 17.9499C323.617 17.4886 324.25 16.8309 324.711 15.9766C325.172 15.1224 325.403 14.1315 325.403 13.004ZM332.189 3.36844C331.83 3.36844 331.522 3.24031 331.266 2.98405C331.01 2.72778 330.882 2.41172 330.882 2.03587C330.882 1.66001 331.01 1.3525 331.266 1.11332C331.522 0.857051 331.83 0.728919 332.189 0.728919C332.548 0.728919 332.855 0.857051 333.111 1.11332C333.368 1.3525 333.496 1.66001 333.496 2.03587C333.496 2.41172 333.368 2.72778 333.111 2.98405C332.855 3.24031 332.548 3.36844 332.189 3.36844ZM333.086 6.00797V20H331.292V6.00797H333.086ZM338.942 1.03644V20H337.148V1.03644H338.942Z" fill="white"/>
</svg>
