<svg width="1062" height="149" viewBox="0 0 1062 149" fill="none" xmlns="http://www.w3.org/2000/svg">
<path d="M321.912 6.556L306.702 61H293.832L283.614 22.234L272.928 61L260.136 61.078L245.472 6.556H257.172L266.766 48.832L277.842 6.556H290.01L300.462 48.598L310.134 6.556H321.912ZM353.378 17.164C356.654 17.164 359.566 17.892 362.114 19.348C364.662 20.752 366.638 22.858 368.042 25.666C369.498 28.422 370.226 31.75 370.226 35.65V61H359.306V37.132C359.306 33.7 358.448 31.074 356.732 29.254C355.016 27.382 352.676 26.446 349.712 26.446C346.696 26.446 344.304 27.382 342.536 29.254C340.82 31.074 339.962 33.7 339.962 37.132V61H329.042V3.28H339.962V23.17C341.366 21.298 343.238 19.842 345.578 18.802C347.918 17.71 350.518 17.164 353.378 17.164ZM377.803 39.238C377.803 34.87 378.661 30.996 380.377 27.616C382.145 24.236 384.511 21.636 387.475 19.816C390.491 17.996 393.845 17.086 397.537 17.086C400.761 17.086 403.569 17.736 405.961 19.036C408.405 20.336 410.355 21.974 411.811 23.95V17.788H422.809V61H411.811V54.682C410.407 56.71 408.457 58.4 405.961 59.752C403.517 61.052 400.683 61.702 397.459 61.702C393.819 61.702 390.491 60.766 387.475 58.894C384.511 57.022 382.145 54.396 380.377 51.016C378.661 47.584 377.803 43.658 377.803 39.238ZM411.811 39.394C411.811 36.742 411.291 34.48 410.251 32.608C409.211 30.684 407.807 29.228 406.039 28.24C404.271 27.2 402.373 26.68 400.345 26.68C398.317 26.68 396.445 27.174 394.729 28.162C393.013 29.15 391.609 30.606 390.517 32.53C389.477 34.402 388.957 36.638 388.957 39.238C388.957 41.838 389.477 44.126 390.517 46.102C391.609 48.026 393.013 49.508 394.729 50.548C396.497 51.588 398.369 52.108 400.345 52.108C402.373 52.108 404.271 51.614 406.039 50.626C407.807 49.586 409.211 48.13 410.251 46.258C411.291 44.334 411.811 42.046 411.811 39.394ZM446.188 26.758V47.662C446.188 49.118 446.526 50.184 447.202 50.86C447.93 51.484 449.126 51.796 450.79 51.796H455.86V61H448.996C439.792 61 435.19 56.528 435.19 47.584V26.758H430.042V17.788H435.19V7.102H446.188V17.788H455.86V26.758H446.188ZM555.074 6.556L539.864 61H526.994L516.776 22.234L506.09 61L493.298 61.078L478.634 6.556H490.334L499.928 48.832L511.004 6.556H523.172L533.624 48.598L543.296 6.556H555.074ZM602.374 38.458C602.374 40.018 602.27 41.422 602.062 42.67H570.472C570.732 45.79 571.824 48.234 573.748 50.002C575.672 51.77 578.038 52.654 580.846 52.654C584.902 52.654 587.788 50.912 589.504 47.428H601.282C600.034 51.588 597.642 55.02 594.106 57.724C590.57 60.376 586.228 61.702 581.08 61.702C576.92 61.702 573.176 60.792 569.848 58.972C566.572 57.1 563.998 54.474 562.126 51.094C560.306 47.714 559.396 43.814 559.396 39.394C559.396 34.922 560.306 30.996 562.126 27.616C563.946 24.236 566.494 21.636 569.77 19.816C573.046 17.996 576.816 17.086 581.08 17.086C585.188 17.086 588.854 17.97 592.078 19.738C595.354 21.506 597.876 24.028 599.644 27.304C601.464 30.528 602.374 34.246 602.374 38.458ZM591.064 35.338C591.012 32.53 589.998 30.294 588.022 28.63C586.046 26.914 583.628 26.056 580.768 26.056C578.064 26.056 575.776 26.888 573.904 28.552C572.084 30.164 570.966 32.426 570.55 35.338H591.064ZM654.203 61.546C649.107 61.546 644.427 60.35 640.163 57.958C635.899 55.566 632.519 52.264 630.023 48.052C627.527 43.788 626.279 38.978 626.279 33.622C626.279 28.318 627.527 23.56 630.023 19.348C632.519 15.084 635.899 11.756 640.163 9.364C644.427 6.972 649.107 5.776 654.203 5.776C659.351 5.776 664.031 6.972 668.243 9.364C672.507 11.756 675.861 15.084 678.305 19.348C680.801 23.56 682.049 28.318 682.049 33.622C682.049 38.978 680.801 43.788 678.305 48.052C675.861 52.264 672.507 55.566 668.243 57.958C663.979 60.35 659.299 61.546 654.203 61.546ZM654.203 51.796C657.479 51.796 660.365 51.068 662.861 49.612C665.357 48.104 667.307 45.972 668.711 43.216C670.115 40.46 670.817 37.262 670.817 33.622C670.817 29.982 670.115 26.81 668.711 24.106C667.307 21.35 665.357 19.244 662.861 17.788C660.365 16.332 657.479 15.604 654.203 15.604C650.927 15.604 648.015 16.332 645.467 17.788C642.971 19.244 641.021 21.35 639.617 24.106C638.213 26.81 637.511 29.982 637.511 33.622C637.511 37.262 638.213 40.46 639.617 43.216C641.021 45.972 642.971 48.104 645.467 49.612C648.015 51.068 650.927 51.796 654.203 51.796ZM709.985 26.758H702.419V61H691.343V26.758H686.429V17.788H691.343V15.604C691.343 10.3 692.851 6.4 695.867 3.904C698.883 1.408 703.433 0.237998 709.517 0.393999V9.598C706.865 9.546 705.019 9.988 703.979 10.924C702.939 11.86 702.419 13.55 702.419 15.994V17.788H709.985V26.758ZM736.874 26.758H729.308V61H718.232V26.758H713.318V17.788H718.232V15.604C718.232 10.3 719.74 6.4 722.756 3.904C725.772 1.408 730.322 0.237998 736.406 0.393999V9.598C733.754 9.546 731.908 9.988 730.868 10.924C729.828 11.86 729.308 13.55 729.308 15.994V17.788H736.874V26.758ZM784.12 38.458C784.12 40.018 784.016 41.422 783.808 42.67H752.218C752.478 45.79 753.57 48.234 755.494 50.002C757.418 51.77 759.784 52.654 762.592 52.654C766.648 52.654 769.534 50.912 771.25 47.428H783.028C781.78 51.588 779.388 55.02 775.852 57.724C772.316 60.376 767.974 61.702 762.826 61.702C758.666 61.702 754.922 60.792 751.594 58.972C748.318 57.1 745.744 54.474 743.872 51.094C742.052 47.714 741.142 43.814 741.142 39.394C741.142 34.922 742.052 30.996 743.872 27.616C745.692 24.236 748.24 21.636 751.516 19.816C754.792 17.996 758.562 17.086 762.826 17.086C766.934 17.086 770.6 17.97 773.824 19.738C777.1 21.506 779.622 24.028 781.39 27.304C783.21 30.528 784.12 34.246 784.12 38.458ZM772.81 35.338C772.758 32.53 771.744 30.294 769.768 28.63C767.792 26.914 765.374 26.056 762.514 26.056C759.81 26.056 757.522 26.888 755.65 28.552C753.83 30.164 752.712 32.426 752.296 35.338H772.81ZM803.011 24.496C804.415 22.208 806.235 20.414 808.471 19.114C810.759 17.814 813.359 17.164 816.271 17.164V28.63H813.385C809.953 28.63 807.353 29.436 805.585 31.048C803.869 32.66 803.011 35.468 803.011 39.472V61H792.091V17.788H803.011V24.496Z" fill="#F2F2F3"/>
<path d="M122.075 93.624C122.075 91.992 122.443 90.528 123.179 89.232C123.915 87.92 124.915 86.896 126.179 86.16C127.459 85.424 128.875 85.056 130.427 85.056C132.251 85.056 133.843 85.496 135.203 86.376C136.563 87.256 137.555 88.504 138.179 90.12H135.563C135.099 89.112 134.427 88.336 133.547 87.792C132.683 87.248 131.643 86.976 130.427 86.976C129.259 86.976 128.211 87.248 127.283 87.792C126.355 88.336 125.627 89.112 125.099 90.12C124.571 91.112 124.307 92.28 124.307 93.624C124.307 94.952 124.571 96.12 125.099 97.128C125.627 98.12 126.355 98.888 127.283 99.432C128.211 99.976 129.259 100.248 130.427 100.248C131.643 100.248 132.683 99.984 133.547 99.456C134.427 98.912 135.099 98.136 135.563 97.128H138.179C137.555 98.728 136.563 99.968 135.203 100.848C133.843 101.712 132.251 102.144 130.427 102.144C128.875 102.144 127.459 101.784 126.179 101.064C124.915 100.328 123.915 99.312 123.179 98.016C122.443 96.72 122.075 95.256 122.075 93.624ZM153.094 88.848V102H150.91V100.056C150.494 100.728 149.91 101.256 149.158 101.64C148.422 102.008 147.606 102.192 146.71 102.192C145.686 102.192 144.766 101.984 143.95 101.568C143.134 101.136 142.486 100.496 142.006 99.648C141.542 98.8 141.31 97.768 141.31 96.552V88.848H143.47V96.264C143.47 97.56 143.798 98.56 144.454 99.264C145.11 99.952 146.006 100.296 147.142 100.296C148.31 100.296 149.23 99.936 149.902 99.216C150.574 98.496 150.91 97.448 150.91 96.072V88.848H153.094ZM161.438 102.216C160.43 102.216 159.526 102.048 158.726 101.712C157.926 101.36 157.294 100.88 156.83 100.272C156.366 99.648 156.11 98.936 156.062 98.136H158.318C158.382 98.792 158.686 99.328 159.23 99.744C159.79 100.16 160.518 100.368 161.414 100.368C162.246 100.368 162.902 100.184 163.382 99.816C163.862 99.448 164.102 98.984 164.102 98.424C164.102 97.848 163.846 97.424 163.334 97.152C162.822 96.864 162.03 96.584 160.958 96.312C159.982 96.056 159.182 95.8 158.558 95.544C157.95 95.272 157.422 94.88 156.974 94.368C156.542 93.84 156.326 93.152 156.326 92.304C156.326 91.632 156.526 91.016 156.926 90.456C157.326 89.896 157.894 89.456 158.63 89.136C159.366 88.8 160.206 88.632 161.15 88.632C162.606 88.632 163.782 89 164.678 89.736C165.574 90.472 166.054 91.48 166.118 92.76H163.934C163.886 92.072 163.606 91.52 163.094 91.104C162.598 90.688 161.926 90.48 161.078 90.48C160.294 90.48 159.67 90.648 159.206 90.984C158.742 91.32 158.51 91.76 158.51 92.304C158.51 92.736 158.646 93.096 158.918 93.384C159.206 93.656 159.558 93.88 159.974 94.056C160.406 94.216 160.998 94.4 161.75 94.608C162.694 94.864 163.462 95.12 164.054 95.376C164.646 95.616 165.15 95.984 165.566 96.48C165.998 96.976 166.222 97.624 166.238 98.424C166.238 99.144 166.038 99.792 165.638 100.368C165.238 100.944 164.67 101.4 163.934 101.736C163.214 102.056 162.382 102.216 161.438 102.216ZM171.985 90.648V98.4C171.985 99.04 172.121 99.496 172.393 99.768C172.665 100.024 173.137 100.152 173.809 100.152H175.417V102H173.449C172.233 102 171.321 101.72 170.713 101.16C170.105 100.6 169.801 99.68 169.801 98.4V90.648H168.097V88.848H169.801V85.536H171.985V88.848H175.417V90.648H171.985ZM183.799 102.216C182.567 102.216 181.447 101.936 180.439 101.376C179.447 100.816 178.663 100.024 178.087 99C177.527 97.96 177.247 96.76 177.247 95.4C177.247 94.056 177.535 92.872 178.111 91.848C178.703 90.808 179.503 90.016 180.511 89.472C181.519 88.912 182.647 88.632 183.895 88.632C185.143 88.632 186.271 88.912 187.279 89.472C188.287 90.016 189.079 90.8 189.655 91.824C190.247 92.848 190.543 94.04 190.543 95.4C190.543 96.76 190.239 97.96 189.631 99C189.039 100.024 188.231 100.816 187.207 101.376C186.183 101.936 185.047 102.216 183.799 102.216ZM183.799 100.296C184.583 100.296 185.319 100.112 186.007 99.744C186.695 99.376 187.247 98.824 187.663 98.088C188.095 97.352 188.311 96.456 188.311 95.4C188.311 94.344 188.103 93.448 187.687 92.712C187.271 91.976 186.727 91.432 186.055 91.08C185.383 90.712 184.655 90.528 183.871 90.528C183.071 90.528 182.335 90.712 181.663 91.08C181.007 91.432 180.479 91.976 180.079 92.712C179.679 93.448 179.479 94.344 179.479 95.4C179.479 96.472 179.671 97.376 180.055 98.112C180.455 98.848 180.983 99.4 181.639 99.768C182.295 100.12 183.015 100.296 183.799 100.296ZM209.23 88.608C210.254 88.608 211.166 88.824 211.966 89.256C212.766 89.672 213.398 90.304 213.862 91.152C214.326 92 214.558 93.032 214.558 94.248V102H212.398V94.56C212.398 93.248 212.07 92.248 211.414 91.56C210.774 90.856 209.902 90.504 208.798 90.504C207.662 90.504 206.758 90.872 206.086 91.608C205.414 92.328 205.078 93.376 205.078 94.752V102H202.918V94.56C202.918 93.248 202.59 92.248 201.934 91.56C201.294 90.856 200.422 90.504 199.318 90.504C198.182 90.504 197.278 90.872 196.606 91.608C195.934 92.328 195.598 93.376 195.598 94.752V102H193.414V88.848H195.598V90.744C196.03 90.056 196.606 89.528 197.326 89.16C198.062 88.792 198.87 88.608 199.75 88.608C200.854 88.608 201.83 88.856 202.678 89.352C203.526 89.848 204.158 90.576 204.574 91.536C204.942 90.608 205.55 89.888 206.398 89.376C207.246 88.864 208.19 88.608 209.23 88.608ZM227.261 92.28V94.128H217.685V92.28H227.261ZM236.712 90.648H233.952V102H231.768V90.648H230.064V88.848H231.768V87.912C231.768 86.44 232.144 85.368 232.896 84.696C233.664 84.008 234.888 83.664 236.568 83.664V85.488C235.608 85.488 234.928 85.68 234.528 86.064C234.144 86.432 233.952 87.048 233.952 87.912V88.848H236.712V90.648ZM244.994 102.216C243.762 102.216 242.642 101.936 241.634 101.376C240.642 100.816 239.858 100.024 239.282 99C238.722 97.96 238.442 96.76 238.442 95.4C238.442 94.056 238.73 92.872 239.306 91.848C239.898 90.808 240.698 90.016 241.706 89.472C242.714 88.912 243.842 88.632 245.09 88.632C246.338 88.632 247.466 88.912 248.474 89.472C249.482 90.016 250.274 90.8 250.85 91.824C251.442 92.848 251.738 94.04 251.738 95.4C251.738 96.76 251.434 97.96 250.826 99C250.234 100.024 249.426 100.816 248.402 101.376C247.378 101.936 246.242 102.216 244.994 102.216ZM244.994 100.296C245.778 100.296 246.514 100.112 247.202 99.744C247.89 99.376 248.442 98.824 248.858 98.088C249.29 97.352 249.506 96.456 249.506 95.4C249.506 94.344 249.298 93.448 248.882 92.712C248.466 91.976 247.922 91.432 247.25 91.08C246.578 90.712 245.85 90.528 245.066 90.528C244.266 90.528 243.53 90.712 242.858 91.08C242.202 91.432 241.674 91.976 241.274 92.712C240.874 93.448 240.674 94.344 240.674 95.4C240.674 96.472 240.866 97.376 241.25 98.112C241.65 98.848 242.178 99.4 242.834 99.768C243.49 100.12 244.21 100.296 244.994 100.296ZM256.794 90.984C257.178 90.232 257.722 89.648 258.426 89.232C259.146 88.816 260.018 88.608 261.042 88.608V90.864H260.466C258.018 90.864 256.794 92.192 256.794 94.848V102H254.61V88.848H256.794V90.984ZM279.379 88.608C280.403 88.608 281.315 88.824 282.115 89.256C282.915 89.672 283.547 90.304 284.011 91.152C284.475 92 284.707 93.032 284.707 94.248V102H282.547V94.56C282.547 93.248 282.219 92.248 281.563 91.56C280.923 90.856 280.051 90.504 278.947 90.504C277.811 90.504 276.907 90.872 276.235 91.608C275.563 92.328 275.227 93.376 275.227 94.752V102H273.067V94.56C273.067 93.248 272.739 92.248 272.083 91.56C271.443 90.856 270.571 90.504 269.467 90.504C268.331 90.504 267.427 90.872 266.755 91.608C266.083 92.328 265.747 93.376 265.747 94.752V102H263.563V88.848H265.747V90.744C266.179 90.056 266.755 89.528 267.475 89.16C268.211 88.792 269.019 88.608 269.899 88.608C271.003 88.608 271.979 88.856 272.827 89.352C273.675 89.848 274.307 90.576 274.723 91.536C275.091 90.608 275.699 89.888 276.547 89.376C277.395 88.864 278.339 88.608 279.379 88.608ZM299.953 88.848V102H297.769V100.056C297.353 100.728 296.769 101.256 296.017 101.64C295.281 102.008 294.465 102.192 293.569 102.192C292.545 102.192 291.625 101.984 290.809 101.568C289.993 101.136 289.345 100.496 288.865 99.648C288.401 98.8 288.169 97.768 288.169 96.552V88.848H290.329V96.264C290.329 97.56 290.657 98.56 291.313 99.264C291.969 99.952 292.865 100.296 294.001 100.296C295.169 100.296 296.089 99.936 296.761 99.216C297.433 98.496 297.769 97.448 297.769 96.072V88.848H299.953ZM305.825 84.24V102H303.641V84.24H305.825ZM308.731 95.376C308.731 94.032 309.003 92.856 309.547 91.848C310.091 90.824 310.835 90.032 311.779 89.472C312.739 88.912 313.803 88.632 314.971 88.632C316.123 88.632 317.123 88.88 317.971 89.376C318.819 89.872 319.451 90.496 319.867 91.248V88.848H322.075V102H319.867V99.552C319.435 100.32 318.787 100.96 317.923 101.472C317.075 101.968 316.083 102.216 314.947 102.216C313.779 102.216 312.723 101.928 311.779 101.352C310.835 100.776 310.091 99.968 309.547 98.928C309.003 97.888 308.731 96.704 308.731 95.376ZM319.867 95.4C319.867 94.408 319.667 93.544 319.267 92.808C318.867 92.072 318.323 91.512 317.635 91.128C316.963 90.728 316.219 90.528 315.403 90.528C314.587 90.528 313.843 90.72 313.171 91.104C312.499 91.488 311.963 92.048 311.563 92.784C311.163 93.52 310.963 94.384 310.963 95.376C310.963 96.384 311.163 97.264 311.563 98.016C311.963 98.752 312.499 99.32 313.171 99.72C313.843 100.104 314.587 100.296 315.403 100.296C316.219 100.296 316.963 100.104 317.635 99.72C318.323 99.32 318.867 98.752 319.267 98.016C319.667 97.264 319.867 96.392 319.867 95.4ZM328.43 90.648V98.4C328.43 99.04 328.566 99.496 328.838 99.768C329.11 100.024 329.582 100.152 330.254 100.152H331.862V102H329.894C328.678 102 327.766 101.72 327.158 101.16C326.55 100.6 326.246 99.68 326.246 98.4V90.648H324.542V88.848H326.246V85.536H328.43V88.848H331.862V90.648H328.43ZM346.508 94.92C346.508 95.336 346.484 95.776 346.436 96.24H335.924C336.004 97.536 336.444 98.552 337.244 99.288C338.06 100.008 339.044 100.368 340.196 100.368C341.14 100.368 341.924 100.152 342.548 99.72C343.188 99.272 343.636 98.68 343.892 97.944H346.244C345.892 99.208 345.188 100.24 344.132 101.04C343.076 101.824 341.764 102.216 340.196 102.216C338.948 102.216 337.828 101.936 336.836 101.376C335.86 100.816 335.092 100.024 334.532 99C333.972 97.96 333.692 96.76 333.692 95.4C333.692 94.04 333.964 92.848 334.508 91.824C335.052 90.8 335.812 90.016 336.788 89.472C337.78 88.912 338.916 88.632 340.196 88.632C341.444 88.632 342.548 88.904 343.508 89.448C344.468 89.992 345.204 90.744 345.716 91.704C346.244 92.648 346.508 93.72 346.508 94.92ZM344.252 94.464C344.252 93.632 344.068 92.92 343.7 92.328C343.332 91.72 342.828 91.264 342.188 90.96C341.564 90.64 340.868 90.48 340.1 90.48C338.996 90.48 338.052 90.832 337.268 91.536C336.5 92.24 336.06 93.216 335.948 94.464H344.252ZM348.575 95.376C348.575 94.032 348.847 92.856 349.391 91.848C349.935 90.824 350.679 90.032 351.623 89.472C352.583 88.912 353.655 88.632 354.839 88.632C355.863 88.632 356.815 88.872 357.695 89.352C358.575 89.816 359.247 90.432 359.711 91.2V84.24H361.919V102H359.711V99.528C359.279 100.312 358.639 100.96 357.791 101.472C356.943 101.968 355.951 102.216 354.815 102.216C353.647 102.216 352.583 101.928 351.623 101.352C350.679 100.776 349.935 99.968 349.391 98.928C348.847 97.888 348.575 96.704 348.575 95.376ZM359.711 95.4C359.711 94.408 359.511 93.544 359.111 92.808C358.711 92.072 358.167 91.512 357.479 91.128C356.807 90.728 356.063 90.528 355.247 90.528C354.431 90.528 353.687 90.72 353.015 91.104C352.343 91.488 351.807 92.048 351.407 92.784C351.007 93.52 350.807 94.384 350.807 95.376C350.807 96.384 351.007 97.264 351.407 98.016C351.807 98.752 352.343 99.32 353.015 99.72C353.687 100.104 354.431 100.296 355.247 100.296C356.063 100.296 356.807 100.104 357.479 99.72C358.167 99.32 358.711 98.752 359.111 98.016C359.511 97.264 359.711 96.392 359.711 95.4ZM387.824 88.608C388.848 88.608 389.76 88.824 390.56 89.256C391.36 89.672 391.992 90.304 392.456 91.152C392.92 92 393.152 93.032 393.152 94.248V102H390.992V94.56C390.992 93.248 390.664 92.248 390.008 91.56C389.368 90.856 388.496 90.504 387.392 90.504C386.256 90.504 385.352 90.872 384.68 91.608C384.008 92.328 383.672 93.376 383.672 94.752V102H381.512V94.56C381.512 93.248 381.184 92.248 380.528 91.56C379.888 90.856 379.016 90.504 377.912 90.504C376.776 90.504 375.872 90.872 375.2 91.608C374.528 92.328 374.192 93.376 374.192 94.752V102H372.008V88.848H374.192V90.744C374.624 90.056 375.2 89.528 375.92 89.16C376.656 88.792 377.464 88.608 378.344 88.608C379.448 88.608 380.424 88.856 381.272 89.352C382.12 89.848 382.752 90.576 383.168 91.536C383.536 90.608 384.144 89.888 384.992 89.376C385.84 88.864 386.784 88.608 387.824 88.608ZM395.919 95.376C395.919 94.032 396.191 92.856 396.735 91.848C397.279 90.824 398.023 90.032 398.967 89.472C399.927 88.912 400.991 88.632 402.159 88.632C403.311 88.632 404.311 88.88 405.159 89.376C406.007 89.872 406.639 90.496 407.055 91.248V88.848H409.263V102H407.055V99.552C406.623 100.32 405.975 100.96 405.111 101.472C404.263 101.968 403.271 102.216 402.135 102.216C400.967 102.216 399.911 101.928 398.967 101.352C398.023 100.776 397.279 99.968 396.735 98.928C396.191 97.888 395.919 96.704 395.919 95.376ZM407.055 95.4C407.055 94.408 406.855 93.544 406.455 92.808C406.055 92.072 405.511 91.512 404.823 91.128C404.151 90.728 403.407 90.528 402.591 90.528C401.775 90.528 401.031 90.72 400.359 91.104C399.687 91.488 399.151 92.048 398.751 92.784C398.351 93.52 398.151 94.384 398.151 95.376C398.151 96.384 398.351 97.264 398.751 98.016C399.151 98.752 399.687 99.32 400.359 99.72C401.031 100.104 401.775 100.296 402.591 100.296C403.407 100.296 404.151 100.104 404.823 99.72C405.511 99.32 406.055 98.752 406.455 98.016C406.855 97.264 407.055 96.392 407.055 95.4ZM415.137 90.984C415.521 90.232 416.065 89.648 416.769 89.232C417.489 88.816 418.361 88.608 419.385 88.608V90.864H418.809C416.361 90.864 415.137 92.192 415.137 94.848V102H412.953V88.848H415.137V90.984ZM429.251 102L424.091 96.192V102H421.907V84.24H424.091V94.68L429.155 88.848H432.203L426.011 95.4L432.227 102H429.251ZM446.258 94.92C446.258 95.336 446.234 95.776 446.186 96.24H435.674C435.754 97.536 436.194 98.552 436.994 99.288C437.81 100.008 438.794 100.368 439.946 100.368C440.89 100.368 441.674 100.152 442.298 99.72C442.938 99.272 443.386 98.68 443.642 97.944H445.994C445.642 99.208 444.938 100.24 443.882 101.04C442.826 101.824 441.514 102.216 439.946 102.216C438.698 102.216 437.578 101.936 436.586 101.376C435.61 100.816 434.842 100.024 434.282 99C433.722 97.96 433.442 96.76 433.442 95.4C433.442 94.04 433.714 92.848 434.258 91.824C434.802 90.8 435.562 90.016 436.538 89.472C437.53 88.912 438.666 88.632 439.946 88.632C441.194 88.632 442.298 88.904 443.258 89.448C444.218 89.992 444.954 90.744 445.466 91.704C445.994 92.648 446.258 93.72 446.258 94.92ZM444.002 94.464C444.002 93.632 443.818 92.92 443.45 92.328C443.082 91.72 442.578 91.264 441.938 90.96C441.314 90.64 440.618 90.48 439.85 90.48C438.746 90.48 437.802 90.832 437.018 91.536C436.25 92.24 435.81 93.216 435.698 94.464H444.002ZM451.805 90.648V98.4C451.805 99.04 451.941 99.496 452.213 99.768C452.485 100.024 452.957 100.152 453.629 100.152H455.237V102H453.269C452.053 102 451.141 101.72 450.533 101.16C449.925 100.6 449.621 99.68 449.621 98.4V90.648H447.917V88.848H449.621V85.536H451.805V88.848H455.237V90.648H451.805ZM459.011 86.712C458.595 86.712 458.243 86.568 457.955 86.28C457.667 85.992 457.523 85.64 457.523 85.224C457.523 84.808 457.667 84.456 457.955 84.168C458.243 83.88 458.595 83.736 459.011 83.736C459.411 83.736 459.747 83.88 460.019 84.168C460.307 84.456 460.451 84.808 460.451 85.224C460.451 85.64 460.307 85.992 460.019 86.28C459.747 86.568 459.411 86.712 459.011 86.712ZM460.067 88.848V102H457.883V88.848H460.067ZM470.197 88.608C471.797 88.608 473.093 89.096 474.085 90.072C475.077 91.032 475.573 92.424 475.573 94.248V102H473.413V94.56C473.413 93.248 473.085 92.248 472.429 91.56C471.773 90.856 470.877 90.504 469.741 90.504C468.589 90.504 467.669 90.864 466.981 91.584C466.309 92.304 465.973 93.352 465.973 94.728V102H463.789V88.848H465.973V90.72C466.405 90.048 466.989 89.528 467.725 89.16C468.477 88.792 469.301 88.608 470.197 88.608ZM484.565 88.632C485.701 88.632 486.693 88.88 487.541 89.376C488.405 89.872 489.045 90.496 489.461 91.248V88.848H491.669V102.288C491.669 103.488 491.413 104.552 490.901 105.48C490.389 106.424 489.653 107.16 488.693 107.688C487.749 108.216 486.645 108.48 485.381 108.48C483.653 108.48 482.213 108.072 481.061 107.256C479.909 106.44 479.229 105.328 479.021 103.92H481.181C481.421 104.72 481.917 105.36 482.669 105.84C483.421 106.336 484.325 106.584 485.381 106.584C486.581 106.584 487.557 106.208 488.309 105.456C489.077 104.704 489.461 103.648 489.461 102.288V99.528C489.029 100.296 488.389 100.936 487.541 101.448C486.693 101.96 485.701 102.216 484.565 102.216C483.397 102.216 482.333 101.928 481.373 101.352C480.429 100.776 479.685 99.968 479.141 98.928C478.597 97.888 478.325 96.704 478.325 95.376C478.325 94.032 478.597 92.856 479.141 91.848C479.685 90.824 480.429 90.032 481.373 89.472C482.333 88.912 483.397 88.632 484.565 88.632ZM489.461 95.4C489.461 94.408 489.261 93.544 488.861 92.808C488.461 92.072 487.917 91.512 487.229 91.128C486.557 90.728 485.813 90.528 484.997 90.528C484.181 90.528 483.437 90.72 482.765 91.104C482.093 91.488 481.557 92.048 481.157 92.784C480.757 93.52 480.557 94.384 480.557 95.376C480.557 96.384 480.757 97.264 481.157 98.016C481.557 98.752 482.093 99.32 482.765 99.72C483.437 100.104 484.181 100.296 484.997 100.296C485.813 100.296 486.557 100.104 487.229 99.72C487.917 99.32 488.461 98.752 488.861 98.016C489.261 97.264 489.461 96.392 489.461 95.4ZM506.414 102.216C505.406 102.216 504.502 102.048 503.702 101.712C502.902 101.36 502.27 100.88 501.806 100.272C501.342 99.648 501.086 98.936 501.038 98.136H503.294C503.358 98.792 503.662 99.328 504.206 99.744C504.766 100.16 505.494 100.368 506.39 100.368C507.222 100.368 507.878 100.184 508.358 99.816C508.838 99.448 509.078 98.984 509.078 98.424C509.078 97.848 508.822 97.424 508.31 97.152C507.798 96.864 507.006 96.584 505.934 96.312C504.958 96.056 504.158 95.8 503.534 95.544C502.926 95.272 502.398 94.88 501.95 94.368C501.518 93.84 501.302 93.152 501.302 92.304C501.302 91.632 501.502 91.016 501.902 90.456C502.302 89.896 502.87 89.456 503.606 89.136C504.342 88.8 505.182 88.632 506.126 88.632C507.582 88.632 508.758 89 509.654 89.736C510.55 90.472 511.03 91.48 511.094 92.76H508.91C508.862 92.072 508.582 91.52 508.07 91.104C507.574 90.688 506.902 90.48 506.054 90.48C505.27 90.48 504.646 90.648 504.182 90.984C503.718 91.32 503.486 91.76 503.486 92.304C503.486 92.736 503.622 93.096 503.894 93.384C504.182 93.656 504.534 93.88 504.95 94.056C505.382 94.216 505.974 94.4 506.726 94.608C507.67 94.864 508.438 95.12 509.03 95.376C509.622 95.616 510.126 95.984 510.542 96.48C510.974 96.976 511.198 97.624 511.214 98.424C511.214 99.144 511.014 99.792 510.614 100.368C510.214 100.944 509.646 101.4 508.91 101.736C508.19 102.056 507.358 102.216 506.414 102.216ZM520.033 102.216C518.801 102.216 517.681 101.936 516.673 101.376C515.681 100.816 514.897 100.024 514.321 99C513.761 97.96 513.481 96.76 513.481 95.4C513.481 94.056 513.769 92.872 514.345 91.848C514.937 90.808 515.737 90.016 516.745 89.472C517.753 88.912 518.881 88.632 520.129 88.632C521.377 88.632 522.505 88.912 523.513 89.472C524.521 90.016 525.313 90.8 525.889 91.824C526.481 92.848 526.777 94.04 526.777 95.4C526.777 96.76 526.473 97.96 525.865 99C525.273 100.024 524.465 100.816 523.441 101.376C522.417 101.936 521.281 102.216 520.033 102.216ZM520.033 100.296C520.817 100.296 521.553 100.112 522.241 99.744C522.929 99.376 523.481 98.824 523.897 98.088C524.329 97.352 524.545 96.456 524.545 95.4C524.545 94.344 524.337 93.448 523.921 92.712C523.505 91.976 522.961 91.432 522.289 91.08C521.617 90.712 520.889 90.528 520.105 90.528C519.305 90.528 518.569 90.712 517.897 91.08C517.241 91.432 516.713 91.976 516.313 92.712C515.913 93.448 515.713 94.344 515.713 95.4C515.713 96.472 515.905 97.376 516.289 98.112C516.689 98.848 517.217 99.4 517.873 99.768C518.529 100.12 519.249 100.296 520.033 100.296ZM531.833 84.24V102H529.649V84.24H531.833ZM547.219 88.848V102H545.035V100.056C544.619 100.728 544.035 101.256 543.283 101.64C542.547 102.008 541.731 102.192 540.835 102.192C539.811 102.192 538.891 101.984 538.075 101.568C537.259 101.136 536.611 100.496 536.131 99.648C535.667 98.8 535.435 97.768 535.435 96.552V88.848H537.595V96.264C537.595 97.56 537.923 98.56 538.579 99.264C539.235 99.952 540.131 100.296 541.267 100.296C542.435 100.296 543.355 99.936 544.027 99.216C544.699 98.496 545.035 97.448 545.035 96.072V88.848H547.219ZM553.571 90.648V98.4C553.571 99.04 553.707 99.496 553.979 99.768C554.251 100.024 554.723 100.152 555.395 100.152H557.003V102H555.035C553.819 102 552.907 101.72 552.299 101.16C551.691 100.6 551.387 99.68 551.387 98.4V90.648H549.683V88.848H551.387V85.536H553.571V88.848H557.003V90.648H553.571ZM560.777 86.712C560.361 86.712 560.009 86.568 559.721 86.28C559.433 85.992 559.289 85.64 559.289 85.224C559.289 84.808 559.433 84.456 559.721 84.168C560.009 83.88 560.361 83.736 560.777 83.736C561.177 83.736 561.513 83.88 561.785 84.168C562.073 84.456 562.217 84.808 562.217 85.224C562.217 85.64 562.073 85.992 561.785 86.28C561.513 86.568 561.177 86.712 560.777 86.712ZM561.833 88.848V102H559.649V88.848H561.833ZM571.291 102.216C570.059 102.216 568.939 101.936 567.931 101.376C566.939 100.816 566.155 100.024 565.579 99C565.019 97.96 564.739 96.76 564.739 95.4C564.739 94.056 565.027 92.872 565.603 91.848C566.195 90.808 566.995 90.016 568.003 89.472C569.011 88.912 570.139 88.632 571.387 88.632C572.635 88.632 573.763 88.912 574.771 89.472C575.779 90.016 576.571 90.8 577.147 91.824C577.739 92.848 578.035 94.04 578.035 95.4C578.035 96.76 577.731 97.96 577.123 99C576.531 100.024 575.723 100.816 574.699 101.376C573.675 101.936 572.539 102.216 571.291 102.216ZM571.291 100.296C572.075 100.296 572.811 100.112 573.499 99.744C574.187 99.376 574.739 98.824 575.155 98.088C575.587 97.352 575.803 96.456 575.803 95.4C575.803 94.344 575.595 93.448 575.179 92.712C574.763 91.976 574.219 91.432 573.547 91.08C572.875 90.712 572.147 90.528 571.363 90.528C570.563 90.528 569.827 90.712 569.155 91.08C568.499 91.432 567.971 91.976 567.571 92.712C567.171 93.448 566.971 94.344 566.971 95.4C566.971 96.472 567.163 97.376 567.547 98.112C567.947 98.848 568.475 99.4 569.131 99.768C569.787 100.12 570.507 100.296 571.291 100.296ZM587.315 88.608C588.915 88.608 590.211 89.096 591.203 90.072C592.195 91.032 592.691 92.424 592.691 94.248V102H590.531V94.56C590.531 93.248 590.203 92.248 589.547 91.56C588.891 90.856 587.995 90.504 586.859 90.504C585.707 90.504 584.787 90.864 584.099 91.584C583.427 92.304 583.091 93.352 583.091 94.728V102H580.907V88.848H583.091V90.72C583.523 90.048 584.107 89.528 584.843 89.16C585.595 88.792 586.419 88.608 587.315 88.608ZM600.914 102.216C599.906 102.216 599.002 102.048 598.202 101.712C597.402 101.36 596.77 100.88 596.306 100.272C595.842 99.648 595.586 98.936 595.538 98.136H597.794C597.858 98.792 598.162 99.328 598.706 99.744C599.266 100.16 599.994 100.368 600.89 100.368C601.722 100.368 602.378 100.184 602.858 99.816C603.338 99.448 603.578 98.984 603.578 98.424C603.578 97.848 603.322 97.424 602.81 97.152C602.298 96.864 601.506 96.584 600.434 96.312C599.458 96.056 598.658 95.8 598.034 95.544C597.426 95.272 596.898 94.88 596.45 94.368C596.018 93.84 595.802 93.152 595.802 92.304C595.802 91.632 596.002 91.016 596.402 90.456C596.802 89.896 597.37 89.456 598.106 89.136C598.842 88.8 599.682 88.632 600.626 88.632C602.082 88.632 603.258 89 604.154 89.736C605.05 90.472 605.53 91.48 605.594 92.76H603.41C603.362 92.072 603.082 91.52 602.57 91.104C602.074 90.688 601.402 90.48 600.554 90.48C599.77 90.48 599.146 90.648 598.682 90.984C598.218 91.32 597.986 91.76 597.986 92.304C597.986 92.736 598.122 93.096 598.394 93.384C598.682 93.656 599.034 93.88 599.45 94.056C599.882 94.216 600.474 94.4 601.226 94.608C602.17 94.864 602.938 95.12 603.53 95.376C604.122 95.616 604.626 95.984 605.042 96.48C605.474 96.976 605.698 97.624 605.714 98.424C605.714 99.144 605.514 99.792 605.114 100.368C604.714 100.944 604.146 101.4 603.41 101.736C602.69 102.056 601.858 102.216 600.914 102.216ZM617.86 90.648V98.4C617.86 99.04 617.996 99.496 618.268 99.768C618.54 100.024 619.012 100.152 619.684 100.152H621.292V102H619.324C618.108 102 617.196 101.72 616.588 101.16C615.98 100.6 615.676 99.68 615.676 98.4V90.648H613.972V88.848H615.676V85.536H617.86V88.848H621.292V90.648H617.86ZM630.466 88.608C631.458 88.608 632.354 88.824 633.154 89.256C633.954 89.672 634.578 90.304 635.026 91.152C635.49 92 635.722 93.032 635.722 94.248V102H633.562V94.56C633.562 93.248 633.234 92.248 632.578 91.56C631.922 90.856 631.026 90.504 629.89 90.504C628.738 90.504 627.818 90.864 627.13 91.584C626.458 92.304 626.122 93.352 626.122 94.728V102H623.938V84.24H626.122V90.72C626.554 90.048 627.146 89.528 627.898 89.16C628.666 88.792 629.522 88.608 630.466 88.608ZM638.473 95.376C638.473 94.032 638.745 92.856 639.289 91.848C639.833 90.824 640.577 90.032 641.521 89.472C642.481 88.912 643.545 88.632 644.713 88.632C645.865 88.632 646.865 88.88 647.713 89.376C648.561 89.872 649.193 90.496 649.609 91.248V88.848H651.817V102H649.609V99.552C649.177 100.32 648.529 100.96 647.665 101.472C646.817 101.968 645.825 102.216 644.689 102.216C643.521 102.216 642.465 101.928 641.521 101.352C640.577 100.776 639.833 99.968 639.289 98.928C638.745 97.888 638.473 96.704 638.473 95.376ZM649.609 95.4C649.609 94.408 649.409 93.544 649.009 92.808C648.609 92.072 648.065 91.512 647.377 91.128C646.705 90.728 645.961 90.528 645.145 90.528C644.329 90.528 643.585 90.72 642.913 91.104C642.241 91.488 641.705 92.048 641.305 92.784C640.905 93.52 640.705 94.384 640.705 95.376C640.705 96.384 640.905 97.264 641.305 98.016C641.705 98.752 642.241 99.32 642.913 99.72C643.585 100.104 644.329 100.296 645.145 100.296C645.961 100.296 646.705 100.104 647.377 99.72C648.065 99.32 648.609 98.752 649.009 98.016C649.409 97.264 649.609 96.392 649.609 95.4ZM658.172 90.648V98.4C658.172 99.04 658.308 99.496 658.58 99.768C658.852 100.024 659.324 100.152 659.996 100.152H661.604V102H659.636C658.42 102 657.508 101.72 656.9 101.16C656.292 100.6 655.988 99.68 655.988 98.4V90.648H654.284V88.848H655.988V85.536H658.172V88.848H661.604V90.648H658.172ZM671.777 86.712C671.361 86.712 671.009 86.568 670.721 86.28C670.433 85.992 670.289 85.64 670.289 85.224C670.289 84.808 670.433 84.456 670.721 84.168C671.009 83.88 671.361 83.736 671.777 83.736C672.177 83.736 672.513 83.88 672.785 84.168C673.073 84.456 673.217 84.808 673.217 85.224C673.217 85.64 673.073 85.992 672.785 86.28C672.513 86.568 672.177 86.712 671.777 86.712ZM672.833 88.848V102H670.649V88.848H672.833ZM681.979 88.632C683.115 88.632 684.107 88.88 684.955 89.376C685.819 89.872 686.459 90.496 686.875 91.248V88.848H689.083V102.288C689.083 103.488 688.827 104.552 688.315 105.48C687.803 106.424 687.067 107.16 686.107 107.688C685.163 108.216 684.059 108.48 682.795 108.48C681.067 108.48 679.627 108.072 678.475 107.256C677.323 106.44 676.643 105.328 676.435 103.92H678.595C678.835 104.72 679.331 105.36 680.083 105.84C680.835 106.336 681.739 106.584 682.795 106.584C683.995 106.584 684.971 106.208 685.723 105.456C686.491 104.704 686.875 103.648 686.875 102.288V99.528C686.443 100.296 685.803 100.936 684.955 101.448C684.107 101.96 683.115 102.216 681.979 102.216C680.811 102.216 679.747 101.928 678.787 101.352C677.843 100.776 677.099 99.968 676.555 98.928C676.011 97.888 675.739 96.704 675.739 95.376C675.739 94.032 676.011 92.856 676.555 91.848C677.099 90.824 677.843 90.032 678.787 89.472C679.747 88.912 680.811 88.632 681.979 88.632ZM686.875 95.4C686.875 94.408 686.675 93.544 686.275 92.808C685.875 92.072 685.331 91.512 684.643 91.128C683.971 90.728 683.227 90.528 682.411 90.528C681.595 90.528 680.851 90.72 680.179 91.104C679.507 91.488 678.971 92.048 678.571 92.784C678.171 93.52 677.971 94.384 677.971 95.376C677.971 96.384 678.171 97.264 678.571 98.016C678.971 98.752 679.507 99.32 680.179 99.72C680.851 100.104 681.595 100.296 682.411 100.296C683.227 100.296 683.971 100.104 684.643 99.72C685.331 99.32 685.875 98.752 686.275 98.016C686.675 97.264 686.875 96.392 686.875 95.4ZM699.182 88.608C700.782 88.608 702.078 89.096 703.07 90.072C704.062 91.032 704.558 92.424 704.558 94.248V102H702.398V94.56C702.398 93.248 702.07 92.248 701.414 91.56C700.758 90.856 699.862 90.504 698.726 90.504C697.574 90.504 696.654 90.864 695.966 91.584C695.294 92.304 694.958 93.352 694.958 94.728V102H692.774V88.848H694.958V90.72C695.39 90.048 695.974 89.528 696.71 89.16C697.462 88.792 698.286 88.608 699.182 88.608ZM709.253 86.712C708.837 86.712 708.485 86.568 708.197 86.28C707.909 85.992 707.765 85.64 707.765 85.224C707.765 84.808 707.909 84.456 708.197 84.168C708.485 83.88 708.837 83.736 709.253 83.736C709.653 83.736 709.989 83.88 710.261 84.168C710.549 84.456 710.693 84.808 710.693 85.224C710.693 85.64 710.549 85.992 710.261 86.28C709.989 86.568 709.653 86.712 709.253 86.712ZM710.309 88.848V102H708.125V88.848H710.309ZM716.696 90.648V98.4C716.696 99.04 716.832 99.496 717.104 99.768C717.376 100.024 717.848 100.152 718.52 100.152H720.128V102H718.16C716.944 102 716.032 101.72 715.424 101.16C714.816 100.6 714.512 99.68 714.512 98.4V90.648H712.808V88.848H714.512V85.536H716.696V88.848H720.128V90.648H716.696ZM734.774 94.92C734.774 95.336 734.75 95.776 734.702 96.24H724.19C724.27 97.536 724.71 98.552 725.51 99.288C726.326 100.008 727.31 100.368 728.462 100.368C729.406 100.368 730.19 100.152 730.814 99.72C731.454 99.272 731.902 98.68 732.158 97.944H734.51C734.158 99.208 733.454 100.24 732.398 101.04C731.342 101.824 730.03 102.216 728.462 102.216C727.214 102.216 726.094 101.936 725.102 101.376C724.126 100.816 723.358 100.024 722.798 99C722.238 97.96 721.958 96.76 721.958 95.4C721.958 94.04 722.23 92.848 722.774 91.824C723.318 90.8 724.078 90.016 725.054 89.472C726.046 88.912 727.182 88.632 728.462 88.632C729.71 88.632 730.814 88.904 731.774 89.448C732.734 89.992 733.47 90.744 733.982 91.704C734.51 92.648 734.774 93.72 734.774 94.92ZM732.518 94.464C732.518 93.632 732.334 92.92 731.966 92.328C731.598 91.72 731.094 91.264 730.454 90.96C729.83 90.64 729.134 90.48 728.366 90.48C727.262 90.48 726.318 90.832 725.534 91.536C724.766 92.24 724.326 93.216 724.214 94.464H732.518ZM745.183 86.712C744.767 86.712 744.415 86.568 744.127 86.28C743.839 85.992 743.695 85.64 743.695 85.224C743.695 84.808 743.839 84.456 744.127 84.168C744.415 83.88 744.767 83.736 745.183 83.736C745.583 83.736 745.919 83.88 746.191 84.168C746.479 84.456 746.623 84.808 746.623 85.224C746.623 85.64 746.479 85.992 746.191 86.28C745.919 86.568 745.583 86.712 745.183 86.712ZM746.239 88.848V102H744.055V88.848H746.239ZM762.633 90.12C762.169 89.144 761.497 88.392 760.617 87.864C759.737 87.32 758.713 87.048 757.545 87.048C756.377 87.048 755.321 87.32 754.377 87.864C753.449 88.392 752.713 89.16 752.169 90.168C751.641 91.16 751.377 92.312 751.377 93.624C751.377 94.936 751.641 96.088 752.169 97.08C752.713 98.072 753.449 98.84 754.377 99.384C755.321 99.912 756.377 100.176 757.545 100.176C759.177 100.176 760.521 99.688 761.577 98.712C762.633 97.736 763.249 96.416 763.425 94.752H756.753V92.976H765.753V94.656C765.625 96.032 765.193 97.296 764.457 98.448C763.721 99.584 762.753 100.488 761.553 101.16C760.353 101.816 759.017 102.144 757.545 102.144C755.993 102.144 754.577 101.784 753.297 101.064C752.017 100.328 751.001 99.312 750.249 98.016C749.513 96.72 749.145 95.256 749.145 93.624C749.145 91.992 749.513 90.528 750.249 89.232C751.001 87.92 752.017 86.904 753.297 86.184C754.577 85.448 755.993 85.08 757.545 85.08C759.321 85.08 760.889 85.52 762.249 86.4C763.625 87.28 764.625 88.52 765.249 90.12H762.633ZM767.825 95.376C767.825 94.032 768.097 92.856 768.641 91.848C769.185 90.824 769.929 90.032 770.873 89.472C771.833 88.912 772.897 88.632 774.065 88.632C775.217 88.632 776.217 88.88 777.065 89.376C777.913 89.872 778.545 90.496 778.961 91.248V88.848H781.169V102H778.961V99.552C778.529 100.32 777.881 100.96 777.017 101.472C776.169 101.968 775.177 102.216 774.041 102.216C772.873 102.216 771.817 101.928 770.873 101.352C769.929 100.776 769.185 99.968 768.641 98.928C768.097 97.888 767.825 96.704 767.825 95.376ZM778.961 95.4C778.961 94.408 778.761 93.544 778.361 92.808C777.961 92.072 777.417 91.512 776.729 91.128C776.057 90.728 775.313 90.528 774.497 90.528C773.681 90.528 772.937 90.72 772.265 91.104C771.593 91.488 771.057 92.048 770.657 92.784C770.257 93.52 770.057 94.384 770.057 95.376C770.057 96.384 770.257 97.264 770.657 98.016C771.057 98.752 771.593 99.32 772.265 99.72C772.937 100.104 773.681 100.296 774.497 100.296C775.313 100.296 776.057 100.104 776.729 99.72C777.417 99.32 777.961 98.752 778.361 98.016C778.761 97.264 778.961 96.392 778.961 95.4ZM800.676 88.608C801.7 88.608 802.612 88.824 803.412 89.256C804.212 89.672 804.844 90.304 805.308 91.152C805.772 92 806.004 93.032 806.004 94.248V102H803.844V94.56C803.844 93.248 803.516 92.248 802.86 91.56C802.22 90.856 801.348 90.504 800.244 90.504C799.108 90.504 798.204 90.872 797.532 91.608C796.86 92.328 796.524 93.376 796.524 94.752V102H794.364V94.56C794.364 93.248 794.036 92.248 793.38 91.56C792.74 90.856 791.868 90.504 790.764 90.504C789.628 90.504 788.724 90.872 788.052 91.608C787.38 92.328 787.044 93.376 787.044 94.752V102H784.86V88.848H787.044V90.744C787.476 90.056 788.052 89.528 788.772 89.16C789.508 88.792 790.316 88.608 791.196 88.608C792.3 88.608 793.276 88.856 794.124 89.352C794.972 89.848 795.604 90.576 796.02 91.536C796.388 90.608 796.996 89.888 797.844 89.376C798.692 88.864 799.636 88.608 800.676 88.608ZM810.714 86.712C810.298 86.712 809.946 86.568 809.658 86.28C809.37 85.992 809.226 85.64 809.226 85.224C809.226 84.808 809.37 84.456 809.658 84.168C809.946 83.88 810.298 83.736 810.714 83.736C811.114 83.736 811.45 83.88 811.722 84.168C812.01 84.456 812.154 84.808 812.154 85.224C812.154 85.64 812.01 85.992 811.722 86.28C811.45 86.568 811.114 86.712 810.714 86.712ZM811.77 88.848V102H809.586V88.848H811.77ZM821.901 88.608C823.501 88.608 824.797 89.096 825.789 90.072C826.781 91.032 827.277 92.424 827.277 94.248V102H825.117V94.56C825.117 93.248 824.789 92.248 824.133 91.56C823.477 90.856 822.581 90.504 821.445 90.504C820.293 90.504 819.373 90.864 818.685 91.584C818.013 92.304 817.677 93.352 817.677 94.728V102H815.493V88.848H817.677V90.72C818.109 90.048 818.693 89.528 819.429 89.16C820.181 88.792 821.005 88.608 821.901 88.608ZM836.268 88.632C837.404 88.632 838.396 88.88 839.244 89.376C840.108 89.872 840.748 90.496 841.164 91.248V88.848H843.372V102.288C843.372 103.488 843.116 104.552 842.604 105.48C842.092 106.424 841.356 107.16 840.396 107.688C839.452 108.216 838.348 108.48 837.084 108.48C835.356 108.48 833.916 108.072 832.764 107.256C831.612 106.44 830.932 105.328 830.724 103.92H832.884C833.124 104.72 833.62 105.36 834.372 105.84C835.124 106.336 836.028 106.584 837.084 106.584C838.284 106.584 839.26 106.208 840.012 105.456C840.78 104.704 841.164 103.648 841.164 102.288V99.528C840.732 100.296 840.092 100.936 839.244 101.448C838.396 101.96 837.404 102.216 836.268 102.216C835.1 102.216 834.036 101.928 833.076 101.352C832.132 100.776 831.388 99.968 830.844 98.928C830.3 97.888 830.028 96.704 830.028 95.376C830.028 94.032 830.3 92.856 830.844 91.848C831.388 90.824 832.132 90.032 833.076 89.472C834.036 88.912 835.1 88.632 836.268 88.632ZM841.164 95.4C841.164 94.408 840.964 93.544 840.564 92.808C840.164 92.072 839.62 91.512 838.932 91.128C838.26 90.728 837.516 90.528 836.7 90.528C835.884 90.528 835.14 90.72 834.468 91.104C833.796 91.488 833.26 92.048 832.86 92.784C832.46 93.52 832.26 94.384 832.26 95.376C832.26 96.384 832.46 97.264 832.86 98.016C833.26 98.752 833.796 99.32 834.468 99.72C835.14 100.104 835.884 100.296 836.7 100.296C837.516 100.296 838.26 100.104 838.932 99.72C839.62 99.32 840.164 98.752 840.564 98.016C840.964 97.264 841.164 96.392 841.164 95.4ZM858.885 88.632C860.021 88.632 861.013 88.88 861.861 89.376C862.725 89.872 863.365 90.496 863.781 91.248V88.848H865.989V102.288C865.989 103.488 865.733 104.552 865.221 105.48C864.709 106.424 863.973 107.16 863.013 107.688C862.069 108.216 860.965 108.48 859.701 108.48C857.973 108.48 856.533 108.072 855.381 107.256C854.229 106.44 853.549 105.328 853.341 103.92H855.501C855.741 104.72 856.237 105.36 856.989 105.84C857.741 106.336 858.645 106.584 859.701 106.584C860.901 106.584 861.877 106.208 862.629 105.456C863.397 104.704 863.781 103.648 863.781 102.288V99.528C863.349 100.296 862.709 100.936 861.861 101.448C861.013 101.96 860.021 102.216 858.885 102.216C857.717 102.216 856.653 101.928 855.693 101.352C854.749 100.776 854.005 99.968 853.461 98.928C852.917 97.888 852.645 96.704 852.645 95.376C852.645 94.032 852.917 92.856 853.461 91.848C854.005 90.824 854.749 90.032 855.693 89.472C856.653 88.912 857.717 88.632 858.885 88.632ZM863.781 95.4C863.781 94.408 863.581 93.544 863.181 92.808C862.781 92.072 862.237 91.512 861.549 91.128C860.877 90.728 860.133 90.528 859.317 90.528C858.501 90.528 857.757 90.72 857.085 91.104C856.413 91.488 855.877 92.048 855.477 92.784C855.077 93.52 854.877 94.384 854.877 95.376C854.877 96.384 855.077 97.264 855.477 98.016C855.877 98.752 856.413 99.32 857.085 99.72C857.757 100.104 858.501 100.296 859.317 100.296C860.133 100.296 860.877 100.104 861.549 99.72C862.237 99.32 862.781 98.752 863.181 98.016C863.581 97.264 863.781 96.392 863.781 95.4ZM871.864 90.984C872.248 90.232 872.792 89.648 873.496 89.232C874.216 88.816 875.088 88.608 876.112 88.608V90.864H875.536C873.088 90.864 871.864 92.192 871.864 94.848V102H869.68V88.848H871.864V90.984ZM884.369 102.216C883.137 102.216 882.017 101.936 881.009 101.376C880.017 100.816 879.233 100.024 878.657 99C878.097 97.96 877.817 96.76 877.817 95.4C877.817 94.056 878.105 92.872 878.681 91.848C879.273 90.808 880.073 90.016 881.081 89.472C882.089 88.912 883.217 88.632 884.465 88.632C885.713 88.632 886.841 88.912 887.849 89.472C888.857 90.016 889.649 90.8 890.225 91.824C890.817 92.848 891.113 94.04 891.113 95.4C891.113 96.76 890.809 97.96 890.201 99C889.609 100.024 888.801 100.816 887.777 101.376C886.753 101.936 885.617 102.216 884.369 102.216ZM884.369 100.296C885.153 100.296 885.889 100.112 886.577 99.744C887.265 99.376 887.817 98.824 888.233 98.088C888.665 97.352 888.881 96.456 888.881 95.4C888.881 94.344 888.673 93.448 888.257 92.712C887.841 91.976 887.297 91.432 886.625 91.08C885.953 90.712 885.225 90.528 884.441 90.528C883.641 90.528 882.905 90.712 882.233 91.08C881.577 91.432 881.049 91.976 880.649 92.712C880.249 93.448 880.049 94.344 880.049 95.4C880.049 96.472 880.241 97.376 880.625 98.112C881.025 98.848 881.553 99.4 882.209 99.768C882.865 100.12 883.585 100.296 884.369 100.296ZM911.505 88.848L907.401 102H905.145L901.977 91.56L898.809 102H896.553L892.425 88.848H894.657L897.681 99.888L900.945 88.848H903.177L906.369 99.912L909.345 88.848H911.505ZM916.336 90.648V98.4C916.336 99.04 916.472 99.496 916.744 99.768C917.016 100.024 917.488 100.152 918.16 100.152H919.768V102H917.8C916.584 102 915.672 101.72 915.064 101.16C914.456 100.6 914.152 99.68 914.152 98.4V90.648H912.448V88.848H914.152V85.536H916.336V88.848H919.768V90.648H916.336ZM928.942 88.608C929.934 88.608 930.83 88.824 931.63 89.256C932.43 89.672 933.054 90.304 933.502 91.152C933.966 92 934.198 93.032 934.198 94.248V102H932.038V94.56C932.038 93.248 931.71 92.248 931.054 91.56C930.398 90.856 929.502 90.504 928.366 90.504C927.214 90.504 926.294 90.864 925.606 91.584C924.934 92.304 924.598 93.352 924.598 94.728V102H922.414V84.24H924.598V90.72C925.03 90.048 925.622 89.528 926.374 89.16C927.142 88.792 927.998 88.608 928.942 88.608ZM938.462 102.144C938.046 102.144 937.694 102 937.406 101.712C937.118 101.424 936.974 101.072 936.974 100.656C936.974 100.24 937.118 99.888 937.406 99.6C937.694 99.312 938.046 99.168 938.462 99.168C938.862 99.168 939.198 99.312 939.47 99.6C939.758 99.888 939.902 100.24 939.902 100.656C939.902 101.072 939.758 101.424 939.47 101.712C939.198 102 938.862 102.144 938.462 102.144ZM135.68 127.048V132.64H141.776V134.44H135.68V140.2H142.496V142H133.496V125.248H142.496V127.048H135.68ZM144.985 135.376C144.985 134.032 145.257 132.856 145.801 131.848C146.345 130.824 147.089 130.032 148.033 129.472C148.993 128.912 150.057 128.632 151.225 128.632C152.377 128.632 153.377 128.88 154.225 129.376C155.073 129.872 155.705 130.496 156.121 131.248V128.848H158.329V142H156.121V139.552C155.689 140.32 155.041 140.96 154.177 141.472C153.329 141.968 152.337 142.216 151.201 142.216C150.033 142.216 148.977 141.928 148.033 141.352C147.089 140.776 146.345 139.968 145.801 138.928C145.257 137.888 144.985 136.704 144.985 135.376ZM156.121 135.4C156.121 134.408 155.921 133.544 155.521 132.808C155.121 132.072 154.577 131.512 153.889 131.128C153.217 130.728 152.473 130.528 151.657 130.528C150.841 130.528 150.097 130.72 149.425 131.104C148.753 131.488 148.217 132.048 147.817 132.784C147.417 133.52 147.217 134.384 147.217 135.376C147.217 136.384 147.417 137.264 147.817 138.016C148.217 138.752 148.753 139.32 149.425 139.72C150.097 140.104 150.841 140.296 151.657 140.296C152.473 140.296 153.217 140.104 153.889 139.72C154.577 139.32 155.121 138.752 155.521 138.016C155.921 137.264 156.121 136.392 156.121 135.4ZM161.204 135.4C161.204 134.04 161.476 132.856 162.02 131.848C162.564 130.824 163.316 130.032 164.276 129.472C165.252 128.912 166.364 128.632 167.612 128.632C169.228 128.632 170.556 129.024 171.596 129.808C172.652 130.592 173.348 131.68 173.684 133.072H171.332C171.108 132.272 170.668 131.64 170.012 131.176C169.372 130.712 168.572 130.48 167.612 130.48C166.364 130.48 165.356 130.912 164.588 131.776C163.82 132.624 163.436 133.832 163.436 135.4C163.436 136.984 163.82 138.208 164.588 139.072C165.356 139.936 166.364 140.368 167.612 140.368C168.572 140.368 169.372 140.144 170.012 139.696C170.652 139.248 171.092 138.608 171.332 137.776H173.684C173.332 139.12 172.628 140.2 171.572 141.016C170.516 141.816 169.196 142.216 167.612 142.216C166.364 142.216 165.252 141.936 164.276 141.376C163.316 140.816 162.564 140.024 162.02 139C161.476 137.976 161.204 136.776 161.204 135.4ZM183.126 128.608C184.118 128.608 185.014 128.824 185.814 129.256C186.614 129.672 187.238 130.304 187.686 131.152C188.15 132 188.382 133.032 188.382 134.248V142H186.222V134.56C186.222 133.248 185.894 132.248 185.238 131.56C184.582 130.856 183.686 130.504 182.55 130.504C181.398 130.504 180.478 130.864 179.79 131.584C179.118 132.304 178.782 133.352 178.782 134.728V142H176.598V124.24H178.782V130.72C179.214 130.048 179.806 129.528 180.558 129.16C181.326 128.792 182.182 128.608 183.126 128.608ZM203.004 142.216C201.996 142.216 201.092 142.048 200.292 141.712C199.492 141.36 198.86 140.88 198.396 140.272C197.932 139.648 197.676 138.936 197.628 138.136H199.884C199.948 138.792 200.252 139.328 200.796 139.744C201.356 140.16 202.084 140.368 202.98 140.368C203.812 140.368 204.468 140.184 204.948 139.816C205.428 139.448 205.668 138.984 205.668 138.424C205.668 137.848 205.412 137.424 204.9 137.152C204.388 136.864 203.596 136.584 202.524 136.312C201.548 136.056 200.748 135.8 200.124 135.544C199.516 135.272 198.988 134.88 198.54 134.368C198.108 133.84 197.892 133.152 197.892 132.304C197.892 131.632 198.092 131.016 198.492 130.456C198.892 129.896 199.46 129.456 200.196 129.136C200.932 128.8 201.772 128.632 202.716 128.632C204.172 128.632 205.348 129 206.244 129.736C207.14 130.472 207.62 131.48 207.684 132.76H205.5C205.452 132.072 205.172 131.52 204.66 131.104C204.164 130.688 203.492 130.48 202.644 130.48C201.86 130.48 201.236 130.648 200.772 130.984C200.308 131.32 200.076 131.76 200.076 132.304C200.076 132.736 200.212 133.096 200.484 133.384C200.772 133.656 201.124 133.88 201.54 134.056C201.972 134.216 202.564 134.4 203.316 134.608C204.26 134.864 205.028 135.12 205.62 135.376C206.212 135.616 206.716 135.984 207.132 136.48C207.564 136.976 207.788 137.624 207.804 138.424C207.804 139.144 207.604 139.792 207.204 140.368C206.804 140.944 206.236 141.4 205.5 141.736C204.78 142.056 203.948 142.216 203.004 142.216ZM222.887 134.92C222.887 135.336 222.863 135.776 222.815 136.24H212.303C212.383 137.536 212.823 138.552 213.623 139.288C214.439 140.008 215.423 140.368 216.575 140.368C217.519 140.368 218.303 140.152 218.927 139.72C219.567 139.272 220.015 138.68 220.271 137.944H222.623C222.271 139.208 221.567 140.24 220.511 141.04C219.455 141.824 218.143 142.216 216.575 142.216C215.327 142.216 214.207 141.936 213.215 141.376C212.239 140.816 211.471 140.024 210.911 139C210.351 137.96 210.071 136.76 210.071 135.4C210.071 134.04 210.343 132.848 210.887 131.824C211.431 130.8 212.191 130.016 213.167 129.472C214.159 128.912 215.295 128.632 216.575 128.632C217.823 128.632 218.927 128.904 219.887 129.448C220.847 129.992 221.583 130.744 222.095 131.704C222.623 132.648 222.887 133.72 222.887 134.92ZM220.631 134.464C220.631 133.632 220.447 132.92 220.079 132.328C219.711 131.72 219.207 131.264 218.567 130.96C217.943 130.64 217.247 130.48 216.479 130.48C215.375 130.48 214.431 130.832 213.647 131.536C212.879 132.24 212.439 133.216 212.327 134.464H220.631ZM227.954 130.984C228.338 130.232 228.882 129.648 229.586 129.232C230.306 128.816 231.178 128.608 232.202 128.608V130.864H231.626C229.178 130.864 227.954 132.192 227.954 134.848V142H225.77V128.848H227.954V130.984ZM239.619 139.984L243.699 128.848H246.027L240.867 142H238.323L233.163 128.848H235.515L239.619 139.984ZM249.304 126.712C248.888 126.712 248.536 126.568 248.248 126.28C247.96 125.992 247.816 125.64 247.816 125.224C247.816 124.808 247.96 124.456 248.248 124.168C248.536 123.88 248.888 123.736 249.304 123.736C249.704 123.736 250.04 123.88 250.312 124.168C250.6 124.456 250.744 124.808 250.744 125.224C250.744 125.64 250.6 125.992 250.312 126.28C250.04 126.568 249.704 126.712 249.304 126.712ZM250.36 128.848V142H248.176V128.848H250.36ZM253.266 135.4C253.266 134.04 253.538 132.856 254.082 131.848C254.626 130.824 255.378 130.032 256.338 129.472C257.314 128.912 258.426 128.632 259.674 128.632C261.29 128.632 262.618 129.024 263.658 129.808C264.714 130.592 265.41 131.68 265.746 133.072H263.394C263.17 132.272 262.73 131.64 262.074 131.176C261.434 130.712 260.634 130.48 259.674 130.48C258.426 130.48 257.418 130.912 256.65 131.776C255.882 132.624 255.498 133.832 255.498 135.4C255.498 136.984 255.882 138.208 256.65 139.072C257.418 139.936 258.426 140.368 259.674 140.368C260.634 140.368 261.434 140.144 262.074 139.696C262.714 139.248 263.154 138.608 263.394 137.776H265.746C265.394 139.12 264.69 140.2 263.634 141.016C262.578 141.816 261.258 142.216 259.674 142.216C258.426 142.216 257.314 141.936 256.338 141.376C255.378 140.816 254.626 140.024 254.082 139C253.538 137.976 253.266 136.776 253.266 135.4ZM280.661 134.92C280.661 135.336 280.637 135.776 280.589 136.24H270.077C270.157 137.536 270.597 138.552 271.397 139.288C272.213 140.008 273.197 140.368 274.349 140.368C275.293 140.368 276.077 140.152 276.701 139.72C277.341 139.272 277.789 138.68 278.045 137.944H280.397C280.045 139.208 279.341 140.24 278.285 141.04C277.229 141.824 275.917 142.216 274.349 142.216C273.101 142.216 271.981 141.936 270.989 141.376C270.013 140.816 269.245 140.024 268.685 139C268.125 137.96 267.845 136.76 267.845 135.4C267.845 134.04 268.117 132.848 268.661 131.824C269.205 130.8 269.965 130.016 270.941 129.472C271.933 128.912 273.069 128.632 274.349 128.632C275.597 128.632 276.701 128.904 277.661 129.448C278.621 129.992 279.357 130.744 279.869 131.704C280.397 132.648 280.661 133.72 280.661 134.92ZM278.405 134.464C278.405 133.632 278.221 132.92 277.853 132.328C277.485 131.72 276.981 131.264 276.341 130.96C275.717 130.64 275.021 130.48 274.253 130.48C273.149 130.48 272.205 130.832 271.421 131.536C270.653 132.24 270.213 133.216 270.101 134.464H278.405ZM291.07 126.712C290.654 126.712 290.302 126.568 290.014 126.28C289.726 125.992 289.582 125.64 289.582 125.224C289.582 124.808 289.726 124.456 290.014 124.168C290.302 123.88 290.654 123.736 291.07 123.736C291.47 123.736 291.806 123.88 292.078 124.168C292.366 124.456 292.51 124.808 292.51 125.224C292.51 125.64 292.366 125.992 292.078 126.28C291.806 126.568 291.47 126.712 291.07 126.712ZM292.126 128.848V142H289.942V128.848H292.126ZM300.504 142.216C299.496 142.216 298.592 142.048 297.792 141.712C296.992 141.36 296.36 140.88 295.896 140.272C295.432 139.648 295.176 138.936 295.128 138.136H297.384C297.448 138.792 297.752 139.328 298.296 139.744C298.856 140.16 299.584 140.368 300.48 140.368C301.312 140.368 301.968 140.184 302.448 139.816C302.928 139.448 303.168 138.984 303.168 138.424C303.168 137.848 302.912 137.424 302.4 137.152C301.888 136.864 301.096 136.584 300.024 136.312C299.048 136.056 298.248 135.8 297.624 135.544C297.016 135.272 296.488 134.88 296.04 134.368C295.608 133.84 295.392 133.152 295.392 132.304C295.392 131.632 295.592 131.016 295.992 130.456C296.392 129.896 296.96 129.456 297.696 129.136C298.432 128.8 299.272 128.632 300.216 128.632C301.672 128.632 302.848 129 303.744 129.736C304.64 130.472 305.12 131.48 305.184 132.76H303C302.952 132.072 302.672 131.52 302.16 131.104C301.664 130.688 300.992 130.48 300.144 130.48C299.36 130.48 298.736 130.648 298.272 130.984C297.808 131.32 297.576 131.76 297.576 132.304C297.576 132.736 297.712 133.096 297.984 133.384C298.272 133.656 298.624 133.88 299.04 134.056C299.472 134.216 300.064 134.4 300.816 134.608C301.76 134.864 302.528 135.12 303.12 135.376C303.712 135.616 304.216 135.984 304.632 136.48C305.064 136.976 305.288 137.624 305.304 138.424C305.304 139.144 305.104 139.792 304.704 140.368C304.304 140.944 303.736 141.4 303 141.736C302.28 142.056 301.448 142.216 300.504 142.216ZM326.786 134.92C326.786 135.336 326.762 135.776 326.714 136.24H316.202C316.282 137.536 316.722 138.552 317.522 139.288C318.338 140.008 319.322 140.368 320.474 140.368C321.418 140.368 322.202 140.152 322.826 139.72C323.466 139.272 323.914 138.68 324.17 137.944H326.522C326.17 139.208 325.466 140.24 324.41 141.04C323.354 141.824 322.042 142.216 320.474 142.216C319.226 142.216 318.106 141.936 317.114 141.376C316.138 140.816 315.37 140.024 314.81 139C314.25 137.96 313.97 136.76 313.97 135.4C313.97 134.04 314.242 132.848 314.786 131.824C315.33 130.8 316.09 130.016 317.066 129.472C318.058 128.912 319.194 128.632 320.474 128.632C321.722 128.632 322.826 128.904 323.786 129.448C324.746 129.992 325.482 130.744 325.994 131.704C326.522 132.648 326.786 133.72 326.786 134.92ZM324.53 134.464C324.53 133.632 324.346 132.92 323.978 132.328C323.61 131.72 323.106 131.264 322.466 130.96C321.842 130.64 321.146 130.48 320.378 130.48C319.274 130.48 318.33 130.832 317.546 131.536C316.778 132.24 316.338 133.216 316.226 134.464H324.53ZM336.076 128.608C337.676 128.608 338.972 129.096 339.964 130.072C340.956 131.032 341.452 132.424 341.452 134.248V142H339.292V134.56C339.292 133.248 338.964 132.248 338.308 131.56C337.652 130.856 336.756 130.504 335.62 130.504C334.468 130.504 333.548 130.864 332.86 131.584C332.188 132.304 331.852 133.352 331.852 134.728V142H329.668V128.848H331.852V130.72C332.284 130.048 332.868 129.528 333.604 129.16C334.356 128.792 335.18 128.608 336.076 128.608ZM350.444 128.632C351.58 128.632 352.572 128.88 353.42 129.376C354.284 129.872 354.924 130.496 355.34 131.248V128.848H357.548V142.288C357.548 143.488 357.292 144.552 356.78 145.48C356.268 146.424 355.532 147.16 354.572 147.688C353.628 148.216 352.524 148.48 351.26 148.48C349.532 148.48 348.092 148.072 346.94 147.256C345.788 146.44 345.108 145.328 344.9 143.92H347.06C347.3 144.72 347.796 145.36 348.548 145.84C349.3 146.336 350.204 146.584 351.26 146.584C352.46 146.584 353.436 146.208 354.188 145.456C354.956 144.704 355.34 143.648 355.34 142.288V139.528C354.908 140.296 354.268 140.936 353.42 141.448C352.572 141.96 351.58 142.216 350.444 142.216C349.276 142.216 348.212 141.928 347.252 141.352C346.308 140.776 345.564 139.968 345.02 138.928C344.476 137.888 344.204 136.704 344.204 135.376C344.204 134.032 344.476 132.856 345.02 131.848C345.564 130.824 346.308 130.032 347.252 129.472C348.212 128.912 349.276 128.632 350.444 128.632ZM355.34 135.4C355.34 134.408 355.14 133.544 354.74 132.808C354.34 132.072 353.796 131.512 353.108 131.128C352.436 130.728 351.692 130.528 350.876 130.528C350.06 130.528 349.316 130.72 348.644 131.104C347.972 131.488 347.436 132.048 347.036 132.784C346.636 133.52 346.436 134.384 346.436 135.376C346.436 136.384 346.636 137.264 347.036 138.016C347.436 138.752 347.972 139.32 348.644 139.72C349.316 140.104 350.06 140.296 350.876 140.296C351.692 140.296 352.436 140.104 353.108 139.72C353.796 139.32 354.34 138.752 354.74 138.016C355.14 137.264 355.34 136.392 355.34 135.4ZM362.367 126.712C361.951 126.712 361.599 126.568 361.311 126.28C361.023 125.992 360.879 125.64 360.879 125.224C360.879 124.808 361.023 124.456 361.311 124.168C361.599 123.88 361.951 123.736 362.367 123.736C362.767 123.736 363.103 123.88 363.375 124.168C363.663 124.456 363.807 124.808 363.807 125.224C363.807 125.64 363.663 125.992 363.375 126.28C363.103 126.568 362.767 126.712 362.367 126.712ZM363.423 128.848V142H361.239V128.848H363.423ZM373.553 128.608C375.153 128.608 376.449 129.096 377.441 130.072C378.433 131.032 378.929 132.424 378.929 134.248V142H376.769V134.56C376.769 133.248 376.441 132.248 375.785 131.56C375.129 130.856 374.233 130.504 373.097 130.504C371.945 130.504 371.025 130.864 370.337 131.584C369.665 132.304 369.329 133.352 369.329 134.728V142H367.145V128.848H369.329V130.72C369.761 130.048 370.345 129.528 371.081 129.16C371.833 128.792 372.657 128.608 373.553 128.608ZM394.496 134.92C394.496 135.336 394.472 135.776 394.424 136.24H383.912C383.992 137.536 384.432 138.552 385.232 139.288C386.048 140.008 387.032 140.368 388.184 140.368C389.128 140.368 389.912 140.152 390.536 139.72C391.176 139.272 391.624 138.68 391.88 137.944H394.232C393.88 139.208 393.176 140.24 392.12 141.04C391.064 141.824 389.752 142.216 388.184 142.216C386.936 142.216 385.816 141.936 384.824 141.376C383.848 140.816 383.08 140.024 382.52 139C381.96 137.96 381.68 136.76 381.68 135.4C381.68 134.04 381.952 132.848 382.496 131.824C383.04 130.8 383.8 130.016 384.776 129.472C385.768 128.912 386.904 128.632 388.184 128.632C389.432 128.632 390.536 128.904 391.496 129.448C392.456 129.992 393.192 130.744 393.704 131.704C394.232 132.648 394.496 133.72 394.496 134.92ZM392.24 134.464C392.24 133.632 392.056 132.92 391.688 132.328C391.32 131.72 390.816 131.264 390.176 130.96C389.552 130.64 388.856 130.48 388.088 130.48C386.984 130.48 386.04 130.832 385.256 131.536C384.488 132.24 384.048 133.216 383.936 134.464H392.24ZM409.379 134.92C409.379 135.336 409.355 135.776 409.307 136.24H398.795C398.875 137.536 399.315 138.552 400.115 139.288C400.931 140.008 401.915 140.368 403.067 140.368C404.011 140.368 404.795 140.152 405.419 139.72C406.059 139.272 406.507 138.68 406.763 137.944H409.115C408.763 139.208 408.059 140.24 407.003 141.04C405.947 141.824 404.635 142.216 403.067 142.216C401.819 142.216 400.699 141.936 399.707 141.376C398.731 140.816 397.963 140.024 397.403 139C396.843 137.96 396.563 136.76 396.563 135.4C396.563 134.04 396.835 132.848 397.379 131.824C397.923 130.8 398.683 130.016 399.659 129.472C400.651 128.912 401.787 128.632 403.067 128.632C404.315 128.632 405.419 128.904 406.379 129.448C407.339 129.992 408.075 130.744 408.587 131.704C409.115 132.648 409.379 133.72 409.379 134.92ZM407.123 134.464C407.123 133.632 406.939 132.92 406.571 132.328C406.203 131.72 405.699 131.264 405.059 130.96C404.435 130.64 403.739 130.48 402.971 130.48C401.867 130.48 400.923 130.832 400.139 131.536C399.371 132.24 398.931 133.216 398.819 134.464H407.123ZM414.446 130.984C414.83 130.232 415.374 129.648 416.078 129.232C416.798 128.816 417.67 128.608 418.694 128.608V130.864H418.118C415.67 130.864 414.446 132.192 414.446 134.848V142H412.262V128.848H414.446V130.984ZM433.215 134.92C433.215 135.336 433.191 135.776 433.143 136.24H422.631C422.711 137.536 423.151 138.552 423.951 139.288C424.767 140.008 425.751 140.368 426.903 140.368C427.847 140.368 428.631 140.152 429.255 139.72C429.895 139.272 430.343 138.68 430.599 137.944H432.951C432.599 139.208 431.895 140.24 430.839 141.04C429.783 141.824 428.471 142.216 426.903 142.216C425.655 142.216 424.535 141.936 423.543 141.376C422.567 140.816 421.799 140.024 421.239 139C420.679 137.96 420.399 136.76 420.399 135.4C420.399 134.04 420.671 132.848 421.215 131.824C421.759 130.8 422.519 130.016 423.495 129.472C424.487 128.912 425.623 128.632 426.903 128.632C428.151 128.632 429.255 128.904 430.215 129.448C431.175 129.992 431.911 130.744 432.423 131.704C432.951 132.648 433.215 133.72 433.215 134.92ZM430.959 134.464C430.959 133.632 430.775 132.92 430.407 132.328C430.039 131.72 429.535 131.264 428.895 130.96C428.271 130.64 427.575 130.48 426.807 130.48C425.703 130.48 424.759 130.832 423.975 131.536C423.207 132.24 422.767 133.216 422.655 134.464H430.959ZM435.282 135.376C435.282 134.032 435.554 132.856 436.098 131.848C436.642 130.824 437.386 130.032 438.33 129.472C439.29 128.912 440.362 128.632 441.546 128.632C442.57 128.632 443.522 128.872 444.402 129.352C445.282 129.816 445.954 130.432 446.418 131.2V124.24H448.626V142H446.418V139.528C445.986 140.312 445.346 140.96 444.498 141.472C443.65 141.968 442.658 142.216 441.522 142.216C440.354 142.216 439.29 141.928 438.33 141.352C437.386 140.776 436.642 139.968 436.098 138.928C435.554 137.888 435.282 136.704 435.282 135.376ZM446.418 135.4C446.418 134.408 446.218 133.544 445.818 132.808C445.418 132.072 444.874 131.512 444.186 131.128C443.514 130.728 442.77 130.528 441.954 130.528C441.138 130.528 440.394 130.72 439.722 131.104C439.05 131.488 438.514 132.048 438.114 132.784C437.714 133.52 437.514 134.384 437.514 135.376C437.514 136.384 437.714 137.264 438.114 138.016C438.514 138.752 439.05 139.32 439.722 139.72C440.394 140.104 441.138 140.296 441.954 140.296C442.77 140.296 443.514 140.104 444.186 139.72C444.874 139.32 445.418 138.752 445.818 138.016C446.218 137.264 446.418 136.392 446.418 135.4ZM461.379 130.648V138.4C461.379 139.04 461.515 139.496 461.787 139.768C462.059 140.024 462.531 140.152 463.203 140.152H464.811V142H462.843C461.627 142 460.715 141.72 460.107 141.16C459.499 140.6 459.195 139.68 459.195 138.4V130.648H457.491V128.848H459.195V125.536H461.379V128.848H464.811V130.648H461.379ZM473.193 142.216C471.961 142.216 470.841 141.936 469.833 141.376C468.841 140.816 468.057 140.024 467.481 139C466.921 137.96 466.641 136.76 466.641 135.4C466.641 134.056 466.929 132.872 467.505 131.848C468.097 130.808 468.897 130.016 469.905 129.472C470.913 128.912 472.041 128.632 473.289 128.632C474.537 128.632 475.665 128.912 476.673 129.472C477.681 130.016 478.473 130.8 479.049 131.824C479.641 132.848 479.937 134.04 479.937 135.4C479.937 136.76 479.633 137.96 479.025 139C478.433 140.024 477.625 140.816 476.601 141.376C475.577 141.936 474.441 142.216 473.193 142.216ZM473.193 140.296C473.977 140.296 474.713 140.112 475.401 139.744C476.089 139.376 476.641 138.824 477.057 138.088C477.489 137.352 477.705 136.456 477.705 135.4C477.705 134.344 477.497 133.448 477.081 132.712C476.665 131.976 476.121 131.432 475.449 131.08C474.777 130.712 474.049 130.528 473.265 130.528C472.465 130.528 471.729 130.712 471.057 131.08C470.401 131.432 469.873 131.976 469.473 132.712C469.073 133.448 468.873 134.344 468.873 135.4C468.873 136.472 469.065 137.376 469.449 138.112C469.849 138.848 470.377 139.4 471.033 139.768C471.689 140.12 472.409 140.296 473.193 140.296ZM493.863 142.216C492.855 142.216 491.951 142.048 491.151 141.712C490.351 141.36 489.719 140.88 489.255 140.272C488.791 139.648 488.535 138.936 488.487 138.136H490.743C490.807 138.792 491.111 139.328 491.655 139.744C492.215 140.16 492.943 140.368 493.839 140.368C494.671 140.368 495.327 140.184 495.807 139.816C496.287 139.448 496.527 138.984 496.527 138.424C496.527 137.848 496.271 137.424 495.759 137.152C495.247 136.864 494.455 136.584 493.383 136.312C492.407 136.056 491.607 135.8 490.983 135.544C490.375 135.272 489.847 134.88 489.399 134.368C488.967 133.84 488.751 133.152 488.751 132.304C488.751 131.632 488.951 131.016 489.351 130.456C489.751 129.896 490.319 129.456 491.055 129.136C491.791 128.8 492.631 128.632 493.575 128.632C495.031 128.632 496.207 129 497.103 129.736C497.999 130.472 498.479 131.48 498.543 132.76H496.359C496.311 132.072 496.031 131.52 495.519 131.104C495.023 130.688 494.351 130.48 493.503 130.48C492.719 130.48 492.095 130.648 491.631 130.984C491.167 131.32 490.935 131.76 490.935 132.304C490.935 132.736 491.071 133.096 491.343 133.384C491.631 133.656 491.983 133.88 492.399 134.056C492.831 134.216 493.423 134.4 494.175 134.608C495.119 134.864 495.887 135.12 496.479 135.376C497.071 135.616 497.575 135.984 497.991 136.48C498.423 136.976 498.647 137.624 498.663 138.424C498.663 139.144 498.463 139.792 498.063 140.368C497.663 140.944 497.095 141.4 496.359 141.736C495.639 142.056 494.807 142.216 493.863 142.216ZM503.93 131.272C504.362 130.52 505.002 129.896 505.85 129.4C506.714 128.888 507.714 128.632 508.85 128.632C510.018 128.632 511.074 128.912 512.018 129.472C512.978 130.032 513.73 130.824 514.274 131.848C514.818 132.856 515.09 134.032 515.09 135.376C515.09 136.704 514.818 137.888 514.274 138.928C513.73 139.968 512.978 140.776 512.018 141.352C511.074 141.928 510.018 142.216 508.85 142.216C507.73 142.216 506.738 141.968 505.874 141.472C505.026 140.96 504.378 140.328 503.93 139.576V148.24H501.746V128.848H503.93V131.272ZM512.858 135.376C512.858 134.384 512.658 133.52 512.258 132.784C511.858 132.048 511.314 131.488 510.626 131.104C509.954 130.72 509.21 130.528 508.394 130.528C507.594 130.528 506.85 130.728 506.162 131.128C505.49 131.512 504.946 132.08 504.53 132.832C504.13 133.568 503.93 134.424 503.93 135.4C503.93 136.392 504.13 137.264 504.53 138.016C504.946 138.752 505.49 139.32 506.162 139.72C506.85 140.104 507.594 140.296 508.394 140.296C509.21 140.296 509.954 140.104 510.626 139.72C511.314 139.32 511.858 138.752 512.258 138.016C512.658 137.264 512.858 136.384 512.858 135.376ZM517.149 135.376C517.149 134.032 517.421 132.856 517.965 131.848C518.509 130.824 519.253 130.032 520.197 129.472C521.157 128.912 522.221 128.632 523.389 128.632C524.541 128.632 525.541 128.88 526.389 129.376C527.237 129.872 527.869 130.496 528.285 131.248V128.848H530.493V142H528.285V139.552C527.853 140.32 527.205 140.96 526.341 141.472C525.493 141.968 524.501 142.216 523.365 142.216C522.197 142.216 521.141 141.928 520.197 141.352C519.253 140.776 518.509 139.968 517.965 138.928C517.421 137.888 517.149 136.704 517.149 135.376ZM528.285 135.4C528.285 134.408 528.085 133.544 527.685 132.808C527.285 132.072 526.741 131.512 526.053 131.128C525.381 130.728 524.637 130.528 523.821 130.528C523.005 130.528 522.261 130.72 521.589 131.104C520.917 131.488 520.381 132.048 519.981 132.784C519.581 133.52 519.381 134.384 519.381 135.376C519.381 136.384 519.581 137.264 519.981 138.016C520.381 138.752 520.917 139.32 521.589 139.72C522.261 140.104 523.005 140.296 523.821 140.296C524.637 140.296 525.381 140.104 526.053 139.72C526.741 139.32 527.285 138.752 527.685 138.016C528.085 137.264 528.285 136.392 528.285 135.4ZM536.368 130.984C536.752 130.232 537.296 129.648 538 129.232C538.72 128.816 539.592 128.608 540.616 128.608V130.864H540.04C537.592 130.864 536.368 132.192 536.368 134.848V142H534.184V128.848H536.368V130.984ZM550.481 142L545.321 136.192V142H543.137V124.24H545.321V134.68L550.385 128.848H553.433L547.241 135.4L553.457 142H550.481ZM561.071 135.376C561.071 134.032 561.343 132.856 561.887 131.848C562.431 130.824 563.175 130.032 564.119 129.472C565.079 128.912 566.143 128.632 567.311 128.632C568.463 128.632 569.463 128.88 570.311 129.376C571.159 129.872 571.791 130.496 572.207 131.248V128.848H574.415V142H572.207V139.552C571.775 140.32 571.127 140.96 570.263 141.472C569.415 141.968 568.423 142.216 567.287 142.216C566.119 142.216 565.063 141.928 564.119 141.352C563.175 140.776 562.431 139.968 561.887 138.928C561.343 137.888 561.071 136.704 561.071 135.376ZM572.207 135.4C572.207 134.408 572.007 133.544 571.607 132.808C571.207 132.072 570.663 131.512 569.975 131.128C569.303 130.728 568.559 130.528 567.743 130.528C566.927 130.528 566.183 130.72 565.511 131.104C564.839 131.488 564.303 132.048 563.903 132.784C563.503 133.52 563.303 134.384 563.303 135.376C563.303 136.384 563.503 137.264 563.903 138.016C564.303 138.752 564.839 139.32 565.511 139.72C566.183 140.104 566.927 140.296 567.743 140.296C568.559 140.296 569.303 140.104 569.975 139.72C570.663 139.32 571.207 138.752 571.607 138.016C572.007 137.264 572.207 136.392 572.207 135.4ZM577.29 135.4C577.29 134.04 577.562 132.856 578.106 131.848C578.65 130.824 579.402 130.032 580.362 129.472C581.338 128.912 582.45 128.632 583.698 128.632C585.314 128.632 586.642 129.024 587.682 129.808C588.738 130.592 589.434 131.68 589.77 133.072H587.418C587.194 132.272 586.754 131.64 586.098 131.176C585.458 130.712 584.658 130.48 583.698 130.48C582.45 130.48 581.442 130.912 580.674 131.776C579.906 132.624 579.522 133.832 579.522 135.4C579.522 136.984 579.906 138.208 580.674 139.072C581.442 139.936 582.45 140.368 583.698 140.368C584.658 140.368 585.458 140.144 586.098 139.696C586.738 139.248 587.178 138.608 587.418 137.776H589.77C589.418 139.12 588.714 140.2 587.658 141.016C586.602 141.816 585.282 142.216 583.698 142.216C582.45 142.216 581.338 141.936 580.362 141.376C579.402 140.816 578.65 140.024 578.106 139C577.562 137.976 577.29 136.776 577.29 135.4ZM595.348 130.648V138.4C595.348 139.04 595.484 139.496 595.756 139.768C596.028 140.024 596.5 140.152 597.172 140.152H598.78V142H596.812C595.596 142 594.684 141.72 594.076 141.16C593.468 140.6 593.164 139.68 593.164 138.4V130.648H591.46V128.848H593.164V125.536H595.348V128.848H598.78V130.648H595.348ZM602.554 126.712C602.138 126.712 601.786 126.568 601.498 126.28C601.21 125.992 601.066 125.64 601.066 125.224C601.066 124.808 601.21 124.456 601.498 124.168C601.786 123.88 602.138 123.736 602.554 123.736C602.954 123.736 603.29 123.88 603.562 124.168C603.85 124.456 603.994 124.808 603.994 125.224C603.994 125.64 603.85 125.992 603.562 126.28C603.29 126.568 602.954 126.712 602.554 126.712ZM603.61 128.848V142H601.426V128.848H603.61ZM613.068 142.216C611.836 142.216 610.716 141.936 609.708 141.376C608.716 140.816 607.932 140.024 607.356 139C606.796 137.96 606.516 136.76 606.516 135.4C606.516 134.056 606.804 132.872 607.38 131.848C607.972 130.808 608.772 130.016 609.78 129.472C610.788 128.912 611.916 128.632 613.164 128.632C614.412 128.632 615.54 128.912 616.548 129.472C617.556 130.016 618.348 130.8 618.924 131.824C619.516 132.848 619.812 134.04 619.812 135.4C619.812 136.76 619.508 137.96 618.9 139C618.308 140.024 617.5 140.816 616.476 141.376C615.452 141.936 614.316 142.216 613.068 142.216ZM613.068 140.296C613.852 140.296 614.588 140.112 615.276 139.744C615.964 139.376 616.516 138.824 616.932 138.088C617.364 137.352 617.58 136.456 617.58 135.4C617.58 134.344 617.372 133.448 616.956 132.712C616.54 131.976 615.996 131.432 615.324 131.08C614.652 130.712 613.924 130.528 613.14 130.528C612.34 130.528 611.604 130.712 610.932 131.08C610.276 131.432 609.748 131.976 609.348 132.712C608.948 133.448 608.748 134.344 608.748 135.4C608.748 136.472 608.94 137.376 609.324 138.112C609.724 138.848 610.252 139.4 610.908 139.768C611.564 140.12 612.284 140.296 613.068 140.296ZM629.092 128.608C630.692 128.608 631.988 129.096 632.98 130.072C633.972 131.032 634.468 132.424 634.468 134.248V142H632.308V134.56C632.308 133.248 631.98 132.248 631.324 131.56C630.668 130.856 629.772 130.504 628.636 130.504C627.484 130.504 626.564 130.864 625.876 131.584C625.204 132.304 624.868 133.352 624.868 134.728V142H622.684V128.848H624.868V130.72C625.3 130.048 625.884 129.528 626.62 129.16C627.372 128.792 628.196 128.608 629.092 128.608ZM643.618 135.376C643.618 134.032 643.89 132.856 644.434 131.848C644.978 130.824 645.722 130.032 646.666 129.472C647.626 128.912 648.69 128.632 649.858 128.632C651.01 128.632 652.01 128.88 652.858 129.376C653.706 129.872 654.338 130.496 654.754 131.248V128.848H656.962V142H654.754V139.552C654.322 140.32 653.674 140.96 652.81 141.472C651.962 141.968 650.97 142.216 649.834 142.216C648.666 142.216 647.61 141.928 646.666 141.352C645.722 140.776 644.978 139.968 644.434 138.928C643.89 137.888 643.618 136.704 643.618 135.376ZM654.754 135.4C654.754 134.408 654.554 133.544 654.154 132.808C653.754 132.072 653.21 131.512 652.522 131.128C651.85 130.728 651.106 130.528 650.29 130.528C649.474 130.528 648.73 130.72 648.058 131.104C647.386 131.488 646.85 132.048 646.45 132.784C646.05 133.52 645.85 134.384 645.85 135.376C645.85 136.384 646.05 137.264 646.45 138.016C646.85 138.752 647.386 139.32 648.058 139.72C648.73 140.104 649.474 140.296 650.29 140.296C651.106 140.296 651.85 140.104 652.522 139.72C653.21 139.32 653.754 138.752 654.154 138.016C654.554 137.264 654.754 136.392 654.754 135.4ZM667.061 128.608C668.661 128.608 669.957 129.096 670.949 130.072C671.941 131.032 672.437 132.424 672.437 134.248V142H670.277V134.56C670.277 133.248 669.949 132.248 669.293 131.56C668.637 130.856 667.741 130.504 666.605 130.504C665.453 130.504 664.533 130.864 663.845 131.584C663.173 132.304 662.837 133.352 662.837 134.728V142H660.653V128.848H662.837V130.72C663.269 130.048 663.853 129.528 664.589 129.16C665.341 128.792 666.165 128.608 667.061 128.608ZM675.188 135.376C675.188 134.032 675.46 132.856 676.004 131.848C676.548 130.824 677.292 130.032 678.236 129.472C679.196 128.912 680.268 128.632 681.452 128.632C682.476 128.632 683.428 128.872 684.308 129.352C685.188 129.816 685.86 130.432 686.324 131.2V124.24H688.532V142H686.324V139.528C685.892 140.312 685.252 140.96 684.404 141.472C683.556 141.968 682.564 142.216 681.428 142.216C680.26 142.216 679.196 141.928 678.236 141.352C677.292 140.776 676.548 139.968 676.004 138.928C675.46 137.888 675.188 136.704 675.188 135.376ZM686.324 135.4C686.324 134.408 686.124 133.544 685.724 132.808C685.324 132.072 684.78 131.512 684.092 131.128C683.42 130.728 682.676 130.528 681.86 130.528C681.044 130.528 680.3 130.72 679.628 131.104C678.956 131.488 678.42 132.048 678.02 132.784C677.62 133.52 677.42 134.384 677.42 135.376C677.42 136.384 677.62 137.264 678.02 138.016C678.42 138.752 678.956 139.32 679.628 139.72C680.3 140.104 681.044 140.296 681.86 140.296C682.676 140.296 683.42 140.104 684.092 139.72C684.78 139.32 685.324 138.752 685.724 138.016C686.124 137.264 686.324 136.392 686.324 135.4ZM703.277 142.216C702.269 142.216 701.365 142.048 700.565 141.712C699.765 141.36 699.133 140.88 698.669 140.272C698.205 139.648 697.949 138.936 697.901 138.136H700.157C700.221 138.792 700.525 139.328 701.069 139.744C701.629 140.16 702.357 140.368 703.253 140.368C704.085 140.368 704.741 140.184 705.221 139.816C705.701 139.448 705.941 138.984 705.941 138.424C705.941 137.848 705.685 137.424 705.173 137.152C704.661 136.864 703.869 136.584 702.797 136.312C701.821 136.056 701.021 135.8 700.397 135.544C699.789 135.272 699.261 134.88 698.813 134.368C698.381 133.84 698.165 133.152 698.165 132.304C698.165 131.632 698.365 131.016 698.765 130.456C699.165 129.896 699.733 129.456 700.469 129.136C701.205 128.8 702.045 128.632 702.989 128.632C704.445 128.632 705.621 129 706.517 129.736C707.413 130.472 707.893 131.48 707.957 132.76H705.773C705.725 132.072 705.445 131.52 704.933 131.104C704.437 130.688 703.765 130.48 702.917 130.48C702.133 130.48 701.509 130.648 701.045 130.984C700.581 131.32 700.349 131.76 700.349 132.304C700.349 132.736 700.485 133.096 700.757 133.384C701.045 133.656 701.397 133.88 701.813 134.056C702.245 134.216 702.837 134.4 703.589 134.608C704.533 134.864 705.301 135.12 705.893 135.376C706.485 135.616 706.989 135.984 707.405 136.48C707.837 136.976 708.061 137.624 708.077 138.424C708.077 139.144 707.877 139.792 707.477 140.368C707.077 140.944 706.509 141.4 705.773 141.736C705.053 142.056 704.221 142.216 703.277 142.216ZM710.345 135.4C710.345 134.04 710.617 132.856 711.161 131.848C711.705 130.824 712.457 130.032 713.417 129.472C714.393 128.912 715.505 128.632 716.753 128.632C718.369 128.632 719.697 129.024 720.737 129.808C721.793 130.592 722.489 131.68 722.825 133.072H720.473C720.249 132.272 719.809 131.64 719.153 131.176C718.513 130.712 717.713 130.48 716.753 130.48C715.505 130.48 714.497 130.912 713.729 131.776C712.961 132.624 712.577 133.832 712.577 135.4C712.577 136.984 712.961 138.208 713.729 139.072C714.497 139.936 715.505 140.368 716.753 140.368C717.713 140.368 718.513 140.144 719.153 139.696C719.793 139.248 720.233 138.608 720.473 137.776H722.825C722.473 139.12 721.769 140.2 720.713 141.016C719.657 141.816 718.337 142.216 716.753 142.216C715.505 142.216 714.393 141.936 713.417 141.376C712.457 140.816 711.705 140.024 711.161 139C710.617 137.976 710.345 136.776 710.345 135.4ZM724.923 135.376C724.923 134.032 725.195 132.856 725.739 131.848C726.283 130.824 727.027 130.032 727.971 129.472C728.931 128.912 729.995 128.632 731.163 128.632C732.315 128.632 733.315 128.88 734.163 129.376C735.011 129.872 735.643 130.496 736.059 131.248V128.848H738.267V142H736.059V139.552C735.627 140.32 734.979 140.96 734.115 141.472C733.267 141.968 732.275 142.216 731.139 142.216C729.971 142.216 728.915 141.928 727.971 141.352C727.027 140.776 726.283 139.968 725.739 138.928C725.195 137.888 724.923 136.704 724.923 135.376ZM736.059 135.4C736.059 134.408 735.859 133.544 735.459 132.808C735.059 132.072 734.515 131.512 733.827 131.128C733.155 130.728 732.411 130.528 731.595 130.528C730.779 130.528 730.035 130.72 729.363 131.104C728.691 131.488 728.155 132.048 727.755 132.784C727.355 133.52 727.155 134.384 727.155 135.376C727.155 136.384 727.355 137.264 727.755 138.016C728.155 138.752 728.691 139.32 729.363 139.72C730.035 140.104 730.779 140.296 731.595 140.296C732.411 140.296 733.155 140.104 733.827 139.72C734.515 139.32 735.059 138.752 735.459 138.016C735.859 137.264 736.059 136.392 736.059 135.4ZM744.141 124.24V142H741.957V124.24H744.141ZM759.864 134.92C759.864 135.336 759.84 135.776 759.792 136.24H749.28C749.36 137.536 749.8 138.552 750.6 139.288C751.416 140.008 752.4 140.368 753.552 140.368C754.496 140.368 755.28 140.152 755.904 139.72C756.544 139.272 756.992 138.68 757.248 137.944H759.6C759.248 139.208 758.544 140.24 757.488 141.04C756.432 141.824 755.12 142.216 753.552 142.216C752.304 142.216 751.184 141.936 750.192 141.376C749.216 140.816 748.448 140.024 747.888 139C747.328 137.96 747.048 136.76 747.048 135.4C747.048 134.04 747.32 132.848 747.864 131.824C748.408 130.8 749.168 130.016 750.144 129.472C751.136 128.912 752.272 128.632 753.552 128.632C754.8 128.632 755.904 128.904 756.864 129.448C757.824 129.992 758.56 130.744 759.072 131.704C759.6 132.648 759.864 133.72 759.864 134.92ZM757.608 134.464C757.608 133.632 757.424 132.92 757.056 132.328C756.688 131.72 756.184 131.264 755.544 130.96C754.92 130.64 754.224 130.48 753.456 130.48C752.352 130.48 751.408 130.832 750.624 131.536C749.856 132.24 749.416 133.216 749.304 134.464H757.608ZM771.329 131.272C771.761 130.52 772.401 129.896 773.249 129.4C774.113 128.888 775.113 128.632 776.249 128.632C777.417 128.632 778.473 128.912 779.417 129.472C780.377 130.032 781.129 130.824 781.673 131.848C782.217 132.856 782.489 134.032 782.489 135.376C782.489 136.704 782.217 137.888 781.673 138.928C781.129 139.968 780.377 140.776 779.417 141.352C778.473 141.928 777.417 142.216 776.249 142.216C775.129 142.216 774.137 141.968 773.273 141.472C772.425 140.96 771.777 140.328 771.329 139.576V148.24H769.145V128.848H771.329V131.272ZM780.257 135.376C780.257 134.384 780.057 133.52 779.657 132.784C779.257 132.048 778.713 131.488 778.025 131.104C777.353 130.72 776.609 130.528 775.793 130.528C774.993 130.528 774.249 130.728 773.561 131.128C772.889 131.512 772.345 132.08 771.929 132.832C771.529 133.568 771.329 134.424 771.329 135.4C771.329 136.392 771.529 137.264 771.929 138.016C772.345 138.752 772.889 139.32 773.561 139.72C774.249 140.104 774.993 140.296 775.793 140.296C776.609 140.296 777.353 140.104 778.025 139.72C778.713 139.32 779.257 138.752 779.657 138.016C780.057 137.264 780.257 136.384 780.257 135.376ZM797.364 134.92C797.364 135.336 797.34 135.776 797.292 136.24H786.78C786.86 137.536 787.3 138.552 788.1 139.288C788.916 140.008 789.9 140.368 791.052 140.368C791.996 140.368 792.78 140.152 793.404 139.72C794.044 139.272 794.492 138.68 794.748 137.944H797.1C796.748 139.208 796.044 140.24 794.988 141.04C793.932 141.824 792.62 142.216 791.052 142.216C789.804 142.216 788.684 141.936 787.692 141.376C786.716 140.816 785.948 140.024 785.388 139C784.828 137.96 784.548 136.76 784.548 135.4C784.548 134.04 784.82 132.848 785.364 131.824C785.908 130.8 786.668 130.016 787.644 129.472C788.636 128.912 789.772 128.632 791.052 128.632C792.3 128.632 793.404 128.904 794.364 129.448C795.324 129.992 796.06 130.744 796.572 131.704C797.1 132.648 797.364 133.72 797.364 134.92ZM795.108 134.464C795.108 133.632 794.924 132.92 794.556 132.328C794.188 131.72 793.684 131.264 793.044 130.96C792.42 130.64 791.724 130.48 790.956 130.48C789.852 130.48 788.908 130.832 788.124 131.536C787.356 132.24 786.916 133.216 786.804 134.464H795.108ZM802.43 130.984C802.814 130.232 803.358 129.648 804.062 129.232C804.782 128.816 805.654 128.608 806.678 128.608V130.864H806.102C803.654 130.864 802.43 132.192 802.43 134.848V142H800.246V128.848H802.43V130.984ZM814.552 130.648H811.792V142H809.608V130.648H807.904V128.848H809.608V127.912C809.608 126.44 809.984 125.368 810.736 124.696C811.504 124.008 812.728 123.664 814.408 123.664V125.488C813.448 125.488 812.768 125.68 812.368 126.064C811.984 126.432 811.792 127.048 811.792 127.912V128.848H814.552V130.648ZM822.834 142.216C821.602 142.216 820.482 141.936 819.474 141.376C818.482 140.816 817.698 140.024 817.122 139C816.562 137.96 816.282 136.76 816.282 135.4C816.282 134.056 816.57 132.872 817.146 131.848C817.738 130.808 818.538 130.016 819.546 129.472C820.554 128.912 821.682 128.632 822.93 128.632C824.178 128.632 825.306 128.912 826.314 129.472C827.322 130.016 828.114 130.8 828.69 131.824C829.282 132.848 829.578 134.04 829.578 135.4C829.578 136.76 829.274 137.96 828.666 139C828.074 140.024 827.266 140.816 826.242 141.376C825.218 141.936 824.082 142.216 822.834 142.216ZM822.834 140.296C823.618 140.296 824.354 140.112 825.042 139.744C825.73 139.376 826.282 138.824 826.698 138.088C827.13 137.352 827.346 136.456 827.346 135.4C827.346 134.344 827.138 133.448 826.722 132.712C826.306 131.976 825.762 131.432 825.09 131.08C824.418 130.712 823.69 130.528 822.906 130.528C822.106 130.528 821.37 130.712 820.698 131.08C820.042 131.432 819.514 131.976 819.114 132.712C818.714 133.448 818.514 134.344 818.514 135.4C818.514 136.472 818.706 137.376 819.09 138.112C819.49 138.848 820.018 139.4 820.674 139.768C821.33 140.12 822.05 140.296 822.834 140.296ZM834.634 130.984C835.018 130.232 835.562 129.648 836.266 129.232C836.986 128.816 837.858 128.608 838.882 128.608V130.864H838.306C835.858 130.864 834.634 132.192 834.634 134.848V142H832.45V128.848H834.634V130.984ZM857.219 128.608C858.243 128.608 859.155 128.824 859.955 129.256C860.755 129.672 861.387 130.304 861.851 131.152C862.315 132 862.547 133.032 862.547 134.248V142H860.387V134.56C860.387 133.248 860.059 132.248 859.403 131.56C858.763 130.856 857.891 130.504 856.787 130.504C855.651 130.504 854.747 130.872 854.075 131.608C853.403 132.328 853.067 133.376 853.067 134.752V142H850.907V134.56C850.907 133.248 850.579 132.248 849.923 131.56C849.283 130.856 848.411 130.504 847.307 130.504C846.171 130.504 845.267 130.872 844.595 131.608C843.923 132.328 843.587 133.376 843.587 134.752V142H841.403V128.848H843.587V130.744C844.019 130.056 844.595 129.528 845.315 129.16C846.051 128.792 846.859 128.608 847.739 128.608C848.843 128.608 849.819 128.856 850.667 129.352C851.515 129.848 852.147 130.576 852.563 131.536C852.931 130.608 853.539 129.888 854.387 129.376C855.235 128.864 856.179 128.608 857.219 128.608ZM865.313 135.376C865.313 134.032 865.585 132.856 866.129 131.848C866.673 130.824 867.417 130.032 868.361 129.472C869.321 128.912 870.385 128.632 871.553 128.632C872.705 128.632 873.705 128.88 874.553 129.376C875.401 129.872 876.033 130.496 876.449 131.248V128.848H878.657V142H876.449V139.552C876.017 140.32 875.369 140.96 874.505 141.472C873.657 141.968 872.665 142.216 871.529 142.216C870.361 142.216 869.305 141.928 868.361 141.352C867.417 140.776 866.673 139.968 866.129 138.928C865.585 137.888 865.313 136.704 865.313 135.376ZM876.449 135.4C876.449 134.408 876.249 133.544 875.849 132.808C875.449 132.072 874.905 131.512 874.217 131.128C873.545 130.728 872.801 130.528 871.985 130.528C871.169 130.528 870.425 130.72 869.753 131.104C869.081 131.488 868.545 132.048 868.145 132.784C867.745 133.52 867.545 134.384 867.545 135.376C867.545 136.384 867.745 137.264 868.145 138.016C868.545 138.752 869.081 139.32 869.753 139.72C870.425 140.104 871.169 140.296 871.985 140.296C872.801 140.296 873.545 140.104 874.217 139.72C874.905 139.32 875.449 138.752 875.849 138.016C876.249 137.264 876.449 136.392 876.449 135.4ZM888.756 128.608C890.356 128.608 891.652 129.096 892.644 130.072C893.636 131.032 894.132 132.424 894.132 134.248V142H891.972V134.56C891.972 133.248 891.644 132.248 890.988 131.56C890.332 130.856 889.436 130.504 888.3 130.504C887.148 130.504 886.228 130.864 885.54 131.584C884.868 132.304 884.532 133.352 884.532 134.728V142H882.348V128.848H884.532V130.72C884.964 130.048 885.548 129.528 886.284 129.16C887.036 128.792 887.86 128.608 888.756 128.608ZM896.884 135.4C896.884 134.04 897.156 132.856 897.7 131.848C898.244 130.824 898.996 130.032 899.956 129.472C900.932 128.912 902.044 128.632 903.292 128.632C904.908 128.632 906.236 129.024 907.276 129.808C908.332 130.592 909.028 131.68 909.364 133.072H907.012C906.788 132.272 906.348 131.64 905.692 131.176C905.052 130.712 904.252 130.48 903.292 130.48C902.044 130.48 901.036 130.912 900.268 131.776C899.5 132.624 899.116 133.832 899.116 135.4C899.116 136.984 899.5 138.208 900.268 139.072C901.036 139.936 902.044 140.368 903.292 140.368C904.252 140.368 905.052 140.144 905.692 139.696C906.332 139.248 906.772 138.608 907.012 137.776H909.364C909.012 139.12 908.308 140.2 907.252 141.016C906.196 141.816 904.876 142.216 903.292 142.216C902.044 142.216 900.932 141.936 899.956 141.376C898.996 140.816 898.244 140.024 897.7 139C897.156 137.976 896.884 136.776 896.884 135.4ZM924.278 134.92C924.278 135.336 924.254 135.776 924.206 136.24H913.694C913.774 137.536 914.214 138.552 915.014 139.288C915.83 140.008 916.814 140.368 917.966 140.368C918.91 140.368 919.694 140.152 920.318 139.72C920.958 139.272 921.406 138.68 921.662 137.944H924.014C923.662 139.208 922.958 140.24 921.902 141.04C920.846 141.824 919.534 142.216 917.966 142.216C916.718 142.216 915.598 141.936 914.606 141.376C913.63 140.816 912.862 140.024 912.302 139C911.742 137.96 911.462 136.76 911.462 135.4C911.462 134.04 911.734 132.848 912.278 131.824C912.822 130.8 913.582 130.016 914.558 129.472C915.55 128.912 916.686 128.632 917.966 128.632C919.214 128.632 920.318 128.904 921.278 129.448C922.238 129.992 922.974 130.744 923.486 131.704C924.014 132.648 924.278 133.72 924.278 134.92ZM922.022 134.464C922.022 133.632 921.838 132.92 921.47 132.328C921.102 131.72 920.598 131.264 919.958 130.96C919.334 130.64 918.638 130.48 917.87 130.48C916.766 130.48 915.822 130.832 915.038 131.536C914.27 132.24 913.83 133.216 913.718 134.464H922.022ZM927.857 142.144C927.441 142.144 927.089 142 926.801 141.712C926.513 141.424 926.369 141.072 926.369 140.656C926.369 140.24 926.513 139.888 926.801 139.6C927.089 139.312 927.441 139.168 927.857 139.168C928.257 139.168 928.593 139.312 928.865 139.6C929.153 139.888 929.297 140.24 929.297 140.656C929.297 141.072 929.153 141.424 928.865 141.712C928.593 142 928.257 142.144 927.857 142.144Z" fill="#F2F2F3"/>
</svg>
