<svg width="1536" height="166" viewBox="0 0 1536 166" fill="none" xmlns="http://www.w3.org/2000/svg">
<g clip-path="url(#clip0_38_2735)">
<rect y="-3" width="1536" height="135" fill="url(#paint0_linear_38_2735)"/>
<g clip-path="url(#clip1_38_2735)">
<path d="M153.559 56.2679L148.026 65.4828L147.694 66.0364V80.6508H128.251V61.7142L153.559 56.2679Z" fill="#FACB24"/>
<path d="M167.425 39.4775V43.6123L138.18 49.9018L146.611 39.4775L153.107 31.4549L156.005 34.3249L151.83 39.4775L148.526 43.5569L167.425 39.4775Z" fill="#FACB24"/>
<path d="M156.514 68.4253L167.425 50.268V80.6508H156.514V68.4253Z" fill="#FACB24"/>
<path d="M166.671 46.9337L154.142 67.7823V80.6508H150.066V66.6751L158.381 52.8357L128.251 59.3126L119 61.3054L128.251 49.8762L136.661 39.4775L147.573 26L150.476 28.8616L141.884 39.4775L129.36 54.9606L166.671 46.9337Z" fill="#FACB24"/>
<path d="M133.629 39.4775L128.251 46.1246V39.4775H133.629Z" fill="#FACB24"/>
<path d="M177.625 79.9269C176.301 79.2115 175.271 78.2066 174.537 76.912C173.804 75.6175 173.438 74.1399 173.438 72.4707C173.438 70.8014 173.804 69.3238 174.537 68.0293C175.271 66.7347 176.301 65.7298 177.625 65.0144C178.95 64.299 180.468 63.9413 182.171 63.9413C183.75 63.9413 185.164 64.2309 186.42 64.8057C187.675 65.3806 188.701 66.211 189.499 67.2968C190.297 68.3784 190.819 69.6517 191.073 71.1165H185.462C185.242 70.4948 184.858 69.9966 184.315 69.6304C183.771 69.2642 183.142 69.0811 182.434 69.0811C181.473 69.0811 180.696 69.3919 180.101 70.0179C179.51 70.6396 179.213 71.4614 179.213 72.4707C179.213 73.4799 179.51 74.2804 180.101 74.9149C180.692 75.5451 181.455 75.8603 182.387 75.8603C183.129 75.8603 183.776 75.6729 184.328 75.2982C184.88 74.9234 185.277 74.4082 185.509 73.7567H191.142C190.952 75.2045 190.452 76.4777 189.637 77.5678C188.826 78.6579 187.778 79.5053 186.501 80.1058C185.225 80.7062 183.793 81.0043 182.214 81.0043C180.476 81.0043 178.95 80.6466 177.621 79.9312L177.625 79.9269Z" fill="#FACB24"/>
<path d="M193.225 64.2905H205.155V68.4764H198.789V70.3713H204.542V74.438H198.789V76.4011H205.392V80.6551H193.225V64.2948V64.2905Z" fill="#FACB24"/>
<path d="M208.743 79.4926C207.488 78.4876 206.863 77.0824 206.863 75.2726H212.332C212.332 75.8006 212.474 76.2094 212.758 76.4862C213.043 76.763 213.453 76.9078 213.988 76.9078C214.445 76.9078 214.799 76.8184 215.053 76.6395C215.307 76.4607 215.432 76.2052 215.432 75.8815C215.432 75.477 215.217 75.1449 214.781 74.8894C214.346 74.6339 213.656 74.4252 212.711 74.2719C210.753 73.944 209.308 73.3606 208.381 72.5175C207.449 71.6744 206.983 70.5374 206.983 69.1066C206.983 67.5012 207.579 66.2408 208.769 65.321C209.959 64.4012 211.598 63.9413 213.681 63.9413C215.1 63.9413 216.338 64.167 217.386 64.6184C218.434 65.0698 219.249 65.7213 219.823 66.5687C220.401 67.4161 220.694 68.4125 220.712 69.5495H215.363C215.363 69.0342 215.225 68.6425 214.949 68.3699C214.673 68.0974 214.281 67.9611 213.776 67.9611C213.336 67.9611 212.987 68.0548 212.737 68.2422C212.482 68.4295 212.357 68.6808 212.357 68.9916C212.357 69.3664 212.56 69.6687 212.961 69.9029C213.362 70.1371 214.061 70.3458 215.057 70.5331C217.123 70.9206 218.637 71.5296 219.59 72.3557C220.543 73.1818 221.022 74.2975 221.022 75.6984C221.022 77.3677 220.405 78.6665 219.176 79.6033C217.947 80.5401 216.226 81.0043 214.014 81.0043C211.801 81.0043 210.003 80.5018 208.747 79.4968L208.743 79.4926Z" fill="#FACB24"/>
<path d="M223.196 64.2905H228.923V80.6508H223.196V64.2905Z" fill="#FACB24"/>
<path d="M235.306 80.1483C234.164 79.5777 233.288 78.7559 232.68 77.6828C232.072 76.6097 231.77 75.3322 231.77 73.8503V64.2905H237.476V73.548C237.476 75.0597 238.106 75.8134 239.369 75.8134C240.633 75.8134 241.263 75.0597 241.263 73.548V64.2905H246.99V73.8503C246.99 75.3322 246.688 76.6097 246.08 77.6828C245.472 78.7559 244.592 79.582 243.441 80.1483C242.289 80.7147 240.93 81 239.369 81C237.808 81 236.454 80.7147 235.311 80.1483H235.306Z" fill="#FACB24"/>
<path d="M249.85 64.2905H254.49L259.653 71.1634L264.837 64.2905H269.452V80.6508H263.867V76.8865L263.914 73.5225H263.845L261.24 77.0526H258.07L255.465 73.5012L255.392 73.5225L255.439 76.8865V80.6508H249.854V64.2905H249.85Z" fill="#FACB24"/>
<path d="M241.245 59.1507C241.245 57.5198 242.388 56.3573 243.988 56.3573C245.252 56.3573 246.24 57.0727 246.589 58.1202H246.076C245.735 57.3197 244.985 56.83 244.01 56.83C242.656 56.83 241.728 57.7753 241.728 59.1507C241.728 60.5262 242.664 61.4715 244.01 61.4715C245.278 61.4715 246.145 60.6326 246.244 59.4573H243.829V59.0102H246.749C246.766 60.7178 245.657 61.9399 243.997 61.9399C242.336 61.9399 241.241 60.7774 241.241 59.1465L241.245 59.1507Z" fill="#FACB24"/>
<path d="M248.107 56.4595H250.126C251.225 56.4595 251.941 57.1153 251.941 58.1373C251.941 59.0315 251.402 59.6362 250.548 59.7852L252.028 61.8462H251.458L249.992 59.8235H248.582V61.8462H248.107V56.4638V56.4595ZM250.078 59.3722C250.945 59.3722 251.458 58.9038 251.458 58.133C251.458 57.3623 250.945 56.9024 250.078 56.9024H248.582V59.3722H250.078Z" fill="#FACB24"/>
<path d="M252.981 59.1507C252.981 57.5028 254.132 56.3573 255.793 56.3573C257.453 56.3573 258.605 57.5028 258.605 59.1507C258.605 60.7987 257.462 61.9442 255.793 61.9442C254.124 61.9442 252.981 60.7987 252.981 59.1507ZM255.793 61.4715C257.182 61.4715 258.13 60.5262 258.13 59.1507C258.13 57.7753 257.182 56.83 255.793 56.83C254.404 56.83 253.464 57.7668 253.464 59.1507C253.464 60.5347 254.413 61.4715 255.793 61.4715Z" fill="#FACB24"/>
<path d="M259.912 59.7214V56.4595H260.377V59.6958C260.377 60.8413 260.955 61.48 261.969 61.48C262.982 61.48 263.56 60.8413 263.56 59.6958V56.4595H264.026V59.7214C264.026 61.1053 263.246 61.9357 261.969 61.9357C260.692 61.9357 259.912 61.1053 259.912 59.7214Z" fill="#FACB24"/>
<path d="M265.712 56.4595H267.442C268.706 56.4595 269.452 57.1153 269.452 58.2267C269.452 59.3381 268.706 59.9939 267.442 59.9939H266.187V61.8377H265.712V56.4552V56.4595ZM267.433 59.5638C268.455 59.5638 268.977 59.1081 268.977 58.2352C268.977 57.3622 268.455 56.9066 267.433 56.9066H266.187V59.568H267.433V59.5638Z" fill="#FACB24"/>
<path d="M275.8 80.6508C277.015 80.6508 278 79.6785 278 78.4791C278 77.2797 277.015 76.3074 275.8 76.3074C274.586 76.3074 273.601 77.2797 273.601 78.4791C273.601 79.6785 274.586 80.6508 275.8 80.6508Z" fill="#FACB24"/>
</g>
<path d="M384.08 48.88V60H382.256V55.136H377.024V60H375.2V48.88H377.024V53.648H382.256V48.88H384.08ZM390.305 60.144C389.473 60.144 388.721 59.9573 388.049 59.584C387.377 59.2 386.849 58.6667 386.465 57.984C386.081 57.2907 385.889 56.4907 385.889 55.584C385.889 54.688 386.087 53.8933 386.481 53.2C386.876 52.5067 387.415 51.9733 388.097 51.6C388.78 51.2267 389.543 51.04 390.385 51.04C391.228 51.04 391.991 51.2267 392.673 51.6C393.356 51.9733 393.895 52.5067 394.289 53.2C394.684 53.8933 394.881 54.688 394.881 55.584C394.881 56.48 394.679 57.2747 394.273 57.968C393.868 58.6613 393.313 59.2 392.609 59.584C391.916 59.9573 391.148 60.144 390.305 60.144ZM390.305 58.56C390.775 58.56 391.212 58.448 391.617 58.224C392.033 58 392.369 57.664 392.625 57.216C392.881 56.768 393.009 56.224 393.009 55.584C393.009 54.944 392.887 54.4053 392.641 53.968C392.396 53.52 392.071 53.184 391.665 52.96C391.26 52.736 390.823 52.624 390.353 52.624C389.884 52.624 389.447 52.736 389.041 52.96C388.647 53.184 388.332 53.52 388.097 53.968C387.863 54.4053 387.745 54.944 387.745 55.584C387.745 56.5333 387.985 57.2693 388.465 57.792C388.956 58.304 389.569 58.56 390.305 58.56ZM407.356 51.04C408.05 51.04 408.668 51.184 409.212 51.472C409.767 51.76 410.199 52.1867 410.508 52.752C410.828 53.3173 410.988 54 410.988 54.8V60H409.18V55.072C409.18 54.2827 408.983 53.68 408.588 53.264C408.194 52.8373 407.655 52.624 406.972 52.624C406.29 52.624 405.746 52.8373 405.34 53.264C404.946 53.68 404.748 54.2827 404.748 55.072V60H402.94V55.072C402.94 54.2827 402.743 53.68 402.348 53.264C401.954 52.8373 401.415 52.624 400.732 52.624C400.05 52.624 399.506 52.8373 399.1 53.264C398.706 53.68 398.508 54.2827 398.508 55.072V60H396.684V51.184H398.508V52.192C398.807 51.8293 399.186 51.5467 399.644 51.344C400.103 51.1413 400.594 51.04 401.116 51.04C401.82 51.04 402.45 51.1893 403.004 51.488C403.559 51.7867 403.986 52.2187 404.284 52.784C404.551 52.2507 404.967 51.8293 405.532 51.52C406.098 51.2 406.706 51.04 407.356 51.04ZM421.389 55.376C421.389 55.7067 421.368 56.0053 421.325 56.272H414.589C414.643 56.976 414.904 57.5413 415.373 57.968C415.843 58.3947 416.419 58.608 417.101 58.608C418.083 58.608 418.776 58.1973 419.181 57.376H421.149C420.883 58.1867 420.397 58.8533 419.693 59.376C419 59.888 418.136 60.144 417.101 60.144C416.259 60.144 415.501 59.9573 414.829 59.584C414.168 59.2 413.645 58.6667 413.261 57.984C412.888 57.2907 412.701 56.4907 412.701 55.584C412.701 54.6773 412.883 53.8827 413.245 53.2C413.619 52.5067 414.136 51.9733 414.797 51.6C415.469 51.2267 416.237 51.04 417.101 51.04C417.933 51.04 418.675 51.2213 419.325 51.584C419.976 51.9467 420.483 52.4587 420.845 53.12C421.208 53.7707 421.389 54.5227 421.389 55.376ZM419.485 54.8C419.475 54.128 419.235 53.5893 418.765 53.184C418.296 52.7787 417.715 52.576 417.021 52.576C416.392 52.576 415.853 52.7787 415.405 53.184C414.957 53.5787 414.691 54.1173 414.605 54.8H419.485Z" fill="#F2F2F3"/>
<path d="M458.864 60.112C458.117 60.112 457.445 59.984 456.848 59.728C456.251 59.4613 455.781 59.088 455.44 58.608C455.099 58.128 454.928 57.568 454.928 56.928H456.88C456.923 57.408 457.109 57.8027 457.44 58.112C457.781 58.4213 458.256 58.576 458.864 58.576C459.493 58.576 459.984 58.4267 460.336 58.128C460.688 57.8187 460.864 57.424 460.864 56.944C460.864 56.5707 460.752 56.2667 460.528 56.032C460.315 55.7973 460.043 55.616 459.712 55.488C459.392 55.36 458.944 55.2213 458.368 55.072C457.643 54.88 457.051 54.688 456.592 54.496C456.144 54.2933 455.76 53.984 455.44 53.568C455.12 53.152 454.96 52.5973 454.96 51.904C454.96 51.264 455.12 50.704 455.44 50.224C455.76 49.744 456.208 49.376 456.784 49.12C457.36 48.864 458.027 48.736 458.784 48.736C459.861 48.736 460.741 49.008 461.424 49.552C462.117 50.0853 462.501 50.8213 462.576 51.76H460.56C460.528 51.3547 460.336 51.008 459.984 50.72C459.632 50.432 459.168 50.288 458.592 50.288C458.069 50.288 457.643 50.4213 457.312 50.688C456.981 50.9547 456.816 51.3387 456.816 51.84C456.816 52.1813 456.917 52.464 457.12 52.688C457.333 52.9013 457.6 53.072 457.92 53.2C458.24 53.328 458.677 53.4667 459.232 53.616C459.968 53.8187 460.565 54.0213 461.024 54.224C461.493 54.4267 461.888 54.7413 462.208 55.168C462.539 55.584 462.704 56.144 462.704 56.848C462.704 57.4133 462.549 57.9467 462.24 58.448C461.941 58.9493 461.499 59.3547 460.912 59.664C460.336 59.9627 459.653 60.112 458.864 60.112ZM472.936 55.376C472.936 55.7067 472.915 56.0053 472.872 56.272H466.136C466.19 56.976 466.451 57.5413 466.92 57.968C467.39 58.3947 467.966 58.608 468.648 58.608C469.63 58.608 470.323 58.1973 470.728 57.376H472.696C472.43 58.1867 471.944 58.8533 471.24 59.376C470.547 59.888 469.683 60.144 468.648 60.144C467.806 60.144 467.048 59.9573 466.376 59.584C465.715 59.2 465.192 58.6667 464.808 57.984C464.435 57.2907 464.248 56.4907 464.248 55.584C464.248 54.6773 464.43 53.8827 464.792 53.2C465.166 52.5067 465.683 51.9733 466.344 51.6C467.016 51.2267 467.784 51.04 468.648 51.04C469.48 51.04 470.222 51.2213 470.872 51.584C471.523 51.9467 472.03 52.4587 472.392 53.12C472.755 53.7707 472.936 54.5227 472.936 55.376ZM471.032 54.8C471.022 54.128 470.782 53.5893 470.312 53.184C469.843 52.7787 469.262 52.576 468.568 52.576C467.939 52.576 467.4 52.7787 466.952 53.184C466.504 53.5787 466.238 54.1173 466.152 54.8H471.032ZM476.555 52.464C476.822 52.016 477.174 51.6693 477.611 51.424C478.059 51.168 478.587 51.04 479.195 51.04V52.928H478.731C478.017 52.928 477.473 53.1093 477.099 53.472C476.737 53.8347 476.555 54.464 476.555 55.36V60H474.731V51.184H476.555V52.464ZM484.28 58.368L486.776 51.184H488.712L485.352 60H483.176L479.832 51.184H481.784L484.28 58.368ZM491.019 50.016C490.688 50.016 490.411 49.904 490.187 49.68C489.963 49.456 489.851 49.1787 489.851 48.848C489.851 48.5173 489.963 48.24 490.187 48.016C490.411 47.792 490.688 47.68 491.019 47.68C491.339 47.68 491.611 47.792 491.835 48.016C492.059 48.24 492.171 48.5173 492.171 48.848C492.171 49.1787 492.059 49.456 491.835 49.68C491.611 49.904 491.339 50.016 491.019 50.016ZM491.915 51.184V60H490.091V51.184H491.915ZM493.701 55.584C493.701 54.6773 493.883 53.8827 494.245 53.2C494.619 52.5067 495.131 51.9733 495.781 51.6C496.432 51.2267 497.179 51.04 498.021 51.04C499.088 51.04 499.968 51.296 500.661 51.808C501.365 52.3093 501.84 53.0293 502.085 53.968H500.117C499.957 53.5307 499.701 53.1893 499.349 52.944C498.997 52.6987 498.555 52.576 498.021 52.576C497.275 52.576 496.677 52.8427 496.229 53.376C495.792 53.8987 495.573 54.6347 495.573 55.584C495.573 56.5333 495.792 57.2747 496.229 57.808C496.677 58.3413 497.275 58.608 498.021 58.608C499.077 58.608 499.776 58.144 500.117 57.216H502.085C501.829 58.112 501.349 58.8267 500.645 59.36C499.941 59.8827 499.067 60.144 498.021 60.144C497.179 60.144 496.432 59.9573 495.781 59.584C495.131 59.2 494.619 58.6667 494.245 57.984C493.883 57.2907 493.701 56.4907 493.701 55.584ZM511.983 55.376C511.983 55.7067 511.962 56.0053 511.919 56.272H505.183C505.236 56.976 505.498 57.5413 505.967 57.968C506.436 58.3947 507.012 58.608 507.695 58.608C508.676 58.608 509.37 58.1973 509.775 57.376H511.743C511.476 58.1867 510.991 58.8533 510.287 59.376C509.594 59.888 508.73 60.144 507.695 60.144C506.852 60.144 506.095 59.9573 505.423 59.584C504.762 59.2 504.239 58.6667 503.855 57.984C503.482 57.2907 503.295 56.4907 503.295 55.584C503.295 54.6773 503.476 53.8827 503.839 53.2C504.212 52.5067 504.73 51.9733 505.391 51.6C506.063 51.2267 506.831 51.04 507.695 51.04C508.527 51.04 509.268 51.2213 509.919 51.584C510.57 51.9467 511.076 52.4587 511.439 53.12C511.802 53.7707 511.983 54.5227 511.983 55.376ZM510.079 54.8C510.068 54.128 509.828 53.5893 509.359 53.184C508.89 52.7787 508.308 52.576 507.615 52.576C506.986 52.576 506.447 52.7787 505.999 53.184C505.551 53.5787 505.284 54.1173 505.199 54.8H510.079ZM516.978 60.144C516.285 60.144 515.661 60.0213 515.106 59.776C514.562 59.52 514.13 59.1787 513.81 58.752C513.49 58.3147 513.319 57.8293 513.298 57.296H515.186C515.218 57.6693 515.394 57.984 515.714 58.24C516.045 58.4853 516.455 58.608 516.946 58.608C517.458 58.608 517.853 58.512 518.13 58.32C518.418 58.1173 518.562 57.8613 518.562 57.552C518.562 57.2213 518.402 56.976 518.082 56.816C517.773 56.656 517.277 56.48 516.594 56.288C515.933 56.1067 515.394 55.9307 514.978 55.76C514.562 55.5893 514.199 55.328 513.89 54.976C513.591 54.624 513.442 54.16 513.442 53.584C513.442 53.1147 513.581 52.688 513.858 52.304C514.135 51.9093 514.53 51.6 515.042 51.376C515.565 51.152 516.162 51.04 516.834 51.04C517.837 51.04 518.642 51.296 519.25 51.808C519.869 52.3093 520.199 52.9973 520.242 53.872H518.418C518.386 53.4773 518.226 53.1627 517.938 52.928C517.65 52.6933 517.261 52.576 516.77 52.576C516.29 52.576 515.922 52.6667 515.666 52.848C515.41 53.0293 515.282 53.2693 515.282 53.568C515.282 53.8027 515.367 54 515.538 54.16C515.709 54.32 515.917 54.448 516.162 54.544C516.407 54.6293 516.77 54.7413 517.25 54.88C517.89 55.0507 518.413 55.2267 518.818 55.408C519.234 55.5787 519.591 55.8347 519.89 56.176C520.189 56.5173 520.343 56.9707 520.354 57.536C520.354 58.0373 520.215 58.4853 519.938 58.88C519.661 59.2747 519.266 59.584 518.754 59.808C518.253 60.032 517.661 60.144 516.978 60.144Z" fill="#F2F2F3"/>
<a href="https://odin-recharge-bot.online/what-we-offer">
<rect fill="black" fill-opacity="0" y="9.53674e-07" width="67.1221" height="24"/>
</a>
<path d="M560.272 60.112C559.237 60.112 558.283 59.872 557.408 59.392C556.544 58.9013 555.856 58.224 555.344 57.36C554.843 56.4853 554.592 55.504 554.592 54.416C554.592 53.328 554.843 52.352 555.344 51.488C555.856 50.624 556.544 49.952 557.408 49.472C558.283 48.9813 559.237 48.736 560.272 48.736C561.317 48.736 562.272 48.9813 563.136 49.472C564.011 49.952 564.699 50.624 565.2 51.488C565.701 52.352 565.952 53.328 565.952 54.416C565.952 55.504 565.701 56.4853 565.2 57.36C564.699 58.224 564.011 58.9013 563.136 59.392C562.272 59.872 561.317 60.112 560.272 60.112ZM560.272 58.528C561.008 58.528 561.664 58.3627 562.24 58.032C562.816 57.6907 563.264 57.2107 563.584 56.592C563.915 55.9627 564.08 55.2373 564.08 54.416C564.08 53.5947 563.915 52.8747 563.584 52.256C563.264 51.6373 562.816 51.1627 562.24 50.832C561.664 50.5013 561.008 50.336 560.272 50.336C559.536 50.336 558.88 50.5013 558.304 50.832C557.728 51.1627 557.275 51.6373 556.944 52.256C556.624 52.8747 556.464 53.5947 556.464 54.416C556.464 55.2373 556.624 55.9627 556.944 56.592C557.275 57.2107 557.728 57.6907 558.304 58.032C558.88 58.3627 559.536 58.528 560.272 58.528ZM575.731 51.184V60H573.907V58.96C573.619 59.3227 573.24 59.6107 572.771 59.824C572.312 60.0267 571.822 60.128 571.299 60.128C570.606 60.128 569.982 59.984 569.427 59.696C568.883 59.408 568.451 58.9813 568.131 58.416C567.822 57.8507 567.667 57.168 567.667 56.368V51.184H569.475V56.096C569.475 56.8853 569.672 57.4933 570.067 57.92C570.462 58.336 571 58.544 571.683 58.544C572.366 58.544 572.904 58.336 573.299 57.92C573.704 57.4933 573.907 56.8853 573.907 56.096V51.184H575.731ZM579.962 52.464C580.228 52.016 580.58 51.6693 581.018 51.424C581.466 51.168 581.994 51.04 582.602 51.04V52.928H582.138C581.423 52.928 580.879 53.1093 580.506 53.472C580.143 53.8347 579.962 54.464 579.962 55.36V60H578.138V51.184H579.962V52.464ZM590.258 52.48C590.568 52.0747 590.989 51.7333 591.522 51.456C592.056 51.1787 592.658 51.04 593.33 51.04C594.098 51.04 594.797 51.232 595.426 51.616C596.066 51.9893 596.568 52.5173 596.93 53.2C597.293 53.8827 597.474 54.6667 597.474 55.552C597.474 56.4373 597.293 57.232 596.93 57.936C596.568 58.6293 596.066 59.1733 595.426 59.568C594.797 59.952 594.098 60.144 593.33 60.144C592.658 60.144 592.061 60.0107 591.538 59.744C591.016 59.4667 590.589 59.1253 590.258 58.72V64.192H588.434V51.184H590.258V52.48ZM595.618 55.552C595.618 54.944 595.49 54.4213 595.234 53.984C594.989 53.536 594.658 53.2 594.242 52.976C593.837 52.7413 593.4 52.624 592.93 52.624C592.472 52.624 592.034 52.7413 591.618 52.976C591.213 53.2107 590.882 53.552 590.626 54C590.381 54.448 590.258 54.976 590.258 55.584C590.258 56.192 590.381 56.7253 590.626 57.184C590.882 57.632 591.213 57.9733 591.618 58.208C592.034 58.4427 592.472 58.56 592.93 58.56C593.4 58.56 593.837 58.4427 594.242 58.208C594.658 57.9627 594.989 57.6107 595.234 57.152C595.49 56.6933 595.618 56.16 595.618 55.552ZM601.102 52.464C601.369 52.016 601.721 51.6693 602.158 51.424C602.606 51.168 603.134 51.04 603.742 51.04V52.928H603.278C602.563 52.928 602.019 53.1093 601.646 53.472C601.283 53.8347 601.102 54.464 601.102 55.36V60H599.278V51.184H601.102V52.464ZM609.243 60.144C608.411 60.144 607.659 59.9573 606.987 59.584C606.315 59.2 605.787 58.6667 605.403 57.984C605.019 57.2907 604.827 56.4907 604.827 55.584C604.827 54.688 605.024 53.8933 605.419 53.2C605.813 52.5067 606.352 51.9733 607.035 51.6C607.717 51.2267 608.48 51.04 609.323 51.04C610.165 51.04 610.928 51.2267 611.611 51.6C612.293 51.9733 612.832 52.5067 613.227 53.2C613.621 53.8933 613.819 54.688 613.819 55.584C613.819 56.48 613.616 57.2747 613.211 57.968C612.805 58.6613 612.251 59.2 611.547 59.584C610.853 59.9573 610.085 60.144 609.243 60.144ZM609.243 58.56C609.712 58.56 610.149 58.448 610.555 58.224C610.971 58 611.307 57.664 611.563 57.216C611.819 56.768 611.947 56.224 611.947 55.584C611.947 54.944 611.824 54.4053 611.579 53.968C611.333 53.52 611.008 53.184 610.603 52.96C610.197 52.736 609.76 52.624 609.291 52.624C608.821 52.624 608.384 52.736 607.979 52.96C607.584 53.184 607.269 53.52 607.035 53.968C606.8 54.4053 606.683 54.944 606.683 55.584C606.683 56.5333 606.923 57.2693 607.403 57.792C607.893 58.304 608.507 58.56 609.243 58.56ZM615.014 55.584C615.014 54.6773 615.195 53.8827 615.558 53.2C615.931 52.5067 616.443 51.9733 617.094 51.6C617.745 51.2267 618.491 51.04 619.334 51.04C620.401 51.04 621.281 51.296 621.974 51.808C622.678 52.3093 623.153 53.0293 623.398 53.968H621.43C621.27 53.5307 621.014 53.1893 620.662 52.944C620.31 52.6987 619.867 52.576 619.334 52.576C618.587 52.576 617.99 52.8427 617.542 53.376C617.105 53.8987 616.886 54.6347 616.886 55.584C616.886 56.5333 617.105 57.2747 617.542 57.808C617.99 58.3413 618.587 58.608 619.334 58.608C620.39 58.608 621.089 58.144 621.43 57.216H623.398C623.142 58.112 622.662 58.8267 621.958 59.36C621.254 59.8827 620.379 60.144 619.334 60.144C618.491 60.144 617.745 59.9573 617.094 59.584C616.443 59.2 615.931 58.6667 615.558 57.984C615.195 57.2907 615.014 56.4907 615.014 55.584ZM633.296 55.376C633.296 55.7067 633.274 56.0053 633.232 56.272H626.496C626.549 56.976 626.81 57.5413 627.28 57.968C627.749 58.3947 628.325 58.608 629.008 58.608C629.989 58.608 630.682 58.1973 631.088 57.376H633.056C632.789 58.1867 632.304 58.8533 631.6 59.376C630.906 59.888 630.042 60.144 629.008 60.144C628.165 60.144 627.408 59.9573 626.736 59.584C626.074 59.2 625.552 58.6667 625.168 57.984C624.794 57.2907 624.608 56.4907 624.608 55.584C624.608 54.6773 624.789 53.8827 625.152 53.2C625.525 52.5067 626.042 51.9733 626.704 51.6C627.376 51.2267 628.144 51.04 629.008 51.04C629.84 51.04 630.581 51.2213 631.232 51.584C631.882 51.9467 632.389 52.4587 632.752 53.12C633.114 53.7707 633.296 54.5227 633.296 55.376ZM631.392 54.8C631.381 54.128 631.141 53.5893 630.672 53.184C630.202 52.7787 629.621 52.576 628.928 52.576C628.298 52.576 627.76 52.7787 627.312 53.184C626.864 53.5787 626.597 54.1173 626.512 54.8H631.392ZM638.291 60.144C637.597 60.144 636.973 60.0213 636.419 59.776C635.875 59.52 635.443 59.1787 635.123 58.752C634.803 58.3147 634.632 57.8293 634.611 57.296H636.499C636.531 57.6693 636.707 57.984 637.027 58.24C637.357 58.4853 637.768 58.608 638.259 58.608C638.771 58.608 639.165 58.512 639.443 58.32C639.731 58.1173 639.875 57.8613 639.875 57.552C639.875 57.2213 639.715 56.976 639.395 56.816C639.085 56.656 638.589 56.48 637.907 56.288C637.245 56.1067 636.707 55.9307 636.291 55.76C635.875 55.5893 635.512 55.328 635.203 54.976C634.904 54.624 634.755 54.16 634.755 53.584C634.755 53.1147 634.893 52.688 635.171 52.304C635.448 51.9093 635.843 51.6 636.355 51.376C636.877 51.152 637.475 51.04 638.147 51.04C639.149 51.04 639.955 51.296 640.563 51.808C641.181 52.3093 641.512 52.9973 641.555 53.872H639.731C639.699 53.4773 639.539 53.1627 639.251 52.928C638.963 52.6933 638.573 52.576 638.083 52.576C637.603 52.576 637.235 52.6667 636.979 52.848C636.723 53.0293 636.595 53.2693 636.595 53.568C636.595 53.8027 636.68 54 636.851 54.16C637.021 54.32 637.229 54.448 637.475 54.544C637.72 54.6293 638.083 54.7413 638.563 54.88C639.203 55.0507 639.725 55.2267 640.131 55.408C640.547 55.5787 640.904 55.8347 641.203 56.176C641.501 56.5173 641.656 56.9707 641.667 57.536C641.667 58.0373 641.528 58.4853 641.251 58.88C640.973 59.2747 640.579 59.584 640.067 59.808C639.565 60.032 638.973 60.144 638.291 60.144ZM646.838 60.144C646.144 60.144 645.52 60.0213 644.966 59.776C644.422 59.52 643.99 59.1787 643.67 58.752C643.35 58.3147 643.179 57.8293 643.158 57.296H645.046C645.078 57.6693 645.254 57.984 645.574 58.24C645.904 58.4853 646.315 58.608 646.806 58.608C647.318 58.608 647.712 58.512 647.99 58.32C648.278 58.1173 648.422 57.8613 648.422 57.552C648.422 57.2213 648.262 56.976 647.942 56.816C647.632 56.656 647.136 56.48 646.454 56.288C645.792 56.1067 645.254 55.9307 644.838 55.76C644.422 55.5893 644.059 55.328 643.75 54.976C643.451 54.624 643.302 54.16 643.302 53.584C643.302 53.1147 643.44 52.688 643.718 52.304C643.995 51.9093 644.39 51.6 644.902 51.376C645.424 51.152 646.022 51.04 646.694 51.04C647.696 51.04 648.502 51.296 649.11 51.808C649.728 52.3093 650.059 52.9973 650.102 53.872H648.278C648.246 53.4773 648.086 53.1627 647.798 52.928C647.51 52.6933 647.12 52.576 646.63 52.576C646.15 52.576 645.782 52.6667 645.526 52.848C645.27 53.0293 645.142 53.2693 645.142 53.568C645.142 53.8027 645.227 54 645.398 54.16C645.568 54.32 645.776 54.448 646.022 54.544C646.267 54.6293 646.63 54.7413 647.11 54.88C647.75 55.0507 648.272 55.2267 648.678 55.408C649.094 55.5787 649.451 55.8347 649.75 56.176C650.048 56.5173 650.203 56.9707 650.214 57.536C650.214 58.0373 650.075 58.4853 649.798 58.88C649.52 59.2747 649.126 59.584 648.614 59.808C648.112 60.032 647.52 60.144 646.838 60.144Z" fill="#F2F2F3"/>
<path d="M693.336 60H691.512L686.024 51.696V60H684.2V48.864H686.024L691.512 57.152V48.864H693.336V60ZM703.811 55.376C703.811 55.7067 703.79 56.0053 703.747 56.272H697.011C697.065 56.976 697.326 57.5413 697.795 57.968C698.265 58.3947 698.841 58.608 699.523 58.608C700.505 58.608 701.198 58.1973 701.603 57.376H703.571C703.305 58.1867 702.819 58.8533 702.115 59.376C701.422 59.888 700.558 60.144 699.523 60.144C698.681 60.144 697.923 59.9573 697.251 59.584C696.59 59.2 696.067 58.6667 695.683 57.984C695.31 57.2907 695.123 56.4907 695.123 55.584C695.123 54.6773 695.305 53.8827 695.667 53.2C696.041 52.5067 696.558 51.9733 697.219 51.6C697.891 51.2267 698.659 51.04 699.523 51.04C700.355 51.04 701.097 51.2213 701.747 51.584C702.398 51.9467 702.905 52.4587 703.267 53.12C703.63 53.7707 703.811 54.5227 703.811 55.376ZM701.907 54.8C701.897 54.128 701.657 53.5893 701.187 53.184C700.718 52.7787 700.137 52.576 699.443 52.576C698.814 52.576 698.275 52.7787 697.827 53.184C697.379 53.5787 697.113 54.1173 697.027 54.8H701.907ZM717.446 51.184L714.71 60H712.79L711.014 53.488L709.238 60H707.318L704.566 51.184H706.422L708.262 58.272L710.134 51.184H712.038L713.83 58.24L715.654 51.184H717.446ZM722.009 60.144C721.316 60.144 720.692 60.0213 720.137 59.776C719.593 59.52 719.161 59.1787 718.841 58.752C718.521 58.3147 718.351 57.8293 718.329 57.296H720.217C720.249 57.6693 720.425 57.984 720.745 58.24C721.076 58.4853 721.487 58.608 721.977 58.608C722.489 58.608 722.884 58.512 723.161 58.32C723.449 58.1173 723.593 57.8613 723.593 57.552C723.593 57.2213 723.433 56.976 723.113 56.816C722.804 56.656 722.308 56.48 721.625 56.288C720.964 56.1067 720.425 55.9307 720.009 55.76C719.593 55.5893 719.231 55.328 718.921 54.976C718.623 54.624 718.473 54.16 718.473 53.584C718.473 53.1147 718.612 52.688 718.889 52.304C719.167 51.9093 719.561 51.6 720.073 51.376C720.596 51.152 721.193 51.04 721.865 51.04C722.868 51.04 723.673 51.296 724.281 51.808C724.9 52.3093 725.231 52.9973 725.273 53.872H723.449C723.417 53.4773 723.257 53.1627 722.969 52.928C722.681 52.6933 722.292 52.576 721.801 52.576C721.321 52.576 720.953 52.6667 720.697 52.848C720.441 53.0293 720.313 53.2693 720.313 53.568C720.313 53.8027 720.399 54 720.569 54.16C720.74 54.32 720.948 54.448 721.193 54.544C721.439 54.6293 721.801 54.7413 722.281 54.88C722.921 55.0507 723.444 55.2267 723.849 55.408C724.265 55.5787 724.623 55.8347 724.921 56.176C725.22 56.5173 725.375 56.9707 725.385 57.536C725.385 58.0373 725.247 58.4853 724.969 58.88C724.692 59.2747 724.297 59.584 723.785 59.808C723.284 60.032 722.692 60.144 722.009 60.144Z" fill="#F2F2F3"/>
<path d="M759.592 54.416C759.592 53.328 759.843 52.352 760.344 51.488C760.856 50.624 761.544 49.952 762.408 49.472C763.283 48.9813 764.237 48.736 765.272 48.736C766.456 48.736 767.507 49.0293 768.424 49.616C769.352 50.192 770.024 51.0133 770.44 52.08H768.248C767.96 51.4933 767.56 51.056 767.048 50.768C766.536 50.48 765.944 50.336 765.272 50.336C764.536 50.336 763.88 50.5013 763.304 50.832C762.728 51.1627 762.275 51.6373 761.944 52.256C761.624 52.8747 761.464 53.5947 761.464 54.416C761.464 55.2373 761.624 55.9573 761.944 56.576C762.275 57.1947 762.728 57.6747 763.304 58.016C763.88 58.3467 764.536 58.512 765.272 58.512C765.944 58.512 766.536 58.368 767.048 58.08C767.56 57.792 767.96 57.3547 768.248 56.768H770.44C770.024 57.8347 769.352 58.656 768.424 59.232C767.507 59.808 766.456 60.096 765.272 60.096C764.227 60.096 763.272 59.856 762.408 59.376C761.544 58.8853 760.856 58.208 760.344 57.344C759.843 56.48 759.592 55.504 759.592 54.416ZM776.399 60.144C775.567 60.144 774.815 59.9573 774.143 59.584C773.471 59.2 772.943 58.6667 772.559 57.984C772.175 57.2907 771.983 56.4907 771.983 55.584C771.983 54.688 772.18 53.8933 772.575 53.2C772.97 52.5067 773.508 51.9733 774.191 51.6C774.874 51.2267 775.636 51.04 776.479 51.04C777.322 51.04 778.084 51.2267 778.767 51.6C779.45 51.9733 779.988 52.5067 780.383 53.2C780.778 53.8933 780.975 54.688 780.975 55.584C780.975 56.48 780.772 57.2747 780.367 57.968C779.962 58.6613 779.407 59.2 778.703 59.584C778.01 59.9573 777.242 60.144 776.399 60.144ZM776.399 58.56C776.868 58.56 777.306 58.448 777.711 58.224C778.127 58 778.463 57.664 778.719 57.216C778.975 56.768 779.103 56.224 779.103 55.584C779.103 54.944 778.98 54.4053 778.735 53.968C778.49 53.52 778.164 53.184 777.759 52.96C777.354 52.736 776.916 52.624 776.447 52.624C775.978 52.624 775.54 52.736 775.135 52.96C774.74 53.184 774.426 53.52 774.191 53.968C773.956 54.4053 773.839 54.944 773.839 55.584C773.839 56.5333 774.079 57.2693 774.559 57.792C775.05 58.304 775.663 58.56 776.399 58.56ZM787.226 51.04C787.919 51.04 788.538 51.184 789.082 51.472C789.637 51.76 790.069 52.1867 790.378 52.752C790.687 53.3173 790.842 54 790.842 54.8V60H789.034V55.072C789.034 54.2827 788.837 53.68 788.442 53.264C788.047 52.8373 787.509 52.624 786.826 52.624C786.143 52.624 785.599 52.8373 785.194 53.264C784.799 53.68 784.602 54.2827 784.602 55.072V60H782.778V51.184H784.602V52.192C784.901 51.8293 785.279 51.5467 785.738 51.344C786.207 51.1413 786.703 51.04 787.226 51.04ZM795.297 52.672V57.552C795.297 57.8827 795.371 58.1227 795.521 58.272C795.681 58.4107 795.947 58.48 796.321 58.48H797.441V60H796.001C795.179 60 794.55 59.808 794.113 59.424C793.675 59.04 793.457 58.416 793.457 57.552V52.672H792.417V51.184H793.457V48.992H795.297V51.184H797.441V52.672H795.297ZM798.514 55.552C798.514 54.6667 798.695 53.8827 799.058 53.2C799.431 52.5173 799.933 51.9893 800.562 51.616C801.202 51.232 801.906 51.04 802.674 51.04C803.367 51.04 803.97 51.1787 804.482 51.456C805.005 51.7227 805.421 52.0587 805.73 52.464V51.184H807.57V60H805.73V58.688C805.421 59.104 804.999 59.4507 804.466 59.728C803.933 60.0053 803.325 60.144 802.642 60.144C801.885 60.144 801.191 59.952 800.562 59.568C799.933 59.1733 799.431 58.6293 799.058 57.936C798.695 57.232 798.514 56.4373 798.514 55.552ZM805.73 55.584C805.73 54.976 805.602 54.448 805.346 54C805.101 53.552 804.775 53.2107 804.37 52.976C803.965 52.7413 803.527 52.624 803.058 52.624C802.589 52.624 802.151 52.7413 801.746 52.976C801.341 53.2 801.01 53.536 800.754 53.984C800.509 54.4213 800.386 54.944 800.386 55.552C800.386 56.16 800.509 56.6933 800.754 57.152C801.01 57.6107 801.341 57.9627 801.746 58.208C802.162 58.4427 802.599 58.56 803.058 58.56C803.527 58.56 803.965 58.4427 804.37 58.208C804.775 57.9733 805.101 57.632 805.346 57.184C805.602 56.7253 805.73 56.192 805.73 55.584ZM809.358 55.584C809.358 54.6773 809.539 53.8827 809.902 53.2C810.275 52.5067 810.787 51.9733 811.438 51.6C812.088 51.2267 812.835 51.04 813.678 51.04C814.744 51.04 815.624 51.296 816.318 51.808C817.022 52.3093 817.496 53.0293 817.742 53.968H815.774C815.614 53.5307 815.358 53.1893 815.006 52.944C814.654 52.6987 814.211 52.576 813.678 52.576C812.931 52.576 812.334 52.8427 811.886 53.376C811.448 53.8987 811.23 54.6347 811.23 55.584C811.23 56.5333 811.448 57.2747 811.886 57.808C812.334 58.3413 812.931 58.608 813.678 58.608C814.734 58.608 815.432 58.144 815.774 57.216H817.742C817.486 58.112 817.006 58.8267 816.302 59.36C815.598 59.8827 814.723 60.144 813.678 60.144C812.835 60.144 812.088 59.9573 811.438 59.584C810.787 59.2 810.275 58.6667 809.902 57.984C809.539 57.2907 809.358 56.4907 809.358 55.584ZM821.687 52.672V57.552C821.687 57.8827 821.762 58.1227 821.911 58.272C822.071 58.4107 822.338 58.48 822.711 58.48H823.831V60H822.391C821.57 60 820.941 59.808 820.503 59.424C820.066 59.04 819.847 58.416 819.847 57.552V52.672H818.807V51.184H819.847V48.992H821.687V51.184H823.831V52.672H821.687Z" fill="#F2F2F3"/>
<a href="https://odin-recharge-bot.online/contact-us">
<rect fill="black" fill-opacity="0" y="9.53674e-07" width="65.3114" height="24"/>
</a>
<g clip-path="url(#clip2_38_2735)">
<rect x="906" y="37.5" width="198" height="33" rx="0.5" stroke="#F2F2F3"/>
<path d="M956.116 48.832V56.672C956.116 57.76 955.801 58.608 955.172 59.216C954.543 59.8133 953.7 60.112 952.644 60.112C951.577 60.112 950.713 59.8027 950.052 59.184C949.401 58.5653 949.076 57.7013 949.076 56.592H951.316C951.327 57.072 951.439 57.4453 951.652 57.712C951.876 57.9787 952.196 58.112 952.612 58.112C953.017 58.112 953.327 57.984 953.54 57.728C953.753 57.472 953.86 57.12 953.86 56.672V48.832H956.116ZM962.345 60.144C961.492 60.144 960.724 59.9573 960.041 59.584C959.358 59.2 958.82 58.6613 958.425 57.968C958.041 57.2747 957.849 56.4747 957.849 55.568C957.849 54.6613 958.046 53.8613 958.441 53.168C958.846 52.4747 959.396 51.9413 960.089 51.568C960.782 51.184 961.556 50.992 962.409 50.992C963.262 50.992 964.036 51.184 964.729 51.568C965.422 51.9413 965.966 52.4747 966.361 53.168C966.766 53.8613 966.969 54.6613 966.969 55.568C966.969 56.4747 966.761 57.2747 966.345 57.968C965.94 58.6613 965.385 59.2 964.681 59.584C963.988 59.9573 963.209 60.144 962.345 60.144ZM962.345 58.192C962.75 58.192 963.129 58.096 963.481 57.904C963.844 57.7013 964.132 57.4027 964.345 57.008C964.558 56.6133 964.665 56.1333 964.665 55.568C964.665 54.7253 964.441 54.08 963.993 53.632C963.556 53.1733 963.017 52.944 962.377 52.944C961.737 52.944 961.198 53.1733 960.761 53.632C960.334 54.08 960.121 54.7253 960.121 55.568C960.121 56.4107 960.329 57.0613 960.745 57.52C961.172 57.968 961.705 58.192 962.345 58.192ZM969.428 50.08C969.033 50.08 968.703 49.9573 968.436 49.712C968.18 49.456 968.052 49.1413 968.052 48.768C968.052 48.3947 968.18 48.0853 968.436 47.84C968.703 47.584 969.033 47.456 969.428 47.456C969.823 47.456 970.148 47.584 970.404 47.84C970.671 48.0853 970.804 48.3947 970.804 48.768C970.804 49.1413 970.671 49.456 970.404 49.712C970.148 49.9573 969.823 50.08 969.428 50.08ZM970.532 51.136V60H968.292V51.136H970.532ZM977.337 51.008C978.393 51.008 979.247 51.344 979.897 52.016C980.548 52.6773 980.873 53.6053 980.873 54.8V60H978.633V55.104C978.633 54.4 978.457 53.8613 978.105 53.488C977.753 53.104 977.273 52.912 976.665 52.912C976.047 52.912 975.556 53.104 975.193 53.488C974.841 53.8613 974.665 54.4 974.665 55.104V60H972.425V51.136H974.665V52.24C974.964 51.856 975.343 51.5573 975.801 51.344C976.271 51.12 976.783 51.008 977.337 51.008ZM990.112 60.144C989.259 60.144 988.491 59.9573 987.808 59.584C987.125 59.2 986.587 58.6613 986.192 57.968C985.808 57.2747 985.616 56.4747 985.616 55.568C985.616 54.6613 985.813 53.8613 986.208 53.168C986.613 52.4747 987.163 51.9413 987.856 51.568C988.549 51.184 989.323 50.992 990.176 50.992C991.029 50.992 991.803 51.184 992.496 51.568C993.189 51.9413 993.733 52.4747 994.128 53.168C994.533 53.8613 994.736 54.6613 994.736 55.568C994.736 56.4747 994.528 57.2747 994.112 57.968C993.707 58.6613 993.152 59.2 992.448 59.584C991.755 59.9573 990.976 60.144 990.112 60.144ZM990.112 58.192C990.517 58.192 990.896 58.096 991.248 57.904C991.611 57.7013 991.899 57.4027 992.112 57.008C992.325 56.6133 992.432 56.1333 992.432 55.568C992.432 54.7253 992.208 54.08 991.76 53.632C991.323 53.1733 990.784 52.944 990.144 52.944C989.504 52.944 988.965 53.1733 988.528 53.632C988.101 54.08 987.888 54.7253 987.888 55.568C987.888 56.4107 988.096 57.0613 988.512 57.52C988.939 57.968 989.472 58.192 990.112 58.192ZM1004.43 51.136V60H1002.17V58.88C1001.88 59.264 1001.5 59.568 1001.04 59.792C1000.58 60.0053 1000.08 60.112 999.531 60.112C998.838 60.112 998.224 59.968 997.691 59.68C997.158 59.3813 996.736 58.9493 996.427 58.384C996.128 57.808 995.979 57.1253 995.979 56.336V51.136H998.219V56.016C998.219 56.72 998.395 57.264 998.747 57.648C999.099 58.0213 999.579 58.208 1000.19 58.208C1000.81 58.208 1001.29 58.0213 1001.64 57.648C1002 57.264 1002.17 56.72 1002.17 56.016V51.136H1004.43ZM1008.56 52.512C1008.85 52.0427 1009.22 51.6747 1009.68 51.408C1010.15 51.1413 1010.68 51.008 1011.28 51.008V53.36H1010.69C1009.98 53.36 1009.45 53.5253 1009.09 53.856C1008.73 54.1867 1008.56 54.7627 1008.56 55.584V60H1006.32V51.136H1008.56V52.512ZM1023.56 48.832V50.64H1020.58V60H1018.34V50.64H1015.37V48.832H1023.56ZM1033.11 55.376C1033.11 55.696 1033.09 55.984 1033.05 56.24H1026.57C1026.62 56.88 1026.85 57.3813 1027.24 57.744C1027.64 58.1067 1028.12 58.288 1028.7 58.288C1029.53 58.288 1030.12 57.9307 1030.47 57.216H1032.89C1032.63 58.0693 1032.14 58.7733 1031.42 59.328C1030.69 59.872 1029.8 60.144 1028.74 60.144C1027.89 60.144 1027.12 59.9573 1026.44 59.584C1025.77 59.2 1025.24 58.6613 1024.86 57.968C1024.48 57.2747 1024.3 56.4747 1024.3 55.568C1024.3 54.6507 1024.48 53.8453 1024.86 53.152C1025.23 52.4587 1025.75 51.9253 1026.42 51.552C1027.1 51.1787 1027.87 50.992 1028.74 50.992C1029.59 50.992 1030.34 51.1733 1031 51.536C1031.67 51.8987 1032.19 52.416 1032.55 53.088C1032.93 53.7493 1033.11 54.512 1033.11 55.376ZM1030.79 54.736C1030.78 54.16 1030.57 53.7013 1030.17 53.36C1029.76 53.008 1029.27 52.832 1028.68 52.832C1028.13 52.832 1027.66 53.0027 1027.27 53.344C1026.9 53.6747 1026.67 54.1387 1026.58 54.736H1030.79ZM1033.85 55.536C1033.85 54.64 1034.03 53.8453 1034.38 53.152C1034.74 52.4587 1035.23 51.9253 1035.84 51.552C1036.45 51.1787 1037.14 50.992 1037.9 50.992C1038.56 50.992 1039.14 51.1253 1039.63 51.392C1040.13 51.6587 1040.53 51.9947 1040.83 52.4V51.136H1043.08V60H1040.83V58.704C1040.54 59.12 1040.14 59.4667 1039.63 59.744C1039.13 60.0107 1038.55 60.144 1037.88 60.144C1037.14 60.144 1036.45 59.952 1035.84 59.568C1035.23 59.184 1034.74 58.6453 1034.38 57.952C1034.03 57.248 1033.85 56.4427 1033.85 55.536ZM1040.83 55.568C1040.83 55.024 1040.72 54.56 1040.51 54.176C1040.29 53.7813 1040.01 53.4827 1039.64 53.28C1039.28 53.0667 1038.89 52.96 1038.48 52.96C1038.06 52.96 1037.68 53.0613 1037.32 53.264C1036.97 53.4667 1036.68 53.7653 1036.46 54.16C1036.25 54.544 1036.14 55.0027 1036.14 55.536C1036.14 56.0693 1036.25 56.5387 1036.46 56.944C1036.68 57.3387 1036.97 57.6427 1037.32 57.856C1037.69 58.0693 1038.07 58.176 1038.48 58.176C1038.89 58.176 1039.28 58.0747 1039.64 57.872C1040.01 57.6587 1040.29 57.36 1040.51 56.976C1040.72 56.5813 1040.83 56.112 1040.83 55.568ZM1055.96 51.008C1057.05 51.008 1057.92 51.344 1058.58 52.016C1059.26 52.6773 1059.59 53.6053 1059.59 54.8V60H1057.35V55.104C1057.35 54.4107 1057.18 53.8827 1056.82 53.52C1056.47 53.1467 1055.99 52.96 1055.38 52.96C1054.78 52.96 1054.29 53.1467 1053.93 53.52C1053.58 53.8827 1053.4 54.4107 1053.4 55.104V60H1051.16V55.104C1051.16 54.4107 1050.98 53.8827 1050.63 53.52C1050.28 53.1467 1049.8 52.96 1049.19 52.96C1048.57 52.96 1048.08 53.1467 1047.72 53.52C1047.37 53.8827 1047.19 54.4107 1047.19 55.104V60H1044.95V51.136H1047.19V52.208C1047.48 51.8347 1047.85 51.5413 1048.3 51.328C1048.75 51.1147 1049.26 51.008 1049.8 51.008C1050.49 51.008 1051.11 51.1573 1051.66 51.456C1052.2 51.744 1052.62 52.16 1052.92 52.704C1053.21 52.192 1053.62 51.7813 1054.17 51.472C1054.72 51.1627 1055.32 51.008 1055.96 51.008Z" fill="#F2F2F3"/>
<rect x="1119.5" y="37" width="137" height="34" rx="1" fill="#FACB24"/>
<path d="M1145.95 55.536C1145.95 54.608 1146.13 53.7973 1146.51 53.104C1146.89 52.4107 1147.42 51.8773 1148.09 51.504C1148.77 51.1307 1149.55 50.944 1150.43 50.944C1151.55 50.944 1152.48 51.2373 1153.23 51.824C1153.99 52.4107 1154.48 53.2373 1154.72 54.304H1151.8C1151.56 53.6213 1151.08 53.28 1150.38 53.28C1149.88 53.28 1149.48 53.4773 1149.18 53.872C1148.88 54.256 1148.73 54.8107 1148.73 55.536C1148.73 56.2613 1148.88 56.8213 1149.18 57.216C1149.48 57.6 1149.88 57.792 1150.38 57.792C1151.08 57.792 1151.56 57.4507 1151.8 56.768H1154.72C1154.48 57.8133 1153.99 58.6347 1153.23 59.232C1152.47 59.8293 1151.54 60.128 1150.43 60.128C1149.55 60.128 1148.77 59.9413 1148.09 59.568C1147.42 59.1947 1146.89 58.6613 1146.51 57.968C1146.13 57.2747 1145.95 56.464 1145.95 55.536ZM1159.92 60.128C1159.05 60.128 1158.26 59.9413 1157.56 59.568C1156.86 59.1947 1156.31 58.6613 1155.91 57.968C1155.51 57.2747 1155.32 56.464 1155.32 55.536C1155.32 54.6187 1155.52 53.8133 1155.92 53.12C1156.33 52.416 1156.88 51.8773 1157.59 51.504C1158.29 51.1307 1159.08 50.944 1159.96 50.944C1160.83 50.944 1161.62 51.1307 1162.32 51.504C1163.03 51.8773 1163.58 52.416 1163.99 53.12C1164.39 53.8133 1164.6 54.6187 1164.6 55.536C1164.6 56.4533 1164.39 57.264 1163.97 57.968C1163.57 58.6613 1163.01 59.1947 1162.29 59.568C1161.59 59.9413 1160.8 60.128 1159.92 60.128ZM1159.92 57.76C1160.45 57.76 1160.89 57.568 1161.25 57.184C1161.62 56.8 1161.81 56.2507 1161.81 55.536C1161.81 54.8213 1161.63 54.272 1161.27 53.888C1160.92 53.504 1160.48 53.312 1159.96 53.312C1159.42 53.312 1158.98 53.504 1158.63 53.888C1158.28 54.2613 1158.1 54.8107 1158.1 55.536C1158.1 56.2507 1158.27 56.8 1158.61 57.184C1158.96 57.568 1159.4 57.76 1159.92 57.76ZM1171.17 50.976C1172.21 50.976 1173.04 51.3173 1173.66 52C1174.29 52.672 1174.61 53.6 1174.61 54.784V60H1171.89V55.152C1171.89 54.5547 1171.73 54.0907 1171.42 53.76C1171.11 53.4293 1170.7 53.264 1170.18 53.264C1169.65 53.264 1169.24 53.4293 1168.93 53.76C1168.62 54.0907 1168.46 54.5547 1168.46 55.152V60H1165.73V51.072H1168.46V52.256C1168.74 51.8613 1169.11 51.552 1169.58 51.328C1170.05 51.0933 1170.58 50.976 1171.17 50.976ZM1181.16 57.68V60H1179.77C1178.78 60 1178.01 59.76 1177.45 59.28C1176.9 58.7893 1176.62 57.9947 1176.62 56.896V53.344H1175.53V51.072H1176.62V48.896H1179.36V51.072H1181.15V53.344H1179.36V56.928C1179.36 57.1947 1179.42 57.3867 1179.55 57.504C1179.68 57.6213 1179.89 57.68 1180.19 57.68H1181.16ZM1181.82 55.52C1181.82 54.6027 1181.99 53.7973 1182.34 53.104C1182.69 52.4107 1183.16 51.8773 1183.76 51.504C1184.36 51.1307 1185.02 50.944 1185.76 50.944C1186.39 50.944 1186.94 51.072 1187.41 51.328C1187.89 51.584 1188.26 51.92 1188.51 52.336V51.072H1191.25V60H1188.51V58.736C1188.25 59.152 1187.87 59.488 1187.39 59.744C1186.92 60 1186.37 60.128 1185.74 60.128C1185.02 60.128 1184.36 59.9413 1183.76 59.568C1183.16 59.184 1182.69 58.6453 1182.34 57.952C1181.99 57.248 1181.82 56.4373 1181.82 55.52ZM1188.51 55.536C1188.51 54.8533 1188.32 54.3147 1187.94 53.92C1187.56 53.5253 1187.1 53.328 1186.56 53.328C1186.02 53.328 1185.55 53.5253 1185.17 53.92C1184.79 54.304 1184.61 54.8373 1184.61 55.52C1184.61 56.2027 1184.79 56.7467 1185.17 57.152C1185.55 57.5467 1186.02 57.744 1186.56 57.744C1187.1 57.744 1187.56 57.5467 1187.94 57.152C1188.32 56.7573 1188.51 56.2187 1188.51 55.536ZM1192.36 55.536C1192.36 54.608 1192.55 53.7973 1192.92 53.104C1193.31 52.4107 1193.84 51.8773 1194.51 51.504C1195.19 51.1307 1195.97 50.944 1196.84 50.944C1197.96 50.944 1198.9 51.2373 1199.64 51.824C1200.4 52.4107 1200.9 53.2373 1201.13 54.304H1198.22C1197.97 53.6213 1197.5 53.28 1196.8 53.28C1196.29 53.28 1195.89 53.4773 1195.6 53.872C1195.3 54.256 1195.15 54.8107 1195.15 55.536C1195.15 56.2613 1195.3 56.8213 1195.6 57.216C1195.89 57.6 1196.29 57.792 1196.8 57.792C1197.5 57.792 1197.97 57.4507 1198.22 56.768H1201.13C1200.9 57.8133 1200.4 58.6347 1199.64 59.232C1198.89 59.8293 1197.95 60.128 1196.84 60.128C1195.97 60.128 1195.19 59.9413 1194.51 59.568C1193.84 59.1947 1193.31 58.6613 1192.92 57.968C1192.55 57.2747 1192.36 56.464 1192.36 55.536ZM1207.25 57.68V60H1205.86C1204.87 60 1204.09 59.76 1203.54 59.28C1202.98 58.7893 1202.71 57.9947 1202.71 56.896V53.344H1201.62V51.072H1202.71V48.896H1205.44V51.072H1207.24V53.344H1205.44V56.928C1205.44 57.1947 1205.51 57.3867 1205.64 57.504C1205.76 57.6213 1205.98 57.68 1206.28 57.68H1207.25ZM1220.34 51.072V60H1217.61V58.784C1217.33 59.1787 1216.95 59.4987 1216.47 59.744C1216 59.9787 1215.48 60.096 1214.9 60.096C1214.22 60.096 1213.62 59.9467 1213.09 59.648C1212.57 59.3387 1212.17 58.896 1211.88 58.32C1211.59 57.744 1211.45 57.0667 1211.45 56.288V51.072H1214.17V55.92C1214.17 56.5173 1214.32 56.9813 1214.63 57.312C1214.94 57.6427 1215.36 57.808 1215.88 57.808C1216.41 57.808 1216.83 57.6427 1217.14 57.312C1217.45 56.9813 1217.61 56.5173 1217.61 55.92V51.072H1220.34ZM1225.62 60.128C1224.84 60.128 1224.15 59.9947 1223.54 59.728C1222.93 59.4613 1222.45 59.0987 1222.1 58.64C1221.75 58.1707 1221.55 57.648 1221.51 57.072H1224.21C1224.24 57.3813 1224.39 57.632 1224.64 57.824C1224.9 58.016 1225.21 58.112 1225.59 58.112C1225.93 58.112 1226.19 58.048 1226.37 57.92C1226.56 57.7813 1226.66 57.6053 1226.66 57.392C1226.66 57.136 1226.53 56.9493 1226.26 56.832C1225.99 56.704 1225.56 56.5653 1224.96 56.416C1224.32 56.2667 1223.79 56.112 1223.36 55.952C1222.94 55.7813 1222.57 55.52 1222.26 55.168C1221.95 54.8053 1221.8 54.32 1221.8 53.712C1221.8 53.2 1221.93 52.736 1222.21 52.32C1222.5 51.8933 1222.92 51.5573 1223.46 51.312C1224.01 51.0667 1224.67 50.944 1225.43 50.944C1226.55 50.944 1227.43 51.2213 1228.07 51.776C1228.72 52.3307 1229.09 53.0667 1229.19 53.984H1226.66C1226.62 53.6747 1226.48 53.4293 1226.24 53.248C1226.02 53.0667 1225.72 52.976 1225.35 52.976C1225.03 52.976 1224.78 53.04 1224.61 53.168C1224.44 53.2853 1224.36 53.4507 1224.36 53.664C1224.36 53.92 1224.49 54.112 1224.76 54.24C1225.03 54.368 1225.46 54.496 1226.04 54.624C1226.7 54.7947 1227.24 54.9653 1227.65 55.136C1228.07 55.296 1228.43 55.5627 1228.74 55.936C1229.06 56.2987 1229.22 56.7893 1229.24 57.408C1229.24 57.9307 1229.09 58.4 1228.79 58.816C1228.5 59.2213 1228.08 59.5413 1227.52 59.776C1226.98 60.0107 1226.34 60.128 1225.62 60.128Z" fill="#362869"/>
</g>
<path d="M1352.28 48.1667C1352.28 48.6087 1352.11 49.0325 1351.79 49.3449C1351.48 49.6573 1351.06 49.8327 1350.62 49.8325C1350.17 49.8323 1349.75 49.6565 1349.44 49.3438C1349.13 49.031 1348.95 48.607 1348.95 48.165C1348.95 47.723 1349.13 47.2991 1349.44 46.9867C1349.75 46.6743 1350.18 46.499 1350.62 46.4992C1351.06 46.4994 1351.48 46.6752 1351.8 46.9879C1352.11 47.3006 1352.28 47.7246 1352.28 48.1667ZM1352.33 51.0667H1349V61.5H1352.33V51.0667ZM1357.6 51.0667H1354.28V61.5H1357.57V56.025C1357.57 52.975 1361.54 52.6917 1361.54 56.025V61.5H1364.83V54.8917C1364.83 49.75 1358.95 49.9417 1357.57 52.4667L1357.6 51.0667Z" fill="#F2F2F3"/>
<path d="M1403.1 47.82C1402.42 47.0395 1402.04 46.0374 1402.04 45H1398.95V57.4C1398.93 58.0712 1398.64 58.7071 1398.16 59.1735C1397.68 59.6399 1397.03 59.9004 1396.36 59.9C1394.94 59.9 1393.76 58.74 1393.76 57.3C1393.76 55.58 1395.42 54.29 1397.13 54.82V51.66C1393.68 51.2 1390.66 53.88 1390.66 57.3C1390.66 60.63 1393.42 63 1396.35 63C1399.49 63 1402.04 60.45 1402.04 57.3V51.01C1403.29 51.9099 1404.8 52.3926 1406.34 52.39V49.3C1406.34 49.3 1404.46 49.39 1403.1 47.82Z" fill="#F2F2F3"/>
<path d="M1440.5 51.2331C1438.89 51.2331 1437.59 52.48 1437.59 54C1437.59 55.52 1438.9 56.7669 1440.5 56.7669C1442.1 56.7669 1443.41 55.52 1443.41 54C1443.41 52.48 1442.1 51.2331 1440.5 51.2331ZM1449.25 54C1449.25 52.8481 1449.25 51.72 1449.19 50.5681C1449.12 49.2381 1448.8 48.0506 1447.77 47.0888C1446.75 46.115 1445.51 45.8062 1444.11 45.7469C1442.9 45.6875 1441.71 45.6875 1440.5 45.6875C1439.29 45.6875 1438.1 45.6875 1436.89 45.7469C1435.49 45.8062 1434.24 46.115 1433.23 47.0888C1432.2 48.0625 1431.87 49.2381 1431.81 50.5681C1431.75 51.72 1431.75 52.8481 1431.75 54C1431.75 55.1519 1431.75 56.28 1431.81 57.4319C1431.87 58.7619 1432.2 59.9494 1433.23 60.9112C1434.25 61.885 1435.49 62.1938 1436.89 62.2531C1438.1 62.3125 1439.29 62.3125 1440.5 62.3125C1441.71 62.3125 1442.9 62.3125 1444.11 62.2531C1445.51 62.1938 1446.76 61.885 1447.77 60.9112C1448.8 59.9375 1449.12 58.7619 1449.19 57.4319C1449.26 56.2919 1449.25 55.1519 1449.25 54ZM1440.5 58.2631C1438.01 58.2631 1436.01 56.3631 1436.01 54C1436.01 51.6369 1438.01 49.7369 1440.5 49.7369C1442.99 49.7369 1444.99 51.6369 1444.99 54C1444.99 56.3631 1442.99 58.2631 1440.5 58.2631ZM1445.17 50.5563C1444.6 50.5563 1444.12 50.1169 1444.12 49.5588C1444.12 49.0006 1444.59 48.5613 1445.17 48.5613C1445.76 48.5613 1446.23 49.0006 1446.23 49.5588C1446.23 49.6888 1446.2 49.8181 1446.15 49.9386C1446.1 50.0592 1446.02 50.1683 1445.93 50.2594C1445.83 50.3523 1445.71 50.4256 1445.59 50.4746C1445.46 50.5236 1445.32 50.5474 1445.19 50.5444L1445.17 50.5563Z" fill="#F2F2F3"/>
<path d="M1478.69 47.32H1480.5V44.14C1479.62 44.0454 1478.74 43.9986 1477.86 44C1475.24 44 1473.45 45.66 1473.45 48.7V51.32H1470.5V54.88H1473.45V64H1477V54.88H1479.94L1480.38 51.32H1477V49.05C1477 48 1477.27 47.32 1478.69 47.32Z" fill="#F2F2F3"/>
</g>
<defs>
<linearGradient id="paint0_linear_38_2735" x1="651" y1="122.5" x2="651" y2="-3" gradientUnits="userSpaceOnUse">
<stop stop-color="#362869" stop-opacity="0"/>
<stop offset="0.471154" stop-color="#362869" stop-opacity="0.5"/>
<stop offset="0.884615" stop-color="#362869"/>
</linearGradient>
<clipPath id="clip0_38_2735">
<rect width="1536" height="166" fill="white"/>
</clipPath>
<clipPath id="clip1_38_2735">
<rect width="159" height="55" fill="white" transform="translate(119 26)"/>
</clipPath>
<clipPath id="clip2_38_2735">
<rect width="351" height="34" fill="white" transform="translate(905.5 37)"/>
</clipPath>
</defs>
</svg>
