<svg width="651" height="140" viewBox="0 0 651 140" fill="none" xmlns="http://www.w3.org/2000/svg">
<path d="M34.1586 26.3871C34.1586 28.5935 33.6267 30.6619 32.5629 32.5924C31.5386 34.5229 29.9035 36.0792 27.6578 37.2611C25.4515 38.4431 22.6542 39.0341 19.2659 39.0341H12.3515V54.8723H4.07775V13.622H19.2659C22.4572 13.622 25.1757 14.1736 27.4214 15.2767C29.6671 16.3799 31.3416 17.8967 32.4447 19.8273C33.5873 21.7578 34.1586 23.9444 34.1586 26.3871ZM18.9113 32.356C21.1964 32.356 22.8906 31.8438 23.9937 30.8195C25.0969 29.7557 25.6485 28.2783 25.6485 26.3871C25.6485 22.3685 23.4028 20.3592 18.9113 20.3592H12.3515V32.356H18.9113ZM37.9053 38.384C37.9053 35.0745 38.5554 32.1393 39.8555 29.5784C41.1951 27.0175 42.9877 25.0476 45.2334 23.6686C47.5185 22.2897 50.0597 21.6002 52.857 21.6002C55.2998 21.6002 57.4273 22.0927 59.2396 23.0777C61.0914 24.0626 62.5688 25.3037 63.672 26.8008V22.1321H72.0048V54.8723H63.672V50.0854C62.6082 51.6219 61.1308 52.9024 59.2396 53.9267C57.3879 54.9117 55.2407 55.4042 52.798 55.4042C50.04 55.4042 47.5185 54.695 45.2334 53.2767C42.9877 51.8583 41.1951 49.8687 39.8555 47.3078C38.5554 44.7075 37.9053 41.7329 37.9053 38.384ZM63.672 38.5022C63.672 36.4929 63.278 34.779 62.49 33.3607C61.702 31.9029 60.6383 30.7998 59.2987 30.0512C57.9592 29.2632 56.5211 28.8692 54.9846 28.8692C53.448 28.8692 52.0297 29.2435 50.7295 29.9921C49.4294 30.7407 48.3656 31.8438 47.5382 33.3016C46.7503 34.7199 46.3563 36.4141 46.3563 38.384C46.3563 40.3539 46.7503 42.0875 47.5382 43.5846C48.3656 45.0424 49.4294 46.1652 50.7295 46.9532C52.0691 47.7412 53.4874 48.1352 54.9846 48.1352C56.5211 48.1352 57.9592 47.7609 59.2987 47.0123C60.6383 46.2243 61.702 45.1212 62.49 43.7028C63.278 42.2451 63.672 40.5115 63.672 38.5022ZM84.2814 18.2316C82.8237 18.2316 81.6023 17.7785 80.6174 16.8724C79.6718 15.9268 79.199 14.7646 79.199 13.3856C79.199 12.0067 79.6718 10.8641 80.6174 9.95793C81.6023 9.01236 82.8237 8.53958 84.2814 8.53958C85.7392 8.53958 86.9408 9.01236 87.8864 9.95793C88.8714 10.8641 89.3638 12.0067 89.3638 13.3856C89.3638 14.7646 88.8714 15.9268 87.8864 16.8724C86.9408 17.7785 85.7392 18.2316 84.2814 18.2316ZM88.3592 22.1321V54.8723H80.0855V22.1321H88.3592ZM94.4061 38.384C94.4061 35.0745 95.0562 32.1393 96.3563 29.5784C97.6959 27.0175 99.5082 25.0476 101.793 23.6686C104.078 22.2897 106.62 21.6002 109.417 21.6002C111.544 21.6002 113.573 22.073 115.504 23.0186C117.435 23.9247 118.971 25.1461 120.114 26.6826V11.1399H128.506V54.8723H120.114V50.0263C119.089 51.6416 117.651 52.9418 115.8 53.9267C113.948 54.9117 111.801 55.4042 109.358 55.4042C106.6 55.4042 104.078 54.695 101.793 53.2767C99.5082 51.8583 97.6959 49.8687 96.3563 47.3078C95.0562 44.7075 94.4061 41.7329 94.4061 38.384ZM120.173 38.5022C120.173 36.4929 119.779 34.779 118.991 33.3607C118.203 31.9029 117.139 30.7998 115.8 30.0512C114.46 29.2632 113.022 28.8692 111.485 28.8692C109.949 28.8692 108.53 29.2435 107.23 29.9921C105.93 30.7407 104.866 31.8438 104.039 33.3016C103.251 34.7199 102.857 36.4141 102.857 38.384C102.857 40.3539 103.251 42.0875 104.039 43.5846C104.866 45.0424 105.93 46.1652 107.23 46.9532C108.57 47.7412 109.988 48.1352 111.485 48.1352C113.022 48.1352 114.46 47.7609 115.8 47.0123C117.139 46.2243 118.203 45.1212 118.991 43.7028C119.779 42.2451 120.173 40.5115 120.173 38.5022ZM195.642 13.622V54.8723H187.368V28.0419L176.317 54.8723H170.052L158.942 28.0419V54.8723H150.668V13.622H160.065L173.184 44.2938L186.304 13.622H195.642ZM234.257 37.793C234.257 38.975 234.178 40.0387 234.021 40.9843H210.086C210.283 43.3482 211.11 45.2 212.568 46.5395C214.026 47.8791 215.819 48.5488 217.946 48.5488C221.019 48.5488 223.206 47.229 224.506 44.5893H233.43C232.484 47.7412 230.672 50.3415 227.993 52.3902C225.314 54.3995 222.024 55.4042 218.123 55.4042C214.971 55.4042 212.135 54.7147 209.613 53.3358C207.131 51.9174 205.181 49.9278 203.763 47.3669C202.384 44.806 201.694 41.8511 201.694 38.5022C201.694 35.1139 202.384 32.1393 203.763 29.5784C205.142 27.0175 207.072 25.0476 209.554 23.6686C212.036 22.2897 214.893 21.6002 218.123 21.6002C221.236 21.6002 224.013 22.27 226.456 23.6095C228.938 24.9491 230.849 26.8599 232.189 29.342C233.568 31.7847 234.257 34.6017 234.257 37.793ZM225.688 35.4291C225.648 33.3016 224.88 31.6075 223.383 30.3467C221.886 29.0465 220.054 28.3965 217.887 28.3965C215.838 28.3965 214.105 29.0268 212.686 30.2876C211.307 31.509 210.46 33.2228 210.145 35.4291H225.688ZM238.169 38.384C238.169 35.0745 238.819 32.1393 240.119 29.5784C241.458 27.0175 243.271 25.0476 245.556 23.6686C247.841 22.2897 250.382 21.6002 253.179 21.6002C255.307 21.6002 257.336 22.073 259.267 23.0186C261.197 23.9247 262.734 25.1461 263.876 26.6826V11.1399H272.268V54.8723H263.876V50.0263C262.852 51.6416 261.414 52.9418 259.562 53.9267C257.71 54.9117 255.563 55.4042 253.12 55.4042C250.362 55.4042 247.841 54.695 245.556 53.2767C243.271 51.8583 241.458 49.8687 240.119 47.3078C238.819 44.7075 238.169 41.7329 238.169 38.384ZM263.935 38.5022C263.935 36.4929 263.541 34.779 262.753 33.3607C261.965 31.9029 260.902 30.7998 259.562 30.0512C258.222 29.2632 256.784 28.8692 255.248 28.8692C253.711 28.8692 252.293 29.2435 250.993 29.9921C249.693 30.7407 248.629 31.8438 247.802 33.3016C247.014 34.7199 246.62 36.4141 246.62 38.384C246.62 40.3539 247.014 42.0875 247.802 43.5846C248.629 45.0424 249.693 46.1652 250.993 46.9532C252.332 47.7412 253.751 48.1352 255.248 48.1352C256.784 48.1352 258.222 47.7609 259.562 47.0123C260.902 46.2243 261.965 45.1212 262.753 43.7028C263.541 42.2451 263.935 40.5115 263.935 38.5022ZM284.545 18.2316C283.087 18.2316 281.866 17.7785 280.881 16.8724C279.935 15.9268 279.462 14.7646 279.462 13.3856C279.462 12.0067 279.935 10.8641 280.881 9.95793C281.866 9.01236 283.087 8.53958 284.545 8.53958C286.002 8.53958 287.204 9.01236 288.15 9.95793C289.135 10.8641 289.627 12.0067 289.627 13.3856C289.627 14.7646 289.135 15.9268 288.15 16.8724C287.204 17.7785 286.002 18.2316 284.545 18.2316ZM288.622 22.1321V54.8723H280.349V22.1321H288.622ZM294.669 38.384C294.669 35.0745 295.319 32.1393 296.62 29.5784C297.959 27.0175 299.752 25.0476 301.998 23.6686C304.283 22.2897 306.824 21.6002 309.621 21.6002C312.064 21.6002 314.191 22.0927 316.004 23.0777C317.855 24.0626 319.333 25.3037 320.436 26.8008V22.1321H328.769V54.8723H320.436V50.0854C319.372 51.6219 317.895 52.9024 316.004 53.9267C314.152 54.9117 312.005 55.4042 309.562 55.4042C306.804 55.4042 304.283 54.695 301.998 53.2767C299.752 51.8583 297.959 49.8687 296.62 47.3078C295.319 44.7075 294.669 41.7329 294.669 38.384ZM320.436 38.5022C320.436 36.4929 320.042 34.779 319.254 33.3607C318.466 31.9029 317.402 30.7998 316.063 30.0512C314.723 29.2632 313.285 28.8692 311.749 28.8692C310.212 28.8692 308.794 29.2435 307.494 29.9921C306.193 30.7407 305.13 31.8438 304.302 33.3016C303.514 34.7199 303.12 36.4141 303.12 38.384C303.12 40.3539 303.514 42.0875 304.302 43.5846C305.13 45.0424 306.193 46.1652 307.494 46.9532C308.833 47.7412 310.252 48.1352 311.749 48.1352C313.285 48.1352 314.723 47.7609 316.063 47.0123C317.402 46.2243 318.466 45.1212 319.254 43.7028C320.042 42.2451 320.436 40.5115 320.436 38.5022Z" fill="#362869"/>
<path d="M3.72317 91.5131H9.13062V93.1531H1.70645V77.7064H3.72317V91.5131ZM10.5188 87.0364C10.5188 85.7954 10.77 84.7095 11.2723 83.7787C11.7747 82.8331 12.4617 82.1018 13.3334 81.5847C14.2198 81.0676 15.2024 80.809 16.2809 80.809C17.3446 80.809 18.2681 81.038 19.0511 81.496C19.8341 81.954 20.4177 82.5302 20.8019 83.2246V81.0085H22.8408V93.1531H20.8019V90.8926C20.403 91.6018 19.8046 92.1927 19.0068 92.6655C18.2237 93.1235 17.3077 93.3525 16.2587 93.3525C15.1802 93.3525 14.2051 93.0866 13.3334 92.5547C12.4617 92.0228 11.7747 91.2767 11.2723 90.3164C10.77 89.356 10.5188 88.2627 10.5188 87.0364ZM20.8019 87.0586C20.8019 86.1426 20.6172 85.3448 20.2478 84.6651C19.8785 83.9855 19.3761 83.4684 18.7408 83.1138C18.1203 82.7445 17.4333 82.5598 16.6798 82.5598C15.9263 82.5598 15.2393 82.7371 14.6188 83.0917C13.9982 83.4462 13.5033 83.9634 13.1339 84.643C12.7646 85.3226 12.5799 86.1204 12.5799 87.0364C12.5799 87.9672 12.7646 88.7798 13.1339 89.4742C13.5033 90.1539 13.9982 90.6784 14.6188 91.0477C15.2393 91.4023 15.9263 91.5796 16.6798 91.5796C17.4333 91.5796 18.1203 91.4023 18.7408 91.0477C19.3761 90.6784 19.8785 90.1539 20.2478 89.4742C20.6172 88.7798 20.8019 87.9746 20.8019 87.0586ZM37.0194 81.0085V93.1531H35.0027V91.358C34.6185 91.9785 34.0793 92.4661 33.3849 92.8207C32.7052 93.1605 31.9518 93.3304 31.1244 93.3304C30.1788 93.3304 29.3293 93.1383 28.5758 92.7542C27.8223 92.3553 27.2239 91.7643 26.7807 90.9812C26.3522 90.1982 26.138 89.2452 26.138 88.1224V81.0085H28.1326V87.8564C28.1326 89.0532 28.4354 89.9766 29.0412 90.6266C29.6469 91.2619 30.4743 91.5796 31.5233 91.5796C32.6018 91.5796 33.4514 91.2472 34.0719 90.5823C34.6924 89.9175 35.0027 88.9497 35.0027 87.6791V81.0085H37.0194ZM46.3417 80.7868C47.8191 80.7868 49.0159 81.2375 49.9319 82.1387C50.8479 83.0252 51.3059 84.3106 51.3059 85.9948V93.1531H49.3114V86.2829C49.3114 85.0714 49.0085 84.148 48.4027 83.5127C47.797 82.8627 46.9696 82.5376 45.9206 82.5376C44.8568 82.5376 44.0073 82.87 43.372 83.5349C42.7515 84.1997 42.4412 85.1675 42.4412 86.4381V93.1531H40.4245V81.0085H42.4412V82.7371C42.8401 82.1165 43.3794 81.6364 44.059 81.2966C44.7534 80.9568 45.5143 80.7868 46.3417 80.7868ZM53.8467 87.0586C53.8467 85.8028 54.0979 84.7095 54.6002 83.7787C55.1025 82.8331 55.7969 82.1018 56.6834 81.5847C57.5846 81.0676 58.6115 80.809 59.7639 80.809C61.2561 80.809 62.4824 81.171 63.4427 81.8949C64.4178 82.6189 65.0605 83.6235 65.3708 84.9089H63.1989C62.9921 84.1702 62.5858 83.5866 61.9801 83.1581C61.3891 82.7297 60.6503 82.5155 59.7639 82.5155C58.6115 82.5155 57.6807 82.9144 56.9715 83.7122C56.2623 84.4952 55.9077 85.6107 55.9077 87.0586C55.9077 88.5213 56.2623 89.6515 56.9715 90.4493C57.6807 91.2472 58.6115 91.6461 59.7639 91.6461C60.6503 91.6461 61.3891 91.4392 61.9801 91.0256C62.571 90.6119 62.9773 90.0209 63.1989 89.2526H65.3708C65.0458 90.4937 64.3957 91.4909 63.4206 92.2444C62.4454 92.9832 61.2266 93.3525 59.7639 93.3525C58.6115 93.3525 57.5846 93.094 56.6834 92.5769C55.7969 92.0598 55.1025 91.3284 54.6002 90.3829C54.0979 89.4373 53.8467 88.3292 53.8467 87.0586ZM74.0897 80.7868C75.0057 80.7868 75.8331 80.9863 76.5718 81.3852C77.3105 81.7693 77.8867 82.3529 78.3004 83.136C78.7289 83.919 78.9431 84.872 78.9431 85.9948V93.1531H76.9485V86.2829C76.9485 85.0714 76.6457 84.148 76.0399 83.5127C75.4342 82.8627 74.6068 82.5376 73.5578 82.5376C72.494 82.5376 71.6445 82.87 71.0092 83.5349C70.3887 84.1997 70.0784 85.1675 70.0784 86.4381V93.1531H68.0617V76.7534H70.0784V82.7371C70.4773 82.1165 71.024 81.6364 71.7184 81.2966C72.4276 80.9568 73.218 80.7868 74.0897 80.7868ZM94.1737 80.7868C95.0898 80.7868 95.9171 80.9863 96.6558 81.3852C97.3946 81.7693 97.9708 82.3529 98.3845 83.136C98.8129 83.919 99.0271 84.872 99.0271 85.9948V93.1531H97.0326V86.2829C97.0326 85.0714 96.7297 84.148 96.124 83.5127C95.5182 82.8627 94.6908 82.5376 93.6419 82.5376C92.5781 82.5376 91.7286 82.87 91.0933 83.5349C90.4727 84.1997 90.1625 85.1675 90.1625 86.4381V93.1531H88.1458V76.7534H90.1625V82.7371C90.5614 82.1165 91.108 81.6364 91.8024 81.2966C92.5116 80.9568 93.302 80.7868 94.1737 80.7868ZM103.363 79.0361C102.979 79.0361 102.654 78.9031 102.388 78.6372C102.122 78.3712 101.989 78.0462 101.989 77.662C101.989 77.2779 102.122 76.9529 102.388 76.6869C102.654 76.421 102.979 76.288 103.363 76.288C103.732 76.288 104.043 76.421 104.294 76.6869C104.56 76.9529 104.693 77.2779 104.693 77.662C104.693 78.0462 104.56 78.3712 104.294 78.6372C104.043 78.9031 103.732 79.0361 103.363 79.0361ZM104.338 81.0085V93.1531H102.321V81.0085H104.338ZM112.784 80.809C113.833 80.809 114.749 81.038 115.532 81.496C116.33 81.954 116.921 82.5302 117.305 83.2246V81.0085H119.344V93.419C119.344 94.5271 119.107 95.5096 118.635 96.3665C118.162 97.2382 117.482 97.9178 116.596 98.4054C115.724 98.893 114.705 99.1367 113.537 99.1367C111.942 99.1367 110.612 98.76 109.548 98.0065C108.484 97.253 107.857 96.2262 107.664 94.926H109.659C109.881 95.6647 110.339 96.2557 111.033 96.6989C111.727 97.157 112.562 97.386 113.537 97.386C114.645 97.386 115.547 97.0388 116.241 96.3444C116.95 95.65 117.305 94.6748 117.305 93.419V90.8704C116.906 91.5796 116.315 92.1706 115.532 92.6434C114.749 93.1161 113.833 93.3525 112.784 93.3525C111.705 93.3525 110.723 93.0866 109.836 92.5547C108.965 92.0228 108.278 91.2767 107.775 90.3164C107.273 89.356 107.022 88.2627 107.022 87.0364C107.022 85.7954 107.273 84.7095 107.775 83.7787C108.278 82.8331 108.965 82.1018 109.836 81.5847C110.723 81.0676 111.705 80.809 112.784 80.809ZM117.305 87.0586C117.305 86.1426 117.12 85.3448 116.751 84.6651C116.381 83.9855 115.879 83.4684 115.244 83.1138C114.623 82.7445 113.936 82.5598 113.183 82.5598C112.429 82.5598 111.742 82.7371 111.122 83.0917C110.501 83.4462 110.006 83.9634 109.637 84.643C109.268 85.3226 109.083 86.1204 109.083 87.0364C109.083 87.9672 109.268 88.7798 109.637 89.4742C110.006 90.1539 110.501 90.6784 111.122 91.0477C111.742 91.4023 112.429 91.5796 113.183 91.5796C113.936 91.5796 114.623 91.4023 115.244 91.0477C115.879 90.6784 116.381 90.1539 116.751 89.4742C117.12 88.7798 117.305 87.9746 117.305 87.0586ZM128.78 80.7868C129.696 80.7868 130.523 80.9863 131.262 81.3852C132.001 81.7693 132.577 82.3529 132.99 83.136C133.419 83.919 133.633 84.872 133.633 85.9948V93.1531H131.639V86.2829C131.639 85.0714 131.336 84.148 130.73 83.5127C130.124 82.8627 129.297 82.5376 128.248 82.5376C127.184 82.5376 126.335 82.87 125.699 83.5349C125.079 84.1997 124.768 85.1675 124.768 86.4381V93.1531H122.752V76.7534H124.768V82.7371C125.167 82.1165 125.714 81.6364 126.408 81.2966C127.118 80.9568 127.908 80.7868 128.78 80.7868ZM145.349 84.1776V85.884H136.506V84.1776H145.349ZM153.655 91.2915L157.422 81.0085H159.572L154.807 93.1531H152.458L147.693 81.0085H149.865L153.655 91.2915ZM166.853 93.3525C165.715 93.3525 164.681 93.094 163.75 92.5769C162.834 92.0598 162.11 91.3284 161.579 90.3829C161.061 89.4225 160.803 88.3144 160.803 87.0586C160.803 85.8176 161.069 84.7242 161.601 83.7787C162.147 82.8183 162.886 82.087 163.817 81.5847C164.748 81.0676 165.789 80.809 166.942 80.809C168.094 80.809 169.136 81.0676 170.066 81.5847C170.997 82.087 171.729 82.8109 172.26 83.7565C172.807 84.7021 173.08 85.8028 173.08 87.0586C173.08 88.3144 172.8 89.4225 172.238 90.3829C171.692 91.3284 170.946 92.0598 170 92.5769C169.054 93.094 168.005 93.3525 166.853 93.3525ZM166.853 91.5796C167.577 91.5796 168.257 91.4097 168.892 91.0699C169.527 90.7301 170.037 90.2203 170.421 89.5407C170.82 88.8611 171.019 88.0337 171.019 87.0586C171.019 86.0835 170.827 85.2561 170.443 84.5765C170.059 83.8969 169.557 83.3945 168.936 83.0695C168.316 82.7297 167.643 82.5598 166.92 82.5598C166.181 82.5598 165.501 82.7297 164.881 83.0695C164.275 83.3945 163.787 83.8969 163.418 84.5765C163.049 85.2561 162.864 86.0835 162.864 87.0586C162.864 88.0485 163.041 88.8833 163.396 89.5629C163.765 90.2425 164.253 90.7522 164.858 91.092C165.464 91.4171 166.129 91.5796 166.853 91.5796ZM177.749 76.7534V93.1531H175.732V76.7534H177.749ZM183.646 82.6706V89.8288C183.646 90.4198 183.771 90.8409 184.023 91.092C184.274 91.3284 184.71 91.4466 185.33 91.4466H186.815V93.1531H184.998C183.875 93.1531 183.033 92.8945 182.471 92.3774C181.91 91.8603 181.629 91.0108 181.629 89.8288V82.6706H180.056V81.0085H181.629V77.9501H183.646V81.0085H186.815V82.6706H183.646ZM188.505 87.0364C188.505 85.7954 188.756 84.7095 189.259 83.7787C189.761 82.8331 190.448 82.1018 191.32 81.5847C192.206 81.0676 193.189 80.809 194.267 80.809C195.331 80.809 196.254 81.038 197.037 81.496C197.82 81.954 198.404 82.5302 198.788 83.2246V81.0085H200.827V93.1531H198.788V90.8926C198.389 91.6018 197.791 92.1927 196.993 92.6655C196.21 93.1235 195.294 93.3525 194.245 93.3525C193.166 93.3525 192.191 93.0866 191.32 92.5547C190.448 92.0228 189.761 91.2767 189.259 90.3164C188.756 89.356 188.505 88.2627 188.505 87.0364ZM198.788 87.0586C198.788 86.1426 198.603 85.3448 198.234 84.6651C197.865 83.9855 197.362 83.4684 196.727 83.1138C196.106 82.7445 195.419 82.5598 194.666 82.5598C193.912 82.5598 193.225 82.7371 192.605 83.0917C191.984 83.4462 191.489 83.9634 191.12 84.643C190.751 85.3226 190.566 86.1204 190.566 87.0364C190.566 87.9672 190.751 88.7798 191.12 89.4742C191.489 90.1539 191.984 90.6784 192.605 91.0477C193.225 91.4023 193.912 91.5796 194.666 91.5796C195.419 91.5796 196.106 91.4023 196.727 91.0477C197.362 90.6784 197.865 90.1539 198.234 89.4742C198.603 88.7798 198.788 87.9746 198.788 87.0586ZM209.244 80.809C210.293 80.809 211.209 81.038 211.992 81.496C212.789 81.954 213.38 82.5302 213.765 83.2246V81.0085H215.803V93.419C215.803 94.5271 215.567 95.5096 215.094 96.3665C214.621 97.2382 213.942 97.9178 213.055 98.4054C212.184 98.893 211.164 99.1367 209.997 99.1367C208.401 99.1367 207.072 98.76 206.008 98.0065C204.944 97.253 204.316 96.2262 204.124 94.926H206.119C206.34 95.6647 206.798 96.2557 207.493 96.6989C208.187 97.157 209.022 97.386 209.997 97.386C211.105 97.386 212.006 97.0388 212.701 96.3444C213.41 95.65 213.765 94.6748 213.765 93.419V90.8704C213.366 91.5796 212.775 92.1706 211.992 92.6434C211.209 93.1161 210.293 93.3525 209.244 93.3525C208.165 93.3525 207.182 93.0866 206.296 92.5547C205.424 92.0228 204.737 91.2767 204.235 90.3164C203.733 89.356 203.481 88.2627 203.481 87.0364C203.481 85.7954 203.733 84.7095 204.235 83.7787C204.737 82.8331 205.424 82.1018 206.296 81.5847C207.182 81.0676 208.165 80.809 209.244 80.809ZM213.765 87.0586C213.765 86.1426 213.58 85.3448 213.21 84.6651C212.841 83.9855 212.339 83.4684 211.703 83.1138C211.083 82.7445 210.396 82.5598 209.642 82.5598C208.889 82.5598 208.202 82.7371 207.581 83.0917C206.961 83.4462 206.466 83.9634 206.097 84.643C205.727 85.3226 205.543 86.1204 205.543 87.0364C205.543 87.9672 205.727 88.7798 206.097 89.4742C206.466 90.1539 206.961 90.6784 207.581 91.0477C208.202 91.4023 208.889 91.5796 209.642 91.5796C210.396 91.5796 211.083 91.4023 211.703 91.0477C212.339 90.6784 212.841 90.1539 213.21 89.4742C213.58 88.7798 213.765 87.9746 213.765 87.0586ZM230.292 86.6154C230.292 86.9995 230.27 87.4058 230.226 87.8343H220.519C220.593 89.031 220.999 89.9692 221.738 90.6488C222.491 91.3137 223.4 91.6461 224.464 91.6461C225.335 91.6461 226.059 91.4466 226.636 91.0477C227.227 90.634 227.64 90.0874 227.877 89.4077H230.049C229.723 90.5749 229.073 91.5279 228.098 92.2666C227.123 92.9906 225.912 93.3525 224.464 93.3525C223.311 93.3525 222.277 93.094 221.361 92.5769C220.46 92.0598 219.751 91.3284 219.234 90.3829C218.717 89.4225 218.458 88.3144 218.458 87.0586C218.458 85.8028 218.709 84.7021 219.211 83.7565C219.714 82.8109 220.416 82.087 221.317 81.5847C222.233 81.0676 223.282 80.809 224.464 80.809C225.616 80.809 226.636 81.0602 227.522 81.5625C228.409 82.0648 229.088 82.7592 229.561 83.6457C230.049 84.5174 230.292 85.5073 230.292 86.6154ZM228.209 86.1943C228.209 85.426 228.039 84.7686 227.699 84.2219C227.36 83.6605 226.894 83.2394 226.303 82.9587C225.727 82.6632 225.084 82.5155 224.375 82.5155C223.356 82.5155 222.484 82.8405 221.76 83.4906C221.051 84.1406 220.645 85.0419 220.541 86.1943H228.209ZM238.109 87.0364C238.109 85.7954 238.36 84.7095 238.863 83.7787C239.365 82.8331 240.052 82.1018 240.924 81.5847C241.81 81.0676 242.793 80.809 243.871 80.809C244.935 80.809 245.858 81.038 246.641 81.496C247.424 81.954 248.008 82.5302 248.392 83.2246V81.0085H250.431V93.1531H248.392V90.8926C247.993 91.6018 247.395 92.1927 246.597 92.6655C245.814 93.1235 244.898 93.3525 243.849 93.3525C242.77 93.3525 241.795 93.0866 240.924 92.5547C240.052 92.0228 239.365 91.2767 238.863 90.3164C238.36 89.356 238.109 88.2627 238.109 87.0364ZM248.392 87.0586C248.392 86.1426 248.207 85.3448 247.838 84.6651C247.469 83.9855 246.966 83.4684 246.331 83.1138C245.711 82.7445 245.024 82.5598 244.27 82.5598C243.517 82.5598 242.83 82.7371 242.209 83.0917C241.589 83.4462 241.094 83.9634 240.724 84.643C240.355 85.3226 240.17 86.1204 240.17 87.0364C240.17 87.9672 240.355 88.7798 240.724 89.4742C241.094 90.1539 241.589 90.6784 242.209 91.0477C242.83 91.4023 243.517 91.5796 244.27 91.5796C245.024 91.5796 245.711 91.4023 246.331 91.0477C246.966 90.6784 247.469 90.1539 247.838 89.4742C248.207 88.7798 248.392 87.9746 248.392 87.0586ZM253.086 87.0364C253.086 85.7954 253.337 84.7095 253.839 83.7787C254.341 82.8331 255.028 82.1018 255.9 81.5847C256.787 81.0676 257.777 80.809 258.87 80.809C259.815 80.809 260.694 81.0306 261.507 81.4739C262.32 81.9023 262.94 82.4711 263.369 83.1803V76.7534H265.408V93.1531H263.369V90.8704C262.97 91.5944 262.379 92.1927 261.596 92.6655C260.813 93.1235 259.897 93.3525 258.848 93.3525C257.769 93.3525 256.787 93.0866 255.9 92.5547C255.028 92.0228 254.341 91.2767 253.839 90.3164C253.337 89.356 253.086 88.2627 253.086 87.0364ZM263.369 87.0586C263.369 86.1426 263.184 85.3448 262.815 84.6651C262.445 83.9855 261.943 83.4684 261.308 83.1138C260.687 82.7445 260 82.5598 259.247 82.5598C258.493 82.5598 257.806 82.7371 257.186 83.0917C256.565 83.4462 256.07 83.9634 255.701 84.643C255.331 85.3226 255.147 86.1204 255.147 87.0364C255.147 87.9672 255.331 88.7798 255.701 89.4742C256.07 90.1539 256.565 90.6784 257.186 91.0477C257.806 91.4023 258.493 91.5796 259.247 91.5796C260 91.5796 260.687 91.4023 261.308 91.0477C261.943 90.6784 262.445 90.1539 262.815 89.4742C263.184 88.7798 263.369 87.9746 263.369 87.0586ZM273.97 87.0586C273.97 85.8028 274.222 84.7095 274.724 83.7787C275.226 82.8331 275.921 82.1018 276.807 81.5847C277.708 81.0676 278.735 80.809 279.888 80.809C281.38 80.809 282.606 81.171 283.566 81.8949C284.542 82.6189 285.184 83.6235 285.494 84.9089H283.323C283.116 84.1702 282.71 83.5866 282.104 83.1581C281.513 82.7297 280.774 82.5155 279.888 82.5155C278.735 82.5155 277.804 82.9144 277.095 83.7122C276.386 84.4952 276.031 85.6107 276.031 87.0586C276.031 88.5213 276.386 89.6515 277.095 90.4493C277.804 91.2472 278.735 91.6461 279.888 91.6461C280.774 91.6461 281.513 91.4392 282.104 91.0256C282.695 90.6119 283.101 90.0209 283.323 89.2526H285.494C285.169 90.4937 284.519 91.4909 283.544 92.2444C282.569 92.9832 281.35 93.3525 279.888 93.3525C278.735 93.3525 277.708 93.094 276.807 92.5769C275.921 92.0598 275.226 91.3284 274.724 90.3829C274.222 89.4373 273.97 88.3292 273.97 87.0586ZM287.432 87.0364C287.432 85.7954 287.683 84.7095 288.185 83.7787C288.688 82.8331 289.375 82.1018 290.246 81.5847C291.133 81.0676 292.115 80.809 293.194 80.809C294.258 80.809 295.181 81.038 295.964 81.496C296.747 81.954 297.331 82.5302 297.715 83.2246V81.0085H299.754V93.1531H297.715V90.8926C297.316 91.6018 296.718 92.1927 295.92 92.6655C295.137 93.1235 294.221 93.3525 293.172 93.3525C292.093 93.3525 291.118 93.0866 290.246 92.5547C289.375 92.0228 288.688 91.2767 288.185 90.3164C287.683 89.356 287.432 88.2627 287.432 87.0364ZM297.715 87.0586C297.715 86.1426 297.53 85.3448 297.161 84.6651C296.792 83.9855 296.289 83.4684 295.654 83.1138C295.033 82.7445 294.346 82.5598 293.593 82.5598C292.839 82.5598 292.152 82.7371 291.532 83.0917C290.911 83.4462 290.416 83.9634 290.047 84.643C289.678 85.3226 289.493 86.1204 289.493 87.0364C289.493 87.9672 289.678 88.7798 290.047 89.4742C290.416 90.1539 290.911 90.6784 291.532 91.0477C292.152 91.4023 292.839 91.5796 293.593 91.5796C294.346 91.5796 295.033 91.4023 295.654 91.0477C296.289 90.6784 296.792 90.1539 297.161 89.4742C297.53 88.7798 297.715 87.9746 297.715 87.0586ZM317.766 80.7868C318.712 80.7868 319.554 80.9863 320.293 81.3852C321.032 81.7693 321.615 82.3529 322.044 83.136C322.472 83.919 322.686 84.872 322.686 85.9948V93.1531H320.692V86.2829C320.692 85.0714 320.389 84.148 319.783 83.5127C319.192 82.8627 318.387 82.5376 317.368 82.5376C316.319 82.5376 315.484 82.8774 314.863 83.5571C314.243 84.2219 313.932 85.1896 313.932 86.4602V93.1531H311.938V86.2829C311.938 85.0714 311.635 84.148 311.029 83.5127C310.438 82.8627 309.633 82.5376 308.614 82.5376C307.565 82.5376 306.73 82.8774 306.109 83.5571C305.489 84.2219 305.179 85.1896 305.179 86.4602V93.1531H303.162V81.0085H305.179V82.7592C305.578 82.1239 306.109 81.6364 306.774 81.2966C307.454 80.9568 308.2 80.7868 309.013 80.7868C310.032 80.7868 310.933 81.0158 311.716 81.4739C312.499 81.9319 313.083 82.6041 313.467 83.4906C313.807 82.6337 314.368 81.9688 315.151 81.496C315.934 81.0232 316.806 80.7868 317.766 80.7868ZM328.011 83.2468C328.41 82.5524 329.001 81.9762 329.784 81.5182C330.582 81.0454 331.505 80.809 332.554 80.809C333.633 80.809 334.608 81.0676 335.48 81.5847C336.366 82.1018 337.061 82.8331 337.563 83.7787C338.065 84.7095 338.316 85.7954 338.316 87.0364C338.316 88.2627 338.065 89.356 337.563 90.3164C337.061 91.2767 336.366 92.0228 335.48 92.5547C334.608 93.0866 333.633 93.3525 332.554 93.3525C331.52 93.3525 330.604 93.1235 329.806 92.6655C329.023 92.1927 328.425 91.6091 328.011 90.9147V98.9151H325.995V81.0085H328.011V83.2468ZM336.255 87.0364C336.255 86.1204 336.071 85.3226 335.701 84.643C335.332 83.9634 334.83 83.4462 334.194 83.0917C333.574 82.7371 332.887 82.5598 332.133 82.5598C331.395 82.5598 330.708 82.7445 330.072 83.1138C329.452 83.4684 328.949 83.9929 328.565 84.6873C328.196 85.3669 328.011 86.1574 328.011 87.0586C328.011 87.9746 328.196 88.7798 328.565 89.4742C328.949 90.1539 329.452 90.6784 330.072 91.0477C330.708 91.4023 331.395 91.5796 332.133 91.5796C332.887 91.5796 333.574 91.4023 334.194 91.0477C334.83 90.6784 335.332 90.1539 335.701 89.4742C336.071 88.7798 336.255 87.9672 336.255 87.0364ZM340.217 87.0364C340.217 85.7954 340.469 84.7095 340.971 83.7787C341.473 82.8331 342.16 82.1018 343.032 81.5847C343.918 81.0676 344.901 80.809 345.98 80.809C347.043 80.809 347.967 81.038 348.75 81.496C349.533 81.954 350.116 82.5302 350.501 83.2246V81.0085H352.539V93.1531H350.501V90.8926C350.102 91.6018 349.503 92.1927 348.705 92.6655C347.922 93.1235 347.006 93.3525 345.957 93.3525C344.879 93.3525 343.904 93.0866 343.032 92.5547C342.16 92.0228 341.473 91.2767 340.971 90.3164C340.469 89.356 340.217 88.2627 340.217 87.0364ZM350.501 87.0586C350.501 86.1426 350.316 85.3448 349.946 84.6651C349.577 83.9855 349.075 83.4684 348.439 83.1138C347.819 82.7445 347.132 82.5598 346.378 82.5598C345.625 82.5598 344.938 82.7371 344.317 83.0917C343.697 83.4462 343.202 83.9634 342.833 84.643C342.463 85.3226 342.279 86.1204 342.279 87.0364C342.279 87.9672 342.463 88.7798 342.833 89.4742C343.202 90.1539 343.697 90.6784 344.317 91.0477C344.938 91.4023 345.625 91.5796 346.378 91.5796C347.132 91.5796 347.819 91.4023 348.439 91.0477C349.075 90.6784 349.577 90.1539 349.946 89.4742C350.316 88.7798 350.501 87.9746 350.501 87.0586ZM356.989 79.0361C356.605 79.0361 356.28 78.9031 356.014 78.6372C355.748 78.3712 355.615 78.0462 355.615 77.662C355.615 77.2779 355.748 76.9529 356.014 76.6869C356.28 76.421 356.605 76.288 356.989 76.288C357.358 76.288 357.669 76.421 357.92 76.6869C358.186 76.9529 358.319 77.2779 358.319 77.662C358.319 78.0462 358.186 78.3712 357.92 78.6372C357.669 78.9031 357.358 79.0361 356.989 79.0361ZM357.964 81.0085V93.1531H355.947V81.0085H357.964ZM366.41 80.809C367.459 80.809 368.375 81.038 369.158 81.496C369.956 81.954 370.547 82.5302 370.931 83.2246V81.0085H372.97V93.419C372.97 94.5271 372.733 95.5096 372.261 96.3665C371.788 97.2382 371.108 97.9178 370.222 98.4054C369.35 98.893 368.331 99.1367 367.163 99.1367C365.568 99.1367 364.238 98.76 363.174 98.0065C362.11 97.253 361.483 96.2262 361.29 94.926H363.285C363.507 95.6647 363.965 96.2557 364.659 96.6989C365.353 97.157 366.188 97.386 367.163 97.386C368.271 97.386 369.173 97.0388 369.867 96.3444C370.576 95.65 370.931 94.6748 370.931 93.419V90.8704C370.532 91.5796 369.941 92.1706 369.158 92.6434C368.375 93.1161 367.459 93.3525 366.41 93.3525C365.331 93.3525 364.349 93.0866 363.462 92.5547C362.591 92.0228 361.904 91.2767 361.401 90.3164C360.899 89.356 360.648 88.2627 360.648 87.0364C360.648 85.7954 360.899 84.7095 361.401 83.7787C361.904 82.8331 362.591 82.1018 363.462 81.5847C364.349 81.0676 365.331 80.809 366.41 80.809ZM370.931 87.0586C370.931 86.1426 370.746 85.3448 370.377 84.6651C370.007 83.9855 369.505 83.4684 368.87 83.1138C368.249 82.7445 367.562 82.5598 366.809 82.5598C366.055 82.5598 365.368 82.7371 364.748 83.0917C364.127 83.4462 363.632 83.9634 363.263 84.643C362.893 85.3226 362.709 86.1204 362.709 87.0364C362.709 87.9672 362.893 88.7798 363.263 89.4742C363.632 90.1539 364.127 90.6784 364.748 91.0477C365.368 91.4023 366.055 91.5796 366.809 91.5796C367.562 91.5796 368.249 91.4023 368.87 91.0477C369.505 90.6784 370.007 90.1539 370.377 89.4742C370.746 88.7798 370.931 87.9746 370.931 87.0586ZM382.295 80.7868C383.772 80.7868 384.969 81.2375 385.885 82.1387C386.801 83.0252 387.259 84.3106 387.259 85.9948V93.1531H385.265V86.2829C385.265 85.0714 384.962 84.148 384.356 83.5127C383.75 82.8627 382.923 82.5376 381.874 82.5376C380.81 82.5376 379.961 82.87 379.325 83.5349C378.705 84.1997 378.394 85.1675 378.394 86.4381V93.1531H376.378V81.0085H378.394V82.7371C378.793 82.1165 379.333 81.6364 380.012 81.2966C380.707 80.9568 381.468 80.7868 382.295 80.7868ZM394.853 93.3525C393.922 93.3525 393.087 93.1974 392.349 92.8871C391.61 92.5621 391.026 92.1189 390.598 91.5574C390.169 90.9812 389.933 90.3238 389.889 89.585H391.972C392.031 90.1908 392.312 90.6857 392.814 91.0699C393.331 91.454 394.003 91.6461 394.831 91.6461C395.599 91.6461 396.205 91.4762 396.648 91.1364C397.091 90.7965 397.313 90.3681 397.313 89.851C397.313 89.3191 397.076 88.9276 396.604 88.6764C396.131 88.4105 395.399 88.1519 394.41 87.9008C393.508 87.6644 392.77 87.428 392.193 87.1916C391.632 86.9404 391.144 86.5784 390.731 86.1057C390.332 85.6181 390.132 84.9828 390.132 84.1997C390.132 83.5792 390.317 83.0104 390.686 82.4933C391.056 81.9762 391.58 81.5699 392.26 81.2744C392.94 80.9641 393.715 80.809 394.587 80.809C395.931 80.809 397.017 81.1488 397.845 81.8284C398.672 82.5081 399.115 83.4389 399.174 84.6208H397.158C397.113 83.9855 396.855 83.4758 396.382 83.0917C395.924 82.7075 395.303 82.5155 394.52 82.5155C393.796 82.5155 393.22 82.6706 392.792 82.9809C392.363 83.2911 392.149 83.6974 392.149 84.1997C392.149 84.5987 392.275 84.9311 392.526 85.197C392.792 85.4482 393.117 85.655 393.501 85.8176C393.9 85.9653 394.447 86.1352 395.141 86.3273C396.013 86.5637 396.722 86.8001 397.268 87.0364C397.815 87.2581 398.28 87.5979 398.665 88.0559C399.064 88.5139 399.27 89.1123 399.285 89.851C399.285 90.5158 399.1 91.1142 398.731 91.6461C398.362 92.178 397.837 92.599 397.158 92.9093C396.493 93.2048 395.725 93.3525 394.853 93.3525ZM407.287 87.0364C407.287 85.7954 407.538 84.7095 408.04 83.7787C408.543 82.8331 409.23 82.1018 410.101 81.5847C410.988 81.0676 411.97 80.809 413.049 80.809C414.113 80.809 415.036 81.038 415.819 81.496C416.602 81.954 417.186 82.5302 417.57 83.2246V81.0085H419.609V93.1531H417.57V90.8926C417.171 91.6018 416.573 92.1927 415.775 92.6655C414.992 93.1235 414.076 93.3525 413.027 93.3525C411.948 93.3525 410.973 93.0866 410.101 92.5547C409.23 92.0228 408.543 91.2767 408.04 90.3164C407.538 89.356 407.287 88.2627 407.287 87.0364ZM417.57 87.0586C417.57 86.1426 417.385 85.3448 417.016 84.6651C416.647 83.9855 416.144 83.4684 415.509 83.1138C414.888 82.7445 414.201 82.5598 413.448 82.5598C412.694 82.5598 412.007 82.7371 411.387 83.0917C410.766 83.4462 410.271 83.9634 409.902 84.643C409.533 85.3226 409.348 86.1204 409.348 87.0364C409.348 87.9672 409.533 88.7798 409.902 89.4742C410.271 90.1539 410.766 90.6784 411.387 91.0477C412.007 91.4023 412.694 91.5796 413.448 91.5796C414.201 91.5796 414.888 91.4023 415.509 91.0477C416.144 90.6784 416.647 90.1539 417.016 89.4742C417.385 88.7798 417.57 87.9746 417.57 87.0586ZM422.263 87.0586C422.263 85.8028 422.515 84.7095 423.017 83.7787C423.519 82.8331 424.214 82.1018 425.1 81.5847C426.001 81.0676 427.028 80.809 428.181 80.809C429.673 80.809 430.899 81.171 431.859 81.8949C432.835 82.6189 433.477 83.6235 433.787 84.9089H431.616C431.409 84.1702 431.002 83.5866 430.397 83.1581C429.806 82.7297 429.067 82.5155 428.181 82.5155C427.028 82.5155 426.097 82.9144 425.388 83.7122C424.679 84.4952 424.324 85.6107 424.324 87.0586C424.324 88.5213 424.679 89.6515 425.388 90.4493C426.097 91.2472 427.028 91.6461 428.181 91.6461C429.067 91.6461 429.806 91.4392 430.397 91.0256C430.988 90.6119 431.394 90.0209 431.616 89.2526H433.787C433.462 90.4937 432.812 91.4909 431.837 92.2444C430.862 92.9832 429.643 93.3525 428.181 93.3525C427.028 93.3525 426.001 93.094 425.1 92.5769C424.214 92.0598 423.519 91.3284 423.017 90.3829C422.515 89.4373 422.263 88.3292 422.263 87.0586ZM438.495 82.9809C438.85 82.2865 439.352 81.7472 440.002 81.3631C440.667 80.9789 441.472 80.7868 442.418 80.7868V82.87H441.886C439.625 82.87 438.495 84.0963 438.495 86.5489V93.1531H436.478V81.0085H438.495V82.9809ZM450.042 93.3525C448.905 93.3525 447.871 93.094 446.94 92.5769C446.024 92.0598 445.3 91.3284 444.768 90.3829C444.251 89.4225 443.992 88.3144 443.992 87.0586C443.992 85.8176 444.258 84.7242 444.79 83.7787C445.337 82.8183 446.075 82.087 447.006 81.5847C447.937 81.0676 448.979 80.809 450.131 80.809C451.283 80.809 452.325 81.0676 453.256 81.5847C454.187 82.087 454.918 82.8109 455.45 83.7565C455.996 84.7021 456.27 85.8028 456.27 87.0586C456.27 88.3144 455.989 89.4225 455.428 90.3829C454.881 91.3284 454.135 92.0598 453.189 92.5769C452.244 93.094 451.195 93.3525 450.042 93.3525ZM450.042 91.5796C450.766 91.5796 451.446 91.4097 452.081 91.0699C452.717 90.7301 453.226 90.2203 453.61 89.5407C454.009 88.8611 454.209 88.0337 454.209 87.0586C454.209 86.0835 454.017 85.2561 453.633 84.5765C453.248 83.8969 452.746 83.3945 452.126 83.0695C451.505 82.7297 450.833 82.5598 450.109 82.5598C449.37 82.5598 448.691 82.7297 448.07 83.0695C447.464 83.3945 446.977 83.8969 446.607 84.5765C446.238 85.2561 446.053 86.0835 446.053 87.0586C446.053 88.0485 446.231 88.8833 446.585 89.5629C446.955 90.2425 447.442 90.7522 448.048 91.092C448.654 91.4171 449.318 91.5796 450.042 91.5796ZM463.221 93.3525C462.29 93.3525 461.455 93.1974 460.717 92.8871C459.978 92.5621 459.394 92.1189 458.966 91.5574C458.537 90.9812 458.301 90.3238 458.257 89.585H460.34C460.399 90.1908 460.68 90.6857 461.182 91.0699C461.699 91.454 462.371 91.6461 463.199 91.6461C463.967 91.6461 464.573 91.4762 465.016 91.1364C465.459 90.7965 465.681 90.3681 465.681 89.851C465.681 89.3191 465.444 88.9276 464.972 88.6764C464.499 88.4105 463.767 88.1519 462.778 87.9008C461.876 87.6644 461.138 87.428 460.561 87.1916C460 86.9404 459.512 86.5784 459.099 86.1057C458.7 85.6181 458.5 84.9828 458.5 84.1997C458.5 83.5792 458.685 83.0104 459.054 82.4933C459.424 81.9762 459.948 81.5699 460.628 81.2744C461.308 80.9641 462.083 80.809 462.955 80.809C464.299 80.809 465.385 81.1488 466.213 81.8284C467.04 82.5081 467.483 83.4389 467.542 84.6208H465.526C465.481 83.9855 465.223 83.4758 464.75 83.0917C464.292 82.7075 463.671 82.5155 462.888 82.5155C462.164 82.5155 461.588 82.6706 461.16 82.9809C460.731 83.2911 460.517 83.6974 460.517 84.1997C460.517 84.5987 460.643 84.9311 460.894 85.197C461.16 85.4482 461.485 85.655 461.869 85.8176C462.268 85.9653 462.815 86.1352 463.509 86.3273C464.381 86.5637 465.09 86.8001 465.636 87.0364C466.183 87.2581 466.648 87.5979 467.033 88.0559C467.432 88.5139 467.638 89.1123 467.653 89.851C467.653 90.5158 467.468 91.1142 467.099 91.6461C466.73 92.178 466.205 92.599 465.526 92.9093C464.861 93.2048 464.093 93.3525 463.221 93.3525ZM474.799 93.3525C473.869 93.3525 473.034 93.1974 472.295 92.8871C471.556 92.5621 470.973 92.1189 470.544 91.5574C470.116 90.9812 469.88 90.3238 469.835 89.585H471.918C471.978 90.1908 472.258 90.6857 472.761 91.0699C473.278 91.454 473.95 91.6461 474.777 91.6461C475.546 91.6461 476.151 91.4762 476.595 91.1364C477.038 90.7965 477.259 90.3681 477.259 89.851C477.259 89.3191 477.023 88.9276 476.55 88.6764C476.077 88.4105 475.346 88.1519 474.356 87.9008C473.455 87.6644 472.716 87.428 472.14 87.1916C471.579 86.9404 471.091 86.5784 470.677 86.1057C470.278 85.6181 470.079 84.9828 470.079 84.1997C470.079 83.5792 470.264 83.0104 470.633 82.4933C471.002 81.9762 471.527 81.5699 472.207 81.2744C472.886 80.9641 473.662 80.809 474.533 80.809C475.878 80.809 476.964 81.1488 477.791 81.8284C478.619 82.5081 479.062 83.4389 479.121 84.6208H477.104C477.06 83.9855 476.801 83.4758 476.329 83.0917C475.871 82.7075 475.25 82.5155 474.467 82.5155C473.743 82.5155 473.167 82.6706 472.738 82.9809C472.31 83.2911 472.096 83.6974 472.096 84.1997C472.096 84.5987 472.221 84.9311 472.472 85.197C472.738 85.4482 473.063 85.655 473.448 85.8176C473.846 85.9653 474.393 86.1352 475.088 86.3273C475.959 86.5637 476.668 86.8001 477.215 87.0364C477.762 87.2581 478.227 87.5979 478.611 88.0559C479.01 88.5139 479.217 89.1123 479.232 89.851C479.232 90.5158 479.047 91.1142 478.678 91.6461C478.308 92.178 477.784 92.599 477.104 92.9093C476.439 93.2048 475.671 93.3525 474.799 93.3525ZM490.447 82.6706V89.8288C490.447 90.4198 490.573 90.8409 490.824 91.092C491.075 91.3284 491.511 91.4466 492.131 91.4466H493.616V93.1531H491.799C490.676 93.1531 489.834 92.8945 489.272 92.3774C488.711 91.8603 488.43 91.0108 488.43 89.8288V82.6706H486.857V81.0085H488.43V77.9501H490.447V81.0085H493.616V82.6706H490.447ZM501.356 93.3525C500.219 93.3525 499.184 93.094 498.254 92.5769C497.338 92.0598 496.614 91.3284 496.082 90.3829C495.565 89.4225 495.306 88.3144 495.306 87.0586C495.306 85.8176 495.572 84.7242 496.104 83.7787C496.651 82.8183 497.389 82.087 498.32 81.5847C499.251 81.0676 500.292 80.809 501.445 80.809C502.597 80.809 503.639 81.0676 504.57 81.5847C505.5 82.087 506.232 82.8109 506.764 83.7565C507.31 84.7021 507.584 85.8028 507.584 87.0586C507.584 88.3144 507.303 89.4225 506.742 90.3829C506.195 91.3284 505.449 92.0598 504.503 92.5769C503.558 93.094 502.509 93.3525 501.356 93.3525ZM501.356 91.5796C502.08 91.5796 502.76 91.4097 503.395 91.0699C504.03 90.7301 504.54 90.2203 504.924 89.5407C505.323 88.8611 505.523 88.0337 505.523 87.0586C505.523 86.0835 505.331 85.2561 504.946 84.5765C504.562 83.8969 504.06 83.3945 503.439 83.0695C502.819 82.7297 502.147 82.5598 501.423 82.5598C500.684 82.5598 500.004 82.7297 499.384 83.0695C498.778 83.3945 498.291 83.8969 497.921 84.5765C497.552 85.2561 497.367 86.0835 497.367 87.0586C497.367 88.0485 497.544 88.8833 497.899 89.5629C498.268 90.2425 498.756 90.7522 499.362 91.092C499.967 91.4171 500.632 91.5796 501.356 91.5796ZM512.252 83.2468C512.651 82.5524 513.242 81.9762 514.025 81.5182C514.823 81.0454 515.746 80.809 516.795 80.809C517.874 80.809 518.849 81.0676 519.72 81.5847C520.607 82.1018 521.301 82.8331 521.804 83.7787C522.306 84.7095 522.557 85.7954 522.557 87.0364C522.557 88.2627 522.306 89.356 521.804 90.3164C521.301 91.2767 520.607 92.0228 519.72 92.5547C518.849 93.0866 517.874 93.3525 516.795 93.3525C515.761 93.3525 514.845 93.1235 514.047 92.6655C513.264 92.1927 512.666 91.6091 512.252 90.9147V98.9151H510.235V81.0085H512.252V83.2468ZM520.496 87.0364C520.496 86.1204 520.311 85.3226 519.942 84.643C519.573 83.9634 519.07 83.4462 518.435 83.0917C517.815 82.7371 517.128 82.5598 516.374 82.5598C515.635 82.5598 514.948 82.7445 514.313 83.1138C513.693 83.4684 513.19 83.9929 512.806 84.6873C512.437 85.3669 512.252 86.1574 512.252 87.0586C512.252 87.9746 512.437 88.7798 512.806 89.4742C513.19 90.1539 513.693 90.6784 514.313 91.0477C514.948 91.4023 515.635 91.5796 516.374 91.5796C517.128 91.5796 517.815 91.4023 518.435 91.0477C519.07 90.6784 519.573 90.1539 519.942 89.4742C520.311 88.7798 520.496 87.9672 520.496 87.0364ZM533.137 83.2468C533.536 82.5524 534.127 81.9762 534.91 81.5182C535.708 81.0454 536.631 80.809 537.68 80.809C538.758 80.809 539.734 81.0676 540.605 81.5847C541.492 82.1018 542.186 82.8331 542.688 83.7787C543.191 84.7095 543.442 85.7954 543.442 87.0364C543.442 88.2627 543.191 89.356 542.688 90.3164C542.186 91.2767 541.492 92.0228 540.605 92.5547C539.734 93.0866 538.758 93.3525 537.68 93.3525C536.646 93.3525 535.73 93.1235 534.932 92.6655C534.149 92.1927 533.55 91.6091 533.137 90.9147V98.9151H531.12V81.0085H533.137V83.2468ZM541.381 87.0364C541.381 86.1204 541.196 85.3226 540.827 84.643C540.458 83.9634 539.955 83.4462 539.32 83.0917C538.699 82.7371 538.012 82.5598 537.259 82.5598C536.52 82.5598 535.833 82.7445 535.198 83.1138C534.577 83.4684 534.075 83.9929 533.691 84.6873C533.321 85.3669 533.137 86.1574 533.137 87.0586C533.137 87.9746 533.321 88.7798 533.691 89.4742C534.075 90.1539 534.577 90.6784 535.198 91.0477C535.833 91.4023 536.52 91.5796 537.259 91.5796C538.012 91.5796 538.699 91.4023 539.32 91.0477C539.955 90.6784 540.458 90.1539 540.827 89.4742C541.196 88.7798 541.381 87.9672 541.381 87.0364ZM548.113 76.7534V93.1531H546.097V76.7534H548.113ZM550.797 87.0364C550.797 85.7954 551.048 84.7095 551.55 83.7787C552.053 82.8331 552.74 82.1018 553.611 81.5847C554.498 81.0676 555.48 80.809 556.559 80.809C557.623 80.809 558.546 81.038 559.329 81.496C560.112 81.954 560.696 82.5302 561.08 83.2246V81.0085H563.119V93.1531H561.08V90.8926C560.681 91.6018 560.083 92.1927 559.285 92.6655C558.502 93.1235 557.586 93.3525 556.537 93.3525C555.458 93.3525 554.483 93.0866 553.611 92.5547C552.74 92.0228 552.053 91.2767 551.55 90.3164C551.048 89.356 550.797 88.2627 550.797 87.0364ZM561.08 87.0586C561.08 86.1426 560.895 85.3448 560.526 84.6651C560.157 83.9855 559.654 83.4684 559.019 83.1138C558.398 82.7445 557.711 82.5598 556.958 82.5598C556.204 82.5598 555.517 82.7371 554.897 83.0917C554.276 83.4462 553.781 83.9634 553.412 84.643C553.043 85.3226 552.858 86.1204 552.858 87.0364C552.858 87.9672 553.043 88.7798 553.412 89.4742C553.781 90.1539 554.276 90.6784 554.897 91.0477C555.517 91.4023 556.204 91.5796 556.958 91.5796C557.711 91.5796 558.398 91.4023 559.019 91.0477C559.654 90.6784 560.157 90.1539 560.526 89.4742C560.895 88.7798 561.08 87.9746 561.08 87.0586ZM568.987 82.6706V89.8288C568.987 90.4198 569.112 90.8409 569.364 91.092C569.615 91.3284 570.051 91.4466 570.671 91.4466H572.156V93.1531H570.339C569.216 93.1531 568.374 92.8945 567.812 92.3774C567.251 91.8603 566.97 91.0108 566.97 89.8288V82.6706H565.397V81.0085H566.97V77.9501H568.987V81.0085H572.156V82.6706H568.987ZM579.542 82.6706H576.993V93.1531H574.976V82.6706H573.403V81.0085H574.976V80.1442C574.976 78.7849 575.323 77.795 576.018 77.1745C576.727 76.5392 577.857 76.2215 579.409 76.2215V77.9058C578.522 77.9058 577.894 78.0831 577.525 78.4377C577.17 78.7775 576.993 79.3463 576.993 80.1442V81.0085H579.542V82.6706ZM587.19 93.3525C586.052 93.3525 585.018 93.094 584.087 92.5769C583.171 92.0598 582.447 91.3284 581.915 90.3829C581.398 89.4225 581.139 88.3144 581.139 87.0586C581.139 85.8176 581.405 84.7242 581.937 83.7787C582.484 82.8183 583.223 82.087 584.153 81.5847C585.084 81.0676 586.126 80.809 587.278 80.809C588.431 80.809 589.472 81.0676 590.403 81.5847C591.334 82.087 592.065 82.8109 592.597 83.7565C593.144 84.7021 593.417 85.8028 593.417 87.0586C593.417 88.3144 593.136 89.4225 592.575 90.3829C592.028 91.3284 591.282 92.0598 590.337 92.5769C589.391 93.094 588.342 93.3525 587.19 93.3525ZM587.19 91.5796C587.914 91.5796 588.593 91.4097 589.228 91.0699C589.864 90.7301 590.373 90.2203 590.758 89.5407C591.157 88.8611 591.356 88.0337 591.356 87.0586C591.356 86.0835 591.164 85.2561 590.78 84.5765C590.396 83.8969 589.893 83.3945 589.273 83.0695C588.652 82.7297 587.98 82.5598 587.256 82.5598C586.517 82.5598 585.838 82.7297 585.217 83.0695C584.611 83.3945 584.124 83.8969 583.754 84.5765C583.385 85.2561 583.2 86.0835 583.2 87.0586C583.2 88.0485 583.378 88.8833 583.732 89.5629C584.102 90.2425 584.589 90.7522 585.195 91.092C585.801 91.4171 586.466 91.5796 587.19 91.5796ZM598.085 82.9809C598.44 82.2865 598.942 81.7472 599.592 81.3631C600.257 80.9789 601.062 80.7868 602.008 80.7868V82.87H601.476C599.216 82.87 598.085 84.0963 598.085 86.5489V93.1531H596.069V81.0085H598.085V82.9809ZM618.941 80.7868C619.886 80.7868 620.728 80.9863 621.467 81.3852C622.206 81.7693 622.789 82.3529 623.218 83.136C623.646 83.919 623.86 84.872 623.86 85.9948V93.1531H621.866V86.2829C621.866 85.0714 621.563 84.148 620.957 83.5127C620.366 82.8627 619.561 82.5376 618.542 82.5376C617.493 82.5376 616.658 82.8774 616.037 83.5571C615.417 84.2219 615.107 85.1896 615.107 86.4602V93.1531H613.112V86.2829C613.112 85.0714 612.809 84.148 612.203 83.5127C611.612 82.8627 610.807 82.5376 609.788 82.5376C608.739 82.5376 607.904 82.8774 607.283 83.5571C606.663 84.2219 606.353 85.1896 606.353 86.4602V93.1531H604.336V81.0085H606.353V82.7592C606.752 82.1239 607.283 81.6364 607.948 81.2966C608.628 80.9568 609.374 80.7868 610.187 80.7868C611.206 80.7868 612.107 81.0158 612.89 81.4739C613.673 81.9319 614.257 82.6041 614.641 83.4906C614.981 82.6337 615.542 81.9688 616.325 81.496C617.108 81.0232 617.98 80.7868 618.941 80.7868ZM631.468 93.3525C630.537 93.3525 629.702 93.1974 628.964 92.8871C628.225 92.5621 627.641 92.1189 627.213 91.5574C626.784 90.9812 626.548 90.3238 626.504 89.585H628.587C628.646 90.1908 628.927 90.6857 629.429 91.0699C629.946 91.454 630.618 91.6461 631.446 91.6461C632.214 91.6461 632.82 91.4762 633.263 91.1364C633.706 90.7965 633.928 90.3681 633.928 89.851C633.928 89.3191 633.692 88.9276 633.219 88.6764C632.746 88.4105 632.015 88.1519 631.025 87.9008C630.124 87.6644 629.385 87.428 628.809 87.1916C628.247 86.9404 627.76 86.5784 627.346 86.1057C626.947 85.6181 626.748 84.9828 626.748 84.1997C626.748 83.5792 626.932 83.0104 627.302 82.4933C627.671 81.9762 628.195 81.5699 628.875 81.2744C629.555 80.9641 630.33 80.809 631.202 80.809C632.547 80.809 633.632 81.1488 634.46 81.8284C635.287 82.5081 635.73 83.4389 635.79 84.6208H633.773C633.728 83.9855 633.47 83.4758 632.997 83.0917C632.539 82.7075 631.919 82.5155 631.136 82.5155C630.412 82.5155 629.835 82.6706 629.407 82.9809C628.978 83.2911 628.764 83.6974 628.764 84.1997C628.764 84.5987 628.89 84.9311 629.141 85.197C629.407 85.4482 629.732 85.655 630.116 85.8176C630.515 85.9653 631.062 86.1352 631.756 86.3273C632.628 86.5637 633.337 86.8001 633.884 87.0364C634.43 87.2581 634.896 87.5979 635.28 88.0559C635.679 88.5139 635.886 89.1123 635.9 89.851C635.9 90.5158 635.716 91.1142 635.346 91.6461C634.977 92.178 634.452 92.599 633.773 92.9093C633.108 93.2048 632.34 93.3525 631.468 93.3525ZM4.1664 119.671V126.829C4.1664 127.42 4.29198 127.841 4.54315 128.092C4.79432 128.328 5.23016 128.447 5.85069 128.447H7.33552V130.153H5.51826C4.3954 130.153 3.55326 129.895 2.99183 129.377C2.4304 128.86 2.14969 128.011 2.14969 126.829V119.671H0.576204V118.008H2.14969V114.95H4.1664V118.008H7.33552V119.671H4.1664ZM15.0757 130.353C13.938 130.353 12.9038 130.094 11.973 129.577C11.057 129.06 10.3331 128.328 9.80119 127.383C9.28408 126.423 9.02553 125.314 9.02553 124.059C9.02553 122.818 9.29147 121.724 9.82335 120.779C10.37 119.818 11.1087 119.087 12.0395 118.585C12.9703 118.068 14.0119 117.809 15.1643 117.809C16.3167 117.809 17.3583 118.068 18.2891 118.585C19.2199 119.087 19.9512 119.811 20.4831 120.757C21.0298 121.702 21.3031 122.803 21.3031 124.059C21.3031 125.314 21.0224 126.423 20.461 127.383C19.9143 128.328 19.1682 129.06 18.2226 129.577C17.2771 130.094 16.2281 130.353 15.0757 130.353ZM15.0757 128.58C15.7996 128.58 16.4792 128.41 17.1145 128.07C17.7499 127.73 18.2596 127.22 18.6437 126.541C19.0426 125.861 19.2421 125.034 19.2421 124.059C19.2421 123.083 19.05 122.256 18.6659 121.576C18.2817 120.897 17.7794 120.395 17.1589 120.07C16.5383 119.73 15.8661 119.56 15.1422 119.56C14.4034 119.56 13.7238 119.73 13.1033 120.07C12.4975 120.395 12.01 120.897 11.6406 121.576C11.2712 122.256 11.0866 123.083 11.0866 124.059C11.0866 125.048 11.2639 125.883 11.6184 126.563C11.9878 127.243 12.4754 127.752 13.0811 128.092C13.6869 128.417 14.3517 128.58 15.0757 128.58ZM29.1096 124.036C29.1096 122.795 29.3607 121.709 29.8631 120.779C30.3654 119.833 31.0524 119.102 31.9241 118.585C32.8106 118.068 33.8005 117.809 34.8938 117.809C35.8393 117.809 36.7184 118.031 37.531 118.474C38.3436 118.902 38.9641 119.471 39.3926 120.18V113.753H41.4315V130.153H39.3926V127.87C38.9937 128.594 38.4027 129.193 37.6197 129.666C36.8366 130.124 35.9206 130.353 34.8716 130.353C33.7931 130.353 32.8106 130.087 31.9241 129.555C31.0524 129.023 30.3654 128.277 29.8631 127.316C29.3607 126.356 29.1096 125.263 29.1096 124.036ZM39.3926 124.059C39.3926 123.143 39.2079 122.345 38.8386 121.665C38.4692 120.986 37.9669 120.468 37.3316 120.114C36.711 119.744 36.024 119.56 35.2705 119.56C34.517 119.56 33.83 119.737 33.2095 120.092C32.589 120.446 32.094 120.963 31.7247 121.643C31.3553 122.323 31.1706 123.12 31.1706 124.036C31.1706 124.967 31.3553 125.78 31.7247 126.474C32.094 127.154 32.589 127.678 33.2095 128.048C33.83 128.402 34.517 128.58 35.2705 128.58C36.024 128.58 36.711 128.402 37.3316 128.048C37.9669 127.678 38.4692 127.154 38.8386 126.474C39.2079 125.78 39.3926 124.975 39.3926 124.059ZM46.8562 119.981C47.2108 119.286 47.7132 118.747 48.3632 118.363C49.0281 117.979 49.8333 117.787 50.7789 117.787V119.87H50.247C47.9865 119.87 46.8562 121.096 46.8562 123.549V130.153H44.8395V118.008H46.8562V119.981ZM54.1485 116.036C53.7644 116.036 53.4393 115.903 53.1734 115.637C52.9074 115.371 52.7745 115.046 52.7745 114.662C52.7745 114.278 52.9074 113.953 53.1734 113.687C53.4393 113.421 53.7644 113.288 54.1485 113.288C54.5178 113.288 54.8281 113.421 55.0793 113.687C55.3452 113.953 55.4782 114.278 55.4782 114.662C55.4782 115.046 55.3452 115.371 55.0793 115.637C54.8281 115.903 54.5178 116.036 54.1485 116.036ZM55.1236 118.008V130.153H53.1069V118.008H55.1236ZM63.0817 128.291L66.8492 118.008H68.9989L64.2341 130.153H61.885L57.1202 118.008H59.2921L63.0817 128.291ZM82.0643 123.615C82.0643 124 82.0421 124.406 81.9978 124.834H72.291C72.3648 126.031 72.7711 126.969 73.5098 127.649C74.2633 128.314 75.172 128.646 76.2357 128.646C77.1074 128.646 77.8314 128.447 78.4076 128.048C78.9986 127.634 79.4122 127.087 79.6486 126.408H81.8205C81.4954 127.575 80.8454 128.528 79.8703 129.267C78.8951 129.991 77.6836 130.353 76.2357 130.353C75.0833 130.353 74.0491 130.094 73.1331 129.577C72.2319 129.06 71.5227 128.328 71.0056 127.383C70.4885 126.423 70.2299 125.314 70.2299 124.059C70.2299 122.803 70.4811 121.702 70.9834 120.757C71.4857 119.811 72.1875 119.087 73.0888 118.585C74.0048 118.068 75.0538 117.809 76.2357 117.809C77.3881 117.809 78.4076 118.06 79.2941 118.563C80.1805 119.065 80.8601 119.759 81.3329 120.646C81.8205 121.517 82.0643 122.507 82.0643 123.615ZM79.9811 123.194C79.9811 122.426 79.8112 121.769 79.4713 121.222C79.1315 120.66 78.6661 120.239 78.0752 119.959C77.499 119.663 76.8563 119.515 76.1471 119.515C75.1277 119.515 74.256 119.84 73.532 120.491C72.8228 121.141 72.4165 122.042 72.3131 123.194H79.9811ZM91.6762 116.036C91.2921 116.036 90.967 115.903 90.7011 115.637C90.4352 115.371 90.3022 115.046 90.3022 114.662C90.3022 114.278 90.4352 113.953 90.7011 113.687C90.967 113.421 91.2921 113.288 91.6762 113.288C92.0456 113.288 92.3558 113.421 92.607 113.687C92.8729 113.953 93.0059 114.278 93.0059 114.662C93.0059 115.046 92.8729 115.371 92.607 115.637C92.3558 115.903 92.0456 116.036 91.6762 116.036ZM92.6513 118.008V130.153H90.6346V118.008H92.6513ZM102.006 117.787C103.483 117.787 104.68 118.237 105.596 119.139C106.512 120.025 106.97 121.311 106.97 122.995V130.153H104.975V123.283C104.975 122.071 104.672 121.148 104.067 120.513C103.461 119.863 102.634 119.538 101.585 119.538C100.521 119.538 99.6713 119.87 99.036 120.535C98.4154 121.2 98.1052 122.167 98.1052 123.438V130.153H96.0885V118.008H98.1052V119.737C98.5041 119.117 99.0434 118.636 99.723 118.297C100.417 117.957 101.178 117.787 102.006 117.787ZM114.564 130.353C113.633 130.353 112.798 130.197 112.059 129.887C111.321 129.562 110.737 129.119 110.308 128.557C109.88 127.981 109.644 127.324 109.599 126.585H111.683C111.742 127.191 112.022 127.686 112.525 128.07C113.042 128.454 113.714 128.646 114.541 128.646C115.31 128.646 115.915 128.476 116.359 128.136C116.802 127.797 117.023 127.368 117.023 126.851C117.023 126.319 116.787 125.928 116.314 125.676C115.842 125.41 115.11 125.152 114.12 124.901C113.219 124.664 112.48 124.428 111.904 124.192C111.343 123.94 110.855 123.578 110.441 123.106C110.043 122.618 109.843 121.983 109.843 121.2C109.843 120.579 110.028 120.01 110.397 119.493C110.766 118.976 111.291 118.57 111.971 118.274C112.65 117.964 113.426 117.809 114.298 117.809C115.642 117.809 116.728 118.149 117.555 118.828C118.383 119.508 118.826 120.439 118.885 121.621H116.868C116.824 120.986 116.565 120.476 116.093 120.092C115.635 119.708 115.014 119.515 114.231 119.515C113.507 119.515 112.931 119.671 112.502 119.981C112.074 120.291 111.86 120.697 111.86 121.2C111.86 121.599 111.985 121.931 112.237 122.197C112.502 122.448 112.828 122.655 113.212 122.818C113.611 122.965 114.157 123.135 114.852 123.327C115.723 123.564 116.433 123.8 116.979 124.036C117.526 124.258 117.991 124.598 118.375 125.056C118.774 125.514 118.981 126.112 118.996 126.851C118.996 127.516 118.811 128.114 118.442 128.646C118.072 129.178 117.548 129.599 116.868 129.909C116.204 130.205 115.435 130.353 114.564 130.353ZM124.303 119.671V126.829C124.303 127.42 124.428 127.841 124.679 128.092C124.931 128.328 125.367 128.447 125.987 128.447H127.472V130.153H125.655C124.532 130.153 123.69 129.895 123.128 129.377C122.567 128.86 122.286 128.011 122.286 126.829V119.671H120.713V118.008H122.286V114.95H124.303V118.008H127.472V119.671H124.303ZM129.162 124.036C129.162 122.795 129.413 121.709 129.915 120.779C130.418 119.833 131.105 119.102 131.976 118.585C132.863 118.068 133.845 117.809 134.924 117.809C135.988 117.809 136.911 118.038 137.694 118.496C138.477 118.954 139.061 119.53 139.445 120.225V118.008H141.484V130.153H139.445V127.893C139.046 128.602 138.448 129.193 137.65 129.666C136.867 130.124 135.951 130.353 134.902 130.353C133.823 130.353 132.848 130.087 131.976 129.555C131.105 129.023 130.418 128.277 129.915 127.316C129.413 126.356 129.162 125.263 129.162 124.036ZM139.445 124.059C139.445 123.143 139.26 122.345 138.891 121.665C138.522 120.986 138.019 120.468 137.384 120.114C136.763 119.744 136.076 119.56 135.323 119.56C134.569 119.56 133.882 119.737 133.262 120.092C132.641 120.446 132.146 120.963 131.777 121.643C131.408 122.323 131.223 123.12 131.223 124.036C131.223 124.967 131.408 125.78 131.777 126.474C132.146 127.154 132.641 127.678 133.262 128.048C133.882 128.402 134.569 128.58 135.323 128.58C136.076 128.58 136.763 128.402 137.384 128.048C138.019 127.678 138.522 127.154 138.891 126.474C139.26 125.78 139.445 124.975 139.445 124.059ZM150.809 117.787C152.286 117.787 153.483 118.237 154.399 119.139C155.315 120.025 155.773 121.311 155.773 122.995V130.153H153.779V123.283C153.779 122.071 153.476 121.148 152.87 120.513C152.264 119.863 151.437 119.538 150.388 119.538C149.324 119.538 148.475 119.87 147.839 120.535C147.219 121.2 146.909 122.167 146.909 123.438V130.153H144.892V118.008H146.909V119.737C147.307 119.117 147.847 118.636 148.526 118.297C149.221 117.957 149.982 117.787 150.809 117.787ZM161.527 119.671V126.829C161.527 127.42 161.653 127.841 161.904 128.092C162.155 128.328 162.591 128.447 163.212 128.447H164.697V130.153H162.879C161.756 130.153 160.914 129.895 160.353 129.377C159.791 128.86 159.511 128.011 159.511 126.829V119.671H157.937V118.008H159.511V114.95H161.527V118.008H164.697V119.671H161.527ZM175.065 119.981C175.42 119.286 175.922 118.747 176.572 118.363C177.237 117.979 178.042 117.787 178.988 117.787V119.87H178.456C176.195 119.87 175.065 121.096 175.065 123.549V130.153H173.048V118.008H175.065V119.981ZM192.397 123.615C192.397 124 192.374 124.406 192.33 124.834H182.623C182.697 126.031 183.104 126.969 183.842 127.649C184.596 128.314 185.504 128.646 186.568 128.646C187.44 128.646 188.164 128.447 188.74 128.048C189.331 127.634 189.745 127.087 189.981 126.408H192.153C191.828 127.575 191.178 128.528 190.203 129.267C189.228 129.991 188.016 130.353 186.568 130.353C185.416 130.353 184.381 130.094 183.465 129.577C182.564 129.06 181.855 128.328 181.338 127.383C180.821 126.423 180.562 125.314 180.562 124.059C180.562 122.803 180.813 121.702 181.316 120.757C181.818 119.811 182.52 119.087 183.421 118.585C184.337 118.068 185.386 117.809 186.568 117.809C187.721 117.809 188.74 118.06 189.626 118.563C190.513 119.065 191.193 119.759 191.665 120.646C192.153 121.517 192.397 122.507 192.397 123.615ZM190.313 123.194C190.313 122.426 190.144 121.769 189.804 121.222C189.464 120.66 188.999 120.239 188.408 119.959C187.831 119.663 187.189 119.515 186.479 119.515C185.46 119.515 184.588 119.84 183.864 120.491C183.155 121.141 182.749 122.042 182.645 123.194H190.313ZM199.358 130.353C198.427 130.353 197.592 130.197 196.854 129.887C196.115 129.562 195.531 129.119 195.103 128.557C194.675 127.981 194.438 127.324 194.394 126.585H196.477C196.536 127.191 196.817 127.686 197.319 128.07C197.836 128.454 198.508 128.646 199.336 128.646C200.104 128.646 200.71 128.476 201.153 128.136C201.596 127.797 201.818 127.368 201.818 126.851C201.818 126.319 201.582 125.928 201.109 125.676C200.636 125.41 199.905 125.152 198.915 124.901C198.014 124.664 197.275 124.428 196.699 124.192C196.137 123.94 195.65 123.578 195.236 123.106C194.837 122.618 194.638 121.983 194.638 121.2C194.638 120.579 194.822 120.01 195.192 119.493C195.561 118.976 196.085 118.57 196.765 118.274C197.445 117.964 198.22 117.809 199.092 117.809C200.437 117.809 201.522 118.149 202.35 118.828C203.177 119.508 203.62 120.439 203.68 121.621H201.663C201.619 120.986 201.36 120.476 200.887 120.092C200.429 119.708 199.809 119.515 199.026 119.515C198.302 119.515 197.725 119.671 197.297 119.981C196.869 120.291 196.654 120.697 196.654 121.2C196.654 121.599 196.78 121.931 197.031 122.197C197.297 122.448 197.622 122.655 198.006 122.818C198.405 122.965 198.952 123.135 199.646 123.327C200.518 123.564 201.227 123.8 201.774 124.036C202.32 124.258 202.786 124.598 203.17 125.056C203.569 125.514 203.776 126.112 203.79 126.851C203.79 127.516 203.606 128.114 203.236 128.646C202.867 129.178 202.342 129.599 201.663 129.909C200.998 130.205 200.23 130.353 199.358 130.353ZM217.408 118.008V130.153H215.391V128.358C215.007 128.979 214.468 129.466 213.773 129.821C213.094 130.16 212.34 130.33 211.513 130.33C210.567 130.33 209.718 130.138 208.964 129.754C208.211 129.355 207.612 128.764 207.169 127.981C206.741 127.198 206.526 126.245 206.526 125.122V118.008H208.521V124.856C208.521 126.053 208.824 126.977 209.43 127.627C210.035 128.262 210.863 128.58 211.912 128.58C212.99 128.58 213.84 128.247 214.46 127.582C215.081 126.917 215.391 125.95 215.391 124.679V118.008H217.408ZM222.83 113.753V130.153H220.813V113.753H222.83ZM228.727 119.671V126.829C228.727 127.42 228.852 127.841 229.104 128.092C229.355 128.328 229.791 128.447 230.411 128.447H231.896V130.153H230.079C228.956 130.153 228.114 129.895 227.552 129.377C226.991 128.86 226.71 128.011 226.71 126.829V119.671H225.137V118.008H226.71V114.95H228.727V118.008H231.896V119.671H228.727ZM238.639 130.353C237.708 130.353 236.873 130.197 236.134 129.887C235.396 129.562 234.812 129.119 234.384 128.557C233.955 127.981 233.719 127.324 233.675 126.585H235.758C235.817 127.191 236.098 127.686 236.6 128.07C237.117 128.454 237.789 128.646 238.617 128.646C239.385 128.646 239.991 128.476 240.434 128.136C240.877 127.797 241.099 127.368 241.099 126.851C241.099 126.319 240.862 125.928 240.39 125.676C239.917 125.41 239.185 125.152 238.196 124.901C237.294 124.664 236.556 124.428 235.979 124.192C235.418 123.94 234.93 123.578 234.517 123.106C234.118 122.618 233.918 121.983 233.918 121.2C233.918 120.579 234.103 120.01 234.472 119.493C234.842 118.976 235.366 118.57 236.046 118.274C236.725 117.964 237.501 117.809 238.373 117.809C239.717 117.809 240.803 118.149 241.631 118.828C242.458 119.508 242.901 120.439 242.96 121.621H240.944C240.899 120.986 240.641 120.476 240.168 120.092C239.71 119.708 239.089 119.515 238.306 119.515C237.582 119.515 237.006 119.671 236.578 119.981C236.149 120.291 235.935 120.697 235.935 121.2C235.935 121.599 236.061 121.931 236.312 122.197C236.578 122.448 236.903 122.655 237.287 122.818C237.686 122.965 238.232 123.135 238.927 123.327C239.799 123.564 240.508 123.8 241.054 124.036C241.601 124.258 242.066 124.598 242.451 125.056C242.849 125.514 243.056 126.112 243.071 126.851C243.071 127.516 242.886 128.114 242.517 128.646C242.148 129.178 241.623 129.599 240.944 129.909C240.279 130.205 239.51 130.353 238.639 130.353ZM246.561 130.286C246.177 130.286 245.852 130.153 245.586 129.887C245.32 129.621 245.187 129.296 245.187 128.912C245.187 128.528 245.32 128.203 245.586 127.937C245.852 127.671 246.177 127.538 246.561 127.538C246.93 127.538 247.24 127.671 247.492 127.937C247.757 128.203 247.89 128.528 247.89 128.912C247.89 129.296 247.757 129.621 247.492 129.887C247.24 130.153 246.93 130.286 246.561 130.286Z" fill="#362869"/>
</svg>
