<svg width="347" height="80" viewBox="0 0 347 80" fill="none" xmlns="http://www.w3.org/2000/svg">
<path d="M104.36 49.603H113.56V54.043H98.7599V26.123H104.36V49.603ZM137.719 42.483C137.719 43.283 137.666 44.003 137.559 44.643H121.359C121.493 46.243 122.053 47.4963 123.039 48.403C124.026 49.3096 125.239 49.763 126.679 49.763C128.759 49.763 130.239 48.8696 131.119 47.083H137.159C136.519 49.2163 135.293 50.9763 133.479 52.363C131.666 53.723 129.439 54.403 126.799 54.403C124.666 54.403 122.746 53.9363 121.039 53.003C119.359 52.043 118.039 50.6963 117.079 48.963C116.146 47.2296 115.679 45.2296 115.679 42.963C115.679 40.6696 116.146 38.6563 117.079 36.923C118.013 35.1896 119.319 33.8563 120.999 32.923C122.679 31.9896 124.613 31.523 126.799 31.523C128.906 31.523 130.786 31.9763 132.439 32.883C134.119 33.7896 135.413 35.083 136.319 36.763C137.253 38.4163 137.719 40.323 137.719 42.483ZM131.919 40.883C131.893 39.443 131.373 38.2963 130.359 37.443C129.346 36.563 128.106 36.123 126.639 36.123C125.253 36.123 124.079 36.5496 123.119 37.403C122.186 38.2296 121.613 39.3896 121.399 40.883H131.919ZM140.367 42.883C140.367 40.643 140.807 38.6563 141.687 36.923C142.593 35.1896 143.807 33.8563 145.327 32.923C146.873 31.9896 148.593 31.523 150.487 31.523C152.14 31.523 153.58 31.8563 154.807 32.523C156.06 33.1896 157.06 34.0296 157.807 35.043V31.883H163.447V54.043H157.807V50.803C157.087 51.843 156.087 52.7096 154.807 53.403C153.553 54.0696 152.1 54.403 150.447 54.403C148.58 54.403 146.873 53.923 145.327 52.963C143.807 52.003 142.593 50.6563 141.687 48.923C140.807 47.163 140.367 45.1496 140.367 42.883ZM157.807 42.963C157.807 41.603 157.54 40.443 157.007 39.483C156.473 38.4963 155.753 37.7496 154.847 37.243C153.94 36.7096 152.967 36.443 151.927 36.443C150.887 36.443 149.927 36.6963 149.047 37.203C148.167 37.7096 147.447 38.4563 146.887 39.443C146.353 40.403 146.087 41.5496 146.087 42.883C146.087 44.2163 146.353 45.3896 146.887 46.403C147.447 47.3896 148.167 48.1496 149.047 48.683C149.953 49.2163 150.913 49.483 151.927 49.483C152.967 49.483 153.94 49.2296 154.847 48.723C155.753 48.1896 156.473 47.443 157.007 46.483C157.54 45.4963 157.807 44.323 157.807 42.963ZM174.516 35.323C175.236 34.1496 176.17 33.2296 177.316 32.563C178.49 31.8963 179.823 31.563 181.316 31.563V37.443H179.836C178.076 37.443 176.743 37.8563 175.836 38.683C174.956 39.5096 174.516 40.9496 174.516 43.003V54.043H168.916V31.883H174.516V35.323ZM197.368 31.563C200.008 31.563 202.141 32.403 203.768 34.083C205.395 35.7363 206.208 38.0563 206.208 41.043V54.043H200.608V41.803C200.608 40.043 200.168 38.6963 199.288 37.763C198.408 36.803 197.208 36.323 195.688 36.323C194.141 36.323 192.915 36.803 192.008 37.763C191.128 38.6963 190.688 40.043 190.688 41.803V54.043H185.088V31.883H190.688V34.643C191.435 33.683 192.381 32.9363 193.528 32.403C194.701 31.843 195.981 31.563 197.368 31.563ZM251.505 26.123V54.043H245.905V35.883L238.425 54.043H234.185L226.665 35.883V54.043H221.065V26.123H227.425L236.305 46.883L245.185 26.123H251.505ZM266.881 54.403C264.748 54.403 262.828 53.9363 261.121 53.003C259.415 52.043 258.068 50.6963 257.081 48.963C256.121 47.2296 255.641 45.2296 255.641 42.963C255.641 40.6963 256.135 38.6963 257.121 36.963C258.135 35.2296 259.508 33.8963 261.241 32.963C262.975 32.003 264.908 31.523 267.041 31.523C269.175 31.523 271.108 32.003 272.841 32.963C274.575 33.8963 275.935 35.2296 276.921 36.963C277.935 38.6963 278.441 40.6963 278.441 42.963C278.441 45.2296 277.921 47.2296 276.881 48.963C275.868 50.6963 274.481 52.043 272.721 53.003C270.988 53.9363 269.041 54.403 266.881 54.403ZM266.881 49.523C267.895 49.523 268.841 49.283 269.721 48.803C270.628 48.2963 271.348 47.5496 271.881 46.563C272.415 45.5763 272.681 44.3763 272.681 42.963C272.681 40.8563 272.121 39.243 271.001 38.123C269.908 36.9763 268.561 36.403 266.961 36.403C265.361 36.403 264.015 36.9763 262.921 38.123C261.855 39.243 261.321 40.8563 261.321 42.963C261.321 45.0696 261.841 46.6963 262.881 47.843C263.948 48.963 265.281 49.523 266.881 49.523ZM288.149 35.323C288.869 34.1496 289.802 33.2296 290.949 32.563C292.122 31.8963 293.456 31.563 294.949 31.563V37.443H293.469C291.709 37.443 290.376 37.8563 289.469 38.683C288.589 39.5096 288.149 40.9496 288.149 43.003V54.043H282.549V31.883H288.149V35.323ZM319.321 42.483C319.321 43.283 319.268 44.003 319.161 44.643H302.961C303.094 46.243 303.654 47.4963 304.641 48.403C305.628 49.3096 306.841 49.763 308.281 49.763C310.361 49.763 311.841 48.8696 312.721 47.083H318.761C318.121 49.2163 316.894 50.9763 315.081 52.363C313.268 53.723 311.041 54.403 308.401 54.403C306.268 54.403 304.348 53.9363 302.641 53.003C300.961 52.043 299.641 50.6963 298.681 48.963C297.748 47.2296 297.281 45.2296 297.281 42.963C297.281 40.6696 297.748 38.6563 298.681 36.923C299.614 35.1896 300.921 33.8563 302.601 32.923C304.281 31.9896 306.214 31.523 308.401 31.523C310.508 31.523 312.388 31.9763 314.041 32.883C315.721 33.7896 317.014 35.083 317.921 36.763C318.854 38.4163 319.321 40.323 319.321 42.483ZM313.521 40.883C313.494 39.443 312.974 38.2963 311.961 37.443C310.948 36.563 309.708 36.123 308.241 36.123C306.854 36.123 305.681 36.5496 304.721 37.403C303.788 38.2296 303.214 39.3896 303.001 40.883H313.521Z" fill="#F2F2F3"/>
<rect x="71.4999" y="6.54297" width="274" height="66" stroke="#F2F2F3" stroke-width="3"/>
<rect x="-1.5" y="1.5" width="66" height="66" transform="matrix(-1 0 0 1 69.9999 5.04297)" stroke="#F2F2F3" stroke-width="3"/>
<path d="M22.1393 59.8849L22.1386 53.8116H48.8457L17.2434 22.2093L22.2726 17.1802L53.8749 48.7825V47.5754L53.8756 22.362L59.9481 22.2142V59.8842L22.1393 59.8849Z" fill="#F2F2F3" stroke="#F2F2F3"/>
</svg>
