<svg width="712" height="140" viewBox="0 0 712 140" fill="none" xmlns="http://www.w3.org/2000/svg">
<path d="M2.06843 34.1881C2.06843 30.13 2.97459 26.5053 4.78693 23.314C6.63866 20.0834 9.14047 17.5816 12.2924 15.8086C15.4836 13.9963 19.0492 13.0901 22.9891 13.0901C27.5987 13.0901 31.6371 14.2721 35.1041 16.636C38.5712 18.9999 40.9942 22.27 42.3732 26.4462H32.8584C31.9129 24.4763 30.5733 22.9989 28.8398 22.0139C27.1456 21.0289 25.1757 20.5364 22.93 20.5364C20.5267 20.5364 18.3794 21.1077 16.4883 22.2503C14.6366 23.3534 13.1788 24.9294 12.1151 26.9781C11.0907 29.0268 10.5785 31.4302 10.5785 34.1881C10.5785 36.9066 11.0907 39.3099 12.1151 41.398C13.1788 43.4467 14.6366 45.0424 16.4883 46.1849C18.3794 47.2881 20.5267 47.8397 22.93 47.8397C25.1757 47.8397 27.1456 47.3472 28.8398 46.3622C30.5733 45.3379 31.9129 43.8407 32.8584 41.8708H42.3732C40.9942 46.0864 38.5712 49.3762 35.1041 51.7401C31.6765 54.0646 27.6381 55.2269 22.9891 55.2269C19.0492 55.2269 15.4836 54.3404 12.2924 52.5675C9.14047 50.7552 6.63866 48.2534 4.78693 45.0621C2.97459 41.8708 2.06843 38.2461 2.06843 34.1881ZM63.9781 55.4042C60.8262 55.4042 57.9895 54.7147 55.468 53.3358C52.9465 51.9174 50.9568 49.9278 49.4991 47.3669C48.0807 44.806 47.3716 41.8511 47.3716 38.5022C47.3716 35.1533 48.1004 32.1984 49.5582 29.6375C51.0553 27.0766 53.0844 25.1067 55.6453 23.7277C58.2062 22.3094 61.0626 21.6002 64.2145 21.6002C67.3663 21.6002 70.2227 22.3094 72.7837 23.7277C75.3446 25.1067 77.3539 27.0766 78.8116 29.6375C80.3088 32.1984 81.0574 35.1533 81.0574 38.5022C81.0574 41.8511 80.2891 44.806 78.7525 47.3669C77.2554 49.9278 75.2067 51.9174 72.6064 53.3358C70.0454 54.7147 67.1694 55.4042 63.9781 55.4042ZM63.9781 48.1943C65.4752 48.1943 66.8739 47.8397 68.174 47.1305C69.5136 46.3819 70.5773 45.2788 71.3653 43.821C72.1533 42.3633 72.5473 40.5903 72.5473 38.5022C72.5473 35.3897 71.7199 33.0061 70.0651 31.3514C68.4498 29.6572 66.4602 28.8102 64.0963 28.8102C61.7323 28.8102 59.7427 29.6572 58.1274 31.3514C56.5514 33.0061 55.7635 35.3897 55.7635 38.5022C55.7635 41.6147 56.5317 44.018 58.0683 45.7121C59.6442 47.3669 61.6142 48.1943 63.9781 48.1943ZM105.269 21.6593C109.17 21.6593 112.322 22.9004 114.725 25.3825C117.128 27.8252 118.33 31.2529 118.33 35.6655V54.8723H110.056V36.7884C110.056 34.1881 109.406 32.1984 108.106 30.8195C106.806 29.4011 105.033 28.692 102.787 28.692C100.502 28.692 98.6899 29.4011 97.3504 30.8195C96.0502 32.1984 95.4001 34.1881 95.4001 36.7884V54.8723H87.1264V22.1321H95.4001V26.2098C96.5033 24.7915 97.9019 23.6883 99.5961 22.9004C101.33 22.073 103.221 21.6593 105.269 21.6593ZM135.831 28.9283V44.7666C135.831 45.8697 136.087 46.6774 136.599 47.1896C137.151 47.6624 138.057 47.8988 139.318 47.8988H143.159V54.8723H137.958C130.985 54.8723 127.498 51.484 127.498 44.7075V28.9283H123.598V22.1321H127.498V14.0357H135.831V22.1321H143.159V28.9283H135.831ZM179.545 37.793C179.545 38.975 179.467 40.0387 179.309 40.9843H155.374C155.571 43.3482 156.399 45.2 157.856 46.5395C159.314 47.8791 161.107 48.5488 163.234 48.5488C166.307 48.5488 168.494 47.229 169.794 44.5893H178.718C177.772 47.7412 175.96 50.3415 173.281 52.3902C170.602 54.3995 167.312 55.4042 163.412 55.4042C160.26 55.4042 157.423 54.7147 154.902 53.3358C152.419 51.9174 150.469 49.9278 149.051 47.3669C147.672 44.806 146.982 41.8511 146.982 38.5022C146.982 35.1139 147.672 32.1393 149.051 29.5784C150.43 27.0175 152.36 25.0476 154.842 23.6686C157.325 22.2897 160.181 21.6002 163.412 21.6002C166.524 21.6002 169.302 22.27 171.744 23.6095C174.227 24.9491 176.137 26.8599 177.477 29.342C178.856 31.7847 179.545 34.6017 179.545 37.793ZM170.976 35.4291C170.937 33.3016 170.168 31.6075 168.671 30.3467C167.174 29.0465 165.342 28.3965 163.175 28.3965C161.127 28.3965 159.393 29.0268 157.975 30.2876C156.596 31.509 155.749 33.2228 155.433 35.4291H170.976ZM203.727 21.6593C207.628 21.6593 210.78 22.9004 213.183 25.3825C215.586 27.8252 216.788 31.2529 216.788 35.6655V54.8723H208.514V36.7884C208.514 34.1881 207.864 32.1984 206.564 30.8195C205.264 29.4011 203.491 28.692 201.245 28.692C198.96 28.692 197.148 29.4011 195.808 30.8195C194.508 32.1984 193.858 34.1881 193.858 36.7884V54.8723H185.584V22.1321H193.858V26.2098C194.961 24.7915 196.36 23.6883 198.054 22.9004C199.788 22.073 201.679 21.6593 203.727 21.6593ZM234.289 28.9283V44.7666C234.289 45.8697 234.545 46.6774 235.057 47.1896C235.609 47.6624 236.515 47.8988 237.776 47.8988H241.617V54.8723H236.416C229.443 54.8723 225.956 51.484 225.956 44.7075V28.9283H222.056V22.1321H225.956V14.0357H234.289V22.1321H241.617V28.9283H234.289ZM306.623 13.622V54.8723H298.35V28.0419L287.298 54.8723H281.034L269.924 28.0419V54.8723H261.65V13.622H271.046L284.166 44.2938L297.286 13.622H306.623ZM312.676 38.384C312.676 35.0745 313.326 32.1393 314.626 29.5784C315.966 27.0175 317.758 25.0476 320.004 23.6686C322.289 22.2897 324.83 21.6002 327.628 21.6002C330.07 21.6002 332.198 22.0927 334.01 23.0777C335.862 24.0626 337.339 25.3037 338.442 26.8008V22.1321H346.775V54.8723H338.442V50.0854C337.379 51.6219 335.901 52.9024 334.01 53.9267C332.158 54.9117 330.011 55.4042 327.568 55.4042C324.811 55.4042 322.289 54.695 320.004 53.2767C317.758 51.8583 315.966 49.8687 314.626 47.3078C313.326 44.7075 312.676 41.7329 312.676 38.384ZM338.442 38.5022C338.442 36.4929 338.048 34.779 337.26 33.3607C336.472 31.9029 335.409 30.7998 334.069 30.0512C332.73 29.2632 331.292 28.8692 329.755 28.8692C328.218 28.8692 326.8 29.2435 325.5 29.9921C324.2 30.7407 323.136 31.8438 322.309 33.3016C321.521 34.7199 321.127 36.4141 321.127 38.384C321.127 40.3539 321.521 42.0875 322.309 43.5846C323.136 45.0424 324.2 46.1652 325.5 46.9532C326.84 47.7412 328.258 48.1352 329.755 48.1352C331.292 48.1352 332.73 47.7609 334.069 47.0123C335.409 46.2243 336.472 45.1212 337.26 43.7028C338.048 42.2451 338.442 40.5115 338.442 38.5022ZM363.13 27.2145C364.193 25.481 365.572 24.1217 367.267 23.1368C369 22.1518 370.97 21.6593 373.176 21.6593V30.3467H370.99C368.389 30.3467 366.419 30.9574 365.08 32.1787C363.78 33.4001 363.13 35.5276 363.13 38.5613V54.8723H354.856V22.1321H363.13V27.2145ZM398.133 54.8723L387.023 40.9252V54.8723H378.749V11.1399H387.023V36.0201L398.015 22.1321H408.771L394.351 38.5613L408.889 54.8723H398.133ZM443.697 37.793C443.697 38.975 443.618 40.0387 443.46 40.9843H419.526C419.723 43.3482 420.55 45.2 422.008 46.5395C423.466 47.8791 425.258 48.5488 427.386 48.5488C430.459 48.5488 432.645 47.229 433.946 44.5893H442.869C441.924 47.7412 440.111 50.3415 437.432 52.3902C434.753 54.3995 431.463 55.4042 427.563 55.4042C424.411 55.4042 421.574 54.7147 419.053 53.3358C416.571 51.9174 414.621 49.9278 413.202 47.3669C411.823 44.806 411.134 41.8511 411.134 38.5022C411.134 35.1139 411.823 32.1393 413.202 29.5784C414.581 27.0175 416.512 25.0476 418.994 23.6686C421.476 22.2897 424.332 21.6002 427.563 21.6002C430.675 21.6002 433.453 22.27 435.896 23.6095C438.378 24.9491 440.289 26.8599 441.628 29.342C443.007 31.7847 443.697 34.6017 443.697 37.793ZM435.127 35.4291C435.088 33.3016 434.32 31.6075 432.823 30.3467C431.326 29.0465 429.494 28.3965 427.327 28.3965C425.278 28.3965 423.544 29.0268 422.126 30.2876C420.747 31.509 419.9 33.2228 419.585 35.4291H435.127ZM459.369 28.9283V44.7666C459.369 45.8697 459.625 46.6774 460.137 47.1896C460.689 47.6624 461.595 47.8988 462.855 47.8988H466.697V54.8723H461.496C454.523 54.8723 451.036 51.484 451.036 44.7075V28.9283H447.135V22.1321H451.036V14.0357H459.369V22.1321H466.697V28.9283H459.369ZM476.844 18.2316C475.386 18.2316 474.165 17.7785 473.18 16.8724C472.234 15.9268 471.761 14.7646 471.761 13.3856C471.761 12.0067 472.234 10.8641 473.18 9.95793C474.165 9.01236 475.386 8.53958 476.844 8.53958C478.301 8.53958 479.503 9.01236 480.449 9.95793C481.434 10.8641 481.926 12.0067 481.926 13.3856C481.926 14.7646 481.434 15.9268 480.449 16.8724C479.503 17.7785 478.301 18.2316 476.844 18.2316ZM480.921 22.1321V54.8723H472.648V22.1321H480.921ZM507.239 21.6593C511.139 21.6593 514.291 22.9004 516.695 25.3825C519.098 27.8252 520.3 31.2529 520.3 35.6655V54.8723H512.026V36.7884C512.026 34.1881 511.376 32.1984 510.076 30.8195C508.775 29.4011 507.003 28.692 504.757 28.692C502.472 28.692 500.659 29.4011 499.32 30.8195C498.02 32.1984 497.37 34.1881 497.37 36.7884V54.8723H489.096V22.1321H497.37V26.2098C498.473 24.7915 499.871 23.6883 501.566 22.9004C503.299 22.073 505.19 21.6593 507.239 21.6593ZM540.992 21.6002C543.434 21.6002 545.582 22.0927 547.433 23.0777C549.285 24.0232 550.743 25.2643 551.807 26.8008V22.1321H560.139V55.1087C560.139 58.1424 559.529 60.8412 558.307 63.2051C557.086 65.6084 555.254 67.4996 552.811 68.8785C550.369 70.2969 547.414 71.006 543.947 71.006C539.298 71.006 535.476 69.9226 532.482 67.7557C529.527 65.5887 527.852 62.6338 527.458 58.891H535.673C536.106 60.3881 537.032 61.5701 538.45 62.4368C539.908 63.343 541.661 63.7961 543.71 63.7961C546.113 63.7961 548.064 63.0672 549.561 61.6095C551.058 60.1911 551.807 58.0242 551.807 55.1087V50.0263C550.743 51.5628 549.265 52.8433 547.374 53.8677C545.522 54.892 543.395 55.4042 540.992 55.4042C538.234 55.4042 535.712 54.695 533.427 53.2767C531.142 51.8583 529.33 49.8687 527.99 47.3078C526.69 44.7075 526.04 41.7329 526.04 38.384C526.04 35.0745 526.69 32.1393 527.99 29.5784C529.33 27.0175 531.122 25.0476 533.368 23.6686C535.653 22.2897 538.194 21.6002 540.992 21.6002ZM551.807 38.5022C551.807 36.4929 551.413 34.779 550.625 33.3607C549.837 31.9029 548.773 30.7998 547.433 30.0512C546.094 29.2632 544.656 28.8692 543.119 28.8692C541.583 28.8692 540.164 29.2435 538.864 29.9921C537.564 30.7407 536.5 31.8438 535.673 33.3016C534.885 34.7199 534.491 36.4141 534.491 38.384C534.491 40.3539 534.885 42.0875 535.673 43.5846C536.5 45.0424 537.564 46.1652 538.864 46.9532C540.204 47.7412 541.622 48.1352 543.119 48.1352C544.656 48.1352 546.094 47.7609 547.433 47.0123C548.773 46.2243 549.837 45.1212 550.625 43.7028C551.413 42.2451 551.807 40.5115 551.807 38.5022Z" fill="#362869"/>
<path d="M0.952953 85.674C0.952953 84.167 1.29277 82.8152 1.97239 81.6184C2.65202 80.4069 3.57542 79.4613 4.7426 78.7817C5.92456 78.1021 7.2321 77.7623 8.66523 77.7623C10.3495 77.7623 11.8196 78.1686 13.0754 78.9812C14.3312 79.7938 15.2473 80.9462 15.8235 82.4384H13.4078C12.9794 81.5076 12.3588 80.7911 11.5462 80.2887C10.7484 79.7864 9.78809 79.5352 8.66523 79.5352C7.58669 79.5352 6.61896 79.7864 5.76204 80.2887C4.90512 80.7911 4.23289 81.5076 3.74533 82.4384C3.25777 83.3544 3.01399 84.433 3.01399 85.674C3.01399 86.9003 3.25777 87.9788 3.74533 88.9096C4.23289 89.8256 4.90512 90.5348 5.76204 91.0371C6.61896 91.5395 7.58669 91.7906 8.66523 91.7906C9.78809 91.7906 10.7484 91.5469 11.5462 91.0593C12.3588 90.557 12.9794 89.8404 13.4078 88.9096H15.8235C15.2473 90.3871 14.3312 91.5321 13.0754 92.3447C11.8196 93.1425 10.3495 93.5414 8.66523 93.5414C7.2321 93.5414 5.92456 93.209 4.7426 92.5441C3.57542 91.8645 2.65202 90.9263 1.97239 89.7296C1.29277 88.5329 0.952953 87.181 0.952953 85.674ZM20.8422 77.0088V93.4084H18.8255V77.0088H20.8422ZM25.321 79.2914C24.9368 79.2914 24.6118 79.1585 24.3458 78.8925C24.0799 78.6266 23.9469 78.3016 23.9469 77.9174C23.9469 77.5333 24.0799 77.2082 24.3458 76.9423C24.6118 76.6764 24.9368 76.5434 25.321 76.5434C25.6903 76.5434 26.0006 76.6764 26.2517 76.9423C26.5177 77.2082 26.6507 77.5333 26.6507 77.9174C26.6507 78.3016 26.5177 78.6266 26.2517 78.8925C26.0006 79.1585 25.6903 79.2914 25.321 79.2914ZM26.2961 81.2638V93.4084H24.2794V81.2638H26.2961ZM44.3378 81.0422C45.2833 81.0422 46.1255 81.2417 46.8642 81.6406C47.6029 82.0247 48.1865 82.6083 48.615 83.3914C49.0434 84.1744 49.2577 85.1274 49.2577 86.2502V93.4084H47.2631V86.5383C47.2631 85.3268 46.9602 84.4034 46.3545 83.7681C45.7635 83.118 44.9583 82.793 43.9389 82.793C42.8899 82.793 42.0551 83.1328 41.4346 83.8124C40.8141 84.4773 40.5038 85.445 40.5038 86.7156V93.4084H38.5092V86.5383C38.5092 85.3268 38.2064 84.4034 37.6006 83.7681C37.0096 83.118 36.2044 82.793 35.185 82.793C34.136 82.793 33.3012 83.1328 32.6807 83.8124C32.0602 84.4773 31.7499 85.445 31.7499 86.7156V93.4084H29.7332V81.2638H31.7499V83.0146C32.1488 82.3793 32.6807 81.8917 33.3456 81.5519C34.0252 81.2121 34.7713 81.0422 35.5839 81.0422C36.6033 81.0422 37.5046 81.2712 38.2876 81.7292C39.0707 82.1872 39.6543 82.8595 40.0384 83.7459C40.3782 82.889 40.9396 82.2242 41.7227 81.7514C42.5057 81.2786 43.3774 81.0422 44.3378 81.0422ZM54.5825 83.5243C54.9962 82.8004 55.602 82.2094 56.3998 81.7514C57.1976 81.2934 58.1063 81.0644 59.1257 81.0644C60.219 81.0644 61.2015 81.3229 62.0732 81.84C62.9449 82.3571 63.6319 83.0885 64.1342 84.034C64.6366 84.9648 64.8877 86.0508 64.8877 87.2918C64.8877 88.5181 64.6366 89.6114 64.1342 90.5717C63.6319 91.5321 62.9375 92.2782 62.051 92.8101C61.1793 93.342 60.2042 93.6079 59.1257 93.6079C58.0767 93.6079 57.1533 93.3789 56.3555 92.9209C55.5724 92.4629 54.9815 91.8793 54.5825 91.1701V93.4084H52.5658V77.0088H54.5825V83.5243ZM62.8267 87.2918C62.8267 86.3758 62.642 85.578 62.2727 84.8984C61.9033 84.2187 61.401 83.7016 60.7657 83.347C60.1451 82.9924 59.4581 82.8152 58.7046 82.8152C57.9659 82.8152 57.2789 82.9998 56.6436 83.3692C56.0231 83.7238 55.5207 84.2483 55.1366 84.9427C54.7672 85.6223 54.5825 86.4127 54.5825 87.314C54.5825 88.23 54.7672 89.0352 55.1366 89.7296C55.5207 90.4092 56.0231 90.9337 56.6436 91.3031C57.2789 91.6577 57.9659 91.835 58.7046 91.835C59.4581 91.835 60.1451 91.6577 60.7657 91.3031C61.401 90.9337 61.9033 90.4092 62.2727 89.7296C62.642 89.0352 62.8267 88.2226 62.8267 87.2918ZM77.75 93.6079C76.8192 93.6079 75.9845 93.4528 75.2457 93.1425C74.507 92.8175 73.9234 92.3742 73.495 91.8128C73.0665 91.2366 72.8301 90.5791 72.7858 89.8404H74.869C74.9281 90.4462 75.2088 90.9411 75.7111 91.3252C76.2282 91.7094 76.9005 91.9015 77.7278 91.9015C78.4961 91.9015 79.1019 91.7315 79.5451 91.3917C79.9883 91.0519 80.21 90.6235 80.21 90.1064C80.21 89.5745 79.9736 89.1829 79.5008 88.9318C79.028 88.6658 78.2967 88.4073 77.3068 88.1561C76.4055 87.9197 75.6668 87.6833 75.0906 87.4469C74.5292 87.1958 74.0416 86.8338 73.6279 86.361C73.229 85.8735 73.0296 85.2382 73.0296 84.4551C73.0296 83.8346 73.2142 83.2658 73.5836 82.7487C73.953 82.2316 74.4775 81.8253 75.1571 81.5298C75.8367 81.2195 76.6124 81.0644 77.4841 81.0644C78.8285 81.0644 79.9145 81.4042 80.7418 82.0838C81.5692 82.7634 82.0124 83.6942 82.0715 84.8762H80.0548C80.0105 84.2409 79.7519 83.7312 79.2792 83.347C78.8212 82.9629 78.2006 82.7708 77.4176 82.7708C76.6936 82.7708 76.1174 82.926 75.689 83.2362C75.2605 83.5465 75.0463 83.9528 75.0463 84.4551C75.0463 84.854 75.1719 85.1865 75.423 85.4524C75.689 85.7036 76.014 85.9104 76.3981 86.0729C76.7971 86.2207 77.3437 86.3906 78.0381 86.5826C78.9098 86.819 79.619 87.0554 80.1656 87.2918C80.7123 87.5134 81.1777 87.8532 81.5618 88.3113C81.9607 88.7693 82.1676 89.3676 82.1823 90.1064C82.1823 90.7712 81.9977 91.3696 81.6283 91.9015C81.2589 92.4333 80.7345 92.8544 80.0548 93.1647C79.39 93.4602 78.6217 93.6079 77.75 93.6079ZM96.1101 86.8707C96.1101 87.2549 96.0879 87.6612 96.0436 88.0896H86.3368C86.4107 89.2864 86.817 90.2245 87.5557 90.9042C88.3092 91.569 89.2178 91.9015 90.2816 91.9015C91.1533 91.9015 91.8772 91.702 92.4534 91.3031C93.0444 90.8894 93.4581 90.3427 93.6945 89.6631H95.8663C95.5413 90.8303 94.8912 91.7833 93.9161 92.522C92.941 93.2459 91.7295 93.6079 90.2816 93.6079C89.1292 93.6079 88.095 93.3493 87.1789 92.8322C86.2777 92.3151 85.5685 91.5838 85.0514 90.6382C84.5343 89.6779 84.2758 88.5698 84.2758 87.314C84.2758 86.0581 84.5269 84.9575 85.0293 84.0119C85.5316 83.0663 86.2334 82.3424 87.1346 81.84C88.0506 81.3229 89.0996 81.0644 90.2816 81.0644C91.434 81.0644 92.4534 81.3155 93.3399 81.8179C94.2264 82.3202 94.906 83.0146 95.3788 83.9011C95.8663 84.7728 96.1101 85.7627 96.1101 86.8707ZM94.0269 86.4497C94.0269 85.6814 93.857 85.0239 93.5172 84.4773C93.1774 83.9159 92.712 83.4948 92.121 83.2141C91.5448 82.9186 90.9021 82.7708 90.1929 82.7708C89.1735 82.7708 88.3018 83.0959 87.5779 83.7459C86.8687 84.396 86.4624 85.2973 86.359 86.4497H94.0269ZM98.0186 87.2918C98.0186 86.0508 98.2698 84.9648 98.7721 84.034C99.2744 83.0885 99.9615 82.3571 100.833 81.84C101.72 81.3229 102.702 81.0644 103.781 81.0644C104.844 81.0644 105.768 81.2934 106.551 81.7514C107.334 82.2094 107.918 82.7856 108.302 83.48V81.2638H110.341V93.4084H108.302V91.148C107.903 91.8571 107.304 92.4481 106.507 92.9209C105.723 93.3789 104.807 93.6079 103.758 93.6079C102.68 93.6079 101.705 93.342 100.833 92.8101C99.9615 92.2782 99.2744 91.5321 98.7721 90.5717C98.2698 89.6114 98.0186 88.5181 98.0186 87.2918ZM108.302 87.314C108.302 86.398 108.117 85.6001 107.748 84.9205C107.378 84.2409 106.876 83.7238 106.241 83.3692C105.62 82.9998 104.933 82.8152 104.18 82.8152C103.426 82.8152 102.739 82.9924 102.119 83.347C101.498 83.7016 101.003 84.2187 100.634 84.8984C100.264 85.578 100.08 86.3758 100.08 87.2918C100.08 88.2226 100.264 89.0352 100.634 89.7296C101.003 90.4092 101.498 90.9337 102.119 91.3031C102.739 91.6577 103.426 91.835 104.18 91.835C104.933 91.835 105.62 91.6577 106.241 91.3031C106.876 90.9337 107.378 90.4092 107.748 89.7296C108.117 89.0352 108.302 88.23 108.302 87.314ZM115.765 83.2362C116.12 82.5418 116.622 82.0026 117.272 81.6184C117.937 81.2343 118.742 81.0422 119.688 81.0422V83.1254H119.156C116.896 83.1254 115.765 84.3517 115.765 86.8043V93.4084H113.749V81.2638H115.765V83.2362ZM121.262 87.314C121.262 86.0581 121.514 84.9648 122.016 84.034C122.518 83.0885 123.213 82.3571 124.099 81.84C125 81.3229 126.027 81.0644 127.18 81.0644C128.672 81.0644 129.898 81.4264 130.858 82.1503C131.834 82.8743 132.476 83.8789 132.787 85.1643H130.615C130.408 84.4256 130.002 83.842 129.396 83.4135C128.805 82.9851 128.066 82.7708 127.18 82.7708C126.027 82.7708 125.096 83.1697 124.387 83.9676C123.678 84.7506 123.323 85.8661 123.323 87.314C123.323 88.7767 123.678 89.9069 124.387 90.7047C125.096 91.5025 126.027 91.9015 127.18 91.9015C128.066 91.9015 128.805 91.6946 129.396 91.2809C129.987 90.8672 130.393 90.2763 130.615 89.508H132.787C132.461 90.749 131.811 91.7463 130.836 92.4998C129.861 93.2385 128.642 93.6079 127.18 93.6079C126.027 93.6079 125 93.3493 124.099 92.8322C123.213 92.3151 122.518 91.5838 122.016 90.6382C121.514 89.6927 121.262 88.5846 121.262 87.314ZM141.505 81.0422C142.421 81.0422 143.249 81.2417 143.988 81.6406C144.726 82.0247 145.302 82.6083 145.716 83.3914C146.145 84.1744 146.359 85.1274 146.359 86.2502V93.4084H144.364V86.5383C144.364 85.3268 144.061 84.4034 143.456 83.7681C142.85 83.118 142.023 82.793 140.974 82.793C139.91 82.793 139.06 83.1254 138.425 83.7903C137.804 84.4551 137.494 85.4228 137.494 86.6935V93.4084H135.477V77.0088H137.494V82.9924C137.893 82.3719 138.44 81.8917 139.134 81.5519C139.843 81.2121 140.634 81.0422 141.505 81.0422ZM157.578 83.2362C157.933 82.5418 158.435 82.0026 159.085 81.6184C159.75 81.2343 160.555 81.0422 161.501 81.0422V83.1254H160.969C158.708 83.1254 157.578 84.3517 157.578 86.8043V93.4084H155.561V81.2638H157.578V83.2362ZM163.075 87.2918C163.075 86.0508 163.326 84.9648 163.829 84.034C164.331 83.0885 165.018 82.3571 165.89 81.84C166.776 81.3229 167.759 81.0644 168.837 81.0644C169.901 81.0644 170.825 81.2934 171.608 81.7514C172.391 82.2094 172.974 82.7856 173.358 83.48V81.2638H175.397V93.4084H173.358V91.148C172.959 91.8571 172.361 92.4481 171.563 92.9209C170.78 93.3789 169.864 93.6079 168.815 93.6079C167.737 93.6079 166.762 93.342 165.89 92.8101C165.018 92.2782 164.331 91.5321 163.829 90.5717C163.326 89.6114 163.075 88.5181 163.075 87.2918ZM173.358 87.314C173.358 86.398 173.174 85.6001 172.804 84.9205C172.435 84.2409 171.933 83.7238 171.297 83.3692C170.677 82.9998 169.99 82.8152 169.236 82.8152C168.483 82.8152 167.796 82.9924 167.175 83.347C166.555 83.7016 166.06 84.2187 165.69 84.8984C165.321 85.578 165.136 86.3758 165.136 87.2918C165.136 88.2226 165.321 89.0352 165.69 89.7296C166.06 90.4092 166.555 90.9337 167.175 91.3031C167.796 91.6577 168.483 91.835 169.236 91.835C169.99 91.835 170.677 91.6577 171.297 91.3031C171.933 90.9337 172.435 90.4092 172.804 89.7296C173.174 89.0352 173.358 88.23 173.358 87.314ZM184.722 81.0422C186.2 81.0422 187.397 81.4928 188.313 82.3941C189.229 83.2805 189.687 84.5659 189.687 86.2502V93.4084H187.692V86.5383C187.692 85.3268 187.389 84.4034 186.784 83.7681C186.178 83.118 185.35 82.793 184.301 82.793C183.238 82.793 182.388 83.1254 181.753 83.7903C181.132 84.4551 180.822 85.4228 180.822 86.6935V93.4084H178.805V81.2638H180.822V82.9924C181.221 82.3719 181.76 81.8917 182.44 81.5519C183.134 81.2121 183.895 81.0422 184.722 81.0422ZM199.762 93.4084L194.998 88.0453V93.4084H192.981V77.0088H194.998V86.6491L199.674 81.2638H202.488L196.771 87.314L202.511 93.4084H199.762ZM205.428 79.2914C205.044 79.2914 204.719 79.1585 204.453 78.8925C204.187 78.6266 204.054 78.3016 204.054 77.9174C204.054 77.5333 204.187 77.2082 204.453 76.9423C204.719 76.6764 205.044 76.5434 205.428 76.5434C205.797 76.5434 206.108 76.6764 206.359 76.9423C206.625 77.2082 206.758 77.5333 206.758 77.9174C206.758 78.3016 206.625 78.6266 206.359 78.8925C206.108 79.1585 205.797 79.2914 205.428 79.2914ZM206.403 81.2638V93.4084H204.386V81.2638H206.403ZM215.758 81.0422C217.235 81.0422 218.432 81.4928 219.348 82.3941C220.264 83.2805 220.722 84.5659 220.722 86.2502V93.4084H218.727V86.5383C218.727 85.3268 218.424 84.4034 217.819 83.7681C217.213 83.118 216.385 82.793 215.336 82.793C214.273 82.793 213.423 83.1254 212.788 83.7903C212.167 84.4551 211.857 85.4228 211.857 86.6935V93.4084H209.84V81.2638H211.857V82.9924C212.256 82.3719 212.795 81.8917 213.475 81.5519C214.169 81.2121 214.93 81.0422 215.758 81.0422ZM229.025 81.0644C230.074 81.0644 230.99 81.2934 231.773 81.7514C232.57 82.2094 233.161 82.7856 233.546 83.48V81.2638H235.584V93.6744C235.584 94.7825 235.348 95.765 234.875 96.6219C234.402 97.4936 233.723 98.1732 232.836 98.6608C231.965 99.1483 230.945 99.3921 229.778 99.3921C228.182 99.3921 226.853 99.0154 225.789 98.2619C224.725 97.5084 224.097 96.4815 223.905 95.1814H225.9C226.121 95.9201 226.579 96.5111 227.274 96.9543C227.968 97.4123 228.803 97.6413 229.778 97.6413C230.886 97.6413 231.787 97.2941 232.482 96.5997C233.191 95.9053 233.546 94.9302 233.546 93.6744V91.1258C233.147 91.835 232.556 92.4259 231.773 92.8987C230.99 93.3715 230.074 93.6079 229.025 93.6079C227.946 93.6079 226.964 93.342 226.077 92.8101C225.205 92.2782 224.518 91.5321 224.016 90.5717C223.514 89.6114 223.263 88.5181 223.263 87.2918C223.263 86.0508 223.514 84.9648 224.016 84.034C224.518 83.0885 225.205 82.3571 226.077 81.84C226.964 81.3229 227.946 81.0644 229.025 81.0644ZM233.546 87.314C233.546 86.398 233.361 85.6001 232.992 84.9205C232.622 84.2409 232.12 83.7238 231.485 83.3692C230.864 82.9998 230.177 82.8152 229.423 82.8152C228.67 82.8152 227.983 82.9924 227.362 83.347C226.742 83.7016 226.247 84.2187 225.878 84.8984C225.508 85.578 225.324 86.3758 225.324 87.2918C225.324 88.2226 225.508 89.0352 225.878 89.7296C226.247 90.4092 226.742 90.9337 227.362 91.3031C227.983 91.6577 228.67 91.835 229.423 91.835C230.177 91.835 230.864 91.6577 231.485 91.3031C232.12 90.9337 232.622 90.4092 232.992 89.7296C233.361 89.0352 233.546 88.23 233.546 87.314ZM243.292 93.6079C242.361 93.6079 241.526 93.4528 240.788 93.1425C240.049 92.8175 239.465 92.3742 239.037 91.8128C238.608 91.2366 238.372 90.5791 238.328 89.8404H240.411C240.47 90.4462 240.751 90.9411 241.253 91.3252C241.77 91.7094 242.442 91.9015 243.27 91.9015C244.038 91.9015 244.644 91.7315 245.087 91.3917C245.53 91.0519 245.752 90.6235 245.752 90.1064C245.752 89.5745 245.515 89.1829 245.043 88.9318C244.57 88.6658 243.839 88.4073 242.849 88.1561C241.947 87.9197 241.209 87.6833 240.632 87.4469C240.071 87.1958 239.583 86.8338 239.17 86.361C238.771 85.8735 238.571 85.2382 238.571 84.4551C238.571 83.8346 238.756 83.2658 239.125 82.7487C239.495 82.2316 240.019 81.8253 240.699 81.5298C241.379 81.2195 242.154 81.0644 243.026 81.0644C244.37 81.0644 245.456 81.4042 246.284 82.0838C247.111 82.7634 247.554 83.6942 247.613 84.8762H245.597C245.552 84.2409 245.294 83.7312 244.821 83.347C244.363 82.9629 243.742 82.7708 242.959 82.7708C242.235 82.7708 241.659 82.926 241.231 83.2362C240.802 83.5465 240.588 83.9528 240.588 84.4551C240.588 84.854 240.714 85.1865 240.965 85.4524C241.231 85.7036 241.556 85.9104 241.94 86.0729C242.339 86.2207 242.886 86.3906 243.58 86.5826C244.452 86.819 245.161 87.0554 245.707 87.2918C246.254 87.5134 246.72 87.8532 247.104 88.3113C247.503 88.7693 247.709 89.3676 247.724 90.1064C247.724 90.7712 247.54 91.3696 247.17 91.9015C246.801 92.4333 246.276 92.8544 245.597 93.1647C244.932 93.4602 244.164 93.6079 243.292 93.6079ZM255.726 87.2918C255.726 86.0508 255.977 84.9648 256.479 84.034C256.982 83.0885 257.669 82.3571 258.54 81.84C259.427 81.3229 260.409 81.0644 261.488 81.0644C262.552 81.0644 263.475 81.2934 264.258 81.7514C265.041 82.2094 265.625 82.7856 266.009 83.48V81.2638H268.048V93.4084H266.009V91.148C265.61 91.8571 265.012 92.4481 264.214 92.9209C263.431 93.3789 262.515 93.6079 261.466 93.6079C260.387 93.6079 259.412 93.342 258.54 92.8101C257.669 92.2782 256.982 91.5321 256.479 90.5717C255.977 89.6114 255.726 88.5181 255.726 87.2918ZM266.009 87.314C266.009 86.398 265.824 85.6001 265.455 84.9205C265.086 84.2409 264.583 83.7238 263.948 83.3692C263.327 82.9998 262.64 82.8152 261.887 82.8152C261.133 82.8152 260.446 82.9924 259.826 83.347C259.205 83.7016 258.71 84.2187 258.341 84.8984C257.972 85.578 257.787 86.3758 257.787 87.2918C257.787 88.2226 257.972 89.0352 258.341 89.7296C258.71 90.4092 259.205 90.9337 259.826 91.3031C260.446 91.6577 261.133 91.835 261.887 91.835C262.64 91.835 263.327 91.6577 263.948 91.3031C264.583 90.9337 265.086 90.4092 265.455 89.7296C265.824 89.0352 266.009 88.23 266.009 87.314ZM277.373 81.0422C278.851 81.0422 280.047 81.4928 280.963 82.3941C281.879 83.2805 282.337 84.5659 282.337 86.2502V93.4084H280.343V86.5383C280.343 85.3268 280.04 84.4034 279.434 83.7681C278.828 83.118 278.001 82.793 276.952 82.793C275.888 82.793 275.039 83.1254 274.403 83.7903C273.783 84.4551 273.473 85.4228 273.473 86.6935V93.4084H271.456V81.2638H273.473V82.9924C273.872 82.3719 274.411 81.8917 275.09 81.5519C275.785 81.2121 276.546 81.0422 277.373 81.0422ZM284.878 87.2918C284.878 86.0508 285.129 84.9648 285.632 84.034C286.134 83.0885 286.821 82.3571 287.693 81.84C288.579 81.3229 289.569 81.0644 290.662 81.0644C291.608 81.0644 292.487 81.286 293.3 81.7292C294.112 82.1577 294.733 82.7265 295.161 83.4357V77.0088H297.2V93.4084H295.161V91.1258C294.762 91.8497 294.171 92.4481 293.388 92.9209C292.605 93.3789 291.689 93.6079 290.64 93.6079C289.562 93.6079 288.579 93.342 287.693 92.8101C286.821 92.2782 286.134 91.5321 285.632 90.5717C285.129 89.6114 284.878 88.5181 284.878 87.2918ZM295.161 87.314C295.161 86.398 294.976 85.6001 294.607 84.9205C294.238 84.2409 293.735 83.7238 293.1 83.3692C292.48 82.9998 291.793 82.8152 291.039 82.8152C290.286 82.8152 289.599 82.9924 288.978 83.347C288.358 83.7016 287.863 84.2187 287.493 84.8984C287.124 85.578 286.939 86.3758 286.939 87.2918C286.939 88.2226 287.124 89.0352 287.493 89.7296C287.863 90.4092 288.358 90.9337 288.978 91.3031C289.599 91.6577 290.286 91.835 291.039 91.835C291.793 91.835 292.48 91.6577 293.1 91.3031C293.735 90.9337 294.238 90.4092 294.607 89.7296C294.976 89.0352 295.161 88.23 295.161 87.314ZM310.816 93.6079C309.885 93.6079 309.05 93.4528 308.312 93.1425C307.573 92.8175 306.989 92.3742 306.561 91.8128C306.132 91.2366 305.896 90.5791 305.852 89.8404H307.935C307.994 90.4462 308.275 90.9411 308.777 91.3252C309.294 91.7094 309.966 91.9015 310.794 91.9015C311.562 91.9015 312.168 91.7315 312.611 91.3917C313.054 91.0519 313.276 90.6235 313.276 90.1064C313.276 89.5745 313.039 89.1829 312.567 88.9318C312.094 88.6658 311.362 88.4073 310.373 88.1561C309.471 87.9197 308.733 87.6833 308.156 87.4469C307.595 87.1958 307.107 86.8338 306.694 86.361C306.295 85.8735 306.095 85.2382 306.095 84.4551C306.095 83.8346 306.28 83.2658 306.649 82.7487C307.019 82.2316 307.543 81.8253 308.223 81.5298C308.903 81.2195 309.678 81.0644 310.55 81.0644C311.894 81.0644 312.98 81.4042 313.808 82.0838C314.635 82.7634 315.078 83.6942 315.137 84.8762H313.121C313.076 84.2409 312.818 83.7312 312.345 83.347C311.887 82.9629 311.266 82.7708 310.483 82.7708C309.759 82.7708 309.183 82.926 308.755 83.2362C308.326 83.5465 308.112 83.9528 308.112 84.4551C308.112 84.854 308.238 85.1865 308.489 85.4524C308.755 85.7036 309.08 85.9104 309.464 86.0729C309.863 86.2207 310.41 86.3906 311.104 86.5826C311.976 86.819 312.685 87.0554 313.231 87.2918C313.778 87.5134 314.243 87.8532 314.628 88.3113C315.027 88.7693 315.233 89.3676 315.248 90.1064C315.248 90.7712 315.063 91.3696 314.694 91.9015C314.325 92.4333 313.8 92.8544 313.121 93.1647C312.456 93.4602 311.688 93.6079 310.816 93.6079ZM328.866 81.2638V93.4084H326.849V91.6133C326.465 92.2339 325.926 92.7214 325.231 93.076C324.552 93.4158 323.798 93.5857 322.971 93.5857C322.025 93.5857 321.176 93.3937 320.422 93.0095C319.669 92.6106 319.07 92.0196 318.627 91.2366C318.198 90.4536 317.984 89.5006 317.984 88.3777V81.2638H319.979V88.1118C319.979 89.3085 320.282 90.2319 320.887 90.882C321.493 91.5173 322.321 91.835 323.37 91.835C324.448 91.835 325.298 91.5025 325.918 90.8377C326.539 90.1728 326.849 89.2051 326.849 87.9345V81.2638H328.866ZM336.57 93.6079C335.639 93.6079 334.805 93.4528 334.066 93.1425C333.327 92.8175 332.744 92.3742 332.315 91.8128C331.887 91.2366 331.65 90.5791 331.606 89.8404H333.689C333.748 90.4462 334.029 90.9411 334.531 91.3252C335.048 91.7094 335.721 91.9015 336.548 91.9015C337.316 91.9015 337.922 91.7315 338.365 91.3917C338.808 91.0519 339.03 90.6235 339.03 90.1064C339.03 89.5745 338.794 89.1829 338.321 88.9318C337.848 88.6658 337.117 88.4073 336.127 88.1561C335.226 87.9197 334.487 87.6833 333.911 87.4469C333.349 87.1958 332.862 86.8338 332.448 86.361C332.049 85.8735 331.85 85.2382 331.85 84.4551C331.85 83.8346 332.034 83.2658 332.404 82.7487C332.773 82.2316 333.298 81.8253 333.977 81.5298C334.657 81.2195 335.432 81.0644 336.304 81.0644C337.649 81.0644 338.735 81.4042 339.562 82.0838C340.389 82.7634 340.833 83.6942 340.892 84.8762H338.875C338.831 84.2409 338.572 83.7312 338.099 83.347C337.641 82.9629 337.021 82.7708 336.238 82.7708C335.514 82.7708 334.938 82.926 334.509 83.2362C334.081 83.5465 333.866 83.9528 333.866 84.4551C333.866 84.854 333.992 85.1865 334.243 85.4524C334.509 85.7036 334.834 85.9104 335.218 86.0729C335.617 86.2207 336.164 86.3906 336.858 86.5826C337.73 86.819 338.439 87.0554 338.986 87.2918C339.532 87.5134 339.998 87.8532 340.382 88.3113C340.781 88.7693 340.988 89.3676 341.002 90.1064C341.002 90.7712 340.818 91.3696 340.448 91.9015C340.079 92.4333 339.555 92.8544 338.875 93.1647C338.21 93.4602 337.442 93.6079 336.57 93.6079ZM346.309 82.926V90.0842C346.309 90.6752 346.435 91.0962 346.686 91.3474C346.937 91.5838 347.373 91.702 347.994 91.702H349.478V93.4084H347.661C346.538 93.4084 345.696 93.1499 345.135 92.6328C344.573 92.1157 344.293 91.2661 344.293 90.0842V82.926H342.719V81.2638H344.293V78.2055H346.309V81.2638H349.478V82.926H346.309ZM351.168 87.2918C351.168 86.0508 351.42 84.9648 351.922 84.034C352.424 83.0885 353.111 82.3571 353.983 81.84C354.869 81.3229 355.852 81.0644 356.931 81.0644C357.994 81.0644 358.918 81.2934 359.701 81.7514C360.484 82.2094 361.067 82.7856 361.451 83.48V81.2638H363.49V93.4084H361.451V91.148C361.053 91.8571 360.454 92.4481 359.656 92.9209C358.873 93.3789 357.957 93.6079 356.908 93.6079C355.83 93.6079 354.855 93.342 353.983 92.8101C353.111 92.2782 352.424 91.5321 351.922 90.5717C351.42 89.6114 351.168 88.5181 351.168 87.2918ZM361.451 87.314C361.451 86.398 361.267 85.6001 360.897 84.9205C360.528 84.2409 360.026 83.7238 359.39 83.3692C358.77 82.9998 358.083 82.8152 357.329 82.8152C356.576 82.8152 355.889 82.9924 355.268 83.347C354.648 83.7016 354.153 84.2187 353.784 84.8984C353.414 85.578 353.23 86.3758 353.23 87.2918C353.23 88.2226 353.414 89.0352 353.784 89.7296C354.153 90.4092 354.648 90.9337 355.268 91.3031C355.889 91.6577 356.576 91.835 357.329 91.835C358.083 91.835 358.77 91.6577 359.39 91.3031C360.026 90.9337 360.528 90.4092 360.897 89.7296C361.267 89.0352 361.451 88.23 361.451 87.314ZM367.94 79.2914C367.556 79.2914 367.231 79.1585 366.965 78.8925C366.699 78.6266 366.566 78.3016 366.566 77.9174C366.566 77.5333 366.699 77.2082 366.965 76.9423C367.231 76.6764 367.556 76.5434 367.94 76.5434C368.309 76.5434 368.62 76.6764 368.871 76.9423C369.137 77.2082 369.27 77.5333 369.27 77.9174C369.27 78.3016 369.137 78.6266 368.871 78.8925C368.62 79.1585 368.309 79.2914 367.94 79.2914ZM368.915 81.2638V93.4084H366.898V81.2638H368.915ZM378.269 81.0422C379.747 81.0422 380.944 81.4928 381.86 82.3941C382.776 83.2805 383.234 84.5659 383.234 86.2502V93.4084H381.239V86.5383C381.239 85.3268 380.936 84.4034 380.33 83.7681C379.725 83.118 378.897 82.793 377.848 82.793C376.785 82.793 375.935 83.1254 375.3 83.7903C374.679 84.4551 374.369 85.4228 374.369 86.6935V93.4084H372.352V81.2638H374.369V82.9924C374.768 82.3719 375.307 81.8917 375.987 81.5519C376.681 81.2121 377.442 81.0422 378.269 81.0422ZM394.453 77.0088V93.4084H392.436V77.0088H394.453ZM403.187 93.6079C402.049 93.6079 401.015 93.3493 400.084 92.8322C399.168 92.3151 398.444 91.5838 397.912 90.6382C397.395 89.6779 397.137 88.5698 397.137 87.314C397.137 86.0729 397.403 84.9796 397.934 84.034C398.481 83.0737 399.22 82.3424 400.151 81.84C401.081 81.3229 402.123 81.0644 403.275 81.0644C404.428 81.0644 405.469 81.3229 406.4 81.84C407.331 82.3424 408.062 83.0663 408.594 84.0119C409.141 84.9575 409.414 86.0581 409.414 87.314C409.414 88.5698 409.134 89.6779 408.572 90.6382C408.025 91.5838 407.279 92.3151 406.334 92.8322C405.388 93.3493 404.339 93.6079 403.187 93.6079ZM403.187 91.835C403.911 91.835 404.59 91.6651 405.226 91.3252C405.861 90.9854 406.371 90.4757 406.755 89.7961C407.154 89.1165 407.353 88.2891 407.353 87.314C407.353 86.3389 407.161 85.5115 406.777 84.8319C406.393 84.1522 405.891 83.6499 405.27 83.3249C404.649 82.9851 403.977 82.8152 403.253 82.8152C402.515 82.8152 401.835 82.9851 401.214 83.3249C400.609 83.6499 400.121 84.1522 399.752 84.8319C399.382 85.5115 399.198 86.3389 399.198 87.314C399.198 88.3039 399.375 89.1386 399.73 89.8183C400.099 90.4979 400.587 91.0076 401.192 91.3474C401.798 91.6724 402.463 91.835 403.187 91.835ZM417.983 81.0422C419.461 81.0422 420.657 81.4928 421.573 82.3941C422.489 83.2805 422.947 84.5659 422.947 86.2502V93.4084H420.953V86.5383C420.953 85.3268 420.65 84.4034 420.044 83.7681C419.438 83.118 418.611 82.793 417.562 82.793C416.498 82.793 415.649 83.1254 415.013 83.7903C414.393 84.4551 414.083 85.4228 414.083 86.6935V93.4084H412.066V81.2638H414.083V82.9924C414.482 82.3719 415.021 81.8917 415.7 81.5519C416.395 81.2121 417.156 81.0422 417.983 81.0422ZM431.25 81.0644C432.299 81.0644 433.215 81.2934 433.998 81.7514C434.796 82.2094 435.387 82.7856 435.771 83.48V81.2638H437.81V93.6744C437.81 94.7825 437.574 95.765 437.101 96.6219C436.628 97.4936 435.948 98.1732 435.062 98.6608C434.19 99.1483 433.171 99.3921 432.004 99.3921C430.408 99.3921 429.078 99.0154 428.015 98.2619C426.951 97.5084 426.323 96.4815 426.131 95.1814H428.125C428.347 95.9201 428.805 96.5111 429.499 96.9543C430.194 97.4123 431.029 97.6413 432.004 97.6413C433.112 97.6413 434.013 97.2941 434.707 96.5997C435.417 95.9053 435.771 94.9302 435.771 93.6744V91.1258C435.372 91.835 434.781 92.4259 433.998 92.8987C433.215 93.3715 432.299 93.6079 431.25 93.6079C430.172 93.6079 429.189 93.342 428.303 92.8101C427.431 92.2782 426.744 91.5321 426.242 90.5717C425.739 89.6114 425.488 88.5181 425.488 87.2918C425.488 86.0508 425.739 84.9648 426.242 84.034C426.744 83.0885 427.431 82.3571 428.303 81.84C429.189 81.3229 430.172 81.0644 431.25 81.0644ZM435.771 87.314C435.771 86.398 435.586 85.6001 435.217 84.9205C434.848 84.2409 434.345 83.7238 433.71 83.3692C433.09 82.9998 432.403 82.8152 431.649 82.8152C430.896 82.8152 430.209 82.9924 429.588 83.347C428.967 83.7016 428.473 84.2187 428.103 84.8984C427.734 85.578 427.549 86.3758 427.549 87.2918C427.549 88.2226 427.734 89.0352 428.103 89.7296C428.473 90.4092 428.967 90.9337 429.588 91.3031C430.209 91.6577 430.896 91.835 431.649 91.835C432.403 91.835 433.09 91.6577 433.71 91.3031C434.345 90.9337 434.848 90.4092 435.217 89.7296C435.586 89.0352 435.771 88.23 435.771 87.314ZM449.639 84.433V86.1394H440.797V84.433H449.639ZM455.884 82.926V90.0842C455.884 90.6752 456.01 91.0962 456.261 91.3474C456.512 91.5838 456.948 91.702 457.569 91.702H459.053V93.4084H457.236C456.113 93.4084 455.271 93.1499 454.71 92.6328C454.148 92.1157 453.868 91.2661 453.868 90.0842V82.926H452.294V81.2638H453.868V78.2055H455.884V81.2638H459.053V82.926H455.884ZM472.578 86.8707C472.578 87.2549 472.556 87.6612 472.511 88.0896H462.804C462.878 89.2864 463.285 90.2245 464.023 90.9042C464.777 91.569 465.685 91.9015 466.749 91.9015C467.621 91.9015 468.345 91.702 468.921 91.3031C469.512 90.8894 469.926 90.3427 470.162 89.6631H472.334C472.009 90.8303 471.359 91.7833 470.384 92.522C469.409 93.2459 468.197 93.6079 466.749 93.6079C465.597 93.6079 464.563 93.3493 463.647 92.8322C462.745 92.3151 462.036 91.5838 461.519 90.6382C461.002 89.6779 460.743 88.5698 460.743 87.314C460.743 86.0581 460.995 84.9575 461.497 84.0119C461.999 83.0663 462.701 82.3424 463.602 81.84C464.518 81.3229 465.567 81.0644 466.749 81.0644C467.902 81.0644 468.921 81.3155 469.807 81.8179C470.694 82.3202 471.374 83.0146 471.846 83.9011C472.334 84.7728 472.578 85.7627 472.578 86.8707ZM470.495 86.4497C470.495 85.6814 470.325 85.0239 469.985 84.4773C469.645 83.9159 469.18 83.4948 468.589 83.2141C468.012 82.9186 467.37 82.7708 466.661 82.7708C465.641 82.7708 464.769 83.0959 464.045 83.7459C463.336 84.396 462.93 85.2973 462.827 86.4497H470.495ZM477.256 83.2362C477.611 82.5418 478.113 82.0026 478.763 81.6184C479.428 81.2343 480.233 81.0422 481.179 81.0422V83.1254H480.647C478.387 83.1254 477.256 84.3517 477.256 86.8043V93.4084H475.24V81.2638H477.256V83.2362ZM498.112 81.0422C499.057 81.0422 499.899 81.2417 500.638 81.6406C501.377 82.0247 501.96 82.6083 502.389 83.3914C502.817 84.1744 503.032 85.1274 503.032 86.2502V93.4084H501.037V86.5383C501.037 85.3268 500.734 84.4034 500.128 83.7681C499.537 83.118 498.732 82.793 497.713 82.793C496.664 82.793 495.829 83.1328 495.208 83.8124C494.588 84.4773 494.278 85.445 494.278 86.7156V93.4084H492.283V86.5383C492.283 85.3268 491.98 84.4034 491.374 83.7681C490.784 83.118 489.978 82.793 488.959 82.793C487.91 82.793 487.075 83.1328 486.455 83.8124C485.834 84.4773 485.524 85.445 485.524 86.7156V93.4084H483.507V81.2638H485.524V83.0146C485.923 82.3793 486.455 81.8917 487.119 81.5519C487.799 81.2121 488.545 81.0422 489.358 81.0422C490.377 81.0422 491.278 81.2712 492.061 81.7292C492.845 82.1872 493.428 82.8595 493.812 83.7459C494.152 82.889 494.714 82.2242 495.497 81.7514C496.28 81.2786 497.151 81.0422 498.112 81.0422ZM517.545 93.6079C516.407 93.6079 515.373 93.3493 514.442 92.8322C513.526 92.3151 512.802 91.5838 512.27 90.6382C511.753 89.6779 511.495 88.5698 511.495 87.314C511.495 86.0729 511.76 84.9796 512.292 84.034C512.839 83.0737 513.578 82.3424 514.509 81.84C515.439 81.3229 516.481 81.0644 517.633 81.0644C518.786 81.0644 519.827 81.3229 520.758 81.84C521.689 82.3424 522.42 83.0663 522.952 84.0119C523.499 84.9575 523.772 86.0581 523.772 87.314C523.772 88.5698 523.491 89.6779 522.93 90.6382C522.383 91.5838 521.637 92.3151 520.692 92.8322C519.746 93.3493 518.697 93.6079 517.545 93.6079ZM517.545 91.835C518.269 91.835 518.948 91.6651 519.584 91.3252C520.219 90.9854 520.729 90.4757 521.113 89.7961C521.512 89.1165 521.711 88.2891 521.711 87.314C521.711 86.3389 521.519 85.5115 521.135 84.8319C520.751 84.1522 520.248 83.6499 519.628 83.3249C519.007 82.9851 518.335 82.8152 517.611 82.8152C516.872 82.8152 516.193 82.9851 515.572 83.3249C514.967 83.6499 514.479 84.1522 514.11 84.8319C513.74 85.5115 513.556 86.3389 513.556 87.314C513.556 88.3039 513.733 89.1386 514.087 89.8183C514.457 90.4979 514.944 91.0076 515.55 91.3474C516.156 91.6724 516.821 91.835 517.545 91.835ZM528.44 83.2362C528.795 82.5418 529.297 82.0026 529.947 81.6184C530.612 81.2343 531.418 81.0422 532.363 81.0422V83.1254H531.831C529.571 83.1254 528.44 84.3517 528.44 86.8043V93.4084H526.424V81.2638H528.44V83.2362ZM539.7 81.0644C540.749 81.0644 541.665 81.2934 542.448 81.7514C543.245 82.2094 543.836 82.7856 544.221 83.48V81.2638H546.259V93.6744C546.259 94.7825 546.023 95.765 545.55 96.6219C545.078 97.4936 544.398 98.1732 543.511 98.6608C542.64 99.1483 541.62 99.3921 540.453 99.3921C538.857 99.3921 537.528 99.0154 536.464 98.2619C535.4 97.5084 534.772 96.4815 534.58 95.1814H536.575C536.796 95.9201 537.254 96.5111 537.949 96.9543C538.643 97.4123 539.478 97.6413 540.453 97.6413C541.561 97.6413 542.462 97.2941 543.157 96.5997C543.866 95.9053 544.221 94.9302 544.221 93.6744V91.1258C543.822 91.835 543.231 92.4259 542.448 92.8987C541.665 93.3715 540.749 93.6079 539.7 93.6079C538.621 93.6079 537.639 93.342 536.752 92.8101C535.88 92.2782 535.193 91.5321 534.691 90.5717C534.189 89.6114 533.938 88.5181 533.938 87.2918C533.938 86.0508 534.189 84.9648 534.691 84.034C535.193 83.0885 535.88 82.3571 536.752 81.84C537.639 81.3229 538.621 81.0644 539.7 81.0644ZM544.221 87.314C544.221 86.398 544.036 85.6001 543.667 84.9205C543.297 84.2409 542.795 83.7238 542.16 83.3692C541.539 82.9998 540.852 82.8152 540.099 82.8152C539.345 82.8152 538.658 82.9924 538.037 83.347C537.417 83.7016 536.922 84.2187 536.553 84.8984C536.183 85.578 535.999 86.3758 535.999 87.2918C535.999 88.2226 536.183 89.0352 536.553 89.7296C536.922 90.4092 537.417 90.9337 538.037 91.3031C538.658 91.6577 539.345 91.835 540.099 91.835C540.852 91.835 541.539 91.6577 542.16 91.3031C542.795 90.9337 543.297 90.4092 543.667 89.7296C544.036 89.0352 544.221 88.23 544.221 87.314ZM548.914 87.2918C548.914 86.0508 549.165 84.9648 549.668 84.034C550.17 83.0885 550.857 82.3571 551.729 81.84C552.615 81.3229 553.598 81.0644 554.676 81.0644C555.74 81.0644 556.663 81.2934 557.446 81.7514C558.229 82.2094 558.813 82.7856 559.197 83.48V81.2638H561.236V93.4084H559.197V91.148C558.798 91.8571 558.2 92.4481 557.402 92.9209C556.619 93.3789 555.703 93.6079 554.654 93.6079C553.575 93.6079 552.6 93.342 551.729 92.8101C550.857 92.2782 550.17 91.5321 549.668 90.5717C549.165 89.6114 548.914 88.5181 548.914 87.2918ZM559.197 87.314C559.197 86.398 559.012 85.6001 558.643 84.9205C558.274 84.2409 557.771 83.7238 557.136 83.3692C556.516 82.9998 555.829 82.8152 555.075 82.8152C554.322 82.8152 553.635 82.9924 553.014 83.347C552.393 83.7016 551.899 84.2187 551.529 84.8984C551.16 85.578 550.975 86.3758 550.975 87.2918C550.975 88.2226 551.16 89.0352 551.529 89.7296C551.899 90.4092 552.393 90.9337 553.014 91.3031C553.635 91.6577 554.322 91.835 555.075 91.835C555.829 91.835 556.516 91.6577 557.136 91.3031C557.771 90.9337 558.274 90.4092 558.643 89.7296C559.012 89.0352 559.197 88.23 559.197 87.314ZM570.561 81.0422C572.039 81.0422 573.235 81.4928 574.151 82.3941C575.067 83.2805 575.525 84.5659 575.525 86.2502V93.4084H573.531V86.5383C573.531 85.3268 573.228 84.4034 572.622 83.7681C572.016 83.118 571.189 82.793 570.14 82.793C569.076 82.793 568.227 83.1254 567.592 83.7903C566.971 84.4551 566.661 85.4228 566.661 86.6935V93.4084H564.644V81.2638H566.661V82.9924C567.06 82.3719 567.599 81.8917 568.279 81.5519C568.973 81.2121 569.734 81.0422 570.561 81.0422ZM579.861 79.2914C579.477 79.2914 579.152 79.1585 578.886 78.8925C578.62 78.6266 578.487 78.3016 578.487 77.9174C578.487 77.5333 578.62 77.2082 578.886 76.9423C579.152 76.6764 579.477 76.5434 579.861 76.5434C580.231 76.5434 580.541 76.6764 580.792 76.9423C581.058 77.2082 581.191 77.5333 581.191 77.9174C581.191 78.3016 581.058 78.6266 580.792 78.8925C580.541 79.1585 580.231 79.2914 579.861 79.2914ZM580.836 81.2638V93.4084H578.82V81.2638H580.836ZM583.52 87.314C583.52 86.0581 583.771 84.9648 584.274 84.034C584.776 83.0885 585.47 82.3571 586.357 81.84C587.258 81.3229 588.285 81.0644 589.437 81.0644C590.929 81.0644 592.156 81.4264 593.116 82.1503C594.091 82.8743 594.734 83.8789 595.044 85.1643H592.872C592.665 84.4256 592.259 83.842 591.653 83.4135C591.062 82.9851 590.324 82.7708 589.437 82.7708C588.285 82.7708 587.354 83.1697 586.645 83.9676C585.936 84.7506 585.581 85.8661 585.581 87.314C585.581 88.7767 585.936 89.9069 586.645 90.7047C587.354 91.5025 588.285 91.9015 589.437 91.9015C590.324 91.9015 591.062 91.6946 591.653 91.2809C592.244 90.8672 592.651 90.2763 592.872 89.508H595.044C594.719 90.749 594.069 91.7463 593.094 92.4998C592.119 93.2385 590.9 93.6079 589.437 93.6079C588.285 93.6079 587.258 93.3493 586.357 92.8322C585.47 92.3151 584.776 91.5838 584.274 90.6382C583.771 89.6927 583.52 88.5846 583.52 87.314ZM4.1664 119.926V127.084C4.1664 127.675 4.29198 128.096 4.54315 128.347C4.79432 128.584 5.23016 128.702 5.85069 128.702H7.33552V130.408H5.51826C4.3954 130.408 3.55326 130.15 2.99183 129.633C2.4304 129.116 2.14969 128.266 2.14969 127.084V119.926H0.576204V118.264H2.14969V115.206H4.1664V118.264H7.33552V119.926H4.1664ZM11.7957 120.236C12.1503 119.542 12.6527 119.003 13.3027 118.618C13.9676 118.234 14.7728 118.042 15.7184 118.042V120.125H15.1865C12.926 120.125 11.7957 121.352 11.7957 123.804V130.408H9.77902V118.264H11.7957V120.236ZM17.2929 124.292C17.2929 123.051 17.544 121.965 18.0464 121.034C18.5487 120.088 19.2357 119.357 20.1074 118.84C20.9939 118.323 21.9764 118.064 23.0549 118.064C24.1187 118.064 25.0421 118.293 25.8251 118.751C26.6082 119.209 27.1918 119.786 27.5759 120.48V118.264H29.6148V130.408H27.5759V128.148C27.177 128.857 26.5786 129.448 25.7808 129.921C24.9978 130.379 24.0817 130.608 23.0328 130.608C21.9542 130.608 20.9791 130.342 20.1074 129.81C19.2357 129.278 18.5487 128.532 18.0464 127.572C17.544 126.611 17.2929 125.518 17.2929 124.292ZM27.5759 124.314C27.5759 123.398 27.3912 122.6 27.0219 121.921C26.6525 121.241 26.1502 120.724 25.5149 120.369C24.8943 120 24.2073 119.815 23.4538 119.815C22.7003 119.815 22.0133 119.992 21.3928 120.347C20.7723 120.702 20.2773 121.219 19.908 121.898C19.5386 122.578 19.3539 123.376 19.3539 124.292C19.3539 125.223 19.5386 126.035 19.908 126.73C20.2773 127.409 20.7723 127.934 21.3928 128.303C22.0133 128.658 22.7003 128.835 23.4538 128.835C24.2073 128.835 24.8943 128.658 25.5149 128.303C26.1502 127.934 26.6525 127.409 27.0219 126.73C27.3912 126.035 27.5759 125.23 27.5759 124.314ZM37.9649 119.926H35.4163V130.408H33.3996V119.926H31.8261V118.264H33.3996V117.4C33.3996 116.04 33.7468 115.05 34.4412 114.43C35.1504 113.795 36.2806 113.477 37.8319 113.477V115.161C36.9455 115.161 36.3175 115.338 35.9482 115.693C35.5936 116.033 35.4163 116.602 35.4163 117.4V118.264H37.9649V119.926ZM45.2584 119.926H42.7098V130.408H40.693V119.926H39.1196V118.264H40.693V117.4C40.693 116.04 41.0402 115.05 41.7346 114.43C42.4438 113.795 43.5741 113.477 45.1254 113.477V115.161C44.2389 115.161 43.611 115.338 43.2416 115.693C42.887 116.033 42.7098 116.602 42.7098 117.4V118.264H45.2584V119.926ZM48.6513 116.291C48.2672 116.291 47.9422 116.158 47.6762 115.893C47.4103 115.627 47.2773 115.302 47.2773 114.917C47.2773 114.533 47.4103 114.208 47.6762 113.942C47.9422 113.676 48.2672 113.543 48.6513 113.543C49.0207 113.543 49.331 113.676 49.5821 113.942C49.8481 114.208 49.981 114.533 49.981 114.917C49.981 115.302 49.8481 115.627 49.5821 115.893C49.331 116.158 49.0207 116.291 48.6513 116.291ZM49.6265 118.264V130.408H47.6097V118.264H49.6265ZM52.3101 124.314C52.3101 123.058 52.5613 121.965 53.0636 121.034C53.5659 120.088 54.2603 119.357 55.1468 118.84C56.048 118.323 57.0749 118.064 58.2273 118.064C59.7195 118.064 60.9458 118.426 61.9061 119.15C62.8812 119.874 63.5239 120.879 63.8342 122.164H61.6623C61.4555 121.426 61.0492 120.842 60.4434 120.414C59.8525 119.985 59.1137 119.771 58.2273 119.771C57.0749 119.771 56.1441 120.17 55.4349 120.968C54.7257 121.751 54.3711 122.866 54.3711 124.314C54.3711 125.777 54.7257 126.907 55.4349 127.705C56.1441 128.503 57.0749 128.901 58.2273 128.901C59.1137 128.901 59.8525 128.695 60.4434 128.281C61.0344 127.867 61.4407 127.276 61.6623 126.508H63.8342C63.5092 127.749 62.8591 128.746 61.884 129.5C60.9088 130.239 59.69 130.608 58.2273 130.608C57.0749 130.608 56.048 130.349 55.1468 129.832C54.2603 129.315 53.5659 128.584 53.0636 127.638C52.5613 126.693 52.3101 125.585 52.3101 124.314ZM74.4502 120.236C74.8048 119.542 75.3071 119.003 75.9572 118.618C76.622 118.234 77.4272 118.042 78.3728 118.042V120.125H77.8409C75.5804 120.125 74.4502 121.352 74.4502 123.804V130.408H72.4334V118.264H74.4502V120.236ZM91.7817 123.871C91.7817 124.255 91.7595 124.661 91.7152 125.09H82.0083C82.0822 126.286 82.4885 127.225 83.2272 127.904C83.9807 128.569 84.8894 128.901 85.9531 128.901C86.8248 128.901 87.5488 128.702 88.125 128.303C88.716 127.889 89.1296 127.343 89.366 126.663H91.5379C91.2128 127.83 90.5628 128.783 89.5876 129.522C88.6125 130.246 87.401 130.608 85.9531 130.608C84.8007 130.608 83.7665 130.349 82.8505 129.832C81.9492 129.315 81.2401 128.584 80.723 127.638C80.2059 126.678 79.9473 125.57 79.9473 124.314C79.9473 123.058 80.1985 121.957 80.7008 121.012C81.2031 120.066 81.9049 119.342 82.8062 118.84C83.7222 118.323 84.7712 118.064 85.9531 118.064C87.1055 118.064 88.125 118.316 89.0114 118.818C89.8979 119.32 90.5775 120.015 91.0503 120.901C91.5379 121.773 91.7817 122.763 91.7817 123.871ZM89.6985 123.45C89.6985 122.681 89.5286 122.024 89.1887 121.477C88.8489 120.916 88.3835 120.495 87.7926 120.214C87.2163 119.919 86.5737 119.771 85.8645 119.771C84.845 119.771 83.9734 120.096 83.2494 120.746C82.5402 121.396 82.1339 122.297 82.0305 123.45H89.6985ZM93.6902 124.292C93.6902 123.051 93.9413 121.965 94.4437 121.034C94.946 120.088 95.633 119.357 96.5047 118.84C97.3912 118.323 98.3737 118.064 99.4522 118.064C100.516 118.064 101.439 118.293 102.222 118.751C103.005 119.209 103.589 119.786 103.973 120.48V118.264H106.012V130.408H103.973V128.148C103.574 128.857 102.976 129.448 102.178 129.921C101.395 130.379 100.479 130.608 99.43 130.608C98.3515 130.608 97.3764 130.342 96.5047 129.81C95.633 129.278 94.946 128.532 94.4437 127.572C93.9413 126.611 93.6902 125.518 93.6902 124.292ZM103.973 124.314C103.973 123.398 103.789 122.6 103.419 121.921C103.05 121.241 102.547 120.724 101.912 120.369C101.292 120 100.605 119.815 99.8511 119.815C99.0976 119.815 98.4106 119.992 97.7901 120.347C97.1695 120.702 96.6746 121.219 96.3052 121.898C95.9359 122.578 95.7512 123.376 95.7512 124.292C95.7512 125.223 95.9359 126.035 96.3052 126.73C96.6746 127.409 97.1695 127.934 97.7901 128.303C98.4106 128.658 99.0976 128.835 99.8511 128.835C100.605 128.835 101.292 128.658 101.912 128.303C102.547 127.934 103.05 127.409 103.419 126.73C103.789 126.035 103.973 125.23 103.973 124.314ZM108.667 124.314C108.667 123.058 108.918 121.965 109.42 121.034C109.922 120.088 110.617 119.357 111.503 118.84C112.405 118.323 113.431 118.064 114.584 118.064C116.076 118.064 117.302 118.426 118.263 119.15C119.238 119.874 119.88 120.879 120.191 122.164H118.019C117.812 121.426 117.406 120.842 116.8 120.414C116.209 119.985 115.47 119.771 114.584 119.771C113.431 119.771 112.501 120.17 111.791 120.968C111.082 121.751 110.728 122.866 110.728 124.314C110.728 125.777 111.082 126.907 111.791 127.705C112.501 128.503 113.431 128.901 114.584 128.901C115.47 128.901 116.209 128.695 116.8 128.281C117.391 127.867 117.797 127.276 118.019 126.508H120.191C119.866 127.749 119.216 128.746 118.24 129.5C117.265 130.239 116.046 130.608 114.584 130.608C113.431 130.608 112.405 130.349 111.503 129.832C110.617 129.315 109.922 128.584 109.42 127.638C108.918 126.693 108.667 125.585 108.667 124.314ZM125.342 119.926V127.084C125.342 127.675 125.467 128.096 125.718 128.347C125.969 128.584 126.405 128.702 127.026 128.702H128.511V130.408H126.693C125.571 130.408 124.728 130.15 124.167 129.633C123.606 129.116 123.325 128.266 123.325 127.084V119.926H121.751V118.264H123.325V115.206H125.342V118.264H128.511V119.926H125.342ZM131.996 116.291C131.612 116.291 131.287 116.158 131.021 115.893C130.755 115.627 130.622 115.302 130.622 114.917C130.622 114.533 130.755 114.208 131.021 113.942C131.287 113.676 131.612 113.543 131.996 113.543C132.365 113.543 132.675 113.676 132.927 113.942C133.193 114.208 133.325 114.533 133.325 114.917C133.325 115.302 133.193 115.627 132.927 115.893C132.675 116.158 132.365 116.291 131.996 116.291ZM132.971 118.264V130.408H130.954V118.264H132.971ZM141.705 130.608C140.567 130.608 139.533 130.349 138.602 129.832C137.686 129.315 136.962 128.584 136.43 127.638C135.913 126.678 135.655 125.57 135.655 124.314C135.655 123.073 135.92 121.98 136.452 121.034C136.999 120.074 137.738 119.342 138.669 118.84C139.599 118.323 140.641 118.064 141.793 118.064C142.946 118.064 143.987 118.323 144.918 118.84C145.849 119.342 146.58 120.066 147.112 121.012C147.659 121.957 147.932 123.058 147.932 124.314C147.932 125.57 147.651 126.678 147.09 127.638C146.543 128.584 145.797 129.315 144.852 129.832C143.906 130.349 142.857 130.608 141.705 130.608ZM141.705 128.835C142.429 128.835 143.108 128.665 143.744 128.325C144.379 127.985 144.889 127.476 145.273 126.796C145.672 126.116 145.871 125.289 145.871 124.314C145.871 123.339 145.679 122.511 145.295 121.832C144.911 121.152 144.408 120.65 143.788 120.325C143.167 119.985 142.495 119.815 141.771 119.815C141.032 119.815 140.353 119.985 139.732 120.325C139.127 120.65 138.639 121.152 138.27 121.832C137.9 122.511 137.716 123.339 137.716 124.314C137.716 125.304 137.893 126.139 138.247 126.818C138.617 127.498 139.104 128.008 139.71 128.347C140.316 128.672 140.981 128.835 141.705 128.835ZM156.501 118.042C157.978 118.042 159.175 118.493 160.091 119.394C161.007 120.281 161.465 121.566 161.465 123.25V130.408H159.471V123.538C159.471 122.327 159.168 121.403 158.562 120.768C157.956 120.118 157.129 119.793 156.08 119.793C155.016 119.793 154.167 120.125 153.531 120.79C152.911 121.455 152.6 122.423 152.6 123.693V130.408H150.584V118.264H152.6V119.992C152.999 119.372 153.539 118.892 154.218 118.552C154.913 118.212 155.674 118.042 156.501 118.042ZM169.059 130.608C168.128 130.608 167.293 130.453 166.555 130.143C165.816 129.817 165.232 129.374 164.804 128.813C164.375 128.237 164.139 127.579 164.095 126.84H166.178C166.237 127.446 166.518 127.941 167.02 128.325C167.537 128.709 168.209 128.901 169.037 128.901C169.805 128.901 170.411 128.732 170.854 128.392C171.297 128.052 171.519 127.623 171.519 127.106C171.519 126.574 171.282 126.183 170.81 125.932C170.337 125.666 169.605 125.407 168.616 125.156C167.714 124.92 166.976 124.683 166.399 124.447C165.838 124.196 165.35 123.834 164.937 123.361C164.538 122.873 164.338 122.238 164.338 121.455C164.338 120.835 164.523 120.266 164.892 119.749C165.262 119.232 165.786 118.825 166.466 118.53C167.146 118.22 167.921 118.064 168.793 118.064C170.137 118.064 171.223 118.404 172.051 119.084C172.878 119.763 173.321 120.694 173.38 121.876H171.364C171.319 121.241 171.061 120.731 170.588 120.347C170.13 119.963 169.509 119.771 168.726 119.771C168.002 119.771 167.426 119.926 166.998 120.236C166.569 120.546 166.355 120.953 166.355 121.455C166.355 121.854 166.481 122.186 166.732 122.452C166.998 122.704 167.323 122.91 167.707 123.073C168.106 123.221 168.653 123.391 169.347 123.583C170.219 123.819 170.928 124.055 171.474 124.292C172.021 124.513 172.486 124.853 172.871 125.311C173.27 125.769 173.476 126.368 173.491 127.106C173.491 127.771 173.306 128.37 172.937 128.901C172.568 129.433 172.043 129.854 171.364 130.165C170.699 130.46 169.931 130.608 169.059 130.608ZM176.981 130.541C176.597 130.541 176.272 130.408 176.006 130.143C175.74 129.877 175.607 129.552 175.607 129.167C175.607 128.783 175.74 128.458 176.006 128.192C176.272 127.926 176.597 127.793 176.981 127.793C177.35 127.793 177.66 127.926 177.912 128.192C178.177 128.458 178.31 128.783 178.31 129.167C178.31 129.552 178.177 129.877 177.912 130.143C177.66 130.408 177.35 130.541 176.981 130.541Z" fill="#362869"/>
</svg>
