<svg width="785" height="139" viewBox="0 0 785 139" fill="none" xmlns="http://www.w3.org/2000/svg">
<path d="M27.4805 32.843C29.805 33.2763 31.7159 34.4386 33.213 36.3297C34.7102 38.2209 35.4587 40.3878 35.4587 42.8305C35.4587 45.0368 34.9071 46.9871 33.804 48.6812C32.7402 50.3359 31.184 51.6361 29.1353 52.5817C27.0865 53.5272 24.6635 54 21.8662 54H4.07775V12.7497H21.0979C23.8952 12.7497 26.2986 13.2028 28.3079 14.1089C30.3566 15.0151 31.8932 16.2759 32.9175 17.8912C33.9813 19.5065 34.5132 21.3386 34.5132 23.3873C34.5132 25.7906 33.8631 27.7999 32.5629 29.4153C31.3022 31.0306 29.608 32.1732 27.4805 32.843ZM12.3515 29.7699H19.916C21.8859 29.7699 23.4028 29.3365 24.4665 28.4697C25.5303 27.5636 26.0622 26.2831 26.0622 24.6284C26.0622 22.9736 25.5303 21.6932 24.4665 20.787C23.4028 19.8808 21.8859 19.4277 19.916 19.4277H12.3515V29.7699ZM20.6843 47.2628C22.6936 47.2628 24.2498 46.7901 25.353 45.8445C26.4955 44.8989 27.0668 43.5594 27.0668 41.8258C27.0668 40.0529 26.4758 38.674 25.2939 37.689C24.1119 36.6646 22.5163 36.1524 20.507 36.1524H12.3515V47.2628H20.6843ZM50.3265 26.3422C51.3902 24.6087 52.7692 23.2494 54.4633 22.2644C56.1968 21.2795 58.1668 20.787 60.3731 20.787V29.4744H58.1865C55.5862 29.4744 53.6162 30.0851 52.2767 31.3064C50.9765 32.5278 50.3265 34.6553 50.3265 37.689V54H42.0528V21.2598H50.3265V26.3422ZM63.8183 37.5117C63.8183 34.2022 64.4684 31.267 65.7685 28.7061C67.1081 26.1452 68.9007 24.1753 71.1465 22.7963C73.4316 21.4174 75.9728 20.7279 78.7701 20.7279C81.2128 20.7279 83.3403 21.2204 85.1527 22.2053C87.0044 23.1903 88.4818 24.4314 89.585 25.9285V21.2598H97.9178V54H89.585V49.2131C88.5212 50.7496 87.0438 52.0301 85.1527 53.0544C83.3009 54.0394 81.1537 54.5319 78.711 54.5319C75.9531 54.5319 73.4316 53.8227 71.1465 52.4044C68.9007 50.986 67.1081 48.9964 65.7685 46.4355C64.4684 43.8352 63.8183 40.8606 63.8183 37.5117ZM89.585 37.6299C89.585 35.6206 89.191 33.9067 88.403 32.4884C87.6151 31.0306 86.5513 29.9275 85.2117 29.1789C83.8722 28.3909 82.4341 27.9969 80.8976 27.9969C79.3611 27.9969 77.9427 28.3712 76.6426 29.1198C75.3424 29.8684 74.2786 30.9715 73.4513 32.4293C72.6633 33.8476 72.2693 35.5418 72.2693 37.5117C72.2693 39.4816 72.6633 41.2152 73.4513 42.7123C74.2786 44.1701 75.3424 45.2929 76.6426 46.0809C77.9821 46.8689 79.4005 47.2628 80.8976 47.2628C82.4341 47.2628 83.8722 46.8886 85.2117 46.14C86.5513 45.352 87.6151 44.2489 88.403 42.8305C89.191 41.3728 89.585 39.6392 89.585 37.6299ZM124.142 20.787C128.042 20.787 131.194 22.028 133.597 24.5102C136.001 26.9529 137.202 30.3805 137.202 34.7932V54H128.928V35.916C128.928 33.3157 128.278 31.3261 126.978 29.9472C125.678 28.5288 123.905 27.8196 121.659 27.8196C119.374 27.8196 117.562 28.5288 116.222 29.9472C114.922 31.3261 114.272 33.3157 114.272 35.916V54H105.998V21.2598H114.272V25.3375C115.375 23.9192 116.774 22.816 118.468 22.028C120.202 21.2007 122.093 20.787 124.142 20.787ZM142.943 37.5117C142.943 34.2022 143.593 31.267 144.893 28.7061C146.232 26.1452 148.045 24.1753 150.33 22.7963C152.615 21.4174 155.156 20.7279 157.953 20.7279C160.081 20.7279 162.11 21.2007 164.04 22.1462C165.971 23.0524 167.508 24.2738 168.65 25.8103V10.2676H177.042V54H168.65V49.154C167.626 50.7693 166.188 52.0695 164.336 53.0544C162.484 54.0394 160.337 54.5319 157.894 54.5319C155.136 54.5319 152.615 53.8227 150.33 52.4044C148.045 50.986 146.232 48.9964 144.893 46.4355C143.593 43.8352 142.943 40.8606 142.943 37.5117ZM168.709 37.6299C168.709 35.6206 168.315 33.9067 167.527 32.4884C166.739 31.0306 165.676 29.9275 164.336 29.1789C162.996 28.3909 161.558 27.9969 160.022 27.9969C158.485 27.9969 157.067 28.3712 155.767 29.1198C154.467 29.8684 153.403 30.9715 152.575 32.4293C151.788 33.8476 151.394 35.5418 151.394 37.5117C151.394 39.4816 151.788 41.2152 152.575 42.7123C153.403 44.1701 154.467 45.2929 155.767 46.0809C157.106 46.8689 158.525 47.2628 160.022 47.2628C161.558 47.2628 162.996 46.8886 164.336 46.14C165.676 45.352 166.739 44.2489 167.527 42.8305C168.315 41.3728 168.709 39.6392 168.709 37.6299ZM189.319 17.3593C187.861 17.3593 186.64 16.9062 185.655 16.0001C184.709 15.0545 184.236 13.8922 184.236 12.5133C184.236 11.1343 184.709 9.99178 185.655 9.08561C186.64 8.14005 187.861 7.66726 189.319 7.66726C190.776 7.66726 191.978 8.14005 192.924 9.08561C193.909 9.99178 194.401 11.1343 194.401 12.5133C194.401 13.8922 193.909 15.0545 192.924 16.0001C191.978 16.9062 190.776 17.3593 189.319 17.3593ZM193.396 21.2598V54H185.123V21.2598H193.396ZM219.714 20.787C223.614 20.787 226.766 22.028 229.17 24.5102C231.573 26.9529 232.775 30.3805 232.775 34.7932V54H224.501V35.916C224.501 33.3157 223.851 31.3261 222.551 29.9472C221.25 28.5288 219.478 27.8196 217.232 27.8196C214.947 27.8196 213.134 28.5288 211.795 29.9472C210.495 31.3261 209.845 33.3157 209.845 35.916V54H201.571V21.2598H209.845V25.3375C210.948 23.9192 212.346 22.816 214.041 22.028C215.774 21.2007 217.665 20.787 219.714 20.787ZM253.467 20.7279C255.909 20.7279 258.057 21.2204 259.908 22.2053C261.76 23.1509 263.218 24.392 264.282 25.9285V21.2598H272.614V54.2364C272.614 57.2701 272.004 59.9689 270.782 62.3328C269.561 64.7361 267.729 66.6272 265.286 68.0062C262.843 69.4245 259.889 70.1337 256.422 70.1337C251.772 70.1337 247.951 69.0503 244.957 66.8833C242.002 64.7164 240.327 61.7615 239.933 58.0187H248.148C248.581 59.5158 249.507 60.6978 250.925 61.5645C252.383 62.4707 254.136 62.9238 256.185 62.9238C258.588 62.9238 260.539 62.1949 262.036 60.7372C263.533 59.3188 264.282 57.1519 264.282 54.2364V49.154C263.218 50.6905 261.74 51.971 259.849 52.9953C257.997 54.0197 255.87 54.5319 253.467 54.5319C250.709 54.5319 248.187 53.8227 245.902 52.4044C243.617 50.986 241.805 48.9964 240.465 46.4355C239.165 43.8352 238.515 40.8606 238.515 37.5117C238.515 34.2022 239.165 31.267 240.465 28.7061C241.805 26.1452 243.597 24.1753 245.843 22.7963C248.128 21.4174 250.669 20.7279 253.467 20.7279ZM264.282 37.6299C264.282 35.6206 263.888 33.9067 263.1 32.4884C262.312 31.0306 261.248 29.9275 259.908 29.1789C258.569 28.3909 257.131 27.9969 255.594 27.9969C254.058 27.9969 252.639 28.3712 251.339 29.1198C250.039 29.8684 248.975 30.9715 248.148 32.4293C247.36 33.8476 246.966 35.5418 246.966 37.5117C246.966 39.4816 247.36 41.2152 248.148 42.7123C248.975 44.1701 250.039 45.2929 251.339 46.0809C252.679 46.8689 254.097 47.2628 255.594 47.2628C257.131 47.2628 258.569 46.8886 259.908 46.14C261.248 45.352 262.312 44.2489 263.1 42.8305C263.888 41.3728 264.282 39.6392 264.282 37.6299ZM326.513 54L322.021 49.5677C318.199 52.9953 313.531 54.7092 308.015 54.7092C304.981 54.7092 302.302 54.197 299.978 53.1726C297.692 52.1089 295.92 50.6314 294.659 48.7403C293.398 46.8098 292.768 44.5837 292.768 42.0622C292.768 39.3437 293.536 36.901 295.072 34.7341C296.609 32.5672 298.874 30.8139 301.869 29.4744C300.805 28.1742 300.037 26.9332 299.564 25.7512C299.091 24.5299 298.855 23.2297 298.855 21.8508C298.855 19.9596 299.347 18.2655 300.332 16.7683C301.317 15.2318 302.716 14.0301 304.528 13.1634C306.38 12.2966 308.527 11.8632 310.97 11.8632C313.452 11.8632 315.579 12.336 317.352 13.2816C319.125 14.2271 320.445 15.4879 321.312 17.0638C322.179 18.6398 322.553 20.393 322.435 22.3235H314.397C314.437 21.0234 314.122 20.0384 313.452 19.3686C312.782 18.6595 311.876 18.3049 310.733 18.3049C309.63 18.3049 308.704 18.6398 307.956 19.3095C307.247 19.9399 306.892 20.7673 306.892 21.7917C306.892 22.7766 307.188 23.7616 307.779 24.7466C308.369 25.6921 309.335 26.8741 310.674 28.2924L321.076 38.5755C321.154 38.4967 321.213 38.4179 321.253 38.3391C321.292 38.2603 321.332 38.1815 321.371 38.1027L324.74 32.4884H333.368L329.231 39.7574C328.443 41.294 327.596 42.7517 326.69 44.1307L336.677 54H326.513ZM308.251 47.8538C311.482 47.8538 314.338 46.7113 316.82 44.4261L306.656 34.3795C302.834 36.0736 300.923 38.477 300.923 41.5894C300.923 43.3624 301.593 44.8595 302.932 46.0809C304.272 47.2628 306.045 47.8538 308.251 47.8538ZM391.91 12.7497L376.781 54H366.735L351.606 12.7497H360.47L371.817 45.549L383.105 12.7497H391.91ZM401.067 17.3593C399.609 17.3593 398.388 16.9062 397.403 16.0001C396.457 15.0545 395.984 13.8922 395.984 12.5133C395.984 11.1343 396.457 9.99178 397.403 9.08561C398.388 8.14005 399.609 7.66726 401.067 7.66726C402.525 7.66726 403.726 8.14005 404.672 9.08561C405.657 9.99178 406.149 11.1343 406.149 12.5133C406.149 13.8922 405.657 15.0545 404.672 16.0001C403.726 16.9062 402.525 17.3593 401.067 17.3593ZM405.145 21.2598V54H396.871V21.2598H405.145ZM425.848 54.5319C423.169 54.5319 420.765 54.0591 418.638 53.1135C416.51 52.1286 414.816 50.8087 413.555 49.154C412.334 47.4992 411.664 45.6672 411.546 43.6579H419.879C420.036 44.9186 420.647 45.9627 421.711 46.7901C422.814 47.6174 424.173 48.0311 425.789 48.0311C427.365 48.0311 428.586 47.7159 429.453 47.0855C430.359 46.4552 430.812 45.6475 430.812 44.6625C430.812 43.5988 430.26 42.8108 429.157 42.2986C428.093 41.747 426.38 41.1561 424.016 40.5257C421.573 39.9347 419.564 39.324 417.988 38.6937C416.451 38.0633 415.112 37.098 413.969 35.7979C412.866 34.4977 412.314 32.7445 412.314 30.5381C412.314 28.7258 412.827 27.0711 413.851 25.5739C414.915 24.0768 416.412 22.8948 418.342 22.028C420.312 21.1613 422.617 20.7279 425.257 20.7279C429.157 20.7279 432.27 21.7129 434.594 23.6828C436.919 25.6133 438.199 28.2333 438.436 31.5428H430.516C430.398 30.2427 429.847 29.2183 428.862 28.4697C427.916 27.6817 426.636 27.2878 425.02 27.2878C423.523 27.2878 422.361 27.5635 421.534 28.1151C420.746 28.6667 420.352 29.435 420.352 30.4199C420.352 31.5231 420.903 32.3702 422.006 32.9612C423.11 33.5127 424.823 34.084 427.148 34.675C429.512 35.266 431.462 35.8767 432.999 36.507C434.535 37.1374 435.855 38.1224 436.958 39.4619C438.101 40.7621 438.692 42.4956 438.731 44.6625C438.731 46.5537 438.199 48.2478 437.135 49.745C436.111 51.2421 434.614 52.4241 432.644 53.2908C430.713 54.1182 428.448 54.5319 425.848 54.5319ZM476.431 21.2598V54H468.098V49.8631C467.034 51.2815 465.636 52.4044 463.902 53.2317C462.208 54.0197 460.356 54.4137 458.347 54.4137C455.786 54.4137 453.521 53.8818 451.551 52.818C449.581 51.7149 448.025 50.1192 446.882 48.0311C445.779 45.9036 445.227 43.3821 445.227 40.4666V21.2598H453.501V39.2846C453.501 41.8849 454.151 43.8943 455.451 45.3126C456.751 46.6916 458.524 47.381 460.77 47.381C463.055 47.381 464.848 46.6916 466.148 45.3126C467.448 43.8943 468.098 41.8849 468.098 39.2846V21.2598H476.431ZM482.467 37.5117C482.467 34.2022 483.117 31.267 484.417 28.7061C485.757 26.1452 487.549 24.1753 489.795 22.7963C492.08 21.4174 494.621 20.7279 497.419 20.7279C499.861 20.7279 501.989 21.2204 503.801 22.2053C505.653 23.1903 507.13 24.4314 508.233 25.9285V21.2598H516.566V54H508.233V49.2131C507.17 50.7496 505.692 52.0301 503.801 53.0544C501.949 54.0394 499.802 54.5319 497.359 54.5319C494.602 54.5319 492.08 53.8227 489.795 52.4044C487.549 50.986 485.757 48.9964 484.417 46.4355C483.117 43.8352 482.467 40.8606 482.467 37.5117ZM508.233 37.6299C508.233 35.6206 507.839 33.9067 507.051 32.4884C506.263 31.0306 505.2 29.9275 503.86 29.1789C502.521 28.3909 501.083 27.9969 499.546 27.9969C498.009 27.9969 496.591 28.3712 495.291 29.1198C493.991 29.8684 492.927 30.9715 492.1 32.4293C491.312 33.8476 490.918 35.5418 490.918 37.5117C490.918 39.4816 491.312 41.2152 492.1 42.7123C492.927 44.1701 493.991 45.2929 495.291 46.0809C496.631 46.8689 498.049 47.2628 499.546 47.2628C501.083 47.2628 502.521 46.8886 503.86 46.14C505.2 45.352 506.263 44.2489 507.051 42.8305C507.839 41.3728 508.233 39.6392 508.233 37.6299ZM532.921 10.2676V54H524.647V10.2676H532.921ZM563.451 12.7497V54H555.177V12.7497H563.451ZM569.498 37.5117C569.498 34.2022 570.148 31.267 571.448 28.7061C572.787 26.1452 574.6 24.1753 576.885 22.7963C579.17 21.4174 581.711 20.7279 584.508 20.7279C586.636 20.7279 588.665 21.2007 590.596 22.1462C592.526 23.0524 594.063 24.2738 595.205 25.8103V10.2676H603.597V54H595.205V49.154C594.181 50.7693 592.743 52.0695 590.891 53.0544C589.039 54.0394 586.892 54.5319 584.449 54.5319C581.691 54.5319 579.17 53.8227 576.885 52.4044C574.6 50.986 572.787 48.9964 571.448 46.4355C570.148 43.8352 569.498 40.8606 569.498 37.5117ZM595.264 37.6299C595.264 35.6206 594.87 33.9067 594.082 32.4884C593.294 31.0306 592.231 29.9275 590.891 29.1789C589.551 28.3909 588.113 27.9969 586.577 27.9969C585.04 27.9969 583.622 28.3712 582.322 29.1198C581.022 29.8684 579.958 30.9715 579.131 32.4293C578.343 33.8476 577.949 35.5418 577.949 37.5117C577.949 39.4816 578.343 41.2152 579.131 42.7123C579.958 44.1701 581.022 45.2929 582.322 46.0809C583.661 46.8689 585.08 47.2628 586.577 47.2628C588.113 47.2628 589.551 46.8886 590.891 46.14C592.231 45.352 593.294 44.2489 594.082 42.8305C594.87 41.3728 595.264 39.6392 595.264 37.6299ZM642.113 36.9207C642.113 38.1027 642.034 39.1664 641.877 40.112H617.942C618.139 42.4759 618.967 44.3276 620.424 45.6672C621.882 47.0068 623.675 47.6765 625.802 47.6765C628.875 47.6765 631.062 46.3567 632.362 43.717H641.286C640.34 46.8689 638.528 49.4692 635.849 51.5179C633.17 53.5272 629.88 54.5319 625.979 54.5319C622.828 54.5319 619.991 53.8424 617.469 52.4635C614.987 51.0451 613.037 49.0555 611.619 46.4946C610.24 43.9337 609.55 40.9788 609.55 37.6299C609.55 34.2416 610.24 31.267 611.619 28.7061C612.998 26.1452 614.928 24.1753 617.41 22.7963C619.892 21.4174 622.749 20.7279 625.979 20.7279C629.092 20.7279 631.87 21.3977 634.312 22.7372C636.794 24.0768 638.705 25.9876 640.045 28.4697C641.424 30.9124 642.113 33.7294 642.113 36.9207ZM633.544 34.5568C633.505 32.4293 632.736 30.7351 631.239 29.4744C629.742 28.1742 627.91 27.5242 625.743 27.5242C623.694 27.5242 621.961 28.1545 620.542 29.4153C619.164 30.6366 618.316 32.3505 618.001 34.5568H633.544ZM666.295 20.787C670.196 20.787 673.348 22.028 675.751 24.5102C678.154 26.9529 679.356 30.3805 679.356 34.7932V54H671.082V35.916C671.082 33.3157 670.432 31.3261 669.132 29.9472C667.832 28.5288 666.059 27.8196 663.813 27.8196C661.528 27.8196 659.716 28.5288 658.376 29.9472C657.076 31.3261 656.426 33.3157 656.426 35.916V54H648.152V21.2598H656.426V25.3375C657.529 23.9192 658.928 22.816 660.622 22.028C662.355 21.2007 664.247 20.787 666.295 20.787ZM696.857 28.056V43.8943C696.857 44.9974 697.113 45.8051 697.625 46.3173C698.177 46.7901 699.083 47.0265 700.344 47.0265H704.185V54H698.984C692.011 54 688.524 50.6117 688.524 43.8352V28.056H684.624V21.2598H688.524V13.1634H696.857V21.2598H704.185V28.056H696.857ZM714.332 17.3593C712.874 17.3593 711.653 16.9062 710.668 16.0001C709.722 15.0545 709.249 13.8922 709.249 12.5133C709.249 11.1343 709.722 9.99178 710.668 9.08561C711.653 8.14005 712.874 7.66726 714.332 7.66726C715.789 7.66726 716.991 8.14005 717.937 9.08561C718.922 9.99178 719.414 11.1343 719.414 12.5133C719.414 13.8922 718.922 15.0545 717.937 16.0001C716.991 16.9062 715.789 17.3593 714.332 17.3593ZM718.409 21.2598V54H710.136V21.2598H718.409ZM736.217 28.056V43.8943C736.217 44.9974 736.473 45.8051 736.985 46.3173C737.537 46.7901 738.443 47.0265 739.704 47.0265H743.545V54H738.344C731.371 54 727.884 50.6117 727.884 43.8352V28.056H723.984V21.2598H727.884V13.1634H736.217V21.2598H743.545V28.056H736.217ZM780.818 21.2598L760.547 69.4836H751.742L758.833 53.1726L745.714 21.2598H754.992L763.443 44.1307L772.012 21.2598H780.818Z" fill="#362869"/>
<path d="M0.952953 84.674C0.952953 83.167 1.29277 81.8152 1.97239 80.6184C2.65202 79.4069 3.57542 78.4613 4.7426 77.7817C5.92456 77.1021 7.2321 76.7623 8.66523 76.7623C10.3495 76.7623 11.8196 77.1686 13.0754 77.9812C14.3312 78.7938 15.2473 79.9462 15.8235 81.4384H13.4078C12.9794 80.5076 12.3588 79.7911 11.5462 79.2887C10.7484 78.7864 9.78809 78.5352 8.66523 78.5352C7.58669 78.5352 6.61896 78.7864 5.76204 79.2887C4.90512 79.7911 4.23289 80.5076 3.74533 81.4384C3.25777 82.3544 3.01399 83.433 3.01399 84.674C3.01399 85.9003 3.25777 86.9788 3.74533 87.9096C4.23289 88.8256 4.90512 89.5348 5.76204 90.0371C6.61896 90.5395 7.58669 90.7906 8.66523 90.7906C9.78809 90.7906 10.7484 90.5469 11.5462 90.0593C12.3588 89.557 12.9794 88.8404 13.4078 87.9096H15.8235C15.2473 89.3871 14.3312 90.5321 13.0754 91.3447C11.8196 92.1425 10.3495 92.5414 8.66523 92.5414C7.2321 92.5414 5.92456 92.209 4.7426 91.5441C3.57542 90.8645 2.65202 89.9263 1.97239 88.7296C1.29277 87.5329 0.952953 86.181 0.952953 84.674ZM20.8422 76.0088V92.4084H18.8255V76.0088H20.8422ZM25.321 78.2914C24.9368 78.2914 24.6118 78.1585 24.3458 77.8925C24.0799 77.6266 23.9469 77.3016 23.9469 76.9174C23.9469 76.5333 24.0799 76.2082 24.3458 75.9423C24.6118 75.6764 24.9368 75.5434 25.321 75.5434C25.6903 75.5434 26.0006 75.6764 26.2517 75.9423C26.5177 76.2082 26.6507 76.5333 26.6507 76.9174C26.6507 77.3016 26.5177 77.6266 26.2517 77.8925C26.0006 78.1585 25.6903 78.2914 25.321 78.2914ZM26.2961 80.2638V92.4084H24.2794V80.2638H26.2961ZM44.3378 80.0422C45.2833 80.0422 46.1255 80.2417 46.8642 80.6406C47.6029 81.0247 48.1865 81.6083 48.615 82.3914C49.0434 83.1744 49.2577 84.1274 49.2577 85.2502V92.4084H47.2631V85.5383C47.2631 84.3268 46.9602 83.4034 46.3545 82.7681C45.7635 82.118 44.9583 81.793 43.9389 81.793C42.8899 81.793 42.0551 82.1328 41.4346 82.8124C40.8141 83.4773 40.5038 84.445 40.5038 85.7156V92.4084H38.5092V85.5383C38.5092 84.3268 38.2064 83.4034 37.6006 82.7681C37.0096 82.118 36.2044 81.793 35.185 81.793C34.136 81.793 33.3012 82.1328 32.6807 82.8124C32.0602 83.4773 31.7499 84.445 31.7499 85.7156V92.4084H29.7332V80.2638H31.7499V82.0146C32.1488 81.3793 32.6807 80.8917 33.3456 80.5519C34.0252 80.2121 34.7713 80.0422 35.5839 80.0422C36.6033 80.0422 37.5046 80.2712 38.2876 80.7292C39.0707 81.1872 39.6543 81.8595 40.0384 82.7459C40.3782 81.889 40.9396 81.2242 41.7227 80.7514C42.5057 80.2786 43.3774 80.0422 44.3378 80.0422ZM54.5825 82.5243C54.9962 81.8004 55.602 81.2094 56.3998 80.7514C57.1976 80.2934 58.1063 80.0644 59.1257 80.0644C60.219 80.0644 61.2015 80.3229 62.0732 80.84C62.9449 81.3571 63.6319 82.0885 64.1342 83.034C64.6366 83.9648 64.8877 85.0508 64.8877 86.2918C64.8877 87.5181 64.6366 88.6114 64.1342 89.5717C63.6319 90.5321 62.9375 91.2782 62.051 91.8101C61.1793 92.342 60.2042 92.6079 59.1257 92.6079C58.0767 92.6079 57.1533 92.3789 56.3555 91.9209C55.5724 91.4629 54.9815 90.8793 54.5825 90.1701V92.4084H52.5658V76.0088H54.5825V82.5243ZM62.8267 86.2918C62.8267 85.3758 62.642 84.578 62.2727 83.8984C61.9033 83.2187 61.401 82.7016 60.7657 82.347C60.1451 81.9924 59.4581 81.8152 58.7046 81.8152C57.9659 81.8152 57.2789 81.9998 56.6436 82.3692C56.0231 82.7238 55.5207 83.2483 55.1366 83.9427C54.7672 84.6223 54.5825 85.4127 54.5825 86.314C54.5825 87.23 54.7672 88.0352 55.1366 88.7296C55.5207 89.4092 56.0231 89.9337 56.6436 90.3031C57.2789 90.6577 57.9659 90.835 58.7046 90.835C59.4581 90.835 60.1451 90.6577 60.7657 90.3031C61.401 89.9337 61.9033 89.4092 62.2727 88.7296C62.642 88.0352 62.8267 87.2226 62.8267 86.2918ZM77.75 92.6079C76.8192 92.6079 75.9845 92.4528 75.2457 92.1425C74.507 91.8175 73.9234 91.3742 73.495 90.8128C73.0665 90.2366 72.8301 89.5791 72.7858 88.8404H74.869C74.9281 89.4462 75.2088 89.9411 75.7111 90.3252C76.2282 90.7094 76.9005 90.9015 77.7278 90.9015C78.4961 90.9015 79.1019 90.7315 79.5451 90.3917C79.9883 90.0519 80.21 89.6235 80.21 89.1064C80.21 88.5745 79.9736 88.1829 79.5008 87.9318C79.028 87.6658 78.2967 87.4073 77.3068 87.1561C76.4055 86.9197 75.6668 86.6833 75.0906 86.4469C74.5292 86.1958 74.0416 85.8338 73.6279 85.361C73.229 84.8735 73.0296 84.2382 73.0296 83.4551C73.0296 82.8346 73.2142 82.2658 73.5836 81.7487C73.953 81.2316 74.4775 80.8253 75.1571 80.5298C75.8367 80.2195 76.6124 80.0644 77.4841 80.0644C78.8285 80.0644 79.9145 80.4042 80.7418 81.0838C81.5692 81.7634 82.0124 82.6942 82.0715 83.8762H80.0548C80.0105 83.2409 79.7519 82.7312 79.2792 82.347C78.8212 81.9629 78.2006 81.7708 77.4176 81.7708C76.6936 81.7708 76.1174 81.926 75.689 82.2362C75.2605 82.5465 75.0463 82.9528 75.0463 83.4551C75.0463 83.854 75.1719 84.1865 75.423 84.4524C75.689 84.7036 76.014 84.9104 76.3981 85.0729C76.7971 85.2207 77.3437 85.3906 78.0381 85.5826C78.9098 85.819 79.619 86.0554 80.1656 86.2918C80.7123 86.5134 81.1777 86.8532 81.5618 87.3113C81.9607 87.7693 82.1676 88.3676 82.1823 89.1064C82.1823 89.7712 81.9977 90.3696 81.6283 90.9015C81.2589 91.4333 80.7345 91.8544 80.0548 92.1647C79.39 92.4602 78.6217 92.6079 77.75 92.6079ZM96.1101 85.8707C96.1101 86.2549 96.0879 86.6612 96.0436 87.0896H86.3368C86.4107 88.2864 86.817 89.2245 87.5557 89.9042C88.3092 90.569 89.2178 90.9015 90.2816 90.9015C91.1533 90.9015 91.8772 90.702 92.4534 90.3031C93.0444 89.8894 93.4581 89.3427 93.6945 88.6631H95.8663C95.5413 89.8303 94.8912 90.7833 93.9161 91.522C92.941 92.2459 91.7295 92.6079 90.2816 92.6079C89.1292 92.6079 88.095 92.3493 87.1789 91.8322C86.2777 91.3151 85.5685 90.5838 85.0514 89.6382C84.5343 88.6779 84.2758 87.5698 84.2758 86.314C84.2758 85.0581 84.5269 83.9575 85.0293 83.0119C85.5316 82.0663 86.2334 81.3424 87.1346 80.84C88.0506 80.3229 89.0996 80.0644 90.2816 80.0644C91.434 80.0644 92.4534 80.3155 93.3399 80.8179C94.2264 81.3202 94.906 82.0146 95.3788 82.9011C95.8663 83.7728 96.1101 84.7627 96.1101 85.8707ZM94.0269 85.4497C94.0269 84.6814 93.857 84.0239 93.5172 83.4773C93.1774 82.9159 92.712 82.4948 92.121 82.2141C91.5448 81.9186 90.9021 81.7708 90.1929 81.7708C89.1735 81.7708 88.3018 82.0959 87.5779 82.7459C86.8687 83.396 86.4624 84.2973 86.359 85.4497H94.0269ZM98.0186 86.2918C98.0186 85.0508 98.2698 83.9648 98.7721 83.034C99.2744 82.0885 99.9615 81.3571 100.833 80.84C101.72 80.3229 102.702 80.0644 103.781 80.0644C104.844 80.0644 105.768 80.2934 106.551 80.7514C107.334 81.2094 107.918 81.7856 108.302 82.48V80.2638H110.341V92.4084H108.302V90.148C107.903 90.8571 107.304 91.4481 106.507 91.9209C105.723 92.3789 104.807 92.6079 103.758 92.6079C102.68 92.6079 101.705 92.342 100.833 91.8101C99.9615 91.2782 99.2744 90.5321 98.7721 89.5717C98.2698 88.6114 98.0186 87.5181 98.0186 86.2918ZM108.302 86.314C108.302 85.398 108.117 84.6001 107.748 83.9205C107.378 83.2409 106.876 82.7238 106.241 82.3692C105.62 81.9998 104.933 81.8152 104.18 81.8152C103.426 81.8152 102.739 81.9924 102.119 82.347C101.498 82.7016 101.003 83.2187 100.634 83.8984C100.264 84.578 100.08 85.3758 100.08 86.2918C100.08 87.2226 100.264 88.0352 100.634 88.7296C101.003 89.4092 101.498 89.9337 102.119 90.3031C102.739 90.6577 103.426 90.835 104.18 90.835C104.933 90.835 105.62 90.6577 106.241 90.3031C106.876 89.9337 107.378 89.4092 107.748 88.7296C108.117 88.0352 108.302 87.23 108.302 86.314ZM115.765 82.2362C116.12 81.5418 116.622 81.0026 117.272 80.6184C117.937 80.2343 118.742 80.0422 119.688 80.0422V82.1254H119.156C116.896 82.1254 115.765 83.3517 115.765 85.8043V92.4084H113.749V80.2638H115.765V82.2362ZM121.262 86.314C121.262 85.0581 121.514 83.9648 122.016 83.034C122.518 82.0885 123.213 81.3571 124.099 80.84C125 80.3229 126.027 80.0644 127.18 80.0644C128.672 80.0644 129.898 80.4264 130.858 81.1503C131.834 81.8743 132.476 82.8789 132.787 84.1643H130.615C130.408 83.4256 130.002 82.842 129.396 82.4135C128.805 81.9851 128.066 81.7708 127.18 81.7708C126.027 81.7708 125.096 82.1697 124.387 82.9676C123.678 83.7506 123.323 84.8661 123.323 86.314C123.323 87.7767 123.678 88.9069 124.387 89.7047C125.096 90.5025 126.027 90.9015 127.18 90.9015C128.066 90.9015 128.805 90.6946 129.396 90.2809C129.987 89.8672 130.393 89.2763 130.615 88.508H132.787C132.461 89.749 131.811 90.7463 130.836 91.4998C129.861 92.2385 128.642 92.6079 127.18 92.6079C126.027 92.6079 125 92.3493 124.099 91.8322C123.213 91.3151 122.518 90.5838 122.016 89.6382C121.514 88.6927 121.262 87.5846 121.262 86.314ZM141.505 80.0422C142.421 80.0422 143.249 80.2417 143.988 80.6406C144.726 81.0247 145.302 81.6083 145.716 82.3914C146.145 83.1744 146.359 84.1274 146.359 85.2502V92.4084H144.364V85.5383C144.364 84.3268 144.061 83.4034 143.456 82.7681C142.85 82.118 142.023 81.793 140.974 81.793C139.91 81.793 139.06 82.1254 138.425 82.7903C137.804 83.4551 137.494 84.4228 137.494 85.6935V92.4084H135.477V76.0088H137.494V81.9924C137.893 81.3719 138.44 80.8917 139.134 80.5519C139.843 80.2121 140.634 80.0422 141.505 80.0422ZM157.578 82.2362C157.933 81.5418 158.435 81.0026 159.085 80.6184C159.75 80.2343 160.555 80.0422 161.501 80.0422V82.1254H160.969C158.708 82.1254 157.578 83.3517 157.578 85.8043V92.4084H155.561V80.2638H157.578V82.2362ZM163.075 86.2918C163.075 85.0508 163.326 83.9648 163.829 83.034C164.331 82.0885 165.018 81.3571 165.89 80.84C166.776 80.3229 167.759 80.0644 168.837 80.0644C169.901 80.0644 170.825 80.2934 171.608 80.7514C172.391 81.2094 172.974 81.7856 173.358 82.48V80.2638H175.397V92.4084H173.358V90.148C172.959 90.8571 172.361 91.4481 171.563 91.9209C170.78 92.3789 169.864 92.6079 168.815 92.6079C167.737 92.6079 166.762 92.342 165.89 91.8101C165.018 91.2782 164.331 90.5321 163.829 89.5717C163.326 88.6114 163.075 87.5181 163.075 86.2918ZM173.358 86.314C173.358 85.398 173.174 84.6001 172.804 83.9205C172.435 83.2409 171.933 82.7238 171.297 82.3692C170.677 81.9998 169.99 81.8152 169.236 81.8152C168.483 81.8152 167.796 81.9924 167.175 82.347C166.555 82.7016 166.06 83.2187 165.69 83.8984C165.321 84.578 165.136 85.3758 165.136 86.2918C165.136 87.2226 165.321 88.0352 165.69 88.7296C166.06 89.4092 166.555 89.9337 167.175 90.3031C167.796 90.6577 168.483 90.835 169.236 90.835C169.99 90.835 170.677 90.6577 171.297 90.3031C171.933 89.9337 172.435 89.4092 172.804 88.7296C173.174 88.0352 173.358 87.23 173.358 86.314ZM184.722 80.0422C186.2 80.0422 187.397 80.4928 188.313 81.3941C189.229 82.2805 189.687 83.5659 189.687 85.2502V92.4084H187.692V85.5383C187.692 84.3268 187.389 83.4034 186.784 82.7681C186.178 82.118 185.35 81.793 184.301 81.793C183.238 81.793 182.388 82.1254 181.753 82.7903C181.132 83.4551 180.822 84.4228 180.822 85.6935V92.4084H178.805V80.2638H180.822V81.9924C181.221 81.3719 181.76 80.8917 182.44 80.5519C183.134 80.2121 183.895 80.0422 184.722 80.0422ZM199.762 92.4084L194.998 87.0453V92.4084H192.981V76.0088H194.998V85.6491L199.674 80.2638H202.488L196.771 86.314L202.511 92.4084H199.762ZM205.428 78.2914C205.044 78.2914 204.719 78.1585 204.453 77.8925C204.187 77.6266 204.054 77.3016 204.054 76.9174C204.054 76.5333 204.187 76.2082 204.453 75.9423C204.719 75.6764 205.044 75.5434 205.428 75.5434C205.797 75.5434 206.108 75.6764 206.359 75.9423C206.625 76.2082 206.758 76.5333 206.758 76.9174C206.758 77.3016 206.625 77.6266 206.359 77.8925C206.108 78.1585 205.797 78.2914 205.428 78.2914ZM206.403 80.2638V92.4084H204.386V80.2638H206.403ZM215.758 80.0422C217.235 80.0422 218.432 80.4928 219.348 81.3941C220.264 82.2805 220.722 83.5659 220.722 85.2502V92.4084H218.727V85.5383C218.727 84.3268 218.424 83.4034 217.819 82.7681C217.213 82.118 216.385 81.793 215.336 81.793C214.273 81.793 213.423 82.1254 212.788 82.7903C212.167 83.4551 211.857 84.4228 211.857 85.6935V92.4084H209.84V80.2638H211.857V81.9924C212.256 81.3719 212.795 80.8917 213.475 80.5519C214.169 80.2121 214.93 80.0422 215.758 80.0422ZM229.025 80.0644C230.074 80.0644 230.99 80.2934 231.773 80.7514C232.57 81.2094 233.161 81.7856 233.546 82.48V80.2638H235.584V92.6744C235.584 93.7825 235.348 94.765 234.875 95.6219C234.402 96.4936 233.723 97.1732 232.836 97.6608C231.965 98.1483 230.945 98.3921 229.778 98.3921C228.182 98.3921 226.853 98.0154 225.789 97.2619C224.725 96.5084 224.097 95.4815 223.905 94.1814H225.9C226.121 94.9201 226.579 95.5111 227.274 95.9543C227.968 96.4123 228.803 96.6413 229.778 96.6413C230.886 96.6413 231.787 96.2941 232.482 95.5997C233.191 94.9053 233.546 93.9302 233.546 92.6744V90.1258C233.147 90.835 232.556 91.4259 231.773 91.8987C230.99 92.3715 230.074 92.6079 229.025 92.6079C227.946 92.6079 226.964 92.342 226.077 91.8101C225.205 91.2782 224.518 90.5321 224.016 89.5717C223.514 88.6114 223.263 87.5181 223.263 86.2918C223.263 85.0508 223.514 83.9648 224.016 83.034C224.518 82.0885 225.205 81.3571 226.077 80.84C226.964 80.3229 227.946 80.0644 229.025 80.0644ZM233.546 86.314C233.546 85.398 233.361 84.6001 232.992 83.9205C232.622 83.2409 232.12 82.7238 231.485 82.3692C230.864 81.9998 230.177 81.8152 229.423 81.8152C228.67 81.8152 227.983 81.9924 227.362 82.347C226.742 82.7016 226.247 83.2187 225.878 83.8984C225.508 84.578 225.324 85.3758 225.324 86.2918C225.324 87.2226 225.508 88.0352 225.878 88.7296C226.247 89.4092 226.742 89.9337 227.362 90.3031C227.983 90.6577 228.67 90.835 229.423 90.835C230.177 90.835 230.864 90.6577 231.485 90.3031C232.12 89.9337 232.622 89.4092 232.992 88.7296C233.361 88.0352 233.546 87.23 233.546 86.314ZM243.292 92.6079C242.361 92.6079 241.526 92.4528 240.788 92.1425C240.049 91.8175 239.465 91.3742 239.037 90.8128C238.608 90.2366 238.372 89.5791 238.328 88.8404H240.411C240.47 89.4462 240.751 89.9411 241.253 90.3252C241.77 90.7094 242.442 90.9015 243.27 90.9015C244.038 90.9015 244.644 90.7315 245.087 90.3917C245.53 90.0519 245.752 89.6235 245.752 89.1064C245.752 88.5745 245.515 88.1829 245.043 87.9318C244.57 87.6658 243.839 87.4073 242.849 87.1561C241.947 86.9197 241.209 86.6833 240.632 86.4469C240.071 86.1958 239.583 85.8338 239.17 85.361C238.771 84.8735 238.571 84.2382 238.571 83.4551C238.571 82.8346 238.756 82.2658 239.125 81.7487C239.495 81.2316 240.019 80.8253 240.699 80.5298C241.379 80.2195 242.154 80.0644 243.026 80.0644C244.37 80.0644 245.456 80.4042 246.284 81.0838C247.111 81.7634 247.554 82.6942 247.613 83.8762H245.597C245.552 83.2409 245.294 82.7312 244.821 82.347C244.363 81.9629 243.742 81.7708 242.959 81.7708C242.235 81.7708 241.659 81.926 241.231 82.2362C240.802 82.5465 240.588 82.9528 240.588 83.4551C240.588 83.854 240.714 84.1865 240.965 84.4524C241.231 84.7036 241.556 84.9104 241.94 85.0729C242.339 85.2207 242.886 85.3906 243.58 85.5826C244.452 85.819 245.161 86.0554 245.707 86.2918C246.254 86.5134 246.72 86.8532 247.104 87.3113C247.503 87.7693 247.709 88.3676 247.724 89.1064C247.724 89.7712 247.54 90.3696 247.17 90.9015C246.801 91.4333 246.276 91.8544 245.597 92.1647C244.932 92.4602 244.164 92.6079 243.292 92.6079ZM255.726 86.2918C255.726 85.0508 255.977 83.9648 256.479 83.034C256.982 82.0885 257.669 81.3571 258.54 80.84C259.427 80.3229 260.409 80.0644 261.488 80.0644C262.552 80.0644 263.475 80.2934 264.258 80.7514C265.041 81.2094 265.625 81.7856 266.009 82.48V80.2638H268.048V92.4084H266.009V90.148C265.61 90.8571 265.012 91.4481 264.214 91.9209C263.431 92.3789 262.515 92.6079 261.466 92.6079C260.387 92.6079 259.412 92.342 258.54 91.8101C257.669 91.2782 256.982 90.5321 256.479 89.5717C255.977 88.6114 255.726 87.5181 255.726 86.2918ZM266.009 86.314C266.009 85.398 265.824 84.6001 265.455 83.9205C265.086 83.2409 264.583 82.7238 263.948 82.3692C263.327 81.9998 262.64 81.8152 261.887 81.8152C261.133 81.8152 260.446 81.9924 259.826 82.347C259.205 82.7016 258.71 83.2187 258.341 83.8984C257.972 84.578 257.787 85.3758 257.787 86.2918C257.787 87.2226 257.972 88.0352 258.341 88.7296C258.71 89.4092 259.205 89.9337 259.826 90.3031C260.446 90.6577 261.133 90.835 261.887 90.835C262.64 90.835 263.327 90.6577 263.948 90.3031C264.583 89.9337 265.086 89.4092 265.455 88.7296C265.824 88.0352 266.009 87.23 266.009 86.314ZM277.373 80.0422C278.851 80.0422 280.047 80.4928 280.963 81.3941C281.879 82.2805 282.337 83.5659 282.337 85.2502V92.4084H280.343V85.5383C280.343 84.3268 280.04 83.4034 279.434 82.7681C278.828 82.118 278.001 81.793 276.952 81.793C275.888 81.793 275.039 82.1254 274.403 82.7903C273.783 83.4551 273.473 84.4228 273.473 85.6935V92.4084H271.456V80.2638H273.473V81.9924C273.872 81.3719 274.411 80.8917 275.09 80.5519C275.785 80.2121 276.546 80.0422 277.373 80.0422ZM284.878 86.2918C284.878 85.0508 285.129 83.9648 285.632 83.034C286.134 82.0885 286.821 81.3571 287.693 80.84C288.579 80.3229 289.569 80.0644 290.662 80.0644C291.608 80.0644 292.487 80.286 293.3 80.7292C294.112 81.1577 294.733 81.7265 295.161 82.4357V76.0088H297.2V92.4084H295.161V90.1258C294.762 90.8497 294.171 91.4481 293.388 91.9209C292.605 92.3789 291.689 92.6079 290.64 92.6079C289.562 92.6079 288.579 92.342 287.693 91.8101C286.821 91.2782 286.134 90.5321 285.632 89.5717C285.129 88.6114 284.878 87.5181 284.878 86.2918ZM295.161 86.314C295.161 85.398 294.976 84.6001 294.607 83.9205C294.238 83.2409 293.735 82.7238 293.1 82.3692C292.48 81.9998 291.793 81.8152 291.039 81.8152C290.286 81.8152 289.599 81.9924 288.978 82.347C288.358 82.7016 287.863 83.2187 287.493 83.8984C287.124 84.578 286.939 85.3758 286.939 86.2918C286.939 87.2226 287.124 88.0352 287.493 88.7296C287.863 89.4092 288.358 89.9337 288.978 90.3031C289.599 90.6577 290.286 90.835 291.039 90.835C291.793 90.835 292.48 90.6577 293.1 90.3031C293.735 89.9337 294.238 89.4092 294.607 88.7296C294.976 88.0352 295.161 87.23 295.161 86.314ZM310.816 92.6079C309.885 92.6079 309.05 92.4528 308.312 92.1425C307.573 91.8175 306.989 91.3742 306.561 90.8128C306.132 90.2366 305.896 89.5791 305.852 88.8404H307.935C307.994 89.4462 308.275 89.9411 308.777 90.3252C309.294 90.7094 309.966 90.9015 310.794 90.9015C311.562 90.9015 312.168 90.7315 312.611 90.3917C313.054 90.0519 313.276 89.6235 313.276 89.1064C313.276 88.5745 313.039 88.1829 312.567 87.9318C312.094 87.6658 311.362 87.4073 310.373 87.1561C309.471 86.9197 308.733 86.6833 308.156 86.4469C307.595 86.1958 307.107 85.8338 306.694 85.361C306.295 84.8735 306.095 84.2382 306.095 83.4551C306.095 82.8346 306.28 82.2658 306.649 81.7487C307.019 81.2316 307.543 80.8253 308.223 80.5298C308.903 80.2195 309.678 80.0644 310.55 80.0644C311.894 80.0644 312.98 80.4042 313.808 81.0838C314.635 81.7634 315.078 82.6942 315.137 83.8762H313.121C313.076 83.2409 312.818 82.7312 312.345 82.347C311.887 81.9629 311.266 81.7708 310.483 81.7708C309.759 81.7708 309.183 81.926 308.755 82.2362C308.326 82.5465 308.112 82.9528 308.112 83.4551C308.112 83.854 308.238 84.1865 308.489 84.4524C308.755 84.7036 309.08 84.9104 309.464 85.0729C309.863 85.2207 310.41 85.3906 311.104 85.5826C311.976 85.819 312.685 86.0554 313.231 86.2918C313.778 86.5134 314.243 86.8532 314.628 87.3113C315.027 87.7693 315.233 88.3676 315.248 89.1064C315.248 89.7712 315.063 90.3696 314.694 90.9015C314.325 91.4333 313.8 91.8544 313.121 92.1647C312.456 92.4602 311.688 92.6079 310.816 92.6079ZM328.866 80.2638V92.4084H326.849V90.6133C326.465 91.2339 325.926 91.7214 325.231 92.076C324.552 92.4158 323.798 92.5857 322.971 92.5857C322.025 92.5857 321.176 92.3937 320.422 92.0095C319.669 91.6106 319.07 91.0196 318.627 90.2366C318.198 89.4536 317.984 88.5006 317.984 87.3777V80.2638H319.979V87.1118C319.979 88.3085 320.282 89.2319 320.887 89.882C321.493 90.5173 322.321 90.835 323.37 90.835C324.448 90.835 325.298 90.5025 325.918 89.8377C326.539 89.1728 326.849 88.2051 326.849 86.9345V80.2638H328.866ZM336.57 92.6079C335.639 92.6079 334.805 92.4528 334.066 92.1425C333.327 91.8175 332.744 91.3742 332.315 90.8128C331.887 90.2366 331.65 89.5791 331.606 88.8404H333.689C333.748 89.4462 334.029 89.9411 334.531 90.3252C335.048 90.7094 335.721 90.9015 336.548 90.9015C337.316 90.9015 337.922 90.7315 338.365 90.3917C338.808 90.0519 339.03 89.6235 339.03 89.1064C339.03 88.5745 338.794 88.1829 338.321 87.9318C337.848 87.6658 337.117 87.4073 336.127 87.1561C335.226 86.9197 334.487 86.6833 333.911 86.4469C333.349 86.1958 332.862 85.8338 332.448 85.361C332.049 84.8735 331.85 84.2382 331.85 83.4551C331.85 82.8346 332.034 82.2658 332.404 81.7487C332.773 81.2316 333.298 80.8253 333.977 80.5298C334.657 80.2195 335.432 80.0644 336.304 80.0644C337.649 80.0644 338.735 80.4042 339.562 81.0838C340.389 81.7634 340.833 82.6942 340.892 83.8762H338.875C338.831 83.2409 338.572 82.7312 338.099 82.347C337.641 81.9629 337.021 81.7708 336.238 81.7708C335.514 81.7708 334.938 81.926 334.509 82.2362C334.081 82.5465 333.866 82.9528 333.866 83.4551C333.866 83.854 333.992 84.1865 334.243 84.4524C334.509 84.7036 334.834 84.9104 335.218 85.0729C335.617 85.2207 336.164 85.3906 336.858 85.5826C337.73 85.819 338.439 86.0554 338.986 86.2918C339.532 86.5134 339.998 86.8532 340.382 87.3113C340.781 87.7693 340.988 88.3676 341.002 89.1064C341.002 89.7712 340.818 90.3696 340.448 90.9015C340.079 91.4333 339.555 91.8544 338.875 92.1647C338.21 92.4602 337.442 92.6079 336.57 92.6079ZM346.309 81.926V89.0842C346.309 89.6752 346.435 90.0962 346.686 90.3474C346.937 90.5838 347.373 90.702 347.994 90.702H349.478V92.4084H347.661C346.538 92.4084 345.696 92.1499 345.135 91.6328C344.573 91.1157 344.293 90.2661 344.293 89.0842V81.926H342.719V80.2638H344.293V77.2055H346.309V80.2638H349.478V81.926H346.309ZM351.168 86.2918C351.168 85.0508 351.42 83.9648 351.922 83.034C352.424 82.0885 353.111 81.3571 353.983 80.84C354.869 80.3229 355.852 80.0644 356.931 80.0644C357.994 80.0644 358.918 80.2934 359.701 80.7514C360.484 81.2094 361.067 81.7856 361.451 82.48V80.2638H363.49V92.4084H361.451V90.148C361.053 90.8571 360.454 91.4481 359.656 91.9209C358.873 92.3789 357.957 92.6079 356.908 92.6079C355.83 92.6079 354.855 92.342 353.983 91.8101C353.111 91.2782 352.424 90.5321 351.922 89.5717C351.42 88.6114 351.168 87.5181 351.168 86.2918ZM361.451 86.314C361.451 85.398 361.267 84.6001 360.897 83.9205C360.528 83.2409 360.026 82.7238 359.39 82.3692C358.77 81.9998 358.083 81.8152 357.329 81.8152C356.576 81.8152 355.889 81.9924 355.268 82.347C354.648 82.7016 354.153 83.2187 353.784 83.8984C353.414 84.578 353.23 85.3758 353.23 86.2918C353.23 87.2226 353.414 88.0352 353.784 88.7296C354.153 89.4092 354.648 89.9337 355.268 90.3031C355.889 90.6577 356.576 90.835 357.329 90.835C358.083 90.835 358.77 90.6577 359.39 90.3031C360.026 89.9337 360.528 89.4092 360.897 88.7296C361.267 88.0352 361.451 87.23 361.451 86.314ZM367.94 78.2914C367.556 78.2914 367.231 78.1585 366.965 77.8925C366.699 77.6266 366.566 77.3016 366.566 76.9174C366.566 76.5333 366.699 76.2082 366.965 75.9423C367.231 75.6764 367.556 75.5434 367.94 75.5434C368.309 75.5434 368.62 75.6764 368.871 75.9423C369.137 76.2082 369.27 76.5333 369.27 76.9174C369.27 77.3016 369.137 77.6266 368.871 77.8925C368.62 78.1585 368.309 78.2914 367.94 78.2914ZM368.915 80.2638V92.4084H366.898V80.2638H368.915ZM378.269 80.0422C379.747 80.0422 380.944 80.4928 381.86 81.3941C382.776 82.2805 383.234 83.5659 383.234 85.2502V92.4084H381.239V85.5383C381.239 84.3268 380.936 83.4034 380.33 82.7681C379.725 82.118 378.897 81.793 377.848 81.793C376.785 81.793 375.935 82.1254 375.3 82.7903C374.679 83.4551 374.369 84.4228 374.369 85.6935V92.4084H372.352V80.2638H374.369V81.9924C374.768 81.3719 375.307 80.8917 375.987 80.5519C376.681 80.2121 377.442 80.0422 378.269 80.0422ZM394.453 76.0088V92.4084H392.436V76.0088H394.453ZM403.187 92.6079C402.049 92.6079 401.015 92.3493 400.084 91.8322C399.168 91.3151 398.444 90.5838 397.912 89.6382C397.395 88.6779 397.137 87.5698 397.137 86.314C397.137 85.0729 397.403 83.9796 397.934 83.034C398.481 82.0737 399.22 81.3424 400.151 80.84C401.081 80.3229 402.123 80.0644 403.275 80.0644C404.428 80.0644 405.469 80.3229 406.4 80.84C407.331 81.3424 408.062 82.0663 408.594 83.0119C409.141 83.9575 409.414 85.0581 409.414 86.314C409.414 87.5698 409.134 88.6779 408.572 89.6382C408.025 90.5838 407.279 91.3151 406.334 91.8322C405.388 92.3493 404.339 92.6079 403.187 92.6079ZM403.187 90.835C403.911 90.835 404.59 90.6651 405.226 90.3252C405.861 89.9854 406.371 89.4757 406.755 88.7961C407.154 88.1165 407.353 87.2891 407.353 86.314C407.353 85.3389 407.161 84.5115 406.777 83.8319C406.393 83.1522 405.891 82.6499 405.27 82.3249C404.649 81.9851 403.977 81.8152 403.253 81.8152C402.515 81.8152 401.835 81.9851 401.214 82.3249C400.609 82.6499 400.121 83.1522 399.752 83.8319C399.382 84.5115 399.198 85.3389 399.198 86.314C399.198 87.3039 399.375 88.1386 399.73 88.8183C400.099 89.4979 400.587 90.0076 401.192 90.3474C401.798 90.6724 402.463 90.835 403.187 90.835ZM417.983 80.0422C419.461 80.0422 420.657 80.4928 421.573 81.3941C422.489 82.2805 422.947 83.5659 422.947 85.2502V92.4084H420.953V85.5383C420.953 84.3268 420.65 83.4034 420.044 82.7681C419.438 82.118 418.611 81.793 417.562 81.793C416.498 81.793 415.649 82.1254 415.013 82.7903C414.393 83.4551 414.083 84.4228 414.083 85.6935V92.4084H412.066V80.2638H414.083V81.9924C414.482 81.3719 415.021 80.8917 415.7 80.5519C416.395 80.2121 417.156 80.0422 417.983 80.0422ZM431.25 80.0644C432.299 80.0644 433.215 80.2934 433.998 80.7514C434.796 81.2094 435.387 81.7856 435.771 82.48V80.2638H437.81V92.6744C437.81 93.7825 437.574 94.765 437.101 95.6219C436.628 96.4936 435.948 97.1732 435.062 97.6608C434.19 98.1483 433.171 98.3921 432.004 98.3921C430.408 98.3921 429.078 98.0154 428.015 97.2619C426.951 96.5084 426.323 95.4815 426.131 94.1814H428.125C428.347 94.9201 428.805 95.5111 429.499 95.9543C430.194 96.4123 431.029 96.6413 432.004 96.6413C433.112 96.6413 434.013 96.2941 434.707 95.5997C435.417 94.9053 435.771 93.9302 435.771 92.6744V90.1258C435.372 90.835 434.781 91.4259 433.998 91.8987C433.215 92.3715 432.299 92.6079 431.25 92.6079C430.172 92.6079 429.189 92.342 428.303 91.8101C427.431 91.2782 426.744 90.5321 426.242 89.5717C425.739 88.6114 425.488 87.5181 425.488 86.2918C425.488 85.0508 425.739 83.9648 426.242 83.034C426.744 82.0885 427.431 81.3571 428.303 80.84C429.189 80.3229 430.172 80.0644 431.25 80.0644ZM435.771 86.314C435.771 85.398 435.586 84.6001 435.217 83.9205C434.848 83.2409 434.345 82.7238 433.71 82.3692C433.09 81.9998 432.403 81.8152 431.649 81.8152C430.896 81.8152 430.209 81.9924 429.588 82.347C428.967 82.7016 428.473 83.2187 428.103 83.8984C427.734 84.578 427.549 85.3758 427.549 86.2918C427.549 87.2226 427.734 88.0352 428.103 88.7296C428.473 89.4092 428.967 89.9337 429.588 90.3031C430.209 90.6577 430.896 90.835 431.649 90.835C432.403 90.835 433.09 90.6577 433.71 90.3031C434.345 89.9337 434.848 89.4092 435.217 88.7296C435.586 88.0352 435.771 87.23 435.771 86.314ZM449.639 83.433V85.1394H440.797V83.433H449.639ZM455.884 81.926V89.0842C455.884 89.6752 456.01 90.0962 456.261 90.3474C456.512 90.5838 456.948 90.702 457.569 90.702H459.053V92.4084H457.236C456.113 92.4084 455.271 92.1499 454.71 91.6328C454.148 91.1157 453.868 90.2661 453.868 89.0842V81.926H452.294V80.2638H453.868V77.2055H455.884V80.2638H459.053V81.926H455.884ZM472.578 85.8707C472.578 86.2549 472.556 86.6612 472.511 87.0896H462.804C462.878 88.2864 463.285 89.2245 464.023 89.9042C464.777 90.569 465.685 90.9015 466.749 90.9015C467.621 90.9015 468.345 90.702 468.921 90.3031C469.512 89.8894 469.926 89.3427 470.162 88.6631H472.334C472.009 89.8303 471.359 90.7833 470.384 91.522C469.409 92.2459 468.197 92.6079 466.749 92.6079C465.597 92.6079 464.563 92.3493 463.647 91.8322C462.745 91.3151 462.036 90.5838 461.519 89.6382C461.002 88.6779 460.743 87.5698 460.743 86.314C460.743 85.0581 460.995 83.9575 461.497 83.0119C461.999 82.0663 462.701 81.3424 463.602 80.84C464.518 80.3229 465.567 80.0644 466.749 80.0644C467.902 80.0644 468.921 80.3155 469.807 80.8179C470.694 81.3202 471.374 82.0146 471.846 82.9011C472.334 83.7728 472.578 84.7627 472.578 85.8707ZM470.495 85.4497C470.495 84.6814 470.325 84.0239 469.985 83.4773C469.645 82.9159 469.18 82.4948 468.589 82.2141C468.012 81.9186 467.37 81.7708 466.661 81.7708C465.641 81.7708 464.769 82.0959 464.045 82.7459C463.336 83.396 462.93 84.2973 462.827 85.4497H470.495ZM477.256 82.2362C477.611 81.5418 478.113 81.0026 478.763 80.6184C479.428 80.2343 480.233 80.0422 481.179 80.0422V82.1254H480.647C478.387 82.1254 477.256 83.3517 477.256 85.8043V92.4084H475.24V80.2638H477.256V82.2362ZM498.112 80.0422C499.057 80.0422 499.899 80.2417 500.638 80.6406C501.377 81.0247 501.96 81.6083 502.389 82.3914C502.817 83.1744 503.032 84.1274 503.032 85.2502V92.4084H501.037V85.5383C501.037 84.3268 500.734 83.4034 500.128 82.7681C499.537 82.118 498.732 81.793 497.713 81.793C496.664 81.793 495.829 82.1328 495.208 82.8124C494.588 83.4773 494.278 84.445 494.278 85.7156V92.4084H492.283V85.5383C492.283 84.3268 491.98 83.4034 491.374 82.7681C490.784 82.118 489.978 81.793 488.959 81.793C487.91 81.793 487.075 82.1328 486.455 82.8124C485.834 83.4773 485.524 84.445 485.524 85.7156V92.4084H483.507V80.2638H485.524V82.0146C485.923 81.3793 486.455 80.8917 487.119 80.5519C487.799 80.2121 488.545 80.0422 489.358 80.0422C490.377 80.0422 491.278 80.2712 492.061 80.7292C492.845 81.1872 493.428 81.8595 493.812 82.7459C494.152 81.889 494.714 81.2242 495.497 80.7514C496.28 80.2786 497.151 80.0422 498.112 80.0422ZM517.545 92.6079C516.407 92.6079 515.373 92.3493 514.442 91.8322C513.526 91.3151 512.802 90.5838 512.27 89.6382C511.753 88.6779 511.495 87.5698 511.495 86.314C511.495 85.0729 511.76 83.9796 512.292 83.034C512.839 82.0737 513.578 81.3424 514.509 80.84C515.439 80.3229 516.481 80.0644 517.633 80.0644C518.786 80.0644 519.827 80.3229 520.758 80.84C521.689 81.3424 522.42 82.0663 522.952 83.0119C523.499 83.9575 523.772 85.0581 523.772 86.314C523.772 87.5698 523.491 88.6779 522.93 89.6382C522.383 90.5838 521.637 91.3151 520.692 91.8322C519.746 92.3493 518.697 92.6079 517.545 92.6079ZM517.545 90.835C518.269 90.835 518.948 90.6651 519.584 90.3252C520.219 89.9854 520.729 89.4757 521.113 88.7961C521.512 88.1165 521.711 87.2891 521.711 86.314C521.711 85.3389 521.519 84.5115 521.135 83.8319C520.751 83.1522 520.248 82.6499 519.628 82.3249C519.007 81.9851 518.335 81.8152 517.611 81.8152C516.872 81.8152 516.193 81.9851 515.572 82.3249C514.967 82.6499 514.479 83.1522 514.11 83.8319C513.74 84.5115 513.556 85.3389 513.556 86.314C513.556 87.3039 513.733 88.1386 514.087 88.8183C514.457 89.4979 514.944 90.0076 515.55 90.3474C516.156 90.6724 516.821 90.835 517.545 90.835ZM528.44 82.2362C528.795 81.5418 529.297 81.0026 529.947 80.6184C530.612 80.2343 531.418 80.0422 532.363 80.0422V82.1254H531.831C529.571 82.1254 528.44 83.3517 528.44 85.8043V92.4084H526.424V80.2638H528.44V82.2362ZM539.7 80.0644C540.749 80.0644 541.665 80.2934 542.448 80.7514C543.245 81.2094 543.836 81.7856 544.221 82.48V80.2638H546.259V92.6744C546.259 93.7825 546.023 94.765 545.55 95.6219C545.078 96.4936 544.398 97.1732 543.511 97.6608C542.64 98.1483 541.62 98.3921 540.453 98.3921C538.857 98.3921 537.528 98.0154 536.464 97.2619C535.4 96.5084 534.772 95.4815 534.58 94.1814H536.575C536.796 94.9201 537.254 95.5111 537.949 95.9543C538.643 96.4123 539.478 96.6413 540.453 96.6413C541.561 96.6413 542.462 96.2941 543.157 95.5997C543.866 94.9053 544.221 93.9302 544.221 92.6744V90.1258C543.822 90.835 543.231 91.4259 542.448 91.8987C541.665 92.3715 540.749 92.6079 539.7 92.6079C538.621 92.6079 537.639 92.342 536.752 91.8101C535.88 91.2782 535.193 90.5321 534.691 89.5717C534.189 88.6114 533.938 87.5181 533.938 86.2918C533.938 85.0508 534.189 83.9648 534.691 83.034C535.193 82.0885 535.88 81.3571 536.752 80.84C537.639 80.3229 538.621 80.0644 539.7 80.0644ZM544.221 86.314C544.221 85.398 544.036 84.6001 543.667 83.9205C543.297 83.2409 542.795 82.7238 542.16 82.3692C541.539 81.9998 540.852 81.8152 540.099 81.8152C539.345 81.8152 538.658 81.9924 538.037 82.347C537.417 82.7016 536.922 83.2187 536.553 83.8984C536.183 84.578 535.999 85.3758 535.999 86.2918C535.999 87.2226 536.183 88.0352 536.553 88.7296C536.922 89.4092 537.417 89.9337 538.037 90.3031C538.658 90.6577 539.345 90.835 540.099 90.835C540.852 90.835 541.539 90.6577 542.16 90.3031C542.795 89.9337 543.297 89.4092 543.667 88.7296C544.036 88.0352 544.221 87.23 544.221 86.314ZM548.914 86.2918C548.914 85.0508 549.165 83.9648 549.668 83.034C550.17 82.0885 550.857 81.3571 551.729 80.84C552.615 80.3229 553.598 80.0644 554.676 80.0644C555.74 80.0644 556.663 80.2934 557.446 80.7514C558.229 81.2094 558.813 81.7856 559.197 82.48V80.2638H561.236V92.4084H559.197V90.148C558.798 90.8571 558.2 91.4481 557.402 91.9209C556.619 92.3789 555.703 92.6079 554.654 92.6079C553.575 92.6079 552.6 92.342 551.729 91.8101C550.857 91.2782 550.17 90.5321 549.668 89.5717C549.165 88.6114 548.914 87.5181 548.914 86.2918ZM559.197 86.314C559.197 85.398 559.012 84.6001 558.643 83.9205C558.274 83.2409 557.771 82.7238 557.136 82.3692C556.516 81.9998 555.829 81.8152 555.075 81.8152C554.322 81.8152 553.635 81.9924 553.014 82.347C552.393 82.7016 551.899 83.2187 551.529 83.8984C551.16 84.578 550.975 85.3758 550.975 86.2918C550.975 87.2226 551.16 88.0352 551.529 88.7296C551.899 89.4092 552.393 89.9337 553.014 90.3031C553.635 90.6577 554.322 90.835 555.075 90.835C555.829 90.835 556.516 90.6577 557.136 90.3031C557.771 89.9337 558.274 89.4092 558.643 88.7296C559.012 88.0352 559.197 87.23 559.197 86.314ZM570.561 80.0422C572.039 80.0422 573.235 80.4928 574.151 81.3941C575.067 82.2805 575.525 83.5659 575.525 85.2502V92.4084H573.531V85.5383C573.531 84.3268 573.228 83.4034 572.622 82.7681C572.016 82.118 571.189 81.793 570.14 81.793C569.076 81.793 568.227 82.1254 567.592 82.7903C566.971 83.4551 566.661 84.4228 566.661 85.6935V92.4084H564.644V80.2638H566.661V81.9924C567.06 81.3719 567.599 80.8917 568.279 80.5519C568.973 80.2121 569.734 80.0422 570.561 80.0422ZM579.861 78.2914C579.477 78.2914 579.152 78.1585 578.886 77.8925C578.62 77.6266 578.487 77.3016 578.487 76.9174C578.487 76.5333 578.62 76.2082 578.886 75.9423C579.152 75.6764 579.477 75.5434 579.861 75.5434C580.231 75.5434 580.541 75.6764 580.792 75.9423C581.058 76.2082 581.191 76.5333 581.191 76.9174C581.191 77.3016 581.058 77.6266 580.792 77.8925C580.541 78.1585 580.231 78.2914 579.861 78.2914ZM580.836 80.2638V92.4084H578.82V80.2638H580.836ZM583.52 86.314C583.52 85.0581 583.771 83.9648 584.274 83.034C584.776 82.0885 585.47 81.3571 586.357 80.84C587.258 80.3229 588.285 80.0644 589.437 80.0644C590.929 80.0644 592.156 80.4264 593.116 81.1503C594.091 81.8743 594.734 82.8789 595.044 84.1643H592.872C592.665 83.4256 592.259 82.842 591.653 82.4135C591.062 81.9851 590.324 81.7708 589.437 81.7708C588.285 81.7708 587.354 82.1697 586.645 82.9676C585.936 83.7506 585.581 84.8661 585.581 86.314C585.581 87.7767 585.936 88.9069 586.645 89.7047C587.354 90.5025 588.285 90.9015 589.437 90.9015C590.324 90.9015 591.062 90.6946 591.653 90.2809C592.244 89.8672 592.651 89.2763 592.872 88.508H595.044C594.719 89.749 594.069 90.7463 593.094 91.4998C592.119 92.2385 590.9 92.6079 589.437 92.6079C588.285 92.6079 587.258 92.3493 586.357 91.8322C585.47 91.3151 584.776 90.5838 584.274 89.6382C583.771 88.6927 583.52 87.5846 583.52 86.314ZM4.1664 118.926V126.084C4.1664 126.675 4.29198 127.096 4.54315 127.347C4.79432 127.584 5.23016 127.702 5.85069 127.702H7.33552V129.408H5.51826C4.3954 129.408 3.55326 129.15 2.99183 128.633C2.4304 128.116 2.14969 127.266 2.14969 126.084V118.926H0.576204V117.264H2.14969V114.206H4.1664V117.264H7.33552V118.926H4.1664ZM11.7957 119.236C12.1503 118.542 12.6527 118.003 13.3027 117.618C13.9676 117.234 14.7728 117.042 15.7184 117.042V119.125H15.1865C12.926 119.125 11.7957 120.352 11.7957 122.804V129.408H9.77902V117.264H11.7957V119.236ZM17.2929 123.292C17.2929 122.051 17.544 120.965 18.0464 120.034C18.5487 119.088 19.2357 118.357 20.1074 117.84C20.9939 117.323 21.9764 117.064 23.0549 117.064C24.1187 117.064 25.0421 117.293 25.8251 117.751C26.6082 118.209 27.1918 118.786 27.5759 119.48V117.264H29.6148V129.408H27.5759V127.148C27.177 127.857 26.5786 128.448 25.7808 128.921C24.9978 129.379 24.0817 129.608 23.0328 129.608C21.9542 129.608 20.9791 129.342 20.1074 128.81C19.2357 128.278 18.5487 127.532 18.0464 126.572C17.544 125.611 17.2929 124.518 17.2929 123.292ZM27.5759 123.314C27.5759 122.398 27.3912 121.6 27.0219 120.921C26.6525 120.241 26.1502 119.724 25.5149 119.369C24.8943 119 24.2073 118.815 23.4538 118.815C22.7003 118.815 22.0133 118.992 21.3928 119.347C20.7723 119.702 20.2773 120.219 19.908 120.898C19.5386 121.578 19.3539 122.376 19.3539 123.292C19.3539 124.223 19.5386 125.035 19.908 125.73C20.2773 126.409 20.7723 126.934 21.3928 127.303C22.0133 127.658 22.7003 127.835 23.4538 127.835C24.2073 127.835 24.8943 127.658 25.5149 127.303C26.1502 126.934 26.6525 126.409 27.0219 125.73C27.3912 125.035 27.5759 124.23 27.5759 123.314ZM37.9649 118.926H35.4163V129.408H33.3996V118.926H31.8261V117.264H33.3996V116.4C33.3996 115.04 33.7468 114.05 34.4412 113.43C35.1504 112.795 36.2806 112.477 37.8319 112.477V114.161C36.9455 114.161 36.3175 114.338 35.9482 114.693C35.5936 115.033 35.4163 115.602 35.4163 116.4V117.264H37.9649V118.926ZM45.2584 118.926H42.7098V129.408H40.693V118.926H39.1196V117.264H40.693V116.4C40.693 115.04 41.0402 114.05 41.7346 113.43C42.4438 112.795 43.5741 112.477 45.1254 112.477V114.161C44.2389 114.161 43.611 114.338 43.2416 114.693C42.887 115.033 42.7098 115.602 42.7098 116.4V117.264H45.2584V118.926ZM48.6513 115.291C48.2672 115.291 47.9422 115.158 47.6762 114.893C47.4103 114.627 47.2773 114.302 47.2773 113.917C47.2773 113.533 47.4103 113.208 47.6762 112.942C47.9422 112.676 48.2672 112.543 48.6513 112.543C49.0207 112.543 49.331 112.676 49.5821 112.942C49.8481 113.208 49.981 113.533 49.981 113.917C49.981 114.302 49.8481 114.627 49.5821 114.893C49.331 115.158 49.0207 115.291 48.6513 115.291ZM49.6265 117.264V129.408H47.6097V117.264H49.6265ZM52.3101 123.314C52.3101 122.058 52.5613 120.965 53.0636 120.034C53.5659 119.088 54.2603 118.357 55.1468 117.84C56.048 117.323 57.0749 117.064 58.2273 117.064C59.7195 117.064 60.9458 117.426 61.9061 118.15C62.8812 118.874 63.5239 119.879 63.8342 121.164H61.6623C61.4555 120.426 61.0492 119.842 60.4434 119.414C59.8525 118.985 59.1137 118.771 58.2273 118.771C57.0749 118.771 56.1441 119.17 55.4349 119.968C54.7257 120.751 54.3711 121.866 54.3711 123.314C54.3711 124.777 54.7257 125.907 55.4349 126.705C56.1441 127.503 57.0749 127.901 58.2273 127.901C59.1137 127.901 59.8525 127.695 60.4434 127.281C61.0344 126.867 61.4407 126.276 61.6623 125.508H63.8342C63.5092 126.749 62.8591 127.746 61.884 128.5C60.9088 129.239 59.69 129.608 58.2273 129.608C57.0749 129.608 56.048 129.349 55.1468 128.832C54.2603 128.315 53.5659 127.584 53.0636 126.638C52.5613 125.693 52.3101 124.585 52.3101 123.314ZM74.4502 119.236C74.8048 118.542 75.3071 118.003 75.9572 117.618C76.622 117.234 77.4272 117.042 78.3728 117.042V119.125H77.8409C75.5804 119.125 74.4502 120.352 74.4502 122.804V129.408H72.4334V117.264H74.4502V119.236ZM91.7817 122.871C91.7817 123.255 91.7595 123.661 91.7152 124.09H82.0083C82.0822 125.286 82.4885 126.225 83.2272 126.904C83.9807 127.569 84.8894 127.901 85.9531 127.901C86.8248 127.901 87.5488 127.702 88.125 127.303C88.716 126.889 89.1296 126.343 89.366 125.663H91.5379C91.2128 126.83 90.5628 127.783 89.5876 128.522C88.6125 129.246 87.401 129.608 85.9531 129.608C84.8007 129.608 83.7665 129.349 82.8505 128.832C81.9492 128.315 81.2401 127.584 80.723 126.638C80.2059 125.678 79.9473 124.57 79.9473 123.314C79.9473 122.058 80.1985 120.957 80.7008 120.012C81.2031 119.066 81.9049 118.342 82.8062 117.84C83.7222 117.323 84.7712 117.064 85.9531 117.064C87.1055 117.064 88.125 117.316 89.0114 117.818C89.8979 118.32 90.5775 119.015 91.0503 119.901C91.5379 120.773 91.7817 121.763 91.7817 122.871ZM89.6985 122.45C89.6985 121.681 89.5286 121.024 89.1887 120.477C88.8489 119.916 88.3835 119.495 87.7926 119.214C87.2163 118.919 86.5737 118.771 85.8645 118.771C84.845 118.771 83.9734 119.096 83.2494 119.746C82.5402 120.396 82.1339 121.297 82.0305 122.45H89.6985ZM93.6902 123.292C93.6902 122.051 93.9413 120.965 94.4437 120.034C94.946 119.088 95.633 118.357 96.5047 117.84C97.3912 117.323 98.3737 117.064 99.4522 117.064C100.516 117.064 101.439 117.293 102.222 117.751C103.005 118.209 103.589 118.786 103.973 119.48V117.264H106.012V129.408H103.973V127.148C103.574 127.857 102.976 128.448 102.178 128.921C101.395 129.379 100.479 129.608 99.43 129.608C98.3515 129.608 97.3764 129.342 96.5047 128.81C95.633 128.278 94.946 127.532 94.4437 126.572C93.9413 125.611 93.6902 124.518 93.6902 123.292ZM103.973 123.314C103.973 122.398 103.789 121.6 103.419 120.921C103.05 120.241 102.547 119.724 101.912 119.369C101.292 119 100.605 118.815 99.8511 118.815C99.0976 118.815 98.4106 118.992 97.7901 119.347C97.1695 119.702 96.6746 120.219 96.3052 120.898C95.9359 121.578 95.7512 122.376 95.7512 123.292C95.7512 124.223 95.9359 125.035 96.3052 125.73C96.6746 126.409 97.1695 126.934 97.7901 127.303C98.4106 127.658 99.0976 127.835 99.8511 127.835C100.605 127.835 101.292 127.658 101.912 127.303C102.547 126.934 103.05 126.409 103.419 125.73C103.789 125.035 103.973 124.23 103.973 123.314ZM108.667 123.314C108.667 122.058 108.918 120.965 109.42 120.034C109.922 119.088 110.617 118.357 111.503 117.84C112.405 117.323 113.431 117.064 114.584 117.064C116.076 117.064 117.302 117.426 118.263 118.15C119.238 118.874 119.88 119.879 120.191 121.164H118.019C117.812 120.426 117.406 119.842 116.8 119.414C116.209 118.985 115.47 118.771 114.584 118.771C113.431 118.771 112.501 119.17 111.791 119.968C111.082 120.751 110.728 121.866 110.728 123.314C110.728 124.777 111.082 125.907 111.791 126.705C112.501 127.503 113.431 127.901 114.584 127.901C115.47 127.901 116.209 127.695 116.8 127.281C117.391 126.867 117.797 126.276 118.019 125.508H120.191C119.866 126.749 119.216 127.746 118.24 128.5C117.265 129.239 116.046 129.608 114.584 129.608C113.431 129.608 112.405 129.349 111.503 128.832C110.617 128.315 109.922 127.584 109.42 126.638C108.918 125.693 108.667 124.585 108.667 123.314ZM125.342 118.926V126.084C125.342 126.675 125.467 127.096 125.718 127.347C125.969 127.584 126.405 127.702 127.026 127.702H128.511V129.408H126.693C125.571 129.408 124.728 129.15 124.167 128.633C123.606 128.116 123.325 127.266 123.325 126.084V118.926H121.751V117.264H123.325V114.206H125.342V117.264H128.511V118.926H125.342ZM131.996 115.291C131.612 115.291 131.287 115.158 131.021 114.893C130.755 114.627 130.622 114.302 130.622 113.917C130.622 113.533 130.755 113.208 131.021 112.942C131.287 112.676 131.612 112.543 131.996 112.543C132.365 112.543 132.675 112.676 132.927 112.942C133.193 113.208 133.325 113.533 133.325 113.917C133.325 114.302 133.193 114.627 132.927 114.893C132.675 115.158 132.365 115.291 131.996 115.291ZM132.971 117.264V129.408H130.954V117.264H132.971ZM141.705 129.608C140.567 129.608 139.533 129.349 138.602 128.832C137.686 128.315 136.962 127.584 136.43 126.638C135.913 125.678 135.655 124.57 135.655 123.314C135.655 122.073 135.92 120.98 136.452 120.034C136.999 119.074 137.738 118.342 138.669 117.84C139.599 117.323 140.641 117.064 141.793 117.064C142.946 117.064 143.987 117.323 144.918 117.84C145.849 118.342 146.58 119.066 147.112 120.012C147.659 120.957 147.932 122.058 147.932 123.314C147.932 124.57 147.651 125.678 147.09 126.638C146.543 127.584 145.797 128.315 144.852 128.832C143.906 129.349 142.857 129.608 141.705 129.608ZM141.705 127.835C142.429 127.835 143.108 127.665 143.744 127.325C144.379 126.985 144.889 126.476 145.273 125.796C145.672 125.116 145.871 124.289 145.871 123.314C145.871 122.339 145.679 121.511 145.295 120.832C144.911 120.152 144.408 119.65 143.788 119.325C143.167 118.985 142.495 118.815 141.771 118.815C141.032 118.815 140.353 118.985 139.732 119.325C139.127 119.65 138.639 120.152 138.27 120.832C137.9 121.511 137.716 122.339 137.716 123.314C137.716 124.304 137.893 125.139 138.247 125.818C138.617 126.498 139.104 127.008 139.71 127.347C140.316 127.672 140.981 127.835 141.705 127.835ZM156.501 117.042C157.978 117.042 159.175 117.493 160.091 118.394C161.007 119.281 161.465 120.566 161.465 122.25V129.408H159.471V122.538C159.471 121.327 159.168 120.403 158.562 119.768C157.956 119.118 157.129 118.793 156.08 118.793C155.016 118.793 154.167 119.125 153.531 119.79C152.911 120.455 152.6 121.423 152.6 122.693V129.408H150.584V117.264H152.6V118.992C152.999 118.372 153.539 117.892 154.218 117.552C154.913 117.212 155.674 117.042 156.501 117.042ZM169.059 129.608C168.128 129.608 167.293 129.453 166.555 129.143C165.816 128.817 165.232 128.374 164.804 127.813C164.375 127.237 164.139 126.579 164.095 125.84H166.178C166.237 126.446 166.518 126.941 167.02 127.325C167.537 127.709 168.209 127.901 169.037 127.901C169.805 127.901 170.411 127.732 170.854 127.392C171.297 127.052 171.519 126.623 171.519 126.106C171.519 125.574 171.282 125.183 170.81 124.932C170.337 124.666 169.605 124.407 168.616 124.156C167.714 123.92 166.976 123.683 166.399 123.447C165.838 123.196 165.35 122.834 164.937 122.361C164.538 121.873 164.338 121.238 164.338 120.455C164.338 119.835 164.523 119.266 164.892 118.749C165.262 118.232 165.786 117.825 166.466 117.53C167.146 117.22 167.921 117.064 168.793 117.064C170.137 117.064 171.223 117.404 172.051 118.084C172.878 118.763 173.321 119.694 173.38 120.876H171.364C171.319 120.241 171.061 119.731 170.588 119.347C170.13 118.963 169.509 118.771 168.726 118.771C168.002 118.771 167.426 118.926 166.998 119.236C166.569 119.546 166.355 119.953 166.355 120.455C166.355 120.854 166.481 121.186 166.732 121.452C166.998 121.704 167.323 121.91 167.707 122.073C168.106 122.221 168.653 122.391 169.347 122.583C170.219 122.819 170.928 123.055 171.474 123.292C172.021 123.513 172.486 123.853 172.871 124.311C173.27 124.769 173.476 125.368 173.491 126.106C173.491 126.771 173.306 127.37 172.937 127.901C172.568 128.433 172.043 128.854 171.364 129.165C170.699 129.46 169.931 129.608 169.059 129.608ZM176.981 129.541C176.597 129.541 176.272 129.408 176.006 129.143C175.74 128.877 175.607 128.552 175.607 128.167C175.607 127.783 175.74 127.458 176.006 127.192C176.272 126.926 176.597 126.793 176.981 126.793C177.35 126.793 177.66 126.926 177.912 127.192C178.177 127.458 178.31 127.783 178.31 128.167C178.31 128.552 178.177 128.877 177.912 129.143C177.66 129.408 177.35 129.541 176.981 129.541Z" fill="#362869"/>
</svg>
