<svg width="347" height="81" viewBox="0 0 347 81" fill="none" xmlns="http://www.w3.org/2000/svg">
<path d="M104.36 50.56H113.56V55H98.7599V27.08H104.36V50.56ZM137.719 43.44C137.719 44.24 137.666 44.96 137.559 45.6H121.359C121.493 47.2 122.053 48.4533 123.039 49.36C124.026 50.2667 125.239 50.72 126.679 50.72C128.759 50.72 130.239 49.8267 131.119 48.04H137.159C136.519 50.1733 135.293 51.9333 133.479 53.32C131.666 54.68 129.439 55.36 126.799 55.36C124.666 55.36 122.746 54.8933 121.039 53.96C119.359 53 118.039 51.6533 117.079 49.92C116.146 48.1867 115.679 46.1867 115.679 43.92C115.679 41.6267 116.146 39.6133 117.079 37.88C118.013 36.1467 119.319 34.8133 120.999 33.88C122.679 32.9467 124.613 32.48 126.799 32.48C128.906 32.48 130.786 32.9333 132.439 33.84C134.119 34.7467 135.413 36.04 136.319 37.72C137.253 39.3733 137.719 41.28 137.719 43.44ZM131.919 41.84C131.893 40.4 131.373 39.2533 130.359 38.4C129.346 37.52 128.106 37.08 126.639 37.08C125.253 37.08 124.079 37.5067 123.119 38.36C122.186 39.1867 121.613 40.3467 121.399 41.84H131.919ZM140.367 43.84C140.367 41.6 140.807 39.6133 141.687 37.88C142.593 36.1467 143.807 34.8133 145.327 33.88C146.873 32.9467 148.593 32.48 150.487 32.48C152.14 32.48 153.58 32.8133 154.807 33.48C156.06 34.1467 157.06 34.9867 157.807 36V32.84H163.447V55H157.807V51.76C157.087 52.8 156.087 53.6667 154.807 54.36C153.553 55.0267 152.1 55.36 150.447 55.36C148.58 55.36 146.873 54.88 145.327 53.92C143.807 52.96 142.593 51.6133 141.687 49.88C140.807 48.12 140.367 46.1067 140.367 43.84ZM157.807 43.92C157.807 42.56 157.54 41.4 157.007 40.44C156.473 39.4533 155.753 38.7067 154.847 38.2C153.94 37.6667 152.967 37.4 151.927 37.4C150.887 37.4 149.927 37.6533 149.047 38.16C148.167 38.6667 147.447 39.4133 146.887 40.4C146.353 41.36 146.087 42.5067 146.087 43.84C146.087 45.1733 146.353 46.3467 146.887 47.36C147.447 48.3467 148.167 49.1067 149.047 49.64C149.953 50.1733 150.913 50.44 151.927 50.44C152.967 50.44 153.94 50.1867 154.847 49.68C155.753 49.1467 156.473 48.4 157.007 47.44C157.54 46.4533 157.807 45.28 157.807 43.92ZM174.516 36.28C175.236 35.1067 176.17 34.1867 177.316 33.52C178.49 32.8533 179.823 32.52 181.316 32.52V38.4H179.836C178.076 38.4 176.743 38.8133 175.836 39.64C174.956 40.4667 174.516 41.9067 174.516 43.96V55H168.916V32.84H174.516V36.28ZM197.368 32.52C200.008 32.52 202.141 33.36 203.768 35.04C205.395 36.6933 206.208 39.0133 206.208 42V55H200.608V42.76C200.608 41 200.168 39.6533 199.288 38.72C198.408 37.76 197.208 37.28 195.688 37.28C194.141 37.28 192.915 37.76 192.008 38.72C191.128 39.6533 190.688 41 190.688 42.76V55H185.088V32.84H190.688V35.6C191.435 34.64 192.381 33.8933 193.528 33.36C194.701 32.8 195.981 32.52 197.368 32.52ZM251.505 27.08V55H245.905V36.84L238.425 55H234.185L226.665 36.84V55H221.065V27.08H227.425L236.305 47.84L245.185 27.08H251.505ZM266.881 55.36C264.748 55.36 262.828 54.8933 261.121 53.96C259.415 53 258.068 51.6533 257.081 49.92C256.121 48.1867 255.641 46.1867 255.641 43.92C255.641 41.6533 256.135 39.6533 257.121 37.92C258.135 36.1867 259.508 34.8533 261.241 33.92C262.975 32.96 264.908 32.48 267.041 32.48C269.175 32.48 271.108 32.96 272.841 33.92C274.575 34.8533 275.935 36.1867 276.921 37.92C277.935 39.6533 278.441 41.6533 278.441 43.92C278.441 46.1867 277.921 48.1867 276.881 49.92C275.868 51.6533 274.481 53 272.721 53.96C270.988 54.8933 269.041 55.36 266.881 55.36ZM266.881 50.48C267.895 50.48 268.841 50.24 269.721 49.76C270.628 49.2533 271.348 48.5067 271.881 47.52C272.415 46.5333 272.681 45.3333 272.681 43.92C272.681 41.8133 272.121 40.2 271.001 39.08C269.908 37.9333 268.561 37.36 266.961 37.36C265.361 37.36 264.015 37.9333 262.921 39.08C261.855 40.2 261.321 41.8133 261.321 43.92C261.321 46.0267 261.841 47.6533 262.881 48.8C263.948 49.92 265.281 50.48 266.881 50.48ZM288.149 36.28C288.869 35.1067 289.802 34.1867 290.949 33.52C292.122 32.8533 293.456 32.52 294.949 32.52V38.4H293.469C291.709 38.4 290.376 38.8133 289.469 39.64C288.589 40.4667 288.149 41.9067 288.149 43.96V55H282.549V32.84H288.149V36.28ZM319.321 43.44C319.321 44.24 319.268 44.96 319.161 45.6H302.961C303.094 47.2 303.654 48.4533 304.641 49.36C305.628 50.2667 306.841 50.72 308.281 50.72C310.361 50.72 311.841 49.8267 312.721 48.04H318.761C318.121 50.1733 316.894 51.9333 315.081 53.32C313.268 54.68 311.041 55.36 308.401 55.36C306.268 55.36 304.348 54.8933 302.641 53.96C300.961 53 299.641 51.6533 298.681 49.92C297.748 48.1867 297.281 46.1867 297.281 43.92C297.281 41.6267 297.748 39.6133 298.681 37.88C299.614 36.1467 300.921 34.8133 302.601 33.88C304.281 32.9467 306.214 32.48 308.401 32.48C310.508 32.48 312.388 32.9333 314.041 33.84C315.721 34.7467 317.014 36.04 317.921 37.72C318.854 39.3733 319.321 41.28 319.321 43.44ZM313.521 41.84C313.494 40.4 312.974 39.2533 311.961 38.4C310.948 37.52 309.708 37.08 308.241 37.08C306.854 37.08 305.681 37.5067 304.721 38.36C303.788 39.1867 303.214 40.3467 303.001 41.84H313.521Z" fill="#362869"/>
<rect x="71.4999" y="7.5" width="274" height="66" stroke="#362869" stroke-width="3"/>
<rect x="-1.5" y="1.5" width="66" height="66" transform="matrix(-1 0 0 1 69.9999 6)" stroke="#362869" stroke-width="3"/>
<path d="M16.5367 23.1666L47.6387 54.2686L21.6382 54.2686V61.3414L60.4478 61.3414L60.4474 22.6582L53.375 22.831L53.375 48.5324L22.2729 17.4303L16.5367 23.1666Z" fill="#362869"/>
</svg>
