<svg width="1446" height="1157" viewBox="0 0 1446 1157" fill="none" xmlns="http://www.w3.org/2000/svg">
<path d="M1446 416.5L1062.32 883.862V1156.07H939.103V860.521L1190.52 567.69L0 746.864L863.769 0.0682373L951.6 60.5733L333 600.5L866.5 506.5L1446 416.5Z" fill="url(#paint0_linear_185_590)"/>
<path d="M1446 416.5L1062.32 883.862V1156.07H939.103V860.521L1190.52 567.69L0 746.864L863.769 0.0682373L951.6 60.5733L333 600.5L866.5 506.5L1446 416.5Z" fill="url(#paint1_linear_185_590)"/>
<path d="M1446 416.5L1062.32 883.862V1156.07H939.103V860.521L1190.52 567.69L0 746.864L863.769 0.0682373L951.6 60.5733L333 600.5L866.5 506.5L1446 416.5Z" stroke="black"/>
<defs>
<linearGradient id="paint0_linear_185_590" x1="886" y1="945.722" x2="901.583" y2="264.028" gradientUnits="userSpaceOnUse">
<stop offset="0.101658" stop-color="#FACB24"/>
</linearGradient>
<linearGradient id="paint1_linear_185_590" x1="886" y1="945.722" x2="901.583" y2="264.028" gradientUnits="userSpaceOnUse">
<stop offset="0.101658" stop-color="#FACB24"/>
</linearGradient>
</defs>
</svg>
