<svg width="159" height="55" viewBox="0 0 159 55" fill="none" xmlns="http://www.w3.org/2000/svg">
<g clip-path="url(#clip0_38_2736)">
<path d="M34.5594 30.2679L29.0259 39.4828L28.6938 40.0364V54.6508H9.25122V35.7142L34.5594 30.2679Z" fill="#FACB24"/>
<path d="M48.4255 13.4775V17.6123L19.1796 23.9018L27.6113 13.4775L34.1066 5.45486L37.0049 8.32495L32.8299 13.4775L29.5263 17.5569L48.4255 13.4775Z" fill="#FACB24"/>
<path d="M37.5137 42.4253L48.4254 24.268V54.6508H37.5137V42.4253Z" fill="#FACB24"/>
<path d="M47.6707 20.9337L35.1416 41.7823V54.6508H31.0659V40.6751L39.3812 26.8357L9.25121 33.3126L0 35.3054L9.25121 23.8762L17.6614 13.4775L28.5731 0L31.4757 2.86157L22.8843 13.4775L10.3596 28.9606L47.6707 20.9337Z" fill="#FACB24"/>
<path d="M14.6294 13.4775L9.25122 20.1246V13.4775H14.6294Z" fill="#FACB24"/>
<path d="M58.6255 53.9269C57.3014 53.2115 56.2706 52.2066 55.5374 50.912C54.8042 49.6175 54.4376 48.1399 54.4376 46.4707C54.4376 44.8014 54.8042 43.3238 55.5374 42.0293C56.2706 40.7347 57.3014 39.7298 58.6255 39.0144C59.9495 38.299 61.4677 37.9413 63.1713 37.9413C64.7498 37.9413 66.1644 38.2309 67.4195 38.8057C68.6746 39.3806 69.701 40.211 70.4989 41.2968C71.2968 42.3784 71.8187 43.6517 72.0731 45.1165H66.462C66.2421 44.4948 65.8582 43.9966 65.3148 43.6304C64.7714 43.2642 64.1417 43.0811 63.4344 43.0811C62.4726 43.0811 61.6963 43.3919 61.1011 44.0179C60.5102 44.6396 60.2126 45.4614 60.2126 46.4707C60.2126 47.4799 60.5102 48.2804 61.1011 48.9149C61.6919 49.5451 62.4553 49.8603 63.3869 49.8603C64.1287 49.8603 64.7757 49.6729 65.3277 49.2982C65.8798 48.9234 66.2766 48.4082 66.5095 47.7567H72.1421C71.9524 49.2045 71.4521 50.4777 70.6369 51.5678C69.8261 52.6579 68.7781 53.5053 67.5014 54.1058C66.2248 54.7062 64.7929 55.0043 63.2144 55.0043C61.4763 55.0043 59.9495 54.6466 58.6212 53.9312L58.6255 53.9269Z" fill="#FACB24"/>
<path d="M74.2253 38.2905H86.1548V42.4764H79.7889V44.3713H85.5424V48.438H79.7889V50.4011H86.392V54.6551H74.2253V38.2948V38.2905Z" fill="#FACB24"/>
<path d="M89.7432 53.4926C88.4881 52.4876 87.8627 51.0824 87.8627 49.2726H93.3315C93.3315 49.8006 93.4738 50.2094 93.7585 50.4862C94.0431 50.763 94.4529 50.9078 94.9877 50.9078C95.4448 50.9078 95.7985 50.8184 96.053 50.6395C96.3074 50.4607 96.4325 50.2052 96.4325 49.8815C96.4325 49.477 96.2169 49.1449 95.7812 48.8894C95.3456 48.6339 94.6556 48.4252 93.711 48.2719C91.753 47.944 90.3082 47.3606 89.3809 46.5175C88.4493 45.6744 87.9835 44.5374 87.9835 43.1066C87.9835 41.5012 88.5787 40.2408 89.769 39.321C90.9594 38.4012 92.5983 37.9413 94.6815 37.9413C96.1004 37.9413 97.3382 38.167 98.3862 38.6184C99.4343 39.0698 100.249 39.7213 100.823 40.5687C101.401 41.4161 101.694 42.4125 101.712 43.5495H96.3635C96.3635 43.0342 96.2255 42.6425 95.9495 42.3699C95.6734 42.0974 95.2809 41.9611 94.7763 41.9611C94.3364 41.9611 93.9871 42.0548 93.7369 42.2422C93.4825 42.4295 93.3574 42.6808 93.3574 42.9916C93.3574 43.3664 93.5601 43.6687 93.9612 43.9029C94.3623 44.1371 95.061 44.3458 96.0573 44.5331C98.1232 44.9206 99.637 45.5296 100.59 46.3557C101.543 47.1818 102.022 48.2975 102.022 49.6984C102.022 51.3677 101.405 52.6665 100.176 53.6033C98.9469 54.5401 97.2261 55.0043 95.0135 55.0043C92.801 55.0043 91.0025 54.5018 89.7475 53.4968L89.7432 53.4926Z" fill="#FACB24"/>
<path d="M104.196 38.2905H109.923V54.6508H104.196V38.2905Z" fill="#FACB24"/>
<path d="M116.306 54.1483C115.164 53.5777 114.288 52.7559 113.68 51.6828C113.072 50.6097 112.77 49.3322 112.77 47.8503V38.2905H118.476V47.548C118.476 49.0597 119.106 49.8134 120.369 49.8134C121.633 49.8134 122.263 49.0597 122.263 47.548V38.2905H127.99V47.8503C127.99 49.3322 127.688 50.6097 127.08 51.6828C126.472 52.7559 125.592 53.582 124.441 54.1483C123.289 54.7147 121.93 55 120.369 55C118.808 55 117.454 54.7147 116.311 54.1483H116.306Z" fill="#FACB24"/>
<path d="M130.85 38.2905H135.49L140.653 45.1634L145.837 38.2905H150.452V54.6508H144.867V50.8865L144.914 47.5225H144.845L142.24 51.0526H139.07L136.465 47.5012L136.392 47.5225L136.439 50.8865V54.6508H130.854V38.2905H130.85Z" fill="#FACB24"/>
<path d="M122.245 33.1507C122.245 31.5198 123.388 30.3573 124.988 30.3573C126.252 30.3573 127.24 31.0727 127.589 32.1202H127.076C126.735 31.3197 125.985 30.83 125.01 30.83C123.656 30.83 122.728 31.7753 122.728 33.1507C122.728 34.5262 123.664 35.4715 125.01 35.4715C126.278 35.4715 127.145 34.6326 127.244 33.4573H124.829V33.0102H127.749C127.766 34.7178 126.657 35.9399 124.997 35.9399C123.336 35.9399 122.241 34.7774 122.241 33.1465L122.245 33.1507Z" fill="#FACB24"/>
<path d="M129.107 30.4595H131.126C132.225 30.4595 132.941 31.1153 132.941 32.1373C132.941 33.0315 132.402 33.6362 131.548 33.7852L133.028 35.8462H132.458L130.992 33.8235H129.582V35.8462H129.107V30.4638V30.4595ZM131.078 33.3722C131.945 33.3722 132.458 32.9038 132.458 32.133C132.458 31.3623 131.945 30.9024 131.078 30.9024H129.582V33.3722H131.078Z" fill="#FACB24"/>
<path d="M133.981 33.1507C133.981 31.5028 135.132 30.3573 136.793 30.3573C138.453 30.3573 139.605 31.5028 139.605 33.1507C139.605 34.7987 138.462 35.9442 136.793 35.9442C135.124 35.9442 133.981 34.7987 133.981 33.1507ZM136.793 35.4715C138.182 35.4715 139.13 34.5262 139.13 33.1507C139.13 31.7753 138.182 30.83 136.793 30.83C135.404 30.83 134.464 31.7668 134.464 33.1507C134.464 34.5347 135.413 35.4715 136.793 35.4715Z" fill="#FACB24"/>
<path d="M140.912 33.7214V30.4595H141.377V33.6958C141.377 34.8413 141.955 35.48 142.969 35.48C143.982 35.48 144.56 34.8413 144.56 33.6958V30.4595H145.026V33.7214C145.026 35.1053 144.246 35.9357 142.969 35.9357C141.692 35.9357 140.912 35.1053 140.912 33.7214Z" fill="#FACB24"/>
<path d="M146.712 30.4595H148.442C149.706 30.4595 150.452 31.1153 150.452 32.2267C150.452 33.3381 149.706 33.9939 148.442 33.9939H147.187V35.8377H146.712V30.4552V30.4595ZM148.433 33.5638C149.455 33.5638 149.977 33.1081 149.977 32.2352C149.977 31.3622 149.455 30.9066 148.433 30.9066H147.187V33.568H148.433V33.5638Z" fill="#FACB24"/>
<path d="M156.8 54.6508C158.015 54.6508 159 53.6785 159 52.4791C159 51.2797 158.015 50.3074 156.8 50.3074C155.586 50.3074 154.601 51.2797 154.601 52.4791C154.601 53.6785 155.586 54.6508 156.8 54.6508Z" fill="#FACB24"/>
</g>
<defs>
<clipPath id="clip0_38_2736">
<rect width="159" height="55" fill="white"/>
</clipPath>
</defs>
</svg>
