<svg width="19" height="18" viewBox="0 0 19 18" fill="none" xmlns="http://www.w3.org/2000/svg">
<path d="M9.5 6.23313C7.8875 6.23313 6.5875 7.48 6.5875 9C6.5875 10.52 7.9 11.7669 9.5 11.7669C11.1 11.7669 12.4125 10.52 12.4125 9C12.4125 7.48 11.1 6.23313 9.5 6.23313ZM18.25 9C18.25 7.84812 18.25 6.72 18.1875 5.56813C18.125 4.23813 17.8 3.05063 16.775 2.08875C15.75 1.115 14.5125 0.80625 13.1125 0.746875C11.9 0.6875 10.7125 0.6875 9.5 0.6875C8.2875 0.6875 7.1 0.6875 5.8875 0.746875C4.4875 0.80625 3.2375 1.115 2.225 2.08875C1.2 3.0625 0.875 4.23813 0.8125 5.56813C0.75 6.72 0.75 7.84812 0.75 9C0.75 10.1519 0.75 11.28 0.8125 12.4319C0.875 13.7619 1.2 14.9494 2.225 15.9112C3.25 16.885 4.4875 17.1938 5.8875 17.2531C7.1 17.3125 8.2875 17.3125 9.5 17.3125C10.7125 17.3125 11.9 17.3125 13.1125 17.2531C14.5125 17.1938 15.7625 16.885 16.775 15.9112C17.8 14.9375 18.125 13.7619 18.1875 12.4319C18.2625 11.2919 18.25 10.1519 18.25 9ZM9.5 13.2631C7.0125 13.2631 5.0125 11.3631 5.0125 9C5.0125 6.63688 7.0125 4.73687 9.5 4.73687C11.9875 4.73687 13.9875 6.63688 13.9875 9C13.9875 11.3631 11.9875 13.2631 9.5 13.2631ZM14.175 5.55625C13.6 5.55625 13.125 5.11688 13.125 4.55875C13.125 4.00063 13.5875 3.56125 14.175 3.56125C14.7625 3.56125 15.225 4.00063 15.225 4.55875C15.2282 4.68882 15.2032 4.81813 15.1516 4.93865C15.1 5.05917 15.0228 5.16833 14.925 5.25938C14.8292 5.35233 14.7143 5.42558 14.5874 5.47461C14.4605 5.52363 14.3244 5.54738 14.1875 5.54438L14.175 5.55625Z" fill="#F2F2F3"/>
</svg>
