<svg width="24" height="24" viewBox="0 0 24 24" fill="none" xmlns="http://www.w3.org/2000/svg">
<path d="M20.4491 20.4508H16.8933V14.8808C16.8933 13.5525 16.8708 11.8441 15.0408 11.8441C13.1858 11.8441 12.9083 13.2908 12.9083 14.7841V20.4508H9.35247V8.99748H12.7658V10.5608H12.8158C13.2908 9.66081 14.4491 8.71414 16.1808 8.71414C19.7858 8.71414 20.4508 11.0825 20.4508 14.1658V20.4508H20.4491ZM5.33914 7.43248C4.19581 7.43248 3.27081 6.50581 3.27081 5.36414C3.27081 4.22248 4.19581 3.29581 5.33914 3.29581C6.47914 3.29581 7.40747 4.22248 7.40747 5.36414C7.40747 6.50581 6.47914 7.43248 5.33914 7.43248ZM7.11914 20.4508H3.55581V8.99748H7.11914V20.4508ZM22.2241 0H1.77081C0.792477 0 0 0.774143 0 1.72914V22.2708C0 23.2258 0.792477 24 1.77081 24H22.2241C23.2041 24 24 23.2258 24 22.2708V1.72914C24 0.774143 23.2041 0 22.2241 0Z" fill="white"/>
</svg>

