<svg width="17" height="16" viewBox="0 0 17 16" fill="none" xmlns="http://www.w3.org/2000/svg">
<path d="M4.28335 2.16668C4.28313 2.6087 4.10732 3.03254 3.7946 3.34494C3.48188 3.65735 3.05787 3.83273 2.61585 3.83251C2.17382 3.83229 1.74998 3.65648 1.43758 3.34377C1.12517 3.03105 0.949791 2.60704 0.950012 2.16501C0.950233 1.72298 1.12604 1.29915 1.43876 0.986742C1.75147 0.674338 2.17548 0.498955 2.61751 0.499176C3.05954 0.499397 3.48338 0.675204 3.79578 0.987921C4.10818 1.30064 4.28357 1.72465 4.28335 2.16668ZM4.33335 5.06668H1.00001V15.5H4.33335V5.06668ZM9.60001 5.06668H6.28335V15.5H9.56668V10.025C9.56668 6.97501 13.5417 6.69168 13.5417 10.025V15.5H16.8333V8.89168C16.8333 3.75001 10.95 3.94168 9.56668 6.46668L9.60001 5.06668Z" fill="#F2F2F3"/>
</svg>
