<svg width="59" height="68" viewBox="0 0 59 68" fill="none" xmlns="http://www.w3.org/2000/svg">
<g clip-path="url(#clip0_28_1172)">
<path fill-rule="evenodd" clip-rule="evenodd" d="M51.93 37.63C55.87 40.73 58.04 46.13 58.2 51.45C58.24 52.66 58.23 53.63 57.73 54.75C55.46 59.79 45.39 61.73 37.43 62.44C37.01 63.15 36.51 63.8 35.93 64.37C34.18 66.12 31.77 67.2 29.1 67.2C26.43 67.2 24.02 66.12 22.27 64.37C21.69 63.79 21.19 63.14 20.77 62.44C12.56 61.7 1.98004 59.65 0.240037 54.14C-0.0799629 53.12 -0.0299629 52.04 0.0200371 50.99C0.300037 45.57 2.68004 40.11 6.85004 37.2V31.08C6.85004 21.3 12.4 12.91 20.17 9.61C20.32 9.55 20.41 9.41 20.4 9.25C20.35 6.75 21.32 4.32 23.11 2.56C24.78 0.92 27.03 0 29.37 0C31.71 0 33.96 0.92 35.63 2.56C37.42 4.31 38.4 6.75 38.34 9.25C38.34 9.41 38.43 9.55 38.57 9.61C46.34 12.91 51.89 21.3 51.89 31.08V37.64L51.93 37.63ZM27.86 8.1C28.89 8.08 29.92 8.08 30.94 8.1C31.1 8.1 31.24 8.01 31.3 7.86C31.36 7.71 31.32 7.54 31.2 7.44C30.71 7.01 30.06 6.78 29.4 6.78C28.74 6.78 28.09 7.01 27.6 7.44C27.48 7.55 27.44 7.71 27.5 7.86C27.56 8.01 27.7 8.11 27.86 8.1Z" fill="black"/>
<path fill-rule="evenodd" clip-rule="evenodd" d="M33.16 10.78C34.57 8.13999 32.34 5.13999 29.4 5.13999C26.46 5.13999 24.23 8.14999 25.64 10.78C25.71 10.92 25.86 10.99 26.01 10.98C28.19 10.77 30.6 10.77 32.78 10.98C32.94 11 33.08 10.92 33.15 10.78H33.16ZM55.64 52.79C54.97 55.77 48.09 58.28 38.61 59.3C38.71 58.77 38.76 58.23 38.77 57.67C45.28 56.69 49.71 54.77 49.71 52.55C49.71 49.35 40.49 46.75 29.11 46.75C17.73 46.75 8.50998 49.35 8.50998 52.55C8.50998 54.77 12.94 56.7 19.45 57.67C19.45 58.22 19.51 58.77 19.61 59.3C10.33 58.3 3.53998 55.87 2.62998 52.98C2.44998 52.4 2.27998 50.75 2.83998 50.29C4.20998 49.15 8.09998 46.64 17.27 44.88C17.66 44.81 17.95 44.43 17.93 44.04C17.9 43.65 17.56 43.4 17.16 43.47C10.69 44.72 6.15998 47.13 3.78998 48.46C3.20998 48.79 3.03998 47.48 3.20998 46.83C4.45998 42.33 7.48998 39.41 12.7 38.74C13.09 38.69 13.39 38.33 13.35 37.94C13.32 37.55 12.98 37.27 12.58 37.32C11.78 37.42 11.01 38.03 10.27 38.16C10.04 38.2 9.82998 38.14 9.64998 37.99C9.46998 37.84 9.37998 37.64 9.37998 37.41V31.08C9.37998 22.05 14.78 14.36 22.17 11.81C22.37 11.74 22.47 11.53 22.41 11.33C20.87 6.50999 24.46 2.76999 29.4 2.76999C34.34 2.76999 37.93 6.50999 36.39 11.33C36.33 11.53 36.43 11.74 36.63 11.81C44.01 14.36 49.42 22.05 49.42 31.08V37.79C49.42 37.92 49.36 38.04 49.24 38.11C49.13 38.18 49 38.19 48.87 38.13C44.21 35.92 38.85 34.85 33.79 34.63C33.11 34.6 33.07 35.76 33.75 35.79C38.94 36.02 44.7 36.68 49.41 39.15V39.18C52.48 41.02 54.8 44.78 55.49 49.31C55.51 49.47 55.44 49.63 55.29 49.7C55.14 49.78 54.97 49.75 54.85 49.64C48.79 43.84 35.92 42.77 29.27 42.77C28.58 42.77 28.58 43.94 29.27 43.94C31.36 43.94 33.38 44.11 35.33 44.19C42.82 44.49 52.89 46.96 55.66 52.26C55.7 52.33 55.71 52.41 55.7 52.49C55.69 52.59 55.67 52.68 55.65 52.77L55.64 52.79Z" fill="#FDB920"/>
<path fill-rule="evenodd" clip-rule="evenodd" d="M34.97 12.42C41.89 14.3 47.08 21.46 47.08 29.93V35.94C47.08 36.07 47.02 36.17 46.92 36.25C46.82 36.32 46.7 36.34 46.58 36.3C44.36 35.57 41.94 35.08 39.52 34.75C39.33 34.72 39.19 34.56 39.19 34.37L39.25 29.8C39.35 22.39 38.44 16.41 34.62 13.08C34.48 12.96 34.45 12.77 34.53 12.61C34.62 12.45 34.79 12.38 34.97 12.42ZM50.73 41.23C51.5 42.66 52.05 44.31 52.33 46.1C52.35 46.25 52.29 46.38 52.17 46.47C52.05 46.55 51.9 46.56 51.77 46.49C48.64 44.79 44.8 43.74 40.95 43.11C40.77 43.08 40.64 42.93 40.63 42.74C40.59 40.83 40.5 39.31 40.15 38.1C40.11 37.97 40.15 37.84 40.23 37.74C40.32 37.64 40.44 37.6 40.58 37.62C42.63 37.96 44.65 38.43 46.48 39.09C47.51 39.46 48.81 40.05 49.76 40.6L50.59 41.08C50.65 41.12 50.7 41.16 50.73 41.23Z" fill="url(#paint0_linear_28_1172)"/>
<path fill-rule="evenodd" clip-rule="evenodd" d="M34.9399 12.41C35.1699 12.48 35.4099 12.55 35.6399 12.62H35.6599C35.7599 12.66 35.8599 12.7 35.9599 12.73L36.0299 12.76C36.1199 12.79 36.1999 12.82 36.2899 12.86L36.3599 12.89C36.4399 12.92 36.5299 12.96 36.6199 12.99L36.6999 13.03C36.7799 13.06 36.8599 13.1 36.9399 13.13L37.0299 13.17C37.0999 13.2 37.1799 13.24 37.2499 13.27L37.3499 13.32C37.4199 13.35 37.4899 13.39 37.5599 13.42L37.6599 13.47C37.7299 13.51 37.7999 13.54 37.8699 13.58L37.9699 13.63C38.0499 13.67 38.1199 13.71 38.1899 13.75L38.2699 13.8C38.3499 13.84 38.4199 13.89 38.4899 13.93L38.5699 13.98C38.6499 14.03 38.7299 14.07 38.7999 14.12L38.8599 14.16C38.9499 14.22 39.0499 14.28 39.1399 14.34H39.1499C39.3499 14.48 39.5499 14.62 39.7399 14.76C39.8399 14.83 39.9299 14.9 40.0299 14.98L40.0599 15C40.1399 15.06 40.2199 15.13 40.2999 15.19L40.3799 15.25C40.4499 15.3 40.5099 15.36 40.5799 15.41L40.6799 15.49C40.7399 15.54 40.7899 15.59 40.8499 15.64L40.9499 15.73C41.0099 15.78 41.0699 15.83 41.1199 15.89L41.1999 15.97C41.2599 16.02 41.3099 16.08 41.3699 16.13L41.4699 16.23L41.6199 16.38L41.7199 16.48L41.8799 16.64L41.9699 16.74L42.1299 16.91L42.2199 17.01L42.3599 17.17L42.4599 17.29C42.5099 17.34 42.5499 17.39 42.5899 17.45L42.6899 17.57C42.7399 17.63 42.7799 17.68 42.8299 17.74L42.9099 17.84C42.9599 17.9 43.0099 17.97 43.0599 18.03L43.1299 18.12C43.1799 18.18 43.2299 18.25 43.2799 18.31L43.3499 18.41C43.4199 18.51 43.4899 18.61 43.5599 18.7C43.6299 18.8 43.6899 18.89 43.7599 18.99L43.8499 19.14C43.8899 19.2 43.9199 19.25 43.9599 19.31L44.0399 19.44L44.1499 19.62L44.2299 19.76L44.3399 19.94L44.4299 20.09L44.5299 20.27L44.6199 20.42L44.7099 20.59L44.7999 20.75L44.8899 20.92L44.9699 21.08L45.0499 21.25L45.1299 21.42L45.2099 21.6L45.2799 21.76L45.3599 21.95L45.4299 22.11L45.5099 22.29L45.5799 22.46L45.6599 22.66L45.7199 22.81C45.7499 22.89 45.7799 22.97 45.8099 23.04L45.8499 23.16C45.8799 23.25 45.9199 23.35 45.9499 23.44L45.9799 23.52C46.0199 23.64 46.0599 23.76 46.0999 23.89C46.1399 24.01 46.1799 24.14 46.2099 24.26L46.2399 24.37C46.2699 24.46 46.2899 24.55 46.3099 24.63L46.3499 24.79L46.3999 25L46.4399 25.18L46.4899 25.38L46.5299 25.55C46.5499 25.62 46.5599 25.7 46.5799 25.77L46.6099 25.92L46.6599 26.16L46.6899 26.33L46.7299 26.53L46.7599 26.72L46.7899 26.93L46.8199 27.1L46.8499 27.32L46.8699 27.49L46.8999 27.72L46.9199 27.89L46.9399 28.11L46.9599 28.29C46.9599 28.36 46.9699 28.44 46.9799 28.51V28.69C46.9999 28.77 46.9999 28.85 46.9999 28.92V29.09C47.0099 29.19 47.0099 29.29 47.0199 29.39V29.5C47.0199 29.64 47.0199 29.77 47.0199 29.91V35.92C47.0199 36.05 46.9599 36.15 46.8599 36.23H46.8399L46.7899 36.21L46.7399 36.19L46.6999 36.17L46.6499 36.15H46.6399L46.5999 36.13L46.5499 36.11H46.5299L46.4999 36.09L46.4499 36.07H46.4299L46.4099 36.05L46.3599 36.03H46.3299L46.3099 36.01L46.2599 35.99H46.2199L46.2099 35.97L46.1599 35.95H46.1199V35.94L46.0699 35.92H46.0199V35.9H45.9699L45.9199 35.87L45.8799 35.86H45.8299L45.8199 35.84H45.7799L45.7299 35.81H45.7099L45.6799 35.8H45.6299L45.6099 35.78H45.5799L45.5299 35.76H45.4999L45.4799 35.75H45.4299L45.3899 35.73H45.3799L45.3299 35.71H45.2899V35.7H45.2399L45.1899 35.67H45.1399L45.0899 35.64L45.0399 35.63H44.9899L44.9799 35.61H44.9399L44.8899 35.59H44.8699L44.8399 35.58H44.7899L44.7699 35.56H44.7399L44.6899 35.54H44.6599L44.6399 35.53H44.5899L44.5399 35.5H44.4899L44.4499 35.48L44.3999 35.47H44.3499V35.46H44.2999L44.2499 35.44L44.1999 35.43H44.1499V35.41H44.1099L44.0099 35.38H43.9599L43.9399 35.36H43.9099L43.8599 35.34H43.8299L43.8099 35.33H43.7599L43.7199 35.31H43.7099L43.7799 29.91C43.8799 22.06 42.1999 15.11 35.0199 12.37C35.0999 12.31 35.2099 12.28 35.3199 12.3L34.9399 12.41ZM50.7299 41.23L50.7699 41.3L50.8099 41.37L50.8499 41.44L50.8799 41.51L50.9199 41.58L50.9499 41.65L50.9799 41.72L51.0099 41.79L51.0399 41.86L51.0699 41.93L51.0999 42L51.1299 42.07L51.1599 42.14L51.1899 42.21L51.2199 42.28L51.2499 42.35L51.2799 42.42L51.3099 42.49L51.3399 42.56L51.3699 42.63L51.3999 42.7L51.4299 42.77L51.4899 42.92L51.5199 42.99C51.5499 43.06 51.5699 43.14 51.5999 43.22L51.6499 43.37L51.6799 43.45C51.7099 43.53 51.7299 43.6 51.7599 43.68L51.7799 43.76C51.8299 43.91 51.8699 44.07 51.9199 44.23L51.9399 44.31C51.9599 44.39 51.9799 44.47 51.9999 44.55C52.1299 45.06 52.2399 45.58 52.3199 46.11C52.3399 46.26 52.2799 46.39 52.1599 46.48C52.0599 46.55 51.9399 46.57 51.8299 46.53L51.6999 46.46H51.6799L51.6599 46.44C51.5799 46.4 51.4999 46.35 51.4099 46.31L51.3699 46.29C51.2699 46.24 51.1699 46.19 51.0699 46.14L50.9199 46.06H50.9099C50.7699 45.99 50.6299 45.92 50.4899 45.85H50.4699C50.3699 45.79 50.2599 45.74 50.1599 45.7L50.0699 45.66L50.0099 45.63H49.9799C49.8899 45.58 49.8099 45.54 49.7199 45.51H49.6899L49.5499 45.44H49.5399H49.5299L49.4499 45.41L49.3699 45.38L49.2799 45.34L49.2099 45.31H49.1899L49.0999 45.27L49.0499 45.25L49.0099 45.23L48.9199 45.2H48.8899L48.8299 45.17L48.7399 45.14H48.7199L48.6399 45.11L48.5499 45.08L48.2699 44.98L48.2099 44.96H48.1699L48.0799 44.91H48.0399L47.9899 44.88L47.8999 44.85H47.8799L47.8099 44.82L47.7199 44.79L47.6299 44.76L47.5499 44.73H47.5399L47.4499 44.69L47.3899 44.67H47.3599L47.2699 44.63H47.2299L47.1799 44.6L47.0899 44.57H47.0599L46.9899 44.54L46.8999 44.51L46.8099 44.48L46.7299 44.45H46.7199L46.4299 44.36H46.3799L46.3299 44.33L46.2299 44.3H46.1999L46.1299 44.27C45.8499 41.94 45.3599 40.02 44.6799 38.53H44.6999L44.7799 38.56H44.7899C46.8799 39.16 48.7799 40.03 50.6599 41.11H50.6799V41.12L50.6999 41.13C50.6999 41.13 50.7199 41.15 50.7299 41.15V41.23Z" fill="url(#paint1_linear_28_1172)"/>
<path fill-rule="evenodd" clip-rule="evenodd" d="M6.34001 46.18C6.68001 42.02 8.51001 40.76 11.37 39.16C11.5 39.09 11.61 38.99 11.69 38.87C12.02 38.82 12.36 38.78 12.7 38.73C13.09 38.68 13.39 38.32 13.35 37.93C13.32 37.54 12.98 37.26 12.58 37.31C12.35 37.34 12.12 37.37 11.89 37.4L12.3 29.92C12.71 22.37 16.56 15.86 22.26 13.2C22.65 13.02 23.1 13.12 23.37 13.45C23.65 13.78 23.66 14.24 23.41 14.59C19.06 20.72 19.45 31.79 19.4 38.65C19.4 38.9 19.31 39.12 19.13 39.3C17.96 40.49 17.27 40.83 16.85 43.51C12.15 44.43 8.78001 45.57 6.40001 46.63C6.34001 46.49 6.31001 46.33 6.32001 46.17L6.34001 46.18Z" fill="#FFCD72"/>
<path fill-rule="evenodd" clip-rule="evenodd" d="M15.06 42.75C15.21 41.64 15.37 40.71 15.87 39.63C15.92 39.52 15.91 39.39 15.84 39.29C15.77 39.19 15.66 39.13 15.53 39.14L11.66 39.33C11.6 39.33 11.55 39.35 11.5 39.38C9.34995 40.62 8.21995 42.52 7.82995 44.92C7.80995 45.04 7.84995 45.16 7.94995 45.24C7.98995 45.27 8.02995 45.3 8.06995 45.31C9.74995 44.64 11.86 43.96 14.51 43.34C14.8 43.27 15 43.05 15.04 42.75H15.06Z" fill="white"/>
<path fill-rule="evenodd" clip-rule="evenodd" d="M18.45 17.13C13.28 22.46 13.6 29.04 13.47 35.83C13.47 36.12 13.56 36.38 13.78 36.57C14 36.76 14.26 36.84 14.55 36.8L17.03 36.42C17.47 36.35 17.81 35.99 17.82 35.55C17.93 29.56 17.94 23.86 20 18.1C20.15 17.68 20 17.23 19.61 16.99C19.23 16.75 18.76 16.81 18.45 17.13Z" fill="white"/>
<path fill-rule="evenodd" clip-rule="evenodd" d="M29.11 45.22C43 45.22 54.26 48.39 54.26 52.3C54.26 55.26 47.82 57.79 38.68 58.85C38.73 58.46 38.76 58.07 38.77 57.67C45.28 56.69 49.71 54.77 49.71 52.55C49.71 49.35 40.49 46.75 29.11 46.75C17.73 46.75 8.50996 49.35 8.50996 52.55C8.50996 54.77 12.94 56.7 19.45 57.67C19.45 58.07 19.48 58.47 19.54 58.85C10.4 57.79 3.95996 55.25 3.95996 52.3C3.95996 48.39 15.22 45.22 29.11 45.22Z" fill="url(#paint2_linear_28_1172)"/>
<path fill-rule="evenodd" clip-rule="evenodd" d="M36.6999 55.31C32.5899 52.08 25.6399 52.08 21.5299 55.31C20.7199 58.05 21.4899 61.1 23.5199 63.14C24.9499 64.57 26.9299 65.45 29.1099 65.45C31.2899 65.45 33.2699 64.57 34.6999 63.14C36.7399 61.1 37.5099 58.04 36.6899 55.31H36.6999Z" fill="#FDB920"/>
<path fill-rule="evenodd" clip-rule="evenodd" d="M36.7 56.21C32.59 52.77 25.64 52.77 21.53 56.21C21.36 56.79 21.26 57.38 21.22 57.97C21.28 59.04 21.56 60.1 22.03 61.07C21.82 57.66 25.07 55.26 29.1 55.26C33.13 55.26 36.38 57.66 36.17 61.07C36.65 60.1 36.92 59.04 36.98 57.97C36.95 57.38 36.85 56.79 36.67 56.21H36.7Z" fill="url(#paint3_linear_28_1172)"/>
<path fill-rule="evenodd" clip-rule="evenodd" d="M36.7 55.31C32.59 51.87 25.64 51.87 21.53 55.31C20.91 57.41 21.21 59.69 22.31 61.56C20.99 57.43 24.56 54.35 29.12 54.35C33.68 54.35 37.25 57.43 35.93 61.56C37.02 59.69 37.33 57.4 36.71 55.31H36.7Z" fill="url(#paint4_linear_28_1172)"/>
<path fill-rule="evenodd" clip-rule="evenodd" d="M29.11 60.11C32.07 60.11 34.48 59.98 34.48 61.65C34.48 63.32 32.08 64.68 29.11 64.68C26.14 64.68 23.74 63.32 23.74 61.65C23.74 59.98 26.14 60.11 29.11 60.11Z" fill="#FFCD72"/>
<path fill-rule="evenodd" clip-rule="evenodd" d="M29.11 61.42C30.9 61.42 32.36 61.34 32.36 62.35C32.36 63.36 30.91 64.18 29.11 64.18C27.31 64.18 25.86 63.36 25.86 62.35C25.86 61.34 27.31 61.42 29.11 61.42Z" fill="white"/>
</g>
<defs>
<linearGradient id="paint0_linear_28_1172" x1="47.51" y1="29.76" x2="27.04" y2="28.33" gradientUnits="userSpaceOnUse">
<stop stop-color="#F36E33"/>
<stop offset="1" stop-color="#FDB51E"/>
</linearGradient>
<linearGradient id="paint1_linear_28_1172" x1="57.1799" y1="29.71" x2="35.6799" y2="29.34" gradientUnits="userSpaceOnUse">
<stop stop-color="#5A120A"/>
<stop offset="1" stop-color="#F37432"/>
</linearGradient>
<linearGradient id="paint2_linear_28_1172" x1="29.77" y1="42.9" x2="28.74" y2="57.63" gradientUnits="userSpaceOnUse">
<stop stop-color="#F36E33"/>
<stop offset="1" stop-color="#FDB51E"/>
</linearGradient>
<linearGradient id="paint3_linear_28_1172" x1="28.86" y1="53.19" x2="29.22" y2="60" gradientUnits="userSpaceOnUse">
<stop stop-color="#F36E33"/>
<stop offset="1" stop-color="#FDB51E"/>
</linearGradient>
<linearGradient id="paint4_linear_28_1172" x1="29.01" y1="51.77" x2="29.18" y2="61.42" gradientUnits="userSpaceOnUse">
<stop stop-color="#5A120A"/>
<stop offset="1" stop-color="#F37432"/>
</linearGradient>
<clipPath id="clip0_28_1172">
<rect width="58.22" height="67.21" fill="white"/>
</clipPath>
</defs>
</svg>
