<svg width="77" height="67" viewBox="0 0 77 67" fill="none" xmlns="http://www.w3.org/2000/svg">
<g clip-path="url(#clip0_28_1139)">
<path d="M27.66 4.66C26.9 4 26.3 3.15 26.95 1.89C27.53 0.769999 28.5 -0.140001 30.03 0.0199991C30.82 0.0999991 31.7 0.379999 32.57 0.719999C41.06 4.07 47.19 8.76 52.24 16.63C52.42 16.91 52.74 17.03 53.06 16.94C70.88 11.85 84.84 33.98 71.5 47.31C65.86 52.95 57.21 54.27 50.17 50.61C49.95 50.5 49.71 50.5 49.5 50.61C49.28 50.72 49.15 50.92 49.11 51.16C47.14 65.84 28.88 72.35 18.1 61.57C6.62998 50.1 15.56 30.54 31.66 30.46C31.93 30.46 32.16 30.32 32.3 30.09C35.7 24 37.51 16.08 33.65 10.04C33.48 9.77 33.17 9.65 32.86 9.72C32.55 9.8 32.33 10.05 32.31 10.37C32.22 11.48 31.73 12.66 30.76 13.85C30.75 13.86 30.74 13.88 30.73 13.89C30.72 13.91 30.68 13.96 30.63 14.01C30.5 14.16 30.45 14.34 30.46 14.53C31.51 28.73 10.24 40.98 0.559984 37.23C-0.130016 36.96 -0.190016 36.01 0.439984 35.65C8.94998 30.78 8.43999 5.22 28.9 12.44C29.22 12.55 29.56 12.44 29.75 12.16C31.86 9.05 29.92 6.63 27.66 4.66ZM39.5 10.3C42.04 16.91 40.11 24.35 37.09 30.56C37 30.75 36.99 30.95 37.07 31.15C37.15 31.35 37.29 31.49 37.49 31.56C38.16 31.81 38.81 32.11 39.44 32.43C39.66 32.54 39.9 32.54 40.11 32.43C40.33 32.32 40.47 32.12 40.5 31.88C41.19 26.87 43.91 22.47 47.89 19.59C48.2 19.36 48.29 18.93 48.07 18.6C45.91 15.26 43.26 12.21 40.06 9.87C39.93 9.77 39.75 9.77 39.62 9.87C39.49 9.97 39.44 10.14 39.5 10.29V10.3Z" fill="black"/>
<path d="M33.81 29.78C37.63 22.48 40.14 11.38 30.04 4.72C29.93 4.65 29.87 4.53 29.88 4.39C29.88 4.26 29.96 4.14 30.08 4.08C30.87 3.68 31.41 2.92 31.34 1.99C31.34 1.86 31.38 1.75 31.48 1.67C31.58 1.59 31.7 1.57 31.82 1.62C39.95 4.53 45.92 9.66 50.68 16.85C50.8 17.04 50.83 17.24 50.77 17.46C50.71 17.67 50.57 17.83 50.37 17.92C50.04 18.07 50.42 18.03 50.11 18.2C49.77 18.38 49.36 18.27 49.16 17.95C46.34 13.58 42.24 8.98 36.56 6.32C36.41 6.25 36.23 6.29 36.12 6.42C36.01 6.55 36.01 6.74 36.12 6.87C41.78 14.28 39.07 23.71 35.72 30.41C35.57 30.71 35.24 30.87 34.91 30.8C34.54 30.72 34.73 30.9 34.34 30.84C34.1 30.8 33.91 30.67 33.8 30.45C33.69 30.23 33.69 30 33.8 29.78H33.81Z" fill="url(#paint0_linear_28_1139)"/>
<path fill-rule="evenodd" clip-rule="evenodd" d="M40.43 36.3C37.82 34.31 34.56 33.12 31.02 33.12C26.73 33.12 22.85 34.86 20.05 37.67C17.24 40.48 15.5 44.36 15.5 48.64C15.5 52.92 17.24 56.81 20.05 59.62C22.86 62.43 26.74 64.17 31.02 64.17C35.3 64.17 39.19 62.43 41.99 59.62C44.8 56.81 46.54 52.93 46.54 48.64C46.54 48.46 46.54 48.27 46.54 48.09C46.25 47.83 45.96 47.57 45.69 47.29C42.81 44.41 40.89 40.57 40.44 36.29L40.43 36.3Z" fill="url(#paint1_linear_28_1139)"/>
<path fill-rule="evenodd" clip-rule="evenodd" d="M32.42 59.91C36.65 57.99 40.05 54.54 41.91 50.27C42 50.05 42.22 49.93 42.46 49.96C42.69 49.99 42.87 50.17 42.9 50.41C43.71 56.57 38.29 61.55 32.57 60.9C32.33 60.87 32.15 60.7 32.12 60.46C32.08 60.23 32.2 60 32.42 59.9V59.91Z" fill="#731113"/>
<path fill-rule="evenodd" clip-rule="evenodd" d="M69.57 23.41C66.76 20.6 62.88 18.86 58.59 18.86C54.3 18.86 50.42 20.6 47.62 23.41C44.81 26.22 43.07 30.1 43.07 34.38C43.07 38.66 44.81 42.55 47.62 45.36C50.43 48.17 54.31 49.91 58.59 49.91C62.87 49.91 66.76 48.17 69.57 45.36C72.38 42.55 74.12 38.67 74.12 34.38C74.12 30.09 72.38 26.21 69.57 23.41Z" fill="url(#paint2_linear_28_1139)"/>
<path fill-rule="evenodd" clip-rule="evenodd" d="M61.26 24.33C55.59 26.9 51.05 31.51 48.57 37.22C48.21 38.05 47.34 38.54 46.44 38.41C45.54 38.28 44.85 37.58 44.73 36.68C44.01 31.23 46.47 26.02 50.99 22.94C53.8 21.03 57.26 20.11 60.65 20.49C61.55 20.59 62.27 21.28 62.41 22.17C62.55 23.07 62.08 23.94 61.26 24.32V24.33Z" fill="#F5919E"/>
<path fill-rule="evenodd" clip-rule="evenodd" d="M34 38.3C28.33 40.87 23.79 45.48 21.31 51.19C20.95 52.02 20.08 52.51 19.18 52.38C18.28 52.25 17.59 51.55 17.47 50.65C16.75 45.2 19.21 39.99 23.73 36.91C26.54 35 30 34.08 33.39 34.46C34.29 34.56 35.01 35.25 35.15 36.14C35.29 37.04 34.82 37.91 33.99 38.29L34 38.3Z" fill="#F5919E"/>
<path fill-rule="evenodd" clip-rule="evenodd" d="M60.37 22.8C54.42 25.5 49.64 30.35 47.03 36.35C46.9 36.66 46.59 36.83 46.26 36.78C45.93 36.73 45.68 36.48 45.64 36.15C44.5 27.5 52.12 20.5 60.15 21.41C60.48 21.45 60.74 21.69 60.79 22.02C60.84 22.35 60.67 22.66 60.37 22.8Z" fill="url(#paint3_linear_28_1139)"/>
<path fill-rule="evenodd" clip-rule="evenodd" d="M33.11 36.77C27.16 39.47 22.38 44.31 19.78 50.32C19.65 50.63 19.34 50.8 19.01 50.75C18.68 50.7 18.43 50.45 18.39 50.12C17.25 41.47 24.87 34.47 32.9 35.38C33.23 35.42 33.49 35.66 33.54 35.99C33.59 36.32 33.42 36.63 33.12 36.77H33.11Z" fill="url(#paint4_linear_28_1139)"/>
<path fill-rule="evenodd" clip-rule="evenodd" d="M59.08 46.44C64.07 44.18 68.07 40.12 70.25 35.09C70.36 34.83 70.62 34.69 70.9 34.73C71.18 34.77 71.39 34.98 71.42 35.26C72.37 42.51 65.99 48.38 59.26 47.61C58.98 47.58 58.77 47.37 58.72 47.1C58.68 46.82 58.82 46.56 59.07 46.45L59.08 46.44Z" fill="#731113"/>
<path fill-rule="evenodd" clip-rule="evenodd" d="M27.09 21.9C28.21 19.66 28.69 17.47 28.67 15.36C28.67 15.12 28.56 14.92 28.37 14.78C28.18 14.64 27.95 14.6 27.72 14.67C24.69 15.59 22.94 18.21 20.86 21.32C18.91 24.23 16.4 27.08 12.62 29.94C11.91 30.48 11.37 29.86 12.08 29.33C15.68 26.61 17.83 23.39 19.72 20.57C21.46 17.97 22.99 15.68 25.21 14.31C25.47 14.15 25.6 13.86 25.54 13.55C25.48 13.25 25.26 13.02 24.95 12.97C14.99 11.15 11.28 19.2 7.85996 26.63C6.16996 30.3 4.54996 33.83 2.27996 36.16C2.17996 36.26 2.14996 36.41 2.19996 36.54C2.24996 36.68 2.36996 36.76 2.50996 36.78C4.46996 36.96 6.73996 36.67 9.15996 35.94C12.7 34.87 16.52 32.86 20.1 29.99C23.5 27.28 25.74 24.56 27.06 21.92L27.09 21.9Z" fill="url(#paint5_linear_28_1139)"/>
<path fill-rule="evenodd" clip-rule="evenodd" d="M30.29 1.04001C30.74 1.49001 30.61 2.35001 30 2.95001C29.39 3.56001 28.54 3.69001 28.09 3.24001C27.64 2.79001 27.77 1.93001 28.38 1.33001C28.99 0.720009 29.84 0.590009 30.29 1.04001Z" fill="#98592B"/>
</g>
<defs>
<linearGradient id="paint0_linear_28_1139" x1="34.47" y1="4.37" x2="49.07" y2="40.52" gradientUnits="userSpaceOnUse">
<stop stop-color="#9A5E39"/>
<stop offset="1" stop-color="#794F32"/>
</linearGradient>
<linearGradient id="paint1_linear_28_1139" x1="19.72" y1="35.48" x2="42.1" y2="62.16" gradientUnits="userSpaceOnUse">
<stop stop-color="#DF1E26"/>
<stop offset="1" stop-color="#A31F23"/>
</linearGradient>
<linearGradient id="paint2_linear_28_1139" x1="47.44" y1="21.1" x2="69.82" y2="47.78" gradientUnits="userSpaceOnUse">
<stop stop-color="#DF1E26"/>
<stop offset="1" stop-color="#A31F23"/>
</linearGradient>
<linearGradient id="paint3_linear_28_1139" x1="48.7" y1="24.26" x2="79.42" y2="57.2" gradientUnits="userSpaceOnUse">
<stop stop-color="white"/>
<stop offset="1" stop-color="white"/>
</linearGradient>
<linearGradient id="paint4_linear_28_1139" x1="21.44" y1="38.22" x2="52.15" y2="71.16" gradientUnits="userSpaceOnUse">
<stop stop-color="white"/>
<stop offset="1" stop-color="white"/>
</linearGradient>
<linearGradient id="paint5_linear_28_1139" x1="19.72" y1="30.41" x2="9.50996" y2="19.46" gradientUnits="userSpaceOnUse">
<stop stop-color="#77C043"/>
<stop offset="1" stop-color="#43B649"/>
</linearGradient>
<clipPath id="clip0_28_1139">
<rect width="76.8" height="66.92" fill="white"/>
</clipPath>
</defs>
</svg>
