<svg width="66" height="57" viewBox="0 0 66 57" fill="none" xmlns="http://www.w3.org/2000/svg">
<g clip-path="url(#clip0_28_1273)">
<path fill-rule="evenodd" clip-rule="evenodd" d="M51.96 0C52.83 0 53.64 0.36 54.22 1.01L65.52 13.56C65.83 13.9 65.98 14.3 65.98 14.76V20.71C65.98 21.18 65.82 21.58 65.5 21.93L34.3 55.52C33.95 55.9 33.5 56.09 32.99 56.09C32.48 56.09 32.03 55.9 31.68 55.52L0.48 21.92C0.16 21.58 0 21.17 0 20.7V14.75C0 14.29 0.15 13.89 0.46 13.55L11.76 1.01C12.34 0.36 13.15 0 14.02 0H51.96Z" fill="#231F20"/>
<path fill-rule="evenodd" clip-rule="evenodd" d="M23.04 2.80001L16.41 15.86C16.32 16.03 16.33 16.22 16.43 16.38C16.53 16.54 16.7 16.64 16.89 16.64H49.09C49.28 16.64 49.45 16.55 49.55 16.38C49.65 16.22 49.66 16.03 49.57 15.86L42.94 2.80001C42.85 2.62001 42.67 2.51001 42.46 2.51001H23.52C23.31 2.51001 23.13 2.62001 23.04 2.80001Z" fill="url(#paint0_linear_28_1273)"/>
<path fill-rule="evenodd" clip-rule="evenodd" d="M24.53 3.81L18.89 14.92C18.82 15.07 18.82 15.23 18.91 15.37C18.99 15.51 19.14 15.59 19.3 15.59H46.7C46.86 15.59 47 15.51 47.09 15.37C47.18 15.23 47.18 15.07 47.11 14.92L41.47 3.81C41.39 3.65 41.24 3.56 41.06 3.56H24.94C24.76 3.56 24.61 3.65 24.53 3.81Z" fill="url(#paint1_linear_28_1273)"/>
<path fill-rule="evenodd" clip-rule="evenodd" d="M24.56 3.83001L18.94 14.9C18.87 15.05 18.87 15.21 18.96 15.34C19.05 15.48 19.19 15.56 19.35 15.56H23.31C23.59 15.56 23.84 15.41 23.96 15.15L28.33 5.99001C28.41 5.83001 28.56 5.74001 28.74 5.74001H41.27C41.53 5.74001 41.75 5.62001 41.88 5.39001C42.01 5.17001 42.02 4.91001 41.9 4.69001L41.44 3.82001C41.36 3.66001 41.21 3.57001 41.03 3.57001H24.97C24.79 3.57001 24.64 3.66001 24.56 3.82001V3.83001Z" fill="white"/>
<path fill-rule="evenodd" clip-rule="evenodd" d="M32.51 51.32L16.41 19.61C16.32 19.44 16.33 19.25 16.43 19.09C16.53 18.93 16.7 18.83 16.89 18.83H49.09C49.28 18.83 49.45 18.92 49.55 19.09C49.65 19.25 49.66 19.44 49.57 19.61L33.47 51.32C33.38 51.51 33.2 51.61 32.99 51.61C32.78 51.61 32.6 51.5 32.51 51.32Z" fill="url(#paint2_linear_28_1273)"/>
<path fill-rule="evenodd" clip-rule="evenodd" d="M30.53 43.65L19.05 21.04C18.98 20.9 18.98 20.74 19.07 20.6C19.15 20.46 19.29 20.38 19.45 20.38H46.54C46.7 20.38 46.84 20.46 46.93 20.6C47.01 20.74 47.02 20.9 46.95 21.04L45.89 23.13H24.42C24.29 23.13 24.17 23.22 24.1 23.38C24.03 23.54 24.03 23.72 24.09 23.88L31.2 43.37C31.26 43.55 31.18 43.75 31.01 43.82C30.84 43.9 30.63 43.82 30.55 43.65H30.53Z" fill="url(#paint3_linear_28_1273)"/>
<path fill-rule="evenodd" clip-rule="evenodd" d="M37.18 48.06L53.4199 19.11C53.5199 18.94 53.6899 18.84 53.8899 18.84H63.7299C63.9499 18.84 64.13 18.96 64.22 19.16C64.31 19.36 64.2699 19.58 64.1299 19.74L38.05 48.69C37.87 48.89 37.56 48.93 37.34 48.77C37.12 48.61 37.05 48.31 37.18 48.07V48.06Z" fill="#4580B1"/>
<path fill-rule="evenodd" clip-rule="evenodd" d="M28.81 48.06L12.57 19.11C12.47 18.94 12.3 18.84 12.1 18.84H2.25998C2.03998 18.84 1.85998 18.96 1.76998 19.16C1.67998 19.36 1.71998 19.58 1.85998 19.74L27.94 48.69C28.12 48.89 28.43 48.93 28.65 48.77C28.87 48.61 28.94 48.31 28.81 48.07V48.06Z" fill="#8ED8F8"/>
<path fill-rule="evenodd" clip-rule="evenodd" d="M46.09 3.31L53.41 16.37C53.51 16.54 53.68 16.64 53.88 16.64H63.72C63.94 16.64 64.12 16.52 64.21 16.32C64.3 16.12 64.26 15.9 64.12 15.74L52.36 2.68C52.25 2.56 52.12 2.5 51.96 2.5H46.56C46.36 2.5 46.2 2.6 46.1 2.77C46 2.94 46 3.13 46.1 3.3L46.09 3.31Z" fill="url(#paint4_linear_28_1273)"/>
<path fill-rule="evenodd" clip-rule="evenodd" d="M47.4999 4.20003L53.0999 14.19C53.1699 14.32 53.3099 14.4 53.4599 14.4H60.9899C61.1599 14.4 61.2999 14.31 61.3599 14.16C61.4299 14.01 61.3999 13.84 61.2899 13.72L52.2899 3.73003C52.2099 3.64003 52.1099 3.59003 51.9799 3.59003H47.8499C47.6999 3.59003 47.5699 3.66003 47.4999 3.79003C47.4199 3.92003 47.4199 4.07003 47.4999 4.20003Z" fill="url(#paint5_linear_28_1273)"/>
<path fill-rule="evenodd" clip-rule="evenodd" d="M19.89 3.31L12.57 16.37C12.47 16.54 12.3 16.64 12.1 16.64H2.25998C2.03998 16.64 1.85998 16.52 1.76998 16.32C1.67998 16.12 1.71998 15.9 1.85998 15.74L13.62 2.68C13.73 2.56 13.86 2.5 14.02 2.5H19.42C19.62 2.5 19.78 2.6 19.88 2.77C19.98 2.94 19.98 3.13 19.88 3.31H19.89Z" fill="url(#paint6_linear_28_1273)"/>
<path fill-rule="evenodd" clip-rule="evenodd" d="M41.65 41.99L53.66 20.58C53.73 20.45 53.86 20.38 54.01 20.38H61.29C61.45 20.38 61.59 20.47 61.65 20.62C61.72 20.77 61.69 20.93 61.58 21.05L42.29 42.46C42.15 42.61 41.93 42.64 41.76 42.52C41.59 42.4 41.55 42.18 41.65 42V41.99Z" fill="url(#paint7_linear_28_1273)"/>
<path fill-rule="evenodd" clip-rule="evenodd" d="M24.21 41.99L12.2 20.58C12.13 20.45 12 20.38 11.85 20.38H4.57002C4.41002 20.38 4.27002 20.47 4.21002 20.62C4.14002 20.77 4.17002 20.93 4.28002 21.05L23.57 42.46C23.71 42.61 23.93 42.64 24.1 42.52C24.27 42.4 24.31 42.18 24.21 42V41.99Z" fill="url(#paint8_linear_28_1273)"/>
<path fill-rule="evenodd" clip-rule="evenodd" d="M18.42 4.20002L12.82 14.19C12.75 14.32 12.61 14.4 12.46 14.4H4.92999C4.75999 14.4 4.61999 14.31 4.55999 14.16C4.48999 14.01 4.51999 13.84 4.62999 13.72L13.62 3.72002C13.7 3.63002 13.8 3.58002 13.93 3.58002H18.06C18.21 3.58002 18.34 3.65002 18.41 3.78002C18.49 3.91002 18.49 4.06002 18.41 4.19002L18.42 4.20002Z" fill="white"/>
</g>
<defs>
<linearGradient id="paint0_linear_28_1273" x1="10.72" y1="9.24001" x2="114.11" y2="11.05" gradientUnits="userSpaceOnUse">
<stop stop-color="#8ED8F8"/>
<stop offset="1" stop-color="#264DA1"/>
</linearGradient>
<linearGradient id="paint1_linear_28_1273" x1="34.85" y1="17.68" x2="19.53" y2="-8.86" gradientUnits="userSpaceOnUse">
<stop stop-color="#8ED8F8"/>
<stop offset="1" stop-color="white"/>
</linearGradient>
<linearGradient id="paint2_linear_28_1273" x1="10.07" y1="33.06" x2="113.68" y2="40.3" gradientUnits="userSpaceOnUse">
<stop stop-color="#8ED8F8"/>
<stop offset="1" stop-color="#264DA1"/>
</linearGradient>
<linearGradient id="paint3_linear_28_1273" x1="40.48" y1="50.86" x2="25.47" y2="-9.33" gradientUnits="userSpaceOnUse">
<stop stop-color="#8ED8F8"/>
<stop offset="1" stop-color="white"/>
</linearGradient>
<linearGradient id="paint4_linear_28_1273" x1="42.42" y1="9.02" x2="99.76" y2="12.03" gradientUnits="userSpaceOnUse">
<stop stop-color="#8ED8F8"/>
<stop offset="1" stop-color="#264DA1"/>
</linearGradient>
<linearGradient id="paint5_linear_28_1273" x1="56.4999" y1="15.79" x2="49.2399" y2="-7.97997" gradientUnits="userSpaceOnUse">
<stop stop-color="#8ED8F8"/>
<stop offset="1" stop-color="white"/>
</linearGradient>
<linearGradient id="paint6_linear_28_1273" x1="13.56" y1="18.46" x2="4.05998" y2="-12.62" gradientUnits="userSpaceOnUse">
<stop stop-color="#8ED8F8"/>
<stop offset="1" stop-color="white"/>
</linearGradient>
<linearGradient id="paint7_linear_28_1273" x1="37.51" y1="30.49" x2="100.51" y2="34.9" gradientUnits="userSpaceOnUse">
<stop stop-color="#8ED8F8"/>
<stop offset="1" stop-color="#264DA1"/>
</linearGradient>
<linearGradient id="paint8_linear_28_1273" x1="28.45" y1="30.24" x2="-34.47" y2="35.74" gradientUnits="userSpaceOnUse">
<stop stop-color="#8ED8F8"/>
<stop offset="1" stop-color="#264DA1"/>
</linearGradient>
<clipPath id="clip0_28_1273">
<rect width="65.99" height="56.08" fill="white"/>
</clipPath>
</defs>
</svg>
