<svg width="65" height="60" viewBox="0 0 65 60" fill="none" xmlns="http://www.w3.org/2000/svg">
<g clip-path="url(#clip0_28_1189)">
<path fill-rule="evenodd" clip-rule="evenodd" d="M51.21 14.05C54.67 13.15 58.18 13.61 61.35 16.46C62.85 17.81 64 19.56 64.51 21.52C65.29 24.49 64.49 27.3 62.75 29.6C62.65 29.74 62.65 29.92 62.75 30.05C64.5 32.36 65.29 35.17 64.51 38.15C63.99 40.11 62.85 41.85 61.35 43.2C58.19 46.04 54.68 46.51 51.22 45.6C51.09 45.57 50.96 45.6 50.86 45.7C50.76 45.8 50.73 45.93 50.76 46.06C51.66 49.52 51.2 53.03 48.36 56.19C47.01 57.69 45.27 58.83 43.31 59.35C40.34 60.13 37.52 59.35 35.21 57.59C35.07 57.49 34.89 57.49 34.76 57.59C32.46 59.34 29.65 60.13 26.68 59.35C24.72 58.84 22.97 57.69 21.62 56.19C19.86 54.24 19.09 52.82 18.91 50.69C18.9 50.55 18.82 50.44 18.7 50.38C18.58 50.32 18.44 50.33 18.33 50.41C13.34 53.74 7.37002 54.03 1.31002 52.56C0.800021 52.44 0.390021 52.1 0.180021 51.63C-0.0299788 51.19 -0.0299788 50.7 0.150021 50.27C0.180021 50.2 0.220021 50.15 0.290021 50.1C2.21002 48.82 3.87002 47.42 3.03002 44.82C2.99002 44.71 3.01002 44.6 3.07002 44.5C3.28002 44.18 3.59002 43.94 3.97002 43.82C4.40002 43.68 4.86002 43.72 5.27002 43.93C7.03002 44.85 9.14002 45.54 11.23 45.78C11.41 45.8 11.58 45.69 11.63 45.51C11.68 45.33 11.6 45.15 11.43 45.07C10.48 44.62 9.54002 44 8.64002 43.19C7.14002 41.84 6.00002 40.1 5.48002 38.14C4.70002 35.17 5.48002 32.35 7.23002 30.04C7.33002 29.9 7.33002 29.72 7.23002 29.59C5.48002 27.28 4.69002 24.48 5.47002 21.5C5.98002 19.54 7.13002 17.79 8.63002 16.44C11.79 13.59 15.31 13.13 18.77 14.03C18.9 14.06 19.03 14.03 19.13 13.93C19.23 13.83 19.26 13.7 19.23 13.57C18.32 10.11 18.79 6.60001 21.64 3.43001C22.99 1.93001 24.74 0.780007 26.7 0.270007C29.67 -0.509993 32.48 0.290007 34.78 2.03001C34.92 2.13001 35.1 2.13001 35.23 2.03001C37.54 0.280007 40.35 -0.509993 43.33 0.270007C45.29 0.790007 47.03 1.93001 48.38 3.43001C51.23 6.59001 51.69 10.1 50.78 13.56C50.74 13.69 50.78 13.82 50.88 13.92C50.98 14.02 51.11 14.05 51.24 14.02L51.21 14.05Z" fill="black"/>
<path fill-rule="evenodd" clip-rule="evenodd" d="M5.13007 45.75C10.1701 48.36 13.4001 48.35 18.5101 46.3C18.6401 46.25 18.7801 46.27 18.8801 46.36C18.9801 46.45 19.0301 46.58 18.9901 46.72C18.8801 47.16 18.7901 47.59 18.7301 48.03C18.7201 48.13 18.6701 48.2 18.6001 48.26C14.6301 51.35 9.08007 53.32 2.18007 51.64C1.96007 51.59 1.84007 51.33 1.94007 51.13C3.53007 50.02 4.80007 48.65 4.61007 46.09C4.61007 45.96 4.66007 45.84 4.77007 45.76C4.88007 45.69 5.02007 45.68 5.13007 45.74V45.75Z" fill="url(#paint0_linear_28_1189)"/>
<path fill-rule="evenodd" clip-rule="evenodd" d="M60.09 30.04C64.42 34.05 63.4 38.84 60.23 41.69C56.15 45.36 51.44 44.13 46.99 41.27C46.84 41.17 46.64 41.19 46.52 41.32C46.39 41.45 46.37 41.64 46.47 41.79C49.33 46.24 50.56 50.95 46.89 55.03C44.04 58.2 39.24 59.22 35.23 54.89C35.11 54.76 34.92 54.76 34.81 54.89C30.81 59.22 26.01 58.21 23.16 55.04C19.48 50.96 20.71 46.24 23.58 41.79C23.68 41.64 23.66 41.44 23.53 41.32C23.4 41.19 23.21 41.17 23.06 41.27C18.61 44.13 13.9 45.36 9.82003 41.69C6.65003 38.84 5.63003 34.04 9.96003 30.04C10.09 29.92 10.09 29.73 9.96003 29.62C5.63003 25.62 6.64003 20.82 9.81003 17.97C13.89 14.29 18.61 15.52 23.06 18.39C23.21 18.49 23.41 18.47 23.53 18.34C23.66 18.21 23.68 18.02 23.58 17.87C20.72 13.42 19.49 8.71001 23.16 4.62001C26.01 1.45001 30.81 0.430007 34.81 4.77001C34.93 4.90001 35.12 4.90001 35.23 4.77001C39.24 0.440007 44.03 1.46001 46.89 4.63001C50.56 8.71001 49.33 13.42 46.47 17.87C46.37 18.02 46.39 18.22 46.52 18.34C46.65 18.47 46.84 18.49 47 18.39C51.45 15.53 56.16 14.3 60.25 17.97C63.42 20.82 64.44 25.62 60.1 29.62C59.97 29.74 59.97 29.93 60.1 30.04H60.09Z" fill="url(#paint1_linear_28_1189)"/>
<path fill-rule="evenodd" clip-rule="evenodd" d="M22.08 48.42C21.85 50.43 22.34 52.44 24 54.28C24.92 55.3 26.11 56.11 27.46 56.46C30 57.13 32.26 55.97 33.97 54.12C34.54 53.5 35.5 53.5 36.07 54.12C37.78 55.97 40.05 57.12 42.59 56.45C43.93 56.1 45.12 55.29 46.04 54.27C47.16 53.03 47.87 51.61 48 49.94C48.04 49.45 48.02 48.96 47.97 48.47C47.78 50.01 47.08 51.32 46.04 52.48C45.12 53.5 43.93 54.31 42.59 54.66C40.05 55.33 37.78 54.17 36.07 52.33C35.5 51.71 34.54 51.71 33.97 52.33C32.26 54.18 30 55.34 27.46 54.67C26.12 54.32 24.93 53.51 24 52.49C22.83 51.2 22.25 49.82 22.08 48.42Z" fill="url(#paint2_linear_28_1189)"/>
<path fill-rule="evenodd" clip-rule="evenodd" d="M35.01 29.16V5.99C35.39 5.99 35.78 5.84 36.06 5.53C37.77 3.68 40.03 2.52 42.57 3.19C43.91 3.54 45.1 4.35 46.03 5.37C47.15 6.61 47.87 8.03 48 9.71C48.32 13.76 45.08 18.17 42.6 21.1C41.2 22.76 39.69 24.34 38.18 25.89C37.13 26.97 36.04 28.05 35.02 29.16H35.01Z" fill="url(#paint3_linear_28_1189)"/>
<path fill-rule="evenodd" clip-rule="evenodd" d="M35.01 30.51V53.68C35.39 53.68 35.78 53.83 36.06 54.14C37.77 55.99 40.03 57.15 42.57 56.48C43.91 56.13 45.1 55.32 46.03 54.3C47.15 53.06 47.87 51.64 48 49.96C48.32 45.91 45.08 41.5 42.6 38.57C41.2 36.91 39.69 35.33 38.18 33.78C37.13 32.7 36.04 31.62 35.02 30.51H35.01Z" fill="url(#paint4_linear_28_1189)"/>
<path fill-rule="evenodd" clip-rule="evenodd" d="M35.01 29.16V5.99C34.63 5.99 34.24 5.84 33.96 5.53C32.25 3.68 29.99 2.52 27.45 3.19C26.11 3.54 24.92 4.35 23.99 5.37C22.87 6.61 22.15 8.03 22.02 9.71C21.7 13.76 24.94 18.17 27.42 21.1C28.82 22.76 30.33 24.34 31.84 25.89C32.89 26.97 33.98 28.05 35 29.16H35.01Z" fill="url(#paint5_linear_28_1189)"/>
<path fill-rule="evenodd" clip-rule="evenodd" d="M35.01 30.51V53.68C34.63 53.68 34.24 53.83 33.96 54.14C32.25 55.99 29.99 57.15 27.45 56.48C26.11 56.13 24.92 55.32 23.99 54.3C22.87 53.06 22.15 51.64 22.02 49.96C21.7 45.91 24.94 41.5 27.42 38.57C28.82 36.91 30.33 35.33 31.84 33.78C32.89 32.7 33.98 31.62 35 30.51H35.01Z" fill="url(#paint6_linear_28_1189)"/>
<path fill-rule="evenodd" clip-rule="evenodd" d="M35.6801 29.81H58.8501C58.8501 30.19 59.0001 30.58 59.3101 30.86C61.1601 32.57 62.3101 34.83 61.6501 37.37C61.3001 38.71 60.4901 39.9 59.4701 40.83C58.2301 41.95 56.8101 42.67 55.1301 42.8C51.0801 43.12 46.6701 39.88 43.7401 37.4C42.0801 36 40.5001 34.49 38.9501 32.98C37.8701 31.93 36.7901 30.84 35.6801 29.82V29.81Z" fill="url(#paint7_linear_28_1189)"/>
<path fill-rule="evenodd" clip-rule="evenodd" d="M35.6801 29.81H58.8501C58.8501 29.43 59.0001 29.04 59.3101 28.76C61.1601 27.05 62.3101 24.79 61.6501 22.25C61.3001 20.91 60.4901 19.72 59.4701 18.79C58.2301 17.67 56.8101 16.95 55.1301 16.82C51.0801 16.5 46.6701 19.74 43.7401 22.22C42.0801 23.62 40.5001 25.13 38.9501 26.64C37.8701 27.69 36.7901 28.78 35.6801 29.8V29.81Z" fill="url(#paint8_linear_28_1189)"/>
<path fill-rule="evenodd" clip-rule="evenodd" d="M34.35 29.81H11.18C11.18 30.19 11.03 30.58 10.72 30.86C8.87 32.57 7.72 34.83 8.38 37.37C8.73 38.71 9.54 39.9 10.57 40.83C11.81 41.95 13.23 42.67 14.91 42.8C18.96 43.12 23.37 39.88 26.3 37.4C27.96 36 29.54 34.49 31.09 32.98C32.17 31.93 33.25 30.84 34.36 29.82L34.35 29.81Z" fill="url(#paint9_linear_28_1189)"/>
<path fill-rule="evenodd" clip-rule="evenodd" d="M34.35 29.81H11.18C11.18 29.43 11.03 29.04 10.72 28.76C8.87 27.05 7.72 24.79 8.38 22.25C8.73 20.91 9.54 19.72 10.57 18.79C11.81 17.67 13.23 16.95 14.91 16.82C18.96 16.5 23.37 19.74 26.3 22.22C27.96 23.62 29.54 25.13 31.09 26.64C32.17 27.69 33.25 28.78 34.36 29.8L34.35 29.81Z" fill="url(#paint10_linear_28_1189)"/>
<path fill-rule="evenodd" clip-rule="evenodd" d="M47.97 11.09C48.16 9.13002 47.66 7.18002 46.04 5.37002C45.12 4.35002 43.93 3.54002 42.59 3.19002C40.05 2.52002 37.78 3.68002 36.07 5.52002C35.5 6.14002 34.54 6.14002 33.97 5.52002C32.26 3.67002 30 2.51002 27.46 3.18002C26.12 3.53002 24.93 4.34002 24 5.36002C22.88 6.60002 22.16 8.02002 22.03 9.70002C22 10.14 22 10.59 22.05 11.03C22.22 9.44002 22.93 8.07002 24 6.88002C24.92 5.86002 26.11 5.05002 27.46 4.70002C30 4.04002 32.26 5.19002 33.97 7.04002C34.54 7.66002 35.5 7.66002 36.07 7.04002C37.78 5.19002 40.05 4.04002 42.59 4.71002C43.93 5.06002 45.12 5.87002 46.04 6.89002C47.24 8.22002 47.83 9.64002 47.97 11.08V11.09Z" fill="url(#paint11_linear_28_1189)"/>
<path fill-rule="evenodd" clip-rule="evenodd" d="M53.67 42.77C55.66 42.98 57.64 42.49 59.47 40.85C60.49 39.93 61.3 38.74 61.65 37.4C62.32 34.86 61.16 32.59 59.32 30.88C58.7 30.31 58.7 29.35 59.32 28.78C61.17 27.07 62.32 24.81 61.66 22.27C61.31 20.93 60.5 19.74 59.48 18.82C58.24 17.7 56.82 16.98 55.14 16.85C54.67 16.81 54.2 16.82 53.73 16.88C55.29 17.06 56.63 17.76 57.8 18.82C58.83 19.74 59.63 20.93 59.98 22.27C60.64 24.81 59.49 27.07 57.64 28.78C57.02 29.35 57.02 30.31 57.64 30.88C59.49 32.59 60.64 34.86 59.97 37.4C59.62 38.74 58.81 39.93 57.79 40.85C56.48 42.03 55.09 42.61 53.67 42.77Z" fill="#7BC143"/>
<path fill-rule="evenodd" clip-rule="evenodd" d="M16.36 42.77C14.37 42.98 12.39 42.49 10.56 40.85C9.53999 39.93 8.72999 38.74 8.37999 37.4C7.70999 34.86 8.86999 32.59 10.71 30.88C11.33 30.31 11.33 29.35 10.71 28.78C8.85999 27.07 7.70999 24.81 8.36999 22.27C8.71999 20.93 9.52999 19.74 10.56 18.82C11.8 17.7 13.22 16.98 14.9 16.85C15.37 16.81 15.84 16.82 16.31 16.88C14.75 17.06 13.41 17.76 12.24 18.82C11.22 19.74 10.41 20.93 10.06 22.27C9.39999 24.81 10.55 27.07 12.4 28.78C13.02 29.35 13.02 30.31 12.4 30.88C10.55 32.59 9.39999 34.86 10.07 37.4C10.42 38.74 11.23 39.93 12.25 40.85C13.56 42.03 14.95 42.61 16.37 42.77H16.36Z" fill="#87C540"/>
</g>
<defs>
<linearGradient id="paint0_linear_28_1189" x1="11.2901" y1="55.84" x2="6.59007" y2="17.54" gradientUnits="userSpaceOnUse">
<stop stop-color="#388740"/>
<stop offset="1" stop-color="#4CB748"/>
</linearGradient>
<linearGradient id="paint1_linear_28_1189" x1="35.01" y1="4.08001" x2="35.01" y2="61.69" gradientUnits="userSpaceOnUse">
<stop stop-color="#388740"/>
<stop offset="0.47" stop-color="#439F46"/>
<stop offset="1" stop-color="#409845"/>
</linearGradient>
<linearGradient id="paint2_linear_28_1189" x1="37.95" y1="30.89" x2="26.89" y2="100.71" gradientUnits="userSpaceOnUse">
<stop stop-color="#77C043"/>
<stop offset="1" stop-color="#43B649"/>
</linearGradient>
<linearGradient id="paint3_linear_28_1189" x1="45.92" y1="15.94" x2="4.27001" y2="16.67" gradientUnits="userSpaceOnUse">
<stop stop-color="#77C043"/>
<stop offset="1" stop-color="#439C45"/>
</linearGradient>
<linearGradient id="paint4_linear_28_1189" x1="45.92" y1="43.45" x2="4.27001" y2="44.18" gradientUnits="userSpaceOnUse">
<stop stop-color="#77C043"/>
<stop offset="1" stop-color="#439C45"/>
</linearGradient>
<linearGradient id="paint5_linear_28_1189" x1="52.36" y1="16.08" x2="18.93" y2="16.08" gradientUnits="userSpaceOnUse">
<stop stop-color="#77C043"/>
<stop offset="1" stop-color="#439C45"/>
</linearGradient>
<linearGradient id="paint6_linear_28_1189" x1="52.36" y1="43.59" x2="18.93" y2="43.59" gradientUnits="userSpaceOnUse">
<stop stop-color="#77C043"/>
<stop offset="1" stop-color="#439C45"/>
</linearGradient>
<linearGradient id="paint7_linear_28_1189" x1="48.3601" y1="44.56" x2="49.0101" y2="25.94" gradientUnits="userSpaceOnUse">
<stop stop-color="#77C043"/>
<stop offset="1" stop-color="#43B649"/>
</linearGradient>
<linearGradient id="paint8_linear_28_1189" x1="48.8801" y1="20.13" x2="48.6501" y2="33.35" gradientUnits="userSpaceOnUse">
<stop stop-color="#439C45"/>
<stop offset="1" stop-color="#43B649"/>
</linearGradient>
<linearGradient id="paint9_linear_28_1189" x1="20.85" y1="44.56" x2="21.5" y2="25.94" gradientUnits="userSpaceOnUse">
<stop stop-color="#77C043"/>
<stop offset="1" stop-color="#43B649"/>
</linearGradient>
<linearGradient id="paint10_linear_28_1189" x1="21.39" y1="19.67" x2="21.16" y2="32.85" gradientUnits="userSpaceOnUse">
<stop stop-color="#439C45"/>
<stop offset="1" stop-color="#43B649"/>
</linearGradient>
<linearGradient id="paint11_linear_28_1189" x1="36.78" y1="3.54002" x2="30.74" y2="26.07" gradientUnits="userSpaceOnUse">
<stop stop-color="#99CC63"/>
<stop offset="1" stop-color="#84C663"/>
</linearGradient>
<clipPath id="clip0_28_1189">
<rect width="64.81" height="59.66" fill="white"/>
</clipPath>
</defs>
</svg>
