<svg width="64" height="61" viewBox="0 0 64 61" fill="none" xmlns="http://www.w3.org/2000/svg">
<g clip-path="url(#clip0_28_1375)">
<path fill-rule="evenodd" clip-rule="evenodd" d="M59.62 47.36H60.03C61.78 47.36 63.21 48.79 63.21 50.54V56.9C63.21 58.65 61.78 60.08 60.03 60.08H45.14C43.39 60.08 41.96 58.65 41.96 56.9V50.54C41.96 48.79 43.38 47.36 45.14 47.36H45.27C47.16 44.35 48.15 40.89 48.15 37.32C48.15 32.22 46.7 27.22 42.96 23.6C39.92 20.66 35.81 19.13 31.6 19.13C27.39 19.13 23.28 20.67 20.24 23.6C16.5 27.22 15.05 32.22 15.05 37.32C15.05 40.89 16.04 44.35 17.93 47.36H18.06C19.81 47.36 21.24 48.79 21.24 50.54V56.9C21.24 58.65 19.81 60.08 18.06 60.08H3.18C1.43 60.08 0 58.65 0 56.9V50.54C0 48.79 1.43 47.36 3.18 47.36H3.59C1.31 42.78 0.14 37.75 0.14 32.6C0.14 25.11 2.06 17.82 6.67 11.82C10.61 6.69 16.1 3.11 22.3 1.31C25.32 0.43 28.46 0 31.61 0C34.76 0 37.9 0.44 40.92 1.31C47.12 3.11 52.6 6.69 56.55 11.82C61.16 17.82 63.08 25.11 63.08 32.6C63.08 37.75 61.9 42.78 59.63 47.36H59.62Z" fill="#231F20"/>
<path fill-rule="evenodd" clip-rule="evenodd" d="M60.68 32.6C60.68 38.43 59.06 43.89 56.25 48.54C56.1 48.79 56.09 49.08 56.24 49.34C56.38 49.6 56.64 49.74 56.93 49.74H60.02C60.46 49.74 60.81 50.1 60.81 50.53V56.89C60.81 57.33 60.45 57.68 60.02 57.68H45.13C44.69 57.68 44.34 57.32 44.34 56.89V50.53C44.34 50.09 44.7 49.74 45.13 49.74H46.12C46.39 49.74 46.62 49.62 46.77 49.4C49.13 45.98 50.52 41.81 50.52 37.32C50.52 9.88001 12.65 9.88001 12.65 37.32C12.65 41.82 14.04 45.98 16.4 49.4C16.55 49.62 16.78 49.74 17.05 49.74H18.04C18.48 49.74 18.83 50.1 18.83 50.53V56.89C18.83 57.33 18.47 57.68 18.04 57.68H3.18001C2.74001 57.68 2.39001 57.32 2.39001 56.89V50.53C2.39001 50.09 2.75001 49.74 3.18001 49.74H6.27001C6.56001 49.74 6.82001 49.59 6.96001 49.34C7.10001 49.08 7.10001 48.79 6.95001 48.54C4.14001 43.89 2.52001 38.43 2.52001 32.6C2.52001 -7.68999 60.68 -7.68999 60.68 32.6Z" fill="#FDB920"/>
<path fill-rule="evenodd" clip-rule="evenodd" d="M3.77002 51.53V52.32C3.77002 52.54 3.95002 52.72 4.17002 52.72H6.27002C7.07002 52.72 7.78002 52.3 8.17002 51.61C8.30002 51.39 8.38002 51.15 8.42002 50.9C8.45002 50.73 8.37002 50.57 8.22002 50.48C8.07002 50.4 7.89002 50.42 7.76002 50.54C7.36002 50.91 6.84002 51.13 6.27002 51.13H4.17002C3.95002 51.13 3.77002 51.31 3.77002 51.53ZM17.47 52.33V51.54C17.47 51.32 17.29 51.14 17.07 51.14C16.35 51.14 15.69 50.79 15.28 50.2C15.06 49.88 14.85 49.56 14.65 49.23C14.54 49.05 14.3 48.99 14.11 49.09C13.92 49.2 13.86 49.43 13.96 49.62C14.36 50.36 14.8 51.08 15.28 51.78C15.69 52.37 16.35 52.72 17.07 52.72C17.18 52.72 17.27 52.68 17.35 52.6C17.43 52.52 17.47 52.43 17.47 52.32V52.33ZM48.56 49.23C48.36 49.56 48.15 49.88 47.93 50.19C47.52 50.78 46.86 51.13 46.14 51.13C45.92 51.13 45.74 51.31 45.74 51.53V52.32C45.74 52.43 45.78 52.52 45.86 52.6C45.94 52.68 46.03 52.72 46.14 52.72C46.86 52.72 47.52 52.37 47.93 51.78C48.41 51.08 48.85 50.36 49.25 49.62C49.35 49.43 49.29 49.2 49.1 49.09C48.91 48.98 48.67 49.04 48.56 49.22V49.23ZM59.43 52.33V51.54C59.43 51.32 59.25 51.14 59.03 51.14H56.93C56.36 51.14 55.83 50.93 55.44 50.55C55.31 50.43 55.13 50.41 54.98 50.49C54.83 50.57 54.75 50.74 54.78 50.91C54.82 51.15 54.91 51.39 55.03 51.62C55.42 52.31 56.14 52.73 56.93 52.73H59.03C59.25 52.73 59.43 52.55 59.43 52.33ZM57.72 21.54C49.7 -2.95999 13.5 -2.95999 5.49002 21.55C5.43002 21.74 5.51002 21.95 5.70002 22.04C5.89002 22.13 6.14002 22.04 6.23002 21.84C15.23 1.23001 47.96 1.23001 56.98 21.83C57.07 22.04 57.32 22.12 57.52 22.03C57.71 21.94 57.79 21.74 57.73 21.55L57.72 21.54Z" fill="#FFD791"/>
<path fill-rule="evenodd" clip-rule="evenodd" d="M51.12 12.06C40.91 1.24001 22.3 1.24001 12.09 12.06C22.8 2.90001 40.41 2.90001 51.12 12.06Z" fill="white"/>
<path fill-rule="evenodd" clip-rule="evenodd" d="M3.77002 55.3V55.91C3.77002 56.13 3.95002 56.31 4.17002 56.31H17.07C17.29 56.31 17.47 56.13 17.47 55.91V55.3C17.47 55.08 17.29 54.9 17.07 54.9H4.17002C3.95002 54.9 3.77002 55.08 3.77002 55.3ZM13.27 27.94C20.17 12.25 43.01 12.24 49.92 27.93C50.01 28.13 50.26 28.22 50.45 28.13C50.64 28.04 50.72 27.84 50.66 27.64C44.61 9.40003 18.56 9.40003 12.52 27.66C12.45 27.86 12.55 28.07 12.75 28.15C12.95 28.23 13.18 28.14 13.26 27.94H13.27ZM45.73 55.3V55.91C45.73 56.13 45.91 56.31 46.13 56.31H59.03C59.25 56.31 59.43 56.13 59.43 55.91V55.3C59.43 55.08 59.25 54.9 59.03 54.9H46.13C45.91 54.9 45.73 55.08 45.73 55.3ZM55.49 47.09C56.37 45.54 57.09 43.93 57.67 42.26C57.74 42.06 57.64 41.84 57.44 41.76C57.24 41.68 57.01 41.78 56.93 41.97C56.39 43.22 55.77 44.44 55.06 45.62C54.82 46.02 54.71 46.47 54.75 46.92C54.76 47.1 54.89 47.24 55.06 47.28C55.23 47.32 55.4 47.24 55.49 47.09ZM5.53002 42.27C6.11002 43.93 6.83002 45.55 7.71002 47.09C7.80002 47.24 7.97002 47.32 8.14002 47.28C8.31002 47.24 8.44002 47.1 8.45002 46.92C8.49002 46.47 8.38002 46.02 8.14002 45.62C7.43002 44.44 6.80002 43.22 6.27002 41.97C6.19002 41.77 5.96002 41.68 5.76002 41.76C5.56002 41.84 5.46002 42.06 5.53002 42.26V42.27Z" fill="url(#paint0_linear_28_1375)"/>
<path fill-rule="evenodd" clip-rule="evenodd" d="M31.6 8.47998C30.65 8.47998 29.88 9.24998 29.88 10.2C29.88 11.15 30.65 11.92 31.6 11.92C32.55 11.92 33.32 11.15 33.32 10.2C33.32 9.24998 32.55 8.47998 31.6 8.47998ZM10.37 19.03C9.89998 19.85 10.18 20.9 11 21.37C11.82 21.84 12.87 21.56 13.34 20.74C13.81 19.92 13.53 18.87 12.71 18.4C11.89 17.93 10.84 18.21 10.37 19.03ZM19.6 11.31C18.78 11.78 18.5 12.84 18.97 13.65C19.44 14.47 20.49 14.75 21.31 14.28C22.13 13.81 22.41 12.75 21.94 11.94C21.47 11.12 20.42 10.84 19.6 11.31ZM52.83 19.03C52.36 18.21 51.31 17.93 50.49 18.4C49.67 18.87 49.39 19.93 49.86 20.74C50.33 21.56 51.38 21.84 52.2 21.37C53.02 20.9 53.3 19.85 52.83 19.03ZM43.6 11.31C42.78 10.84 41.73 11.12 41.25 11.94C40.78 12.76 41.06 13.81 41.88 14.28C42.7 14.75 43.75 14.47 44.22 13.65C44.69 12.83 44.41 11.78 43.59 11.31H43.6Z" fill="url(#paint1_linear_28_1375)"/>
<path fill-rule="evenodd" clip-rule="evenodd" d="M33.62 12.81C33.07 13.24 32.37 13.5 31.61 13.5C30.85 13.5 30.15 13.24 29.6 12.81C29.44 12.68 29.4 12.45 29.51 12.28C29.62 12.11 29.85 12.05 30.03 12.15C30.5 12.41 31.04 12.55 31.61 12.55C32.18 12.55 32.72 12.4 33.19 12.15C33.37 12.05 33.6 12.11 33.71 12.28C33.82 12.45 33.79 12.68 33.62 12.81ZM13.87 22.49C12.88 23.26 11.48 23.49 10.21 22.76C10.07 22.68 9.92998 22.58 9.79998 22.48C9.63998 22.35 9.59998 22.12 9.71998 21.95C9.83998 21.78 10.06 21.72 10.24 21.82C11.29 22.41 12.48 22.34 13.43 21.82C13.61 21.72 13.84 21.78 13.95 21.95C14.06 22.12 14.02 22.35 13.86 22.48L13.87 22.49ZM22.52 15.38C22.39 15.48 22.26 15.57 22.11 15.66C20.84 16.39 19.44 16.16 18.45 15.39C18.29 15.26 18.25 15.03 18.36 14.86C18.47 14.69 18.7 14.63 18.88 14.73C19.83 15.25 21.02 15.32 22.07 14.73C22.25 14.63 22.48 14.68 22.59 14.85C22.71 15.02 22.67 15.25 22.51 15.38H22.52ZM53.4 22.48C53.27 22.58 53.14 22.67 52.99 22.76C51.72 23.49 50.32 23.26 49.33 22.49C49.17 22.36 49.13 22.13 49.24 21.96C49.35 21.79 49.58 21.73 49.76 21.83C50.71 22.35 51.9 22.42 52.95 21.83C53.13 21.73 53.36 21.78 53.47 21.95C53.59 22.12 53.55 22.35 53.39 22.48H53.4ZM44.75 15.39C43.76 16.16 42.36 16.39 41.09 15.66C40.95 15.58 40.81 15.48 40.68 15.38C40.52 15.25 40.48 15.02 40.6 14.85C40.72 14.68 40.94 14.62 41.12 14.73C42.17 15.32 43.36 15.25 44.31 14.73C44.49 14.63 44.72 14.69 44.83 14.86C44.94 15.03 44.9 15.26 44.74 15.39H44.75Z" fill="#FFD791"/>
<path fill-rule="evenodd" clip-rule="evenodd" d="M33.62 7.81C33.07 7.38 32.37 7.12 31.61 7.12C30.85 7.12 30.15 7.38 29.6 7.81C29.44 7.94 29.4 8.17 29.51 8.34C29.62 8.51 29.85 8.57 30.03 8.47C30.5 8.22 31.04 8.06999 31.61 8.06999C32.18 8.06999 32.72 8.22 33.19 8.47C33.37 8.57 33.6 8.51 33.71 8.34C33.82 8.17 33.78 7.93 33.62 7.81ZM13.87 17.26C12.88 16.49 11.48 16.26 10.21 16.99C10.07 17.07 9.92998 17.17 9.79998 17.27C9.63998 17.4 9.59998 17.63 9.71998 17.8C9.83998 17.97 10.06 18.03 10.24 17.93C11.29 17.34 12.48 17.41 13.43 17.93C13.61 18.03 13.84 17.97 13.95 17.8C14.06 17.63 14.02 17.4 13.86 17.27L13.87 17.26ZM22.52 10C22.39 9.9 22.26 9.81 22.11 9.72C20.84 8.99 19.44 9.22 18.45 9.99C18.29 10.12 18.25 10.35 18.36 10.52C18.47 10.69 18.7 10.75 18.88 10.65C19.83 10.13 21.02 10.06 22.07 10.65C22.25 10.75 22.48 10.7 22.59 10.53C22.71 10.36 22.67 10.13 22.51 10H22.52ZM53.4 17.27C53.27 17.17 53.14 17.08 52.99 16.99C51.72 16.26 50.32 16.49 49.33 17.26C49.17 17.39 49.13 17.62 49.24 17.79C49.35 17.96 49.58 18.02 49.76 17.92C50.71 17.4 51.9 17.33 52.95 17.92C53.13 18.02 53.36 17.97 53.47 17.79C53.59 17.62 53.55 17.39 53.39 17.26L53.4 17.27ZM44.75 9.99C43.76 9.22 42.36 8.99 41.09 9.72C40.95 9.8 40.81 9.9 40.68 10C40.52 10.13 40.48 10.36 40.6 10.53C40.72 10.7 40.94 10.76 41.12 10.65C42.17 10.06 43.36 10.13 44.31 10.65C44.49 10.75 44.72 10.69 44.83 10.52C44.94 10.35 44.9 10.12 44.74 9.99H44.75Z" fill="url(#paint2_linear_28_1375)"/>
</g>
<defs>
<linearGradient id="paint0_linear_28_1375" x1="31.6" y1="66.41" x2="31.6" y2="-70.85" gradientUnits="userSpaceOnUse">
<stop stop-color="#F36E33"/>
<stop offset="1" stop-color="#FDB51E"/>
</linearGradient>
<linearGradient id="paint1_linear_28_1375" x1="31.28" y1="38.34" x2="32.16" y2="-11.89" gradientUnits="userSpaceOnUse">
<stop stop-color="#5A120A"/>
<stop offset="1" stop-color="#F37432"/>
</linearGradient>
<linearGradient id="paint2_linear_28_1375" x1="31.6" y1="6.36" x2="31.6" y2="51.35" gradientUnits="userSpaceOnUse">
<stop stop-color="#F36E33"/>
<stop offset="1" stop-color="#FDB51E"/>
</linearGradient>
<clipPath id="clip0_28_1375">
<rect width="63.21" height="60.08" fill="white"/>
</clipPath>
</defs>
</svg>
