<svg width="66" height="62" viewBox="0 0 66 62" fill="none" xmlns="http://www.w3.org/2000/svg">
<g clip-path="url(#clip0_28_1207)">
<path fill-rule="evenodd" clip-rule="evenodd" d="M12.66 60.24C12.09 60.71 11.44 61.06 10.73 61.27C4.71002 63.05 -3.08998 54.1 1.26002 48.85C1.38002 48.7 1.44002 48.54 1.44002 48.34C1.42002 47.59 1.26002 46.46 1.22002 45.94C0.990018 43.05 0.960018 40.17 1.02002 37.28C1.28002 26.34 10.65 15.12 21.36 11.37C21.56 11.3 21.71 11.17 21.8 10.98C21.89 10.79 21.9 10.59 21.83 10.39C20.98 8.08002 19.89 6.00002 17.05 4.66002C17.05 4.66002 17.04 4.66002 17.03 4.66002C16.15 4.27002 16.3 2.91002 17.3 2.78002C19.3 2.51002 21.36 2.02002 23.42 1.54002C26.44 0.810022 29.47 0.0900218 32.56 2.17836e-05C36.21 -0.0899782 39.84 0.730022 42.9 2.47002C45.29 3.83002 47.34 5.74002 48.8 8.20002C48.92 8.40002 49.1 8.52002 49.33 8.56002C53.09 9.20002 56.62 11.21 59.36 13.82C62.48 16.79 64.31 20.49 65.01 24.42C65.76 28.63 65.21 33.1 63.58 37.24C62.2 40.73 60.09 43.92 57.98 47.1C56.55 49.26 55.12 51.43 53.94 53.65C53.68 54.14 53.07 54.33 52.58 54.08C52.25 53.92 52.06 53.6 52.03 53.27C52.03 53.27 52.03 53.26 52.03 53.25C51.7 50 50.53 47.48 48.94 45.3C48.79 45.09 48.55 44.98 48.29 44.99C48.03 45 47.81 45.13 47.67 45.36C42.65 53.73 33.34 60.26 24.23 60.48C21.34 60.55 18.46 60.51 15.57 60.28C15.05 60.24 13.92 60.09 13.17 60.06C12.98 60.06 12.81 60.11 12.66 60.23V60.24Z" fill="url(#paint0_linear_28_1207)"/>
<path fill-rule="evenodd" clip-rule="evenodd" d="M32.18 1.39001C29.26 1.47001 26.25 2.18001 23.24 2.89001C22.53 3.06001 21.83 3.22001 21.12 3.38001C20.83 3.44001 20.62 3.65001 20.55 3.93001C20.48 4.21001 20.56 4.49001 20.78 4.69001C22.5 6.22001 23.69 8.02001 24.69 9.92001C24.84 10.21 25.15 10.37 25.48 10.32C26.4 10.17 27.32 10.09 28.24 10.07C30.3 10.02 32.35 10.03 34.4 10.12C34.74 10.13 35.04 9.93001 35.15 9.61001C35.26 9.29001 35.15 8.94001 34.87 8.74001C31.94 6.65001 28.59 5.74001 28.57 5.74001C27.67 5.53001 27.99 4.61001 28.89 4.82001C28.91 4.82001 35.16 5.99001 39 9.46001C39.26 9.69001 39.62 9.72001 39.92 9.54001C41.39 8.61001 43.11 8.09001 44.86 7.86001C45.15 7.82001 45.38 7.64002 45.48 7.36001C45.58 7.09001 45.52 6.80001 45.32 6.59001C44.26 5.44001 42.99 4.41001 41.71 3.68001C38.9 2.08001 35.56 1.32001 32.17 1.41001L32.18 1.39001Z" fill="url(#paint1_linear_28_1207)"/>
<path fill-rule="evenodd" clip-rule="evenodd" d="M24.16 57.5201C13.25 57.78 12.64 56.2601 10.9 57.8601C7.76001 60.7401 0.77001 53.75 3.66001 50.62C5.26001 48.88 3.74001 48.26 4.00001 37.3601C4.27001 25.7001 16.67 13.31 28.32 13.04C31.3 12.97 33.51 13.04 35.19 13.13C35.45 13.15 35.67 13.28 35.8 13.5C35.93 13.73 35.94 13.98 35.83 14.22C35.38 15.16 35.04 16.15 34.81 17.18C34.03 20.65 34.45 24.58 35.66 28.19C37.35 33.25 40.67 36.48 43.94 39.66C44.57 40.2801 45.2 40.8901 45.82 41.5201C46.05 41.76 46.11 42.1101 45.95 42.4001C41.69 50.59 32.73 57.33 24.16 57.53V57.5201Z" fill="#E0D217"/>
<path fill-rule="evenodd" clip-rule="evenodd" d="M30.27 14.62C32.78 14.39 33.58 17.39 31.22 18.26C20.55 22.15 11.52 31.38 8.19 42.28C7.62 44.16 5.35 44.83 5.21 41.82C4.66 27.65 15.62 14.88 30.26 14.63L30.27 14.62Z" fill="url(#paint2_linear_28_1207)"/>
<path fill-rule="evenodd" clip-rule="evenodd" d="M7.37 35.07C11.48 26.93 18.5 20.15 26.74 16.29C17.4 18.17 9.59 25.86 7.37 35.07Z" fill="white"/>
<path fill-rule="evenodd" clip-rule="evenodd" d="M44.55 40.25C43.24 42.78 41.47 45.21 39.26 47.4C33.82 52.8 26.93 55.51 20.73 55.31C20.52 55.31 20.36 55.15 20.33 54.94C20.31 54.73 20.43 54.55 20.63 54.49C26.36 52.94 32.07 49.71 36.92 44.89C39.05 42.78 40.87 40.51 42.39 38.13C42.9 38.64 43.41 39.14 43.93 39.64L44.55 40.24V40.25Z" fill="#A6A035"/>
<path fill-rule="evenodd" clip-rule="evenodd" d="M56.28 45.87C58.33 42.71 60.39 39.54 61.69 36.19C63.19 32.31 63.7 28.12 63.01 24.2C62.38 20.6 60.74 17.21 57.95 14.5C55.51 12.13 52.3 10.23 48.9 9.66005C48.57 9.61005 48.26 9.76005 48.1 10.06C47.94 10.36 48 10.7 48.23 10.94C55.01 17.92 55.3 30.76 54.89 39.62C54.83 40.94 53.67 40.45 53.73 39.14C54.15 29.97 51.94 17.31 44.01 10.26C43.8 10.07 43.52 10.02 43.25 10.11C39.91 11.3 37.56 14.13 36.77 17.62C36.07 20.72 36.47 24.26 37.57 27.55C39.1 32.14 42.25 35.2 45.35 38.21C48.82 41.58 52.22 44.9001 53.56 50.2001C54.43 48.7401 55.36 47.3101 56.29 45.8801L56.28 45.87Z" fill="url(#paint3_linear_28_1207)"/>
</g>
<defs>
<linearGradient id="paint0_linear_28_1207" x1="18.32" y1="16.23" x2="40.42" y2="50.25" gradientUnits="userSpaceOnUse">
<stop stop-color="#231F20"/>
<stop offset="1" stop-color="#231F20"/>
</linearGradient>
<linearGradient id="paint1_linear_28_1207" x1="34.84" y1="-2.91999" x2="31.64" y2="12.15" gradientUnits="userSpaceOnUse">
<stop stop-color="#77C043"/>
<stop offset="1" stop-color="#43B649"/>
</linearGradient>
<linearGradient id="paint2_linear_28_1207" x1="32.62" y1="45.69" x2="-3.05999" y2="3.17002" gradientUnits="userSpaceOnUse">
<stop stop-color="#F1EB4F"/>
<stop offset="1" stop-color="#FFFBC8"/>
</linearGradient>
<linearGradient id="paint3_linear_28_1207" x1="46.98" y1="10.65" x2="54.53" y2="46.1801" gradientUnits="userSpaceOnUse">
<stop stop-color="#77C043"/>
<stop offset="1" stop-color="#43B649"/>
</linearGradient>
<clipPath id="clip0_28_1207">
<rect width="65.34" height="61.5" fill="white"/>
</clipPath>
</defs>
</svg>
