<svg width="54" height="56" viewBox="0 0 54 56" fill="none" xmlns="http://www.w3.org/2000/svg">
<g clip-path="url(#clip0_28_1386)">
<path fill-rule="evenodd" clip-rule="evenodd" d="M8.92002 2.70003C9.69002 2.32003 10.48 1.97003 11.28 1.66003C18.3 -1.05997 24.82 2.61068e-05 31.9 1.73003C35.31 2.56003 43.83 4.64003 46.56 1.55003C47.44 0.560026 48.96 0.440026 49.98 1.29003C50.81 1.98003 52.17 3.23003 52.84 4.09003C53.52 4.97003 53.73 6.28003 52.22 8.33003C43.76 20.2 38.66 37.93 40.54 52.51C40.74 54.08 39.41 55.35 37.87 55.35H15.85C14.53 55.35 13.44 54.31 13.39 52.99C13.34 51.97 13.33 50.96 13.35 49.96C13.21 42.95 14.66 36.47 18.55 30.49C20.61 27.31 23.2 24.52 26.03 21.97C26.14 21.87 26.18 21.74 26.14 21.6C26.1 21.46 25.99 21.37 25.85 21.34C23.05 20.83 20.29 19.94 17.47 19.54C13.42 18.97 8.88002 20.44 8.73002 25.15C8.69002 26.48 7.59002 27.53 6.27002 27.53H2.47002C1.11002 27.53 0.0100164 26.43 0.0100164 25.07V3.70003C1.63764e-05 2.34003 1.10002 1.24003 2.46002 1.24003H6.25002C7.19002 1.24003 8.01002 1.77003 8.43002 2.55003C8.52002 2.72003 8.74002 2.79003 8.91002 2.71003L8.92002 2.70003Z" fill="#231F20"/>
<path fill-rule="evenodd" clip-rule="evenodd" d="M2.13 3.73002V23.28C2.13 23.47 2.28 23.62 2.47 23.62H6.27C6.45 23.62 6.6 23.48 6.61 23.29C6.8 17.43 12.19 14.86 17.78 15.64C22.13 16.25 25.29 17.59 28.84 17.77C30.98 17.88 33.18 17.36 35.53 16.39C35.69 16.32 35.87 16.39 35.95 16.54C36.03 16.69 35.99 16.88 35.85 16.98C23.64 25.77 14.75 34.11 15.53 51.11C15.53 51.29 15.69 51.43 15.87 51.43H37.89C37.99 51.43 38.08 51.39 38.14 51.31C38.21 51.23 38.23 51.14 38.22 51.04C36.37 36.7 43.3 17.5 51.64 5.80002C51.74 5.65002 51.72 5.46002 51.58 5.34002C50.77 4.67002 49.45 3.62002 48.63 2.94002C48.49 2.82002 48.28 2.84002 48.16 2.98002C44.48 7.13002 35.02 4.70002 31.4 3.81002C24.81 2.21002 18.63 1.11002 12.05 3.66002C10.47 4.27002 8.83 5.09002 7.11 6.16002C7 6.23002 6.88 6.23002 6.77 6.16002C6.66 6.10002 6.6 5.99002 6.6 5.86002V3.70002C6.6 3.51002 6.45001 3.36002 6.26 3.36002H2.47C2.28 3.36002 2.13 3.51002 2.13 3.70002V3.73002Z" fill="white"/>
<path fill-rule="evenodd" clip-rule="evenodd" d="M3.95001 5.58004V21.43C3.95001 21.63 4.11001 21.8 4.32001 21.8H4.61001C4.79001 21.8 4.93001 21.68 4.97001 21.51C6.12001 15.59 12.12 13.02 18.02 13.85C19.75 14.09 21.43 14.47 23.12 14.89C24.51 15.23 25.91 15.59 27.33 15.8C27.86 15.88 28.39 15.94 28.92 15.96C30.94 16.06 32.97 15.48 34.82 14.72C35.83 14.3 37 14.72 37.53 15.67C38.06 16.63 37.79 17.84 36.91 18.48C31.4 22.44 25.6 26.94 21.87 32.69C18.55 37.81 17.27 43.31 17.3 49.26C17.3 49.46 17.46 49.62 17.67 49.62H35.84C35.94 49.62 36.04 49.58 36.11 49.5C36.18 49.42 36.21 49.33 36.21 49.22C35.19 35.23 41.44 17.71 49.18 6.17004C49.29 6.01004 49.25 5.80004 49.11 5.68004C48.97 5.57004 48.84 5.46004 48.7 5.35004C48.57 5.25004 48.4 5.24004 48.26 5.34004C43.71 8.55004 35.82 6.77004 30.98 5.59004C24.77 4.08004 18.89 2.98004 12.73 5.37004C11.11 6.00004 9.57001 6.80004 8.10001 7.72004C7.43001 8.13004 6.60001 8.16004 5.91001 7.77004C5.22001 7.39004 4.80001 6.67004 4.80001 5.88004V5.58004C4.80001 5.38004 4.64001 5.21004 4.43001 5.21004H4.34001C4.14001 5.21004 3.97001 5.37004 3.97001 5.58004H3.95001Z" fill="#C62026"/>
</g>
<defs>
<clipPath id="clip0_28_1386">
<rect width="53.36" height="55.36" fill="white"/>
</clipPath>
</defs>
</svg>
